G04 #@! TF.GenerationSoftware,KiCad,Pcbnew,(5.1.2)-2*
G04 #@! TF.CreationDate,2020-02-21T15:06:10-05:00*
G04 #@! TF.ProjectId,Micro-Breakout,4d696372-6f2d-4427-9265-616b6f75742e,rev?*
G04 #@! TF.SameCoordinates,Original*
G04 #@! TF.FileFunction,Copper,L2,Bot*
G04 #@! TF.FilePolarity,Positive*
%FSLAX46Y46*%
G04 Gerber Fmt 4.6, Leading zero omitted, Abs format (unit mm)*
G04 Created by KiCad (PCBNEW (5.1.2)-2) date 2020-02-21 15:06:10*
%MOMM*%
%LPD*%
G04 APERTURE LIST*
%ADD10O,1.700000X1.700000*%
%ADD11R,1.700000X1.700000*%
%ADD12R,1.750000X1.750000*%
%ADD13C,1.750000*%
%ADD14C,0.800000*%
%ADD15C,0.250000*%
%ADD16C,0.400000*%
%ADD17C,0.254000*%
G04 APERTURE END LIST*
D10*
X151130000Y-97790000D03*
X153670000Y-97790000D03*
X156210000Y-97790000D03*
X158750000Y-97790000D03*
X161290000Y-97790000D03*
X163830000Y-97790000D03*
X166370000Y-97790000D03*
X168910000Y-97790000D03*
X171450000Y-97790000D03*
X173990000Y-97790000D03*
X176530000Y-97790000D03*
X179070000Y-97790000D03*
X181610000Y-97790000D03*
X184150000Y-97790000D03*
X186690000Y-97790000D03*
X189230000Y-97790000D03*
D11*
X191770000Y-97790000D03*
X191770000Y-113030000D03*
D10*
X189230000Y-113030000D03*
X186690000Y-113030000D03*
X184150000Y-113030000D03*
X181610000Y-113030000D03*
X179070000Y-113030000D03*
X176530000Y-113030000D03*
X173990000Y-113030000D03*
X171450000Y-113030000D03*
X168910000Y-113030000D03*
X166370000Y-113030000D03*
X163830000Y-113030000D03*
X161290000Y-113030000D03*
X158750000Y-113030000D03*
X156210000Y-113030000D03*
X153670000Y-113030000D03*
X151130000Y-113030000D03*
D12*
X114300000Y-111760000D03*
D13*
X116800000Y-111760000D03*
X119300000Y-111760000D03*
X121800000Y-111760000D03*
X137040000Y-124460000D03*
X134540000Y-124460000D03*
X132040000Y-124460000D03*
D12*
X129540000Y-124460000D03*
X114227001Y-124483001D03*
D13*
X116727001Y-124483001D03*
X119227001Y-124483001D03*
X121727001Y-124483001D03*
X137040000Y-111760000D03*
X134540000Y-111760000D03*
X132040000Y-111760000D03*
D12*
X129540000Y-111760000D03*
D13*
X182840000Y-91440000D03*
D12*
X180340000Y-91440000D03*
D13*
X152280000Y-137160000D03*
X149780000Y-137160000D03*
X147280000Y-137160000D03*
D12*
X144780000Y-137160000D03*
D13*
X128150000Y-93472000D03*
X125650000Y-93472000D03*
X123150000Y-93472000D03*
D12*
X120650000Y-93472000D03*
D13*
X182760000Y-137160000D03*
X180260000Y-137160000D03*
X177760000Y-137160000D03*
D12*
X175260000Y-137160000D03*
X175260000Y-124460000D03*
D13*
X177760000Y-124460000D03*
X180260000Y-124460000D03*
X182760000Y-124460000D03*
X167520000Y-137160000D03*
X165020000Y-137160000D03*
X162520000Y-137160000D03*
D12*
X160020000Y-137160000D03*
X144780000Y-124460000D03*
D13*
X147280000Y-124460000D03*
X149780000Y-124460000D03*
X152280000Y-124460000D03*
X137040000Y-137160000D03*
X134540000Y-137160000D03*
X132040000Y-137160000D03*
D12*
X129540000Y-137160000D03*
D13*
X121800000Y-137160000D03*
X119300000Y-137160000D03*
X116800000Y-137160000D03*
D12*
X114300000Y-137160000D03*
X135890000Y-93472000D03*
D13*
X138390000Y-93472000D03*
X140890000Y-93472000D03*
X143390000Y-93472000D03*
X167520000Y-124460000D03*
X165020000Y-124460000D03*
X162520000Y-124460000D03*
D12*
X160020000Y-124460000D03*
D14*
X133096000Y-129540000D03*
X148082000Y-116332000D03*
X183642000Y-104648000D03*
X148336000Y-129540000D03*
X165100000Y-118364000D03*
X163576000Y-129540000D03*
X180340000Y-118364000D03*
X178816000Y-129540000D03*
X117856000Y-129286000D03*
X133096000Y-116840000D03*
X154178000Y-106172000D03*
X137922000Y-105918000D03*
X141986000Y-105918000D03*
X152908000Y-106172000D03*
X154940000Y-121412000D03*
X154940000Y-117602000D03*
X126492000Y-99568000D03*
X149352000Y-101346000D03*
X157480000Y-106172000D03*
X122682000Y-101346000D03*
X148336000Y-102362000D03*
X155702000Y-106172000D03*
X117856000Y-116840000D03*
X120904000Y-105918000D03*
X136144000Y-105918000D03*
D15*
X138684000Y-129540000D02*
X140462000Y-127762000D01*
X133096000Y-129540000D02*
X138684000Y-129540000D01*
X140462000Y-127762000D02*
X140462000Y-115826820D01*
X140462000Y-115826820D02*
X153845380Y-102443440D01*
X181610000Y-101173440D02*
X180340000Y-102443440D01*
X181610000Y-97790000D02*
X181610000Y-101173440D01*
X153845380Y-102443440D02*
X180340000Y-102443440D01*
X150259999Y-107301641D02*
X154218180Y-103343460D01*
X150259999Y-107301641D02*
X148084820Y-109476820D01*
X148084820Y-109476820D02*
X148082000Y-109479640D01*
X148082000Y-109479640D02*
X148082000Y-116332000D01*
X182337460Y-103343460D02*
X181864000Y-103343460D01*
X183642000Y-104648000D02*
X182337460Y-103343460D01*
X154218180Y-103343460D02*
X181864000Y-103343460D01*
X148336000Y-129540000D02*
X154940000Y-129540000D01*
X154940000Y-129540000D02*
X156464000Y-128016000D01*
X156464000Y-128016000D02*
X156464000Y-120650000D01*
X156464000Y-120650000D02*
X152400000Y-116586000D01*
X152400000Y-116586000D02*
X151130000Y-115316000D01*
X151130000Y-115316000D02*
X151130000Y-113030000D01*
X170180000Y-118364000D02*
X165100000Y-118364000D01*
X172916010Y-115627990D02*
X170180000Y-118364000D01*
X173990000Y-114554000D02*
X172916010Y-115627990D01*
X173990000Y-113030000D02*
X173990000Y-114554000D01*
X170434000Y-129540000D02*
X163576000Y-129540000D01*
X173353590Y-116586000D02*
X171196000Y-118743590D01*
X171196000Y-118743590D02*
X171196000Y-128778000D01*
X171196000Y-128778000D02*
X170434000Y-129540000D01*
X179070000Y-115824000D02*
X178308000Y-116586000D01*
X179070000Y-113030000D02*
X179070000Y-115824000D01*
X178308000Y-116586000D02*
X173353590Y-116586000D01*
X184150000Y-117348000D02*
X183134000Y-118364000D01*
X184150000Y-113030000D02*
X184150000Y-117348000D01*
X183134000Y-118364000D02*
X180340000Y-118364000D01*
X189230000Y-128270000D02*
X187960000Y-129540000D01*
X189230000Y-113030000D02*
X189230000Y-128270000D01*
X178816000Y-129540000D02*
X187960000Y-129540000D01*
X118255999Y-128886001D02*
X117856000Y-129286000D01*
X122319999Y-128886001D02*
X118255999Y-128886001D01*
X123952000Y-127254000D02*
X122319999Y-128886001D01*
X123952000Y-115570000D02*
X123952000Y-127254000D01*
X153036410Y-100584000D02*
X138870400Y-114750010D01*
X138870400Y-114750010D02*
X124771990Y-114750010D01*
X124771990Y-114750010D02*
X123952000Y-115570000D01*
X171450000Y-99568000D02*
X170434000Y-100584000D01*
X171450000Y-97790000D02*
X171450000Y-99568000D01*
X170434000Y-100584000D02*
X153036410Y-100584000D01*
X133096000Y-116840000D02*
X133096000Y-116078000D01*
X133096000Y-116078000D02*
X133523971Y-115650029D01*
X133523971Y-115650029D02*
X139365971Y-115650029D01*
X139365971Y-115650029D02*
X153472580Y-101543420D01*
X176530000Y-100273420D02*
X175260000Y-101543420D01*
X176530000Y-97790000D02*
X176530000Y-100273420D01*
X153472580Y-101543420D02*
X175260000Y-101543420D01*
X158750000Y-113030000D02*
X158750000Y-110744000D01*
X154178000Y-106172000D02*
X158750000Y-110744000D01*
X137922000Y-105918000D02*
X140716000Y-105918000D01*
X141986000Y-105918000D02*
X140716000Y-105918000D01*
X156210000Y-111827919D02*
X156210000Y-109474000D01*
X156210000Y-113030000D02*
X156210000Y-111827919D01*
X156210000Y-109474000D02*
X152908000Y-106172000D01*
X129540000Y-123335000D02*
X130701000Y-122174000D01*
X129540000Y-124460000D02*
X129540000Y-123335000D01*
X130701000Y-122174000D02*
X136652000Y-122174000D01*
X136652000Y-122174000D02*
X137922000Y-120904000D01*
X137922000Y-116332000D02*
X138153961Y-116100039D01*
X137922000Y-120904000D02*
X137922000Y-116332000D01*
X138153961Y-116100039D02*
X139552372Y-116100038D01*
X139552372Y-116100038D02*
X153658980Y-101993430D01*
X179070000Y-100723430D02*
X177800000Y-101993430D01*
X179070000Y-97790000D02*
X179070000Y-100723430D01*
X153658980Y-101993430D02*
X177800000Y-101993430D01*
X160020000Y-124460000D02*
X160020000Y-123335000D01*
X161181000Y-122174000D02*
X169672000Y-122174000D01*
X160020000Y-123335000D02*
X161181000Y-122174000D01*
X169672000Y-122174000D02*
X170434000Y-121412000D01*
X170434000Y-121412000D02*
X170434000Y-118869180D01*
X170434000Y-118869180D02*
X173225180Y-116078000D01*
X176530000Y-115062000D02*
X175514000Y-116078000D01*
X176530000Y-113030000D02*
X176530000Y-115062000D01*
X173225180Y-116078000D02*
X175514000Y-116078000D01*
D16*
X140890000Y-93472000D02*
X140890000Y-94709436D01*
X125650000Y-94709436D02*
X126952564Y-96012000D01*
X125650000Y-93472000D02*
X125650000Y-94709436D01*
X139587436Y-96012000D02*
X140890000Y-94709436D01*
X126952564Y-96012000D02*
X139587436Y-96012000D01*
X141430564Y-95250000D02*
X140890000Y-94709436D01*
X162814000Y-95250000D02*
X141430564Y-95250000D01*
X163830000Y-97790000D02*
X163830000Y-96266000D01*
X163830000Y-96266000D02*
X162814000Y-95250000D01*
D15*
X114300000Y-136035000D02*
X115461000Y-134874000D01*
X114300000Y-137160000D02*
X114300000Y-136035000D01*
X115461000Y-134874000D02*
X122936000Y-134874000D01*
X122936000Y-134874000D02*
X124206000Y-133604000D01*
X124206000Y-127636410D02*
X124460000Y-127382410D01*
X124206000Y-133604000D02*
X124206000Y-127636410D01*
X124460000Y-127382410D02*
X124460000Y-115698410D01*
X124958390Y-115200020D02*
X139056801Y-115200019D01*
X124460000Y-115698410D02*
X124958390Y-115200020D01*
X139056801Y-115200019D02*
X153163410Y-101093410D01*
X173990000Y-100331410D02*
X173228000Y-101093410D01*
X173990000Y-97790000D02*
X173990000Y-100331410D01*
X153163410Y-101093410D02*
X173228000Y-101093410D01*
X129540000Y-136035000D02*
X130701000Y-134874000D01*
X129540000Y-137160000D02*
X129540000Y-136035000D01*
X130701000Y-134874000D02*
X138938000Y-134874000D01*
X140970000Y-132842000D02*
X140970000Y-115955230D01*
X138938000Y-134874000D02*
X140970000Y-132842000D01*
X140970000Y-115955230D02*
X154031780Y-102893450D01*
X191770000Y-101623450D02*
X190500000Y-102893450D01*
X191770000Y-97790000D02*
X191770000Y-101623450D01*
X154031780Y-102893450D02*
X190500000Y-102893450D01*
X144780000Y-123335000D02*
X145687000Y-122428000D01*
X144780000Y-124460000D02*
X144780000Y-123335000D01*
X145687000Y-122428000D02*
X153924000Y-122428000D01*
X153924000Y-122428000D02*
X154940000Y-121412000D01*
X153670000Y-116332000D02*
X154940000Y-117602000D01*
X153670000Y-113030000D02*
X153670000Y-116332000D01*
X160020000Y-136035000D02*
X161181000Y-134874000D01*
X160020000Y-137160000D02*
X160020000Y-136035000D01*
X161181000Y-134874000D02*
X170942000Y-134874000D01*
X170942000Y-134874000D02*
X171958000Y-133858000D01*
X171958000Y-133858000D02*
X171958000Y-118618000D01*
X171958000Y-118618000D02*
X173482000Y-117094000D01*
X181610000Y-116078000D02*
X180594000Y-117094000D01*
X181610000Y-113030000D02*
X181610000Y-116078000D01*
X173482000Y-117094000D02*
X180594000Y-117094000D01*
X175260000Y-123335000D02*
X176167000Y-122428000D01*
X175260000Y-124460000D02*
X175260000Y-123335000D01*
X186690000Y-121158000D02*
X185420000Y-122428000D01*
X186690000Y-113030000D02*
X186690000Y-121158000D01*
X176167000Y-122428000D02*
X185420000Y-122428000D01*
X175260000Y-136035000D02*
X175260000Y-137160000D01*
X176421000Y-134874000D02*
X175260000Y-136035000D01*
X189230000Y-134874000D02*
X176421000Y-134874000D01*
X191770000Y-114130000D02*
X191770000Y-132334000D01*
X191770000Y-113030000D02*
X191770000Y-114130000D01*
X191770000Y-132334000D02*
X189230000Y-134874000D01*
X144780000Y-136035000D02*
X145941000Y-134874000D01*
X144780000Y-137160000D02*
X144780000Y-136035000D01*
X145941000Y-134874000D02*
X155448000Y-134874000D01*
X155448000Y-134874000D02*
X156972000Y-133350000D01*
X156972000Y-133350000D02*
X156972000Y-118364000D01*
X156972000Y-118364000D02*
X158496000Y-116840000D01*
X171450000Y-113030000D02*
X171450000Y-115062000D01*
X171450000Y-115062000D02*
X169672000Y-116840000D01*
X158496000Y-116840000D02*
X169672000Y-116840000D01*
X126891999Y-99967999D02*
X142639999Y-99967999D01*
X126492000Y-99568000D02*
X126891999Y-99967999D01*
X142639999Y-99967999D02*
X144018000Y-101346000D01*
X144018000Y-101346000D02*
X148082000Y-101346000D01*
X157480000Y-106172000D02*
X161036000Y-109728000D01*
X148082000Y-101346000D02*
X149352000Y-101346000D01*
X168910000Y-110744000D02*
X167894000Y-109728000D01*
X168910000Y-113030000D02*
X168910000Y-110744000D01*
X161036000Y-109728000D02*
X167894000Y-109728000D01*
X147066000Y-102362000D02*
X143510000Y-102362000D01*
X143510000Y-102362000D02*
X141732000Y-100584000D01*
X122682000Y-101346000D02*
X123444000Y-100584000D01*
X141732000Y-100584000D02*
X123444000Y-100584000D01*
X155702000Y-106172000D02*
X160020000Y-110490000D01*
X147066000Y-102362000D02*
X148336000Y-102362000D01*
X166370000Y-111252000D02*
X165608000Y-110490000D01*
X166370000Y-113030000D02*
X166370000Y-111252000D01*
X160020000Y-110490000D02*
X165608000Y-110490000D01*
X118872000Y-113792000D02*
X138430000Y-113792000D01*
X117856000Y-116840000D02*
X117856000Y-114808000D01*
X117856000Y-114808000D02*
X118872000Y-113792000D01*
X151130000Y-97790000D02*
X151130000Y-101092000D01*
X138430000Y-113792000D02*
X151130000Y-101092000D01*
X115715000Y-109220000D02*
X114300000Y-110635000D01*
X114300000Y-110635000D02*
X114300000Y-111760000D01*
X117602000Y-109220000D02*
X117348000Y-109220000D01*
X120904000Y-105918000D02*
X117602000Y-109220000D01*
X117348000Y-109220000D02*
X115715000Y-109220000D01*
X136144000Y-105918000D02*
X132842000Y-109220000D01*
X129540000Y-110635000D02*
X129540000Y-111760000D01*
X130955000Y-109220000D02*
X129540000Y-110635000D01*
X130955000Y-109220000D02*
X132842000Y-109220000D01*
X114227001Y-123358001D02*
X114227001Y-124483001D01*
X115665002Y-121920000D02*
X114227001Y-123358001D01*
X119634000Y-121920000D02*
X115665002Y-121920000D01*
X120904000Y-120650000D02*
X119634000Y-121920000D01*
X120904000Y-115316000D02*
X120904000Y-120650000D01*
X153162000Y-99822000D02*
X138684000Y-114300000D01*
X138684000Y-114300000D02*
X121920000Y-114300000D01*
X121920000Y-114300000D02*
X120904000Y-115316000D01*
X153670000Y-97790000D02*
X153670000Y-98992081D01*
X153162000Y-99822000D02*
X153670000Y-99314000D01*
X153670000Y-99314000D02*
X153670000Y-98992081D01*
D17*
G36*
X194870001Y-141530000D02*
G01*
X103580000Y-141530000D01*
X103580000Y-138209872D01*
X104445000Y-138209872D01*
X104445000Y-138650128D01*
X104530890Y-139081925D01*
X104699369Y-139488669D01*
X104943962Y-139854729D01*
X105255271Y-140166038D01*
X105621331Y-140410631D01*
X106028075Y-140579110D01*
X106459872Y-140665000D01*
X106900128Y-140665000D01*
X107331925Y-140579110D01*
X107738669Y-140410631D01*
X108104729Y-140166038D01*
X108416038Y-139854729D01*
X108660631Y-139488669D01*
X108829110Y-139081925D01*
X108915000Y-138650128D01*
X108915000Y-138209872D01*
X108829110Y-137778075D01*
X108660631Y-137371331D01*
X108416038Y-137005271D01*
X108104729Y-136693962D01*
X107738669Y-136449369D01*
X107331925Y-136280890D01*
X106900128Y-136195000D01*
X106459872Y-136195000D01*
X106028075Y-136280890D01*
X105621331Y-136449369D01*
X105255271Y-136693962D01*
X104943962Y-137005271D01*
X104699369Y-137371331D01*
X104530890Y-137778075D01*
X104445000Y-138209872D01*
X103580000Y-138209872D01*
X103580000Y-123608001D01*
X112713929Y-123608001D01*
X112713929Y-125358001D01*
X112726189Y-125482483D01*
X112762499Y-125602181D01*
X112821464Y-125712495D01*
X112900816Y-125809186D01*
X112997507Y-125888538D01*
X113107821Y-125947503D01*
X113227519Y-125983813D01*
X113352001Y-125996073D01*
X115102001Y-125996073D01*
X115226483Y-125983813D01*
X115346181Y-125947503D01*
X115456495Y-125888538D01*
X115553186Y-125809186D01*
X115632538Y-125712495D01*
X115691503Y-125602181D01*
X115695975Y-125587437D01*
X115764432Y-125655894D01*
X116011748Y-125821145D01*
X116286550Y-125934972D01*
X116578279Y-125993001D01*
X116875723Y-125993001D01*
X117167452Y-125934972D01*
X117442254Y-125821145D01*
X117689570Y-125655894D01*
X117899894Y-125445570D01*
X117977001Y-125330171D01*
X118054108Y-125445570D01*
X118264432Y-125655894D01*
X118511748Y-125821145D01*
X118786550Y-125934972D01*
X119078279Y-125993001D01*
X119375723Y-125993001D01*
X119667452Y-125934972D01*
X119942254Y-125821145D01*
X120189570Y-125655894D01*
X120316223Y-125529241D01*
X120860366Y-125529241D01*
X120941026Y-125780869D01*
X121209330Y-125909268D01*
X121497527Y-125982856D01*
X121794544Y-125998805D01*
X122088964Y-125956502D01*
X122369475Y-125857573D01*
X122512976Y-125780869D01*
X122593636Y-125529241D01*
X121727001Y-124662606D01*
X120860366Y-125529241D01*
X120316223Y-125529241D01*
X120399894Y-125445570D01*
X120502233Y-125292408D01*
X120680761Y-125349636D01*
X121547396Y-124483001D01*
X120680761Y-123616366D01*
X120502233Y-123673594D01*
X120399894Y-123520432D01*
X120316223Y-123436761D01*
X120860366Y-123436761D01*
X121727001Y-124303396D01*
X122593636Y-123436761D01*
X122512976Y-123185133D01*
X122244672Y-123056734D01*
X121956475Y-122983146D01*
X121659458Y-122967197D01*
X121365038Y-123009500D01*
X121084527Y-123108429D01*
X120941026Y-123185133D01*
X120860366Y-123436761D01*
X120316223Y-123436761D01*
X120189570Y-123310108D01*
X119942254Y-123144857D01*
X119667452Y-123031030D01*
X119375723Y-122973001D01*
X119078279Y-122973001D01*
X118786550Y-123031030D01*
X118511748Y-123144857D01*
X118264432Y-123310108D01*
X118054108Y-123520432D01*
X117977001Y-123635831D01*
X117899894Y-123520432D01*
X117689570Y-123310108D01*
X117442254Y-123144857D01*
X117167452Y-123031030D01*
X116875723Y-122973001D01*
X116578279Y-122973001D01*
X116286550Y-123031030D01*
X116011748Y-123144857D01*
X115764432Y-123310108D01*
X115695975Y-123378565D01*
X115691503Y-123363821D01*
X115632538Y-123253507D01*
X115553186Y-123156816D01*
X115525615Y-123134189D01*
X115979804Y-122680000D01*
X119596678Y-122680000D01*
X119634000Y-122683676D01*
X119671322Y-122680000D01*
X119671333Y-122680000D01*
X119782986Y-122669003D01*
X119926247Y-122625546D01*
X120058276Y-122554974D01*
X120174001Y-122460001D01*
X120197804Y-122430997D01*
X121415003Y-121213799D01*
X121444001Y-121190001D01*
X121538974Y-121074276D01*
X121609546Y-120942247D01*
X121653003Y-120798986D01*
X121664000Y-120687333D01*
X121664000Y-120687324D01*
X121667676Y-120650001D01*
X121664000Y-120612678D01*
X121664000Y-115630801D01*
X122234802Y-115060000D01*
X123387378Y-115060000D01*
X123359474Y-115094001D01*
X123317026Y-115145724D01*
X123255836Y-115260201D01*
X123246454Y-115277754D01*
X123202997Y-115421015D01*
X123192000Y-115532668D01*
X123192000Y-115532678D01*
X123188324Y-115570000D01*
X123192000Y-115607322D01*
X123192001Y-124096933D01*
X123101573Y-123840527D01*
X123024869Y-123697026D01*
X122773241Y-123616366D01*
X121906606Y-124483001D01*
X122773241Y-125349636D01*
X123024869Y-125268976D01*
X123153268Y-125000672D01*
X123192001Y-124848980D01*
X123192001Y-126939197D01*
X122005198Y-128126001D01*
X118293321Y-128126001D01*
X118255998Y-128122325D01*
X118218676Y-128126001D01*
X118218666Y-128126001D01*
X118107013Y-128136998D01*
X117963752Y-128180455D01*
X117831774Y-128251000D01*
X117754061Y-128251000D01*
X117554102Y-128290774D01*
X117365744Y-128368795D01*
X117196226Y-128482063D01*
X117052063Y-128626226D01*
X116938795Y-128795744D01*
X116860774Y-128984102D01*
X116821000Y-129184061D01*
X116821000Y-129387939D01*
X116860774Y-129587898D01*
X116938795Y-129776256D01*
X117052063Y-129945774D01*
X117196226Y-130089937D01*
X117365744Y-130203205D01*
X117554102Y-130281226D01*
X117754061Y-130321000D01*
X117957939Y-130321000D01*
X118157898Y-130281226D01*
X118346256Y-130203205D01*
X118515774Y-130089937D01*
X118659937Y-129945774D01*
X118773205Y-129776256D01*
X118827159Y-129646001D01*
X122282677Y-129646001D01*
X122319999Y-129649677D01*
X122357321Y-129646001D01*
X122357332Y-129646001D01*
X122468985Y-129635004D01*
X122612246Y-129591547D01*
X122744275Y-129520975D01*
X122860000Y-129426002D01*
X122883803Y-129396998D01*
X123446001Y-128834801D01*
X123446000Y-133289198D01*
X122621199Y-134114000D01*
X115498323Y-134114000D01*
X115461000Y-134110324D01*
X115423677Y-134114000D01*
X115423667Y-134114000D01*
X115312014Y-134124997D01*
X115168753Y-134168454D01*
X115036723Y-134239026D01*
X114984022Y-134282277D01*
X114920999Y-134333999D01*
X114897201Y-134362997D01*
X113788998Y-135471201D01*
X113760000Y-135494999D01*
X113736202Y-135523997D01*
X113736201Y-135523998D01*
X113665026Y-135610724D01*
X113645674Y-135646928D01*
X113425000Y-135646928D01*
X113300518Y-135659188D01*
X113180820Y-135695498D01*
X113070506Y-135754463D01*
X112973815Y-135833815D01*
X112894463Y-135930506D01*
X112835498Y-136040820D01*
X112799188Y-136160518D01*
X112786928Y-136285000D01*
X112786928Y-138035000D01*
X112799188Y-138159482D01*
X112835498Y-138279180D01*
X112894463Y-138389494D01*
X112973815Y-138486185D01*
X113070506Y-138565537D01*
X113180820Y-138624502D01*
X113300518Y-138660812D01*
X113425000Y-138673072D01*
X115175000Y-138673072D01*
X115299482Y-138660812D01*
X115419180Y-138624502D01*
X115529494Y-138565537D01*
X115626185Y-138486185D01*
X115705537Y-138389494D01*
X115764502Y-138279180D01*
X115768974Y-138264436D01*
X115837431Y-138332893D01*
X116084747Y-138498144D01*
X116359549Y-138611971D01*
X116651278Y-138670000D01*
X116948722Y-138670000D01*
X117240451Y-138611971D01*
X117515253Y-138498144D01*
X117762569Y-138332893D01*
X117972893Y-138122569D01*
X118050000Y-138007170D01*
X118127107Y-138122569D01*
X118337431Y-138332893D01*
X118584747Y-138498144D01*
X118859549Y-138611971D01*
X119151278Y-138670000D01*
X119448722Y-138670000D01*
X119740451Y-138611971D01*
X120015253Y-138498144D01*
X120262569Y-138332893D01*
X120389222Y-138206240D01*
X120933365Y-138206240D01*
X121014025Y-138457868D01*
X121282329Y-138586267D01*
X121570526Y-138659855D01*
X121867543Y-138675804D01*
X122161963Y-138633501D01*
X122442474Y-138534572D01*
X122585975Y-138457868D01*
X122666635Y-138206240D01*
X121800000Y-137339605D01*
X120933365Y-138206240D01*
X120389222Y-138206240D01*
X120472893Y-138122569D01*
X120575232Y-137969407D01*
X120753760Y-138026635D01*
X121620395Y-137160000D01*
X121979605Y-137160000D01*
X122846240Y-138026635D01*
X123097868Y-137945975D01*
X123226267Y-137677671D01*
X123299855Y-137389474D01*
X123315804Y-137092457D01*
X123273501Y-136798037D01*
X123174572Y-136517526D01*
X123097868Y-136374025D01*
X122846240Y-136293365D01*
X121979605Y-137160000D01*
X121620395Y-137160000D01*
X120753760Y-136293365D01*
X120575232Y-136350593D01*
X120472893Y-136197431D01*
X120389222Y-136113760D01*
X120933365Y-136113760D01*
X121800000Y-136980395D01*
X122666635Y-136113760D01*
X122585975Y-135862132D01*
X122317671Y-135733733D01*
X122029474Y-135660145D01*
X121732457Y-135644196D01*
X121438037Y-135686499D01*
X121157526Y-135785428D01*
X121014025Y-135862132D01*
X120933365Y-136113760D01*
X120389222Y-136113760D01*
X120262569Y-135987107D01*
X120015253Y-135821856D01*
X119740451Y-135708029D01*
X119448722Y-135650000D01*
X119151278Y-135650000D01*
X118859549Y-135708029D01*
X118584747Y-135821856D01*
X118337431Y-135987107D01*
X118127107Y-136197431D01*
X118050000Y-136312830D01*
X117972893Y-136197431D01*
X117762569Y-135987107D01*
X117515253Y-135821856D01*
X117240451Y-135708029D01*
X116948722Y-135650000D01*
X116651278Y-135650000D01*
X116359549Y-135708029D01*
X116084747Y-135821856D01*
X115837431Y-135987107D01*
X115768974Y-136055564D01*
X115764502Y-136040820D01*
X115705537Y-135930506D01*
X115626185Y-135833815D01*
X115598614Y-135811188D01*
X115775802Y-135634000D01*
X122898678Y-135634000D01*
X122936000Y-135637676D01*
X122973322Y-135634000D01*
X122973333Y-135634000D01*
X123084986Y-135623003D01*
X123228247Y-135579546D01*
X123360276Y-135508974D01*
X123476001Y-135414001D01*
X123499804Y-135384997D01*
X124717004Y-134167798D01*
X124746001Y-134144001D01*
X124840974Y-134028276D01*
X124911546Y-133896247D01*
X124955003Y-133752986D01*
X124966000Y-133641333D01*
X124966000Y-133641324D01*
X124969676Y-133604001D01*
X124966000Y-133566678D01*
X124966000Y-127951211D01*
X124970998Y-127946213D01*
X125000001Y-127922411D01*
X125094974Y-127806686D01*
X125165546Y-127674657D01*
X125209003Y-127531396D01*
X125220000Y-127419743D01*
X125220000Y-127419734D01*
X125223676Y-127382411D01*
X125220000Y-127345088D01*
X125220000Y-116013211D01*
X125273191Y-115960020D01*
X132343943Y-115960019D01*
X132336000Y-116040667D01*
X132336000Y-116040678D01*
X132332324Y-116078000D01*
X132336000Y-116115322D01*
X132336000Y-116136289D01*
X132292063Y-116180226D01*
X132178795Y-116349744D01*
X132100774Y-116538102D01*
X132061000Y-116738061D01*
X132061000Y-116941939D01*
X132100774Y-117141898D01*
X132178795Y-117330256D01*
X132292063Y-117499774D01*
X132436226Y-117643937D01*
X132605744Y-117757205D01*
X132794102Y-117835226D01*
X132994061Y-117875000D01*
X133197939Y-117875000D01*
X133397898Y-117835226D01*
X133586256Y-117757205D01*
X133755774Y-117643937D01*
X133899937Y-117499774D01*
X134013205Y-117330256D01*
X134091226Y-117141898D01*
X134131000Y-116941939D01*
X134131000Y-116738061D01*
X134091226Y-116538102D01*
X134038176Y-116410029D01*
X137162001Y-116410029D01*
X137162000Y-120589198D01*
X136337199Y-121414000D01*
X130738323Y-121414000D01*
X130701000Y-121410324D01*
X130663677Y-121414000D01*
X130663667Y-121414000D01*
X130552014Y-121424997D01*
X130408753Y-121468454D01*
X130276723Y-121539026D01*
X130224022Y-121582277D01*
X130160999Y-121633999D01*
X130137201Y-121662997D01*
X129028998Y-122771201D01*
X129000000Y-122794999D01*
X128976202Y-122823997D01*
X128976201Y-122823998D01*
X128905026Y-122910724D01*
X128885674Y-122946928D01*
X128665000Y-122946928D01*
X128540518Y-122959188D01*
X128420820Y-122995498D01*
X128310506Y-123054463D01*
X128213815Y-123133815D01*
X128134463Y-123230506D01*
X128075498Y-123340820D01*
X128039188Y-123460518D01*
X128026928Y-123585000D01*
X128026928Y-125335000D01*
X128039188Y-125459482D01*
X128075498Y-125579180D01*
X128134463Y-125689494D01*
X128213815Y-125786185D01*
X128310506Y-125865537D01*
X128420820Y-125924502D01*
X128540518Y-125960812D01*
X128665000Y-125973072D01*
X130415000Y-125973072D01*
X130539482Y-125960812D01*
X130659180Y-125924502D01*
X130769494Y-125865537D01*
X130866185Y-125786185D01*
X130945537Y-125689494D01*
X131004502Y-125579180D01*
X131008974Y-125564436D01*
X131077431Y-125632893D01*
X131324747Y-125798144D01*
X131599549Y-125911971D01*
X131891278Y-125970000D01*
X132188722Y-125970000D01*
X132480451Y-125911971D01*
X132755253Y-125798144D01*
X133002569Y-125632893D01*
X133212893Y-125422569D01*
X133290000Y-125307170D01*
X133367107Y-125422569D01*
X133577431Y-125632893D01*
X133824747Y-125798144D01*
X134099549Y-125911971D01*
X134391278Y-125970000D01*
X134688722Y-125970000D01*
X134980451Y-125911971D01*
X135255253Y-125798144D01*
X135502569Y-125632893D01*
X135629222Y-125506240D01*
X136173365Y-125506240D01*
X136254025Y-125757868D01*
X136522329Y-125886267D01*
X136810526Y-125959855D01*
X137107543Y-125975804D01*
X137401963Y-125933501D01*
X137682474Y-125834572D01*
X137825975Y-125757868D01*
X137906635Y-125506240D01*
X137040000Y-124639605D01*
X136173365Y-125506240D01*
X135629222Y-125506240D01*
X135712893Y-125422569D01*
X135815232Y-125269407D01*
X135993760Y-125326635D01*
X136860395Y-124460000D01*
X137219605Y-124460000D01*
X138086240Y-125326635D01*
X138337868Y-125245975D01*
X138466267Y-124977671D01*
X138539855Y-124689474D01*
X138555804Y-124392457D01*
X138513501Y-124098037D01*
X138414572Y-123817526D01*
X138337868Y-123674025D01*
X138086240Y-123593365D01*
X137219605Y-124460000D01*
X136860395Y-124460000D01*
X135993760Y-123593365D01*
X135815232Y-123650593D01*
X135712893Y-123497431D01*
X135629222Y-123413760D01*
X136173365Y-123413760D01*
X137040000Y-124280395D01*
X137906635Y-123413760D01*
X137825975Y-123162132D01*
X137557671Y-123033733D01*
X137269474Y-122960145D01*
X136972457Y-122944196D01*
X136678037Y-122986499D01*
X136397526Y-123085428D01*
X136254025Y-123162132D01*
X136173365Y-123413760D01*
X135629222Y-123413760D01*
X135502569Y-123287107D01*
X135255253Y-123121856D01*
X134980451Y-123008029D01*
X134688722Y-122950000D01*
X134391278Y-122950000D01*
X134099549Y-123008029D01*
X133824747Y-123121856D01*
X133577431Y-123287107D01*
X133367107Y-123497431D01*
X133290000Y-123612830D01*
X133212893Y-123497431D01*
X133002569Y-123287107D01*
X132755253Y-123121856D01*
X132480451Y-123008029D01*
X132188722Y-122950000D01*
X131891278Y-122950000D01*
X131599549Y-123008029D01*
X131324747Y-123121856D01*
X131077431Y-123287107D01*
X131008974Y-123355564D01*
X131004502Y-123340820D01*
X130945537Y-123230506D01*
X130866185Y-123133815D01*
X130838614Y-123111188D01*
X131015802Y-122934000D01*
X136614678Y-122934000D01*
X136652000Y-122937676D01*
X136689322Y-122934000D01*
X136689333Y-122934000D01*
X136800986Y-122923003D01*
X136944247Y-122879546D01*
X137076276Y-122808974D01*
X137192001Y-122714001D01*
X137215804Y-122684997D01*
X138433004Y-121467798D01*
X138462001Y-121444001D01*
X138556974Y-121328276D01*
X138627546Y-121196247D01*
X138671003Y-121052986D01*
X138682000Y-120941333D01*
X138682000Y-120941324D01*
X138685676Y-120904001D01*
X138682000Y-120866678D01*
X138682000Y-116860038D01*
X139515040Y-116860037D01*
X139552372Y-116863714D01*
X139589705Y-116860037D01*
X139701358Y-116849040D01*
X139702001Y-116848845D01*
X139702000Y-127447198D01*
X138369199Y-128780000D01*
X133799711Y-128780000D01*
X133755774Y-128736063D01*
X133586256Y-128622795D01*
X133397898Y-128544774D01*
X133197939Y-128505000D01*
X132994061Y-128505000D01*
X132794102Y-128544774D01*
X132605744Y-128622795D01*
X132436226Y-128736063D01*
X132292063Y-128880226D01*
X132178795Y-129049744D01*
X132100774Y-129238102D01*
X132061000Y-129438061D01*
X132061000Y-129641939D01*
X132100774Y-129841898D01*
X132178795Y-130030256D01*
X132292063Y-130199774D01*
X132436226Y-130343937D01*
X132605744Y-130457205D01*
X132794102Y-130535226D01*
X132994061Y-130575000D01*
X133197939Y-130575000D01*
X133397898Y-130535226D01*
X133586256Y-130457205D01*
X133755774Y-130343937D01*
X133799711Y-130300000D01*
X138646678Y-130300000D01*
X138684000Y-130303676D01*
X138721322Y-130300000D01*
X138721333Y-130300000D01*
X138832986Y-130289003D01*
X138976247Y-130245546D01*
X139108276Y-130174974D01*
X139224001Y-130080001D01*
X139247804Y-130050997D01*
X140210000Y-129088801D01*
X140210000Y-132527198D01*
X138623199Y-134114000D01*
X130738323Y-134114000D01*
X130701000Y-134110324D01*
X130663677Y-134114000D01*
X130663667Y-134114000D01*
X130552014Y-134124997D01*
X130408753Y-134168454D01*
X130276723Y-134239026D01*
X130224022Y-134282277D01*
X130160999Y-134333999D01*
X130137201Y-134362997D01*
X129028998Y-135471201D01*
X129000000Y-135494999D01*
X128976202Y-135523997D01*
X128976201Y-135523998D01*
X128905026Y-135610724D01*
X128885674Y-135646928D01*
X128665000Y-135646928D01*
X128540518Y-135659188D01*
X128420820Y-135695498D01*
X128310506Y-135754463D01*
X128213815Y-135833815D01*
X128134463Y-135930506D01*
X128075498Y-136040820D01*
X128039188Y-136160518D01*
X128026928Y-136285000D01*
X128026928Y-138035000D01*
X128039188Y-138159482D01*
X128075498Y-138279180D01*
X128134463Y-138389494D01*
X128213815Y-138486185D01*
X128310506Y-138565537D01*
X128420820Y-138624502D01*
X128540518Y-138660812D01*
X128665000Y-138673072D01*
X130415000Y-138673072D01*
X130539482Y-138660812D01*
X130659180Y-138624502D01*
X130769494Y-138565537D01*
X130866185Y-138486185D01*
X130945537Y-138389494D01*
X131004502Y-138279180D01*
X131008974Y-138264436D01*
X131077431Y-138332893D01*
X131324747Y-138498144D01*
X131599549Y-138611971D01*
X131891278Y-138670000D01*
X132188722Y-138670000D01*
X132480451Y-138611971D01*
X132755253Y-138498144D01*
X133002569Y-138332893D01*
X133212893Y-138122569D01*
X133290000Y-138007170D01*
X133367107Y-138122569D01*
X133577431Y-138332893D01*
X133824747Y-138498144D01*
X134099549Y-138611971D01*
X134391278Y-138670000D01*
X134688722Y-138670000D01*
X134980451Y-138611971D01*
X135255253Y-138498144D01*
X135502569Y-138332893D01*
X135629222Y-138206240D01*
X136173365Y-138206240D01*
X136254025Y-138457868D01*
X136522329Y-138586267D01*
X136810526Y-138659855D01*
X137107543Y-138675804D01*
X137401963Y-138633501D01*
X137682474Y-138534572D01*
X137825975Y-138457868D01*
X137906635Y-138206240D01*
X137040000Y-137339605D01*
X136173365Y-138206240D01*
X135629222Y-138206240D01*
X135712893Y-138122569D01*
X135815232Y-137969407D01*
X135993760Y-138026635D01*
X136860395Y-137160000D01*
X137219605Y-137160000D01*
X138086240Y-138026635D01*
X138337868Y-137945975D01*
X138466267Y-137677671D01*
X138539855Y-137389474D01*
X138555804Y-137092457D01*
X138513501Y-136798037D01*
X138414572Y-136517526D01*
X138337868Y-136374025D01*
X138086240Y-136293365D01*
X137219605Y-137160000D01*
X136860395Y-137160000D01*
X135993760Y-136293365D01*
X135815232Y-136350593D01*
X135712893Y-136197431D01*
X135629222Y-136113760D01*
X136173365Y-136113760D01*
X137040000Y-136980395D01*
X137906635Y-136113760D01*
X137825975Y-135862132D01*
X137557671Y-135733733D01*
X137269474Y-135660145D01*
X136972457Y-135644196D01*
X136678037Y-135686499D01*
X136397526Y-135785428D01*
X136254025Y-135862132D01*
X136173365Y-136113760D01*
X135629222Y-136113760D01*
X135502569Y-135987107D01*
X135255253Y-135821856D01*
X134980451Y-135708029D01*
X134688722Y-135650000D01*
X134391278Y-135650000D01*
X134099549Y-135708029D01*
X133824747Y-135821856D01*
X133577431Y-135987107D01*
X133367107Y-136197431D01*
X133290000Y-136312830D01*
X133212893Y-136197431D01*
X133002569Y-135987107D01*
X132755253Y-135821856D01*
X132480451Y-135708029D01*
X132188722Y-135650000D01*
X131891278Y-135650000D01*
X131599549Y-135708029D01*
X131324747Y-135821856D01*
X131077431Y-135987107D01*
X131008974Y-136055564D01*
X131004502Y-136040820D01*
X130945537Y-135930506D01*
X130866185Y-135833815D01*
X130838614Y-135811188D01*
X131015802Y-135634000D01*
X138900678Y-135634000D01*
X138938000Y-135637676D01*
X138975322Y-135634000D01*
X138975333Y-135634000D01*
X139086986Y-135623003D01*
X139230247Y-135579546D01*
X139362276Y-135508974D01*
X139478001Y-135414001D01*
X139501804Y-135384997D01*
X141481004Y-133405798D01*
X141510001Y-133382001D01*
X141562526Y-133317999D01*
X141604974Y-133266277D01*
X141675546Y-133134247D01*
X141698749Y-133057754D01*
X141719003Y-132990986D01*
X141730000Y-132879333D01*
X141730000Y-132879323D01*
X141733676Y-132842000D01*
X141730000Y-132804677D01*
X141730000Y-116270031D01*
X147322000Y-110678032D01*
X147322001Y-115628288D01*
X147278063Y-115672226D01*
X147164795Y-115841744D01*
X147086774Y-116030102D01*
X147047000Y-116230061D01*
X147047000Y-116433939D01*
X147086774Y-116633898D01*
X147164795Y-116822256D01*
X147278063Y-116991774D01*
X147422226Y-117135937D01*
X147591744Y-117249205D01*
X147780102Y-117327226D01*
X147980061Y-117367000D01*
X148183939Y-117367000D01*
X148383898Y-117327226D01*
X148572256Y-117249205D01*
X148741774Y-117135937D01*
X148885937Y-116991774D01*
X148999205Y-116822256D01*
X149077226Y-116633898D01*
X149117000Y-116433939D01*
X149117000Y-116230061D01*
X149077226Y-116030102D01*
X148999205Y-115841744D01*
X148885937Y-115672226D01*
X148842000Y-115628289D01*
X148842000Y-109794441D01*
X150823798Y-107812644D01*
X150823803Y-107812638D01*
X151985930Y-106650511D01*
X151990795Y-106662256D01*
X152104063Y-106831774D01*
X152248226Y-106975937D01*
X152417744Y-107089205D01*
X152606102Y-107167226D01*
X152806061Y-107207000D01*
X152868199Y-107207000D01*
X155450001Y-109788803D01*
X155450000Y-111752405D01*
X155380986Y-111789294D01*
X155154866Y-111974866D01*
X154969294Y-112200986D01*
X154940000Y-112255791D01*
X154910706Y-112200986D01*
X154725134Y-111974866D01*
X154499014Y-111789294D01*
X154241034Y-111651401D01*
X153961111Y-111566487D01*
X153742950Y-111545000D01*
X153597050Y-111545000D01*
X153378889Y-111566487D01*
X153098966Y-111651401D01*
X152840986Y-111789294D01*
X152614866Y-111974866D01*
X152429294Y-112200986D01*
X152400000Y-112255791D01*
X152370706Y-112200986D01*
X152185134Y-111974866D01*
X151959014Y-111789294D01*
X151701034Y-111651401D01*
X151421111Y-111566487D01*
X151202950Y-111545000D01*
X151057050Y-111545000D01*
X150838889Y-111566487D01*
X150558966Y-111651401D01*
X150300986Y-111789294D01*
X150074866Y-111974866D01*
X149889294Y-112200986D01*
X149751401Y-112458966D01*
X149666487Y-112738889D01*
X149637815Y-113030000D01*
X149666487Y-113321111D01*
X149751401Y-113601034D01*
X149889294Y-113859014D01*
X150074866Y-114085134D01*
X150300986Y-114270706D01*
X150370000Y-114307595D01*
X150370000Y-115278677D01*
X150366324Y-115316000D01*
X150370000Y-115353322D01*
X150370000Y-115353332D01*
X150380997Y-115464985D01*
X150416795Y-115582997D01*
X150424454Y-115608246D01*
X150495026Y-115740276D01*
X150525146Y-115776977D01*
X150589999Y-115856001D01*
X150619003Y-115879804D01*
X151888997Y-117149799D01*
X151889003Y-117149804D01*
X155134637Y-120395439D01*
X155041939Y-120377000D01*
X154838061Y-120377000D01*
X154638102Y-120416774D01*
X154449744Y-120494795D01*
X154280226Y-120608063D01*
X154136063Y-120752226D01*
X154022795Y-120921744D01*
X153944774Y-121110102D01*
X153905000Y-121310061D01*
X153905000Y-121372198D01*
X153609199Y-121668000D01*
X145724325Y-121668000D01*
X145687000Y-121664324D01*
X145649675Y-121668000D01*
X145649667Y-121668000D01*
X145538014Y-121678997D01*
X145394753Y-121722454D01*
X145262724Y-121793026D01*
X145146999Y-121887999D01*
X145123201Y-121916997D01*
X144268998Y-122771201D01*
X144240000Y-122794999D01*
X144216202Y-122823997D01*
X144216201Y-122823998D01*
X144145026Y-122910724D01*
X144125674Y-122946928D01*
X143905000Y-122946928D01*
X143780518Y-122959188D01*
X143660820Y-122995498D01*
X143550506Y-123054463D01*
X143453815Y-123133815D01*
X143374463Y-123230506D01*
X143315498Y-123340820D01*
X143279188Y-123460518D01*
X143266928Y-123585000D01*
X143266928Y-125335000D01*
X143279188Y-125459482D01*
X143315498Y-125579180D01*
X143374463Y-125689494D01*
X143453815Y-125786185D01*
X143550506Y-125865537D01*
X143660820Y-125924502D01*
X143780518Y-125960812D01*
X143905000Y-125973072D01*
X145655000Y-125973072D01*
X145779482Y-125960812D01*
X145899180Y-125924502D01*
X146009494Y-125865537D01*
X146106185Y-125786185D01*
X146185537Y-125689494D01*
X146244502Y-125579180D01*
X146248974Y-125564436D01*
X146317431Y-125632893D01*
X146564747Y-125798144D01*
X146839549Y-125911971D01*
X147131278Y-125970000D01*
X147428722Y-125970000D01*
X147720451Y-125911971D01*
X147995253Y-125798144D01*
X148242569Y-125632893D01*
X148452893Y-125422569D01*
X148530000Y-125307170D01*
X148607107Y-125422569D01*
X148817431Y-125632893D01*
X149064747Y-125798144D01*
X149339549Y-125911971D01*
X149631278Y-125970000D01*
X149928722Y-125970000D01*
X150220451Y-125911971D01*
X150495253Y-125798144D01*
X150742569Y-125632893D01*
X150869222Y-125506240D01*
X151413365Y-125506240D01*
X151494025Y-125757868D01*
X151762329Y-125886267D01*
X152050526Y-125959855D01*
X152347543Y-125975804D01*
X152641963Y-125933501D01*
X152922474Y-125834572D01*
X153065975Y-125757868D01*
X153146635Y-125506240D01*
X152280000Y-124639605D01*
X151413365Y-125506240D01*
X150869222Y-125506240D01*
X150952893Y-125422569D01*
X151055232Y-125269407D01*
X151233760Y-125326635D01*
X152100395Y-124460000D01*
X152459605Y-124460000D01*
X153326240Y-125326635D01*
X153577868Y-125245975D01*
X153706267Y-124977671D01*
X153779855Y-124689474D01*
X153795804Y-124392457D01*
X153753501Y-124098037D01*
X153654572Y-123817526D01*
X153577868Y-123674025D01*
X153326240Y-123593365D01*
X152459605Y-124460000D01*
X152100395Y-124460000D01*
X151233760Y-123593365D01*
X151055232Y-123650593D01*
X150952893Y-123497431D01*
X150742569Y-123287107D01*
X150594245Y-123188000D01*
X151485733Y-123188000D01*
X151413365Y-123413760D01*
X152280000Y-124280395D01*
X153146635Y-123413760D01*
X153074267Y-123188000D01*
X153886678Y-123188000D01*
X153924000Y-123191676D01*
X153961322Y-123188000D01*
X153961333Y-123188000D01*
X154072986Y-123177003D01*
X154216247Y-123133546D01*
X154348276Y-123062974D01*
X154464001Y-122968001D01*
X154487804Y-122938998D01*
X154979802Y-122447000D01*
X155041939Y-122447000D01*
X155241898Y-122407226D01*
X155430256Y-122329205D01*
X155599774Y-122215937D01*
X155704001Y-122111710D01*
X155704000Y-127701197D01*
X154625199Y-128780000D01*
X149039711Y-128780000D01*
X148995774Y-128736063D01*
X148826256Y-128622795D01*
X148637898Y-128544774D01*
X148437939Y-128505000D01*
X148234061Y-128505000D01*
X148034102Y-128544774D01*
X147845744Y-128622795D01*
X147676226Y-128736063D01*
X147532063Y-128880226D01*
X147418795Y-129049744D01*
X147340774Y-129238102D01*
X147301000Y-129438061D01*
X147301000Y-129641939D01*
X147340774Y-129841898D01*
X147418795Y-130030256D01*
X147532063Y-130199774D01*
X147676226Y-130343937D01*
X147845744Y-130457205D01*
X148034102Y-130535226D01*
X148234061Y-130575000D01*
X148437939Y-130575000D01*
X148637898Y-130535226D01*
X148826256Y-130457205D01*
X148995774Y-130343937D01*
X149039711Y-130300000D01*
X154902678Y-130300000D01*
X154940000Y-130303676D01*
X154977322Y-130300000D01*
X154977333Y-130300000D01*
X155088986Y-130289003D01*
X155232247Y-130245546D01*
X155364276Y-130174974D01*
X155480001Y-130080001D01*
X155503803Y-130050998D01*
X156212000Y-129342802D01*
X156212000Y-133035197D01*
X155133199Y-134114000D01*
X145978323Y-134114000D01*
X145941000Y-134110324D01*
X145903677Y-134114000D01*
X145903667Y-134114000D01*
X145792014Y-134124997D01*
X145648753Y-134168454D01*
X145516723Y-134239026D01*
X145464022Y-134282277D01*
X145400999Y-134333999D01*
X145377201Y-134362997D01*
X144268998Y-135471201D01*
X144240000Y-135494999D01*
X144216202Y-135523997D01*
X144216201Y-135523998D01*
X144145026Y-135610724D01*
X144125674Y-135646928D01*
X143905000Y-135646928D01*
X143780518Y-135659188D01*
X143660820Y-135695498D01*
X143550506Y-135754463D01*
X143453815Y-135833815D01*
X143374463Y-135930506D01*
X143315498Y-136040820D01*
X143279188Y-136160518D01*
X143266928Y-136285000D01*
X143266928Y-138035000D01*
X143279188Y-138159482D01*
X143315498Y-138279180D01*
X143374463Y-138389494D01*
X143453815Y-138486185D01*
X143550506Y-138565537D01*
X143660820Y-138624502D01*
X143780518Y-138660812D01*
X143905000Y-138673072D01*
X145655000Y-138673072D01*
X145779482Y-138660812D01*
X145899180Y-138624502D01*
X146009494Y-138565537D01*
X146106185Y-138486185D01*
X146185537Y-138389494D01*
X146244502Y-138279180D01*
X146248974Y-138264436D01*
X146317431Y-138332893D01*
X146564747Y-138498144D01*
X146839549Y-138611971D01*
X147131278Y-138670000D01*
X147428722Y-138670000D01*
X147720451Y-138611971D01*
X147995253Y-138498144D01*
X148242569Y-138332893D01*
X148452893Y-138122569D01*
X148530000Y-138007170D01*
X148607107Y-138122569D01*
X148817431Y-138332893D01*
X149064747Y-138498144D01*
X149339549Y-138611971D01*
X149631278Y-138670000D01*
X149928722Y-138670000D01*
X150220451Y-138611971D01*
X150495253Y-138498144D01*
X150742569Y-138332893D01*
X150869222Y-138206240D01*
X151413365Y-138206240D01*
X151494025Y-138457868D01*
X151762329Y-138586267D01*
X152050526Y-138659855D01*
X152347543Y-138675804D01*
X152641963Y-138633501D01*
X152922474Y-138534572D01*
X153065975Y-138457868D01*
X153146635Y-138206240D01*
X152280000Y-137339605D01*
X151413365Y-138206240D01*
X150869222Y-138206240D01*
X150952893Y-138122569D01*
X151055232Y-137969407D01*
X151233760Y-138026635D01*
X152100395Y-137160000D01*
X152459605Y-137160000D01*
X153326240Y-138026635D01*
X153577868Y-137945975D01*
X153706267Y-137677671D01*
X153779855Y-137389474D01*
X153795804Y-137092457D01*
X153753501Y-136798037D01*
X153654572Y-136517526D01*
X153577868Y-136374025D01*
X153326240Y-136293365D01*
X152459605Y-137160000D01*
X152100395Y-137160000D01*
X151233760Y-136293365D01*
X151055232Y-136350593D01*
X150952893Y-136197431D01*
X150869222Y-136113760D01*
X151413365Y-136113760D01*
X152280000Y-136980395D01*
X153146635Y-136113760D01*
X153065975Y-135862132D01*
X152797671Y-135733733D01*
X152509474Y-135660145D01*
X152212457Y-135644196D01*
X151918037Y-135686499D01*
X151637526Y-135785428D01*
X151494025Y-135862132D01*
X151413365Y-136113760D01*
X150869222Y-136113760D01*
X150742569Y-135987107D01*
X150495253Y-135821856D01*
X150220451Y-135708029D01*
X149928722Y-135650000D01*
X149631278Y-135650000D01*
X149339549Y-135708029D01*
X149064747Y-135821856D01*
X148817431Y-135987107D01*
X148607107Y-136197431D01*
X148530000Y-136312830D01*
X148452893Y-136197431D01*
X148242569Y-135987107D01*
X147995253Y-135821856D01*
X147720451Y-135708029D01*
X147428722Y-135650000D01*
X147131278Y-135650000D01*
X146839549Y-135708029D01*
X146564747Y-135821856D01*
X146317431Y-135987107D01*
X146248974Y-136055564D01*
X146244502Y-136040820D01*
X146185537Y-135930506D01*
X146106185Y-135833815D01*
X146078614Y-135811188D01*
X146255802Y-135634000D01*
X155410678Y-135634000D01*
X155448000Y-135637676D01*
X155485322Y-135634000D01*
X155485333Y-135634000D01*
X155596986Y-135623003D01*
X155740247Y-135579546D01*
X155872276Y-135508974D01*
X155988001Y-135414001D01*
X156011803Y-135384998D01*
X157483009Y-133913794D01*
X157512001Y-133890001D01*
X157535795Y-133861008D01*
X157535799Y-133861004D01*
X157606973Y-133774277D01*
X157606974Y-133774276D01*
X157677546Y-133642247D01*
X157721003Y-133498986D01*
X157732000Y-133387333D01*
X157732000Y-133387324D01*
X157735676Y-133350001D01*
X157732000Y-133312678D01*
X157732000Y-118678801D01*
X158810803Y-117600000D01*
X164400289Y-117600000D01*
X164296063Y-117704226D01*
X164182795Y-117873744D01*
X164104774Y-118062102D01*
X164065000Y-118262061D01*
X164065000Y-118465939D01*
X164104774Y-118665898D01*
X164182795Y-118854256D01*
X164296063Y-119023774D01*
X164440226Y-119167937D01*
X164609744Y-119281205D01*
X164798102Y-119359226D01*
X164998061Y-119399000D01*
X165201939Y-119399000D01*
X165401898Y-119359226D01*
X165590256Y-119281205D01*
X165759774Y-119167937D01*
X165803711Y-119124000D01*
X169674001Y-119124000D01*
X169674000Y-121097198D01*
X169357199Y-121414000D01*
X161218323Y-121414000D01*
X161181000Y-121410324D01*
X161143677Y-121414000D01*
X161143667Y-121414000D01*
X161032014Y-121424997D01*
X160888753Y-121468454D01*
X160756723Y-121539026D01*
X160704022Y-121582277D01*
X160640999Y-121633999D01*
X160617201Y-121662997D01*
X159508998Y-122771201D01*
X159480000Y-122794999D01*
X159456202Y-122823997D01*
X159456201Y-122823998D01*
X159385026Y-122910724D01*
X159365674Y-122946928D01*
X159145000Y-122946928D01*
X159020518Y-122959188D01*
X158900820Y-122995498D01*
X158790506Y-123054463D01*
X158693815Y-123133815D01*
X158614463Y-123230506D01*
X158555498Y-123340820D01*
X158519188Y-123460518D01*
X158506928Y-123585000D01*
X158506928Y-125335000D01*
X158519188Y-125459482D01*
X158555498Y-125579180D01*
X158614463Y-125689494D01*
X158693815Y-125786185D01*
X158790506Y-125865537D01*
X158900820Y-125924502D01*
X159020518Y-125960812D01*
X159145000Y-125973072D01*
X160895000Y-125973072D01*
X161019482Y-125960812D01*
X161139180Y-125924502D01*
X161249494Y-125865537D01*
X161346185Y-125786185D01*
X161425537Y-125689494D01*
X161484502Y-125579180D01*
X161488974Y-125564436D01*
X161557431Y-125632893D01*
X161804747Y-125798144D01*
X162079549Y-125911971D01*
X162371278Y-125970000D01*
X162668722Y-125970000D01*
X162960451Y-125911971D01*
X163235253Y-125798144D01*
X163482569Y-125632893D01*
X163692893Y-125422569D01*
X163770000Y-125307170D01*
X163847107Y-125422569D01*
X164057431Y-125632893D01*
X164304747Y-125798144D01*
X164579549Y-125911971D01*
X164871278Y-125970000D01*
X165168722Y-125970000D01*
X165460451Y-125911971D01*
X165735253Y-125798144D01*
X165982569Y-125632893D01*
X166109222Y-125506240D01*
X166653365Y-125506240D01*
X166734025Y-125757868D01*
X167002329Y-125886267D01*
X167290526Y-125959855D01*
X167587543Y-125975804D01*
X167881963Y-125933501D01*
X168162474Y-125834572D01*
X168305975Y-125757868D01*
X168386635Y-125506240D01*
X167520000Y-124639605D01*
X166653365Y-125506240D01*
X166109222Y-125506240D01*
X166192893Y-125422569D01*
X166295232Y-125269407D01*
X166473760Y-125326635D01*
X167340395Y-124460000D01*
X167699605Y-124460000D01*
X168566240Y-125326635D01*
X168817868Y-125245975D01*
X168946267Y-124977671D01*
X169019855Y-124689474D01*
X169035804Y-124392457D01*
X168993501Y-124098037D01*
X168894572Y-123817526D01*
X168817868Y-123674025D01*
X168566240Y-123593365D01*
X167699605Y-124460000D01*
X167340395Y-124460000D01*
X166473760Y-123593365D01*
X166295232Y-123650593D01*
X166192893Y-123497431D01*
X166109222Y-123413760D01*
X166653365Y-123413760D01*
X167520000Y-124280395D01*
X168386635Y-123413760D01*
X168305975Y-123162132D01*
X168037671Y-123033733D01*
X167749474Y-122960145D01*
X167452457Y-122944196D01*
X167158037Y-122986499D01*
X166877526Y-123085428D01*
X166734025Y-123162132D01*
X166653365Y-123413760D01*
X166109222Y-123413760D01*
X165982569Y-123287107D01*
X165735253Y-123121856D01*
X165460451Y-123008029D01*
X165168722Y-122950000D01*
X164871278Y-122950000D01*
X164579549Y-123008029D01*
X164304747Y-123121856D01*
X164057431Y-123287107D01*
X163847107Y-123497431D01*
X163770000Y-123612830D01*
X163692893Y-123497431D01*
X163482569Y-123287107D01*
X163235253Y-123121856D01*
X162960451Y-123008029D01*
X162668722Y-122950000D01*
X162371278Y-122950000D01*
X162079549Y-123008029D01*
X161804747Y-123121856D01*
X161557431Y-123287107D01*
X161488974Y-123355564D01*
X161484502Y-123340820D01*
X161425537Y-123230506D01*
X161346185Y-123133815D01*
X161318614Y-123111188D01*
X161495802Y-122934000D01*
X169634678Y-122934000D01*
X169672000Y-122937676D01*
X169709322Y-122934000D01*
X169709333Y-122934000D01*
X169820986Y-122923003D01*
X169964247Y-122879546D01*
X170096276Y-122808974D01*
X170212001Y-122714001D01*
X170235803Y-122684998D01*
X170436000Y-122484801D01*
X170436001Y-128463197D01*
X170119199Y-128780000D01*
X164279711Y-128780000D01*
X164235774Y-128736063D01*
X164066256Y-128622795D01*
X163877898Y-128544774D01*
X163677939Y-128505000D01*
X163474061Y-128505000D01*
X163274102Y-128544774D01*
X163085744Y-128622795D01*
X162916226Y-128736063D01*
X162772063Y-128880226D01*
X162658795Y-129049744D01*
X162580774Y-129238102D01*
X162541000Y-129438061D01*
X162541000Y-129641939D01*
X162580774Y-129841898D01*
X162658795Y-130030256D01*
X162772063Y-130199774D01*
X162916226Y-130343937D01*
X163085744Y-130457205D01*
X163274102Y-130535226D01*
X163474061Y-130575000D01*
X163677939Y-130575000D01*
X163877898Y-130535226D01*
X164066256Y-130457205D01*
X164235774Y-130343937D01*
X164279711Y-130300000D01*
X170396678Y-130300000D01*
X170434000Y-130303676D01*
X170471322Y-130300000D01*
X170471333Y-130300000D01*
X170582986Y-130289003D01*
X170726247Y-130245546D01*
X170858276Y-130174974D01*
X170974001Y-130080001D01*
X170997803Y-130050998D01*
X171198000Y-129850801D01*
X171198000Y-133543198D01*
X170627199Y-134114000D01*
X161218323Y-134114000D01*
X161181000Y-134110324D01*
X161143677Y-134114000D01*
X161143667Y-134114000D01*
X161032014Y-134124997D01*
X160888753Y-134168454D01*
X160756723Y-134239026D01*
X160704022Y-134282277D01*
X160640999Y-134333999D01*
X160617201Y-134362997D01*
X159508998Y-135471201D01*
X159480000Y-135494999D01*
X159456202Y-135523997D01*
X159456201Y-135523998D01*
X159385026Y-135610724D01*
X159365674Y-135646928D01*
X159145000Y-135646928D01*
X159020518Y-135659188D01*
X158900820Y-135695498D01*
X158790506Y-135754463D01*
X158693815Y-135833815D01*
X158614463Y-135930506D01*
X158555498Y-136040820D01*
X158519188Y-136160518D01*
X158506928Y-136285000D01*
X158506928Y-138035000D01*
X158519188Y-138159482D01*
X158555498Y-138279180D01*
X158614463Y-138389494D01*
X158693815Y-138486185D01*
X158790506Y-138565537D01*
X158900820Y-138624502D01*
X159020518Y-138660812D01*
X159145000Y-138673072D01*
X160895000Y-138673072D01*
X161019482Y-138660812D01*
X161139180Y-138624502D01*
X161249494Y-138565537D01*
X161346185Y-138486185D01*
X161425537Y-138389494D01*
X161484502Y-138279180D01*
X161488974Y-138264436D01*
X161557431Y-138332893D01*
X161804747Y-138498144D01*
X162079549Y-138611971D01*
X162371278Y-138670000D01*
X162668722Y-138670000D01*
X162960451Y-138611971D01*
X163235253Y-138498144D01*
X163482569Y-138332893D01*
X163692893Y-138122569D01*
X163770000Y-138007170D01*
X163847107Y-138122569D01*
X164057431Y-138332893D01*
X164304747Y-138498144D01*
X164579549Y-138611971D01*
X164871278Y-138670000D01*
X165168722Y-138670000D01*
X165460451Y-138611971D01*
X165735253Y-138498144D01*
X165982569Y-138332893D01*
X166109222Y-138206240D01*
X166653365Y-138206240D01*
X166734025Y-138457868D01*
X167002329Y-138586267D01*
X167290526Y-138659855D01*
X167587543Y-138675804D01*
X167881963Y-138633501D01*
X168162474Y-138534572D01*
X168305975Y-138457868D01*
X168386635Y-138206240D01*
X167520000Y-137339605D01*
X166653365Y-138206240D01*
X166109222Y-138206240D01*
X166192893Y-138122569D01*
X166295232Y-137969407D01*
X166473760Y-138026635D01*
X167340395Y-137160000D01*
X167699605Y-137160000D01*
X168566240Y-138026635D01*
X168817868Y-137945975D01*
X168946267Y-137677671D01*
X169019855Y-137389474D01*
X169035804Y-137092457D01*
X168993501Y-136798037D01*
X168894572Y-136517526D01*
X168817868Y-136374025D01*
X168566240Y-136293365D01*
X167699605Y-137160000D01*
X167340395Y-137160000D01*
X166473760Y-136293365D01*
X166295232Y-136350593D01*
X166192893Y-136197431D01*
X166109222Y-136113760D01*
X166653365Y-136113760D01*
X167520000Y-136980395D01*
X168386635Y-136113760D01*
X168305975Y-135862132D01*
X168037671Y-135733733D01*
X167749474Y-135660145D01*
X167452457Y-135644196D01*
X167158037Y-135686499D01*
X166877526Y-135785428D01*
X166734025Y-135862132D01*
X166653365Y-136113760D01*
X166109222Y-136113760D01*
X165982569Y-135987107D01*
X165735253Y-135821856D01*
X165460451Y-135708029D01*
X165168722Y-135650000D01*
X164871278Y-135650000D01*
X164579549Y-135708029D01*
X164304747Y-135821856D01*
X164057431Y-135987107D01*
X163847107Y-136197431D01*
X163770000Y-136312830D01*
X163692893Y-136197431D01*
X163482569Y-135987107D01*
X163235253Y-135821856D01*
X162960451Y-135708029D01*
X162668722Y-135650000D01*
X162371278Y-135650000D01*
X162079549Y-135708029D01*
X161804747Y-135821856D01*
X161557431Y-135987107D01*
X161488974Y-136055564D01*
X161484502Y-136040820D01*
X161425537Y-135930506D01*
X161346185Y-135833815D01*
X161318614Y-135811188D01*
X161495802Y-135634000D01*
X170904678Y-135634000D01*
X170942000Y-135637676D01*
X170979322Y-135634000D01*
X170979333Y-135634000D01*
X171090986Y-135623003D01*
X171234247Y-135579546D01*
X171366276Y-135508974D01*
X171482001Y-135414001D01*
X171505804Y-135384998D01*
X172469004Y-134421798D01*
X172498001Y-134398001D01*
X172570057Y-134310201D01*
X172592974Y-134282277D01*
X172663546Y-134150247D01*
X172679090Y-134099003D01*
X172707003Y-134006986D01*
X172718000Y-133895333D01*
X172718000Y-133895323D01*
X172721676Y-133858000D01*
X172718000Y-133820678D01*
X172718000Y-118932801D01*
X173796803Y-117854000D01*
X179435987Y-117854000D01*
X179422795Y-117873744D01*
X179344774Y-118062102D01*
X179305000Y-118262061D01*
X179305000Y-118465939D01*
X179344774Y-118665898D01*
X179422795Y-118854256D01*
X179536063Y-119023774D01*
X179680226Y-119167937D01*
X179849744Y-119281205D01*
X180038102Y-119359226D01*
X180238061Y-119399000D01*
X180441939Y-119399000D01*
X180641898Y-119359226D01*
X180830256Y-119281205D01*
X180999774Y-119167937D01*
X181043711Y-119124000D01*
X183096678Y-119124000D01*
X183134000Y-119127676D01*
X183171322Y-119124000D01*
X183171333Y-119124000D01*
X183282986Y-119113003D01*
X183426247Y-119069546D01*
X183558276Y-118998974D01*
X183674001Y-118904001D01*
X183697804Y-118874998D01*
X184661003Y-117911799D01*
X184690001Y-117888001D01*
X184726931Y-117843002D01*
X184784974Y-117772277D01*
X184855546Y-117640247D01*
X184863205Y-117614997D01*
X184899003Y-117496986D01*
X184910000Y-117385333D01*
X184910000Y-117385323D01*
X184913676Y-117348000D01*
X184910000Y-117310678D01*
X184910000Y-114307595D01*
X184979014Y-114270706D01*
X185205134Y-114085134D01*
X185390706Y-113859014D01*
X185420000Y-113804209D01*
X185449294Y-113859014D01*
X185634866Y-114085134D01*
X185860986Y-114270706D01*
X185930000Y-114307595D01*
X185930001Y-120843197D01*
X185105199Y-121668000D01*
X176204325Y-121668000D01*
X176167000Y-121664324D01*
X176129675Y-121668000D01*
X176129667Y-121668000D01*
X176018014Y-121678997D01*
X175874753Y-121722454D01*
X175742724Y-121793026D01*
X175626999Y-121887999D01*
X175603201Y-121916997D01*
X174748998Y-122771201D01*
X174720000Y-122794999D01*
X174696202Y-122823997D01*
X174696201Y-122823998D01*
X174625026Y-122910724D01*
X174605674Y-122946928D01*
X174385000Y-122946928D01*
X174260518Y-122959188D01*
X174140820Y-122995498D01*
X174030506Y-123054463D01*
X173933815Y-123133815D01*
X173854463Y-123230506D01*
X173795498Y-123340820D01*
X173759188Y-123460518D01*
X173746928Y-123585000D01*
X173746928Y-125335000D01*
X173759188Y-125459482D01*
X173795498Y-125579180D01*
X173854463Y-125689494D01*
X173933815Y-125786185D01*
X174030506Y-125865537D01*
X174140820Y-125924502D01*
X174260518Y-125960812D01*
X174385000Y-125973072D01*
X176135000Y-125973072D01*
X176259482Y-125960812D01*
X176379180Y-125924502D01*
X176489494Y-125865537D01*
X176586185Y-125786185D01*
X176665537Y-125689494D01*
X176724502Y-125579180D01*
X176728974Y-125564436D01*
X176797431Y-125632893D01*
X177044747Y-125798144D01*
X177319549Y-125911971D01*
X177611278Y-125970000D01*
X177908722Y-125970000D01*
X178200451Y-125911971D01*
X178475253Y-125798144D01*
X178722569Y-125632893D01*
X178932893Y-125422569D01*
X179010000Y-125307170D01*
X179087107Y-125422569D01*
X179297431Y-125632893D01*
X179544747Y-125798144D01*
X179819549Y-125911971D01*
X180111278Y-125970000D01*
X180408722Y-125970000D01*
X180700451Y-125911971D01*
X180975253Y-125798144D01*
X181222569Y-125632893D01*
X181349222Y-125506240D01*
X181893365Y-125506240D01*
X181974025Y-125757868D01*
X182242329Y-125886267D01*
X182530526Y-125959855D01*
X182827543Y-125975804D01*
X183121963Y-125933501D01*
X183402474Y-125834572D01*
X183545975Y-125757868D01*
X183626635Y-125506240D01*
X182760000Y-124639605D01*
X181893365Y-125506240D01*
X181349222Y-125506240D01*
X181432893Y-125422569D01*
X181535232Y-125269407D01*
X181713760Y-125326635D01*
X182580395Y-124460000D01*
X182939605Y-124460000D01*
X183806240Y-125326635D01*
X184057868Y-125245975D01*
X184186267Y-124977671D01*
X184259855Y-124689474D01*
X184275804Y-124392457D01*
X184233501Y-124098037D01*
X184134572Y-123817526D01*
X184057868Y-123674025D01*
X183806240Y-123593365D01*
X182939605Y-124460000D01*
X182580395Y-124460000D01*
X181713760Y-123593365D01*
X181535232Y-123650593D01*
X181432893Y-123497431D01*
X181222569Y-123287107D01*
X181074245Y-123188000D01*
X181965733Y-123188000D01*
X181893365Y-123413760D01*
X182760000Y-124280395D01*
X183626635Y-123413760D01*
X183554267Y-123188000D01*
X185382678Y-123188000D01*
X185420000Y-123191676D01*
X185457322Y-123188000D01*
X185457333Y-123188000D01*
X185568986Y-123177003D01*
X185712247Y-123133546D01*
X185844276Y-123062974D01*
X185960001Y-122968001D01*
X185983804Y-122938997D01*
X187201003Y-121721799D01*
X187230001Y-121698001D01*
X187324974Y-121582276D01*
X187395546Y-121450247D01*
X187439003Y-121306986D01*
X187450000Y-121195333D01*
X187450000Y-121195324D01*
X187453676Y-121158001D01*
X187450000Y-121120678D01*
X187450000Y-114307595D01*
X187519014Y-114270706D01*
X187745134Y-114085134D01*
X187930706Y-113859014D01*
X187960000Y-113804209D01*
X187989294Y-113859014D01*
X188174866Y-114085134D01*
X188400986Y-114270706D01*
X188470000Y-114307595D01*
X188470001Y-127955197D01*
X187645199Y-128780000D01*
X179519711Y-128780000D01*
X179475774Y-128736063D01*
X179306256Y-128622795D01*
X179117898Y-128544774D01*
X178917939Y-128505000D01*
X178714061Y-128505000D01*
X178514102Y-128544774D01*
X178325744Y-128622795D01*
X178156226Y-128736063D01*
X178012063Y-128880226D01*
X177898795Y-129049744D01*
X177820774Y-129238102D01*
X177781000Y-129438061D01*
X177781000Y-129641939D01*
X177820774Y-129841898D01*
X177898795Y-130030256D01*
X178012063Y-130199774D01*
X178156226Y-130343937D01*
X178325744Y-130457205D01*
X178514102Y-130535226D01*
X178714061Y-130575000D01*
X178917939Y-130575000D01*
X179117898Y-130535226D01*
X179306256Y-130457205D01*
X179475774Y-130343937D01*
X179519711Y-130300000D01*
X187922678Y-130300000D01*
X187960000Y-130303676D01*
X187997322Y-130300000D01*
X187997333Y-130300000D01*
X188108986Y-130289003D01*
X188252247Y-130245546D01*
X188384276Y-130174974D01*
X188500001Y-130080001D01*
X188523804Y-130050997D01*
X189741003Y-128833799D01*
X189770001Y-128810001D01*
X189864974Y-128694276D01*
X189935546Y-128562247D01*
X189979003Y-128418986D01*
X189990000Y-128307333D01*
X189990000Y-128307324D01*
X189993676Y-128270001D01*
X189990000Y-128232678D01*
X189990000Y-114307595D01*
X190059014Y-114270706D01*
X190285134Y-114085134D01*
X190309607Y-114055313D01*
X190330498Y-114124180D01*
X190389463Y-114234494D01*
X190468815Y-114331185D01*
X190565506Y-114410537D01*
X190675820Y-114469502D01*
X190795518Y-114505812D01*
X190920000Y-114518072D01*
X191010000Y-114518072D01*
X191010001Y-132019196D01*
X188915199Y-134114000D01*
X176458323Y-134114000D01*
X176421000Y-134110324D01*
X176383677Y-134114000D01*
X176383667Y-134114000D01*
X176272014Y-134124997D01*
X176128753Y-134168454D01*
X175996723Y-134239026D01*
X175944022Y-134282277D01*
X175880999Y-134333999D01*
X175857201Y-134362997D01*
X174749003Y-135471196D01*
X174719999Y-135494999D01*
X174664871Y-135562174D01*
X174625026Y-135610724D01*
X174605674Y-135646928D01*
X174385000Y-135646928D01*
X174260518Y-135659188D01*
X174140820Y-135695498D01*
X174030506Y-135754463D01*
X173933815Y-135833815D01*
X173854463Y-135930506D01*
X173795498Y-136040820D01*
X173759188Y-136160518D01*
X173746928Y-136285000D01*
X173746928Y-138035000D01*
X173759188Y-138159482D01*
X173795498Y-138279180D01*
X173854463Y-138389494D01*
X173933815Y-138486185D01*
X174030506Y-138565537D01*
X174140820Y-138624502D01*
X174260518Y-138660812D01*
X174385000Y-138673072D01*
X176135000Y-138673072D01*
X176259482Y-138660812D01*
X176379180Y-138624502D01*
X176489494Y-138565537D01*
X176586185Y-138486185D01*
X176665537Y-138389494D01*
X176724502Y-138279180D01*
X176728974Y-138264436D01*
X176797431Y-138332893D01*
X177044747Y-138498144D01*
X177319549Y-138611971D01*
X177611278Y-138670000D01*
X177908722Y-138670000D01*
X178200451Y-138611971D01*
X178475253Y-138498144D01*
X178722569Y-138332893D01*
X178932893Y-138122569D01*
X179010000Y-138007170D01*
X179087107Y-138122569D01*
X179297431Y-138332893D01*
X179544747Y-138498144D01*
X179819549Y-138611971D01*
X180111278Y-138670000D01*
X180408722Y-138670000D01*
X180700451Y-138611971D01*
X180975253Y-138498144D01*
X181222569Y-138332893D01*
X181349222Y-138206240D01*
X181893365Y-138206240D01*
X181974025Y-138457868D01*
X182242329Y-138586267D01*
X182530526Y-138659855D01*
X182827543Y-138675804D01*
X183121963Y-138633501D01*
X183402474Y-138534572D01*
X183545975Y-138457868D01*
X183625470Y-138209872D01*
X189535000Y-138209872D01*
X189535000Y-138650128D01*
X189620890Y-139081925D01*
X189789369Y-139488669D01*
X190033962Y-139854729D01*
X190345271Y-140166038D01*
X190711331Y-140410631D01*
X191118075Y-140579110D01*
X191549872Y-140665000D01*
X191990128Y-140665000D01*
X192421925Y-140579110D01*
X192828669Y-140410631D01*
X193194729Y-140166038D01*
X193506038Y-139854729D01*
X193750631Y-139488669D01*
X193919110Y-139081925D01*
X194005000Y-138650128D01*
X194005000Y-138209872D01*
X193919110Y-137778075D01*
X193750631Y-137371331D01*
X193506038Y-137005271D01*
X193194729Y-136693962D01*
X192828669Y-136449369D01*
X192421925Y-136280890D01*
X191990128Y-136195000D01*
X191549872Y-136195000D01*
X191118075Y-136280890D01*
X190711331Y-136449369D01*
X190345271Y-136693962D01*
X190033962Y-137005271D01*
X189789369Y-137371331D01*
X189620890Y-137778075D01*
X189535000Y-138209872D01*
X183625470Y-138209872D01*
X183626635Y-138206240D01*
X182760000Y-137339605D01*
X181893365Y-138206240D01*
X181349222Y-138206240D01*
X181432893Y-138122569D01*
X181535232Y-137969407D01*
X181713760Y-138026635D01*
X182580395Y-137160000D01*
X182939605Y-137160000D01*
X183806240Y-138026635D01*
X184057868Y-137945975D01*
X184186267Y-137677671D01*
X184259855Y-137389474D01*
X184275804Y-137092457D01*
X184233501Y-136798037D01*
X184134572Y-136517526D01*
X184057868Y-136374025D01*
X183806240Y-136293365D01*
X182939605Y-137160000D01*
X182580395Y-137160000D01*
X181713760Y-136293365D01*
X181535232Y-136350593D01*
X181432893Y-136197431D01*
X181349222Y-136113760D01*
X181893365Y-136113760D01*
X182760000Y-136980395D01*
X183626635Y-136113760D01*
X183545975Y-135862132D01*
X183277671Y-135733733D01*
X182989474Y-135660145D01*
X182692457Y-135644196D01*
X182398037Y-135686499D01*
X182117526Y-135785428D01*
X181974025Y-135862132D01*
X181893365Y-136113760D01*
X181349222Y-136113760D01*
X181222569Y-135987107D01*
X180975253Y-135821856D01*
X180700451Y-135708029D01*
X180408722Y-135650000D01*
X180111278Y-135650000D01*
X179819549Y-135708029D01*
X179544747Y-135821856D01*
X179297431Y-135987107D01*
X179087107Y-136197431D01*
X179010000Y-136312830D01*
X178932893Y-136197431D01*
X178722569Y-135987107D01*
X178475253Y-135821856D01*
X178200451Y-135708029D01*
X177908722Y-135650000D01*
X177611278Y-135650000D01*
X177319549Y-135708029D01*
X177044747Y-135821856D01*
X176797431Y-135987107D01*
X176728974Y-136055564D01*
X176724502Y-136040820D01*
X176665537Y-135930506D01*
X176586185Y-135833815D01*
X176558614Y-135811188D01*
X176735802Y-135634000D01*
X189192678Y-135634000D01*
X189230000Y-135637676D01*
X189267322Y-135634000D01*
X189267333Y-135634000D01*
X189378986Y-135623003D01*
X189522247Y-135579546D01*
X189654276Y-135508974D01*
X189770001Y-135414001D01*
X189793804Y-135384997D01*
X192281008Y-132897795D01*
X192310001Y-132874001D01*
X192333795Y-132845008D01*
X192333799Y-132845004D01*
X192404973Y-132758277D01*
X192428091Y-132715027D01*
X192475546Y-132626247D01*
X192519003Y-132482986D01*
X192530000Y-132371333D01*
X192530000Y-132371324D01*
X192533676Y-132334001D01*
X192530000Y-132296678D01*
X192530000Y-114518072D01*
X192620000Y-114518072D01*
X192744482Y-114505812D01*
X192864180Y-114469502D01*
X192974494Y-114410537D01*
X193071185Y-114331185D01*
X193150537Y-114234494D01*
X193209502Y-114124180D01*
X193245812Y-114004482D01*
X193258072Y-113880000D01*
X193258072Y-112180000D01*
X193245812Y-112055518D01*
X193209502Y-111935820D01*
X193150537Y-111825506D01*
X193071185Y-111728815D01*
X192974494Y-111649463D01*
X192864180Y-111590498D01*
X192744482Y-111554188D01*
X192620000Y-111541928D01*
X190920000Y-111541928D01*
X190795518Y-111554188D01*
X190675820Y-111590498D01*
X190565506Y-111649463D01*
X190468815Y-111728815D01*
X190389463Y-111825506D01*
X190330498Y-111935820D01*
X190309607Y-112004687D01*
X190285134Y-111974866D01*
X190059014Y-111789294D01*
X189801034Y-111651401D01*
X189521111Y-111566487D01*
X189302950Y-111545000D01*
X189157050Y-111545000D01*
X188938889Y-111566487D01*
X188658966Y-111651401D01*
X188400986Y-111789294D01*
X188174866Y-111974866D01*
X187989294Y-112200986D01*
X187960000Y-112255791D01*
X187930706Y-112200986D01*
X187745134Y-111974866D01*
X187519014Y-111789294D01*
X187261034Y-111651401D01*
X186981111Y-111566487D01*
X186762950Y-111545000D01*
X186617050Y-111545000D01*
X186398889Y-111566487D01*
X186118966Y-111651401D01*
X185860986Y-111789294D01*
X185634866Y-111974866D01*
X185449294Y-112200986D01*
X185420000Y-112255791D01*
X185390706Y-112200986D01*
X185205134Y-111974866D01*
X184979014Y-111789294D01*
X184721034Y-111651401D01*
X184441111Y-111566487D01*
X184222950Y-111545000D01*
X184077050Y-111545000D01*
X183858889Y-111566487D01*
X183578966Y-111651401D01*
X183320986Y-111789294D01*
X183094866Y-111974866D01*
X182909294Y-112200986D01*
X182880000Y-112255791D01*
X182850706Y-112200986D01*
X182665134Y-111974866D01*
X182439014Y-111789294D01*
X182181034Y-111651401D01*
X181901111Y-111566487D01*
X181682950Y-111545000D01*
X181537050Y-111545000D01*
X181318889Y-111566487D01*
X181038966Y-111651401D01*
X180780986Y-111789294D01*
X180554866Y-111974866D01*
X180369294Y-112200986D01*
X180340000Y-112255791D01*
X180310706Y-112200986D01*
X180125134Y-111974866D01*
X179899014Y-111789294D01*
X179641034Y-111651401D01*
X179361111Y-111566487D01*
X179142950Y-111545000D01*
X178997050Y-111545000D01*
X178778889Y-111566487D01*
X178498966Y-111651401D01*
X178240986Y-111789294D01*
X178014866Y-111974866D01*
X177829294Y-112200986D01*
X177800000Y-112255791D01*
X177770706Y-112200986D01*
X177585134Y-111974866D01*
X177359014Y-111789294D01*
X177101034Y-111651401D01*
X176821111Y-111566487D01*
X176602950Y-111545000D01*
X176457050Y-111545000D01*
X176238889Y-111566487D01*
X175958966Y-111651401D01*
X175700986Y-111789294D01*
X175474866Y-111974866D01*
X175289294Y-112200986D01*
X175260000Y-112255791D01*
X175230706Y-112200986D01*
X175045134Y-111974866D01*
X174819014Y-111789294D01*
X174561034Y-111651401D01*
X174281111Y-111566487D01*
X174062950Y-111545000D01*
X173917050Y-111545000D01*
X173698889Y-111566487D01*
X173418966Y-111651401D01*
X173160986Y-111789294D01*
X172934866Y-111974866D01*
X172749294Y-112200986D01*
X172720000Y-112255791D01*
X172690706Y-112200986D01*
X172505134Y-111974866D01*
X172279014Y-111789294D01*
X172021034Y-111651401D01*
X171741111Y-111566487D01*
X171522950Y-111545000D01*
X171377050Y-111545000D01*
X171158889Y-111566487D01*
X170878966Y-111651401D01*
X170620986Y-111789294D01*
X170394866Y-111974866D01*
X170209294Y-112200986D01*
X170180000Y-112255791D01*
X170150706Y-112200986D01*
X169965134Y-111974866D01*
X169739014Y-111789294D01*
X169670000Y-111752405D01*
X169670000Y-110781322D01*
X169673676Y-110744000D01*
X169670000Y-110706677D01*
X169670000Y-110706667D01*
X169659003Y-110595014D01*
X169615546Y-110451753D01*
X169605814Y-110433546D01*
X169544974Y-110319723D01*
X169473799Y-110232997D01*
X169473798Y-110232996D01*
X169450001Y-110203999D01*
X169421003Y-110180201D01*
X168457804Y-109217002D01*
X168434001Y-109187999D01*
X168318276Y-109093026D01*
X168186247Y-109022454D01*
X168042986Y-108978997D01*
X167931333Y-108968000D01*
X167931322Y-108968000D01*
X167894000Y-108964324D01*
X167856678Y-108968000D01*
X161350803Y-108968000D01*
X158515000Y-106132199D01*
X158515000Y-106070061D01*
X158475226Y-105870102D01*
X158397205Y-105681744D01*
X158283937Y-105512226D01*
X158139774Y-105368063D01*
X157970256Y-105254795D01*
X157781898Y-105176774D01*
X157581939Y-105137000D01*
X157378061Y-105137000D01*
X157178102Y-105176774D01*
X156989744Y-105254795D01*
X156820226Y-105368063D01*
X156676063Y-105512226D01*
X156591000Y-105639532D01*
X156505937Y-105512226D01*
X156361774Y-105368063D01*
X156192256Y-105254795D01*
X156003898Y-105176774D01*
X155803939Y-105137000D01*
X155600061Y-105137000D01*
X155400102Y-105176774D01*
X155211744Y-105254795D01*
X155042226Y-105368063D01*
X154940000Y-105470289D01*
X154837774Y-105368063D01*
X154668256Y-105254795D01*
X154479898Y-105176774D01*
X154279939Y-105137000D01*
X154076061Y-105137000D01*
X153876102Y-105176774D01*
X153687744Y-105254795D01*
X153543000Y-105351510D01*
X153398256Y-105254795D01*
X153386511Y-105249930D01*
X154532982Y-104103460D01*
X182022659Y-104103460D01*
X182607000Y-104687802D01*
X182607000Y-104749939D01*
X182646774Y-104949898D01*
X182724795Y-105138256D01*
X182838063Y-105307774D01*
X182982226Y-105451937D01*
X183151744Y-105565205D01*
X183340102Y-105643226D01*
X183540061Y-105683000D01*
X183743939Y-105683000D01*
X183943898Y-105643226D01*
X184132256Y-105565205D01*
X184301774Y-105451937D01*
X184445937Y-105307774D01*
X184559205Y-105138256D01*
X184637226Y-104949898D01*
X184677000Y-104749939D01*
X184677000Y-104546061D01*
X184637226Y-104346102D01*
X184559205Y-104157744D01*
X184445937Y-103988226D01*
X184301774Y-103844063D01*
X184132256Y-103730795D01*
X183945530Y-103653450D01*
X190462678Y-103653450D01*
X190500000Y-103657126D01*
X190537322Y-103653450D01*
X190537333Y-103653450D01*
X190648986Y-103642453D01*
X190792247Y-103598996D01*
X190924276Y-103528424D01*
X191040001Y-103433451D01*
X191063804Y-103404447D01*
X192281003Y-102187249D01*
X192310001Y-102163451D01*
X192404974Y-102047726D01*
X192475546Y-101915697D01*
X192519003Y-101772436D01*
X192530000Y-101660783D01*
X192530000Y-101660774D01*
X192533676Y-101623451D01*
X192530000Y-101586128D01*
X192530000Y-99278072D01*
X192620000Y-99278072D01*
X192744482Y-99265812D01*
X192864180Y-99229502D01*
X192974494Y-99170537D01*
X193071185Y-99091185D01*
X193150537Y-98994494D01*
X193209502Y-98884180D01*
X193245812Y-98764482D01*
X193258072Y-98640000D01*
X193258072Y-96940000D01*
X193245812Y-96815518D01*
X193209502Y-96695820D01*
X193150537Y-96585506D01*
X193071185Y-96488815D01*
X192974494Y-96409463D01*
X192864180Y-96350498D01*
X192744482Y-96314188D01*
X192620000Y-96301928D01*
X190920000Y-96301928D01*
X190795518Y-96314188D01*
X190675820Y-96350498D01*
X190565506Y-96409463D01*
X190468815Y-96488815D01*
X190389463Y-96585506D01*
X190330498Y-96695820D01*
X190309607Y-96764687D01*
X190285134Y-96734866D01*
X190059014Y-96549294D01*
X189801034Y-96411401D01*
X189521111Y-96326487D01*
X189302950Y-96305000D01*
X189157050Y-96305000D01*
X188938889Y-96326487D01*
X188658966Y-96411401D01*
X188400986Y-96549294D01*
X188174866Y-96734866D01*
X187989294Y-96960986D01*
X187960000Y-97015791D01*
X187930706Y-96960986D01*
X187745134Y-96734866D01*
X187519014Y-96549294D01*
X187261034Y-96411401D01*
X186981111Y-96326487D01*
X186762950Y-96305000D01*
X186617050Y-96305000D01*
X186398889Y-96326487D01*
X186118966Y-96411401D01*
X185860986Y-96549294D01*
X185634866Y-96734866D01*
X185449294Y-96960986D01*
X185420000Y-97015791D01*
X185390706Y-96960986D01*
X185205134Y-96734866D01*
X184979014Y-96549294D01*
X184721034Y-96411401D01*
X184441111Y-96326487D01*
X184222950Y-96305000D01*
X184077050Y-96305000D01*
X183858889Y-96326487D01*
X183578966Y-96411401D01*
X183320986Y-96549294D01*
X183094866Y-96734866D01*
X182909294Y-96960986D01*
X182880000Y-97015791D01*
X182850706Y-96960986D01*
X182665134Y-96734866D01*
X182439014Y-96549294D01*
X182181034Y-96411401D01*
X181901111Y-96326487D01*
X181682950Y-96305000D01*
X181537050Y-96305000D01*
X181318889Y-96326487D01*
X181038966Y-96411401D01*
X180780986Y-96549294D01*
X180554866Y-96734866D01*
X180369294Y-96960986D01*
X180340000Y-97015791D01*
X180310706Y-96960986D01*
X180125134Y-96734866D01*
X179899014Y-96549294D01*
X179641034Y-96411401D01*
X179361111Y-96326487D01*
X179142950Y-96305000D01*
X178997050Y-96305000D01*
X178778889Y-96326487D01*
X178498966Y-96411401D01*
X178240986Y-96549294D01*
X178014866Y-96734866D01*
X177829294Y-96960986D01*
X177800000Y-97015791D01*
X177770706Y-96960986D01*
X177585134Y-96734866D01*
X177359014Y-96549294D01*
X177101034Y-96411401D01*
X176821111Y-96326487D01*
X176602950Y-96305000D01*
X176457050Y-96305000D01*
X176238889Y-96326487D01*
X175958966Y-96411401D01*
X175700986Y-96549294D01*
X175474866Y-96734866D01*
X175289294Y-96960986D01*
X175260000Y-97015791D01*
X175230706Y-96960986D01*
X175045134Y-96734866D01*
X174819014Y-96549294D01*
X174561034Y-96411401D01*
X174281111Y-96326487D01*
X174062950Y-96305000D01*
X173917050Y-96305000D01*
X173698889Y-96326487D01*
X173418966Y-96411401D01*
X173160986Y-96549294D01*
X172934866Y-96734866D01*
X172749294Y-96960986D01*
X172720000Y-97015791D01*
X172690706Y-96960986D01*
X172505134Y-96734866D01*
X172279014Y-96549294D01*
X172021034Y-96411401D01*
X171741111Y-96326487D01*
X171522950Y-96305000D01*
X171377050Y-96305000D01*
X171158889Y-96326487D01*
X170878966Y-96411401D01*
X170620986Y-96549294D01*
X170394866Y-96734866D01*
X170209294Y-96960986D01*
X170180000Y-97015791D01*
X170150706Y-96960986D01*
X169965134Y-96734866D01*
X169739014Y-96549294D01*
X169481034Y-96411401D01*
X169201111Y-96326487D01*
X168982950Y-96305000D01*
X168837050Y-96305000D01*
X168618889Y-96326487D01*
X168338966Y-96411401D01*
X168080986Y-96549294D01*
X167854866Y-96734866D01*
X167669294Y-96960986D01*
X167640000Y-97015791D01*
X167610706Y-96960986D01*
X167425134Y-96734866D01*
X167199014Y-96549294D01*
X166941034Y-96411401D01*
X166661111Y-96326487D01*
X166442950Y-96305000D01*
X166297050Y-96305000D01*
X166078889Y-96326487D01*
X165798966Y-96411401D01*
X165540986Y-96549294D01*
X165314866Y-96734866D01*
X165129294Y-96960986D01*
X165100000Y-97015791D01*
X165070706Y-96960986D01*
X164885134Y-96734866D01*
X164665000Y-96554207D01*
X164665000Y-96307018D01*
X164669040Y-96266000D01*
X164652918Y-96102311D01*
X164605172Y-95944913D01*
X164527636Y-95799854D01*
X164423291Y-95672709D01*
X164391426Y-95646558D01*
X163433446Y-94688579D01*
X163407291Y-94656709D01*
X163280146Y-94552364D01*
X163135087Y-94474828D01*
X162977689Y-94427082D01*
X162855019Y-94415000D01*
X162855018Y-94415000D01*
X162814000Y-94410960D01*
X162772982Y-94415000D01*
X144512608Y-94415000D01*
X144436242Y-94338634D01*
X144687868Y-94257975D01*
X144816267Y-93989671D01*
X144889855Y-93701474D01*
X144905804Y-93404457D01*
X144863501Y-93110037D01*
X144764572Y-92829526D01*
X144687868Y-92686025D01*
X144436240Y-92605365D01*
X143569605Y-93472000D01*
X143583748Y-93486143D01*
X143404143Y-93665748D01*
X143390000Y-93651605D01*
X143375858Y-93665748D01*
X143196253Y-93486143D01*
X143210395Y-93472000D01*
X142343760Y-92605365D01*
X142165232Y-92662593D01*
X142062893Y-92509431D01*
X141979222Y-92425760D01*
X142523365Y-92425760D01*
X143390000Y-93292395D01*
X144256635Y-92425760D01*
X144175975Y-92174132D01*
X143907671Y-92045733D01*
X143619474Y-91972145D01*
X143322457Y-91956196D01*
X143028037Y-91998499D01*
X142747526Y-92097428D01*
X142604025Y-92174132D01*
X142523365Y-92425760D01*
X141979222Y-92425760D01*
X141852569Y-92299107D01*
X141605253Y-92133856D01*
X141330451Y-92020029D01*
X141038722Y-91962000D01*
X140741278Y-91962000D01*
X140449549Y-92020029D01*
X140174747Y-92133856D01*
X139927431Y-92299107D01*
X139717107Y-92509431D01*
X139640000Y-92624830D01*
X139562893Y-92509431D01*
X139352569Y-92299107D01*
X139105253Y-92133856D01*
X138830451Y-92020029D01*
X138538722Y-91962000D01*
X138241278Y-91962000D01*
X137949549Y-92020029D01*
X137674747Y-92133856D01*
X137427431Y-92299107D01*
X137358974Y-92367564D01*
X137354502Y-92352820D01*
X137295537Y-92242506D01*
X137216185Y-92145815D01*
X137119494Y-92066463D01*
X137009180Y-92007498D01*
X136889482Y-91971188D01*
X136765000Y-91958928D01*
X135015000Y-91958928D01*
X134890518Y-91971188D01*
X134770820Y-92007498D01*
X134660506Y-92066463D01*
X134563815Y-92145815D01*
X134484463Y-92242506D01*
X134425498Y-92352820D01*
X134389188Y-92472518D01*
X134376928Y-92597000D01*
X134376928Y-94347000D01*
X134389188Y-94471482D01*
X134425498Y-94591180D01*
X134484463Y-94701494D01*
X134563815Y-94798185D01*
X134660506Y-94877537D01*
X134770820Y-94936502D01*
X134890518Y-94972812D01*
X135015000Y-94985072D01*
X136765000Y-94985072D01*
X136889482Y-94972812D01*
X137009180Y-94936502D01*
X137119494Y-94877537D01*
X137216185Y-94798185D01*
X137295537Y-94701494D01*
X137354502Y-94591180D01*
X137358974Y-94576436D01*
X137427431Y-94644893D01*
X137674747Y-94810144D01*
X137949549Y-94923971D01*
X138241278Y-94982000D01*
X138538722Y-94982000D01*
X138830451Y-94923971D01*
X139105253Y-94810144D01*
X139352569Y-94644893D01*
X139562893Y-94434569D01*
X139640000Y-94319170D01*
X139717107Y-94434569D01*
X139850553Y-94568015D01*
X139241569Y-95177000D01*
X127298433Y-95177000D01*
X126689447Y-94568015D01*
X126739222Y-94518240D01*
X127283365Y-94518240D01*
X127364025Y-94769868D01*
X127632329Y-94898267D01*
X127920526Y-94971855D01*
X128217543Y-94987804D01*
X128511963Y-94945501D01*
X128792474Y-94846572D01*
X128935975Y-94769868D01*
X129016635Y-94518240D01*
X128150000Y-93651605D01*
X127283365Y-94518240D01*
X126739222Y-94518240D01*
X126822893Y-94434569D01*
X126925232Y-94281407D01*
X127103760Y-94338635D01*
X127970395Y-93472000D01*
X128329605Y-93472000D01*
X129196240Y-94338635D01*
X129447868Y-94257975D01*
X129576267Y-93989671D01*
X129649855Y-93701474D01*
X129665804Y-93404457D01*
X129623501Y-93110037D01*
X129524572Y-92829526D01*
X129447868Y-92686025D01*
X129196240Y-92605365D01*
X128329605Y-93472000D01*
X127970395Y-93472000D01*
X127103760Y-92605365D01*
X126925232Y-92662593D01*
X126822893Y-92509431D01*
X126739222Y-92425760D01*
X127283365Y-92425760D01*
X128150000Y-93292395D01*
X129016635Y-92425760D01*
X128935975Y-92174132D01*
X128667671Y-92045733D01*
X128379474Y-91972145D01*
X128082457Y-91956196D01*
X127788037Y-91998499D01*
X127507526Y-92097428D01*
X127364025Y-92174132D01*
X127283365Y-92425760D01*
X126739222Y-92425760D01*
X126612569Y-92299107D01*
X126365253Y-92133856D01*
X126090451Y-92020029D01*
X125798722Y-91962000D01*
X125501278Y-91962000D01*
X125209549Y-92020029D01*
X124934747Y-92133856D01*
X124687431Y-92299107D01*
X124477107Y-92509431D01*
X124400000Y-92624830D01*
X124322893Y-92509431D01*
X124112569Y-92299107D01*
X123865253Y-92133856D01*
X123590451Y-92020029D01*
X123298722Y-91962000D01*
X123001278Y-91962000D01*
X122709549Y-92020029D01*
X122434747Y-92133856D01*
X122187431Y-92299107D01*
X122118974Y-92367564D01*
X122114502Y-92352820D01*
X122055537Y-92242506D01*
X121976185Y-92145815D01*
X121879494Y-92066463D01*
X121769180Y-92007498D01*
X121649482Y-91971188D01*
X121525000Y-91958928D01*
X119775000Y-91958928D01*
X119650518Y-91971188D01*
X119530820Y-92007498D01*
X119420506Y-92066463D01*
X119323815Y-92145815D01*
X119244463Y-92242506D01*
X119185498Y-92352820D01*
X119149188Y-92472518D01*
X119136928Y-92597000D01*
X119136928Y-94347000D01*
X119149188Y-94471482D01*
X119185498Y-94591180D01*
X119244463Y-94701494D01*
X119323815Y-94798185D01*
X119420506Y-94877537D01*
X119530820Y-94936502D01*
X119650518Y-94972812D01*
X119775000Y-94985072D01*
X121525000Y-94985072D01*
X121649482Y-94972812D01*
X121769180Y-94936502D01*
X121879494Y-94877537D01*
X121976185Y-94798185D01*
X122055537Y-94701494D01*
X122114502Y-94591180D01*
X122118974Y-94576436D01*
X122187431Y-94644893D01*
X122434747Y-94810144D01*
X122709549Y-94923971D01*
X123001278Y-94982000D01*
X123298722Y-94982000D01*
X123590451Y-94923971D01*
X123865253Y-94810144D01*
X124112569Y-94644893D01*
X124322893Y-94434569D01*
X124400000Y-94319170D01*
X124477107Y-94434569D01*
X124687431Y-94644893D01*
X124812857Y-94728700D01*
X124827082Y-94873124D01*
X124874828Y-95030522D01*
X124874829Y-95030523D01*
X124952365Y-95175582D01*
X125056710Y-95302727D01*
X125088574Y-95328877D01*
X126333127Y-96573432D01*
X126359273Y-96605291D01*
X126486418Y-96709636D01*
X126631477Y-96787172D01*
X126788875Y-96834918D01*
X126911545Y-96847000D01*
X126911546Y-96847000D01*
X126952564Y-96851040D01*
X126993582Y-96847000D01*
X139546418Y-96847000D01*
X139587436Y-96851040D01*
X139628454Y-96847000D01*
X139628455Y-96847000D01*
X139751125Y-96834918D01*
X139908523Y-96787172D01*
X140053582Y-96709636D01*
X140180727Y-96605291D01*
X140206882Y-96573422D01*
X140892055Y-95888249D01*
X140961100Y-95944913D01*
X140964418Y-95947636D01*
X141109477Y-96025172D01*
X141266875Y-96072918D01*
X141430564Y-96089040D01*
X141471582Y-96085000D01*
X162468133Y-96085000D01*
X162963330Y-96580198D01*
X162774866Y-96734866D01*
X162589294Y-96960986D01*
X162560000Y-97015791D01*
X162530706Y-96960986D01*
X162345134Y-96734866D01*
X162119014Y-96549294D01*
X161861034Y-96411401D01*
X161581111Y-96326487D01*
X161362950Y-96305000D01*
X161217050Y-96305000D01*
X160998889Y-96326487D01*
X160718966Y-96411401D01*
X160460986Y-96549294D01*
X160234866Y-96734866D01*
X160049294Y-96960986D01*
X160014799Y-97025523D01*
X159945178Y-96908645D01*
X159750269Y-96692412D01*
X159516920Y-96518359D01*
X159254099Y-96393175D01*
X159106890Y-96348524D01*
X158877000Y-96469845D01*
X158877000Y-97663000D01*
X158897000Y-97663000D01*
X158897000Y-97917000D01*
X158877000Y-97917000D01*
X158877000Y-99110155D01*
X159106890Y-99231476D01*
X159254099Y-99186825D01*
X159516920Y-99061641D01*
X159750269Y-98887588D01*
X159945178Y-98671355D01*
X160014799Y-98554477D01*
X160049294Y-98619014D01*
X160234866Y-98845134D01*
X160460986Y-99030706D01*
X160718966Y-99168599D01*
X160998889Y-99253513D01*
X161217050Y-99275000D01*
X161362950Y-99275000D01*
X161581111Y-99253513D01*
X161861034Y-99168599D01*
X162119014Y-99030706D01*
X162345134Y-98845134D01*
X162530706Y-98619014D01*
X162560000Y-98564209D01*
X162589294Y-98619014D01*
X162774866Y-98845134D01*
X163000986Y-99030706D01*
X163258966Y-99168599D01*
X163538889Y-99253513D01*
X163757050Y-99275000D01*
X163902950Y-99275000D01*
X164121111Y-99253513D01*
X164401034Y-99168599D01*
X164659014Y-99030706D01*
X164885134Y-98845134D01*
X165070706Y-98619014D01*
X165100000Y-98564209D01*
X165129294Y-98619014D01*
X165314866Y-98845134D01*
X165540986Y-99030706D01*
X165798966Y-99168599D01*
X166078889Y-99253513D01*
X166297050Y-99275000D01*
X166442950Y-99275000D01*
X166661111Y-99253513D01*
X166941034Y-99168599D01*
X167199014Y-99030706D01*
X167425134Y-98845134D01*
X167610706Y-98619014D01*
X167640000Y-98564209D01*
X167669294Y-98619014D01*
X167854866Y-98845134D01*
X168080986Y-99030706D01*
X168338966Y-99168599D01*
X168618889Y-99253513D01*
X168837050Y-99275000D01*
X168982950Y-99275000D01*
X169201111Y-99253513D01*
X169481034Y-99168599D01*
X169739014Y-99030706D01*
X169965134Y-98845134D01*
X170150706Y-98619014D01*
X170180000Y-98564209D01*
X170209294Y-98619014D01*
X170394866Y-98845134D01*
X170620986Y-99030706D01*
X170690001Y-99067595D01*
X170690001Y-99253197D01*
X170119199Y-99824000D01*
X154234622Y-99824000D01*
X154304974Y-99738276D01*
X154375546Y-99606247D01*
X154419003Y-99462986D01*
X154430000Y-99351333D01*
X154430000Y-99351324D01*
X154433676Y-99314001D01*
X154430000Y-99276678D01*
X154430000Y-99067595D01*
X154499014Y-99030706D01*
X154725134Y-98845134D01*
X154910706Y-98619014D01*
X154940000Y-98564209D01*
X154969294Y-98619014D01*
X155154866Y-98845134D01*
X155380986Y-99030706D01*
X155638966Y-99168599D01*
X155918889Y-99253513D01*
X156137050Y-99275000D01*
X156282950Y-99275000D01*
X156501111Y-99253513D01*
X156781034Y-99168599D01*
X157039014Y-99030706D01*
X157265134Y-98845134D01*
X157450706Y-98619014D01*
X157485201Y-98554477D01*
X157554822Y-98671355D01*
X157749731Y-98887588D01*
X157983080Y-99061641D01*
X158245901Y-99186825D01*
X158393110Y-99231476D01*
X158623000Y-99110155D01*
X158623000Y-97917000D01*
X158603000Y-97917000D01*
X158603000Y-97663000D01*
X158623000Y-97663000D01*
X158623000Y-96469845D01*
X158393110Y-96348524D01*
X158245901Y-96393175D01*
X157983080Y-96518359D01*
X157749731Y-96692412D01*
X157554822Y-96908645D01*
X157485201Y-97025523D01*
X157450706Y-96960986D01*
X157265134Y-96734866D01*
X157039014Y-96549294D01*
X156781034Y-96411401D01*
X156501111Y-96326487D01*
X156282950Y-96305000D01*
X156137050Y-96305000D01*
X155918889Y-96326487D01*
X155638966Y-96411401D01*
X155380986Y-96549294D01*
X155154866Y-96734866D01*
X154969294Y-96960986D01*
X154940000Y-97015791D01*
X154910706Y-96960986D01*
X154725134Y-96734866D01*
X154499014Y-96549294D01*
X154241034Y-96411401D01*
X153961111Y-96326487D01*
X153742950Y-96305000D01*
X153597050Y-96305000D01*
X153378889Y-96326487D01*
X153098966Y-96411401D01*
X152840986Y-96549294D01*
X152614866Y-96734866D01*
X152429294Y-96960986D01*
X152400000Y-97015791D01*
X152370706Y-96960986D01*
X152185134Y-96734866D01*
X151959014Y-96549294D01*
X151701034Y-96411401D01*
X151421111Y-96326487D01*
X151202950Y-96305000D01*
X151057050Y-96305000D01*
X150838889Y-96326487D01*
X150558966Y-96411401D01*
X150300986Y-96549294D01*
X150074866Y-96734866D01*
X149889294Y-96960986D01*
X149751401Y-97218966D01*
X149666487Y-97498889D01*
X149637815Y-97790000D01*
X149666487Y-98081111D01*
X149751401Y-98361034D01*
X149889294Y-98619014D01*
X150074866Y-98845134D01*
X150300986Y-99030706D01*
X150370000Y-99067595D01*
X150370001Y-100777197D01*
X150275722Y-100871476D01*
X150269205Y-100855744D01*
X150155937Y-100686226D01*
X150011774Y-100542063D01*
X149842256Y-100428795D01*
X149653898Y-100350774D01*
X149453939Y-100311000D01*
X149250061Y-100311000D01*
X149050102Y-100350774D01*
X148861744Y-100428795D01*
X148692226Y-100542063D01*
X148648289Y-100586000D01*
X144332802Y-100586000D01*
X143203803Y-99457002D01*
X143180000Y-99427998D01*
X143064275Y-99333025D01*
X142932246Y-99262453D01*
X142788985Y-99218996D01*
X142677332Y-99207999D01*
X142677321Y-99207999D01*
X142639999Y-99204323D01*
X142602677Y-99207999D01*
X127463159Y-99207999D01*
X127409205Y-99077744D01*
X127295937Y-98908226D01*
X127151774Y-98764063D01*
X126982256Y-98650795D01*
X126793898Y-98572774D01*
X126593939Y-98533000D01*
X126390061Y-98533000D01*
X126190102Y-98572774D01*
X126001744Y-98650795D01*
X125832226Y-98764063D01*
X125688063Y-98908226D01*
X125574795Y-99077744D01*
X125496774Y-99266102D01*
X125457000Y-99466061D01*
X125457000Y-99669939D01*
X125487644Y-99824000D01*
X123481325Y-99824000D01*
X123444000Y-99820324D01*
X123406675Y-99824000D01*
X123406667Y-99824000D01*
X123295014Y-99834997D01*
X123151753Y-99878454D01*
X123019724Y-99949026D01*
X122903999Y-100043999D01*
X122880201Y-100072998D01*
X122642198Y-100311000D01*
X122580061Y-100311000D01*
X122380102Y-100350774D01*
X122191744Y-100428795D01*
X122022226Y-100542063D01*
X121878063Y-100686226D01*
X121764795Y-100855744D01*
X121686774Y-101044102D01*
X121647000Y-101244061D01*
X121647000Y-101447939D01*
X121686774Y-101647898D01*
X121764795Y-101836256D01*
X121878063Y-102005774D01*
X122022226Y-102149937D01*
X122191744Y-102263205D01*
X122380102Y-102341226D01*
X122580061Y-102381000D01*
X122783939Y-102381000D01*
X122983898Y-102341226D01*
X123172256Y-102263205D01*
X123341774Y-102149937D01*
X123485937Y-102005774D01*
X123599205Y-101836256D01*
X123677226Y-101647898D01*
X123717000Y-101447939D01*
X123717000Y-101385802D01*
X123758802Y-101344000D01*
X141417199Y-101344000D01*
X142946201Y-102873003D01*
X142969999Y-102902001D01*
X143085724Y-102996974D01*
X143217753Y-103067546D01*
X143361014Y-103111003D01*
X143472667Y-103122000D01*
X143472675Y-103122000D01*
X143510000Y-103125676D01*
X143547325Y-103122000D01*
X147632289Y-103122000D01*
X147676226Y-103165937D01*
X147845744Y-103279205D01*
X147861477Y-103285722D01*
X138115199Y-113032000D01*
X137834267Y-113032000D01*
X137906635Y-112806240D01*
X137040000Y-111939605D01*
X136173365Y-112806240D01*
X136245733Y-113032000D01*
X135354245Y-113032000D01*
X135502569Y-112932893D01*
X135712893Y-112722569D01*
X135815232Y-112569407D01*
X135993760Y-112626635D01*
X136860395Y-111760000D01*
X137219605Y-111760000D01*
X138086240Y-112626635D01*
X138337868Y-112545975D01*
X138466267Y-112277671D01*
X138539855Y-111989474D01*
X138555804Y-111692457D01*
X138513501Y-111398037D01*
X138414572Y-111117526D01*
X138337868Y-110974025D01*
X138086240Y-110893365D01*
X137219605Y-111760000D01*
X136860395Y-111760000D01*
X135993760Y-110893365D01*
X135815232Y-110950593D01*
X135712893Y-110797431D01*
X135629222Y-110713760D01*
X136173365Y-110713760D01*
X137040000Y-111580395D01*
X137906635Y-110713760D01*
X137825975Y-110462132D01*
X137557671Y-110333733D01*
X137269474Y-110260145D01*
X136972457Y-110244196D01*
X136678037Y-110286499D01*
X136397526Y-110385428D01*
X136254025Y-110462132D01*
X136173365Y-110713760D01*
X135629222Y-110713760D01*
X135502569Y-110587107D01*
X135255253Y-110421856D01*
X134980451Y-110308029D01*
X134688722Y-110250000D01*
X134391278Y-110250000D01*
X134099549Y-110308029D01*
X133824747Y-110421856D01*
X133577431Y-110587107D01*
X133367107Y-110797431D01*
X133290000Y-110912830D01*
X133212893Y-110797431D01*
X133002569Y-110587107D01*
X132755253Y-110421856D01*
X132480451Y-110308029D01*
X132188722Y-110250000D01*
X131891278Y-110250000D01*
X131599549Y-110308029D01*
X131324747Y-110421856D01*
X131077431Y-110587107D01*
X131008974Y-110655564D01*
X131004502Y-110640820D01*
X130945537Y-110530506D01*
X130866185Y-110433815D01*
X130838614Y-110411188D01*
X131269802Y-109980000D01*
X132804678Y-109980000D01*
X132842000Y-109983676D01*
X132879322Y-109980000D01*
X132879333Y-109980000D01*
X132990986Y-109969003D01*
X133134247Y-109925546D01*
X133266276Y-109854974D01*
X133382001Y-109760001D01*
X133405804Y-109730997D01*
X136183802Y-106953000D01*
X136245939Y-106953000D01*
X136445898Y-106913226D01*
X136634256Y-106835205D01*
X136803774Y-106721937D01*
X136947937Y-106577774D01*
X137033000Y-106450468D01*
X137118063Y-106577774D01*
X137262226Y-106721937D01*
X137431744Y-106835205D01*
X137620102Y-106913226D01*
X137820061Y-106953000D01*
X138023939Y-106953000D01*
X138223898Y-106913226D01*
X138412256Y-106835205D01*
X138581774Y-106721937D01*
X138625711Y-106678000D01*
X141282289Y-106678000D01*
X141326226Y-106721937D01*
X141495744Y-106835205D01*
X141684102Y-106913226D01*
X141884061Y-106953000D01*
X142087939Y-106953000D01*
X142287898Y-106913226D01*
X142476256Y-106835205D01*
X142645774Y-106721937D01*
X142789937Y-106577774D01*
X142903205Y-106408256D01*
X142981226Y-106219898D01*
X143021000Y-106019939D01*
X143021000Y-105816061D01*
X142981226Y-105616102D01*
X142903205Y-105427744D01*
X142789937Y-105258226D01*
X142645774Y-105114063D01*
X142476256Y-105000795D01*
X142287898Y-104922774D01*
X142087939Y-104883000D01*
X141884061Y-104883000D01*
X141684102Y-104922774D01*
X141495744Y-105000795D01*
X141326226Y-105114063D01*
X141282289Y-105158000D01*
X138625711Y-105158000D01*
X138581774Y-105114063D01*
X138412256Y-105000795D01*
X138223898Y-104922774D01*
X138023939Y-104883000D01*
X137820061Y-104883000D01*
X137620102Y-104922774D01*
X137431744Y-105000795D01*
X137262226Y-105114063D01*
X137118063Y-105258226D01*
X137033000Y-105385532D01*
X136947937Y-105258226D01*
X136803774Y-105114063D01*
X136634256Y-105000795D01*
X136445898Y-104922774D01*
X136245939Y-104883000D01*
X136042061Y-104883000D01*
X135842102Y-104922774D01*
X135653744Y-105000795D01*
X135484226Y-105114063D01*
X135340063Y-105258226D01*
X135226795Y-105427744D01*
X135148774Y-105616102D01*
X135109000Y-105816061D01*
X135109000Y-105878198D01*
X132527199Y-108460000D01*
X130992322Y-108460000D01*
X130954999Y-108456324D01*
X130917676Y-108460000D01*
X130917667Y-108460000D01*
X130806014Y-108470997D01*
X130662753Y-108514454D01*
X130530724Y-108585026D01*
X130414999Y-108679999D01*
X130391201Y-108708997D01*
X129029003Y-110071196D01*
X128999999Y-110094999D01*
X128944871Y-110162174D01*
X128905026Y-110210724D01*
X128885674Y-110246928D01*
X128665000Y-110246928D01*
X128540518Y-110259188D01*
X128420820Y-110295498D01*
X128310506Y-110354463D01*
X128213815Y-110433815D01*
X128134463Y-110530506D01*
X128075498Y-110640820D01*
X128039188Y-110760518D01*
X128026928Y-110885000D01*
X128026928Y-112635000D01*
X128039188Y-112759482D01*
X128075498Y-112879180D01*
X128134463Y-112989494D01*
X128169347Y-113032000D01*
X122594267Y-113032000D01*
X122666635Y-112806240D01*
X121800000Y-111939605D01*
X120933365Y-112806240D01*
X121005733Y-113032000D01*
X120114245Y-113032000D01*
X120262569Y-112932893D01*
X120472893Y-112722569D01*
X120575232Y-112569407D01*
X120753760Y-112626635D01*
X121620395Y-111760000D01*
X121979605Y-111760000D01*
X122846240Y-112626635D01*
X123097868Y-112545975D01*
X123226267Y-112277671D01*
X123299855Y-111989474D01*
X123315804Y-111692457D01*
X123273501Y-111398037D01*
X123174572Y-111117526D01*
X123097868Y-110974025D01*
X122846240Y-110893365D01*
X121979605Y-111760000D01*
X121620395Y-111760000D01*
X120753760Y-110893365D01*
X120575232Y-110950593D01*
X120472893Y-110797431D01*
X120389222Y-110713760D01*
X120933365Y-110713760D01*
X121800000Y-111580395D01*
X122666635Y-110713760D01*
X122585975Y-110462132D01*
X122317671Y-110333733D01*
X122029474Y-110260145D01*
X121732457Y-110244196D01*
X121438037Y-110286499D01*
X121157526Y-110385428D01*
X121014025Y-110462132D01*
X120933365Y-110713760D01*
X120389222Y-110713760D01*
X120262569Y-110587107D01*
X120015253Y-110421856D01*
X119740451Y-110308029D01*
X119448722Y-110250000D01*
X119151278Y-110250000D01*
X118859549Y-110308029D01*
X118584747Y-110421856D01*
X118337431Y-110587107D01*
X118127107Y-110797431D01*
X118050000Y-110912830D01*
X117972893Y-110797431D01*
X117762569Y-110587107D01*
X117515253Y-110421856D01*
X117240451Y-110308029D01*
X116948722Y-110250000D01*
X116651278Y-110250000D01*
X116359549Y-110308029D01*
X116084747Y-110421856D01*
X115837431Y-110587107D01*
X115768974Y-110655564D01*
X115764502Y-110640820D01*
X115705537Y-110530506D01*
X115626185Y-110433815D01*
X115598614Y-110411188D01*
X116029802Y-109980000D01*
X117564678Y-109980000D01*
X117602000Y-109983676D01*
X117639322Y-109980000D01*
X117639333Y-109980000D01*
X117750986Y-109969003D01*
X117894247Y-109925546D01*
X118026276Y-109854974D01*
X118142001Y-109760001D01*
X118165804Y-109730997D01*
X120943802Y-106953000D01*
X121005939Y-106953000D01*
X121205898Y-106913226D01*
X121394256Y-106835205D01*
X121563774Y-106721937D01*
X121707937Y-106577774D01*
X121821205Y-106408256D01*
X121899226Y-106219898D01*
X121939000Y-106019939D01*
X121939000Y-105816061D01*
X121899226Y-105616102D01*
X121821205Y-105427744D01*
X121707937Y-105258226D01*
X121563774Y-105114063D01*
X121394256Y-105000795D01*
X121205898Y-104922774D01*
X121005939Y-104883000D01*
X120802061Y-104883000D01*
X120602102Y-104922774D01*
X120413744Y-105000795D01*
X120244226Y-105114063D01*
X120100063Y-105258226D01*
X119986795Y-105427744D01*
X119908774Y-105616102D01*
X119869000Y-105816061D01*
X119869000Y-105878198D01*
X117287199Y-108460000D01*
X115752322Y-108460000D01*
X115714999Y-108456324D01*
X115677676Y-108460000D01*
X115677667Y-108460000D01*
X115566014Y-108470997D01*
X115422753Y-108514454D01*
X115290724Y-108585026D01*
X115174999Y-108679999D01*
X115151201Y-108708997D01*
X113789003Y-110071196D01*
X113759999Y-110094999D01*
X113704871Y-110162174D01*
X113665026Y-110210724D01*
X113645674Y-110246928D01*
X113425000Y-110246928D01*
X113300518Y-110259188D01*
X113180820Y-110295498D01*
X113070506Y-110354463D01*
X112973815Y-110433815D01*
X112894463Y-110530506D01*
X112835498Y-110640820D01*
X112799188Y-110760518D01*
X112786928Y-110885000D01*
X112786928Y-112635000D01*
X112799188Y-112759482D01*
X112835498Y-112879180D01*
X112894463Y-112989494D01*
X112973815Y-113086185D01*
X113070506Y-113165537D01*
X113180820Y-113224502D01*
X113300518Y-113260812D01*
X113425000Y-113273072D01*
X115175000Y-113273072D01*
X115299482Y-113260812D01*
X115419180Y-113224502D01*
X115529494Y-113165537D01*
X115626185Y-113086185D01*
X115705537Y-112989494D01*
X115764502Y-112879180D01*
X115768974Y-112864436D01*
X115837431Y-112932893D01*
X116084747Y-113098144D01*
X116359549Y-113211971D01*
X116651278Y-113270000D01*
X116948722Y-113270000D01*
X117240451Y-113211971D01*
X117515253Y-113098144D01*
X117762569Y-112932893D01*
X117972893Y-112722569D01*
X118050000Y-112607170D01*
X118127107Y-112722569D01*
X118337431Y-112932893D01*
X118572808Y-113090166D01*
X118447723Y-113157026D01*
X118380773Y-113211971D01*
X118331999Y-113251999D01*
X118308201Y-113280997D01*
X117344998Y-114244201D01*
X117316000Y-114267999D01*
X117292202Y-114296997D01*
X117292201Y-114296998D01*
X117221026Y-114383724D01*
X117150454Y-114515754D01*
X117106998Y-114659015D01*
X117092324Y-114808000D01*
X117096001Y-114845332D01*
X117096000Y-116136289D01*
X117052063Y-116180226D01*
X116938795Y-116349744D01*
X116860774Y-116538102D01*
X116821000Y-116738061D01*
X116821000Y-116941939D01*
X116860774Y-117141898D01*
X116938795Y-117330256D01*
X117052063Y-117499774D01*
X117196226Y-117643937D01*
X117365744Y-117757205D01*
X117554102Y-117835226D01*
X117754061Y-117875000D01*
X117957939Y-117875000D01*
X118157898Y-117835226D01*
X118346256Y-117757205D01*
X118515774Y-117643937D01*
X118659937Y-117499774D01*
X118773205Y-117330256D01*
X118851226Y-117141898D01*
X118891000Y-116941939D01*
X118891000Y-116738061D01*
X118851226Y-116538102D01*
X118773205Y-116349744D01*
X118659937Y-116180226D01*
X118616000Y-116136289D01*
X118616000Y-115122801D01*
X119186802Y-114552000D01*
X120593199Y-114552000D01*
X120393002Y-114752196D01*
X120363999Y-114775999D01*
X120311474Y-114840001D01*
X120269026Y-114891724D01*
X120203104Y-115015055D01*
X120198454Y-115023754D01*
X120154997Y-115167015D01*
X120144000Y-115278668D01*
X120144000Y-115278678D01*
X120140324Y-115316000D01*
X120144000Y-115353323D01*
X120144001Y-120335197D01*
X119319199Y-121160000D01*
X115702335Y-121160000D01*
X115665002Y-121156323D01*
X115627669Y-121160000D01*
X115516016Y-121170997D01*
X115372755Y-121214454D01*
X115240726Y-121285026D01*
X115125001Y-121379999D01*
X115101203Y-121408997D01*
X113716004Y-122794197D01*
X113687000Y-122818000D01*
X113658871Y-122852276D01*
X113592027Y-122933725D01*
X113572675Y-122969929D01*
X113352001Y-122969929D01*
X113227519Y-122982189D01*
X113107821Y-123018499D01*
X112997507Y-123077464D01*
X112900816Y-123156816D01*
X112821464Y-123253507D01*
X112762499Y-123363821D01*
X112726189Y-123483519D01*
X112713929Y-123608001D01*
X103580000Y-123608001D01*
X103580000Y-91219872D01*
X104445000Y-91219872D01*
X104445000Y-91660128D01*
X104530890Y-92091925D01*
X104699369Y-92498669D01*
X104943962Y-92864729D01*
X105255271Y-93176038D01*
X105621331Y-93420631D01*
X106028075Y-93589110D01*
X106459872Y-93675000D01*
X106900128Y-93675000D01*
X107331925Y-93589110D01*
X107738669Y-93420631D01*
X108104729Y-93176038D01*
X108416038Y-92864729D01*
X108660631Y-92498669D01*
X108829110Y-92091925D01*
X108915000Y-91660128D01*
X108915000Y-91219872D01*
X108829110Y-90788075D01*
X108736710Y-90565000D01*
X178826928Y-90565000D01*
X178826928Y-92315000D01*
X178839188Y-92439482D01*
X178875498Y-92559180D01*
X178934463Y-92669494D01*
X179013815Y-92766185D01*
X179110506Y-92845537D01*
X179220820Y-92904502D01*
X179340518Y-92940812D01*
X179465000Y-92953072D01*
X181215000Y-92953072D01*
X181339482Y-92940812D01*
X181459180Y-92904502D01*
X181569494Y-92845537D01*
X181666185Y-92766185D01*
X181745537Y-92669494D01*
X181804502Y-92559180D01*
X181806772Y-92551698D01*
X181857341Y-92602267D01*
X181973366Y-92486242D01*
X182054025Y-92737868D01*
X182322329Y-92866267D01*
X182610526Y-92939855D01*
X182907543Y-92955804D01*
X183201963Y-92913501D01*
X183482474Y-92814572D01*
X183625975Y-92737868D01*
X183706635Y-92486240D01*
X182840000Y-91619605D01*
X182825858Y-91633748D01*
X182646253Y-91454143D01*
X182660395Y-91440000D01*
X183019605Y-91440000D01*
X183886240Y-92306635D01*
X184137868Y-92225975D01*
X184266267Y-91957671D01*
X184339855Y-91669474D01*
X184355804Y-91372457D01*
X184333881Y-91219872D01*
X189535000Y-91219872D01*
X189535000Y-91660128D01*
X189620890Y-92091925D01*
X189789369Y-92498669D01*
X190033962Y-92864729D01*
X190345271Y-93176038D01*
X190711331Y-93420631D01*
X191118075Y-93589110D01*
X191549872Y-93675000D01*
X191990128Y-93675000D01*
X192421925Y-93589110D01*
X192828669Y-93420631D01*
X193194729Y-93176038D01*
X193506038Y-92864729D01*
X193750631Y-92498669D01*
X193919110Y-92091925D01*
X194005000Y-91660128D01*
X194005000Y-91219872D01*
X193919110Y-90788075D01*
X193750631Y-90381331D01*
X193506038Y-90015271D01*
X193194729Y-89703962D01*
X192828669Y-89459369D01*
X192421925Y-89290890D01*
X191990128Y-89205000D01*
X191549872Y-89205000D01*
X191118075Y-89290890D01*
X190711331Y-89459369D01*
X190345271Y-89703962D01*
X190033962Y-90015271D01*
X189789369Y-90381331D01*
X189620890Y-90788075D01*
X189535000Y-91219872D01*
X184333881Y-91219872D01*
X184313501Y-91078037D01*
X184214572Y-90797526D01*
X184137868Y-90654025D01*
X183886240Y-90573365D01*
X183019605Y-91440000D01*
X182660395Y-91440000D01*
X182646253Y-91425858D01*
X182825858Y-91246253D01*
X182840000Y-91260395D01*
X183706635Y-90393760D01*
X183625975Y-90142132D01*
X183357671Y-90013733D01*
X183069474Y-89940145D01*
X182772457Y-89924196D01*
X182478037Y-89966499D01*
X182197526Y-90065428D01*
X182054025Y-90142132D01*
X181973366Y-90393758D01*
X181857341Y-90277733D01*
X181806772Y-90328302D01*
X181804502Y-90320820D01*
X181745537Y-90210506D01*
X181666185Y-90113815D01*
X181569494Y-90034463D01*
X181459180Y-89975498D01*
X181339482Y-89939188D01*
X181215000Y-89926928D01*
X179465000Y-89926928D01*
X179340518Y-89939188D01*
X179220820Y-89975498D01*
X179110506Y-90034463D01*
X179013815Y-90113815D01*
X178934463Y-90210506D01*
X178875498Y-90320820D01*
X178839188Y-90440518D01*
X178826928Y-90565000D01*
X108736710Y-90565000D01*
X108660631Y-90381331D01*
X108416038Y-90015271D01*
X108104729Y-89703962D01*
X107738669Y-89459369D01*
X107331925Y-89290890D01*
X106900128Y-89205000D01*
X106459872Y-89205000D01*
X106028075Y-89290890D01*
X105621331Y-89459369D01*
X105255271Y-89703962D01*
X104943962Y-90015271D01*
X104699369Y-90381331D01*
X104530890Y-90788075D01*
X104445000Y-91219872D01*
X103580000Y-91219872D01*
X103580000Y-88340000D01*
X194870000Y-88340000D01*
X194870001Y-141530000D01*
X194870001Y-141530000D01*
G37*
X194870001Y-141530000D02*
X103580000Y-141530000D01*
X103580000Y-138209872D01*
X104445000Y-138209872D01*
X104445000Y-138650128D01*
X104530890Y-139081925D01*
X104699369Y-139488669D01*
X104943962Y-139854729D01*
X105255271Y-140166038D01*
X105621331Y-140410631D01*
X106028075Y-140579110D01*
X106459872Y-140665000D01*
X106900128Y-140665000D01*
X107331925Y-140579110D01*
X107738669Y-140410631D01*
X108104729Y-140166038D01*
X108416038Y-139854729D01*
X108660631Y-139488669D01*
X108829110Y-139081925D01*
X108915000Y-138650128D01*
X108915000Y-138209872D01*
X108829110Y-137778075D01*
X108660631Y-137371331D01*
X108416038Y-137005271D01*
X108104729Y-136693962D01*
X107738669Y-136449369D01*
X107331925Y-136280890D01*
X106900128Y-136195000D01*
X106459872Y-136195000D01*
X106028075Y-136280890D01*
X105621331Y-136449369D01*
X105255271Y-136693962D01*
X104943962Y-137005271D01*
X104699369Y-137371331D01*
X104530890Y-137778075D01*
X104445000Y-138209872D01*
X103580000Y-138209872D01*
X103580000Y-123608001D01*
X112713929Y-123608001D01*
X112713929Y-125358001D01*
X112726189Y-125482483D01*
X112762499Y-125602181D01*
X112821464Y-125712495D01*
X112900816Y-125809186D01*
X112997507Y-125888538D01*
X113107821Y-125947503D01*
X113227519Y-125983813D01*
X113352001Y-125996073D01*
X115102001Y-125996073D01*
X115226483Y-125983813D01*
X115346181Y-125947503D01*
X115456495Y-125888538D01*
X115553186Y-125809186D01*
X115632538Y-125712495D01*
X115691503Y-125602181D01*
X115695975Y-125587437D01*
X115764432Y-125655894D01*
X116011748Y-125821145D01*
X116286550Y-125934972D01*
X116578279Y-125993001D01*
X116875723Y-125993001D01*
X117167452Y-125934972D01*
X117442254Y-125821145D01*
X117689570Y-125655894D01*
X117899894Y-125445570D01*
X117977001Y-125330171D01*
X118054108Y-125445570D01*
X118264432Y-125655894D01*
X118511748Y-125821145D01*
X118786550Y-125934972D01*
X119078279Y-125993001D01*
X119375723Y-125993001D01*
X119667452Y-125934972D01*
X119942254Y-125821145D01*
X120189570Y-125655894D01*
X120316223Y-125529241D01*
X120860366Y-125529241D01*
X120941026Y-125780869D01*
X121209330Y-125909268D01*
X121497527Y-125982856D01*
X121794544Y-125998805D01*
X122088964Y-125956502D01*
X122369475Y-125857573D01*
X122512976Y-125780869D01*
X122593636Y-125529241D01*
X121727001Y-124662606D01*
X120860366Y-125529241D01*
X120316223Y-125529241D01*
X120399894Y-125445570D01*
X120502233Y-125292408D01*
X120680761Y-125349636D01*
X121547396Y-124483001D01*
X120680761Y-123616366D01*
X120502233Y-123673594D01*
X120399894Y-123520432D01*
X120316223Y-123436761D01*
X120860366Y-123436761D01*
X121727001Y-124303396D01*
X122593636Y-123436761D01*
X122512976Y-123185133D01*
X122244672Y-123056734D01*
X121956475Y-122983146D01*
X121659458Y-122967197D01*
X121365038Y-123009500D01*
X121084527Y-123108429D01*
X120941026Y-123185133D01*
X120860366Y-123436761D01*
X120316223Y-123436761D01*
X120189570Y-123310108D01*
X119942254Y-123144857D01*
X119667452Y-123031030D01*
X119375723Y-122973001D01*
X119078279Y-122973001D01*
X118786550Y-123031030D01*
X118511748Y-123144857D01*
X118264432Y-123310108D01*
X118054108Y-123520432D01*
X117977001Y-123635831D01*
X117899894Y-123520432D01*
X117689570Y-123310108D01*
X117442254Y-123144857D01*
X117167452Y-123031030D01*
X116875723Y-122973001D01*
X116578279Y-122973001D01*
X116286550Y-123031030D01*
X116011748Y-123144857D01*
X115764432Y-123310108D01*
X115695975Y-123378565D01*
X115691503Y-123363821D01*
X115632538Y-123253507D01*
X115553186Y-123156816D01*
X115525615Y-123134189D01*
X115979804Y-122680000D01*
X119596678Y-122680000D01*
X119634000Y-122683676D01*
X119671322Y-122680000D01*
X119671333Y-122680000D01*
X119782986Y-122669003D01*
X119926247Y-122625546D01*
X120058276Y-122554974D01*
X120174001Y-122460001D01*
X120197804Y-122430997D01*
X121415003Y-121213799D01*
X121444001Y-121190001D01*
X121538974Y-121074276D01*
X121609546Y-120942247D01*
X121653003Y-120798986D01*
X121664000Y-120687333D01*
X121664000Y-120687324D01*
X121667676Y-120650001D01*
X121664000Y-120612678D01*
X121664000Y-115630801D01*
X122234802Y-115060000D01*
X123387378Y-115060000D01*
X123359474Y-115094001D01*
X123317026Y-115145724D01*
X123255836Y-115260201D01*
X123246454Y-115277754D01*
X123202997Y-115421015D01*
X123192000Y-115532668D01*
X123192000Y-115532678D01*
X123188324Y-115570000D01*
X123192000Y-115607322D01*
X123192001Y-124096933D01*
X123101573Y-123840527D01*
X123024869Y-123697026D01*
X122773241Y-123616366D01*
X121906606Y-124483001D01*
X122773241Y-125349636D01*
X123024869Y-125268976D01*
X123153268Y-125000672D01*
X123192001Y-124848980D01*
X123192001Y-126939197D01*
X122005198Y-128126001D01*
X118293321Y-128126001D01*
X118255998Y-128122325D01*
X118218676Y-128126001D01*
X118218666Y-128126001D01*
X118107013Y-128136998D01*
X117963752Y-128180455D01*
X117831774Y-128251000D01*
X117754061Y-128251000D01*
X117554102Y-128290774D01*
X117365744Y-128368795D01*
X117196226Y-128482063D01*
X117052063Y-128626226D01*
X116938795Y-128795744D01*
X116860774Y-128984102D01*
X116821000Y-129184061D01*
X116821000Y-129387939D01*
X116860774Y-129587898D01*
X116938795Y-129776256D01*
X117052063Y-129945774D01*
X117196226Y-130089937D01*
X117365744Y-130203205D01*
X117554102Y-130281226D01*
X117754061Y-130321000D01*
X117957939Y-130321000D01*
X118157898Y-130281226D01*
X118346256Y-130203205D01*
X118515774Y-130089937D01*
X118659937Y-129945774D01*
X118773205Y-129776256D01*
X118827159Y-129646001D01*
X122282677Y-129646001D01*
X122319999Y-129649677D01*
X122357321Y-129646001D01*
X122357332Y-129646001D01*
X122468985Y-129635004D01*
X122612246Y-129591547D01*
X122744275Y-129520975D01*
X122860000Y-129426002D01*
X122883803Y-129396998D01*
X123446001Y-128834801D01*
X123446000Y-133289198D01*
X122621199Y-134114000D01*
X115498323Y-134114000D01*
X115461000Y-134110324D01*
X115423677Y-134114000D01*
X115423667Y-134114000D01*
X115312014Y-134124997D01*
X115168753Y-134168454D01*
X115036723Y-134239026D01*
X114984022Y-134282277D01*
X114920999Y-134333999D01*
X114897201Y-134362997D01*
X113788998Y-135471201D01*
X113760000Y-135494999D01*
X113736202Y-135523997D01*
X113736201Y-135523998D01*
X113665026Y-135610724D01*
X113645674Y-135646928D01*
X113425000Y-135646928D01*
X113300518Y-135659188D01*
X113180820Y-135695498D01*
X113070506Y-135754463D01*
X112973815Y-135833815D01*
X112894463Y-135930506D01*
X112835498Y-136040820D01*
X112799188Y-136160518D01*
X112786928Y-136285000D01*
X112786928Y-138035000D01*
X112799188Y-138159482D01*
X112835498Y-138279180D01*
X112894463Y-138389494D01*
X112973815Y-138486185D01*
X113070506Y-138565537D01*
X113180820Y-138624502D01*
X113300518Y-138660812D01*
X113425000Y-138673072D01*
X115175000Y-138673072D01*
X115299482Y-138660812D01*
X115419180Y-138624502D01*
X115529494Y-138565537D01*
X115626185Y-138486185D01*
X115705537Y-138389494D01*
X115764502Y-138279180D01*
X115768974Y-138264436D01*
X115837431Y-138332893D01*
X116084747Y-138498144D01*
X116359549Y-138611971D01*
X116651278Y-138670000D01*
X116948722Y-138670000D01*
X117240451Y-138611971D01*
X117515253Y-138498144D01*
X117762569Y-138332893D01*
X117972893Y-138122569D01*
X118050000Y-138007170D01*
X118127107Y-138122569D01*
X118337431Y-138332893D01*
X118584747Y-138498144D01*
X118859549Y-138611971D01*
X119151278Y-138670000D01*
X119448722Y-138670000D01*
X119740451Y-138611971D01*
X120015253Y-138498144D01*
X120262569Y-138332893D01*
X120389222Y-138206240D01*
X120933365Y-138206240D01*
X121014025Y-138457868D01*
X121282329Y-138586267D01*
X121570526Y-138659855D01*
X121867543Y-138675804D01*
X122161963Y-138633501D01*
X122442474Y-138534572D01*
X122585975Y-138457868D01*
X122666635Y-138206240D01*
X121800000Y-137339605D01*
X120933365Y-138206240D01*
X120389222Y-138206240D01*
X120472893Y-138122569D01*
X120575232Y-137969407D01*
X120753760Y-138026635D01*
X121620395Y-137160000D01*
X121979605Y-137160000D01*
X122846240Y-138026635D01*
X123097868Y-137945975D01*
X123226267Y-137677671D01*
X123299855Y-137389474D01*
X123315804Y-137092457D01*
X123273501Y-136798037D01*
X123174572Y-136517526D01*
X123097868Y-136374025D01*
X122846240Y-136293365D01*
X121979605Y-137160000D01*
X121620395Y-137160000D01*
X120753760Y-136293365D01*
X120575232Y-136350593D01*
X120472893Y-136197431D01*
X120389222Y-136113760D01*
X120933365Y-136113760D01*
X121800000Y-136980395D01*
X122666635Y-136113760D01*
X122585975Y-135862132D01*
X122317671Y-135733733D01*
X122029474Y-135660145D01*
X121732457Y-135644196D01*
X121438037Y-135686499D01*
X121157526Y-135785428D01*
X121014025Y-135862132D01*
X120933365Y-136113760D01*
X120389222Y-136113760D01*
X120262569Y-135987107D01*
X120015253Y-135821856D01*
X119740451Y-135708029D01*
X119448722Y-135650000D01*
X119151278Y-135650000D01*
X118859549Y-135708029D01*
X118584747Y-135821856D01*
X118337431Y-135987107D01*
X118127107Y-136197431D01*
X118050000Y-136312830D01*
X117972893Y-136197431D01*
X117762569Y-135987107D01*
X117515253Y-135821856D01*
X117240451Y-135708029D01*
X116948722Y-135650000D01*
X116651278Y-135650000D01*
X116359549Y-135708029D01*
X116084747Y-135821856D01*
X115837431Y-135987107D01*
X115768974Y-136055564D01*
X115764502Y-136040820D01*
X115705537Y-135930506D01*
X115626185Y-135833815D01*
X115598614Y-135811188D01*
X115775802Y-135634000D01*
X122898678Y-135634000D01*
X122936000Y-135637676D01*
X122973322Y-135634000D01*
X122973333Y-135634000D01*
X123084986Y-135623003D01*
X123228247Y-135579546D01*
X123360276Y-135508974D01*
X123476001Y-135414001D01*
X123499804Y-135384997D01*
X124717004Y-134167798D01*
X124746001Y-134144001D01*
X124840974Y-134028276D01*
X124911546Y-133896247D01*
X124955003Y-133752986D01*
X124966000Y-133641333D01*
X124966000Y-133641324D01*
X124969676Y-133604001D01*
X124966000Y-133566678D01*
X124966000Y-127951211D01*
X124970998Y-127946213D01*
X125000001Y-127922411D01*
X125094974Y-127806686D01*
X125165546Y-127674657D01*
X125209003Y-127531396D01*
X125220000Y-127419743D01*
X125220000Y-127419734D01*
X125223676Y-127382411D01*
X125220000Y-127345088D01*
X125220000Y-116013211D01*
X125273191Y-115960020D01*
X132343943Y-115960019D01*
X132336000Y-116040667D01*
X132336000Y-116040678D01*
X132332324Y-116078000D01*
X132336000Y-116115322D01*
X132336000Y-116136289D01*
X132292063Y-116180226D01*
X132178795Y-116349744D01*
X132100774Y-116538102D01*
X132061000Y-116738061D01*
X132061000Y-116941939D01*
X132100774Y-117141898D01*
X132178795Y-117330256D01*
X132292063Y-117499774D01*
X132436226Y-117643937D01*
X132605744Y-117757205D01*
X132794102Y-117835226D01*
X132994061Y-117875000D01*
X133197939Y-117875000D01*
X133397898Y-117835226D01*
X133586256Y-117757205D01*
X133755774Y-117643937D01*
X133899937Y-117499774D01*
X134013205Y-117330256D01*
X134091226Y-117141898D01*
X134131000Y-116941939D01*
X134131000Y-116738061D01*
X134091226Y-116538102D01*
X134038176Y-116410029D01*
X137162001Y-116410029D01*
X137162000Y-120589198D01*
X136337199Y-121414000D01*
X130738323Y-121414000D01*
X130701000Y-121410324D01*
X130663677Y-121414000D01*
X130663667Y-121414000D01*
X130552014Y-121424997D01*
X130408753Y-121468454D01*
X130276723Y-121539026D01*
X130224022Y-121582277D01*
X130160999Y-121633999D01*
X130137201Y-121662997D01*
X129028998Y-122771201D01*
X129000000Y-122794999D01*
X128976202Y-122823997D01*
X128976201Y-122823998D01*
X128905026Y-122910724D01*
X128885674Y-122946928D01*
X128665000Y-122946928D01*
X128540518Y-122959188D01*
X128420820Y-122995498D01*
X128310506Y-123054463D01*
X128213815Y-123133815D01*
X128134463Y-123230506D01*
X128075498Y-123340820D01*
X128039188Y-123460518D01*
X128026928Y-123585000D01*
X128026928Y-125335000D01*
X128039188Y-125459482D01*
X128075498Y-125579180D01*
X128134463Y-125689494D01*
X128213815Y-125786185D01*
X128310506Y-125865537D01*
X128420820Y-125924502D01*
X128540518Y-125960812D01*
X128665000Y-125973072D01*
X130415000Y-125973072D01*
X130539482Y-125960812D01*
X130659180Y-125924502D01*
X130769494Y-125865537D01*
X130866185Y-125786185D01*
X130945537Y-125689494D01*
X131004502Y-125579180D01*
X131008974Y-125564436D01*
X131077431Y-125632893D01*
X131324747Y-125798144D01*
X131599549Y-125911971D01*
X131891278Y-125970000D01*
X132188722Y-125970000D01*
X132480451Y-125911971D01*
X132755253Y-125798144D01*
X133002569Y-125632893D01*
X133212893Y-125422569D01*
X133290000Y-125307170D01*
X133367107Y-125422569D01*
X133577431Y-125632893D01*
X133824747Y-125798144D01*
X134099549Y-125911971D01*
X134391278Y-125970000D01*
X134688722Y-125970000D01*
X134980451Y-125911971D01*
X135255253Y-125798144D01*
X135502569Y-125632893D01*
X135629222Y-125506240D01*
X136173365Y-125506240D01*
X136254025Y-125757868D01*
X136522329Y-125886267D01*
X136810526Y-125959855D01*
X137107543Y-125975804D01*
X137401963Y-125933501D01*
X137682474Y-125834572D01*
X137825975Y-125757868D01*
X137906635Y-125506240D01*
X137040000Y-124639605D01*
X136173365Y-125506240D01*
X135629222Y-125506240D01*
X135712893Y-125422569D01*
X135815232Y-125269407D01*
X135993760Y-125326635D01*
X136860395Y-124460000D01*
X137219605Y-124460000D01*
X138086240Y-125326635D01*
X138337868Y-125245975D01*
X138466267Y-124977671D01*
X138539855Y-124689474D01*
X138555804Y-124392457D01*
X138513501Y-124098037D01*
X138414572Y-123817526D01*
X138337868Y-123674025D01*
X138086240Y-123593365D01*
X137219605Y-124460000D01*
X136860395Y-124460000D01*
X135993760Y-123593365D01*
X135815232Y-123650593D01*
X135712893Y-123497431D01*
X135629222Y-123413760D01*
X136173365Y-123413760D01*
X137040000Y-124280395D01*
X137906635Y-123413760D01*
X137825975Y-123162132D01*
X137557671Y-123033733D01*
X137269474Y-122960145D01*
X136972457Y-122944196D01*
X136678037Y-122986499D01*
X136397526Y-123085428D01*
X136254025Y-123162132D01*
X136173365Y-123413760D01*
X135629222Y-123413760D01*
X135502569Y-123287107D01*
X135255253Y-123121856D01*
X134980451Y-123008029D01*
X134688722Y-122950000D01*
X134391278Y-122950000D01*
X134099549Y-123008029D01*
X133824747Y-123121856D01*
X133577431Y-123287107D01*
X133367107Y-123497431D01*
X133290000Y-123612830D01*
X133212893Y-123497431D01*
X133002569Y-123287107D01*
X132755253Y-123121856D01*
X132480451Y-123008029D01*
X132188722Y-122950000D01*
X131891278Y-122950000D01*
X131599549Y-123008029D01*
X131324747Y-123121856D01*
X131077431Y-123287107D01*
X131008974Y-123355564D01*
X131004502Y-123340820D01*
X130945537Y-123230506D01*
X130866185Y-123133815D01*
X130838614Y-123111188D01*
X131015802Y-122934000D01*
X136614678Y-122934000D01*
X136652000Y-122937676D01*
X136689322Y-122934000D01*
X136689333Y-122934000D01*
X136800986Y-122923003D01*
X136944247Y-122879546D01*
X137076276Y-122808974D01*
X137192001Y-122714001D01*
X137215804Y-122684997D01*
X138433004Y-121467798D01*
X138462001Y-121444001D01*
X138556974Y-121328276D01*
X138627546Y-121196247D01*
X138671003Y-121052986D01*
X138682000Y-120941333D01*
X138682000Y-120941324D01*
X138685676Y-120904001D01*
X138682000Y-120866678D01*
X138682000Y-116860038D01*
X139515040Y-116860037D01*
X139552372Y-116863714D01*
X139589705Y-116860037D01*
X139701358Y-116849040D01*
X139702001Y-116848845D01*
X139702000Y-127447198D01*
X138369199Y-128780000D01*
X133799711Y-128780000D01*
X133755774Y-128736063D01*
X133586256Y-128622795D01*
X133397898Y-128544774D01*
X133197939Y-128505000D01*
X132994061Y-128505000D01*
X132794102Y-128544774D01*
X132605744Y-128622795D01*
X132436226Y-128736063D01*
X132292063Y-128880226D01*
X132178795Y-129049744D01*
X132100774Y-129238102D01*
X132061000Y-129438061D01*
X132061000Y-129641939D01*
X132100774Y-129841898D01*
X132178795Y-130030256D01*
X132292063Y-130199774D01*
X132436226Y-130343937D01*
X132605744Y-130457205D01*
X132794102Y-130535226D01*
X132994061Y-130575000D01*
X133197939Y-130575000D01*
X133397898Y-130535226D01*
X133586256Y-130457205D01*
X133755774Y-130343937D01*
X133799711Y-130300000D01*
X138646678Y-130300000D01*
X138684000Y-130303676D01*
X138721322Y-130300000D01*
X138721333Y-130300000D01*
X138832986Y-130289003D01*
X138976247Y-130245546D01*
X139108276Y-130174974D01*
X139224001Y-130080001D01*
X139247804Y-130050997D01*
X140210000Y-129088801D01*
X140210000Y-132527198D01*
X138623199Y-134114000D01*
X130738323Y-134114000D01*
X130701000Y-134110324D01*
X130663677Y-134114000D01*
X130663667Y-134114000D01*
X130552014Y-134124997D01*
X130408753Y-134168454D01*
X130276723Y-134239026D01*
X130224022Y-134282277D01*
X130160999Y-134333999D01*
X130137201Y-134362997D01*
X129028998Y-135471201D01*
X129000000Y-135494999D01*
X128976202Y-135523997D01*
X128976201Y-135523998D01*
X128905026Y-135610724D01*
X128885674Y-135646928D01*
X128665000Y-135646928D01*
X128540518Y-135659188D01*
X128420820Y-135695498D01*
X128310506Y-135754463D01*
X128213815Y-135833815D01*
X128134463Y-135930506D01*
X128075498Y-136040820D01*
X128039188Y-136160518D01*
X128026928Y-136285000D01*
X128026928Y-138035000D01*
X128039188Y-138159482D01*
X128075498Y-138279180D01*
X128134463Y-138389494D01*
X128213815Y-138486185D01*
X128310506Y-138565537D01*
X128420820Y-138624502D01*
X128540518Y-138660812D01*
X128665000Y-138673072D01*
X130415000Y-138673072D01*
X130539482Y-138660812D01*
X130659180Y-138624502D01*
X130769494Y-138565537D01*
X130866185Y-138486185D01*
X130945537Y-138389494D01*
X131004502Y-138279180D01*
X131008974Y-138264436D01*
X131077431Y-138332893D01*
X131324747Y-138498144D01*
X131599549Y-138611971D01*
X131891278Y-138670000D01*
X132188722Y-138670000D01*
X132480451Y-138611971D01*
X132755253Y-138498144D01*
X133002569Y-138332893D01*
X133212893Y-138122569D01*
X133290000Y-138007170D01*
X133367107Y-138122569D01*
X133577431Y-138332893D01*
X133824747Y-138498144D01*
X134099549Y-138611971D01*
X134391278Y-138670000D01*
X134688722Y-138670000D01*
X134980451Y-138611971D01*
X135255253Y-138498144D01*
X135502569Y-138332893D01*
X135629222Y-138206240D01*
X136173365Y-138206240D01*
X136254025Y-138457868D01*
X136522329Y-138586267D01*
X136810526Y-138659855D01*
X137107543Y-138675804D01*
X137401963Y-138633501D01*
X137682474Y-138534572D01*
X137825975Y-138457868D01*
X137906635Y-138206240D01*
X137040000Y-137339605D01*
X136173365Y-138206240D01*
X135629222Y-138206240D01*
X135712893Y-138122569D01*
X135815232Y-137969407D01*
X135993760Y-138026635D01*
X136860395Y-137160000D01*
X137219605Y-137160000D01*
X138086240Y-138026635D01*
X138337868Y-137945975D01*
X138466267Y-137677671D01*
X138539855Y-137389474D01*
X138555804Y-137092457D01*
X138513501Y-136798037D01*
X138414572Y-136517526D01*
X138337868Y-136374025D01*
X138086240Y-136293365D01*
X137219605Y-137160000D01*
X136860395Y-137160000D01*
X135993760Y-136293365D01*
X135815232Y-136350593D01*
X135712893Y-136197431D01*
X135629222Y-136113760D01*
X136173365Y-136113760D01*
X137040000Y-136980395D01*
X137906635Y-136113760D01*
X137825975Y-135862132D01*
X137557671Y-135733733D01*
X137269474Y-135660145D01*
X136972457Y-135644196D01*
X136678037Y-135686499D01*
X136397526Y-135785428D01*
X136254025Y-135862132D01*
X136173365Y-136113760D01*
X135629222Y-136113760D01*
X135502569Y-135987107D01*
X135255253Y-135821856D01*
X134980451Y-135708029D01*
X134688722Y-135650000D01*
X134391278Y-135650000D01*
X134099549Y-135708029D01*
X133824747Y-135821856D01*
X133577431Y-135987107D01*
X133367107Y-136197431D01*
X133290000Y-136312830D01*
X133212893Y-136197431D01*
X133002569Y-135987107D01*
X132755253Y-135821856D01*
X132480451Y-135708029D01*
X132188722Y-135650000D01*
X131891278Y-135650000D01*
X131599549Y-135708029D01*
X131324747Y-135821856D01*
X131077431Y-135987107D01*
X131008974Y-136055564D01*
X131004502Y-136040820D01*
X130945537Y-135930506D01*
X130866185Y-135833815D01*
X130838614Y-135811188D01*
X131015802Y-135634000D01*
X138900678Y-135634000D01*
X138938000Y-135637676D01*
X138975322Y-135634000D01*
X138975333Y-135634000D01*
X139086986Y-135623003D01*
X139230247Y-135579546D01*
X139362276Y-135508974D01*
X139478001Y-135414001D01*
X139501804Y-135384997D01*
X141481004Y-133405798D01*
X141510001Y-133382001D01*
X141562526Y-133317999D01*
X141604974Y-133266277D01*
X141675546Y-133134247D01*
X141698749Y-133057754D01*
X141719003Y-132990986D01*
X141730000Y-132879333D01*
X141730000Y-132879323D01*
X141733676Y-132842000D01*
X141730000Y-132804677D01*
X141730000Y-116270031D01*
X147322000Y-110678032D01*
X147322001Y-115628288D01*
X147278063Y-115672226D01*
X147164795Y-115841744D01*
X147086774Y-116030102D01*
X147047000Y-116230061D01*
X147047000Y-116433939D01*
X147086774Y-116633898D01*
X147164795Y-116822256D01*
X147278063Y-116991774D01*
X147422226Y-117135937D01*
X147591744Y-117249205D01*
X147780102Y-117327226D01*
X147980061Y-117367000D01*
X148183939Y-117367000D01*
X148383898Y-117327226D01*
X148572256Y-117249205D01*
X148741774Y-117135937D01*
X148885937Y-116991774D01*
X148999205Y-116822256D01*
X149077226Y-116633898D01*
X149117000Y-116433939D01*
X149117000Y-116230061D01*
X149077226Y-116030102D01*
X148999205Y-115841744D01*
X148885937Y-115672226D01*
X148842000Y-115628289D01*
X148842000Y-109794441D01*
X150823798Y-107812644D01*
X150823803Y-107812638D01*
X151985930Y-106650511D01*
X151990795Y-106662256D01*
X152104063Y-106831774D01*
X152248226Y-106975937D01*
X152417744Y-107089205D01*
X152606102Y-107167226D01*
X152806061Y-107207000D01*
X152868199Y-107207000D01*
X155450001Y-109788803D01*
X155450000Y-111752405D01*
X155380986Y-111789294D01*
X155154866Y-111974866D01*
X154969294Y-112200986D01*
X154940000Y-112255791D01*
X154910706Y-112200986D01*
X154725134Y-111974866D01*
X154499014Y-111789294D01*
X154241034Y-111651401D01*
X153961111Y-111566487D01*
X153742950Y-111545000D01*
X153597050Y-111545000D01*
X153378889Y-111566487D01*
X153098966Y-111651401D01*
X152840986Y-111789294D01*
X152614866Y-111974866D01*
X152429294Y-112200986D01*
X152400000Y-112255791D01*
X152370706Y-112200986D01*
X152185134Y-111974866D01*
X151959014Y-111789294D01*
X151701034Y-111651401D01*
X151421111Y-111566487D01*
X151202950Y-111545000D01*
X151057050Y-111545000D01*
X150838889Y-111566487D01*
X150558966Y-111651401D01*
X150300986Y-111789294D01*
X150074866Y-111974866D01*
X149889294Y-112200986D01*
X149751401Y-112458966D01*
X149666487Y-112738889D01*
X149637815Y-113030000D01*
X149666487Y-113321111D01*
X149751401Y-113601034D01*
X149889294Y-113859014D01*
X150074866Y-114085134D01*
X150300986Y-114270706D01*
X150370000Y-114307595D01*
X150370000Y-115278677D01*
X150366324Y-115316000D01*
X150370000Y-115353322D01*
X150370000Y-115353332D01*
X150380997Y-115464985D01*
X150416795Y-115582997D01*
X150424454Y-115608246D01*
X150495026Y-115740276D01*
X150525146Y-115776977D01*
X150589999Y-115856001D01*
X150619003Y-115879804D01*
X151888997Y-117149799D01*
X151889003Y-117149804D01*
X155134637Y-120395439D01*
X155041939Y-120377000D01*
X154838061Y-120377000D01*
X154638102Y-120416774D01*
X154449744Y-120494795D01*
X154280226Y-120608063D01*
X154136063Y-120752226D01*
X154022795Y-120921744D01*
X153944774Y-121110102D01*
X153905000Y-121310061D01*
X153905000Y-121372198D01*
X153609199Y-121668000D01*
X145724325Y-121668000D01*
X145687000Y-121664324D01*
X145649675Y-121668000D01*
X145649667Y-121668000D01*
X145538014Y-121678997D01*
X145394753Y-121722454D01*
X145262724Y-121793026D01*
X145146999Y-121887999D01*
X145123201Y-121916997D01*
X144268998Y-122771201D01*
X144240000Y-122794999D01*
X144216202Y-122823997D01*
X144216201Y-122823998D01*
X144145026Y-122910724D01*
X144125674Y-122946928D01*
X143905000Y-122946928D01*
X143780518Y-122959188D01*
X143660820Y-122995498D01*
X143550506Y-123054463D01*
X143453815Y-123133815D01*
X143374463Y-123230506D01*
X143315498Y-123340820D01*
X143279188Y-123460518D01*
X143266928Y-123585000D01*
X143266928Y-125335000D01*
X143279188Y-125459482D01*
X143315498Y-125579180D01*
X143374463Y-125689494D01*
X143453815Y-125786185D01*
X143550506Y-125865537D01*
X143660820Y-125924502D01*
X143780518Y-125960812D01*
X143905000Y-125973072D01*
X145655000Y-125973072D01*
X145779482Y-125960812D01*
X145899180Y-125924502D01*
X146009494Y-125865537D01*
X146106185Y-125786185D01*
X146185537Y-125689494D01*
X146244502Y-125579180D01*
X146248974Y-125564436D01*
X146317431Y-125632893D01*
X146564747Y-125798144D01*
X146839549Y-125911971D01*
X147131278Y-125970000D01*
X147428722Y-125970000D01*
X147720451Y-125911971D01*
X147995253Y-125798144D01*
X148242569Y-125632893D01*
X148452893Y-125422569D01*
X148530000Y-125307170D01*
X148607107Y-125422569D01*
X148817431Y-125632893D01*
X149064747Y-125798144D01*
X149339549Y-125911971D01*
X149631278Y-125970000D01*
X149928722Y-125970000D01*
X150220451Y-125911971D01*
X150495253Y-125798144D01*
X150742569Y-125632893D01*
X150869222Y-125506240D01*
X151413365Y-125506240D01*
X151494025Y-125757868D01*
X151762329Y-125886267D01*
X152050526Y-125959855D01*
X152347543Y-125975804D01*
X152641963Y-125933501D01*
X152922474Y-125834572D01*
X153065975Y-125757868D01*
X153146635Y-125506240D01*
X152280000Y-124639605D01*
X151413365Y-125506240D01*
X150869222Y-125506240D01*
X150952893Y-125422569D01*
X151055232Y-125269407D01*
X151233760Y-125326635D01*
X152100395Y-124460000D01*
X152459605Y-124460000D01*
X153326240Y-125326635D01*
X153577868Y-125245975D01*
X153706267Y-124977671D01*
X153779855Y-124689474D01*
X153795804Y-124392457D01*
X153753501Y-124098037D01*
X153654572Y-123817526D01*
X153577868Y-123674025D01*
X153326240Y-123593365D01*
X152459605Y-124460000D01*
X152100395Y-124460000D01*
X151233760Y-123593365D01*
X151055232Y-123650593D01*
X150952893Y-123497431D01*
X150742569Y-123287107D01*
X150594245Y-123188000D01*
X151485733Y-123188000D01*
X151413365Y-123413760D01*
X152280000Y-124280395D01*
X153146635Y-123413760D01*
X153074267Y-123188000D01*
X153886678Y-123188000D01*
X153924000Y-123191676D01*
X153961322Y-123188000D01*
X153961333Y-123188000D01*
X154072986Y-123177003D01*
X154216247Y-123133546D01*
X154348276Y-123062974D01*
X154464001Y-122968001D01*
X154487804Y-122938998D01*
X154979802Y-122447000D01*
X155041939Y-122447000D01*
X155241898Y-122407226D01*
X155430256Y-122329205D01*
X155599774Y-122215937D01*
X155704001Y-122111710D01*
X155704000Y-127701197D01*
X154625199Y-128780000D01*
X149039711Y-128780000D01*
X148995774Y-128736063D01*
X148826256Y-128622795D01*
X148637898Y-128544774D01*
X148437939Y-128505000D01*
X148234061Y-128505000D01*
X148034102Y-128544774D01*
X147845744Y-128622795D01*
X147676226Y-128736063D01*
X147532063Y-128880226D01*
X147418795Y-129049744D01*
X147340774Y-129238102D01*
X147301000Y-129438061D01*
X147301000Y-129641939D01*
X147340774Y-129841898D01*
X147418795Y-130030256D01*
X147532063Y-130199774D01*
X147676226Y-130343937D01*
X147845744Y-130457205D01*
X148034102Y-130535226D01*
X148234061Y-130575000D01*
X148437939Y-130575000D01*
X148637898Y-130535226D01*
X148826256Y-130457205D01*
X148995774Y-130343937D01*
X149039711Y-130300000D01*
X154902678Y-130300000D01*
X154940000Y-130303676D01*
X154977322Y-130300000D01*
X154977333Y-130300000D01*
X155088986Y-130289003D01*
X155232247Y-130245546D01*
X155364276Y-130174974D01*
X155480001Y-130080001D01*
X155503803Y-130050998D01*
X156212000Y-129342802D01*
X156212000Y-133035197D01*
X155133199Y-134114000D01*
X145978323Y-134114000D01*
X145941000Y-134110324D01*
X145903677Y-134114000D01*
X145903667Y-134114000D01*
X145792014Y-134124997D01*
X145648753Y-134168454D01*
X145516723Y-134239026D01*
X145464022Y-134282277D01*
X145400999Y-134333999D01*
X145377201Y-134362997D01*
X144268998Y-135471201D01*
X144240000Y-135494999D01*
X144216202Y-135523997D01*
X144216201Y-135523998D01*
X144145026Y-135610724D01*
X144125674Y-135646928D01*
X143905000Y-135646928D01*
X143780518Y-135659188D01*
X143660820Y-135695498D01*
X143550506Y-135754463D01*
X143453815Y-135833815D01*
X143374463Y-135930506D01*
X143315498Y-136040820D01*
X143279188Y-136160518D01*
X143266928Y-136285000D01*
X143266928Y-138035000D01*
X143279188Y-138159482D01*
X143315498Y-138279180D01*
X143374463Y-138389494D01*
X143453815Y-138486185D01*
X143550506Y-138565537D01*
X143660820Y-138624502D01*
X143780518Y-138660812D01*
X143905000Y-138673072D01*
X145655000Y-138673072D01*
X145779482Y-138660812D01*
X145899180Y-138624502D01*
X146009494Y-138565537D01*
X146106185Y-138486185D01*
X146185537Y-138389494D01*
X146244502Y-138279180D01*
X146248974Y-138264436D01*
X146317431Y-138332893D01*
X146564747Y-138498144D01*
X146839549Y-138611971D01*
X147131278Y-138670000D01*
X147428722Y-138670000D01*
X147720451Y-138611971D01*
X147995253Y-138498144D01*
X148242569Y-138332893D01*
X148452893Y-138122569D01*
X148530000Y-138007170D01*
X148607107Y-138122569D01*
X148817431Y-138332893D01*
X149064747Y-138498144D01*
X149339549Y-138611971D01*
X149631278Y-138670000D01*
X149928722Y-138670000D01*
X150220451Y-138611971D01*
X150495253Y-138498144D01*
X150742569Y-138332893D01*
X150869222Y-138206240D01*
X151413365Y-138206240D01*
X151494025Y-138457868D01*
X151762329Y-138586267D01*
X152050526Y-138659855D01*
X152347543Y-138675804D01*
X152641963Y-138633501D01*
X152922474Y-138534572D01*
X153065975Y-138457868D01*
X153146635Y-138206240D01*
X152280000Y-137339605D01*
X151413365Y-138206240D01*
X150869222Y-138206240D01*
X150952893Y-138122569D01*
X151055232Y-137969407D01*
X151233760Y-138026635D01*
X152100395Y-137160000D01*
X152459605Y-137160000D01*
X153326240Y-138026635D01*
X153577868Y-137945975D01*
X153706267Y-137677671D01*
X153779855Y-137389474D01*
X153795804Y-137092457D01*
X153753501Y-136798037D01*
X153654572Y-136517526D01*
X153577868Y-136374025D01*
X153326240Y-136293365D01*
X152459605Y-137160000D01*
X152100395Y-137160000D01*
X151233760Y-136293365D01*
X151055232Y-136350593D01*
X150952893Y-136197431D01*
X150869222Y-136113760D01*
X151413365Y-136113760D01*
X152280000Y-136980395D01*
X153146635Y-136113760D01*
X153065975Y-135862132D01*
X152797671Y-135733733D01*
X152509474Y-135660145D01*
X152212457Y-135644196D01*
X151918037Y-135686499D01*
X151637526Y-135785428D01*
X151494025Y-135862132D01*
X151413365Y-136113760D01*
X150869222Y-136113760D01*
X150742569Y-135987107D01*
X150495253Y-135821856D01*
X150220451Y-135708029D01*
X149928722Y-135650000D01*
X149631278Y-135650000D01*
X149339549Y-135708029D01*
X149064747Y-135821856D01*
X148817431Y-135987107D01*
X148607107Y-136197431D01*
X148530000Y-136312830D01*
X148452893Y-136197431D01*
X148242569Y-135987107D01*
X147995253Y-135821856D01*
X147720451Y-135708029D01*
X147428722Y-135650000D01*
X147131278Y-135650000D01*
X146839549Y-135708029D01*
X146564747Y-135821856D01*
X146317431Y-135987107D01*
X146248974Y-136055564D01*
X146244502Y-136040820D01*
X146185537Y-135930506D01*
X146106185Y-135833815D01*
X146078614Y-135811188D01*
X146255802Y-135634000D01*
X155410678Y-135634000D01*
X155448000Y-135637676D01*
X155485322Y-135634000D01*
X155485333Y-135634000D01*
X155596986Y-135623003D01*
X155740247Y-135579546D01*
X155872276Y-135508974D01*
X155988001Y-135414001D01*
X156011803Y-135384998D01*
X157483009Y-133913794D01*
X157512001Y-133890001D01*
X157535795Y-133861008D01*
X157535799Y-133861004D01*
X157606973Y-133774277D01*
X157606974Y-133774276D01*
X157677546Y-133642247D01*
X157721003Y-133498986D01*
X157732000Y-133387333D01*
X157732000Y-133387324D01*
X157735676Y-133350001D01*
X157732000Y-133312678D01*
X157732000Y-118678801D01*
X158810803Y-117600000D01*
X164400289Y-117600000D01*
X164296063Y-117704226D01*
X164182795Y-117873744D01*
X164104774Y-118062102D01*
X164065000Y-118262061D01*
X164065000Y-118465939D01*
X164104774Y-118665898D01*
X164182795Y-118854256D01*
X164296063Y-119023774D01*
X164440226Y-119167937D01*
X164609744Y-119281205D01*
X164798102Y-119359226D01*
X164998061Y-119399000D01*
X165201939Y-119399000D01*
X165401898Y-119359226D01*
X165590256Y-119281205D01*
X165759774Y-119167937D01*
X165803711Y-119124000D01*
X169674001Y-119124000D01*
X169674000Y-121097198D01*
X169357199Y-121414000D01*
X161218323Y-121414000D01*
X161181000Y-121410324D01*
X161143677Y-121414000D01*
X161143667Y-121414000D01*
X161032014Y-121424997D01*
X160888753Y-121468454D01*
X160756723Y-121539026D01*
X160704022Y-121582277D01*
X160640999Y-121633999D01*
X160617201Y-121662997D01*
X159508998Y-122771201D01*
X159480000Y-122794999D01*
X159456202Y-122823997D01*
X159456201Y-122823998D01*
X159385026Y-122910724D01*
X159365674Y-122946928D01*
X159145000Y-122946928D01*
X159020518Y-122959188D01*
X158900820Y-122995498D01*
X158790506Y-123054463D01*
X158693815Y-123133815D01*
X158614463Y-123230506D01*
X158555498Y-123340820D01*
X158519188Y-123460518D01*
X158506928Y-123585000D01*
X158506928Y-125335000D01*
X158519188Y-125459482D01*
X158555498Y-125579180D01*
X158614463Y-125689494D01*
X158693815Y-125786185D01*
X158790506Y-125865537D01*
X158900820Y-125924502D01*
X159020518Y-125960812D01*
X159145000Y-125973072D01*
X160895000Y-125973072D01*
X161019482Y-125960812D01*
X161139180Y-125924502D01*
X161249494Y-125865537D01*
X161346185Y-125786185D01*
X161425537Y-125689494D01*
X161484502Y-125579180D01*
X161488974Y-125564436D01*
X161557431Y-125632893D01*
X161804747Y-125798144D01*
X162079549Y-125911971D01*
X162371278Y-125970000D01*
X162668722Y-125970000D01*
X162960451Y-125911971D01*
X163235253Y-125798144D01*
X163482569Y-125632893D01*
X163692893Y-125422569D01*
X163770000Y-125307170D01*
X163847107Y-125422569D01*
X164057431Y-125632893D01*
X164304747Y-125798144D01*
X164579549Y-125911971D01*
X164871278Y-125970000D01*
X165168722Y-125970000D01*
X165460451Y-125911971D01*
X165735253Y-125798144D01*
X165982569Y-125632893D01*
X166109222Y-125506240D01*
X166653365Y-125506240D01*
X166734025Y-125757868D01*
X167002329Y-125886267D01*
X167290526Y-125959855D01*
X167587543Y-125975804D01*
X167881963Y-125933501D01*
X168162474Y-125834572D01*
X168305975Y-125757868D01*
X168386635Y-125506240D01*
X167520000Y-124639605D01*
X166653365Y-125506240D01*
X166109222Y-125506240D01*
X166192893Y-125422569D01*
X166295232Y-125269407D01*
X166473760Y-125326635D01*
X167340395Y-124460000D01*
X167699605Y-124460000D01*
X168566240Y-125326635D01*
X168817868Y-125245975D01*
X168946267Y-124977671D01*
X169019855Y-124689474D01*
X169035804Y-124392457D01*
X168993501Y-124098037D01*
X168894572Y-123817526D01*
X168817868Y-123674025D01*
X168566240Y-123593365D01*
X167699605Y-124460000D01*
X167340395Y-124460000D01*
X166473760Y-123593365D01*
X166295232Y-123650593D01*
X166192893Y-123497431D01*
X166109222Y-123413760D01*
X166653365Y-123413760D01*
X167520000Y-124280395D01*
X168386635Y-123413760D01*
X168305975Y-123162132D01*
X168037671Y-123033733D01*
X167749474Y-122960145D01*
X167452457Y-122944196D01*
X167158037Y-122986499D01*
X166877526Y-123085428D01*
X166734025Y-123162132D01*
X166653365Y-123413760D01*
X166109222Y-123413760D01*
X165982569Y-123287107D01*
X165735253Y-123121856D01*
X165460451Y-123008029D01*
X165168722Y-122950000D01*
X164871278Y-122950000D01*
X164579549Y-123008029D01*
X164304747Y-123121856D01*
X164057431Y-123287107D01*
X163847107Y-123497431D01*
X163770000Y-123612830D01*
X163692893Y-123497431D01*
X163482569Y-123287107D01*
X163235253Y-123121856D01*
X162960451Y-123008029D01*
X162668722Y-122950000D01*
X162371278Y-122950000D01*
X162079549Y-123008029D01*
X161804747Y-123121856D01*
X161557431Y-123287107D01*
X161488974Y-123355564D01*
X161484502Y-123340820D01*
X161425537Y-123230506D01*
X161346185Y-123133815D01*
X161318614Y-123111188D01*
X161495802Y-122934000D01*
X169634678Y-122934000D01*
X169672000Y-122937676D01*
X169709322Y-122934000D01*
X169709333Y-122934000D01*
X169820986Y-122923003D01*
X169964247Y-122879546D01*
X170096276Y-122808974D01*
X170212001Y-122714001D01*
X170235803Y-122684998D01*
X170436000Y-122484801D01*
X170436001Y-128463197D01*
X170119199Y-128780000D01*
X164279711Y-128780000D01*
X164235774Y-128736063D01*
X164066256Y-128622795D01*
X163877898Y-128544774D01*
X163677939Y-128505000D01*
X163474061Y-128505000D01*
X163274102Y-128544774D01*
X163085744Y-128622795D01*
X162916226Y-128736063D01*
X162772063Y-128880226D01*
X162658795Y-129049744D01*
X162580774Y-129238102D01*
X162541000Y-129438061D01*
X162541000Y-129641939D01*
X162580774Y-129841898D01*
X162658795Y-130030256D01*
X162772063Y-130199774D01*
X162916226Y-130343937D01*
X163085744Y-130457205D01*
X163274102Y-130535226D01*
X163474061Y-130575000D01*
X163677939Y-130575000D01*
X163877898Y-130535226D01*
X164066256Y-130457205D01*
X164235774Y-130343937D01*
X164279711Y-130300000D01*
X170396678Y-130300000D01*
X170434000Y-130303676D01*
X170471322Y-130300000D01*
X170471333Y-130300000D01*
X170582986Y-130289003D01*
X170726247Y-130245546D01*
X170858276Y-130174974D01*
X170974001Y-130080001D01*
X170997803Y-130050998D01*
X171198000Y-129850801D01*
X171198000Y-133543198D01*
X170627199Y-134114000D01*
X161218323Y-134114000D01*
X161181000Y-134110324D01*
X161143677Y-134114000D01*
X161143667Y-134114000D01*
X161032014Y-134124997D01*
X160888753Y-134168454D01*
X160756723Y-134239026D01*
X160704022Y-134282277D01*
X160640999Y-134333999D01*
X160617201Y-134362997D01*
X159508998Y-135471201D01*
X159480000Y-135494999D01*
X159456202Y-135523997D01*
X159456201Y-135523998D01*
X159385026Y-135610724D01*
X159365674Y-135646928D01*
X159145000Y-135646928D01*
X159020518Y-135659188D01*
X158900820Y-135695498D01*
X158790506Y-135754463D01*
X158693815Y-135833815D01*
X158614463Y-135930506D01*
X158555498Y-136040820D01*
X158519188Y-136160518D01*
X158506928Y-136285000D01*
X158506928Y-138035000D01*
X158519188Y-138159482D01*
X158555498Y-138279180D01*
X158614463Y-138389494D01*
X158693815Y-138486185D01*
X158790506Y-138565537D01*
X158900820Y-138624502D01*
X159020518Y-138660812D01*
X159145000Y-138673072D01*
X160895000Y-138673072D01*
X161019482Y-138660812D01*
X161139180Y-138624502D01*
X161249494Y-138565537D01*
X161346185Y-138486185D01*
X161425537Y-138389494D01*
X161484502Y-138279180D01*
X161488974Y-138264436D01*
X161557431Y-138332893D01*
X161804747Y-138498144D01*
X162079549Y-138611971D01*
X162371278Y-138670000D01*
X162668722Y-138670000D01*
X162960451Y-138611971D01*
X163235253Y-138498144D01*
X163482569Y-138332893D01*
X163692893Y-138122569D01*
X163770000Y-138007170D01*
X163847107Y-138122569D01*
X164057431Y-138332893D01*
X164304747Y-138498144D01*
X164579549Y-138611971D01*
X164871278Y-138670000D01*
X165168722Y-138670000D01*
X165460451Y-138611971D01*
X165735253Y-138498144D01*
X165982569Y-138332893D01*
X166109222Y-138206240D01*
X166653365Y-138206240D01*
X166734025Y-138457868D01*
X167002329Y-138586267D01*
X167290526Y-138659855D01*
X167587543Y-138675804D01*
X167881963Y-138633501D01*
X168162474Y-138534572D01*
X168305975Y-138457868D01*
X168386635Y-138206240D01*
X167520000Y-137339605D01*
X166653365Y-138206240D01*
X166109222Y-138206240D01*
X166192893Y-138122569D01*
X166295232Y-137969407D01*
X166473760Y-138026635D01*
X167340395Y-137160000D01*
X167699605Y-137160000D01*
X168566240Y-138026635D01*
X168817868Y-137945975D01*
X168946267Y-137677671D01*
X169019855Y-137389474D01*
X169035804Y-137092457D01*
X168993501Y-136798037D01*
X168894572Y-136517526D01*
X168817868Y-136374025D01*
X168566240Y-136293365D01*
X167699605Y-137160000D01*
X167340395Y-137160000D01*
X166473760Y-136293365D01*
X166295232Y-136350593D01*
X166192893Y-136197431D01*
X166109222Y-136113760D01*
X166653365Y-136113760D01*
X167520000Y-136980395D01*
X168386635Y-136113760D01*
X168305975Y-135862132D01*
X168037671Y-135733733D01*
X167749474Y-135660145D01*
X167452457Y-135644196D01*
X167158037Y-135686499D01*
X166877526Y-135785428D01*
X166734025Y-135862132D01*
X166653365Y-136113760D01*
X166109222Y-136113760D01*
X165982569Y-135987107D01*
X165735253Y-135821856D01*
X165460451Y-135708029D01*
X165168722Y-135650000D01*
X164871278Y-135650000D01*
X164579549Y-135708029D01*
X164304747Y-135821856D01*
X164057431Y-135987107D01*
X163847107Y-136197431D01*
X163770000Y-136312830D01*
X163692893Y-136197431D01*
X163482569Y-135987107D01*
X163235253Y-135821856D01*
X162960451Y-135708029D01*
X162668722Y-135650000D01*
X162371278Y-135650000D01*
X162079549Y-135708029D01*
X161804747Y-135821856D01*
X161557431Y-135987107D01*
X161488974Y-136055564D01*
X161484502Y-136040820D01*
X161425537Y-135930506D01*
X161346185Y-135833815D01*
X161318614Y-135811188D01*
X161495802Y-135634000D01*
X170904678Y-135634000D01*
X170942000Y-135637676D01*
X170979322Y-135634000D01*
X170979333Y-135634000D01*
X171090986Y-135623003D01*
X171234247Y-135579546D01*
X171366276Y-135508974D01*
X171482001Y-135414001D01*
X171505804Y-135384998D01*
X172469004Y-134421798D01*
X172498001Y-134398001D01*
X172570057Y-134310201D01*
X172592974Y-134282277D01*
X172663546Y-134150247D01*
X172679090Y-134099003D01*
X172707003Y-134006986D01*
X172718000Y-133895333D01*
X172718000Y-133895323D01*
X172721676Y-133858000D01*
X172718000Y-133820678D01*
X172718000Y-118932801D01*
X173796803Y-117854000D01*
X179435987Y-117854000D01*
X179422795Y-117873744D01*
X179344774Y-118062102D01*
X179305000Y-118262061D01*
X179305000Y-118465939D01*
X179344774Y-118665898D01*
X179422795Y-118854256D01*
X179536063Y-119023774D01*
X179680226Y-119167937D01*
X179849744Y-119281205D01*
X180038102Y-119359226D01*
X180238061Y-119399000D01*
X180441939Y-119399000D01*
X180641898Y-119359226D01*
X180830256Y-119281205D01*
X180999774Y-119167937D01*
X181043711Y-119124000D01*
X183096678Y-119124000D01*
X183134000Y-119127676D01*
X183171322Y-119124000D01*
X183171333Y-119124000D01*
X183282986Y-119113003D01*
X183426247Y-119069546D01*
X183558276Y-118998974D01*
X183674001Y-118904001D01*
X183697804Y-118874998D01*
X184661003Y-117911799D01*
X184690001Y-117888001D01*
X184726931Y-117843002D01*
X184784974Y-117772277D01*
X184855546Y-117640247D01*
X184863205Y-117614997D01*
X184899003Y-117496986D01*
X184910000Y-117385333D01*
X184910000Y-117385323D01*
X184913676Y-117348000D01*
X184910000Y-117310678D01*
X184910000Y-114307595D01*
X184979014Y-114270706D01*
X185205134Y-114085134D01*
X185390706Y-113859014D01*
X185420000Y-113804209D01*
X185449294Y-113859014D01*
X185634866Y-114085134D01*
X185860986Y-114270706D01*
X185930000Y-114307595D01*
X185930001Y-120843197D01*
X185105199Y-121668000D01*
X176204325Y-121668000D01*
X176167000Y-121664324D01*
X176129675Y-121668000D01*
X176129667Y-121668000D01*
X176018014Y-121678997D01*
X175874753Y-121722454D01*
X175742724Y-121793026D01*
X175626999Y-121887999D01*
X175603201Y-121916997D01*
X174748998Y-122771201D01*
X174720000Y-122794999D01*
X174696202Y-122823997D01*
X174696201Y-122823998D01*
X174625026Y-122910724D01*
X174605674Y-122946928D01*
X174385000Y-122946928D01*
X174260518Y-122959188D01*
X174140820Y-122995498D01*
X174030506Y-123054463D01*
X173933815Y-123133815D01*
X173854463Y-123230506D01*
X173795498Y-123340820D01*
X173759188Y-123460518D01*
X173746928Y-123585000D01*
X173746928Y-125335000D01*
X173759188Y-125459482D01*
X173795498Y-125579180D01*
X173854463Y-125689494D01*
X173933815Y-125786185D01*
X174030506Y-125865537D01*
X174140820Y-125924502D01*
X174260518Y-125960812D01*
X174385000Y-125973072D01*
X176135000Y-125973072D01*
X176259482Y-125960812D01*
X176379180Y-125924502D01*
X176489494Y-125865537D01*
X176586185Y-125786185D01*
X176665537Y-125689494D01*
X176724502Y-125579180D01*
X176728974Y-125564436D01*
X176797431Y-125632893D01*
X177044747Y-125798144D01*
X177319549Y-125911971D01*
X177611278Y-125970000D01*
X177908722Y-125970000D01*
X178200451Y-125911971D01*
X178475253Y-125798144D01*
X178722569Y-125632893D01*
X178932893Y-125422569D01*
X179010000Y-125307170D01*
X179087107Y-125422569D01*
X179297431Y-125632893D01*
X179544747Y-125798144D01*
X179819549Y-125911971D01*
X180111278Y-125970000D01*
X180408722Y-125970000D01*
X180700451Y-125911971D01*
X180975253Y-125798144D01*
X181222569Y-125632893D01*
X181349222Y-125506240D01*
X181893365Y-125506240D01*
X181974025Y-125757868D01*
X182242329Y-125886267D01*
X182530526Y-125959855D01*
X182827543Y-125975804D01*
X183121963Y-125933501D01*
X183402474Y-125834572D01*
X183545975Y-125757868D01*
X183626635Y-125506240D01*
X182760000Y-124639605D01*
X181893365Y-125506240D01*
X181349222Y-125506240D01*
X181432893Y-125422569D01*
X181535232Y-125269407D01*
X181713760Y-125326635D01*
X182580395Y-124460000D01*
X182939605Y-124460000D01*
X183806240Y-125326635D01*
X184057868Y-125245975D01*
X184186267Y-124977671D01*
X184259855Y-124689474D01*
X184275804Y-124392457D01*
X184233501Y-124098037D01*
X184134572Y-123817526D01*
X184057868Y-123674025D01*
X183806240Y-123593365D01*
X182939605Y-124460000D01*
X182580395Y-124460000D01*
X181713760Y-123593365D01*
X181535232Y-123650593D01*
X181432893Y-123497431D01*
X181222569Y-123287107D01*
X181074245Y-123188000D01*
X181965733Y-123188000D01*
X181893365Y-123413760D01*
X182760000Y-124280395D01*
X183626635Y-123413760D01*
X183554267Y-123188000D01*
X185382678Y-123188000D01*
X185420000Y-123191676D01*
X185457322Y-123188000D01*
X185457333Y-123188000D01*
X185568986Y-123177003D01*
X185712247Y-123133546D01*
X185844276Y-123062974D01*
X185960001Y-122968001D01*
X185983804Y-122938997D01*
X187201003Y-121721799D01*
X187230001Y-121698001D01*
X187324974Y-121582276D01*
X187395546Y-121450247D01*
X187439003Y-121306986D01*
X187450000Y-121195333D01*
X187450000Y-121195324D01*
X187453676Y-121158001D01*
X187450000Y-121120678D01*
X187450000Y-114307595D01*
X187519014Y-114270706D01*
X187745134Y-114085134D01*
X187930706Y-113859014D01*
X187960000Y-113804209D01*
X187989294Y-113859014D01*
X188174866Y-114085134D01*
X188400986Y-114270706D01*
X188470000Y-114307595D01*
X188470001Y-127955197D01*
X187645199Y-128780000D01*
X179519711Y-128780000D01*
X179475774Y-128736063D01*
X179306256Y-128622795D01*
X179117898Y-128544774D01*
X178917939Y-128505000D01*
X178714061Y-128505000D01*
X178514102Y-128544774D01*
X178325744Y-128622795D01*
X178156226Y-128736063D01*
X178012063Y-128880226D01*
X177898795Y-129049744D01*
X177820774Y-129238102D01*
X177781000Y-129438061D01*
X177781000Y-129641939D01*
X177820774Y-129841898D01*
X177898795Y-130030256D01*
X178012063Y-130199774D01*
X178156226Y-130343937D01*
X178325744Y-130457205D01*
X178514102Y-130535226D01*
X178714061Y-130575000D01*
X178917939Y-130575000D01*
X179117898Y-130535226D01*
X179306256Y-130457205D01*
X179475774Y-130343937D01*
X179519711Y-130300000D01*
X187922678Y-130300000D01*
X187960000Y-130303676D01*
X187997322Y-130300000D01*
X187997333Y-130300000D01*
X188108986Y-130289003D01*
X188252247Y-130245546D01*
X188384276Y-130174974D01*
X188500001Y-130080001D01*
X188523804Y-130050997D01*
X189741003Y-128833799D01*
X189770001Y-128810001D01*
X189864974Y-128694276D01*
X189935546Y-128562247D01*
X189979003Y-128418986D01*
X189990000Y-128307333D01*
X189990000Y-128307324D01*
X189993676Y-128270001D01*
X189990000Y-128232678D01*
X189990000Y-114307595D01*
X190059014Y-114270706D01*
X190285134Y-114085134D01*
X190309607Y-114055313D01*
X190330498Y-114124180D01*
X190389463Y-114234494D01*
X190468815Y-114331185D01*
X190565506Y-114410537D01*
X190675820Y-114469502D01*
X190795518Y-114505812D01*
X190920000Y-114518072D01*
X191010000Y-114518072D01*
X191010001Y-132019196D01*
X188915199Y-134114000D01*
X176458323Y-134114000D01*
X176421000Y-134110324D01*
X176383677Y-134114000D01*
X176383667Y-134114000D01*
X176272014Y-134124997D01*
X176128753Y-134168454D01*
X175996723Y-134239026D01*
X175944022Y-134282277D01*
X175880999Y-134333999D01*
X175857201Y-134362997D01*
X174749003Y-135471196D01*
X174719999Y-135494999D01*
X174664871Y-135562174D01*
X174625026Y-135610724D01*
X174605674Y-135646928D01*
X174385000Y-135646928D01*
X174260518Y-135659188D01*
X174140820Y-135695498D01*
X174030506Y-135754463D01*
X173933815Y-135833815D01*
X173854463Y-135930506D01*
X173795498Y-136040820D01*
X173759188Y-136160518D01*
X173746928Y-136285000D01*
X173746928Y-138035000D01*
X173759188Y-138159482D01*
X173795498Y-138279180D01*
X173854463Y-138389494D01*
X173933815Y-138486185D01*
X174030506Y-138565537D01*
X174140820Y-138624502D01*
X174260518Y-138660812D01*
X174385000Y-138673072D01*
X176135000Y-138673072D01*
X176259482Y-138660812D01*
X176379180Y-138624502D01*
X176489494Y-138565537D01*
X176586185Y-138486185D01*
X176665537Y-138389494D01*
X176724502Y-138279180D01*
X176728974Y-138264436D01*
X176797431Y-138332893D01*
X177044747Y-138498144D01*
X177319549Y-138611971D01*
X177611278Y-138670000D01*
X177908722Y-138670000D01*
X178200451Y-138611971D01*
X178475253Y-138498144D01*
X178722569Y-138332893D01*
X178932893Y-138122569D01*
X179010000Y-138007170D01*
X179087107Y-138122569D01*
X179297431Y-138332893D01*
X179544747Y-138498144D01*
X179819549Y-138611971D01*
X180111278Y-138670000D01*
X180408722Y-138670000D01*
X180700451Y-138611971D01*
X180975253Y-138498144D01*
X181222569Y-138332893D01*
X181349222Y-138206240D01*
X181893365Y-138206240D01*
X181974025Y-138457868D01*
X182242329Y-138586267D01*
X182530526Y-138659855D01*
X182827543Y-138675804D01*
X183121963Y-138633501D01*
X183402474Y-138534572D01*
X183545975Y-138457868D01*
X183625470Y-138209872D01*
X189535000Y-138209872D01*
X189535000Y-138650128D01*
X189620890Y-139081925D01*
X189789369Y-139488669D01*
X190033962Y-139854729D01*
X190345271Y-140166038D01*
X190711331Y-140410631D01*
X191118075Y-140579110D01*
X191549872Y-140665000D01*
X191990128Y-140665000D01*
X192421925Y-140579110D01*
X192828669Y-140410631D01*
X193194729Y-140166038D01*
X193506038Y-139854729D01*
X193750631Y-139488669D01*
X193919110Y-139081925D01*
X194005000Y-138650128D01*
X194005000Y-138209872D01*
X193919110Y-137778075D01*
X193750631Y-137371331D01*
X193506038Y-137005271D01*
X193194729Y-136693962D01*
X192828669Y-136449369D01*
X192421925Y-136280890D01*
X191990128Y-136195000D01*
X191549872Y-136195000D01*
X191118075Y-136280890D01*
X190711331Y-136449369D01*
X190345271Y-136693962D01*
X190033962Y-137005271D01*
X189789369Y-137371331D01*
X189620890Y-137778075D01*
X189535000Y-138209872D01*
X183625470Y-138209872D01*
X183626635Y-138206240D01*
X182760000Y-137339605D01*
X181893365Y-138206240D01*
X181349222Y-138206240D01*
X181432893Y-138122569D01*
X181535232Y-137969407D01*
X181713760Y-138026635D01*
X182580395Y-137160000D01*
X182939605Y-137160000D01*
X183806240Y-138026635D01*
X184057868Y-137945975D01*
X184186267Y-137677671D01*
X184259855Y-137389474D01*
X184275804Y-137092457D01*
X184233501Y-136798037D01*
X184134572Y-136517526D01*
X184057868Y-136374025D01*
X183806240Y-136293365D01*
X182939605Y-137160000D01*
X182580395Y-137160000D01*
X181713760Y-136293365D01*
X181535232Y-136350593D01*
X181432893Y-136197431D01*
X181349222Y-136113760D01*
X181893365Y-136113760D01*
X182760000Y-136980395D01*
X183626635Y-136113760D01*
X183545975Y-135862132D01*
X183277671Y-135733733D01*
X182989474Y-135660145D01*
X182692457Y-135644196D01*
X182398037Y-135686499D01*
X182117526Y-135785428D01*
X181974025Y-135862132D01*
X181893365Y-136113760D01*
X181349222Y-136113760D01*
X181222569Y-135987107D01*
X180975253Y-135821856D01*
X180700451Y-135708029D01*
X180408722Y-135650000D01*
X180111278Y-135650000D01*
X179819549Y-135708029D01*
X179544747Y-135821856D01*
X179297431Y-135987107D01*
X179087107Y-136197431D01*
X179010000Y-136312830D01*
X178932893Y-136197431D01*
X178722569Y-135987107D01*
X178475253Y-135821856D01*
X178200451Y-135708029D01*
X177908722Y-135650000D01*
X177611278Y-135650000D01*
X177319549Y-135708029D01*
X177044747Y-135821856D01*
X176797431Y-135987107D01*
X176728974Y-136055564D01*
X176724502Y-136040820D01*
X176665537Y-135930506D01*
X176586185Y-135833815D01*
X176558614Y-135811188D01*
X176735802Y-135634000D01*
X189192678Y-135634000D01*
X189230000Y-135637676D01*
X189267322Y-135634000D01*
X189267333Y-135634000D01*
X189378986Y-135623003D01*
X189522247Y-135579546D01*
X189654276Y-135508974D01*
X189770001Y-135414001D01*
X189793804Y-135384997D01*
X192281008Y-132897795D01*
X192310001Y-132874001D01*
X192333795Y-132845008D01*
X192333799Y-132845004D01*
X192404973Y-132758277D01*
X192428091Y-132715027D01*
X192475546Y-132626247D01*
X192519003Y-132482986D01*
X192530000Y-132371333D01*
X192530000Y-132371324D01*
X192533676Y-132334001D01*
X192530000Y-132296678D01*
X192530000Y-114518072D01*
X192620000Y-114518072D01*
X192744482Y-114505812D01*
X192864180Y-114469502D01*
X192974494Y-114410537D01*
X193071185Y-114331185D01*
X193150537Y-114234494D01*
X193209502Y-114124180D01*
X193245812Y-114004482D01*
X193258072Y-113880000D01*
X193258072Y-112180000D01*
X193245812Y-112055518D01*
X193209502Y-111935820D01*
X193150537Y-111825506D01*
X193071185Y-111728815D01*
X192974494Y-111649463D01*
X192864180Y-111590498D01*
X192744482Y-111554188D01*
X192620000Y-111541928D01*
X190920000Y-111541928D01*
X190795518Y-111554188D01*
X190675820Y-111590498D01*
X190565506Y-111649463D01*
X190468815Y-111728815D01*
X190389463Y-111825506D01*
X190330498Y-111935820D01*
X190309607Y-112004687D01*
X190285134Y-111974866D01*
X190059014Y-111789294D01*
X189801034Y-111651401D01*
X189521111Y-111566487D01*
X189302950Y-111545000D01*
X189157050Y-111545000D01*
X188938889Y-111566487D01*
X188658966Y-111651401D01*
X188400986Y-111789294D01*
X188174866Y-111974866D01*
X187989294Y-112200986D01*
X187960000Y-112255791D01*
X187930706Y-112200986D01*
X187745134Y-111974866D01*
X187519014Y-111789294D01*
X187261034Y-111651401D01*
X186981111Y-111566487D01*
X186762950Y-111545000D01*
X186617050Y-111545000D01*
X186398889Y-111566487D01*
X186118966Y-111651401D01*
X185860986Y-111789294D01*
X185634866Y-111974866D01*
X185449294Y-112200986D01*
X185420000Y-112255791D01*
X185390706Y-112200986D01*
X185205134Y-111974866D01*
X184979014Y-111789294D01*
X184721034Y-111651401D01*
X184441111Y-111566487D01*
X184222950Y-111545000D01*
X184077050Y-111545000D01*
X183858889Y-111566487D01*
X183578966Y-111651401D01*
X183320986Y-111789294D01*
X183094866Y-111974866D01*
X182909294Y-112200986D01*
X182880000Y-112255791D01*
X182850706Y-112200986D01*
X182665134Y-111974866D01*
X182439014Y-111789294D01*
X182181034Y-111651401D01*
X181901111Y-111566487D01*
X181682950Y-111545000D01*
X181537050Y-111545000D01*
X181318889Y-111566487D01*
X181038966Y-111651401D01*
X180780986Y-111789294D01*
X180554866Y-111974866D01*
X180369294Y-112200986D01*
X180340000Y-112255791D01*
X180310706Y-112200986D01*
X180125134Y-111974866D01*
X179899014Y-111789294D01*
X179641034Y-111651401D01*
X179361111Y-111566487D01*
X179142950Y-111545000D01*
X178997050Y-111545000D01*
X178778889Y-111566487D01*
X178498966Y-111651401D01*
X178240986Y-111789294D01*
X178014866Y-111974866D01*
X177829294Y-112200986D01*
X177800000Y-112255791D01*
X177770706Y-112200986D01*
X177585134Y-111974866D01*
X177359014Y-111789294D01*
X177101034Y-111651401D01*
X176821111Y-111566487D01*
X176602950Y-111545000D01*
X176457050Y-111545000D01*
X176238889Y-111566487D01*
X175958966Y-111651401D01*
X175700986Y-111789294D01*
X175474866Y-111974866D01*
X175289294Y-112200986D01*
X175260000Y-112255791D01*
X175230706Y-112200986D01*
X175045134Y-111974866D01*
X174819014Y-111789294D01*
X174561034Y-111651401D01*
X174281111Y-111566487D01*
X174062950Y-111545000D01*
X173917050Y-111545000D01*
X173698889Y-111566487D01*
X173418966Y-111651401D01*
X173160986Y-111789294D01*
X172934866Y-111974866D01*
X172749294Y-112200986D01*
X172720000Y-112255791D01*
X172690706Y-112200986D01*
X172505134Y-111974866D01*
X172279014Y-111789294D01*
X172021034Y-111651401D01*
X171741111Y-111566487D01*
X171522950Y-111545000D01*
X171377050Y-111545000D01*
X171158889Y-111566487D01*
X170878966Y-111651401D01*
X170620986Y-111789294D01*
X170394866Y-111974866D01*
X170209294Y-112200986D01*
X170180000Y-112255791D01*
X170150706Y-112200986D01*
X169965134Y-111974866D01*
X169739014Y-111789294D01*
X169670000Y-111752405D01*
X169670000Y-110781322D01*
X169673676Y-110744000D01*
X169670000Y-110706677D01*
X169670000Y-110706667D01*
X169659003Y-110595014D01*
X169615546Y-110451753D01*
X169605814Y-110433546D01*
X169544974Y-110319723D01*
X169473799Y-110232997D01*
X169473798Y-110232996D01*
X169450001Y-110203999D01*
X169421003Y-110180201D01*
X168457804Y-109217002D01*
X168434001Y-109187999D01*
X168318276Y-109093026D01*
X168186247Y-109022454D01*
X168042986Y-108978997D01*
X167931333Y-108968000D01*
X167931322Y-108968000D01*
X167894000Y-108964324D01*
X167856678Y-108968000D01*
X161350803Y-108968000D01*
X158515000Y-106132199D01*
X158515000Y-106070061D01*
X158475226Y-105870102D01*
X158397205Y-105681744D01*
X158283937Y-105512226D01*
X158139774Y-105368063D01*
X157970256Y-105254795D01*
X157781898Y-105176774D01*
X157581939Y-105137000D01*
X157378061Y-105137000D01*
X157178102Y-105176774D01*
X156989744Y-105254795D01*
X156820226Y-105368063D01*
X156676063Y-105512226D01*
X156591000Y-105639532D01*
X156505937Y-105512226D01*
X156361774Y-105368063D01*
X156192256Y-105254795D01*
X156003898Y-105176774D01*
X155803939Y-105137000D01*
X155600061Y-105137000D01*
X155400102Y-105176774D01*
X155211744Y-105254795D01*
X155042226Y-105368063D01*
X154940000Y-105470289D01*
X154837774Y-105368063D01*
X154668256Y-105254795D01*
X154479898Y-105176774D01*
X154279939Y-105137000D01*
X154076061Y-105137000D01*
X153876102Y-105176774D01*
X153687744Y-105254795D01*
X153543000Y-105351510D01*
X153398256Y-105254795D01*
X153386511Y-105249930D01*
X154532982Y-104103460D01*
X182022659Y-104103460D01*
X182607000Y-104687802D01*
X182607000Y-104749939D01*
X182646774Y-104949898D01*
X182724795Y-105138256D01*
X182838063Y-105307774D01*
X182982226Y-105451937D01*
X183151744Y-105565205D01*
X183340102Y-105643226D01*
X183540061Y-105683000D01*
X183743939Y-105683000D01*
X183943898Y-105643226D01*
X184132256Y-105565205D01*
X184301774Y-105451937D01*
X184445937Y-105307774D01*
X184559205Y-105138256D01*
X184637226Y-104949898D01*
X184677000Y-104749939D01*
X184677000Y-104546061D01*
X184637226Y-104346102D01*
X184559205Y-104157744D01*
X184445937Y-103988226D01*
X184301774Y-103844063D01*
X184132256Y-103730795D01*
X183945530Y-103653450D01*
X190462678Y-103653450D01*
X190500000Y-103657126D01*
X190537322Y-103653450D01*
X190537333Y-103653450D01*
X190648986Y-103642453D01*
X190792247Y-103598996D01*
X190924276Y-103528424D01*
X191040001Y-103433451D01*
X191063804Y-103404447D01*
X192281003Y-102187249D01*
X192310001Y-102163451D01*
X192404974Y-102047726D01*
X192475546Y-101915697D01*
X192519003Y-101772436D01*
X192530000Y-101660783D01*
X192530000Y-101660774D01*
X192533676Y-101623451D01*
X192530000Y-101586128D01*
X192530000Y-99278072D01*
X192620000Y-99278072D01*
X192744482Y-99265812D01*
X192864180Y-99229502D01*
X192974494Y-99170537D01*
X193071185Y-99091185D01*
X193150537Y-98994494D01*
X193209502Y-98884180D01*
X193245812Y-98764482D01*
X193258072Y-98640000D01*
X193258072Y-96940000D01*
X193245812Y-96815518D01*
X193209502Y-96695820D01*
X193150537Y-96585506D01*
X193071185Y-96488815D01*
X192974494Y-96409463D01*
X192864180Y-96350498D01*
X192744482Y-96314188D01*
X192620000Y-96301928D01*
X190920000Y-96301928D01*
X190795518Y-96314188D01*
X190675820Y-96350498D01*
X190565506Y-96409463D01*
X190468815Y-96488815D01*
X190389463Y-96585506D01*
X190330498Y-96695820D01*
X190309607Y-96764687D01*
X190285134Y-96734866D01*
X190059014Y-96549294D01*
X189801034Y-96411401D01*
X189521111Y-96326487D01*
X189302950Y-96305000D01*
X189157050Y-96305000D01*
X188938889Y-96326487D01*
X188658966Y-96411401D01*
X188400986Y-96549294D01*
X188174866Y-96734866D01*
X187989294Y-96960986D01*
X187960000Y-97015791D01*
X187930706Y-96960986D01*
X187745134Y-96734866D01*
X187519014Y-96549294D01*
X187261034Y-96411401D01*
X186981111Y-96326487D01*
X186762950Y-96305000D01*
X186617050Y-96305000D01*
X186398889Y-96326487D01*
X186118966Y-96411401D01*
X185860986Y-96549294D01*
X185634866Y-96734866D01*
X185449294Y-96960986D01*
X185420000Y-97015791D01*
X185390706Y-96960986D01*
X185205134Y-96734866D01*
X184979014Y-96549294D01*
X184721034Y-96411401D01*
X184441111Y-96326487D01*
X184222950Y-96305000D01*
X184077050Y-96305000D01*
X183858889Y-96326487D01*
X183578966Y-96411401D01*
X183320986Y-96549294D01*
X183094866Y-96734866D01*
X182909294Y-96960986D01*
X182880000Y-97015791D01*
X182850706Y-96960986D01*
X182665134Y-96734866D01*
X182439014Y-96549294D01*
X182181034Y-96411401D01*
X181901111Y-96326487D01*
X181682950Y-96305000D01*
X181537050Y-96305000D01*
X181318889Y-96326487D01*
X181038966Y-96411401D01*
X180780986Y-96549294D01*
X180554866Y-96734866D01*
X180369294Y-96960986D01*
X180340000Y-97015791D01*
X180310706Y-96960986D01*
X180125134Y-96734866D01*
X179899014Y-96549294D01*
X179641034Y-96411401D01*
X179361111Y-96326487D01*
X179142950Y-96305000D01*
X178997050Y-96305000D01*
X178778889Y-96326487D01*
X178498966Y-96411401D01*
X178240986Y-96549294D01*
X178014866Y-96734866D01*
X177829294Y-96960986D01*
X177800000Y-97015791D01*
X177770706Y-96960986D01*
X177585134Y-96734866D01*
X177359014Y-96549294D01*
X177101034Y-96411401D01*
X176821111Y-96326487D01*
X176602950Y-96305000D01*
X176457050Y-96305000D01*
X176238889Y-96326487D01*
X175958966Y-96411401D01*
X175700986Y-96549294D01*
X175474866Y-96734866D01*
X175289294Y-96960986D01*
X175260000Y-97015791D01*
X175230706Y-96960986D01*
X175045134Y-96734866D01*
X174819014Y-96549294D01*
X174561034Y-96411401D01*
X174281111Y-96326487D01*
X174062950Y-96305000D01*
X173917050Y-96305000D01*
X173698889Y-96326487D01*
X173418966Y-96411401D01*
X173160986Y-96549294D01*
X172934866Y-96734866D01*
X172749294Y-96960986D01*
X172720000Y-97015791D01*
X172690706Y-96960986D01*
X172505134Y-96734866D01*
X172279014Y-96549294D01*
X172021034Y-96411401D01*
X171741111Y-96326487D01*
X171522950Y-96305000D01*
X171377050Y-96305000D01*
X171158889Y-96326487D01*
X170878966Y-96411401D01*
X170620986Y-96549294D01*
X170394866Y-96734866D01*
X170209294Y-96960986D01*
X170180000Y-97015791D01*
X170150706Y-96960986D01*
X169965134Y-96734866D01*
X169739014Y-96549294D01*
X169481034Y-96411401D01*
X169201111Y-96326487D01*
X168982950Y-96305000D01*
X168837050Y-96305000D01*
X168618889Y-96326487D01*
X168338966Y-96411401D01*
X168080986Y-96549294D01*
X167854866Y-96734866D01*
X167669294Y-96960986D01*
X167640000Y-97015791D01*
X167610706Y-96960986D01*
X167425134Y-96734866D01*
X167199014Y-96549294D01*
X166941034Y-96411401D01*
X166661111Y-96326487D01*
X166442950Y-96305000D01*
X166297050Y-96305000D01*
X166078889Y-96326487D01*
X165798966Y-96411401D01*
X165540986Y-96549294D01*
X165314866Y-96734866D01*
X165129294Y-96960986D01*
X165100000Y-97015791D01*
X165070706Y-96960986D01*
X164885134Y-96734866D01*
X164665000Y-96554207D01*
X164665000Y-96307018D01*
X164669040Y-96266000D01*
X164652918Y-96102311D01*
X164605172Y-95944913D01*
X164527636Y-95799854D01*
X164423291Y-95672709D01*
X164391426Y-95646558D01*
X163433446Y-94688579D01*
X163407291Y-94656709D01*
X163280146Y-94552364D01*
X163135087Y-94474828D01*
X162977689Y-94427082D01*
X162855019Y-94415000D01*
X162855018Y-94415000D01*
X162814000Y-94410960D01*
X162772982Y-94415000D01*
X144512608Y-94415000D01*
X144436242Y-94338634D01*
X144687868Y-94257975D01*
X144816267Y-93989671D01*
X144889855Y-93701474D01*
X144905804Y-93404457D01*
X144863501Y-93110037D01*
X144764572Y-92829526D01*
X144687868Y-92686025D01*
X144436240Y-92605365D01*
X143569605Y-93472000D01*
X143583748Y-93486143D01*
X143404143Y-93665748D01*
X143390000Y-93651605D01*
X143375858Y-93665748D01*
X143196253Y-93486143D01*
X143210395Y-93472000D01*
X142343760Y-92605365D01*
X142165232Y-92662593D01*
X142062893Y-92509431D01*
X141979222Y-92425760D01*
X142523365Y-92425760D01*
X143390000Y-93292395D01*
X144256635Y-92425760D01*
X144175975Y-92174132D01*
X143907671Y-92045733D01*
X143619474Y-91972145D01*
X143322457Y-91956196D01*
X143028037Y-91998499D01*
X142747526Y-92097428D01*
X142604025Y-92174132D01*
X142523365Y-92425760D01*
X141979222Y-92425760D01*
X141852569Y-92299107D01*
X141605253Y-92133856D01*
X141330451Y-92020029D01*
X141038722Y-91962000D01*
X140741278Y-91962000D01*
X140449549Y-92020029D01*
X140174747Y-92133856D01*
X139927431Y-92299107D01*
X139717107Y-92509431D01*
X139640000Y-92624830D01*
X139562893Y-92509431D01*
X139352569Y-92299107D01*
X139105253Y-92133856D01*
X138830451Y-92020029D01*
X138538722Y-91962000D01*
X138241278Y-91962000D01*
X137949549Y-92020029D01*
X137674747Y-92133856D01*
X137427431Y-92299107D01*
X137358974Y-92367564D01*
X137354502Y-92352820D01*
X137295537Y-92242506D01*
X137216185Y-92145815D01*
X137119494Y-92066463D01*
X137009180Y-92007498D01*
X136889482Y-91971188D01*
X136765000Y-91958928D01*
X135015000Y-91958928D01*
X134890518Y-91971188D01*
X134770820Y-92007498D01*
X134660506Y-92066463D01*
X134563815Y-92145815D01*
X134484463Y-92242506D01*
X134425498Y-92352820D01*
X134389188Y-92472518D01*
X134376928Y-92597000D01*
X134376928Y-94347000D01*
X134389188Y-94471482D01*
X134425498Y-94591180D01*
X134484463Y-94701494D01*
X134563815Y-94798185D01*
X134660506Y-94877537D01*
X134770820Y-94936502D01*
X134890518Y-94972812D01*
X135015000Y-94985072D01*
X136765000Y-94985072D01*
X136889482Y-94972812D01*
X137009180Y-94936502D01*
X137119494Y-94877537D01*
X137216185Y-94798185D01*
X137295537Y-94701494D01*
X137354502Y-94591180D01*
X137358974Y-94576436D01*
X137427431Y-94644893D01*
X137674747Y-94810144D01*
X137949549Y-94923971D01*
X138241278Y-94982000D01*
X138538722Y-94982000D01*
X138830451Y-94923971D01*
X139105253Y-94810144D01*
X139352569Y-94644893D01*
X139562893Y-94434569D01*
X139640000Y-94319170D01*
X139717107Y-94434569D01*
X139850553Y-94568015D01*
X139241569Y-95177000D01*
X127298433Y-95177000D01*
X126689447Y-94568015D01*
X126739222Y-94518240D01*
X127283365Y-94518240D01*
X127364025Y-94769868D01*
X127632329Y-94898267D01*
X127920526Y-94971855D01*
X128217543Y-94987804D01*
X128511963Y-94945501D01*
X128792474Y-94846572D01*
X128935975Y-94769868D01*
X129016635Y-94518240D01*
X128150000Y-93651605D01*
X127283365Y-94518240D01*
X126739222Y-94518240D01*
X126822893Y-94434569D01*
X126925232Y-94281407D01*
X127103760Y-94338635D01*
X127970395Y-93472000D01*
X128329605Y-93472000D01*
X129196240Y-94338635D01*
X129447868Y-94257975D01*
X129576267Y-93989671D01*
X129649855Y-93701474D01*
X129665804Y-93404457D01*
X129623501Y-93110037D01*
X129524572Y-92829526D01*
X129447868Y-92686025D01*
X129196240Y-92605365D01*
X128329605Y-93472000D01*
X127970395Y-93472000D01*
X127103760Y-92605365D01*
X126925232Y-92662593D01*
X126822893Y-92509431D01*
X126739222Y-92425760D01*
X127283365Y-92425760D01*
X128150000Y-93292395D01*
X129016635Y-92425760D01*
X128935975Y-92174132D01*
X128667671Y-92045733D01*
X128379474Y-91972145D01*
X128082457Y-91956196D01*
X127788037Y-91998499D01*
X127507526Y-92097428D01*
X127364025Y-92174132D01*
X127283365Y-92425760D01*
X126739222Y-92425760D01*
X126612569Y-92299107D01*
X126365253Y-92133856D01*
X126090451Y-92020029D01*
X125798722Y-91962000D01*
X125501278Y-91962000D01*
X125209549Y-92020029D01*
X124934747Y-92133856D01*
X124687431Y-92299107D01*
X124477107Y-92509431D01*
X124400000Y-92624830D01*
X124322893Y-92509431D01*
X124112569Y-92299107D01*
X123865253Y-92133856D01*
X123590451Y-92020029D01*
X123298722Y-91962000D01*
X123001278Y-91962000D01*
X122709549Y-92020029D01*
X122434747Y-92133856D01*
X122187431Y-92299107D01*
X122118974Y-92367564D01*
X122114502Y-92352820D01*
X122055537Y-92242506D01*
X121976185Y-92145815D01*
X121879494Y-92066463D01*
X121769180Y-92007498D01*
X121649482Y-91971188D01*
X121525000Y-91958928D01*
X119775000Y-91958928D01*
X119650518Y-91971188D01*
X119530820Y-92007498D01*
X119420506Y-92066463D01*
X119323815Y-92145815D01*
X119244463Y-92242506D01*
X119185498Y-92352820D01*
X119149188Y-92472518D01*
X119136928Y-92597000D01*
X119136928Y-94347000D01*
X119149188Y-94471482D01*
X119185498Y-94591180D01*
X119244463Y-94701494D01*
X119323815Y-94798185D01*
X119420506Y-94877537D01*
X119530820Y-94936502D01*
X119650518Y-94972812D01*
X119775000Y-94985072D01*
X121525000Y-94985072D01*
X121649482Y-94972812D01*
X121769180Y-94936502D01*
X121879494Y-94877537D01*
X121976185Y-94798185D01*
X122055537Y-94701494D01*
X122114502Y-94591180D01*
X122118974Y-94576436D01*
X122187431Y-94644893D01*
X122434747Y-94810144D01*
X122709549Y-94923971D01*
X123001278Y-94982000D01*
X123298722Y-94982000D01*
X123590451Y-94923971D01*
X123865253Y-94810144D01*
X124112569Y-94644893D01*
X124322893Y-94434569D01*
X124400000Y-94319170D01*
X124477107Y-94434569D01*
X124687431Y-94644893D01*
X124812857Y-94728700D01*
X124827082Y-94873124D01*
X124874828Y-95030522D01*
X124874829Y-95030523D01*
X124952365Y-95175582D01*
X125056710Y-95302727D01*
X125088574Y-95328877D01*
X126333127Y-96573432D01*
X126359273Y-96605291D01*
X126486418Y-96709636D01*
X126631477Y-96787172D01*
X126788875Y-96834918D01*
X126911545Y-96847000D01*
X126911546Y-96847000D01*
X126952564Y-96851040D01*
X126993582Y-96847000D01*
X139546418Y-96847000D01*
X139587436Y-96851040D01*
X139628454Y-96847000D01*
X139628455Y-96847000D01*
X139751125Y-96834918D01*
X139908523Y-96787172D01*
X140053582Y-96709636D01*
X140180727Y-96605291D01*
X140206882Y-96573422D01*
X140892055Y-95888249D01*
X140961100Y-95944913D01*
X140964418Y-95947636D01*
X141109477Y-96025172D01*
X141266875Y-96072918D01*
X141430564Y-96089040D01*
X141471582Y-96085000D01*
X162468133Y-96085000D01*
X162963330Y-96580198D01*
X162774866Y-96734866D01*
X162589294Y-96960986D01*
X162560000Y-97015791D01*
X162530706Y-96960986D01*
X162345134Y-96734866D01*
X162119014Y-96549294D01*
X161861034Y-96411401D01*
X161581111Y-96326487D01*
X161362950Y-96305000D01*
X161217050Y-96305000D01*
X160998889Y-96326487D01*
X160718966Y-96411401D01*
X160460986Y-96549294D01*
X160234866Y-96734866D01*
X160049294Y-96960986D01*
X160014799Y-97025523D01*
X159945178Y-96908645D01*
X159750269Y-96692412D01*
X159516920Y-96518359D01*
X159254099Y-96393175D01*
X159106890Y-96348524D01*
X158877000Y-96469845D01*
X158877000Y-97663000D01*
X158897000Y-97663000D01*
X158897000Y-97917000D01*
X158877000Y-97917000D01*
X158877000Y-99110155D01*
X159106890Y-99231476D01*
X159254099Y-99186825D01*
X159516920Y-99061641D01*
X159750269Y-98887588D01*
X159945178Y-98671355D01*
X160014799Y-98554477D01*
X160049294Y-98619014D01*
X160234866Y-98845134D01*
X160460986Y-99030706D01*
X160718966Y-99168599D01*
X160998889Y-99253513D01*
X161217050Y-99275000D01*
X161362950Y-99275000D01*
X161581111Y-99253513D01*
X161861034Y-99168599D01*
X162119014Y-99030706D01*
X162345134Y-98845134D01*
X162530706Y-98619014D01*
X162560000Y-98564209D01*
X162589294Y-98619014D01*
X162774866Y-98845134D01*
X163000986Y-99030706D01*
X163258966Y-99168599D01*
X163538889Y-99253513D01*
X163757050Y-99275000D01*
X163902950Y-99275000D01*
X164121111Y-99253513D01*
X164401034Y-99168599D01*
X164659014Y-99030706D01*
X164885134Y-98845134D01*
X165070706Y-98619014D01*
X165100000Y-98564209D01*
X165129294Y-98619014D01*
X165314866Y-98845134D01*
X165540986Y-99030706D01*
X165798966Y-99168599D01*
X166078889Y-99253513D01*
X166297050Y-99275000D01*
X166442950Y-99275000D01*
X166661111Y-99253513D01*
X166941034Y-99168599D01*
X167199014Y-99030706D01*
X167425134Y-98845134D01*
X167610706Y-98619014D01*
X167640000Y-98564209D01*
X167669294Y-98619014D01*
X167854866Y-98845134D01*
X168080986Y-99030706D01*
X168338966Y-99168599D01*
X168618889Y-99253513D01*
X168837050Y-99275000D01*
X168982950Y-99275000D01*
X169201111Y-99253513D01*
X169481034Y-99168599D01*
X169739014Y-99030706D01*
X169965134Y-98845134D01*
X170150706Y-98619014D01*
X170180000Y-98564209D01*
X170209294Y-98619014D01*
X170394866Y-98845134D01*
X170620986Y-99030706D01*
X170690001Y-99067595D01*
X170690001Y-99253197D01*
X170119199Y-99824000D01*
X154234622Y-99824000D01*
X154304974Y-99738276D01*
X154375546Y-99606247D01*
X154419003Y-99462986D01*
X154430000Y-99351333D01*
X154430000Y-99351324D01*
X154433676Y-99314001D01*
X154430000Y-99276678D01*
X154430000Y-99067595D01*
X154499014Y-99030706D01*
X154725134Y-98845134D01*
X154910706Y-98619014D01*
X154940000Y-98564209D01*
X154969294Y-98619014D01*
X155154866Y-98845134D01*
X155380986Y-99030706D01*
X155638966Y-99168599D01*
X155918889Y-99253513D01*
X156137050Y-99275000D01*
X156282950Y-99275000D01*
X156501111Y-99253513D01*
X156781034Y-99168599D01*
X157039014Y-99030706D01*
X157265134Y-98845134D01*
X157450706Y-98619014D01*
X157485201Y-98554477D01*
X157554822Y-98671355D01*
X157749731Y-98887588D01*
X157983080Y-99061641D01*
X158245901Y-99186825D01*
X158393110Y-99231476D01*
X158623000Y-99110155D01*
X158623000Y-97917000D01*
X158603000Y-97917000D01*
X158603000Y-97663000D01*
X158623000Y-97663000D01*
X158623000Y-96469845D01*
X158393110Y-96348524D01*
X158245901Y-96393175D01*
X157983080Y-96518359D01*
X157749731Y-96692412D01*
X157554822Y-96908645D01*
X157485201Y-97025523D01*
X157450706Y-96960986D01*
X157265134Y-96734866D01*
X157039014Y-96549294D01*
X156781034Y-96411401D01*
X156501111Y-96326487D01*
X156282950Y-96305000D01*
X156137050Y-96305000D01*
X155918889Y-96326487D01*
X155638966Y-96411401D01*
X155380986Y-96549294D01*
X155154866Y-96734866D01*
X154969294Y-96960986D01*
X154940000Y-97015791D01*
X154910706Y-96960986D01*
X154725134Y-96734866D01*
X154499014Y-96549294D01*
X154241034Y-96411401D01*
X153961111Y-96326487D01*
X153742950Y-96305000D01*
X153597050Y-96305000D01*
X153378889Y-96326487D01*
X153098966Y-96411401D01*
X152840986Y-96549294D01*
X152614866Y-96734866D01*
X152429294Y-96960986D01*
X152400000Y-97015791D01*
X152370706Y-96960986D01*
X152185134Y-96734866D01*
X151959014Y-96549294D01*
X151701034Y-96411401D01*
X151421111Y-96326487D01*
X151202950Y-96305000D01*
X151057050Y-96305000D01*
X150838889Y-96326487D01*
X150558966Y-96411401D01*
X150300986Y-96549294D01*
X150074866Y-96734866D01*
X149889294Y-96960986D01*
X149751401Y-97218966D01*
X149666487Y-97498889D01*
X149637815Y-97790000D01*
X149666487Y-98081111D01*
X149751401Y-98361034D01*
X149889294Y-98619014D01*
X150074866Y-98845134D01*
X150300986Y-99030706D01*
X150370000Y-99067595D01*
X150370001Y-100777197D01*
X150275722Y-100871476D01*
X150269205Y-100855744D01*
X150155937Y-100686226D01*
X150011774Y-100542063D01*
X149842256Y-100428795D01*
X149653898Y-100350774D01*
X149453939Y-100311000D01*
X149250061Y-100311000D01*
X149050102Y-100350774D01*
X148861744Y-100428795D01*
X148692226Y-100542063D01*
X148648289Y-100586000D01*
X144332802Y-100586000D01*
X143203803Y-99457002D01*
X143180000Y-99427998D01*
X143064275Y-99333025D01*
X142932246Y-99262453D01*
X142788985Y-99218996D01*
X142677332Y-99207999D01*
X142677321Y-99207999D01*
X142639999Y-99204323D01*
X142602677Y-99207999D01*
X127463159Y-99207999D01*
X127409205Y-99077744D01*
X127295937Y-98908226D01*
X127151774Y-98764063D01*
X126982256Y-98650795D01*
X126793898Y-98572774D01*
X126593939Y-98533000D01*
X126390061Y-98533000D01*
X126190102Y-98572774D01*
X126001744Y-98650795D01*
X125832226Y-98764063D01*
X125688063Y-98908226D01*
X125574795Y-99077744D01*
X125496774Y-99266102D01*
X125457000Y-99466061D01*
X125457000Y-99669939D01*
X125487644Y-99824000D01*
X123481325Y-99824000D01*
X123444000Y-99820324D01*
X123406675Y-99824000D01*
X123406667Y-99824000D01*
X123295014Y-99834997D01*
X123151753Y-99878454D01*
X123019724Y-99949026D01*
X122903999Y-100043999D01*
X122880201Y-100072998D01*
X122642198Y-100311000D01*
X122580061Y-100311000D01*
X122380102Y-100350774D01*
X122191744Y-100428795D01*
X122022226Y-100542063D01*
X121878063Y-100686226D01*
X121764795Y-100855744D01*
X121686774Y-101044102D01*
X121647000Y-101244061D01*
X121647000Y-101447939D01*
X121686774Y-101647898D01*
X121764795Y-101836256D01*
X121878063Y-102005774D01*
X122022226Y-102149937D01*
X122191744Y-102263205D01*
X122380102Y-102341226D01*
X122580061Y-102381000D01*
X122783939Y-102381000D01*
X122983898Y-102341226D01*
X123172256Y-102263205D01*
X123341774Y-102149937D01*
X123485937Y-102005774D01*
X123599205Y-101836256D01*
X123677226Y-101647898D01*
X123717000Y-101447939D01*
X123717000Y-101385802D01*
X123758802Y-101344000D01*
X141417199Y-101344000D01*
X142946201Y-102873003D01*
X142969999Y-102902001D01*
X143085724Y-102996974D01*
X143217753Y-103067546D01*
X143361014Y-103111003D01*
X143472667Y-103122000D01*
X143472675Y-103122000D01*
X143510000Y-103125676D01*
X143547325Y-103122000D01*
X147632289Y-103122000D01*
X147676226Y-103165937D01*
X147845744Y-103279205D01*
X147861477Y-103285722D01*
X138115199Y-113032000D01*
X137834267Y-113032000D01*
X137906635Y-112806240D01*
X137040000Y-111939605D01*
X136173365Y-112806240D01*
X136245733Y-113032000D01*
X135354245Y-113032000D01*
X135502569Y-112932893D01*
X135712893Y-112722569D01*
X135815232Y-112569407D01*
X135993760Y-112626635D01*
X136860395Y-111760000D01*
X137219605Y-111760000D01*
X138086240Y-112626635D01*
X138337868Y-112545975D01*
X138466267Y-112277671D01*
X138539855Y-111989474D01*
X138555804Y-111692457D01*
X138513501Y-111398037D01*
X138414572Y-111117526D01*
X138337868Y-110974025D01*
X138086240Y-110893365D01*
X137219605Y-111760000D01*
X136860395Y-111760000D01*
X135993760Y-110893365D01*
X135815232Y-110950593D01*
X135712893Y-110797431D01*
X135629222Y-110713760D01*
X136173365Y-110713760D01*
X137040000Y-111580395D01*
X137906635Y-110713760D01*
X137825975Y-110462132D01*
X137557671Y-110333733D01*
X137269474Y-110260145D01*
X136972457Y-110244196D01*
X136678037Y-110286499D01*
X136397526Y-110385428D01*
X136254025Y-110462132D01*
X136173365Y-110713760D01*
X135629222Y-110713760D01*
X135502569Y-110587107D01*
X135255253Y-110421856D01*
X134980451Y-110308029D01*
X134688722Y-110250000D01*
X134391278Y-110250000D01*
X134099549Y-110308029D01*
X133824747Y-110421856D01*
X133577431Y-110587107D01*
X133367107Y-110797431D01*
X133290000Y-110912830D01*
X133212893Y-110797431D01*
X133002569Y-110587107D01*
X132755253Y-110421856D01*
X132480451Y-110308029D01*
X132188722Y-110250000D01*
X131891278Y-110250000D01*
X131599549Y-110308029D01*
X131324747Y-110421856D01*
X131077431Y-110587107D01*
X131008974Y-110655564D01*
X131004502Y-110640820D01*
X130945537Y-110530506D01*
X130866185Y-110433815D01*
X130838614Y-110411188D01*
X131269802Y-109980000D01*
X132804678Y-109980000D01*
X132842000Y-109983676D01*
X132879322Y-109980000D01*
X132879333Y-109980000D01*
X132990986Y-109969003D01*
X133134247Y-109925546D01*
X133266276Y-109854974D01*
X133382001Y-109760001D01*
X133405804Y-109730997D01*
X136183802Y-106953000D01*
X136245939Y-106953000D01*
X136445898Y-106913226D01*
X136634256Y-106835205D01*
X136803774Y-106721937D01*
X136947937Y-106577774D01*
X137033000Y-106450468D01*
X137118063Y-106577774D01*
X137262226Y-106721937D01*
X137431744Y-106835205D01*
X137620102Y-106913226D01*
X137820061Y-106953000D01*
X138023939Y-106953000D01*
X138223898Y-106913226D01*
X138412256Y-106835205D01*
X138581774Y-106721937D01*
X138625711Y-106678000D01*
X141282289Y-106678000D01*
X141326226Y-106721937D01*
X141495744Y-106835205D01*
X141684102Y-106913226D01*
X141884061Y-106953000D01*
X142087939Y-106953000D01*
X142287898Y-106913226D01*
X142476256Y-106835205D01*
X142645774Y-106721937D01*
X142789937Y-106577774D01*
X142903205Y-106408256D01*
X142981226Y-106219898D01*
X143021000Y-106019939D01*
X143021000Y-105816061D01*
X142981226Y-105616102D01*
X142903205Y-105427744D01*
X142789937Y-105258226D01*
X142645774Y-105114063D01*
X142476256Y-105000795D01*
X142287898Y-104922774D01*
X142087939Y-104883000D01*
X141884061Y-104883000D01*
X141684102Y-104922774D01*
X141495744Y-105000795D01*
X141326226Y-105114063D01*
X141282289Y-105158000D01*
X138625711Y-105158000D01*
X138581774Y-105114063D01*
X138412256Y-105000795D01*
X138223898Y-104922774D01*
X138023939Y-104883000D01*
X137820061Y-104883000D01*
X137620102Y-104922774D01*
X137431744Y-105000795D01*
X137262226Y-105114063D01*
X137118063Y-105258226D01*
X137033000Y-105385532D01*
X136947937Y-105258226D01*
X136803774Y-105114063D01*
X136634256Y-105000795D01*
X136445898Y-104922774D01*
X136245939Y-104883000D01*
X136042061Y-104883000D01*
X135842102Y-104922774D01*
X135653744Y-105000795D01*
X135484226Y-105114063D01*
X135340063Y-105258226D01*
X135226795Y-105427744D01*
X135148774Y-105616102D01*
X135109000Y-105816061D01*
X135109000Y-105878198D01*
X132527199Y-108460000D01*
X130992322Y-108460000D01*
X130954999Y-108456324D01*
X130917676Y-108460000D01*
X130917667Y-108460000D01*
X130806014Y-108470997D01*
X130662753Y-108514454D01*
X130530724Y-108585026D01*
X130414999Y-108679999D01*
X130391201Y-108708997D01*
X129029003Y-110071196D01*
X128999999Y-110094999D01*
X128944871Y-110162174D01*
X128905026Y-110210724D01*
X128885674Y-110246928D01*
X128665000Y-110246928D01*
X128540518Y-110259188D01*
X128420820Y-110295498D01*
X128310506Y-110354463D01*
X128213815Y-110433815D01*
X128134463Y-110530506D01*
X128075498Y-110640820D01*
X128039188Y-110760518D01*
X128026928Y-110885000D01*
X128026928Y-112635000D01*
X128039188Y-112759482D01*
X128075498Y-112879180D01*
X128134463Y-112989494D01*
X128169347Y-113032000D01*
X122594267Y-113032000D01*
X122666635Y-112806240D01*
X121800000Y-111939605D01*
X120933365Y-112806240D01*
X121005733Y-113032000D01*
X120114245Y-113032000D01*
X120262569Y-112932893D01*
X120472893Y-112722569D01*
X120575232Y-112569407D01*
X120753760Y-112626635D01*
X121620395Y-111760000D01*
X121979605Y-111760000D01*
X122846240Y-112626635D01*
X123097868Y-112545975D01*
X123226267Y-112277671D01*
X123299855Y-111989474D01*
X123315804Y-111692457D01*
X123273501Y-111398037D01*
X123174572Y-111117526D01*
X123097868Y-110974025D01*
X122846240Y-110893365D01*
X121979605Y-111760000D01*
X121620395Y-111760000D01*
X120753760Y-110893365D01*
X120575232Y-110950593D01*
X120472893Y-110797431D01*
X120389222Y-110713760D01*
X120933365Y-110713760D01*
X121800000Y-111580395D01*
X122666635Y-110713760D01*
X122585975Y-110462132D01*
X122317671Y-110333733D01*
X122029474Y-110260145D01*
X121732457Y-110244196D01*
X121438037Y-110286499D01*
X121157526Y-110385428D01*
X121014025Y-110462132D01*
X120933365Y-110713760D01*
X120389222Y-110713760D01*
X120262569Y-110587107D01*
X120015253Y-110421856D01*
X119740451Y-110308029D01*
X119448722Y-110250000D01*
X119151278Y-110250000D01*
X118859549Y-110308029D01*
X118584747Y-110421856D01*
X118337431Y-110587107D01*
X118127107Y-110797431D01*
X118050000Y-110912830D01*
X117972893Y-110797431D01*
X117762569Y-110587107D01*
X117515253Y-110421856D01*
X117240451Y-110308029D01*
X116948722Y-110250000D01*
X116651278Y-110250000D01*
X116359549Y-110308029D01*
X116084747Y-110421856D01*
X115837431Y-110587107D01*
X115768974Y-110655564D01*
X115764502Y-110640820D01*
X115705537Y-110530506D01*
X115626185Y-110433815D01*
X115598614Y-110411188D01*
X116029802Y-109980000D01*
X117564678Y-109980000D01*
X117602000Y-109983676D01*
X117639322Y-109980000D01*
X117639333Y-109980000D01*
X117750986Y-109969003D01*
X117894247Y-109925546D01*
X118026276Y-109854974D01*
X118142001Y-109760001D01*
X118165804Y-109730997D01*
X120943802Y-106953000D01*
X121005939Y-106953000D01*
X121205898Y-106913226D01*
X121394256Y-106835205D01*
X121563774Y-106721937D01*
X121707937Y-106577774D01*
X121821205Y-106408256D01*
X121899226Y-106219898D01*
X121939000Y-106019939D01*
X121939000Y-105816061D01*
X121899226Y-105616102D01*
X121821205Y-105427744D01*
X121707937Y-105258226D01*
X121563774Y-105114063D01*
X121394256Y-105000795D01*
X121205898Y-104922774D01*
X121005939Y-104883000D01*
X120802061Y-104883000D01*
X120602102Y-104922774D01*
X120413744Y-105000795D01*
X120244226Y-105114063D01*
X120100063Y-105258226D01*
X119986795Y-105427744D01*
X119908774Y-105616102D01*
X119869000Y-105816061D01*
X119869000Y-105878198D01*
X117287199Y-108460000D01*
X115752322Y-108460000D01*
X115714999Y-108456324D01*
X115677676Y-108460000D01*
X115677667Y-108460000D01*
X115566014Y-108470997D01*
X115422753Y-108514454D01*
X115290724Y-108585026D01*
X115174999Y-108679999D01*
X115151201Y-108708997D01*
X113789003Y-110071196D01*
X113759999Y-110094999D01*
X113704871Y-110162174D01*
X113665026Y-110210724D01*
X113645674Y-110246928D01*
X113425000Y-110246928D01*
X113300518Y-110259188D01*
X113180820Y-110295498D01*
X113070506Y-110354463D01*
X112973815Y-110433815D01*
X112894463Y-110530506D01*
X112835498Y-110640820D01*
X112799188Y-110760518D01*
X112786928Y-110885000D01*
X112786928Y-112635000D01*
X112799188Y-112759482D01*
X112835498Y-112879180D01*
X112894463Y-112989494D01*
X112973815Y-113086185D01*
X113070506Y-113165537D01*
X113180820Y-113224502D01*
X113300518Y-113260812D01*
X113425000Y-113273072D01*
X115175000Y-113273072D01*
X115299482Y-113260812D01*
X115419180Y-113224502D01*
X115529494Y-113165537D01*
X115626185Y-113086185D01*
X115705537Y-112989494D01*
X115764502Y-112879180D01*
X115768974Y-112864436D01*
X115837431Y-112932893D01*
X116084747Y-113098144D01*
X116359549Y-113211971D01*
X116651278Y-113270000D01*
X116948722Y-113270000D01*
X117240451Y-113211971D01*
X117515253Y-113098144D01*
X117762569Y-112932893D01*
X117972893Y-112722569D01*
X118050000Y-112607170D01*
X118127107Y-112722569D01*
X118337431Y-112932893D01*
X118572808Y-113090166D01*
X118447723Y-113157026D01*
X118380773Y-113211971D01*
X118331999Y-113251999D01*
X118308201Y-113280997D01*
X117344998Y-114244201D01*
X117316000Y-114267999D01*
X117292202Y-114296997D01*
X117292201Y-114296998D01*
X117221026Y-114383724D01*
X117150454Y-114515754D01*
X117106998Y-114659015D01*
X117092324Y-114808000D01*
X117096001Y-114845332D01*
X117096000Y-116136289D01*
X117052063Y-116180226D01*
X116938795Y-116349744D01*
X116860774Y-116538102D01*
X116821000Y-116738061D01*
X116821000Y-116941939D01*
X116860774Y-117141898D01*
X116938795Y-117330256D01*
X117052063Y-117499774D01*
X117196226Y-117643937D01*
X117365744Y-117757205D01*
X117554102Y-117835226D01*
X117754061Y-117875000D01*
X117957939Y-117875000D01*
X118157898Y-117835226D01*
X118346256Y-117757205D01*
X118515774Y-117643937D01*
X118659937Y-117499774D01*
X118773205Y-117330256D01*
X118851226Y-117141898D01*
X118891000Y-116941939D01*
X118891000Y-116738061D01*
X118851226Y-116538102D01*
X118773205Y-116349744D01*
X118659937Y-116180226D01*
X118616000Y-116136289D01*
X118616000Y-115122801D01*
X119186802Y-114552000D01*
X120593199Y-114552000D01*
X120393002Y-114752196D01*
X120363999Y-114775999D01*
X120311474Y-114840001D01*
X120269026Y-114891724D01*
X120203104Y-115015055D01*
X120198454Y-115023754D01*
X120154997Y-115167015D01*
X120144000Y-115278668D01*
X120144000Y-115278678D01*
X120140324Y-115316000D01*
X120144000Y-115353323D01*
X120144001Y-120335197D01*
X119319199Y-121160000D01*
X115702335Y-121160000D01*
X115665002Y-121156323D01*
X115627669Y-121160000D01*
X115516016Y-121170997D01*
X115372755Y-121214454D01*
X115240726Y-121285026D01*
X115125001Y-121379999D01*
X115101203Y-121408997D01*
X113716004Y-122794197D01*
X113687000Y-122818000D01*
X113658871Y-122852276D01*
X113592027Y-122933725D01*
X113572675Y-122969929D01*
X113352001Y-122969929D01*
X113227519Y-122982189D01*
X113107821Y-123018499D01*
X112997507Y-123077464D01*
X112900816Y-123156816D01*
X112821464Y-123253507D01*
X112762499Y-123363821D01*
X112726189Y-123483519D01*
X112713929Y-123608001D01*
X103580000Y-123608001D01*
X103580000Y-91219872D01*
X104445000Y-91219872D01*
X104445000Y-91660128D01*
X104530890Y-92091925D01*
X104699369Y-92498669D01*
X104943962Y-92864729D01*
X105255271Y-93176038D01*
X105621331Y-93420631D01*
X106028075Y-93589110D01*
X106459872Y-93675000D01*
X106900128Y-93675000D01*
X107331925Y-93589110D01*
X107738669Y-93420631D01*
X108104729Y-93176038D01*
X108416038Y-92864729D01*
X108660631Y-92498669D01*
X108829110Y-92091925D01*
X108915000Y-91660128D01*
X108915000Y-91219872D01*
X108829110Y-90788075D01*
X108736710Y-90565000D01*
X178826928Y-90565000D01*
X178826928Y-92315000D01*
X178839188Y-92439482D01*
X178875498Y-92559180D01*
X178934463Y-92669494D01*
X179013815Y-92766185D01*
X179110506Y-92845537D01*
X179220820Y-92904502D01*
X179340518Y-92940812D01*
X179465000Y-92953072D01*
X181215000Y-92953072D01*
X181339482Y-92940812D01*
X181459180Y-92904502D01*
X181569494Y-92845537D01*
X181666185Y-92766185D01*
X181745537Y-92669494D01*
X181804502Y-92559180D01*
X181806772Y-92551698D01*
X181857341Y-92602267D01*
X181973366Y-92486242D01*
X182054025Y-92737868D01*
X182322329Y-92866267D01*
X182610526Y-92939855D01*
X182907543Y-92955804D01*
X183201963Y-92913501D01*
X183482474Y-92814572D01*
X183625975Y-92737868D01*
X183706635Y-92486240D01*
X182840000Y-91619605D01*
X182825858Y-91633748D01*
X182646253Y-91454143D01*
X182660395Y-91440000D01*
X183019605Y-91440000D01*
X183886240Y-92306635D01*
X184137868Y-92225975D01*
X184266267Y-91957671D01*
X184339855Y-91669474D01*
X184355804Y-91372457D01*
X184333881Y-91219872D01*
X189535000Y-91219872D01*
X189535000Y-91660128D01*
X189620890Y-92091925D01*
X189789369Y-92498669D01*
X190033962Y-92864729D01*
X190345271Y-93176038D01*
X190711331Y-93420631D01*
X191118075Y-93589110D01*
X191549872Y-93675000D01*
X191990128Y-93675000D01*
X192421925Y-93589110D01*
X192828669Y-93420631D01*
X193194729Y-93176038D01*
X193506038Y-92864729D01*
X193750631Y-92498669D01*
X193919110Y-92091925D01*
X194005000Y-91660128D01*
X194005000Y-91219872D01*
X193919110Y-90788075D01*
X193750631Y-90381331D01*
X193506038Y-90015271D01*
X193194729Y-89703962D01*
X192828669Y-89459369D01*
X192421925Y-89290890D01*
X191990128Y-89205000D01*
X191549872Y-89205000D01*
X191118075Y-89290890D01*
X190711331Y-89459369D01*
X190345271Y-89703962D01*
X190033962Y-90015271D01*
X189789369Y-90381331D01*
X189620890Y-90788075D01*
X189535000Y-91219872D01*
X184333881Y-91219872D01*
X184313501Y-91078037D01*
X184214572Y-90797526D01*
X184137868Y-90654025D01*
X183886240Y-90573365D01*
X183019605Y-91440000D01*
X182660395Y-91440000D01*
X182646253Y-91425858D01*
X182825858Y-91246253D01*
X182840000Y-91260395D01*
X183706635Y-90393760D01*
X183625975Y-90142132D01*
X183357671Y-90013733D01*
X183069474Y-89940145D01*
X182772457Y-89924196D01*
X182478037Y-89966499D01*
X182197526Y-90065428D01*
X182054025Y-90142132D01*
X181973366Y-90393758D01*
X181857341Y-90277733D01*
X181806772Y-90328302D01*
X181804502Y-90320820D01*
X181745537Y-90210506D01*
X181666185Y-90113815D01*
X181569494Y-90034463D01*
X181459180Y-89975498D01*
X181339482Y-89939188D01*
X181215000Y-89926928D01*
X179465000Y-89926928D01*
X179340518Y-89939188D01*
X179220820Y-89975498D01*
X179110506Y-90034463D01*
X179013815Y-90113815D01*
X178934463Y-90210506D01*
X178875498Y-90320820D01*
X178839188Y-90440518D01*
X178826928Y-90565000D01*
X108736710Y-90565000D01*
X108660631Y-90381331D01*
X108416038Y-90015271D01*
X108104729Y-89703962D01*
X107738669Y-89459369D01*
X107331925Y-89290890D01*
X106900128Y-89205000D01*
X106459872Y-89205000D01*
X106028075Y-89290890D01*
X105621331Y-89459369D01*
X105255271Y-89703962D01*
X104943962Y-90015271D01*
X104699369Y-90381331D01*
X104530890Y-90788075D01*
X104445000Y-91219872D01*
X103580000Y-91219872D01*
X103580000Y-88340000D01*
X194870000Y-88340000D01*
X194870001Y-141530000D01*
G36*
X159595724Y-111124974D02*
G01*
X159727753Y-111195546D01*
X159871014Y-111239003D01*
X159982667Y-111250000D01*
X159982676Y-111250000D01*
X160019999Y-111253676D01*
X160057322Y-111250000D01*
X165293199Y-111250000D01*
X165610001Y-111566803D01*
X165610001Y-111752405D01*
X165540986Y-111789294D01*
X165314866Y-111974866D01*
X165129294Y-112200986D01*
X165094799Y-112265523D01*
X165025178Y-112148645D01*
X164830269Y-111932412D01*
X164596920Y-111758359D01*
X164334099Y-111633175D01*
X164186890Y-111588524D01*
X163957000Y-111709845D01*
X163957000Y-112903000D01*
X163977000Y-112903000D01*
X163977000Y-113157000D01*
X163957000Y-113157000D01*
X163957000Y-114350155D01*
X164186890Y-114471476D01*
X164334099Y-114426825D01*
X164596920Y-114301641D01*
X164830269Y-114127588D01*
X165025178Y-113911355D01*
X165094799Y-113794477D01*
X165129294Y-113859014D01*
X165314866Y-114085134D01*
X165540986Y-114270706D01*
X165798966Y-114408599D01*
X166078889Y-114493513D01*
X166297050Y-114515000D01*
X166442950Y-114515000D01*
X166661111Y-114493513D01*
X166941034Y-114408599D01*
X167199014Y-114270706D01*
X167425134Y-114085134D01*
X167610706Y-113859014D01*
X167640000Y-113804209D01*
X167669294Y-113859014D01*
X167854866Y-114085134D01*
X168080986Y-114270706D01*
X168338966Y-114408599D01*
X168618889Y-114493513D01*
X168837050Y-114515000D01*
X168982950Y-114515000D01*
X169201111Y-114493513D01*
X169481034Y-114408599D01*
X169739014Y-114270706D01*
X169965134Y-114085134D01*
X170150706Y-113859014D01*
X170180000Y-113804209D01*
X170209294Y-113859014D01*
X170394866Y-114085134D01*
X170620986Y-114270706D01*
X170690001Y-114307595D01*
X170690001Y-114747197D01*
X169357199Y-116080000D01*
X158533322Y-116080000D01*
X158495999Y-116076324D01*
X158458676Y-116080000D01*
X158458667Y-116080000D01*
X158347014Y-116090997D01*
X158203753Y-116134454D01*
X158071724Y-116205026D01*
X158071722Y-116205027D01*
X158071723Y-116205027D01*
X157984996Y-116276201D01*
X157984992Y-116276205D01*
X157955999Y-116299999D01*
X157932205Y-116328992D01*
X156460998Y-117800201D01*
X156432000Y-117823999D01*
X156408202Y-117852997D01*
X156408201Y-117852998D01*
X156337026Y-117939724D01*
X156266454Y-118071754D01*
X156254344Y-118111677D01*
X156222998Y-118215014D01*
X156218364Y-118262061D01*
X156208324Y-118364000D01*
X156212001Y-118401333D01*
X156212001Y-119323199D01*
X155414523Y-118525722D01*
X155430256Y-118519205D01*
X155599774Y-118405937D01*
X155743937Y-118261774D01*
X155857205Y-118092256D01*
X155935226Y-117903898D01*
X155975000Y-117703939D01*
X155975000Y-117500061D01*
X155935226Y-117300102D01*
X155857205Y-117111744D01*
X155743937Y-116942226D01*
X155599774Y-116798063D01*
X155430256Y-116684795D01*
X155241898Y-116606774D01*
X155041939Y-116567000D01*
X154979802Y-116567000D01*
X154430000Y-116017199D01*
X154430000Y-114307595D01*
X154499014Y-114270706D01*
X154725134Y-114085134D01*
X154910706Y-113859014D01*
X154940000Y-113804209D01*
X154969294Y-113859014D01*
X155154866Y-114085134D01*
X155380986Y-114270706D01*
X155638966Y-114408599D01*
X155918889Y-114493513D01*
X156137050Y-114515000D01*
X156282950Y-114515000D01*
X156501111Y-114493513D01*
X156781034Y-114408599D01*
X157039014Y-114270706D01*
X157265134Y-114085134D01*
X157450706Y-113859014D01*
X157480000Y-113804209D01*
X157509294Y-113859014D01*
X157694866Y-114085134D01*
X157920986Y-114270706D01*
X158178966Y-114408599D01*
X158458889Y-114493513D01*
X158677050Y-114515000D01*
X158822950Y-114515000D01*
X159041111Y-114493513D01*
X159321034Y-114408599D01*
X159579014Y-114270706D01*
X159805134Y-114085134D01*
X159990706Y-113859014D01*
X160020000Y-113804209D01*
X160049294Y-113859014D01*
X160234866Y-114085134D01*
X160460986Y-114270706D01*
X160718966Y-114408599D01*
X160998889Y-114493513D01*
X161217050Y-114515000D01*
X161362950Y-114515000D01*
X161581111Y-114493513D01*
X161861034Y-114408599D01*
X162119014Y-114270706D01*
X162345134Y-114085134D01*
X162530706Y-113859014D01*
X162565201Y-113794477D01*
X162634822Y-113911355D01*
X162829731Y-114127588D01*
X163063080Y-114301641D01*
X163325901Y-114426825D01*
X163473110Y-114471476D01*
X163703000Y-114350155D01*
X163703000Y-113157000D01*
X163683000Y-113157000D01*
X163683000Y-112903000D01*
X163703000Y-112903000D01*
X163703000Y-111709845D01*
X163473110Y-111588524D01*
X163325901Y-111633175D01*
X163063080Y-111758359D01*
X162829731Y-111932412D01*
X162634822Y-112148645D01*
X162565201Y-112265523D01*
X162530706Y-112200986D01*
X162345134Y-111974866D01*
X162119014Y-111789294D01*
X161861034Y-111651401D01*
X161581111Y-111566487D01*
X161362950Y-111545000D01*
X161217050Y-111545000D01*
X160998889Y-111566487D01*
X160718966Y-111651401D01*
X160460986Y-111789294D01*
X160234866Y-111974866D01*
X160049294Y-112200986D01*
X160020000Y-112255791D01*
X159990706Y-112200986D01*
X159805134Y-111974866D01*
X159579014Y-111789294D01*
X159510000Y-111752405D01*
X159510000Y-111054622D01*
X159595724Y-111124974D01*
X159595724Y-111124974D01*
G37*
X159595724Y-111124974D02*
X159727753Y-111195546D01*
X159871014Y-111239003D01*
X159982667Y-111250000D01*
X159982676Y-111250000D01*
X160019999Y-111253676D01*
X160057322Y-111250000D01*
X165293199Y-111250000D01*
X165610001Y-111566803D01*
X165610001Y-111752405D01*
X165540986Y-111789294D01*
X165314866Y-111974866D01*
X165129294Y-112200986D01*
X165094799Y-112265523D01*
X165025178Y-112148645D01*
X164830269Y-111932412D01*
X164596920Y-111758359D01*
X164334099Y-111633175D01*
X164186890Y-111588524D01*
X163957000Y-111709845D01*
X163957000Y-112903000D01*
X163977000Y-112903000D01*
X163977000Y-113157000D01*
X163957000Y-113157000D01*
X163957000Y-114350155D01*
X164186890Y-114471476D01*
X164334099Y-114426825D01*
X164596920Y-114301641D01*
X164830269Y-114127588D01*
X165025178Y-113911355D01*
X165094799Y-113794477D01*
X165129294Y-113859014D01*
X165314866Y-114085134D01*
X165540986Y-114270706D01*
X165798966Y-114408599D01*
X166078889Y-114493513D01*
X166297050Y-114515000D01*
X166442950Y-114515000D01*
X166661111Y-114493513D01*
X166941034Y-114408599D01*
X167199014Y-114270706D01*
X167425134Y-114085134D01*
X167610706Y-113859014D01*
X167640000Y-113804209D01*
X167669294Y-113859014D01*
X167854866Y-114085134D01*
X168080986Y-114270706D01*
X168338966Y-114408599D01*
X168618889Y-114493513D01*
X168837050Y-114515000D01*
X168982950Y-114515000D01*
X169201111Y-114493513D01*
X169481034Y-114408599D01*
X169739014Y-114270706D01*
X169965134Y-114085134D01*
X170150706Y-113859014D01*
X170180000Y-113804209D01*
X170209294Y-113859014D01*
X170394866Y-114085134D01*
X170620986Y-114270706D01*
X170690001Y-114307595D01*
X170690001Y-114747197D01*
X169357199Y-116080000D01*
X158533322Y-116080000D01*
X158495999Y-116076324D01*
X158458676Y-116080000D01*
X158458667Y-116080000D01*
X158347014Y-116090997D01*
X158203753Y-116134454D01*
X158071724Y-116205026D01*
X158071722Y-116205027D01*
X158071723Y-116205027D01*
X157984996Y-116276201D01*
X157984992Y-116276205D01*
X157955999Y-116299999D01*
X157932205Y-116328992D01*
X156460998Y-117800201D01*
X156432000Y-117823999D01*
X156408202Y-117852997D01*
X156408201Y-117852998D01*
X156337026Y-117939724D01*
X156266454Y-118071754D01*
X156254344Y-118111677D01*
X156222998Y-118215014D01*
X156218364Y-118262061D01*
X156208324Y-118364000D01*
X156212001Y-118401333D01*
X156212001Y-119323199D01*
X155414523Y-118525722D01*
X155430256Y-118519205D01*
X155599774Y-118405937D01*
X155743937Y-118261774D01*
X155857205Y-118092256D01*
X155935226Y-117903898D01*
X155975000Y-117703939D01*
X155975000Y-117500061D01*
X155935226Y-117300102D01*
X155857205Y-117111744D01*
X155743937Y-116942226D01*
X155599774Y-116798063D01*
X155430256Y-116684795D01*
X155241898Y-116606774D01*
X155041939Y-116567000D01*
X154979802Y-116567000D01*
X154430000Y-116017199D01*
X154430000Y-114307595D01*
X154499014Y-114270706D01*
X154725134Y-114085134D01*
X154910706Y-113859014D01*
X154940000Y-113804209D01*
X154969294Y-113859014D01*
X155154866Y-114085134D01*
X155380986Y-114270706D01*
X155638966Y-114408599D01*
X155918889Y-114493513D01*
X156137050Y-114515000D01*
X156282950Y-114515000D01*
X156501111Y-114493513D01*
X156781034Y-114408599D01*
X157039014Y-114270706D01*
X157265134Y-114085134D01*
X157450706Y-113859014D01*
X157480000Y-113804209D01*
X157509294Y-113859014D01*
X157694866Y-114085134D01*
X157920986Y-114270706D01*
X158178966Y-114408599D01*
X158458889Y-114493513D01*
X158677050Y-114515000D01*
X158822950Y-114515000D01*
X159041111Y-114493513D01*
X159321034Y-114408599D01*
X159579014Y-114270706D01*
X159805134Y-114085134D01*
X159990706Y-113859014D01*
X160020000Y-113804209D01*
X160049294Y-113859014D01*
X160234866Y-114085134D01*
X160460986Y-114270706D01*
X160718966Y-114408599D01*
X160998889Y-114493513D01*
X161217050Y-114515000D01*
X161362950Y-114515000D01*
X161581111Y-114493513D01*
X161861034Y-114408599D01*
X162119014Y-114270706D01*
X162345134Y-114085134D01*
X162530706Y-113859014D01*
X162565201Y-113794477D01*
X162634822Y-113911355D01*
X162829731Y-114127588D01*
X163063080Y-114301641D01*
X163325901Y-114426825D01*
X163473110Y-114471476D01*
X163703000Y-114350155D01*
X163703000Y-113157000D01*
X163683000Y-113157000D01*
X163683000Y-112903000D01*
X163703000Y-112903000D01*
X163703000Y-111709845D01*
X163473110Y-111588524D01*
X163325901Y-111633175D01*
X163063080Y-111758359D01*
X162829731Y-111932412D01*
X162634822Y-112148645D01*
X162565201Y-112265523D01*
X162530706Y-112200986D01*
X162345134Y-111974866D01*
X162119014Y-111789294D01*
X161861034Y-111651401D01*
X161581111Y-111566487D01*
X161362950Y-111545000D01*
X161217050Y-111545000D01*
X160998889Y-111566487D01*
X160718966Y-111651401D01*
X160460986Y-111789294D01*
X160234866Y-111974866D01*
X160049294Y-112200986D01*
X160020000Y-112255791D01*
X159990706Y-112200986D01*
X159805134Y-111974866D01*
X159579014Y-111789294D01*
X159510000Y-111752405D01*
X159510000Y-111054622D01*
X159595724Y-111124974D01*
M02*
