G04 #@! TF.GenerationSoftware,KiCad,Pcbnew,(5.0.0)*
G04 #@! TF.CreationDate,2019-10-27T01:28:06-04:00*
G04 #@! TF.ProjectId,Micro-Breakoutout,4D6963726F2D427265616B6F75746F75,rev?*
G04 #@! TF.SameCoordinates,Original*
G04 #@! TF.FileFunction,Copper,L2,Bot,Signal*
G04 #@! TF.FilePolarity,Positive*
%FSLAX46Y46*%
G04 Gerber Fmt 4.6, Leading zero omitted, Abs format (unit mm)*
G04 Created by KiCad (PCBNEW (5.0.0)) date 10/27/19 01:28:06*
%MOMM*%
%LPD*%
G01*
G04 APERTURE LIST*
G04 #@! TA.AperFunction,ComponentPad*
%ADD10O,1.700000X1.700000*%
G04 #@! TD*
G04 #@! TA.AperFunction,ComponentPad*
%ADD11R,1.700000X1.700000*%
G04 #@! TD*
G04 #@! TA.AperFunction,ComponentPad*
%ADD12R,1.750000X1.750000*%
G04 #@! TD*
G04 #@! TA.AperFunction,ComponentPad*
%ADD13C,1.750000*%
G04 #@! TD*
G04 #@! TA.AperFunction,ViaPad*
%ADD14C,0.800000*%
G04 #@! TD*
G04 #@! TA.AperFunction,Conductor*
%ADD15C,0.250000*%
G04 #@! TD*
G04 #@! TA.AperFunction,Conductor*
%ADD16C,0.400000*%
G04 #@! TD*
G04 #@! TA.AperFunction,Conductor*
%ADD17C,0.254000*%
G04 #@! TD*
G04 APERTURE END LIST*
D10*
G04 #@! TO.P,J7,17*
G04 #@! TO.N,/B10LED*
X151130000Y-97790000D03*
G04 #@! TO.P,J7,16*
G04 #@! TO.N,/B10*
X153670000Y-97790000D03*
G04 #@! TO.P,J7,15*
G04 #@! TO.N,VBUS*
X156210000Y-97790000D03*
G04 #@! TO.P,J7,14*
G04 #@! TO.N,GND*
X158750000Y-97790000D03*
G04 #@! TO.P,J7,13*
G04 #@! TO.N,Net-(J7-Pad13)*
X161290000Y-97790000D03*
G04 #@! TO.P,J7,12*
G04 #@! TO.N,+5V*
X163830000Y-97790000D03*
G04 #@! TO.P,J7,11*
G04 #@! TO.N,Net-(J7-Pad11)*
X166370000Y-97790000D03*
G04 #@! TO.P,J7,10*
G04 #@! TO.N,Net-(J7-Pad10)*
X168910000Y-97790000D03*
G04 #@! TO.P,J7,9*
G04 #@! TO.N,/B9LED*
X171450000Y-97790000D03*
G04 #@! TO.P,J7,8*
G04 #@! TO.N,/B9*
X173990000Y-97790000D03*
G04 #@! TO.P,J7,7*
G04 #@! TO.N,/B8LED*
X176530000Y-97790000D03*
G04 #@! TO.P,J7,6*
G04 #@! TO.N,/B8*
X179070000Y-97790000D03*
G04 #@! TO.P,J7,5*
G04 #@! TO.N,/B7LED*
X181610000Y-97790000D03*
G04 #@! TO.P,J7,4*
G04 #@! TO.N,/B6LED*
X184150000Y-97790000D03*
G04 #@! TO.P,J7,3*
G04 #@! TO.N,Net-(J7-Pad3)*
X186690000Y-97790000D03*
G04 #@! TO.P,J7,2*
G04 #@! TO.N,+3V3*
X189230000Y-97790000D03*
D11*
G04 #@! TO.P,J7,1*
G04 #@! TO.N,/B7*
X191770000Y-97790000D03*
G04 #@! TD*
G04 #@! TO.P,J10,1*
G04 #@! TO.N,/B1*
X191770000Y-113030000D03*
D10*
G04 #@! TO.P,J10,2*
G04 #@! TO.N,/B1LED*
X189230000Y-113030000D03*
G04 #@! TO.P,J10,3*
G04 #@! TO.N,/B2*
X186690000Y-113030000D03*
G04 #@! TO.P,J10,4*
G04 #@! TO.N,/B2LED*
X184150000Y-113030000D03*
G04 #@! TO.P,J10,5*
G04 #@! TO.N,/B3*
X181610000Y-113030000D03*
G04 #@! TO.P,J10,6*
G04 #@! TO.N,/B3LED*
X179070000Y-113030000D03*
G04 #@! TO.P,J10,7*
G04 #@! TO.N,/B4*
X176530000Y-113030000D03*
G04 #@! TO.P,J10,8*
G04 #@! TO.N,/B4LED*
X173990000Y-113030000D03*
G04 #@! TO.P,J10,9*
G04 #@! TO.N,/B5*
X171450000Y-113030000D03*
G04 #@! TO.P,J10,10*
G04 #@! TO.N,/PIN3*
X168910000Y-113030000D03*
G04 #@! TO.P,J10,11*
G04 #@! TO.N,/PIN2*
X166370000Y-113030000D03*
G04 #@! TO.P,J10,12*
G04 #@! TO.N,GND*
X163830000Y-113030000D03*
G04 #@! TO.P,J10,13*
G04 #@! TO.N,Net-(J10-Pad13)*
X161290000Y-113030000D03*
G04 #@! TO.P,J10,14*
G04 #@! TO.N,/PIN0*
X158750000Y-113030000D03*
G04 #@! TO.P,J10,15*
G04 #@! TO.N,/PIN1*
X156210000Y-113030000D03*
G04 #@! TO.P,J10,16*
G04 #@! TO.N,/B6*
X153670000Y-113030000D03*
G04 #@! TO.P,J10,17*
G04 #@! TO.N,/B5LED*
X151130000Y-113030000D03*
G04 #@! TD*
D12*
G04 #@! TO.P,J17,1*
G04 #@! TO.N,/B12*
X114300000Y-111760000D03*
D13*
G04 #@! TO.P,J17,2*
G04 #@! TO.N,Net-(J17-Pad2)*
X116800000Y-111760000D03*
G04 #@! TO.P,J17,3*
G04 #@! TO.N,/LED+*
X119300000Y-111760000D03*
G04 #@! TO.P,J17,4*
G04 #@! TO.N,GND*
X121800000Y-111760000D03*
G04 #@! TD*
G04 #@! TO.P,J16,4*
G04 #@! TO.N,GND*
X137040000Y-124460000D03*
G04 #@! TO.P,J16,3*
G04 #@! TO.N,/LED+*
X134540000Y-124460000D03*
G04 #@! TO.P,J16,2*
G04 #@! TO.N,Net-(J16-Pad2)*
X132040000Y-124460000D03*
D12*
G04 #@! TO.P,J16,1*
G04 #@! TO.N,/B8*
X129540000Y-124460000D03*
G04 #@! TD*
G04 #@! TO.P,J14,1*
G04 #@! TO.N,/B10*
X114227001Y-124483001D03*
D13*
G04 #@! TO.P,J14,2*
G04 #@! TO.N,Net-(J14-Pad2)*
X116727001Y-124483001D03*
G04 #@! TO.P,J14,3*
G04 #@! TO.N,/LED+*
X119227001Y-124483001D03*
G04 #@! TO.P,J14,4*
G04 #@! TO.N,GND*
X121727001Y-124483001D03*
G04 #@! TD*
G04 #@! TO.P,J12,4*
G04 #@! TO.N,GND*
X137040000Y-111760000D03*
G04 #@! TO.P,J12,3*
G04 #@! TO.N,/LED+*
X134540000Y-111760000D03*
G04 #@! TO.P,J12,2*
G04 #@! TO.N,Net-(J12-Pad2)*
X132040000Y-111760000D03*
D12*
G04 #@! TO.P,J12,1*
G04 #@! TO.N,/B11*
X129540000Y-111760000D03*
G04 #@! TD*
D13*
G04 #@! TO.P,J13,2*
G04 #@! TO.N,GND*
X182840000Y-91440000D03*
D12*
G04 #@! TO.P,J13,1*
G04 #@! TO.N,+12V*
X180340000Y-91440000D03*
G04 #@! TD*
D13*
G04 #@! TO.P,J8,4*
G04 #@! TO.N,GND*
X152280000Y-137160000D03*
G04 #@! TO.P,J8,3*
G04 #@! TO.N,/LED+*
X149780000Y-137160000D03*
G04 #@! TO.P,J8,2*
G04 #@! TO.N,Net-(J8-Pad2)*
X147280000Y-137160000D03*
D12*
G04 #@! TO.P,J8,1*
G04 #@! TO.N,/B5*
X144780000Y-137160000D03*
G04 #@! TD*
D13*
G04 #@! TO.P,J2,4*
G04 #@! TO.N,GND*
X128150000Y-93472000D03*
G04 #@! TO.P,J2,3*
G04 #@! TO.N,+5V*
X125650000Y-93472000D03*
G04 #@! TO.P,J2,2*
G04 #@! TO.N,/QE2B*
X123150000Y-93472000D03*
D12*
G04 #@! TO.P,J2,1*
G04 #@! TO.N,/QE2A*
X120650000Y-93472000D03*
G04 #@! TD*
D13*
G04 #@! TO.P,J3,4*
G04 #@! TO.N,GND*
X182760000Y-137160000D03*
G04 #@! TO.P,J3,3*
G04 #@! TO.N,/LED+*
X180260000Y-137160000D03*
G04 #@! TO.P,J3,2*
G04 #@! TO.N,Net-(J3-Pad2)*
X177760000Y-137160000D03*
D12*
G04 #@! TO.P,J3,1*
G04 #@! TO.N,/B1*
X175260000Y-137160000D03*
G04 #@! TD*
G04 #@! TO.P,J4,1*
G04 #@! TO.N,/B2*
X175260000Y-124460000D03*
D13*
G04 #@! TO.P,J4,2*
G04 #@! TO.N,Net-(J4-Pad2)*
X177760000Y-124460000D03*
G04 #@! TO.P,J4,3*
G04 #@! TO.N,/LED+*
X180260000Y-124460000D03*
G04 #@! TO.P,J4,4*
G04 #@! TO.N,GND*
X182760000Y-124460000D03*
G04 #@! TD*
G04 #@! TO.P,J5,4*
G04 #@! TO.N,GND*
X167520000Y-137160000D03*
G04 #@! TO.P,J5,3*
G04 #@! TO.N,/LED+*
X165020000Y-137160000D03*
G04 #@! TO.P,J5,2*
G04 #@! TO.N,Net-(J5-Pad2)*
X162520000Y-137160000D03*
D12*
G04 #@! TO.P,J5,1*
G04 #@! TO.N,/B3*
X160020000Y-137160000D03*
G04 #@! TD*
G04 #@! TO.P,J9,1*
G04 #@! TO.N,/B6*
X144780000Y-124460000D03*
D13*
G04 #@! TO.P,J9,2*
G04 #@! TO.N,Net-(J9-Pad2)*
X147280000Y-124460000D03*
G04 #@! TO.P,J9,3*
G04 #@! TO.N,/LED+*
X149780000Y-124460000D03*
G04 #@! TO.P,J9,4*
G04 #@! TO.N,GND*
X152280000Y-124460000D03*
G04 #@! TD*
G04 #@! TO.P,J11,4*
G04 #@! TO.N,GND*
X137040000Y-137160000D03*
G04 #@! TO.P,J11,3*
G04 #@! TO.N,/LED+*
X134540000Y-137160000D03*
G04 #@! TO.P,J11,2*
G04 #@! TO.N,Net-(J11-Pad2)*
X132040000Y-137160000D03*
D12*
G04 #@! TO.P,J11,1*
G04 #@! TO.N,/B7*
X129540000Y-137160000D03*
G04 #@! TD*
D13*
G04 #@! TO.P,J18,4*
G04 #@! TO.N,GND*
X121800000Y-137160000D03*
G04 #@! TO.P,J18,3*
G04 #@! TO.N,/LED+*
X119300000Y-137160000D03*
G04 #@! TO.P,J18,2*
G04 #@! TO.N,Net-(J18-Pad2)*
X116800000Y-137160000D03*
D12*
G04 #@! TO.P,J18,1*
G04 #@! TO.N,/B9*
X114300000Y-137160000D03*
G04 #@! TD*
G04 #@! TO.P,J1,1*
G04 #@! TO.N,/QE1A*
X135890000Y-93472000D03*
D13*
G04 #@! TO.P,J1,2*
G04 #@! TO.N,/QE1B*
X138390000Y-93472000D03*
G04 #@! TO.P,J1,3*
G04 #@! TO.N,+5V*
X140890000Y-93472000D03*
G04 #@! TO.P,J1,4*
G04 #@! TO.N,GND*
X143390000Y-93472000D03*
G04 #@! TD*
G04 #@! TO.P,J6,4*
G04 #@! TO.N,GND*
X167520000Y-124460000D03*
G04 #@! TO.P,J6,3*
G04 #@! TO.N,/LED+*
X165020000Y-124460000D03*
G04 #@! TO.P,J6,2*
G04 #@! TO.N,Net-(J6-Pad2)*
X162520000Y-124460000D03*
D12*
G04 #@! TO.P,J6,1*
G04 #@! TO.N,/B4*
X160020000Y-124460000D03*
G04 #@! TD*
D14*
G04 #@! TO.N,/B4LED*
X165100000Y-118364000D03*
G04 #@! TO.N,/B9LED*
X117856000Y-129286000D03*
G04 #@! TO.N,/B10LED*
X117856000Y-116840000D03*
G04 #@! TO.N,/B8LED*
X133096000Y-116840000D03*
G04 #@! TO.N,/B7LED*
X133096000Y-129540000D03*
G04 #@! TO.N,/B6LED*
X185166000Y-104648000D03*
X148082000Y-116332000D03*
G04 #@! TO.N,/B5LED*
X148336000Y-129540000D03*
G04 #@! TO.N,/B3LED*
X163576000Y-129540000D03*
G04 #@! TO.N,/B2LED*
X180340000Y-118364000D03*
G04 #@! TO.N,/B1LED*
X178816000Y-129540000D03*
G04 #@! TO.N,/B11*
X136144000Y-105918000D03*
G04 #@! TO.N,/PIN0*
X154178000Y-106172000D03*
G04 #@! TO.N,/PIN1*
X137922000Y-105918000D03*
X141986000Y-105918000D03*
X152908000Y-106172000D03*
G04 #@! TO.N,/B6*
X154940000Y-121412000D03*
X154940000Y-117602000D03*
G04 #@! TO.N,/PIN3*
X126492000Y-99568000D03*
X149352000Y-101346000D03*
X157480000Y-106172000D03*
G04 #@! TO.N,/PIN2*
X122682000Y-101346000D03*
X148336000Y-102362000D03*
X155702000Y-106172000D03*
G04 #@! TO.N,/B12*
X120904000Y-105918000D03*
G04 #@! TD*
D15*
G04 #@! TO.N,/B7LED*
X138684000Y-129540000D02*
X140462000Y-127762000D01*
X133096000Y-129540000D02*
X138684000Y-129540000D01*
X140462000Y-127762000D02*
X140462000Y-115826820D01*
X140462000Y-115826820D02*
X153845380Y-102443440D01*
X181610000Y-101173440D02*
X180340000Y-102443440D01*
X181610000Y-97790000D02*
X181610000Y-101173440D01*
X153845380Y-102443440D02*
X180340000Y-102443440D01*
G04 #@! TO.N,/B6LED*
X150259999Y-107301641D02*
X154218180Y-103343460D01*
X154218180Y-103343460D02*
X183861460Y-103343460D01*
X183861460Y-103343460D02*
X185166000Y-104648000D01*
X150259999Y-107301641D02*
X148084820Y-109476820D01*
X148084820Y-109476820D02*
X148082000Y-109479640D01*
X148082000Y-109479640D02*
X148082000Y-116332000D01*
G04 #@! TO.N,/B5LED*
X148336000Y-129540000D02*
X154940000Y-129540000D01*
X154940000Y-129540000D02*
X156464000Y-128016000D01*
X156464000Y-128016000D02*
X156464000Y-120650000D01*
X152400000Y-116586000D02*
X152400000Y-113030000D01*
X156464000Y-120650000D02*
X152400000Y-116586000D01*
X152400000Y-116586000D02*
X151130000Y-115316000D01*
X151130000Y-115316000D02*
X151130000Y-113030000D01*
G04 #@! TO.N,/B4LED*
X170180000Y-118364000D02*
X165100000Y-118364000D01*
X172916010Y-115627990D02*
X170180000Y-118364000D01*
X173990000Y-114554000D02*
X172916010Y-115627990D01*
X173990000Y-113030000D02*
X173990000Y-114554000D01*
G04 #@! TO.N,/B3LED*
X170434000Y-129540000D02*
X163576000Y-129540000D01*
X173353590Y-116586000D02*
X171196000Y-118743590D01*
X171196000Y-118743590D02*
X171196000Y-128778000D01*
X171196000Y-128778000D02*
X170434000Y-129540000D01*
X179070000Y-115824000D02*
X178308000Y-116586000D01*
X179070000Y-113030000D02*
X179070000Y-115824000D01*
X178308000Y-116586000D02*
X173353590Y-116586000D01*
G04 #@! TO.N,/B2LED*
X184150000Y-117348000D02*
X183134000Y-118364000D01*
X184150000Y-113030000D02*
X184150000Y-117348000D01*
X183134000Y-118364000D02*
X180340000Y-118364000D01*
G04 #@! TO.N,/B1LED*
X189230000Y-128270000D02*
X187960000Y-129540000D01*
X189230000Y-113030000D02*
X189230000Y-128270000D01*
X178816000Y-129540000D02*
X187960000Y-129540000D01*
G04 #@! TO.N,/B9LED*
X118255999Y-128886001D02*
X117856000Y-129286000D01*
X122319999Y-128886001D02*
X118255999Y-128886001D01*
X123952000Y-127254000D02*
X122319999Y-128886001D01*
X123952000Y-115570000D02*
X123952000Y-127254000D01*
X153036410Y-100584000D02*
X138870400Y-114750010D01*
X138870400Y-114750010D02*
X124771990Y-114750010D01*
X124771990Y-114750010D02*
X123952000Y-115570000D01*
X171450000Y-99568000D02*
X170434000Y-100584000D01*
X171450000Y-97790000D02*
X171450000Y-99568000D01*
X170434000Y-100584000D02*
X153036410Y-100584000D01*
G04 #@! TO.N,/B8LED*
X133096000Y-116840000D02*
X133096000Y-116078000D01*
X133096000Y-116078000D02*
X133523971Y-115650029D01*
X133523971Y-115650029D02*
X139365971Y-115650029D01*
X139365971Y-115650029D02*
X153472580Y-101543420D01*
X176530000Y-100273420D02*
X175260000Y-101543420D01*
X176530000Y-97790000D02*
X176530000Y-100273420D01*
X153472580Y-101543420D02*
X175260000Y-101543420D01*
G04 #@! TO.N,/B11*
X136144000Y-105918000D02*
X132842000Y-109220000D01*
X129540000Y-110635000D02*
X129540000Y-111760000D01*
X130955000Y-109220000D02*
X129540000Y-110635000D01*
G04 #@! TO.N,/PIN0*
X158750000Y-113030000D02*
X158750000Y-110744000D01*
X154178000Y-106172000D02*
X158750000Y-110744000D01*
G04 #@! TO.N,/PIN1*
X137922000Y-105918000D02*
X140716000Y-105918000D01*
X141986000Y-105918000D02*
X140716000Y-105918000D01*
X156210000Y-111827919D02*
X156210000Y-109474000D01*
X156210000Y-113030000D02*
X156210000Y-111827919D01*
X156210000Y-109474000D02*
X152908000Y-106172000D01*
G04 #@! TO.N,/B8*
X129540000Y-123335000D02*
X130701000Y-122174000D01*
X129540000Y-124460000D02*
X129540000Y-123335000D01*
X130701000Y-122174000D02*
X136652000Y-122174000D01*
X136652000Y-122174000D02*
X137922000Y-120904000D01*
X137922000Y-116332000D02*
X138153961Y-116100039D01*
X137922000Y-120904000D02*
X137922000Y-116332000D01*
X138153961Y-116100039D02*
X139552372Y-116100038D01*
X139552372Y-116100038D02*
X153658980Y-101993430D01*
X179070000Y-100723430D02*
X177800000Y-101993430D01*
X179070000Y-97790000D02*
X179070000Y-100723430D01*
X153658980Y-101993430D02*
X177800000Y-101993430D01*
G04 #@! TO.N,/B4*
X160020000Y-124460000D02*
X160020000Y-123335000D01*
X161181000Y-122174000D02*
X169672000Y-122174000D01*
X160020000Y-123335000D02*
X161181000Y-122174000D01*
X169672000Y-122174000D02*
X170434000Y-121412000D01*
X170434000Y-121412000D02*
X170434000Y-118869180D01*
X170434000Y-118869180D02*
X173225180Y-116078000D01*
X176530000Y-115062000D02*
X175514000Y-116078000D01*
X176530000Y-113030000D02*
X176530000Y-115062000D01*
X173225180Y-116078000D02*
X175514000Y-116078000D01*
D16*
G04 #@! TO.N,+5V*
X140890000Y-93472000D02*
X140890000Y-94709436D01*
X125650000Y-94709436D02*
X126952564Y-96012000D01*
X125650000Y-93472000D02*
X125650000Y-94709436D01*
X139587436Y-96012000D02*
X140890000Y-94709436D01*
X126952564Y-96012000D02*
X139587436Y-96012000D01*
X141430564Y-95250000D02*
X140890000Y-94709436D01*
X162814000Y-95250000D02*
X141430564Y-95250000D01*
X163830000Y-97790000D02*
X163830000Y-96266000D01*
X163830000Y-96266000D02*
X162814000Y-95250000D01*
D15*
G04 #@! TO.N,/B9*
X114300000Y-136035000D02*
X115461000Y-134874000D01*
X114300000Y-137160000D02*
X114300000Y-136035000D01*
X115461000Y-134874000D02*
X122936000Y-134874000D01*
X122936000Y-134874000D02*
X124206000Y-133604000D01*
X124206000Y-127636410D02*
X124460000Y-127382410D01*
X124206000Y-133604000D02*
X124206000Y-127636410D01*
X124460000Y-127382410D02*
X124460000Y-115698410D01*
X124958390Y-115200020D02*
X139056801Y-115200019D01*
X124460000Y-115698410D02*
X124958390Y-115200020D01*
X139056801Y-115200019D02*
X153163410Y-101093410D01*
X173990000Y-100331410D02*
X173228000Y-101093410D01*
X173990000Y-97790000D02*
X173990000Y-100331410D01*
X153163410Y-101093410D02*
X173228000Y-101093410D01*
G04 #@! TO.N,/B7*
X129540000Y-136035000D02*
X130701000Y-134874000D01*
X129540000Y-137160000D02*
X129540000Y-136035000D01*
X130701000Y-134874000D02*
X138938000Y-134874000D01*
X140970000Y-132842000D02*
X140970000Y-115955230D01*
X138938000Y-134874000D02*
X140970000Y-132842000D01*
X140970000Y-115955230D02*
X154031780Y-102893450D01*
X191770000Y-101623450D02*
X190500000Y-102893450D01*
X191770000Y-97790000D02*
X191770000Y-101623450D01*
X154031780Y-102893450D02*
X190500000Y-102893450D01*
G04 #@! TO.N,/B6*
X144780000Y-123335000D02*
X145687000Y-122428000D01*
X144780000Y-124460000D02*
X144780000Y-123335000D01*
X145687000Y-122428000D02*
X153924000Y-122428000D01*
X153924000Y-122428000D02*
X154940000Y-121412000D01*
X154940000Y-117036315D02*
X154940000Y-113030000D01*
X154940000Y-117602000D02*
X154940000Y-117036315D01*
X153670000Y-116332000D02*
X154940000Y-117602000D01*
X153670000Y-113030000D02*
X153670000Y-116332000D01*
G04 #@! TO.N,/B3*
X160020000Y-136035000D02*
X161181000Y-134874000D01*
X160020000Y-137160000D02*
X160020000Y-136035000D01*
X161181000Y-134874000D02*
X170942000Y-134874000D01*
X170942000Y-134874000D02*
X171958000Y-133858000D01*
X171958000Y-133858000D02*
X171958000Y-118618000D01*
X171958000Y-118618000D02*
X173482000Y-117094000D01*
X181610000Y-116078000D02*
X180594000Y-117094000D01*
X181610000Y-113030000D02*
X181610000Y-116078000D01*
X173482000Y-117094000D02*
X180594000Y-117094000D01*
G04 #@! TO.N,/B2*
X175260000Y-123335000D02*
X176167000Y-122428000D01*
X175260000Y-124460000D02*
X175260000Y-123335000D01*
X186690000Y-121158000D02*
X185420000Y-122428000D01*
X186690000Y-113030000D02*
X186690000Y-121158000D01*
X176167000Y-122428000D02*
X185420000Y-122428000D01*
G04 #@! TO.N,/B1*
X175260000Y-136035000D02*
X175260000Y-137160000D01*
X176421000Y-134874000D02*
X175260000Y-136035000D01*
X189230000Y-134874000D02*
X176421000Y-134874000D01*
X191770000Y-114130000D02*
X191770000Y-132334000D01*
X191770000Y-113030000D02*
X191770000Y-114130000D01*
X191770000Y-132334000D02*
X189230000Y-134874000D01*
G04 #@! TO.N,/B5*
X144780000Y-136035000D02*
X145941000Y-134874000D01*
X144780000Y-137160000D02*
X144780000Y-136035000D01*
X145941000Y-134874000D02*
X155448000Y-134874000D01*
X155448000Y-134874000D02*
X156972000Y-133350000D01*
X156972000Y-133350000D02*
X156972000Y-118364000D01*
X156972000Y-118364000D02*
X158496000Y-116840000D01*
X171450000Y-113030000D02*
X171450000Y-115062000D01*
X171450000Y-115062000D02*
X169672000Y-116840000D01*
X158496000Y-116840000D02*
X169672000Y-116840000D01*
G04 #@! TO.N,/PIN3*
X126891999Y-99967999D02*
X142639999Y-99967999D01*
X126492000Y-99568000D02*
X126891999Y-99967999D01*
X142639999Y-99967999D02*
X144018000Y-101346000D01*
X144018000Y-101346000D02*
X148082000Y-101346000D01*
X157480000Y-106172000D02*
X161036000Y-109728000D01*
X148082000Y-101346000D02*
X149352000Y-101346000D01*
X168910000Y-110744000D02*
X167894000Y-109728000D01*
X168910000Y-113030000D02*
X168910000Y-110744000D01*
X161036000Y-109728000D02*
X167894000Y-109728000D01*
G04 #@! TO.N,/PIN2*
X147066000Y-102362000D02*
X143510000Y-102362000D01*
X143510000Y-102362000D02*
X141732000Y-100584000D01*
X122682000Y-101346000D02*
X123444000Y-100584000D01*
X141732000Y-100584000D02*
X123444000Y-100584000D01*
X155702000Y-106172000D02*
X160020000Y-110490000D01*
X147066000Y-102362000D02*
X148336000Y-102362000D01*
X166370000Y-111252000D02*
X165608000Y-110490000D01*
X166370000Y-113030000D02*
X166370000Y-111252000D01*
X160020000Y-110490000D02*
X165608000Y-110490000D01*
G04 #@! TO.N,/B10LED*
X118872000Y-113792000D02*
X138430000Y-113792000D01*
X117856000Y-116840000D02*
X117856000Y-114808000D01*
X117856000Y-114808000D02*
X118872000Y-113792000D01*
X151130000Y-97790000D02*
X151130000Y-101092000D01*
X138430000Y-113792000D02*
X151130000Y-101092000D01*
G04 #@! TO.N,/B12*
X115715000Y-109220000D02*
X114300000Y-110635000D01*
X114300000Y-110635000D02*
X114300000Y-111760000D01*
X117602000Y-109220000D02*
X117348000Y-109220000D01*
X120904000Y-105918000D02*
X117602000Y-109220000D01*
X117348000Y-109220000D02*
X115715000Y-109220000D01*
G04 #@! TO.N,/B11*
X130955000Y-109220000D02*
X132842000Y-109220000D01*
G04 #@! TO.N,/B10*
X114227001Y-123358001D02*
X114227001Y-124483001D01*
X115665002Y-121920000D02*
X114227001Y-123358001D01*
X119634000Y-121920000D02*
X115665002Y-121920000D01*
X120904000Y-120650000D02*
X119634000Y-121920000D01*
X120904000Y-115316000D02*
X120904000Y-120650000D01*
X153162000Y-99822000D02*
X138684000Y-114300000D01*
X138684000Y-114300000D02*
X121920000Y-114300000D01*
X121920000Y-114300000D02*
X120904000Y-115316000D01*
X153670000Y-97790000D02*
X153670000Y-98992081D01*
X153162000Y-99822000D02*
X153670000Y-99314000D01*
X153670000Y-99314000D02*
X153670000Y-98992081D01*
G04 #@! TD*
D17*
G04 #@! TO.N,GND*
G36*
X194870001Y-141530000D02*
X103580000Y-141530000D01*
X103580000Y-137985431D01*
X104445000Y-137985431D01*
X104445000Y-138874569D01*
X104785259Y-139696026D01*
X105413974Y-140324741D01*
X106235431Y-140665000D01*
X107124569Y-140665000D01*
X107946026Y-140324741D01*
X108574741Y-139696026D01*
X108915000Y-138874569D01*
X108915000Y-137985431D01*
X108574741Y-137163974D01*
X107946026Y-136535259D01*
X107124569Y-136195000D01*
X106235431Y-136195000D01*
X105413974Y-136535259D01*
X104785259Y-137163974D01*
X104445000Y-137985431D01*
X103580000Y-137985431D01*
X103580000Y-123608001D01*
X112704561Y-123608001D01*
X112704561Y-125358001D01*
X112753844Y-125605766D01*
X112894192Y-125815810D01*
X113104236Y-125956158D01*
X113352001Y-126005441D01*
X115102001Y-126005441D01*
X115349766Y-125956158D01*
X115559810Y-125815810D01*
X115700158Y-125605766D01*
X115702505Y-125593967D01*
X115871655Y-125763117D01*
X116426643Y-125993001D01*
X117027359Y-125993001D01*
X117582347Y-125763117D01*
X117977001Y-125368463D01*
X118371655Y-125763117D01*
X118926643Y-125993001D01*
X119527359Y-125993001D01*
X120082347Y-125763117D01*
X120300403Y-125545061D01*
X120844546Y-125545061D01*
X120927885Y-125798954D01*
X121492307Y-126004591D01*
X122092459Y-125978580D01*
X122526117Y-125798954D01*
X122609456Y-125545061D01*
X121727001Y-124662606D01*
X120844546Y-125545061D01*
X120300403Y-125545061D01*
X120507117Y-125338347D01*
X120516122Y-125316607D01*
X120664941Y-125365456D01*
X121547396Y-124483001D01*
X120664941Y-123600546D01*
X120516122Y-123649395D01*
X120507117Y-123627655D01*
X120300403Y-123420941D01*
X120844546Y-123420941D01*
X121727001Y-124303396D01*
X122609456Y-123420941D01*
X122526117Y-123167048D01*
X121961695Y-122961411D01*
X121361543Y-122987422D01*
X120927885Y-123167048D01*
X120844546Y-123420941D01*
X120300403Y-123420941D01*
X120082347Y-123202885D01*
X119527359Y-122973001D01*
X118926643Y-122973001D01*
X118371655Y-123202885D01*
X117977001Y-123597539D01*
X117582347Y-123202885D01*
X117027359Y-122973001D01*
X116426643Y-122973001D01*
X115871655Y-123202885D01*
X115702505Y-123372035D01*
X115700158Y-123360236D01*
X115559810Y-123150192D01*
X115529718Y-123130085D01*
X115979804Y-122680000D01*
X119559153Y-122680000D01*
X119634000Y-122694888D01*
X119708847Y-122680000D01*
X119708852Y-122680000D01*
X119930537Y-122635904D01*
X120181929Y-122467929D01*
X120224331Y-122404470D01*
X121388473Y-121240329D01*
X121451929Y-121197929D01*
X121619904Y-120946537D01*
X121664000Y-120724852D01*
X121664000Y-120724848D01*
X121678888Y-120650001D01*
X121664000Y-120575154D01*
X121664000Y-115630801D01*
X122234802Y-115060000D01*
X123378728Y-115060000D01*
X123236096Y-115273464D01*
X123192000Y-115495149D01*
X123192000Y-115495153D01*
X123177112Y-115570000D01*
X123192000Y-115644847D01*
X123192001Y-124043718D01*
X123042954Y-123683885D01*
X122789061Y-123600546D01*
X121906606Y-124483001D01*
X122789061Y-125365456D01*
X123042954Y-125282117D01*
X123192001Y-124873021D01*
X123192001Y-126939197D01*
X122005198Y-128126001D01*
X118330845Y-128126001D01*
X118255998Y-128111113D01*
X118181151Y-128126001D01*
X118181147Y-128126001D01*
X117959462Y-128170097D01*
X117838382Y-128251000D01*
X117650126Y-128251000D01*
X117269720Y-128408569D01*
X116978569Y-128699720D01*
X116821000Y-129080126D01*
X116821000Y-129491874D01*
X116978569Y-129872280D01*
X117269720Y-130163431D01*
X117650126Y-130321000D01*
X118061874Y-130321000D01*
X118442280Y-130163431D01*
X118733431Y-129872280D01*
X118827159Y-129646001D01*
X122245152Y-129646001D01*
X122319999Y-129660889D01*
X122394846Y-129646001D01*
X122394851Y-129646001D01*
X122616536Y-129601905D01*
X122867928Y-129433930D01*
X122910330Y-129370471D01*
X123446001Y-128834801D01*
X123446000Y-133289198D01*
X122621199Y-134114000D01*
X115535847Y-134114000D01*
X115461000Y-134099112D01*
X115386153Y-134114000D01*
X115386148Y-134114000D01*
X115164463Y-134158096D01*
X114913071Y-134326071D01*
X114870671Y-134389527D01*
X113815528Y-135444671D01*
X113752072Y-135487071D01*
X113709672Y-135550527D01*
X113709671Y-135550528D01*
X113651518Y-135637560D01*
X113425000Y-135637560D01*
X113177235Y-135686843D01*
X112967191Y-135827191D01*
X112826843Y-136037235D01*
X112777560Y-136285000D01*
X112777560Y-138035000D01*
X112826843Y-138282765D01*
X112967191Y-138492809D01*
X113177235Y-138633157D01*
X113425000Y-138682440D01*
X115175000Y-138682440D01*
X115422765Y-138633157D01*
X115632809Y-138492809D01*
X115773157Y-138282765D01*
X115775504Y-138270966D01*
X115944654Y-138440116D01*
X116499642Y-138670000D01*
X117100358Y-138670000D01*
X117655346Y-138440116D01*
X118050000Y-138045462D01*
X118444654Y-138440116D01*
X118999642Y-138670000D01*
X119600358Y-138670000D01*
X120155346Y-138440116D01*
X120373402Y-138222060D01*
X120917545Y-138222060D01*
X121000884Y-138475953D01*
X121565306Y-138681590D01*
X122165458Y-138655579D01*
X122599116Y-138475953D01*
X122682455Y-138222060D01*
X121800000Y-137339605D01*
X120917545Y-138222060D01*
X120373402Y-138222060D01*
X120580116Y-138015346D01*
X120589121Y-137993606D01*
X120737940Y-138042455D01*
X121620395Y-137160000D01*
X121979605Y-137160000D01*
X122862060Y-138042455D01*
X123115953Y-137959116D01*
X123321590Y-137394694D01*
X123295579Y-136794542D01*
X123115953Y-136360884D01*
X122862060Y-136277545D01*
X121979605Y-137160000D01*
X121620395Y-137160000D01*
X120737940Y-136277545D01*
X120589121Y-136326394D01*
X120580116Y-136304654D01*
X120373402Y-136097940D01*
X120917545Y-136097940D01*
X121800000Y-136980395D01*
X122682455Y-136097940D01*
X122599116Y-135844047D01*
X122034694Y-135638410D01*
X121434542Y-135664421D01*
X121000884Y-135844047D01*
X120917545Y-136097940D01*
X120373402Y-136097940D01*
X120155346Y-135879884D01*
X119600358Y-135650000D01*
X118999642Y-135650000D01*
X118444654Y-135879884D01*
X118050000Y-136274538D01*
X117655346Y-135879884D01*
X117100358Y-135650000D01*
X116499642Y-135650000D01*
X115944654Y-135879884D01*
X115775504Y-136049034D01*
X115773157Y-136037235D01*
X115632809Y-135827191D01*
X115602717Y-135807084D01*
X115775802Y-135634000D01*
X122861153Y-135634000D01*
X122936000Y-135648888D01*
X123010847Y-135634000D01*
X123010852Y-135634000D01*
X123232537Y-135589904D01*
X123483929Y-135421929D01*
X123526331Y-135358470D01*
X124690473Y-134194329D01*
X124753929Y-134151929D01*
X124921904Y-133900537D01*
X124966000Y-133678852D01*
X124966000Y-133678848D01*
X124980888Y-133604001D01*
X124966000Y-133529154D01*
X124966000Y-127958355D01*
X125007929Y-127930339D01*
X125175904Y-127678947D01*
X125220000Y-127457262D01*
X125220000Y-127457258D01*
X125234888Y-127382411D01*
X125220000Y-127307564D01*
X125220000Y-116013211D01*
X125273192Y-115960020D01*
X132344579Y-115960019D01*
X132336000Y-116003148D01*
X132336000Y-116003153D01*
X132321112Y-116078000D01*
X132333253Y-116139036D01*
X132218569Y-116253720D01*
X132061000Y-116634126D01*
X132061000Y-117045874D01*
X132218569Y-117426280D01*
X132509720Y-117717431D01*
X132890126Y-117875000D01*
X133301874Y-117875000D01*
X133682280Y-117717431D01*
X133973431Y-117426280D01*
X134131000Y-117045874D01*
X134131000Y-116634126D01*
X134038176Y-116410029D01*
X137162001Y-116410029D01*
X137162000Y-120589198D01*
X136337199Y-121414000D01*
X130775847Y-121414000D01*
X130701000Y-121399112D01*
X130626153Y-121414000D01*
X130626148Y-121414000D01*
X130404463Y-121458096D01*
X130153071Y-121626071D01*
X130110671Y-121689527D01*
X129055528Y-122744671D01*
X128992072Y-122787071D01*
X128949672Y-122850527D01*
X128949671Y-122850528D01*
X128891518Y-122937560D01*
X128665000Y-122937560D01*
X128417235Y-122986843D01*
X128207191Y-123127191D01*
X128066843Y-123337235D01*
X128017560Y-123585000D01*
X128017560Y-125335000D01*
X128066843Y-125582765D01*
X128207191Y-125792809D01*
X128417235Y-125933157D01*
X128665000Y-125982440D01*
X130415000Y-125982440D01*
X130662765Y-125933157D01*
X130872809Y-125792809D01*
X131013157Y-125582765D01*
X131015504Y-125570966D01*
X131184654Y-125740116D01*
X131739642Y-125970000D01*
X132340358Y-125970000D01*
X132895346Y-125740116D01*
X133290000Y-125345462D01*
X133684654Y-125740116D01*
X134239642Y-125970000D01*
X134840358Y-125970000D01*
X135395346Y-125740116D01*
X135613402Y-125522060D01*
X136157545Y-125522060D01*
X136240884Y-125775953D01*
X136805306Y-125981590D01*
X137405458Y-125955579D01*
X137839116Y-125775953D01*
X137922455Y-125522060D01*
X137040000Y-124639605D01*
X136157545Y-125522060D01*
X135613402Y-125522060D01*
X135820116Y-125315346D01*
X135829121Y-125293606D01*
X135977940Y-125342455D01*
X136860395Y-124460000D01*
X137219605Y-124460000D01*
X138102060Y-125342455D01*
X138355953Y-125259116D01*
X138561590Y-124694694D01*
X138535579Y-124094542D01*
X138355953Y-123660884D01*
X138102060Y-123577545D01*
X137219605Y-124460000D01*
X136860395Y-124460000D01*
X135977940Y-123577545D01*
X135829121Y-123626394D01*
X135820116Y-123604654D01*
X135613402Y-123397940D01*
X136157545Y-123397940D01*
X137040000Y-124280395D01*
X137922455Y-123397940D01*
X137839116Y-123144047D01*
X137274694Y-122938410D01*
X136674542Y-122964421D01*
X136240884Y-123144047D01*
X136157545Y-123397940D01*
X135613402Y-123397940D01*
X135395346Y-123179884D01*
X134840358Y-122950000D01*
X134239642Y-122950000D01*
X133684654Y-123179884D01*
X133290000Y-123574538D01*
X132895346Y-123179884D01*
X132340358Y-122950000D01*
X131739642Y-122950000D01*
X131184654Y-123179884D01*
X131015504Y-123349034D01*
X131013157Y-123337235D01*
X130872809Y-123127191D01*
X130842717Y-123107084D01*
X131015802Y-122934000D01*
X136577153Y-122934000D01*
X136652000Y-122948888D01*
X136726847Y-122934000D01*
X136726852Y-122934000D01*
X136948537Y-122889904D01*
X137199929Y-122721929D01*
X137242331Y-122658470D01*
X138406473Y-121494329D01*
X138469929Y-121451929D01*
X138637904Y-121200537D01*
X138682000Y-120978852D01*
X138682000Y-120978848D01*
X138696888Y-120904001D01*
X138682000Y-120829154D01*
X138682000Y-116860038D01*
X139477521Y-116860037D01*
X139552372Y-116874926D01*
X139702001Y-116845163D01*
X139702000Y-127447198D01*
X138369199Y-128780000D01*
X133799711Y-128780000D01*
X133682280Y-128662569D01*
X133301874Y-128505000D01*
X132890126Y-128505000D01*
X132509720Y-128662569D01*
X132218569Y-128953720D01*
X132061000Y-129334126D01*
X132061000Y-129745874D01*
X132218569Y-130126280D01*
X132509720Y-130417431D01*
X132890126Y-130575000D01*
X133301874Y-130575000D01*
X133682280Y-130417431D01*
X133799711Y-130300000D01*
X138609153Y-130300000D01*
X138684000Y-130314888D01*
X138758847Y-130300000D01*
X138758852Y-130300000D01*
X138980537Y-130255904D01*
X139231929Y-130087929D01*
X139274331Y-130024470D01*
X140210000Y-129088801D01*
X140210000Y-132527198D01*
X138623199Y-134114000D01*
X130775847Y-134114000D01*
X130701000Y-134099112D01*
X130626153Y-134114000D01*
X130626148Y-134114000D01*
X130404463Y-134158096D01*
X130153071Y-134326071D01*
X130110671Y-134389527D01*
X129055528Y-135444671D01*
X128992072Y-135487071D01*
X128949672Y-135550527D01*
X128949671Y-135550528D01*
X128891518Y-135637560D01*
X128665000Y-135637560D01*
X128417235Y-135686843D01*
X128207191Y-135827191D01*
X128066843Y-136037235D01*
X128017560Y-136285000D01*
X128017560Y-138035000D01*
X128066843Y-138282765D01*
X128207191Y-138492809D01*
X128417235Y-138633157D01*
X128665000Y-138682440D01*
X130415000Y-138682440D01*
X130662765Y-138633157D01*
X130872809Y-138492809D01*
X131013157Y-138282765D01*
X131015504Y-138270966D01*
X131184654Y-138440116D01*
X131739642Y-138670000D01*
X132340358Y-138670000D01*
X132895346Y-138440116D01*
X133290000Y-138045462D01*
X133684654Y-138440116D01*
X134239642Y-138670000D01*
X134840358Y-138670000D01*
X135395346Y-138440116D01*
X135613402Y-138222060D01*
X136157545Y-138222060D01*
X136240884Y-138475953D01*
X136805306Y-138681590D01*
X137405458Y-138655579D01*
X137839116Y-138475953D01*
X137922455Y-138222060D01*
X137040000Y-137339605D01*
X136157545Y-138222060D01*
X135613402Y-138222060D01*
X135820116Y-138015346D01*
X135829121Y-137993606D01*
X135977940Y-138042455D01*
X136860395Y-137160000D01*
X137219605Y-137160000D01*
X138102060Y-138042455D01*
X138355953Y-137959116D01*
X138561590Y-137394694D01*
X138535579Y-136794542D01*
X138355953Y-136360884D01*
X138102060Y-136277545D01*
X137219605Y-137160000D01*
X136860395Y-137160000D01*
X135977940Y-136277545D01*
X135829121Y-136326394D01*
X135820116Y-136304654D01*
X135613402Y-136097940D01*
X136157545Y-136097940D01*
X137040000Y-136980395D01*
X137922455Y-136097940D01*
X137839116Y-135844047D01*
X137274694Y-135638410D01*
X136674542Y-135664421D01*
X136240884Y-135844047D01*
X136157545Y-136097940D01*
X135613402Y-136097940D01*
X135395346Y-135879884D01*
X134840358Y-135650000D01*
X134239642Y-135650000D01*
X133684654Y-135879884D01*
X133290000Y-136274538D01*
X132895346Y-135879884D01*
X132340358Y-135650000D01*
X131739642Y-135650000D01*
X131184654Y-135879884D01*
X131015504Y-136049034D01*
X131013157Y-136037235D01*
X130872809Y-135827191D01*
X130842717Y-135807084D01*
X131015802Y-135634000D01*
X138863153Y-135634000D01*
X138938000Y-135648888D01*
X139012847Y-135634000D01*
X139012852Y-135634000D01*
X139234537Y-135589904D01*
X139485929Y-135421929D01*
X139528331Y-135358470D01*
X141454473Y-133432329D01*
X141517929Y-133389929D01*
X141685904Y-133138537D01*
X141730000Y-132916852D01*
X141730000Y-132916847D01*
X141744888Y-132842000D01*
X141730000Y-132767153D01*
X141730000Y-116270031D01*
X147322000Y-110678032D01*
X147322001Y-115628288D01*
X147204569Y-115745720D01*
X147047000Y-116126126D01*
X147047000Y-116537874D01*
X147204569Y-116918280D01*
X147495720Y-117209431D01*
X147876126Y-117367000D01*
X148287874Y-117367000D01*
X148668280Y-117209431D01*
X148959431Y-116918280D01*
X149117000Y-116537874D01*
X149117000Y-116126126D01*
X148959431Y-115745720D01*
X148842000Y-115628289D01*
X148842000Y-109794441D01*
X150850328Y-107786114D01*
X150850330Y-107786111D01*
X151985930Y-106650511D01*
X152030569Y-106758280D01*
X152321720Y-107049431D01*
X152702126Y-107207000D01*
X152868199Y-107207000D01*
X155450001Y-109788803D01*
X155450000Y-111751822D01*
X155139375Y-111959375D01*
X154941563Y-112255422D01*
X154940000Y-112255111D01*
X154938437Y-112255422D01*
X154740625Y-111959375D01*
X154249418Y-111631161D01*
X153816256Y-111545000D01*
X153523744Y-111545000D01*
X153090582Y-111631161D01*
X152599375Y-111959375D01*
X152401563Y-112255422D01*
X152400000Y-112255111D01*
X152398437Y-112255422D01*
X152200625Y-111959375D01*
X151709418Y-111631161D01*
X151276256Y-111545000D01*
X150983744Y-111545000D01*
X150550582Y-111631161D01*
X150059375Y-111959375D01*
X149731161Y-112450582D01*
X149615908Y-113030000D01*
X149731161Y-113609418D01*
X150059375Y-114100625D01*
X150370000Y-114308178D01*
X150370000Y-115241153D01*
X150355112Y-115316000D01*
X150370000Y-115390847D01*
X150370000Y-115390851D01*
X150414096Y-115612536D01*
X150582071Y-115863929D01*
X150645530Y-115906331D01*
X151809670Y-117070472D01*
X151852071Y-117133929D01*
X151915530Y-117176331D01*
X155116198Y-120377000D01*
X154734126Y-120377000D01*
X154353720Y-120534569D01*
X154062569Y-120825720D01*
X153905000Y-121206126D01*
X153905000Y-121372198D01*
X153609199Y-121668000D01*
X145761848Y-121668000D01*
X145687000Y-121653112D01*
X145612152Y-121668000D01*
X145612148Y-121668000D01*
X145438605Y-121702520D01*
X145390462Y-121712096D01*
X145203418Y-121837076D01*
X145139071Y-121880071D01*
X145096671Y-121943527D01*
X144295528Y-122744671D01*
X144232072Y-122787071D01*
X144189672Y-122850527D01*
X144189671Y-122850528D01*
X144131518Y-122937560D01*
X143905000Y-122937560D01*
X143657235Y-122986843D01*
X143447191Y-123127191D01*
X143306843Y-123337235D01*
X143257560Y-123585000D01*
X143257560Y-125335000D01*
X143306843Y-125582765D01*
X143447191Y-125792809D01*
X143657235Y-125933157D01*
X143905000Y-125982440D01*
X145655000Y-125982440D01*
X145902765Y-125933157D01*
X146112809Y-125792809D01*
X146253157Y-125582765D01*
X146255504Y-125570966D01*
X146424654Y-125740116D01*
X146979642Y-125970000D01*
X147580358Y-125970000D01*
X148135346Y-125740116D01*
X148530000Y-125345462D01*
X148924654Y-125740116D01*
X149479642Y-125970000D01*
X150080358Y-125970000D01*
X150635346Y-125740116D01*
X150853402Y-125522060D01*
X151397545Y-125522060D01*
X151480884Y-125775953D01*
X152045306Y-125981590D01*
X152645458Y-125955579D01*
X153079116Y-125775953D01*
X153162455Y-125522060D01*
X152280000Y-124639605D01*
X151397545Y-125522060D01*
X150853402Y-125522060D01*
X151060116Y-125315346D01*
X151069121Y-125293606D01*
X151217940Y-125342455D01*
X152100395Y-124460000D01*
X152459605Y-124460000D01*
X153342060Y-125342455D01*
X153595953Y-125259116D01*
X153801590Y-124694694D01*
X153775579Y-124094542D01*
X153595953Y-123660884D01*
X153342060Y-123577545D01*
X152459605Y-124460000D01*
X152100395Y-124460000D01*
X151217940Y-123577545D01*
X151069121Y-123626394D01*
X151060116Y-123604654D01*
X150643462Y-123188000D01*
X151466457Y-123188000D01*
X151397545Y-123397940D01*
X152280000Y-124280395D01*
X153162455Y-123397940D01*
X153093543Y-123188000D01*
X153849153Y-123188000D01*
X153924000Y-123202888D01*
X153998847Y-123188000D01*
X153998852Y-123188000D01*
X154220537Y-123143904D01*
X154471929Y-122975929D01*
X154514331Y-122912470D01*
X154979802Y-122447000D01*
X155145874Y-122447000D01*
X155526280Y-122289431D01*
X155704001Y-122111710D01*
X155704000Y-127701197D01*
X154625199Y-128780000D01*
X149039711Y-128780000D01*
X148922280Y-128662569D01*
X148541874Y-128505000D01*
X148130126Y-128505000D01*
X147749720Y-128662569D01*
X147458569Y-128953720D01*
X147301000Y-129334126D01*
X147301000Y-129745874D01*
X147458569Y-130126280D01*
X147749720Y-130417431D01*
X148130126Y-130575000D01*
X148541874Y-130575000D01*
X148922280Y-130417431D01*
X149039711Y-130300000D01*
X154865153Y-130300000D01*
X154940000Y-130314888D01*
X155014847Y-130300000D01*
X155014852Y-130300000D01*
X155236537Y-130255904D01*
X155487929Y-130087929D01*
X155530331Y-130024470D01*
X156212000Y-129342802D01*
X156212000Y-133035197D01*
X155133199Y-134114000D01*
X146015847Y-134114000D01*
X145941000Y-134099112D01*
X145866153Y-134114000D01*
X145866148Y-134114000D01*
X145644463Y-134158096D01*
X145393071Y-134326071D01*
X145350671Y-134389527D01*
X144295528Y-135444671D01*
X144232072Y-135487071D01*
X144189672Y-135550527D01*
X144189671Y-135550528D01*
X144131518Y-135637560D01*
X143905000Y-135637560D01*
X143657235Y-135686843D01*
X143447191Y-135827191D01*
X143306843Y-136037235D01*
X143257560Y-136285000D01*
X143257560Y-138035000D01*
X143306843Y-138282765D01*
X143447191Y-138492809D01*
X143657235Y-138633157D01*
X143905000Y-138682440D01*
X145655000Y-138682440D01*
X145902765Y-138633157D01*
X146112809Y-138492809D01*
X146253157Y-138282765D01*
X146255504Y-138270966D01*
X146424654Y-138440116D01*
X146979642Y-138670000D01*
X147580358Y-138670000D01*
X148135346Y-138440116D01*
X148530000Y-138045462D01*
X148924654Y-138440116D01*
X149479642Y-138670000D01*
X150080358Y-138670000D01*
X150635346Y-138440116D01*
X150853402Y-138222060D01*
X151397545Y-138222060D01*
X151480884Y-138475953D01*
X152045306Y-138681590D01*
X152645458Y-138655579D01*
X153079116Y-138475953D01*
X153162455Y-138222060D01*
X152280000Y-137339605D01*
X151397545Y-138222060D01*
X150853402Y-138222060D01*
X151060116Y-138015346D01*
X151069121Y-137993606D01*
X151217940Y-138042455D01*
X152100395Y-137160000D01*
X152459605Y-137160000D01*
X153342060Y-138042455D01*
X153595953Y-137959116D01*
X153801590Y-137394694D01*
X153775579Y-136794542D01*
X153595953Y-136360884D01*
X153342060Y-136277545D01*
X152459605Y-137160000D01*
X152100395Y-137160000D01*
X151217940Y-136277545D01*
X151069121Y-136326394D01*
X151060116Y-136304654D01*
X150853402Y-136097940D01*
X151397545Y-136097940D01*
X152280000Y-136980395D01*
X153162455Y-136097940D01*
X153079116Y-135844047D01*
X152514694Y-135638410D01*
X151914542Y-135664421D01*
X151480884Y-135844047D01*
X151397545Y-136097940D01*
X150853402Y-136097940D01*
X150635346Y-135879884D01*
X150080358Y-135650000D01*
X149479642Y-135650000D01*
X148924654Y-135879884D01*
X148530000Y-136274538D01*
X148135346Y-135879884D01*
X147580358Y-135650000D01*
X146979642Y-135650000D01*
X146424654Y-135879884D01*
X146255504Y-136049034D01*
X146253157Y-136037235D01*
X146112809Y-135827191D01*
X146082717Y-135807084D01*
X146255802Y-135634000D01*
X155373153Y-135634000D01*
X155448000Y-135648888D01*
X155522847Y-135634000D01*
X155522852Y-135634000D01*
X155744537Y-135589904D01*
X155995929Y-135421929D01*
X156038331Y-135358470D01*
X157456476Y-133940327D01*
X157519929Y-133897929D01*
X157562327Y-133834476D01*
X157562329Y-133834474D01*
X157687903Y-133646538D01*
X157687904Y-133646537D01*
X157732000Y-133424852D01*
X157732000Y-133424848D01*
X157746888Y-133350001D01*
X157732000Y-133275154D01*
X157732000Y-118678801D01*
X158810803Y-117600000D01*
X164400289Y-117600000D01*
X164222569Y-117777720D01*
X164065000Y-118158126D01*
X164065000Y-118569874D01*
X164222569Y-118950280D01*
X164513720Y-119241431D01*
X164894126Y-119399000D01*
X165305874Y-119399000D01*
X165686280Y-119241431D01*
X165803711Y-119124000D01*
X169674001Y-119124000D01*
X169674000Y-121097198D01*
X169357199Y-121414000D01*
X161255847Y-121414000D01*
X161181000Y-121399112D01*
X161106153Y-121414000D01*
X161106148Y-121414000D01*
X160884463Y-121458096D01*
X160633071Y-121626071D01*
X160590671Y-121689527D01*
X159535528Y-122744671D01*
X159472072Y-122787071D01*
X159429672Y-122850527D01*
X159429671Y-122850528D01*
X159371518Y-122937560D01*
X159145000Y-122937560D01*
X158897235Y-122986843D01*
X158687191Y-123127191D01*
X158546843Y-123337235D01*
X158497560Y-123585000D01*
X158497560Y-125335000D01*
X158546843Y-125582765D01*
X158687191Y-125792809D01*
X158897235Y-125933157D01*
X159145000Y-125982440D01*
X160895000Y-125982440D01*
X161142765Y-125933157D01*
X161352809Y-125792809D01*
X161493157Y-125582765D01*
X161495504Y-125570966D01*
X161664654Y-125740116D01*
X162219642Y-125970000D01*
X162820358Y-125970000D01*
X163375346Y-125740116D01*
X163770000Y-125345462D01*
X164164654Y-125740116D01*
X164719642Y-125970000D01*
X165320358Y-125970000D01*
X165875346Y-125740116D01*
X166093402Y-125522060D01*
X166637545Y-125522060D01*
X166720884Y-125775953D01*
X167285306Y-125981590D01*
X167885458Y-125955579D01*
X168319116Y-125775953D01*
X168402455Y-125522060D01*
X167520000Y-124639605D01*
X166637545Y-125522060D01*
X166093402Y-125522060D01*
X166300116Y-125315346D01*
X166309121Y-125293606D01*
X166457940Y-125342455D01*
X167340395Y-124460000D01*
X167699605Y-124460000D01*
X168582060Y-125342455D01*
X168835953Y-125259116D01*
X169041590Y-124694694D01*
X169015579Y-124094542D01*
X168835953Y-123660884D01*
X168582060Y-123577545D01*
X167699605Y-124460000D01*
X167340395Y-124460000D01*
X166457940Y-123577545D01*
X166309121Y-123626394D01*
X166300116Y-123604654D01*
X166093402Y-123397940D01*
X166637545Y-123397940D01*
X167520000Y-124280395D01*
X168402455Y-123397940D01*
X168319116Y-123144047D01*
X167754694Y-122938410D01*
X167154542Y-122964421D01*
X166720884Y-123144047D01*
X166637545Y-123397940D01*
X166093402Y-123397940D01*
X165875346Y-123179884D01*
X165320358Y-122950000D01*
X164719642Y-122950000D01*
X164164654Y-123179884D01*
X163770000Y-123574538D01*
X163375346Y-123179884D01*
X162820358Y-122950000D01*
X162219642Y-122950000D01*
X161664654Y-123179884D01*
X161495504Y-123349034D01*
X161493157Y-123337235D01*
X161352809Y-123127191D01*
X161322717Y-123107084D01*
X161495802Y-122934000D01*
X169597153Y-122934000D01*
X169672000Y-122948888D01*
X169746847Y-122934000D01*
X169746852Y-122934000D01*
X169968537Y-122889904D01*
X170219929Y-122721929D01*
X170262331Y-122658470D01*
X170436000Y-122484801D01*
X170436001Y-128463197D01*
X170119199Y-128780000D01*
X164279711Y-128780000D01*
X164162280Y-128662569D01*
X163781874Y-128505000D01*
X163370126Y-128505000D01*
X162989720Y-128662569D01*
X162698569Y-128953720D01*
X162541000Y-129334126D01*
X162541000Y-129745874D01*
X162698569Y-130126280D01*
X162989720Y-130417431D01*
X163370126Y-130575000D01*
X163781874Y-130575000D01*
X164162280Y-130417431D01*
X164279711Y-130300000D01*
X170359153Y-130300000D01*
X170434000Y-130314888D01*
X170508847Y-130300000D01*
X170508852Y-130300000D01*
X170730537Y-130255904D01*
X170981929Y-130087929D01*
X171024331Y-130024470D01*
X171198000Y-129850801D01*
X171198000Y-133543198D01*
X170627199Y-134114000D01*
X161255847Y-134114000D01*
X161181000Y-134099112D01*
X161106153Y-134114000D01*
X161106148Y-134114000D01*
X160884463Y-134158096D01*
X160633071Y-134326071D01*
X160590671Y-134389527D01*
X159535528Y-135444671D01*
X159472072Y-135487071D01*
X159429672Y-135550527D01*
X159429671Y-135550528D01*
X159371518Y-135637560D01*
X159145000Y-135637560D01*
X158897235Y-135686843D01*
X158687191Y-135827191D01*
X158546843Y-136037235D01*
X158497560Y-136285000D01*
X158497560Y-138035000D01*
X158546843Y-138282765D01*
X158687191Y-138492809D01*
X158897235Y-138633157D01*
X159145000Y-138682440D01*
X160895000Y-138682440D01*
X161142765Y-138633157D01*
X161352809Y-138492809D01*
X161493157Y-138282765D01*
X161495504Y-138270966D01*
X161664654Y-138440116D01*
X162219642Y-138670000D01*
X162820358Y-138670000D01*
X163375346Y-138440116D01*
X163770000Y-138045462D01*
X164164654Y-138440116D01*
X164719642Y-138670000D01*
X165320358Y-138670000D01*
X165875346Y-138440116D01*
X166093402Y-138222060D01*
X166637545Y-138222060D01*
X166720884Y-138475953D01*
X167285306Y-138681590D01*
X167885458Y-138655579D01*
X168319116Y-138475953D01*
X168402455Y-138222060D01*
X167520000Y-137339605D01*
X166637545Y-138222060D01*
X166093402Y-138222060D01*
X166300116Y-138015346D01*
X166309121Y-137993606D01*
X166457940Y-138042455D01*
X167340395Y-137160000D01*
X167699605Y-137160000D01*
X168582060Y-138042455D01*
X168835953Y-137959116D01*
X169041590Y-137394694D01*
X169015579Y-136794542D01*
X168835953Y-136360884D01*
X168582060Y-136277545D01*
X167699605Y-137160000D01*
X167340395Y-137160000D01*
X166457940Y-136277545D01*
X166309121Y-136326394D01*
X166300116Y-136304654D01*
X166093402Y-136097940D01*
X166637545Y-136097940D01*
X167520000Y-136980395D01*
X168402455Y-136097940D01*
X168319116Y-135844047D01*
X167754694Y-135638410D01*
X167154542Y-135664421D01*
X166720884Y-135844047D01*
X166637545Y-136097940D01*
X166093402Y-136097940D01*
X165875346Y-135879884D01*
X165320358Y-135650000D01*
X164719642Y-135650000D01*
X164164654Y-135879884D01*
X163770000Y-136274538D01*
X163375346Y-135879884D01*
X162820358Y-135650000D01*
X162219642Y-135650000D01*
X161664654Y-135879884D01*
X161495504Y-136049034D01*
X161493157Y-136037235D01*
X161352809Y-135827191D01*
X161322717Y-135807084D01*
X161495802Y-135634000D01*
X170867153Y-135634000D01*
X170942000Y-135648888D01*
X171016847Y-135634000D01*
X171016852Y-135634000D01*
X171238537Y-135589904D01*
X171489929Y-135421929D01*
X171532331Y-135358470D01*
X172442473Y-134448329D01*
X172505929Y-134405929D01*
X172673904Y-134154537D01*
X172718000Y-133932852D01*
X172718000Y-133932847D01*
X172732888Y-133858000D01*
X172718000Y-133783153D01*
X172718000Y-118932801D01*
X173796803Y-117854000D01*
X179430973Y-117854000D01*
X179305000Y-118158126D01*
X179305000Y-118569874D01*
X179462569Y-118950280D01*
X179753720Y-119241431D01*
X180134126Y-119399000D01*
X180545874Y-119399000D01*
X180926280Y-119241431D01*
X181043711Y-119124000D01*
X183059153Y-119124000D01*
X183134000Y-119138888D01*
X183208847Y-119124000D01*
X183208852Y-119124000D01*
X183430537Y-119079904D01*
X183681929Y-118911929D01*
X183724331Y-118848470D01*
X184634473Y-117938329D01*
X184697929Y-117895929D01*
X184865904Y-117644537D01*
X184910000Y-117422852D01*
X184910000Y-117422847D01*
X184924888Y-117348000D01*
X184910000Y-117273153D01*
X184910000Y-114308178D01*
X185220625Y-114100625D01*
X185420000Y-113802239D01*
X185619375Y-114100625D01*
X185930000Y-114308178D01*
X185930001Y-120843197D01*
X185105199Y-121668000D01*
X176241848Y-121668000D01*
X176167000Y-121653112D01*
X176092152Y-121668000D01*
X176092148Y-121668000D01*
X175918605Y-121702520D01*
X175870462Y-121712096D01*
X175683418Y-121837076D01*
X175619071Y-121880071D01*
X175576671Y-121943527D01*
X174775528Y-122744671D01*
X174712072Y-122787071D01*
X174669672Y-122850527D01*
X174669671Y-122850528D01*
X174611518Y-122937560D01*
X174385000Y-122937560D01*
X174137235Y-122986843D01*
X173927191Y-123127191D01*
X173786843Y-123337235D01*
X173737560Y-123585000D01*
X173737560Y-125335000D01*
X173786843Y-125582765D01*
X173927191Y-125792809D01*
X174137235Y-125933157D01*
X174385000Y-125982440D01*
X176135000Y-125982440D01*
X176382765Y-125933157D01*
X176592809Y-125792809D01*
X176733157Y-125582765D01*
X176735504Y-125570966D01*
X176904654Y-125740116D01*
X177459642Y-125970000D01*
X178060358Y-125970000D01*
X178615346Y-125740116D01*
X179010000Y-125345462D01*
X179404654Y-125740116D01*
X179959642Y-125970000D01*
X180560358Y-125970000D01*
X181115346Y-125740116D01*
X181333402Y-125522060D01*
X181877545Y-125522060D01*
X181960884Y-125775953D01*
X182525306Y-125981590D01*
X183125458Y-125955579D01*
X183559116Y-125775953D01*
X183642455Y-125522060D01*
X182760000Y-124639605D01*
X181877545Y-125522060D01*
X181333402Y-125522060D01*
X181540116Y-125315346D01*
X181549121Y-125293606D01*
X181697940Y-125342455D01*
X182580395Y-124460000D01*
X182939605Y-124460000D01*
X183822060Y-125342455D01*
X184075953Y-125259116D01*
X184281590Y-124694694D01*
X184255579Y-124094542D01*
X184075953Y-123660884D01*
X183822060Y-123577545D01*
X182939605Y-124460000D01*
X182580395Y-124460000D01*
X181697940Y-123577545D01*
X181549121Y-123626394D01*
X181540116Y-123604654D01*
X181123462Y-123188000D01*
X181946457Y-123188000D01*
X181877545Y-123397940D01*
X182760000Y-124280395D01*
X183642455Y-123397940D01*
X183573543Y-123188000D01*
X185345153Y-123188000D01*
X185420000Y-123202888D01*
X185494847Y-123188000D01*
X185494852Y-123188000D01*
X185716537Y-123143904D01*
X185967929Y-122975929D01*
X186010331Y-122912470D01*
X187174473Y-121748329D01*
X187237929Y-121705929D01*
X187405904Y-121454537D01*
X187450000Y-121232852D01*
X187450000Y-121232848D01*
X187464888Y-121158001D01*
X187450000Y-121083154D01*
X187450000Y-114308178D01*
X187760625Y-114100625D01*
X187960000Y-113802239D01*
X188159375Y-114100625D01*
X188470000Y-114308178D01*
X188470001Y-127955197D01*
X187645199Y-128780000D01*
X179519711Y-128780000D01*
X179402280Y-128662569D01*
X179021874Y-128505000D01*
X178610126Y-128505000D01*
X178229720Y-128662569D01*
X177938569Y-128953720D01*
X177781000Y-129334126D01*
X177781000Y-129745874D01*
X177938569Y-130126280D01*
X178229720Y-130417431D01*
X178610126Y-130575000D01*
X179021874Y-130575000D01*
X179402280Y-130417431D01*
X179519711Y-130300000D01*
X187885153Y-130300000D01*
X187960000Y-130314888D01*
X188034847Y-130300000D01*
X188034852Y-130300000D01*
X188256537Y-130255904D01*
X188507929Y-130087929D01*
X188550331Y-130024470D01*
X189714473Y-128860329D01*
X189777929Y-128817929D01*
X189945904Y-128566537D01*
X189990000Y-128344852D01*
X189990000Y-128344848D01*
X190004888Y-128270001D01*
X189990000Y-128195154D01*
X189990000Y-114308178D01*
X190300625Y-114100625D01*
X190312816Y-114082381D01*
X190321843Y-114127765D01*
X190462191Y-114337809D01*
X190672235Y-114478157D01*
X190920000Y-114527440D01*
X191010000Y-114527440D01*
X191010001Y-132019196D01*
X188915199Y-134114000D01*
X176495847Y-134114000D01*
X176421000Y-134099112D01*
X176346153Y-134114000D01*
X176346148Y-134114000D01*
X176124463Y-134158096D01*
X175873071Y-134326071D01*
X175830671Y-134389527D01*
X174775530Y-135444669D01*
X174712071Y-135487071D01*
X174611518Y-135637560D01*
X174385000Y-135637560D01*
X174137235Y-135686843D01*
X173927191Y-135827191D01*
X173786843Y-136037235D01*
X173737560Y-136285000D01*
X173737560Y-138035000D01*
X173786843Y-138282765D01*
X173927191Y-138492809D01*
X174137235Y-138633157D01*
X174385000Y-138682440D01*
X176135000Y-138682440D01*
X176382765Y-138633157D01*
X176592809Y-138492809D01*
X176733157Y-138282765D01*
X176735504Y-138270966D01*
X176904654Y-138440116D01*
X177459642Y-138670000D01*
X178060358Y-138670000D01*
X178615346Y-138440116D01*
X179010000Y-138045462D01*
X179404654Y-138440116D01*
X179959642Y-138670000D01*
X180560358Y-138670000D01*
X181115346Y-138440116D01*
X181333402Y-138222060D01*
X181877545Y-138222060D01*
X181960884Y-138475953D01*
X182525306Y-138681590D01*
X183125458Y-138655579D01*
X183559116Y-138475953D01*
X183642455Y-138222060D01*
X182760000Y-137339605D01*
X181877545Y-138222060D01*
X181333402Y-138222060D01*
X181540116Y-138015346D01*
X181549121Y-137993606D01*
X181697940Y-138042455D01*
X182580395Y-137160000D01*
X182939605Y-137160000D01*
X183822060Y-138042455D01*
X183995784Y-137985431D01*
X189535000Y-137985431D01*
X189535000Y-138874569D01*
X189875259Y-139696026D01*
X190503974Y-140324741D01*
X191325431Y-140665000D01*
X192214569Y-140665000D01*
X193036026Y-140324741D01*
X193664741Y-139696026D01*
X194005000Y-138874569D01*
X194005000Y-137985431D01*
X193664741Y-137163974D01*
X193036026Y-136535259D01*
X192214569Y-136195000D01*
X191325431Y-136195000D01*
X190503974Y-136535259D01*
X189875259Y-137163974D01*
X189535000Y-137985431D01*
X183995784Y-137985431D01*
X184075953Y-137959116D01*
X184281590Y-137394694D01*
X184255579Y-136794542D01*
X184075953Y-136360884D01*
X183822060Y-136277545D01*
X182939605Y-137160000D01*
X182580395Y-137160000D01*
X181697940Y-136277545D01*
X181549121Y-136326394D01*
X181540116Y-136304654D01*
X181333402Y-136097940D01*
X181877545Y-136097940D01*
X182760000Y-136980395D01*
X183642455Y-136097940D01*
X183559116Y-135844047D01*
X182994694Y-135638410D01*
X182394542Y-135664421D01*
X181960884Y-135844047D01*
X181877545Y-136097940D01*
X181333402Y-136097940D01*
X181115346Y-135879884D01*
X180560358Y-135650000D01*
X179959642Y-135650000D01*
X179404654Y-135879884D01*
X179010000Y-136274538D01*
X178615346Y-135879884D01*
X178060358Y-135650000D01*
X177459642Y-135650000D01*
X176904654Y-135879884D01*
X176735504Y-136049034D01*
X176733157Y-136037235D01*
X176592809Y-135827191D01*
X176562717Y-135807084D01*
X176735802Y-135634000D01*
X189155153Y-135634000D01*
X189230000Y-135648888D01*
X189304847Y-135634000D01*
X189304852Y-135634000D01*
X189526537Y-135589904D01*
X189777929Y-135421929D01*
X189820331Y-135358470D01*
X192254476Y-132924327D01*
X192317929Y-132881929D01*
X192360327Y-132818476D01*
X192360329Y-132818474D01*
X192485903Y-132630538D01*
X192485904Y-132630537D01*
X192530000Y-132408852D01*
X192530000Y-132408848D01*
X192544888Y-132334001D01*
X192530000Y-132259154D01*
X192530000Y-114527440D01*
X192620000Y-114527440D01*
X192867765Y-114478157D01*
X193077809Y-114337809D01*
X193218157Y-114127765D01*
X193267440Y-113880000D01*
X193267440Y-112180000D01*
X193218157Y-111932235D01*
X193077809Y-111722191D01*
X192867765Y-111581843D01*
X192620000Y-111532560D01*
X190920000Y-111532560D01*
X190672235Y-111581843D01*
X190462191Y-111722191D01*
X190321843Y-111932235D01*
X190312816Y-111977619D01*
X190300625Y-111959375D01*
X189809418Y-111631161D01*
X189376256Y-111545000D01*
X189083744Y-111545000D01*
X188650582Y-111631161D01*
X188159375Y-111959375D01*
X187960000Y-112257761D01*
X187760625Y-111959375D01*
X187269418Y-111631161D01*
X186836256Y-111545000D01*
X186543744Y-111545000D01*
X186110582Y-111631161D01*
X185619375Y-111959375D01*
X185420000Y-112257761D01*
X185220625Y-111959375D01*
X184729418Y-111631161D01*
X184296256Y-111545000D01*
X184003744Y-111545000D01*
X183570582Y-111631161D01*
X183079375Y-111959375D01*
X182880000Y-112257761D01*
X182680625Y-111959375D01*
X182189418Y-111631161D01*
X181756256Y-111545000D01*
X181463744Y-111545000D01*
X181030582Y-111631161D01*
X180539375Y-111959375D01*
X180340000Y-112257761D01*
X180140625Y-111959375D01*
X179649418Y-111631161D01*
X179216256Y-111545000D01*
X178923744Y-111545000D01*
X178490582Y-111631161D01*
X177999375Y-111959375D01*
X177800000Y-112257761D01*
X177600625Y-111959375D01*
X177109418Y-111631161D01*
X176676256Y-111545000D01*
X176383744Y-111545000D01*
X175950582Y-111631161D01*
X175459375Y-111959375D01*
X175260000Y-112257761D01*
X175060625Y-111959375D01*
X174569418Y-111631161D01*
X174136256Y-111545000D01*
X173843744Y-111545000D01*
X173410582Y-111631161D01*
X172919375Y-111959375D01*
X172720000Y-112257761D01*
X172520625Y-111959375D01*
X172029418Y-111631161D01*
X171596256Y-111545000D01*
X171303744Y-111545000D01*
X170870582Y-111631161D01*
X170379375Y-111959375D01*
X170180000Y-112257761D01*
X169980625Y-111959375D01*
X169670000Y-111751822D01*
X169670000Y-110818847D01*
X169684888Y-110744000D01*
X169670000Y-110669153D01*
X169670000Y-110669148D01*
X169625904Y-110447463D01*
X169457929Y-110196071D01*
X169394473Y-110153671D01*
X168484331Y-109243530D01*
X168441929Y-109180071D01*
X168190537Y-109012096D01*
X167968852Y-108968000D01*
X167968847Y-108968000D01*
X167894000Y-108953112D01*
X167819153Y-108968000D01*
X161350803Y-108968000D01*
X158515000Y-106132199D01*
X158515000Y-105966126D01*
X158357431Y-105585720D01*
X158066280Y-105294569D01*
X157685874Y-105137000D01*
X157274126Y-105137000D01*
X156893720Y-105294569D01*
X156602569Y-105585720D01*
X156591000Y-105613650D01*
X156579431Y-105585720D01*
X156288280Y-105294569D01*
X155907874Y-105137000D01*
X155496126Y-105137000D01*
X155115720Y-105294569D01*
X154940000Y-105470289D01*
X154764280Y-105294569D01*
X154383874Y-105137000D01*
X153972126Y-105137000D01*
X153591720Y-105294569D01*
X153543000Y-105343289D01*
X153494280Y-105294569D01*
X153386512Y-105249930D01*
X154532982Y-104103460D01*
X183546659Y-104103460D01*
X184131000Y-104687802D01*
X184131000Y-104853874D01*
X184288569Y-105234280D01*
X184579720Y-105525431D01*
X184960126Y-105683000D01*
X185371874Y-105683000D01*
X185752280Y-105525431D01*
X186043431Y-105234280D01*
X186201000Y-104853874D01*
X186201000Y-104442126D01*
X186043431Y-104061720D01*
X185752280Y-103770569D01*
X185469529Y-103653450D01*
X190425153Y-103653450D01*
X190500000Y-103668338D01*
X190574847Y-103653450D01*
X190574852Y-103653450D01*
X190796537Y-103609354D01*
X191047929Y-103441379D01*
X191090331Y-103377920D01*
X192254473Y-102213779D01*
X192317929Y-102171379D01*
X192485904Y-101919987D01*
X192530000Y-101698302D01*
X192530000Y-101698298D01*
X192544888Y-101623451D01*
X192530000Y-101548604D01*
X192530000Y-99287440D01*
X192620000Y-99287440D01*
X192867765Y-99238157D01*
X193077809Y-99097809D01*
X193218157Y-98887765D01*
X193267440Y-98640000D01*
X193267440Y-96940000D01*
X193218157Y-96692235D01*
X193077809Y-96482191D01*
X192867765Y-96341843D01*
X192620000Y-96292560D01*
X190920000Y-96292560D01*
X190672235Y-96341843D01*
X190462191Y-96482191D01*
X190321843Y-96692235D01*
X190312816Y-96737619D01*
X190300625Y-96719375D01*
X189809418Y-96391161D01*
X189376256Y-96305000D01*
X189083744Y-96305000D01*
X188650582Y-96391161D01*
X188159375Y-96719375D01*
X187960000Y-97017761D01*
X187760625Y-96719375D01*
X187269418Y-96391161D01*
X186836256Y-96305000D01*
X186543744Y-96305000D01*
X186110582Y-96391161D01*
X185619375Y-96719375D01*
X185420000Y-97017761D01*
X185220625Y-96719375D01*
X184729418Y-96391161D01*
X184296256Y-96305000D01*
X184003744Y-96305000D01*
X183570582Y-96391161D01*
X183079375Y-96719375D01*
X182880000Y-97017761D01*
X182680625Y-96719375D01*
X182189418Y-96391161D01*
X181756256Y-96305000D01*
X181463744Y-96305000D01*
X181030582Y-96391161D01*
X180539375Y-96719375D01*
X180340000Y-97017761D01*
X180140625Y-96719375D01*
X179649418Y-96391161D01*
X179216256Y-96305000D01*
X178923744Y-96305000D01*
X178490582Y-96391161D01*
X177999375Y-96719375D01*
X177800000Y-97017761D01*
X177600625Y-96719375D01*
X177109418Y-96391161D01*
X176676256Y-96305000D01*
X176383744Y-96305000D01*
X175950582Y-96391161D01*
X175459375Y-96719375D01*
X175260000Y-97017761D01*
X175060625Y-96719375D01*
X174569418Y-96391161D01*
X174136256Y-96305000D01*
X173843744Y-96305000D01*
X173410582Y-96391161D01*
X172919375Y-96719375D01*
X172720000Y-97017761D01*
X172520625Y-96719375D01*
X172029418Y-96391161D01*
X171596256Y-96305000D01*
X171303744Y-96305000D01*
X170870582Y-96391161D01*
X170379375Y-96719375D01*
X170180000Y-97017761D01*
X169980625Y-96719375D01*
X169489418Y-96391161D01*
X169056256Y-96305000D01*
X168763744Y-96305000D01*
X168330582Y-96391161D01*
X167839375Y-96719375D01*
X167640000Y-97017761D01*
X167440625Y-96719375D01*
X166949418Y-96391161D01*
X166516256Y-96305000D01*
X166223744Y-96305000D01*
X165790582Y-96391161D01*
X165299375Y-96719375D01*
X165100000Y-97017761D01*
X164900625Y-96719375D01*
X164665000Y-96561935D01*
X164665000Y-96348233D01*
X164681357Y-96266000D01*
X164665000Y-96183767D01*
X164665000Y-96183763D01*
X164616552Y-95940199D01*
X164432001Y-95663999D01*
X164362282Y-95617415D01*
X163462587Y-94717720D01*
X163416001Y-94647999D01*
X163139801Y-94463448D01*
X162896237Y-94415000D01*
X162896233Y-94415000D01*
X162814000Y-94398643D01*
X162731767Y-94415000D01*
X144512608Y-94415000D01*
X144452062Y-94354454D01*
X144705953Y-94271116D01*
X144911590Y-93706694D01*
X144885579Y-93106542D01*
X144705953Y-92672884D01*
X144452060Y-92589545D01*
X143569605Y-93472000D01*
X143583748Y-93486143D01*
X143404143Y-93665748D01*
X143390000Y-93651605D01*
X143375858Y-93665748D01*
X143196253Y-93486143D01*
X143210395Y-93472000D01*
X142327940Y-92589545D01*
X142179121Y-92638394D01*
X142170116Y-92616654D01*
X141963402Y-92409940D01*
X142507545Y-92409940D01*
X143390000Y-93292395D01*
X144272455Y-92409940D01*
X144189116Y-92156047D01*
X143624694Y-91950410D01*
X143024542Y-91976421D01*
X142590884Y-92156047D01*
X142507545Y-92409940D01*
X141963402Y-92409940D01*
X141745346Y-92191884D01*
X141190358Y-91962000D01*
X140589642Y-91962000D01*
X140034654Y-92191884D01*
X139640000Y-92586538D01*
X139245346Y-92191884D01*
X138690358Y-91962000D01*
X138089642Y-91962000D01*
X137534654Y-92191884D01*
X137365504Y-92361034D01*
X137363157Y-92349235D01*
X137222809Y-92139191D01*
X137012765Y-91998843D01*
X136765000Y-91949560D01*
X135015000Y-91949560D01*
X134767235Y-91998843D01*
X134557191Y-92139191D01*
X134416843Y-92349235D01*
X134367560Y-92597000D01*
X134367560Y-94347000D01*
X134416843Y-94594765D01*
X134557191Y-94804809D01*
X134767235Y-94945157D01*
X135015000Y-94994440D01*
X136765000Y-94994440D01*
X137012765Y-94945157D01*
X137222809Y-94804809D01*
X137363157Y-94594765D01*
X137365504Y-94582966D01*
X137534654Y-94752116D01*
X138089642Y-94982000D01*
X138690358Y-94982000D01*
X139245346Y-94752116D01*
X139640000Y-94357462D01*
X139850553Y-94568015D01*
X139241569Y-95177000D01*
X127298432Y-95177000D01*
X126689447Y-94568015D01*
X126723402Y-94534060D01*
X127267545Y-94534060D01*
X127350884Y-94787953D01*
X127915306Y-94993590D01*
X128515458Y-94967579D01*
X128949116Y-94787953D01*
X129032455Y-94534060D01*
X128150000Y-93651605D01*
X127267545Y-94534060D01*
X126723402Y-94534060D01*
X126930116Y-94327346D01*
X126939121Y-94305606D01*
X127087940Y-94354455D01*
X127970395Y-93472000D01*
X128329605Y-93472000D01*
X129212060Y-94354455D01*
X129465953Y-94271116D01*
X129671590Y-93706694D01*
X129645579Y-93106542D01*
X129465953Y-92672884D01*
X129212060Y-92589545D01*
X128329605Y-93472000D01*
X127970395Y-93472000D01*
X127087940Y-92589545D01*
X126939121Y-92638394D01*
X126930116Y-92616654D01*
X126723402Y-92409940D01*
X127267545Y-92409940D01*
X128150000Y-93292395D01*
X129032455Y-92409940D01*
X128949116Y-92156047D01*
X128384694Y-91950410D01*
X127784542Y-91976421D01*
X127350884Y-92156047D01*
X127267545Y-92409940D01*
X126723402Y-92409940D01*
X126505346Y-92191884D01*
X125950358Y-91962000D01*
X125349642Y-91962000D01*
X124794654Y-92191884D01*
X124400000Y-92586538D01*
X124005346Y-92191884D01*
X123450358Y-91962000D01*
X122849642Y-91962000D01*
X122294654Y-92191884D01*
X122125504Y-92361034D01*
X122123157Y-92349235D01*
X121982809Y-92139191D01*
X121772765Y-91998843D01*
X121525000Y-91949560D01*
X119775000Y-91949560D01*
X119527235Y-91998843D01*
X119317191Y-92139191D01*
X119176843Y-92349235D01*
X119127560Y-92597000D01*
X119127560Y-94347000D01*
X119176843Y-94594765D01*
X119317191Y-94804809D01*
X119527235Y-94945157D01*
X119775000Y-94994440D01*
X121525000Y-94994440D01*
X121772765Y-94945157D01*
X121982809Y-94804809D01*
X122123157Y-94594765D01*
X122125504Y-94582966D01*
X122294654Y-94752116D01*
X122849642Y-94982000D01*
X123450358Y-94982000D01*
X124005346Y-94752116D01*
X124400000Y-94357462D01*
X124794654Y-94752116D01*
X124808253Y-94757749D01*
X124863448Y-95035236D01*
X124863449Y-95035237D01*
X125048000Y-95311437D01*
X125117718Y-95358021D01*
X126303979Y-96544282D01*
X126350563Y-96614001D01*
X126626763Y-96798552D01*
X126870327Y-96847000D01*
X126952564Y-96863358D01*
X127034801Y-96847000D01*
X139505203Y-96847000D01*
X139587436Y-96863357D01*
X139669669Y-96847000D01*
X139669673Y-96847000D01*
X139913237Y-96798552D01*
X140189437Y-96614001D01*
X140236023Y-96544280D01*
X140888352Y-95891951D01*
X140960561Y-95940199D01*
X141104763Y-96036552D01*
X141430564Y-96101358D01*
X141512801Y-96085000D01*
X162468133Y-96085000D01*
X162965068Y-96581935D01*
X162759375Y-96719375D01*
X162560000Y-97017761D01*
X162360625Y-96719375D01*
X161869418Y-96391161D01*
X161436256Y-96305000D01*
X161143744Y-96305000D01*
X160710582Y-96391161D01*
X160219375Y-96719375D01*
X160006157Y-97038478D01*
X159945183Y-96908642D01*
X159516924Y-96518355D01*
X159106890Y-96348524D01*
X158877000Y-96469845D01*
X158877000Y-97663000D01*
X158897000Y-97663000D01*
X158897000Y-97917000D01*
X158877000Y-97917000D01*
X158877000Y-99110155D01*
X159106890Y-99231476D01*
X159516924Y-99061645D01*
X159945183Y-98671358D01*
X160006157Y-98541522D01*
X160219375Y-98860625D01*
X160710582Y-99188839D01*
X161143744Y-99275000D01*
X161436256Y-99275000D01*
X161869418Y-99188839D01*
X162360625Y-98860625D01*
X162560000Y-98562239D01*
X162759375Y-98860625D01*
X163250582Y-99188839D01*
X163683744Y-99275000D01*
X163976256Y-99275000D01*
X164409418Y-99188839D01*
X164900625Y-98860625D01*
X165100000Y-98562239D01*
X165299375Y-98860625D01*
X165790582Y-99188839D01*
X166223744Y-99275000D01*
X166516256Y-99275000D01*
X166949418Y-99188839D01*
X167440625Y-98860625D01*
X167640000Y-98562239D01*
X167839375Y-98860625D01*
X168330582Y-99188839D01*
X168763744Y-99275000D01*
X169056256Y-99275000D01*
X169489418Y-99188839D01*
X169980625Y-98860625D01*
X170180000Y-98562239D01*
X170379375Y-98860625D01*
X170690001Y-99068178D01*
X170690001Y-99253197D01*
X170119199Y-99824000D01*
X154243272Y-99824000D01*
X154260327Y-99798476D01*
X154260329Y-99798474D01*
X154385903Y-99610538D01*
X154385904Y-99610537D01*
X154430000Y-99388852D01*
X154430000Y-99388848D01*
X154444888Y-99314001D01*
X154430000Y-99239154D01*
X154430000Y-99068178D01*
X154740625Y-98860625D01*
X154940000Y-98562239D01*
X155139375Y-98860625D01*
X155630582Y-99188839D01*
X156063744Y-99275000D01*
X156356256Y-99275000D01*
X156789418Y-99188839D01*
X157280625Y-98860625D01*
X157493843Y-98541522D01*
X157554817Y-98671358D01*
X157983076Y-99061645D01*
X158393110Y-99231476D01*
X158623000Y-99110155D01*
X158623000Y-97917000D01*
X158603000Y-97917000D01*
X158603000Y-97663000D01*
X158623000Y-97663000D01*
X158623000Y-96469845D01*
X158393110Y-96348524D01*
X157983076Y-96518355D01*
X157554817Y-96908642D01*
X157493843Y-97038478D01*
X157280625Y-96719375D01*
X156789418Y-96391161D01*
X156356256Y-96305000D01*
X156063744Y-96305000D01*
X155630582Y-96391161D01*
X155139375Y-96719375D01*
X154940000Y-97017761D01*
X154740625Y-96719375D01*
X154249418Y-96391161D01*
X153816256Y-96305000D01*
X153523744Y-96305000D01*
X153090582Y-96391161D01*
X152599375Y-96719375D01*
X152400000Y-97017761D01*
X152200625Y-96719375D01*
X151709418Y-96391161D01*
X151276256Y-96305000D01*
X150983744Y-96305000D01*
X150550582Y-96391161D01*
X150059375Y-96719375D01*
X149731161Y-97210582D01*
X149615908Y-97790000D01*
X149731161Y-98369418D01*
X150059375Y-98860625D01*
X150370000Y-99068178D01*
X150370001Y-100777197D01*
X150275722Y-100871476D01*
X150229431Y-100759720D01*
X149938280Y-100468569D01*
X149557874Y-100311000D01*
X149146126Y-100311000D01*
X148765720Y-100468569D01*
X148648289Y-100586000D01*
X144332802Y-100586000D01*
X143230330Y-99483529D01*
X143187928Y-99420070D01*
X142936536Y-99252095D01*
X142714851Y-99207999D01*
X142714846Y-99207999D01*
X142639999Y-99193111D01*
X142565152Y-99207999D01*
X127463159Y-99207999D01*
X127369431Y-98981720D01*
X127078280Y-98690569D01*
X126697874Y-98533000D01*
X126286126Y-98533000D01*
X125905720Y-98690569D01*
X125614569Y-98981720D01*
X125457000Y-99362126D01*
X125457000Y-99773874D01*
X125477763Y-99824000D01*
X123518848Y-99824000D01*
X123444000Y-99809112D01*
X123369152Y-99824000D01*
X123369148Y-99824000D01*
X123195605Y-99858520D01*
X123147462Y-99868096D01*
X123027067Y-99948542D01*
X122896071Y-100036071D01*
X122853671Y-100099527D01*
X122642198Y-100311000D01*
X122476126Y-100311000D01*
X122095720Y-100468569D01*
X121804569Y-100759720D01*
X121647000Y-101140126D01*
X121647000Y-101551874D01*
X121804569Y-101932280D01*
X122095720Y-102223431D01*
X122476126Y-102381000D01*
X122887874Y-102381000D01*
X123268280Y-102223431D01*
X123559431Y-101932280D01*
X123717000Y-101551874D01*
X123717000Y-101385802D01*
X123758802Y-101344000D01*
X141417199Y-101344000D01*
X142919671Y-102846473D01*
X142962071Y-102909929D01*
X143025527Y-102952329D01*
X143213462Y-103077904D01*
X143261605Y-103087480D01*
X143435148Y-103122000D01*
X143435152Y-103122000D01*
X143510000Y-103136888D01*
X143584848Y-103122000D01*
X147632289Y-103122000D01*
X147749720Y-103239431D01*
X147861476Y-103285722D01*
X138115199Y-113032000D01*
X137853543Y-113032000D01*
X137922455Y-112822060D01*
X137040000Y-111939605D01*
X136157545Y-112822060D01*
X136226457Y-113032000D01*
X135403462Y-113032000D01*
X135820116Y-112615346D01*
X135829121Y-112593606D01*
X135977940Y-112642455D01*
X136860395Y-111760000D01*
X137219605Y-111760000D01*
X138102060Y-112642455D01*
X138355953Y-112559116D01*
X138561590Y-111994694D01*
X138535579Y-111394542D01*
X138355953Y-110960884D01*
X138102060Y-110877545D01*
X137219605Y-111760000D01*
X136860395Y-111760000D01*
X135977940Y-110877545D01*
X135829121Y-110926394D01*
X135820116Y-110904654D01*
X135613402Y-110697940D01*
X136157545Y-110697940D01*
X137040000Y-111580395D01*
X137922455Y-110697940D01*
X137839116Y-110444047D01*
X137274694Y-110238410D01*
X136674542Y-110264421D01*
X136240884Y-110444047D01*
X136157545Y-110697940D01*
X135613402Y-110697940D01*
X135395346Y-110479884D01*
X134840358Y-110250000D01*
X134239642Y-110250000D01*
X133684654Y-110479884D01*
X133290000Y-110874538D01*
X132895346Y-110479884D01*
X132340358Y-110250000D01*
X131739642Y-110250000D01*
X131184654Y-110479884D01*
X131015504Y-110649034D01*
X131013157Y-110637235D01*
X130872809Y-110427191D01*
X130842717Y-110407084D01*
X131269802Y-109980000D01*
X132767153Y-109980000D01*
X132842000Y-109994888D01*
X132916847Y-109980000D01*
X132916852Y-109980000D01*
X133138537Y-109935904D01*
X133389929Y-109767929D01*
X133432331Y-109704470D01*
X136183802Y-106953000D01*
X136349874Y-106953000D01*
X136730280Y-106795431D01*
X137021431Y-106504280D01*
X137033000Y-106476350D01*
X137044569Y-106504280D01*
X137335720Y-106795431D01*
X137716126Y-106953000D01*
X138127874Y-106953000D01*
X138508280Y-106795431D01*
X138625711Y-106678000D01*
X141282289Y-106678000D01*
X141399720Y-106795431D01*
X141780126Y-106953000D01*
X142191874Y-106953000D01*
X142572280Y-106795431D01*
X142863431Y-106504280D01*
X143021000Y-106123874D01*
X143021000Y-105712126D01*
X142863431Y-105331720D01*
X142572280Y-105040569D01*
X142191874Y-104883000D01*
X141780126Y-104883000D01*
X141399720Y-105040569D01*
X141282289Y-105158000D01*
X138625711Y-105158000D01*
X138508280Y-105040569D01*
X138127874Y-104883000D01*
X137716126Y-104883000D01*
X137335720Y-105040569D01*
X137044569Y-105331720D01*
X137033000Y-105359650D01*
X137021431Y-105331720D01*
X136730280Y-105040569D01*
X136349874Y-104883000D01*
X135938126Y-104883000D01*
X135557720Y-105040569D01*
X135266569Y-105331720D01*
X135109000Y-105712126D01*
X135109000Y-105878198D01*
X132527199Y-108460000D01*
X131029846Y-108460000D01*
X130954999Y-108445112D01*
X130880152Y-108460000D01*
X130880148Y-108460000D01*
X130658463Y-108504096D01*
X130407071Y-108672071D01*
X130364671Y-108735527D01*
X129055530Y-110044669D01*
X128992071Y-110087071D01*
X128891518Y-110237560D01*
X128665000Y-110237560D01*
X128417235Y-110286843D01*
X128207191Y-110427191D01*
X128066843Y-110637235D01*
X128017560Y-110885000D01*
X128017560Y-112635000D01*
X128066843Y-112882765D01*
X128166559Y-113032000D01*
X122613543Y-113032000D01*
X122682455Y-112822060D01*
X121800000Y-111939605D01*
X120917545Y-112822060D01*
X120986457Y-113032000D01*
X120163462Y-113032000D01*
X120580116Y-112615346D01*
X120589121Y-112593606D01*
X120737940Y-112642455D01*
X121620395Y-111760000D01*
X121979605Y-111760000D01*
X122862060Y-112642455D01*
X123115953Y-112559116D01*
X123321590Y-111994694D01*
X123295579Y-111394542D01*
X123115953Y-110960884D01*
X122862060Y-110877545D01*
X121979605Y-111760000D01*
X121620395Y-111760000D01*
X120737940Y-110877545D01*
X120589121Y-110926394D01*
X120580116Y-110904654D01*
X120373402Y-110697940D01*
X120917545Y-110697940D01*
X121800000Y-111580395D01*
X122682455Y-110697940D01*
X122599116Y-110444047D01*
X122034694Y-110238410D01*
X121434542Y-110264421D01*
X121000884Y-110444047D01*
X120917545Y-110697940D01*
X120373402Y-110697940D01*
X120155346Y-110479884D01*
X119600358Y-110250000D01*
X118999642Y-110250000D01*
X118444654Y-110479884D01*
X118050000Y-110874538D01*
X117655346Y-110479884D01*
X117100358Y-110250000D01*
X116499642Y-110250000D01*
X115944654Y-110479884D01*
X115775504Y-110649034D01*
X115773157Y-110637235D01*
X115632809Y-110427191D01*
X115602717Y-110407084D01*
X116029802Y-109980000D01*
X117527153Y-109980000D01*
X117602000Y-109994888D01*
X117676847Y-109980000D01*
X117676852Y-109980000D01*
X117898537Y-109935904D01*
X118149929Y-109767929D01*
X118192331Y-109704470D01*
X120943802Y-106953000D01*
X121109874Y-106953000D01*
X121490280Y-106795431D01*
X121781431Y-106504280D01*
X121939000Y-106123874D01*
X121939000Y-105712126D01*
X121781431Y-105331720D01*
X121490280Y-105040569D01*
X121109874Y-104883000D01*
X120698126Y-104883000D01*
X120317720Y-105040569D01*
X120026569Y-105331720D01*
X119869000Y-105712126D01*
X119869000Y-105878198D01*
X117287199Y-108460000D01*
X115789846Y-108460000D01*
X115714999Y-108445112D01*
X115640152Y-108460000D01*
X115640148Y-108460000D01*
X115418463Y-108504096D01*
X115167071Y-108672071D01*
X115124671Y-108735527D01*
X113815530Y-110044669D01*
X113752071Y-110087071D01*
X113651518Y-110237560D01*
X113425000Y-110237560D01*
X113177235Y-110286843D01*
X112967191Y-110427191D01*
X112826843Y-110637235D01*
X112777560Y-110885000D01*
X112777560Y-112635000D01*
X112826843Y-112882765D01*
X112967191Y-113092809D01*
X113177235Y-113233157D01*
X113425000Y-113282440D01*
X115175000Y-113282440D01*
X115422765Y-113233157D01*
X115632809Y-113092809D01*
X115773157Y-112882765D01*
X115775504Y-112870966D01*
X115944654Y-113040116D01*
X116499642Y-113270000D01*
X117100358Y-113270000D01*
X117655346Y-113040116D01*
X118050000Y-112645462D01*
X118444654Y-113040116D01*
X118558646Y-113087333D01*
X118324071Y-113244071D01*
X118281671Y-113307527D01*
X117371528Y-114217671D01*
X117308072Y-114260071D01*
X117265672Y-114323527D01*
X117265671Y-114323528D01*
X117140097Y-114511463D01*
X117081112Y-114808000D01*
X117096001Y-114882852D01*
X117096000Y-116136289D01*
X116978569Y-116253720D01*
X116821000Y-116634126D01*
X116821000Y-117045874D01*
X116978569Y-117426280D01*
X117269720Y-117717431D01*
X117650126Y-117875000D01*
X118061874Y-117875000D01*
X118442280Y-117717431D01*
X118733431Y-117426280D01*
X118891000Y-117045874D01*
X118891000Y-116634126D01*
X118733431Y-116253720D01*
X118616000Y-116136289D01*
X118616000Y-115122801D01*
X119186802Y-114552000D01*
X120593199Y-114552000D01*
X120419530Y-114725669D01*
X120356071Y-114768071D01*
X120188096Y-115019464D01*
X120144000Y-115241149D01*
X120144000Y-115241153D01*
X120129112Y-115316000D01*
X120144000Y-115390847D01*
X120144001Y-120335197D01*
X119319199Y-121160000D01*
X115739850Y-121160000D01*
X115665002Y-121145112D01*
X115590154Y-121160000D01*
X115590150Y-121160000D01*
X115368465Y-121204096D01*
X115117073Y-121372071D01*
X115074673Y-121435527D01*
X113742531Y-122767670D01*
X113679072Y-122810072D01*
X113578519Y-122960561D01*
X113352001Y-122960561D01*
X113104236Y-123009844D01*
X112894192Y-123150192D01*
X112753844Y-123360236D01*
X112704561Y-123608001D01*
X103580000Y-123608001D01*
X103580000Y-90995431D01*
X104445000Y-90995431D01*
X104445000Y-91884569D01*
X104785259Y-92706026D01*
X105413974Y-93334741D01*
X106235431Y-93675000D01*
X107124569Y-93675000D01*
X107946026Y-93334741D01*
X108574741Y-92706026D01*
X108915000Y-91884569D01*
X108915000Y-90995431D01*
X108736710Y-90565000D01*
X178817560Y-90565000D01*
X178817560Y-92315000D01*
X178866843Y-92562765D01*
X179007191Y-92772809D01*
X179217235Y-92913157D01*
X179465000Y-92962440D01*
X181215000Y-92962440D01*
X181462765Y-92913157D01*
X181672809Y-92772809D01*
X181803475Y-92577255D01*
X181842914Y-92616694D01*
X181957546Y-92502062D01*
X182040884Y-92755953D01*
X182605306Y-92961590D01*
X183205458Y-92935579D01*
X183639116Y-92755953D01*
X183722455Y-92502060D01*
X182840000Y-91619605D01*
X182825858Y-91633748D01*
X182646253Y-91454143D01*
X182660395Y-91440000D01*
X183019605Y-91440000D01*
X183902060Y-92322455D01*
X184155953Y-92239116D01*
X184361590Y-91674694D01*
X184335579Y-91074542D01*
X184302811Y-90995431D01*
X189535000Y-90995431D01*
X189535000Y-91884569D01*
X189875259Y-92706026D01*
X190503974Y-93334741D01*
X191325431Y-93675000D01*
X192214569Y-93675000D01*
X193036026Y-93334741D01*
X193664741Y-92706026D01*
X194005000Y-91884569D01*
X194005000Y-90995431D01*
X193664741Y-90173974D01*
X193036026Y-89545259D01*
X192214569Y-89205000D01*
X191325431Y-89205000D01*
X190503974Y-89545259D01*
X189875259Y-90173974D01*
X189535000Y-90995431D01*
X184302811Y-90995431D01*
X184155953Y-90640884D01*
X183902060Y-90557545D01*
X183019605Y-91440000D01*
X182660395Y-91440000D01*
X182646253Y-91425858D01*
X182825858Y-91246253D01*
X182840000Y-91260395D01*
X183722455Y-90377940D01*
X183639116Y-90124047D01*
X183074694Y-89918410D01*
X182474542Y-89944421D01*
X182040884Y-90124047D01*
X181957546Y-90377938D01*
X181842914Y-90263306D01*
X181803475Y-90302745D01*
X181672809Y-90107191D01*
X181462765Y-89966843D01*
X181215000Y-89917560D01*
X179465000Y-89917560D01*
X179217235Y-89966843D01*
X179007191Y-90107191D01*
X178866843Y-90317235D01*
X178817560Y-90565000D01*
X108736710Y-90565000D01*
X108574741Y-90173974D01*
X107946026Y-89545259D01*
X107124569Y-89205000D01*
X106235431Y-89205000D01*
X105413974Y-89545259D01*
X104785259Y-90173974D01*
X104445000Y-90995431D01*
X103580000Y-90995431D01*
X103580000Y-88340000D01*
X194870000Y-88340000D01*
X194870001Y-141530000D01*
X194870001Y-141530000D01*
G37*
X194870001Y-141530000D02*
X103580000Y-141530000D01*
X103580000Y-137985431D01*
X104445000Y-137985431D01*
X104445000Y-138874569D01*
X104785259Y-139696026D01*
X105413974Y-140324741D01*
X106235431Y-140665000D01*
X107124569Y-140665000D01*
X107946026Y-140324741D01*
X108574741Y-139696026D01*
X108915000Y-138874569D01*
X108915000Y-137985431D01*
X108574741Y-137163974D01*
X107946026Y-136535259D01*
X107124569Y-136195000D01*
X106235431Y-136195000D01*
X105413974Y-136535259D01*
X104785259Y-137163974D01*
X104445000Y-137985431D01*
X103580000Y-137985431D01*
X103580000Y-123608001D01*
X112704561Y-123608001D01*
X112704561Y-125358001D01*
X112753844Y-125605766D01*
X112894192Y-125815810D01*
X113104236Y-125956158D01*
X113352001Y-126005441D01*
X115102001Y-126005441D01*
X115349766Y-125956158D01*
X115559810Y-125815810D01*
X115700158Y-125605766D01*
X115702505Y-125593967D01*
X115871655Y-125763117D01*
X116426643Y-125993001D01*
X117027359Y-125993001D01*
X117582347Y-125763117D01*
X117977001Y-125368463D01*
X118371655Y-125763117D01*
X118926643Y-125993001D01*
X119527359Y-125993001D01*
X120082347Y-125763117D01*
X120300403Y-125545061D01*
X120844546Y-125545061D01*
X120927885Y-125798954D01*
X121492307Y-126004591D01*
X122092459Y-125978580D01*
X122526117Y-125798954D01*
X122609456Y-125545061D01*
X121727001Y-124662606D01*
X120844546Y-125545061D01*
X120300403Y-125545061D01*
X120507117Y-125338347D01*
X120516122Y-125316607D01*
X120664941Y-125365456D01*
X121547396Y-124483001D01*
X120664941Y-123600546D01*
X120516122Y-123649395D01*
X120507117Y-123627655D01*
X120300403Y-123420941D01*
X120844546Y-123420941D01*
X121727001Y-124303396D01*
X122609456Y-123420941D01*
X122526117Y-123167048D01*
X121961695Y-122961411D01*
X121361543Y-122987422D01*
X120927885Y-123167048D01*
X120844546Y-123420941D01*
X120300403Y-123420941D01*
X120082347Y-123202885D01*
X119527359Y-122973001D01*
X118926643Y-122973001D01*
X118371655Y-123202885D01*
X117977001Y-123597539D01*
X117582347Y-123202885D01*
X117027359Y-122973001D01*
X116426643Y-122973001D01*
X115871655Y-123202885D01*
X115702505Y-123372035D01*
X115700158Y-123360236D01*
X115559810Y-123150192D01*
X115529718Y-123130085D01*
X115979804Y-122680000D01*
X119559153Y-122680000D01*
X119634000Y-122694888D01*
X119708847Y-122680000D01*
X119708852Y-122680000D01*
X119930537Y-122635904D01*
X120181929Y-122467929D01*
X120224331Y-122404470D01*
X121388473Y-121240329D01*
X121451929Y-121197929D01*
X121619904Y-120946537D01*
X121664000Y-120724852D01*
X121664000Y-120724848D01*
X121678888Y-120650001D01*
X121664000Y-120575154D01*
X121664000Y-115630801D01*
X122234802Y-115060000D01*
X123378728Y-115060000D01*
X123236096Y-115273464D01*
X123192000Y-115495149D01*
X123192000Y-115495153D01*
X123177112Y-115570000D01*
X123192000Y-115644847D01*
X123192001Y-124043718D01*
X123042954Y-123683885D01*
X122789061Y-123600546D01*
X121906606Y-124483001D01*
X122789061Y-125365456D01*
X123042954Y-125282117D01*
X123192001Y-124873021D01*
X123192001Y-126939197D01*
X122005198Y-128126001D01*
X118330845Y-128126001D01*
X118255998Y-128111113D01*
X118181151Y-128126001D01*
X118181147Y-128126001D01*
X117959462Y-128170097D01*
X117838382Y-128251000D01*
X117650126Y-128251000D01*
X117269720Y-128408569D01*
X116978569Y-128699720D01*
X116821000Y-129080126D01*
X116821000Y-129491874D01*
X116978569Y-129872280D01*
X117269720Y-130163431D01*
X117650126Y-130321000D01*
X118061874Y-130321000D01*
X118442280Y-130163431D01*
X118733431Y-129872280D01*
X118827159Y-129646001D01*
X122245152Y-129646001D01*
X122319999Y-129660889D01*
X122394846Y-129646001D01*
X122394851Y-129646001D01*
X122616536Y-129601905D01*
X122867928Y-129433930D01*
X122910330Y-129370471D01*
X123446001Y-128834801D01*
X123446000Y-133289198D01*
X122621199Y-134114000D01*
X115535847Y-134114000D01*
X115461000Y-134099112D01*
X115386153Y-134114000D01*
X115386148Y-134114000D01*
X115164463Y-134158096D01*
X114913071Y-134326071D01*
X114870671Y-134389527D01*
X113815528Y-135444671D01*
X113752072Y-135487071D01*
X113709672Y-135550527D01*
X113709671Y-135550528D01*
X113651518Y-135637560D01*
X113425000Y-135637560D01*
X113177235Y-135686843D01*
X112967191Y-135827191D01*
X112826843Y-136037235D01*
X112777560Y-136285000D01*
X112777560Y-138035000D01*
X112826843Y-138282765D01*
X112967191Y-138492809D01*
X113177235Y-138633157D01*
X113425000Y-138682440D01*
X115175000Y-138682440D01*
X115422765Y-138633157D01*
X115632809Y-138492809D01*
X115773157Y-138282765D01*
X115775504Y-138270966D01*
X115944654Y-138440116D01*
X116499642Y-138670000D01*
X117100358Y-138670000D01*
X117655346Y-138440116D01*
X118050000Y-138045462D01*
X118444654Y-138440116D01*
X118999642Y-138670000D01*
X119600358Y-138670000D01*
X120155346Y-138440116D01*
X120373402Y-138222060D01*
X120917545Y-138222060D01*
X121000884Y-138475953D01*
X121565306Y-138681590D01*
X122165458Y-138655579D01*
X122599116Y-138475953D01*
X122682455Y-138222060D01*
X121800000Y-137339605D01*
X120917545Y-138222060D01*
X120373402Y-138222060D01*
X120580116Y-138015346D01*
X120589121Y-137993606D01*
X120737940Y-138042455D01*
X121620395Y-137160000D01*
X121979605Y-137160000D01*
X122862060Y-138042455D01*
X123115953Y-137959116D01*
X123321590Y-137394694D01*
X123295579Y-136794542D01*
X123115953Y-136360884D01*
X122862060Y-136277545D01*
X121979605Y-137160000D01*
X121620395Y-137160000D01*
X120737940Y-136277545D01*
X120589121Y-136326394D01*
X120580116Y-136304654D01*
X120373402Y-136097940D01*
X120917545Y-136097940D01*
X121800000Y-136980395D01*
X122682455Y-136097940D01*
X122599116Y-135844047D01*
X122034694Y-135638410D01*
X121434542Y-135664421D01*
X121000884Y-135844047D01*
X120917545Y-136097940D01*
X120373402Y-136097940D01*
X120155346Y-135879884D01*
X119600358Y-135650000D01*
X118999642Y-135650000D01*
X118444654Y-135879884D01*
X118050000Y-136274538D01*
X117655346Y-135879884D01*
X117100358Y-135650000D01*
X116499642Y-135650000D01*
X115944654Y-135879884D01*
X115775504Y-136049034D01*
X115773157Y-136037235D01*
X115632809Y-135827191D01*
X115602717Y-135807084D01*
X115775802Y-135634000D01*
X122861153Y-135634000D01*
X122936000Y-135648888D01*
X123010847Y-135634000D01*
X123010852Y-135634000D01*
X123232537Y-135589904D01*
X123483929Y-135421929D01*
X123526331Y-135358470D01*
X124690473Y-134194329D01*
X124753929Y-134151929D01*
X124921904Y-133900537D01*
X124966000Y-133678852D01*
X124966000Y-133678848D01*
X124980888Y-133604001D01*
X124966000Y-133529154D01*
X124966000Y-127958355D01*
X125007929Y-127930339D01*
X125175904Y-127678947D01*
X125220000Y-127457262D01*
X125220000Y-127457258D01*
X125234888Y-127382411D01*
X125220000Y-127307564D01*
X125220000Y-116013211D01*
X125273192Y-115960020D01*
X132344579Y-115960019D01*
X132336000Y-116003148D01*
X132336000Y-116003153D01*
X132321112Y-116078000D01*
X132333253Y-116139036D01*
X132218569Y-116253720D01*
X132061000Y-116634126D01*
X132061000Y-117045874D01*
X132218569Y-117426280D01*
X132509720Y-117717431D01*
X132890126Y-117875000D01*
X133301874Y-117875000D01*
X133682280Y-117717431D01*
X133973431Y-117426280D01*
X134131000Y-117045874D01*
X134131000Y-116634126D01*
X134038176Y-116410029D01*
X137162001Y-116410029D01*
X137162000Y-120589198D01*
X136337199Y-121414000D01*
X130775847Y-121414000D01*
X130701000Y-121399112D01*
X130626153Y-121414000D01*
X130626148Y-121414000D01*
X130404463Y-121458096D01*
X130153071Y-121626071D01*
X130110671Y-121689527D01*
X129055528Y-122744671D01*
X128992072Y-122787071D01*
X128949672Y-122850527D01*
X128949671Y-122850528D01*
X128891518Y-122937560D01*
X128665000Y-122937560D01*
X128417235Y-122986843D01*
X128207191Y-123127191D01*
X128066843Y-123337235D01*
X128017560Y-123585000D01*
X128017560Y-125335000D01*
X128066843Y-125582765D01*
X128207191Y-125792809D01*
X128417235Y-125933157D01*
X128665000Y-125982440D01*
X130415000Y-125982440D01*
X130662765Y-125933157D01*
X130872809Y-125792809D01*
X131013157Y-125582765D01*
X131015504Y-125570966D01*
X131184654Y-125740116D01*
X131739642Y-125970000D01*
X132340358Y-125970000D01*
X132895346Y-125740116D01*
X133290000Y-125345462D01*
X133684654Y-125740116D01*
X134239642Y-125970000D01*
X134840358Y-125970000D01*
X135395346Y-125740116D01*
X135613402Y-125522060D01*
X136157545Y-125522060D01*
X136240884Y-125775953D01*
X136805306Y-125981590D01*
X137405458Y-125955579D01*
X137839116Y-125775953D01*
X137922455Y-125522060D01*
X137040000Y-124639605D01*
X136157545Y-125522060D01*
X135613402Y-125522060D01*
X135820116Y-125315346D01*
X135829121Y-125293606D01*
X135977940Y-125342455D01*
X136860395Y-124460000D01*
X137219605Y-124460000D01*
X138102060Y-125342455D01*
X138355953Y-125259116D01*
X138561590Y-124694694D01*
X138535579Y-124094542D01*
X138355953Y-123660884D01*
X138102060Y-123577545D01*
X137219605Y-124460000D01*
X136860395Y-124460000D01*
X135977940Y-123577545D01*
X135829121Y-123626394D01*
X135820116Y-123604654D01*
X135613402Y-123397940D01*
X136157545Y-123397940D01*
X137040000Y-124280395D01*
X137922455Y-123397940D01*
X137839116Y-123144047D01*
X137274694Y-122938410D01*
X136674542Y-122964421D01*
X136240884Y-123144047D01*
X136157545Y-123397940D01*
X135613402Y-123397940D01*
X135395346Y-123179884D01*
X134840358Y-122950000D01*
X134239642Y-122950000D01*
X133684654Y-123179884D01*
X133290000Y-123574538D01*
X132895346Y-123179884D01*
X132340358Y-122950000D01*
X131739642Y-122950000D01*
X131184654Y-123179884D01*
X131015504Y-123349034D01*
X131013157Y-123337235D01*
X130872809Y-123127191D01*
X130842717Y-123107084D01*
X131015802Y-122934000D01*
X136577153Y-122934000D01*
X136652000Y-122948888D01*
X136726847Y-122934000D01*
X136726852Y-122934000D01*
X136948537Y-122889904D01*
X137199929Y-122721929D01*
X137242331Y-122658470D01*
X138406473Y-121494329D01*
X138469929Y-121451929D01*
X138637904Y-121200537D01*
X138682000Y-120978852D01*
X138682000Y-120978848D01*
X138696888Y-120904001D01*
X138682000Y-120829154D01*
X138682000Y-116860038D01*
X139477521Y-116860037D01*
X139552372Y-116874926D01*
X139702001Y-116845163D01*
X139702000Y-127447198D01*
X138369199Y-128780000D01*
X133799711Y-128780000D01*
X133682280Y-128662569D01*
X133301874Y-128505000D01*
X132890126Y-128505000D01*
X132509720Y-128662569D01*
X132218569Y-128953720D01*
X132061000Y-129334126D01*
X132061000Y-129745874D01*
X132218569Y-130126280D01*
X132509720Y-130417431D01*
X132890126Y-130575000D01*
X133301874Y-130575000D01*
X133682280Y-130417431D01*
X133799711Y-130300000D01*
X138609153Y-130300000D01*
X138684000Y-130314888D01*
X138758847Y-130300000D01*
X138758852Y-130300000D01*
X138980537Y-130255904D01*
X139231929Y-130087929D01*
X139274331Y-130024470D01*
X140210000Y-129088801D01*
X140210000Y-132527198D01*
X138623199Y-134114000D01*
X130775847Y-134114000D01*
X130701000Y-134099112D01*
X130626153Y-134114000D01*
X130626148Y-134114000D01*
X130404463Y-134158096D01*
X130153071Y-134326071D01*
X130110671Y-134389527D01*
X129055528Y-135444671D01*
X128992072Y-135487071D01*
X128949672Y-135550527D01*
X128949671Y-135550528D01*
X128891518Y-135637560D01*
X128665000Y-135637560D01*
X128417235Y-135686843D01*
X128207191Y-135827191D01*
X128066843Y-136037235D01*
X128017560Y-136285000D01*
X128017560Y-138035000D01*
X128066843Y-138282765D01*
X128207191Y-138492809D01*
X128417235Y-138633157D01*
X128665000Y-138682440D01*
X130415000Y-138682440D01*
X130662765Y-138633157D01*
X130872809Y-138492809D01*
X131013157Y-138282765D01*
X131015504Y-138270966D01*
X131184654Y-138440116D01*
X131739642Y-138670000D01*
X132340358Y-138670000D01*
X132895346Y-138440116D01*
X133290000Y-138045462D01*
X133684654Y-138440116D01*
X134239642Y-138670000D01*
X134840358Y-138670000D01*
X135395346Y-138440116D01*
X135613402Y-138222060D01*
X136157545Y-138222060D01*
X136240884Y-138475953D01*
X136805306Y-138681590D01*
X137405458Y-138655579D01*
X137839116Y-138475953D01*
X137922455Y-138222060D01*
X137040000Y-137339605D01*
X136157545Y-138222060D01*
X135613402Y-138222060D01*
X135820116Y-138015346D01*
X135829121Y-137993606D01*
X135977940Y-138042455D01*
X136860395Y-137160000D01*
X137219605Y-137160000D01*
X138102060Y-138042455D01*
X138355953Y-137959116D01*
X138561590Y-137394694D01*
X138535579Y-136794542D01*
X138355953Y-136360884D01*
X138102060Y-136277545D01*
X137219605Y-137160000D01*
X136860395Y-137160000D01*
X135977940Y-136277545D01*
X135829121Y-136326394D01*
X135820116Y-136304654D01*
X135613402Y-136097940D01*
X136157545Y-136097940D01*
X137040000Y-136980395D01*
X137922455Y-136097940D01*
X137839116Y-135844047D01*
X137274694Y-135638410D01*
X136674542Y-135664421D01*
X136240884Y-135844047D01*
X136157545Y-136097940D01*
X135613402Y-136097940D01*
X135395346Y-135879884D01*
X134840358Y-135650000D01*
X134239642Y-135650000D01*
X133684654Y-135879884D01*
X133290000Y-136274538D01*
X132895346Y-135879884D01*
X132340358Y-135650000D01*
X131739642Y-135650000D01*
X131184654Y-135879884D01*
X131015504Y-136049034D01*
X131013157Y-136037235D01*
X130872809Y-135827191D01*
X130842717Y-135807084D01*
X131015802Y-135634000D01*
X138863153Y-135634000D01*
X138938000Y-135648888D01*
X139012847Y-135634000D01*
X139012852Y-135634000D01*
X139234537Y-135589904D01*
X139485929Y-135421929D01*
X139528331Y-135358470D01*
X141454473Y-133432329D01*
X141517929Y-133389929D01*
X141685904Y-133138537D01*
X141730000Y-132916852D01*
X141730000Y-132916847D01*
X141744888Y-132842000D01*
X141730000Y-132767153D01*
X141730000Y-116270031D01*
X147322000Y-110678032D01*
X147322001Y-115628288D01*
X147204569Y-115745720D01*
X147047000Y-116126126D01*
X147047000Y-116537874D01*
X147204569Y-116918280D01*
X147495720Y-117209431D01*
X147876126Y-117367000D01*
X148287874Y-117367000D01*
X148668280Y-117209431D01*
X148959431Y-116918280D01*
X149117000Y-116537874D01*
X149117000Y-116126126D01*
X148959431Y-115745720D01*
X148842000Y-115628289D01*
X148842000Y-109794441D01*
X150850328Y-107786114D01*
X150850330Y-107786111D01*
X151985930Y-106650511D01*
X152030569Y-106758280D01*
X152321720Y-107049431D01*
X152702126Y-107207000D01*
X152868199Y-107207000D01*
X155450001Y-109788803D01*
X155450000Y-111751822D01*
X155139375Y-111959375D01*
X154941563Y-112255422D01*
X154940000Y-112255111D01*
X154938437Y-112255422D01*
X154740625Y-111959375D01*
X154249418Y-111631161D01*
X153816256Y-111545000D01*
X153523744Y-111545000D01*
X153090582Y-111631161D01*
X152599375Y-111959375D01*
X152401563Y-112255422D01*
X152400000Y-112255111D01*
X152398437Y-112255422D01*
X152200625Y-111959375D01*
X151709418Y-111631161D01*
X151276256Y-111545000D01*
X150983744Y-111545000D01*
X150550582Y-111631161D01*
X150059375Y-111959375D01*
X149731161Y-112450582D01*
X149615908Y-113030000D01*
X149731161Y-113609418D01*
X150059375Y-114100625D01*
X150370000Y-114308178D01*
X150370000Y-115241153D01*
X150355112Y-115316000D01*
X150370000Y-115390847D01*
X150370000Y-115390851D01*
X150414096Y-115612536D01*
X150582071Y-115863929D01*
X150645530Y-115906331D01*
X151809670Y-117070472D01*
X151852071Y-117133929D01*
X151915530Y-117176331D01*
X155116198Y-120377000D01*
X154734126Y-120377000D01*
X154353720Y-120534569D01*
X154062569Y-120825720D01*
X153905000Y-121206126D01*
X153905000Y-121372198D01*
X153609199Y-121668000D01*
X145761848Y-121668000D01*
X145687000Y-121653112D01*
X145612152Y-121668000D01*
X145612148Y-121668000D01*
X145438605Y-121702520D01*
X145390462Y-121712096D01*
X145203418Y-121837076D01*
X145139071Y-121880071D01*
X145096671Y-121943527D01*
X144295528Y-122744671D01*
X144232072Y-122787071D01*
X144189672Y-122850527D01*
X144189671Y-122850528D01*
X144131518Y-122937560D01*
X143905000Y-122937560D01*
X143657235Y-122986843D01*
X143447191Y-123127191D01*
X143306843Y-123337235D01*
X143257560Y-123585000D01*
X143257560Y-125335000D01*
X143306843Y-125582765D01*
X143447191Y-125792809D01*
X143657235Y-125933157D01*
X143905000Y-125982440D01*
X145655000Y-125982440D01*
X145902765Y-125933157D01*
X146112809Y-125792809D01*
X146253157Y-125582765D01*
X146255504Y-125570966D01*
X146424654Y-125740116D01*
X146979642Y-125970000D01*
X147580358Y-125970000D01*
X148135346Y-125740116D01*
X148530000Y-125345462D01*
X148924654Y-125740116D01*
X149479642Y-125970000D01*
X150080358Y-125970000D01*
X150635346Y-125740116D01*
X150853402Y-125522060D01*
X151397545Y-125522060D01*
X151480884Y-125775953D01*
X152045306Y-125981590D01*
X152645458Y-125955579D01*
X153079116Y-125775953D01*
X153162455Y-125522060D01*
X152280000Y-124639605D01*
X151397545Y-125522060D01*
X150853402Y-125522060D01*
X151060116Y-125315346D01*
X151069121Y-125293606D01*
X151217940Y-125342455D01*
X152100395Y-124460000D01*
X152459605Y-124460000D01*
X153342060Y-125342455D01*
X153595953Y-125259116D01*
X153801590Y-124694694D01*
X153775579Y-124094542D01*
X153595953Y-123660884D01*
X153342060Y-123577545D01*
X152459605Y-124460000D01*
X152100395Y-124460000D01*
X151217940Y-123577545D01*
X151069121Y-123626394D01*
X151060116Y-123604654D01*
X150643462Y-123188000D01*
X151466457Y-123188000D01*
X151397545Y-123397940D01*
X152280000Y-124280395D01*
X153162455Y-123397940D01*
X153093543Y-123188000D01*
X153849153Y-123188000D01*
X153924000Y-123202888D01*
X153998847Y-123188000D01*
X153998852Y-123188000D01*
X154220537Y-123143904D01*
X154471929Y-122975929D01*
X154514331Y-122912470D01*
X154979802Y-122447000D01*
X155145874Y-122447000D01*
X155526280Y-122289431D01*
X155704001Y-122111710D01*
X155704000Y-127701197D01*
X154625199Y-128780000D01*
X149039711Y-128780000D01*
X148922280Y-128662569D01*
X148541874Y-128505000D01*
X148130126Y-128505000D01*
X147749720Y-128662569D01*
X147458569Y-128953720D01*
X147301000Y-129334126D01*
X147301000Y-129745874D01*
X147458569Y-130126280D01*
X147749720Y-130417431D01*
X148130126Y-130575000D01*
X148541874Y-130575000D01*
X148922280Y-130417431D01*
X149039711Y-130300000D01*
X154865153Y-130300000D01*
X154940000Y-130314888D01*
X155014847Y-130300000D01*
X155014852Y-130300000D01*
X155236537Y-130255904D01*
X155487929Y-130087929D01*
X155530331Y-130024470D01*
X156212000Y-129342802D01*
X156212000Y-133035197D01*
X155133199Y-134114000D01*
X146015847Y-134114000D01*
X145941000Y-134099112D01*
X145866153Y-134114000D01*
X145866148Y-134114000D01*
X145644463Y-134158096D01*
X145393071Y-134326071D01*
X145350671Y-134389527D01*
X144295528Y-135444671D01*
X144232072Y-135487071D01*
X144189672Y-135550527D01*
X144189671Y-135550528D01*
X144131518Y-135637560D01*
X143905000Y-135637560D01*
X143657235Y-135686843D01*
X143447191Y-135827191D01*
X143306843Y-136037235D01*
X143257560Y-136285000D01*
X143257560Y-138035000D01*
X143306843Y-138282765D01*
X143447191Y-138492809D01*
X143657235Y-138633157D01*
X143905000Y-138682440D01*
X145655000Y-138682440D01*
X145902765Y-138633157D01*
X146112809Y-138492809D01*
X146253157Y-138282765D01*
X146255504Y-138270966D01*
X146424654Y-138440116D01*
X146979642Y-138670000D01*
X147580358Y-138670000D01*
X148135346Y-138440116D01*
X148530000Y-138045462D01*
X148924654Y-138440116D01*
X149479642Y-138670000D01*
X150080358Y-138670000D01*
X150635346Y-138440116D01*
X150853402Y-138222060D01*
X151397545Y-138222060D01*
X151480884Y-138475953D01*
X152045306Y-138681590D01*
X152645458Y-138655579D01*
X153079116Y-138475953D01*
X153162455Y-138222060D01*
X152280000Y-137339605D01*
X151397545Y-138222060D01*
X150853402Y-138222060D01*
X151060116Y-138015346D01*
X151069121Y-137993606D01*
X151217940Y-138042455D01*
X152100395Y-137160000D01*
X152459605Y-137160000D01*
X153342060Y-138042455D01*
X153595953Y-137959116D01*
X153801590Y-137394694D01*
X153775579Y-136794542D01*
X153595953Y-136360884D01*
X153342060Y-136277545D01*
X152459605Y-137160000D01*
X152100395Y-137160000D01*
X151217940Y-136277545D01*
X151069121Y-136326394D01*
X151060116Y-136304654D01*
X150853402Y-136097940D01*
X151397545Y-136097940D01*
X152280000Y-136980395D01*
X153162455Y-136097940D01*
X153079116Y-135844047D01*
X152514694Y-135638410D01*
X151914542Y-135664421D01*
X151480884Y-135844047D01*
X151397545Y-136097940D01*
X150853402Y-136097940D01*
X150635346Y-135879884D01*
X150080358Y-135650000D01*
X149479642Y-135650000D01*
X148924654Y-135879884D01*
X148530000Y-136274538D01*
X148135346Y-135879884D01*
X147580358Y-135650000D01*
X146979642Y-135650000D01*
X146424654Y-135879884D01*
X146255504Y-136049034D01*
X146253157Y-136037235D01*
X146112809Y-135827191D01*
X146082717Y-135807084D01*
X146255802Y-135634000D01*
X155373153Y-135634000D01*
X155448000Y-135648888D01*
X155522847Y-135634000D01*
X155522852Y-135634000D01*
X155744537Y-135589904D01*
X155995929Y-135421929D01*
X156038331Y-135358470D01*
X157456476Y-133940327D01*
X157519929Y-133897929D01*
X157562327Y-133834476D01*
X157562329Y-133834474D01*
X157687903Y-133646538D01*
X157687904Y-133646537D01*
X157732000Y-133424852D01*
X157732000Y-133424848D01*
X157746888Y-133350001D01*
X157732000Y-133275154D01*
X157732000Y-118678801D01*
X158810803Y-117600000D01*
X164400289Y-117600000D01*
X164222569Y-117777720D01*
X164065000Y-118158126D01*
X164065000Y-118569874D01*
X164222569Y-118950280D01*
X164513720Y-119241431D01*
X164894126Y-119399000D01*
X165305874Y-119399000D01*
X165686280Y-119241431D01*
X165803711Y-119124000D01*
X169674001Y-119124000D01*
X169674000Y-121097198D01*
X169357199Y-121414000D01*
X161255847Y-121414000D01*
X161181000Y-121399112D01*
X161106153Y-121414000D01*
X161106148Y-121414000D01*
X160884463Y-121458096D01*
X160633071Y-121626071D01*
X160590671Y-121689527D01*
X159535528Y-122744671D01*
X159472072Y-122787071D01*
X159429672Y-122850527D01*
X159429671Y-122850528D01*
X159371518Y-122937560D01*
X159145000Y-122937560D01*
X158897235Y-122986843D01*
X158687191Y-123127191D01*
X158546843Y-123337235D01*
X158497560Y-123585000D01*
X158497560Y-125335000D01*
X158546843Y-125582765D01*
X158687191Y-125792809D01*
X158897235Y-125933157D01*
X159145000Y-125982440D01*
X160895000Y-125982440D01*
X161142765Y-125933157D01*
X161352809Y-125792809D01*
X161493157Y-125582765D01*
X161495504Y-125570966D01*
X161664654Y-125740116D01*
X162219642Y-125970000D01*
X162820358Y-125970000D01*
X163375346Y-125740116D01*
X163770000Y-125345462D01*
X164164654Y-125740116D01*
X164719642Y-125970000D01*
X165320358Y-125970000D01*
X165875346Y-125740116D01*
X166093402Y-125522060D01*
X166637545Y-125522060D01*
X166720884Y-125775953D01*
X167285306Y-125981590D01*
X167885458Y-125955579D01*
X168319116Y-125775953D01*
X168402455Y-125522060D01*
X167520000Y-124639605D01*
X166637545Y-125522060D01*
X166093402Y-125522060D01*
X166300116Y-125315346D01*
X166309121Y-125293606D01*
X166457940Y-125342455D01*
X167340395Y-124460000D01*
X167699605Y-124460000D01*
X168582060Y-125342455D01*
X168835953Y-125259116D01*
X169041590Y-124694694D01*
X169015579Y-124094542D01*
X168835953Y-123660884D01*
X168582060Y-123577545D01*
X167699605Y-124460000D01*
X167340395Y-124460000D01*
X166457940Y-123577545D01*
X166309121Y-123626394D01*
X166300116Y-123604654D01*
X166093402Y-123397940D01*
X166637545Y-123397940D01*
X167520000Y-124280395D01*
X168402455Y-123397940D01*
X168319116Y-123144047D01*
X167754694Y-122938410D01*
X167154542Y-122964421D01*
X166720884Y-123144047D01*
X166637545Y-123397940D01*
X166093402Y-123397940D01*
X165875346Y-123179884D01*
X165320358Y-122950000D01*
X164719642Y-122950000D01*
X164164654Y-123179884D01*
X163770000Y-123574538D01*
X163375346Y-123179884D01*
X162820358Y-122950000D01*
X162219642Y-122950000D01*
X161664654Y-123179884D01*
X161495504Y-123349034D01*
X161493157Y-123337235D01*
X161352809Y-123127191D01*
X161322717Y-123107084D01*
X161495802Y-122934000D01*
X169597153Y-122934000D01*
X169672000Y-122948888D01*
X169746847Y-122934000D01*
X169746852Y-122934000D01*
X169968537Y-122889904D01*
X170219929Y-122721929D01*
X170262331Y-122658470D01*
X170436000Y-122484801D01*
X170436001Y-128463197D01*
X170119199Y-128780000D01*
X164279711Y-128780000D01*
X164162280Y-128662569D01*
X163781874Y-128505000D01*
X163370126Y-128505000D01*
X162989720Y-128662569D01*
X162698569Y-128953720D01*
X162541000Y-129334126D01*
X162541000Y-129745874D01*
X162698569Y-130126280D01*
X162989720Y-130417431D01*
X163370126Y-130575000D01*
X163781874Y-130575000D01*
X164162280Y-130417431D01*
X164279711Y-130300000D01*
X170359153Y-130300000D01*
X170434000Y-130314888D01*
X170508847Y-130300000D01*
X170508852Y-130300000D01*
X170730537Y-130255904D01*
X170981929Y-130087929D01*
X171024331Y-130024470D01*
X171198000Y-129850801D01*
X171198000Y-133543198D01*
X170627199Y-134114000D01*
X161255847Y-134114000D01*
X161181000Y-134099112D01*
X161106153Y-134114000D01*
X161106148Y-134114000D01*
X160884463Y-134158096D01*
X160633071Y-134326071D01*
X160590671Y-134389527D01*
X159535528Y-135444671D01*
X159472072Y-135487071D01*
X159429672Y-135550527D01*
X159429671Y-135550528D01*
X159371518Y-135637560D01*
X159145000Y-135637560D01*
X158897235Y-135686843D01*
X158687191Y-135827191D01*
X158546843Y-136037235D01*
X158497560Y-136285000D01*
X158497560Y-138035000D01*
X158546843Y-138282765D01*
X158687191Y-138492809D01*
X158897235Y-138633157D01*
X159145000Y-138682440D01*
X160895000Y-138682440D01*
X161142765Y-138633157D01*
X161352809Y-138492809D01*
X161493157Y-138282765D01*
X161495504Y-138270966D01*
X161664654Y-138440116D01*
X162219642Y-138670000D01*
X162820358Y-138670000D01*
X163375346Y-138440116D01*
X163770000Y-138045462D01*
X164164654Y-138440116D01*
X164719642Y-138670000D01*
X165320358Y-138670000D01*
X165875346Y-138440116D01*
X166093402Y-138222060D01*
X166637545Y-138222060D01*
X166720884Y-138475953D01*
X167285306Y-138681590D01*
X167885458Y-138655579D01*
X168319116Y-138475953D01*
X168402455Y-138222060D01*
X167520000Y-137339605D01*
X166637545Y-138222060D01*
X166093402Y-138222060D01*
X166300116Y-138015346D01*
X166309121Y-137993606D01*
X166457940Y-138042455D01*
X167340395Y-137160000D01*
X167699605Y-137160000D01*
X168582060Y-138042455D01*
X168835953Y-137959116D01*
X169041590Y-137394694D01*
X169015579Y-136794542D01*
X168835953Y-136360884D01*
X168582060Y-136277545D01*
X167699605Y-137160000D01*
X167340395Y-137160000D01*
X166457940Y-136277545D01*
X166309121Y-136326394D01*
X166300116Y-136304654D01*
X166093402Y-136097940D01*
X166637545Y-136097940D01*
X167520000Y-136980395D01*
X168402455Y-136097940D01*
X168319116Y-135844047D01*
X167754694Y-135638410D01*
X167154542Y-135664421D01*
X166720884Y-135844047D01*
X166637545Y-136097940D01*
X166093402Y-136097940D01*
X165875346Y-135879884D01*
X165320358Y-135650000D01*
X164719642Y-135650000D01*
X164164654Y-135879884D01*
X163770000Y-136274538D01*
X163375346Y-135879884D01*
X162820358Y-135650000D01*
X162219642Y-135650000D01*
X161664654Y-135879884D01*
X161495504Y-136049034D01*
X161493157Y-136037235D01*
X161352809Y-135827191D01*
X161322717Y-135807084D01*
X161495802Y-135634000D01*
X170867153Y-135634000D01*
X170942000Y-135648888D01*
X171016847Y-135634000D01*
X171016852Y-135634000D01*
X171238537Y-135589904D01*
X171489929Y-135421929D01*
X171532331Y-135358470D01*
X172442473Y-134448329D01*
X172505929Y-134405929D01*
X172673904Y-134154537D01*
X172718000Y-133932852D01*
X172718000Y-133932847D01*
X172732888Y-133858000D01*
X172718000Y-133783153D01*
X172718000Y-118932801D01*
X173796803Y-117854000D01*
X179430973Y-117854000D01*
X179305000Y-118158126D01*
X179305000Y-118569874D01*
X179462569Y-118950280D01*
X179753720Y-119241431D01*
X180134126Y-119399000D01*
X180545874Y-119399000D01*
X180926280Y-119241431D01*
X181043711Y-119124000D01*
X183059153Y-119124000D01*
X183134000Y-119138888D01*
X183208847Y-119124000D01*
X183208852Y-119124000D01*
X183430537Y-119079904D01*
X183681929Y-118911929D01*
X183724331Y-118848470D01*
X184634473Y-117938329D01*
X184697929Y-117895929D01*
X184865904Y-117644537D01*
X184910000Y-117422852D01*
X184910000Y-117422847D01*
X184924888Y-117348000D01*
X184910000Y-117273153D01*
X184910000Y-114308178D01*
X185220625Y-114100625D01*
X185420000Y-113802239D01*
X185619375Y-114100625D01*
X185930000Y-114308178D01*
X185930001Y-120843197D01*
X185105199Y-121668000D01*
X176241848Y-121668000D01*
X176167000Y-121653112D01*
X176092152Y-121668000D01*
X176092148Y-121668000D01*
X175918605Y-121702520D01*
X175870462Y-121712096D01*
X175683418Y-121837076D01*
X175619071Y-121880071D01*
X175576671Y-121943527D01*
X174775528Y-122744671D01*
X174712072Y-122787071D01*
X174669672Y-122850527D01*
X174669671Y-122850528D01*
X174611518Y-122937560D01*
X174385000Y-122937560D01*
X174137235Y-122986843D01*
X173927191Y-123127191D01*
X173786843Y-123337235D01*
X173737560Y-123585000D01*
X173737560Y-125335000D01*
X173786843Y-125582765D01*
X173927191Y-125792809D01*
X174137235Y-125933157D01*
X174385000Y-125982440D01*
X176135000Y-125982440D01*
X176382765Y-125933157D01*
X176592809Y-125792809D01*
X176733157Y-125582765D01*
X176735504Y-125570966D01*
X176904654Y-125740116D01*
X177459642Y-125970000D01*
X178060358Y-125970000D01*
X178615346Y-125740116D01*
X179010000Y-125345462D01*
X179404654Y-125740116D01*
X179959642Y-125970000D01*
X180560358Y-125970000D01*
X181115346Y-125740116D01*
X181333402Y-125522060D01*
X181877545Y-125522060D01*
X181960884Y-125775953D01*
X182525306Y-125981590D01*
X183125458Y-125955579D01*
X183559116Y-125775953D01*
X183642455Y-125522060D01*
X182760000Y-124639605D01*
X181877545Y-125522060D01*
X181333402Y-125522060D01*
X181540116Y-125315346D01*
X181549121Y-125293606D01*
X181697940Y-125342455D01*
X182580395Y-124460000D01*
X182939605Y-124460000D01*
X183822060Y-125342455D01*
X184075953Y-125259116D01*
X184281590Y-124694694D01*
X184255579Y-124094542D01*
X184075953Y-123660884D01*
X183822060Y-123577545D01*
X182939605Y-124460000D01*
X182580395Y-124460000D01*
X181697940Y-123577545D01*
X181549121Y-123626394D01*
X181540116Y-123604654D01*
X181123462Y-123188000D01*
X181946457Y-123188000D01*
X181877545Y-123397940D01*
X182760000Y-124280395D01*
X183642455Y-123397940D01*
X183573543Y-123188000D01*
X185345153Y-123188000D01*
X185420000Y-123202888D01*
X185494847Y-123188000D01*
X185494852Y-123188000D01*
X185716537Y-123143904D01*
X185967929Y-122975929D01*
X186010331Y-122912470D01*
X187174473Y-121748329D01*
X187237929Y-121705929D01*
X187405904Y-121454537D01*
X187450000Y-121232852D01*
X187450000Y-121232848D01*
X187464888Y-121158001D01*
X187450000Y-121083154D01*
X187450000Y-114308178D01*
X187760625Y-114100625D01*
X187960000Y-113802239D01*
X188159375Y-114100625D01*
X188470000Y-114308178D01*
X188470001Y-127955197D01*
X187645199Y-128780000D01*
X179519711Y-128780000D01*
X179402280Y-128662569D01*
X179021874Y-128505000D01*
X178610126Y-128505000D01*
X178229720Y-128662569D01*
X177938569Y-128953720D01*
X177781000Y-129334126D01*
X177781000Y-129745874D01*
X177938569Y-130126280D01*
X178229720Y-130417431D01*
X178610126Y-130575000D01*
X179021874Y-130575000D01*
X179402280Y-130417431D01*
X179519711Y-130300000D01*
X187885153Y-130300000D01*
X187960000Y-130314888D01*
X188034847Y-130300000D01*
X188034852Y-130300000D01*
X188256537Y-130255904D01*
X188507929Y-130087929D01*
X188550331Y-130024470D01*
X189714473Y-128860329D01*
X189777929Y-128817929D01*
X189945904Y-128566537D01*
X189990000Y-128344852D01*
X189990000Y-128344848D01*
X190004888Y-128270001D01*
X189990000Y-128195154D01*
X189990000Y-114308178D01*
X190300625Y-114100625D01*
X190312816Y-114082381D01*
X190321843Y-114127765D01*
X190462191Y-114337809D01*
X190672235Y-114478157D01*
X190920000Y-114527440D01*
X191010000Y-114527440D01*
X191010001Y-132019196D01*
X188915199Y-134114000D01*
X176495847Y-134114000D01*
X176421000Y-134099112D01*
X176346153Y-134114000D01*
X176346148Y-134114000D01*
X176124463Y-134158096D01*
X175873071Y-134326071D01*
X175830671Y-134389527D01*
X174775530Y-135444669D01*
X174712071Y-135487071D01*
X174611518Y-135637560D01*
X174385000Y-135637560D01*
X174137235Y-135686843D01*
X173927191Y-135827191D01*
X173786843Y-136037235D01*
X173737560Y-136285000D01*
X173737560Y-138035000D01*
X173786843Y-138282765D01*
X173927191Y-138492809D01*
X174137235Y-138633157D01*
X174385000Y-138682440D01*
X176135000Y-138682440D01*
X176382765Y-138633157D01*
X176592809Y-138492809D01*
X176733157Y-138282765D01*
X176735504Y-138270966D01*
X176904654Y-138440116D01*
X177459642Y-138670000D01*
X178060358Y-138670000D01*
X178615346Y-138440116D01*
X179010000Y-138045462D01*
X179404654Y-138440116D01*
X179959642Y-138670000D01*
X180560358Y-138670000D01*
X181115346Y-138440116D01*
X181333402Y-138222060D01*
X181877545Y-138222060D01*
X181960884Y-138475953D01*
X182525306Y-138681590D01*
X183125458Y-138655579D01*
X183559116Y-138475953D01*
X183642455Y-138222060D01*
X182760000Y-137339605D01*
X181877545Y-138222060D01*
X181333402Y-138222060D01*
X181540116Y-138015346D01*
X181549121Y-137993606D01*
X181697940Y-138042455D01*
X182580395Y-137160000D01*
X182939605Y-137160000D01*
X183822060Y-138042455D01*
X183995784Y-137985431D01*
X189535000Y-137985431D01*
X189535000Y-138874569D01*
X189875259Y-139696026D01*
X190503974Y-140324741D01*
X191325431Y-140665000D01*
X192214569Y-140665000D01*
X193036026Y-140324741D01*
X193664741Y-139696026D01*
X194005000Y-138874569D01*
X194005000Y-137985431D01*
X193664741Y-137163974D01*
X193036026Y-136535259D01*
X192214569Y-136195000D01*
X191325431Y-136195000D01*
X190503974Y-136535259D01*
X189875259Y-137163974D01*
X189535000Y-137985431D01*
X183995784Y-137985431D01*
X184075953Y-137959116D01*
X184281590Y-137394694D01*
X184255579Y-136794542D01*
X184075953Y-136360884D01*
X183822060Y-136277545D01*
X182939605Y-137160000D01*
X182580395Y-137160000D01*
X181697940Y-136277545D01*
X181549121Y-136326394D01*
X181540116Y-136304654D01*
X181333402Y-136097940D01*
X181877545Y-136097940D01*
X182760000Y-136980395D01*
X183642455Y-136097940D01*
X183559116Y-135844047D01*
X182994694Y-135638410D01*
X182394542Y-135664421D01*
X181960884Y-135844047D01*
X181877545Y-136097940D01*
X181333402Y-136097940D01*
X181115346Y-135879884D01*
X180560358Y-135650000D01*
X179959642Y-135650000D01*
X179404654Y-135879884D01*
X179010000Y-136274538D01*
X178615346Y-135879884D01*
X178060358Y-135650000D01*
X177459642Y-135650000D01*
X176904654Y-135879884D01*
X176735504Y-136049034D01*
X176733157Y-136037235D01*
X176592809Y-135827191D01*
X176562717Y-135807084D01*
X176735802Y-135634000D01*
X189155153Y-135634000D01*
X189230000Y-135648888D01*
X189304847Y-135634000D01*
X189304852Y-135634000D01*
X189526537Y-135589904D01*
X189777929Y-135421929D01*
X189820331Y-135358470D01*
X192254476Y-132924327D01*
X192317929Y-132881929D01*
X192360327Y-132818476D01*
X192360329Y-132818474D01*
X192485903Y-132630538D01*
X192485904Y-132630537D01*
X192530000Y-132408852D01*
X192530000Y-132408848D01*
X192544888Y-132334001D01*
X192530000Y-132259154D01*
X192530000Y-114527440D01*
X192620000Y-114527440D01*
X192867765Y-114478157D01*
X193077809Y-114337809D01*
X193218157Y-114127765D01*
X193267440Y-113880000D01*
X193267440Y-112180000D01*
X193218157Y-111932235D01*
X193077809Y-111722191D01*
X192867765Y-111581843D01*
X192620000Y-111532560D01*
X190920000Y-111532560D01*
X190672235Y-111581843D01*
X190462191Y-111722191D01*
X190321843Y-111932235D01*
X190312816Y-111977619D01*
X190300625Y-111959375D01*
X189809418Y-111631161D01*
X189376256Y-111545000D01*
X189083744Y-111545000D01*
X188650582Y-111631161D01*
X188159375Y-111959375D01*
X187960000Y-112257761D01*
X187760625Y-111959375D01*
X187269418Y-111631161D01*
X186836256Y-111545000D01*
X186543744Y-111545000D01*
X186110582Y-111631161D01*
X185619375Y-111959375D01*
X185420000Y-112257761D01*
X185220625Y-111959375D01*
X184729418Y-111631161D01*
X184296256Y-111545000D01*
X184003744Y-111545000D01*
X183570582Y-111631161D01*
X183079375Y-111959375D01*
X182880000Y-112257761D01*
X182680625Y-111959375D01*
X182189418Y-111631161D01*
X181756256Y-111545000D01*
X181463744Y-111545000D01*
X181030582Y-111631161D01*
X180539375Y-111959375D01*
X180340000Y-112257761D01*
X180140625Y-111959375D01*
X179649418Y-111631161D01*
X179216256Y-111545000D01*
X178923744Y-111545000D01*
X178490582Y-111631161D01*
X177999375Y-111959375D01*
X177800000Y-112257761D01*
X177600625Y-111959375D01*
X177109418Y-111631161D01*
X176676256Y-111545000D01*
X176383744Y-111545000D01*
X175950582Y-111631161D01*
X175459375Y-111959375D01*
X175260000Y-112257761D01*
X175060625Y-111959375D01*
X174569418Y-111631161D01*
X174136256Y-111545000D01*
X173843744Y-111545000D01*
X173410582Y-111631161D01*
X172919375Y-111959375D01*
X172720000Y-112257761D01*
X172520625Y-111959375D01*
X172029418Y-111631161D01*
X171596256Y-111545000D01*
X171303744Y-111545000D01*
X170870582Y-111631161D01*
X170379375Y-111959375D01*
X170180000Y-112257761D01*
X169980625Y-111959375D01*
X169670000Y-111751822D01*
X169670000Y-110818847D01*
X169684888Y-110744000D01*
X169670000Y-110669153D01*
X169670000Y-110669148D01*
X169625904Y-110447463D01*
X169457929Y-110196071D01*
X169394473Y-110153671D01*
X168484331Y-109243530D01*
X168441929Y-109180071D01*
X168190537Y-109012096D01*
X167968852Y-108968000D01*
X167968847Y-108968000D01*
X167894000Y-108953112D01*
X167819153Y-108968000D01*
X161350803Y-108968000D01*
X158515000Y-106132199D01*
X158515000Y-105966126D01*
X158357431Y-105585720D01*
X158066280Y-105294569D01*
X157685874Y-105137000D01*
X157274126Y-105137000D01*
X156893720Y-105294569D01*
X156602569Y-105585720D01*
X156591000Y-105613650D01*
X156579431Y-105585720D01*
X156288280Y-105294569D01*
X155907874Y-105137000D01*
X155496126Y-105137000D01*
X155115720Y-105294569D01*
X154940000Y-105470289D01*
X154764280Y-105294569D01*
X154383874Y-105137000D01*
X153972126Y-105137000D01*
X153591720Y-105294569D01*
X153543000Y-105343289D01*
X153494280Y-105294569D01*
X153386512Y-105249930D01*
X154532982Y-104103460D01*
X183546659Y-104103460D01*
X184131000Y-104687802D01*
X184131000Y-104853874D01*
X184288569Y-105234280D01*
X184579720Y-105525431D01*
X184960126Y-105683000D01*
X185371874Y-105683000D01*
X185752280Y-105525431D01*
X186043431Y-105234280D01*
X186201000Y-104853874D01*
X186201000Y-104442126D01*
X186043431Y-104061720D01*
X185752280Y-103770569D01*
X185469529Y-103653450D01*
X190425153Y-103653450D01*
X190500000Y-103668338D01*
X190574847Y-103653450D01*
X190574852Y-103653450D01*
X190796537Y-103609354D01*
X191047929Y-103441379D01*
X191090331Y-103377920D01*
X192254473Y-102213779D01*
X192317929Y-102171379D01*
X192485904Y-101919987D01*
X192530000Y-101698302D01*
X192530000Y-101698298D01*
X192544888Y-101623451D01*
X192530000Y-101548604D01*
X192530000Y-99287440D01*
X192620000Y-99287440D01*
X192867765Y-99238157D01*
X193077809Y-99097809D01*
X193218157Y-98887765D01*
X193267440Y-98640000D01*
X193267440Y-96940000D01*
X193218157Y-96692235D01*
X193077809Y-96482191D01*
X192867765Y-96341843D01*
X192620000Y-96292560D01*
X190920000Y-96292560D01*
X190672235Y-96341843D01*
X190462191Y-96482191D01*
X190321843Y-96692235D01*
X190312816Y-96737619D01*
X190300625Y-96719375D01*
X189809418Y-96391161D01*
X189376256Y-96305000D01*
X189083744Y-96305000D01*
X188650582Y-96391161D01*
X188159375Y-96719375D01*
X187960000Y-97017761D01*
X187760625Y-96719375D01*
X187269418Y-96391161D01*
X186836256Y-96305000D01*
X186543744Y-96305000D01*
X186110582Y-96391161D01*
X185619375Y-96719375D01*
X185420000Y-97017761D01*
X185220625Y-96719375D01*
X184729418Y-96391161D01*
X184296256Y-96305000D01*
X184003744Y-96305000D01*
X183570582Y-96391161D01*
X183079375Y-96719375D01*
X182880000Y-97017761D01*
X182680625Y-96719375D01*
X182189418Y-96391161D01*
X181756256Y-96305000D01*
X181463744Y-96305000D01*
X181030582Y-96391161D01*
X180539375Y-96719375D01*
X180340000Y-97017761D01*
X180140625Y-96719375D01*
X179649418Y-96391161D01*
X179216256Y-96305000D01*
X178923744Y-96305000D01*
X178490582Y-96391161D01*
X177999375Y-96719375D01*
X177800000Y-97017761D01*
X177600625Y-96719375D01*
X177109418Y-96391161D01*
X176676256Y-96305000D01*
X176383744Y-96305000D01*
X175950582Y-96391161D01*
X175459375Y-96719375D01*
X175260000Y-97017761D01*
X175060625Y-96719375D01*
X174569418Y-96391161D01*
X174136256Y-96305000D01*
X173843744Y-96305000D01*
X173410582Y-96391161D01*
X172919375Y-96719375D01*
X172720000Y-97017761D01*
X172520625Y-96719375D01*
X172029418Y-96391161D01*
X171596256Y-96305000D01*
X171303744Y-96305000D01*
X170870582Y-96391161D01*
X170379375Y-96719375D01*
X170180000Y-97017761D01*
X169980625Y-96719375D01*
X169489418Y-96391161D01*
X169056256Y-96305000D01*
X168763744Y-96305000D01*
X168330582Y-96391161D01*
X167839375Y-96719375D01*
X167640000Y-97017761D01*
X167440625Y-96719375D01*
X166949418Y-96391161D01*
X166516256Y-96305000D01*
X166223744Y-96305000D01*
X165790582Y-96391161D01*
X165299375Y-96719375D01*
X165100000Y-97017761D01*
X164900625Y-96719375D01*
X164665000Y-96561935D01*
X164665000Y-96348233D01*
X164681357Y-96266000D01*
X164665000Y-96183767D01*
X164665000Y-96183763D01*
X164616552Y-95940199D01*
X164432001Y-95663999D01*
X164362282Y-95617415D01*
X163462587Y-94717720D01*
X163416001Y-94647999D01*
X163139801Y-94463448D01*
X162896237Y-94415000D01*
X162896233Y-94415000D01*
X162814000Y-94398643D01*
X162731767Y-94415000D01*
X144512608Y-94415000D01*
X144452062Y-94354454D01*
X144705953Y-94271116D01*
X144911590Y-93706694D01*
X144885579Y-93106542D01*
X144705953Y-92672884D01*
X144452060Y-92589545D01*
X143569605Y-93472000D01*
X143583748Y-93486143D01*
X143404143Y-93665748D01*
X143390000Y-93651605D01*
X143375858Y-93665748D01*
X143196253Y-93486143D01*
X143210395Y-93472000D01*
X142327940Y-92589545D01*
X142179121Y-92638394D01*
X142170116Y-92616654D01*
X141963402Y-92409940D01*
X142507545Y-92409940D01*
X143390000Y-93292395D01*
X144272455Y-92409940D01*
X144189116Y-92156047D01*
X143624694Y-91950410D01*
X143024542Y-91976421D01*
X142590884Y-92156047D01*
X142507545Y-92409940D01*
X141963402Y-92409940D01*
X141745346Y-92191884D01*
X141190358Y-91962000D01*
X140589642Y-91962000D01*
X140034654Y-92191884D01*
X139640000Y-92586538D01*
X139245346Y-92191884D01*
X138690358Y-91962000D01*
X138089642Y-91962000D01*
X137534654Y-92191884D01*
X137365504Y-92361034D01*
X137363157Y-92349235D01*
X137222809Y-92139191D01*
X137012765Y-91998843D01*
X136765000Y-91949560D01*
X135015000Y-91949560D01*
X134767235Y-91998843D01*
X134557191Y-92139191D01*
X134416843Y-92349235D01*
X134367560Y-92597000D01*
X134367560Y-94347000D01*
X134416843Y-94594765D01*
X134557191Y-94804809D01*
X134767235Y-94945157D01*
X135015000Y-94994440D01*
X136765000Y-94994440D01*
X137012765Y-94945157D01*
X137222809Y-94804809D01*
X137363157Y-94594765D01*
X137365504Y-94582966D01*
X137534654Y-94752116D01*
X138089642Y-94982000D01*
X138690358Y-94982000D01*
X139245346Y-94752116D01*
X139640000Y-94357462D01*
X139850553Y-94568015D01*
X139241569Y-95177000D01*
X127298432Y-95177000D01*
X126689447Y-94568015D01*
X126723402Y-94534060D01*
X127267545Y-94534060D01*
X127350884Y-94787953D01*
X127915306Y-94993590D01*
X128515458Y-94967579D01*
X128949116Y-94787953D01*
X129032455Y-94534060D01*
X128150000Y-93651605D01*
X127267545Y-94534060D01*
X126723402Y-94534060D01*
X126930116Y-94327346D01*
X126939121Y-94305606D01*
X127087940Y-94354455D01*
X127970395Y-93472000D01*
X128329605Y-93472000D01*
X129212060Y-94354455D01*
X129465953Y-94271116D01*
X129671590Y-93706694D01*
X129645579Y-93106542D01*
X129465953Y-92672884D01*
X129212060Y-92589545D01*
X128329605Y-93472000D01*
X127970395Y-93472000D01*
X127087940Y-92589545D01*
X126939121Y-92638394D01*
X126930116Y-92616654D01*
X126723402Y-92409940D01*
X127267545Y-92409940D01*
X128150000Y-93292395D01*
X129032455Y-92409940D01*
X128949116Y-92156047D01*
X128384694Y-91950410D01*
X127784542Y-91976421D01*
X127350884Y-92156047D01*
X127267545Y-92409940D01*
X126723402Y-92409940D01*
X126505346Y-92191884D01*
X125950358Y-91962000D01*
X125349642Y-91962000D01*
X124794654Y-92191884D01*
X124400000Y-92586538D01*
X124005346Y-92191884D01*
X123450358Y-91962000D01*
X122849642Y-91962000D01*
X122294654Y-92191884D01*
X122125504Y-92361034D01*
X122123157Y-92349235D01*
X121982809Y-92139191D01*
X121772765Y-91998843D01*
X121525000Y-91949560D01*
X119775000Y-91949560D01*
X119527235Y-91998843D01*
X119317191Y-92139191D01*
X119176843Y-92349235D01*
X119127560Y-92597000D01*
X119127560Y-94347000D01*
X119176843Y-94594765D01*
X119317191Y-94804809D01*
X119527235Y-94945157D01*
X119775000Y-94994440D01*
X121525000Y-94994440D01*
X121772765Y-94945157D01*
X121982809Y-94804809D01*
X122123157Y-94594765D01*
X122125504Y-94582966D01*
X122294654Y-94752116D01*
X122849642Y-94982000D01*
X123450358Y-94982000D01*
X124005346Y-94752116D01*
X124400000Y-94357462D01*
X124794654Y-94752116D01*
X124808253Y-94757749D01*
X124863448Y-95035236D01*
X124863449Y-95035237D01*
X125048000Y-95311437D01*
X125117718Y-95358021D01*
X126303979Y-96544282D01*
X126350563Y-96614001D01*
X126626763Y-96798552D01*
X126870327Y-96847000D01*
X126952564Y-96863358D01*
X127034801Y-96847000D01*
X139505203Y-96847000D01*
X139587436Y-96863357D01*
X139669669Y-96847000D01*
X139669673Y-96847000D01*
X139913237Y-96798552D01*
X140189437Y-96614001D01*
X140236023Y-96544280D01*
X140888352Y-95891951D01*
X140960561Y-95940199D01*
X141104763Y-96036552D01*
X141430564Y-96101358D01*
X141512801Y-96085000D01*
X162468133Y-96085000D01*
X162965068Y-96581935D01*
X162759375Y-96719375D01*
X162560000Y-97017761D01*
X162360625Y-96719375D01*
X161869418Y-96391161D01*
X161436256Y-96305000D01*
X161143744Y-96305000D01*
X160710582Y-96391161D01*
X160219375Y-96719375D01*
X160006157Y-97038478D01*
X159945183Y-96908642D01*
X159516924Y-96518355D01*
X159106890Y-96348524D01*
X158877000Y-96469845D01*
X158877000Y-97663000D01*
X158897000Y-97663000D01*
X158897000Y-97917000D01*
X158877000Y-97917000D01*
X158877000Y-99110155D01*
X159106890Y-99231476D01*
X159516924Y-99061645D01*
X159945183Y-98671358D01*
X160006157Y-98541522D01*
X160219375Y-98860625D01*
X160710582Y-99188839D01*
X161143744Y-99275000D01*
X161436256Y-99275000D01*
X161869418Y-99188839D01*
X162360625Y-98860625D01*
X162560000Y-98562239D01*
X162759375Y-98860625D01*
X163250582Y-99188839D01*
X163683744Y-99275000D01*
X163976256Y-99275000D01*
X164409418Y-99188839D01*
X164900625Y-98860625D01*
X165100000Y-98562239D01*
X165299375Y-98860625D01*
X165790582Y-99188839D01*
X166223744Y-99275000D01*
X166516256Y-99275000D01*
X166949418Y-99188839D01*
X167440625Y-98860625D01*
X167640000Y-98562239D01*
X167839375Y-98860625D01*
X168330582Y-99188839D01*
X168763744Y-99275000D01*
X169056256Y-99275000D01*
X169489418Y-99188839D01*
X169980625Y-98860625D01*
X170180000Y-98562239D01*
X170379375Y-98860625D01*
X170690001Y-99068178D01*
X170690001Y-99253197D01*
X170119199Y-99824000D01*
X154243272Y-99824000D01*
X154260327Y-99798476D01*
X154260329Y-99798474D01*
X154385903Y-99610538D01*
X154385904Y-99610537D01*
X154430000Y-99388852D01*
X154430000Y-99388848D01*
X154444888Y-99314001D01*
X154430000Y-99239154D01*
X154430000Y-99068178D01*
X154740625Y-98860625D01*
X154940000Y-98562239D01*
X155139375Y-98860625D01*
X155630582Y-99188839D01*
X156063744Y-99275000D01*
X156356256Y-99275000D01*
X156789418Y-99188839D01*
X157280625Y-98860625D01*
X157493843Y-98541522D01*
X157554817Y-98671358D01*
X157983076Y-99061645D01*
X158393110Y-99231476D01*
X158623000Y-99110155D01*
X158623000Y-97917000D01*
X158603000Y-97917000D01*
X158603000Y-97663000D01*
X158623000Y-97663000D01*
X158623000Y-96469845D01*
X158393110Y-96348524D01*
X157983076Y-96518355D01*
X157554817Y-96908642D01*
X157493843Y-97038478D01*
X157280625Y-96719375D01*
X156789418Y-96391161D01*
X156356256Y-96305000D01*
X156063744Y-96305000D01*
X155630582Y-96391161D01*
X155139375Y-96719375D01*
X154940000Y-97017761D01*
X154740625Y-96719375D01*
X154249418Y-96391161D01*
X153816256Y-96305000D01*
X153523744Y-96305000D01*
X153090582Y-96391161D01*
X152599375Y-96719375D01*
X152400000Y-97017761D01*
X152200625Y-96719375D01*
X151709418Y-96391161D01*
X151276256Y-96305000D01*
X150983744Y-96305000D01*
X150550582Y-96391161D01*
X150059375Y-96719375D01*
X149731161Y-97210582D01*
X149615908Y-97790000D01*
X149731161Y-98369418D01*
X150059375Y-98860625D01*
X150370000Y-99068178D01*
X150370001Y-100777197D01*
X150275722Y-100871476D01*
X150229431Y-100759720D01*
X149938280Y-100468569D01*
X149557874Y-100311000D01*
X149146126Y-100311000D01*
X148765720Y-100468569D01*
X148648289Y-100586000D01*
X144332802Y-100586000D01*
X143230330Y-99483529D01*
X143187928Y-99420070D01*
X142936536Y-99252095D01*
X142714851Y-99207999D01*
X142714846Y-99207999D01*
X142639999Y-99193111D01*
X142565152Y-99207999D01*
X127463159Y-99207999D01*
X127369431Y-98981720D01*
X127078280Y-98690569D01*
X126697874Y-98533000D01*
X126286126Y-98533000D01*
X125905720Y-98690569D01*
X125614569Y-98981720D01*
X125457000Y-99362126D01*
X125457000Y-99773874D01*
X125477763Y-99824000D01*
X123518848Y-99824000D01*
X123444000Y-99809112D01*
X123369152Y-99824000D01*
X123369148Y-99824000D01*
X123195605Y-99858520D01*
X123147462Y-99868096D01*
X123027067Y-99948542D01*
X122896071Y-100036071D01*
X122853671Y-100099527D01*
X122642198Y-100311000D01*
X122476126Y-100311000D01*
X122095720Y-100468569D01*
X121804569Y-100759720D01*
X121647000Y-101140126D01*
X121647000Y-101551874D01*
X121804569Y-101932280D01*
X122095720Y-102223431D01*
X122476126Y-102381000D01*
X122887874Y-102381000D01*
X123268280Y-102223431D01*
X123559431Y-101932280D01*
X123717000Y-101551874D01*
X123717000Y-101385802D01*
X123758802Y-101344000D01*
X141417199Y-101344000D01*
X142919671Y-102846473D01*
X142962071Y-102909929D01*
X143025527Y-102952329D01*
X143213462Y-103077904D01*
X143261605Y-103087480D01*
X143435148Y-103122000D01*
X143435152Y-103122000D01*
X143510000Y-103136888D01*
X143584848Y-103122000D01*
X147632289Y-103122000D01*
X147749720Y-103239431D01*
X147861476Y-103285722D01*
X138115199Y-113032000D01*
X137853543Y-113032000D01*
X137922455Y-112822060D01*
X137040000Y-111939605D01*
X136157545Y-112822060D01*
X136226457Y-113032000D01*
X135403462Y-113032000D01*
X135820116Y-112615346D01*
X135829121Y-112593606D01*
X135977940Y-112642455D01*
X136860395Y-111760000D01*
X137219605Y-111760000D01*
X138102060Y-112642455D01*
X138355953Y-112559116D01*
X138561590Y-111994694D01*
X138535579Y-111394542D01*
X138355953Y-110960884D01*
X138102060Y-110877545D01*
X137219605Y-111760000D01*
X136860395Y-111760000D01*
X135977940Y-110877545D01*
X135829121Y-110926394D01*
X135820116Y-110904654D01*
X135613402Y-110697940D01*
X136157545Y-110697940D01*
X137040000Y-111580395D01*
X137922455Y-110697940D01*
X137839116Y-110444047D01*
X137274694Y-110238410D01*
X136674542Y-110264421D01*
X136240884Y-110444047D01*
X136157545Y-110697940D01*
X135613402Y-110697940D01*
X135395346Y-110479884D01*
X134840358Y-110250000D01*
X134239642Y-110250000D01*
X133684654Y-110479884D01*
X133290000Y-110874538D01*
X132895346Y-110479884D01*
X132340358Y-110250000D01*
X131739642Y-110250000D01*
X131184654Y-110479884D01*
X131015504Y-110649034D01*
X131013157Y-110637235D01*
X130872809Y-110427191D01*
X130842717Y-110407084D01*
X131269802Y-109980000D01*
X132767153Y-109980000D01*
X132842000Y-109994888D01*
X132916847Y-109980000D01*
X132916852Y-109980000D01*
X133138537Y-109935904D01*
X133389929Y-109767929D01*
X133432331Y-109704470D01*
X136183802Y-106953000D01*
X136349874Y-106953000D01*
X136730280Y-106795431D01*
X137021431Y-106504280D01*
X137033000Y-106476350D01*
X137044569Y-106504280D01*
X137335720Y-106795431D01*
X137716126Y-106953000D01*
X138127874Y-106953000D01*
X138508280Y-106795431D01*
X138625711Y-106678000D01*
X141282289Y-106678000D01*
X141399720Y-106795431D01*
X141780126Y-106953000D01*
X142191874Y-106953000D01*
X142572280Y-106795431D01*
X142863431Y-106504280D01*
X143021000Y-106123874D01*
X143021000Y-105712126D01*
X142863431Y-105331720D01*
X142572280Y-105040569D01*
X142191874Y-104883000D01*
X141780126Y-104883000D01*
X141399720Y-105040569D01*
X141282289Y-105158000D01*
X138625711Y-105158000D01*
X138508280Y-105040569D01*
X138127874Y-104883000D01*
X137716126Y-104883000D01*
X137335720Y-105040569D01*
X137044569Y-105331720D01*
X137033000Y-105359650D01*
X137021431Y-105331720D01*
X136730280Y-105040569D01*
X136349874Y-104883000D01*
X135938126Y-104883000D01*
X135557720Y-105040569D01*
X135266569Y-105331720D01*
X135109000Y-105712126D01*
X135109000Y-105878198D01*
X132527199Y-108460000D01*
X131029846Y-108460000D01*
X130954999Y-108445112D01*
X130880152Y-108460000D01*
X130880148Y-108460000D01*
X130658463Y-108504096D01*
X130407071Y-108672071D01*
X130364671Y-108735527D01*
X129055530Y-110044669D01*
X128992071Y-110087071D01*
X128891518Y-110237560D01*
X128665000Y-110237560D01*
X128417235Y-110286843D01*
X128207191Y-110427191D01*
X128066843Y-110637235D01*
X128017560Y-110885000D01*
X128017560Y-112635000D01*
X128066843Y-112882765D01*
X128166559Y-113032000D01*
X122613543Y-113032000D01*
X122682455Y-112822060D01*
X121800000Y-111939605D01*
X120917545Y-112822060D01*
X120986457Y-113032000D01*
X120163462Y-113032000D01*
X120580116Y-112615346D01*
X120589121Y-112593606D01*
X120737940Y-112642455D01*
X121620395Y-111760000D01*
X121979605Y-111760000D01*
X122862060Y-112642455D01*
X123115953Y-112559116D01*
X123321590Y-111994694D01*
X123295579Y-111394542D01*
X123115953Y-110960884D01*
X122862060Y-110877545D01*
X121979605Y-111760000D01*
X121620395Y-111760000D01*
X120737940Y-110877545D01*
X120589121Y-110926394D01*
X120580116Y-110904654D01*
X120373402Y-110697940D01*
X120917545Y-110697940D01*
X121800000Y-111580395D01*
X122682455Y-110697940D01*
X122599116Y-110444047D01*
X122034694Y-110238410D01*
X121434542Y-110264421D01*
X121000884Y-110444047D01*
X120917545Y-110697940D01*
X120373402Y-110697940D01*
X120155346Y-110479884D01*
X119600358Y-110250000D01*
X118999642Y-110250000D01*
X118444654Y-110479884D01*
X118050000Y-110874538D01*
X117655346Y-110479884D01*
X117100358Y-110250000D01*
X116499642Y-110250000D01*
X115944654Y-110479884D01*
X115775504Y-110649034D01*
X115773157Y-110637235D01*
X115632809Y-110427191D01*
X115602717Y-110407084D01*
X116029802Y-109980000D01*
X117527153Y-109980000D01*
X117602000Y-109994888D01*
X117676847Y-109980000D01*
X117676852Y-109980000D01*
X117898537Y-109935904D01*
X118149929Y-109767929D01*
X118192331Y-109704470D01*
X120943802Y-106953000D01*
X121109874Y-106953000D01*
X121490280Y-106795431D01*
X121781431Y-106504280D01*
X121939000Y-106123874D01*
X121939000Y-105712126D01*
X121781431Y-105331720D01*
X121490280Y-105040569D01*
X121109874Y-104883000D01*
X120698126Y-104883000D01*
X120317720Y-105040569D01*
X120026569Y-105331720D01*
X119869000Y-105712126D01*
X119869000Y-105878198D01*
X117287199Y-108460000D01*
X115789846Y-108460000D01*
X115714999Y-108445112D01*
X115640152Y-108460000D01*
X115640148Y-108460000D01*
X115418463Y-108504096D01*
X115167071Y-108672071D01*
X115124671Y-108735527D01*
X113815530Y-110044669D01*
X113752071Y-110087071D01*
X113651518Y-110237560D01*
X113425000Y-110237560D01*
X113177235Y-110286843D01*
X112967191Y-110427191D01*
X112826843Y-110637235D01*
X112777560Y-110885000D01*
X112777560Y-112635000D01*
X112826843Y-112882765D01*
X112967191Y-113092809D01*
X113177235Y-113233157D01*
X113425000Y-113282440D01*
X115175000Y-113282440D01*
X115422765Y-113233157D01*
X115632809Y-113092809D01*
X115773157Y-112882765D01*
X115775504Y-112870966D01*
X115944654Y-113040116D01*
X116499642Y-113270000D01*
X117100358Y-113270000D01*
X117655346Y-113040116D01*
X118050000Y-112645462D01*
X118444654Y-113040116D01*
X118558646Y-113087333D01*
X118324071Y-113244071D01*
X118281671Y-113307527D01*
X117371528Y-114217671D01*
X117308072Y-114260071D01*
X117265672Y-114323527D01*
X117265671Y-114323528D01*
X117140097Y-114511463D01*
X117081112Y-114808000D01*
X117096001Y-114882852D01*
X117096000Y-116136289D01*
X116978569Y-116253720D01*
X116821000Y-116634126D01*
X116821000Y-117045874D01*
X116978569Y-117426280D01*
X117269720Y-117717431D01*
X117650126Y-117875000D01*
X118061874Y-117875000D01*
X118442280Y-117717431D01*
X118733431Y-117426280D01*
X118891000Y-117045874D01*
X118891000Y-116634126D01*
X118733431Y-116253720D01*
X118616000Y-116136289D01*
X118616000Y-115122801D01*
X119186802Y-114552000D01*
X120593199Y-114552000D01*
X120419530Y-114725669D01*
X120356071Y-114768071D01*
X120188096Y-115019464D01*
X120144000Y-115241149D01*
X120144000Y-115241153D01*
X120129112Y-115316000D01*
X120144000Y-115390847D01*
X120144001Y-120335197D01*
X119319199Y-121160000D01*
X115739850Y-121160000D01*
X115665002Y-121145112D01*
X115590154Y-121160000D01*
X115590150Y-121160000D01*
X115368465Y-121204096D01*
X115117073Y-121372071D01*
X115074673Y-121435527D01*
X113742531Y-122767670D01*
X113679072Y-122810072D01*
X113578519Y-122960561D01*
X113352001Y-122960561D01*
X113104236Y-123009844D01*
X112894192Y-123150192D01*
X112753844Y-123360236D01*
X112704561Y-123608001D01*
X103580000Y-123608001D01*
X103580000Y-90995431D01*
X104445000Y-90995431D01*
X104445000Y-91884569D01*
X104785259Y-92706026D01*
X105413974Y-93334741D01*
X106235431Y-93675000D01*
X107124569Y-93675000D01*
X107946026Y-93334741D01*
X108574741Y-92706026D01*
X108915000Y-91884569D01*
X108915000Y-90995431D01*
X108736710Y-90565000D01*
X178817560Y-90565000D01*
X178817560Y-92315000D01*
X178866843Y-92562765D01*
X179007191Y-92772809D01*
X179217235Y-92913157D01*
X179465000Y-92962440D01*
X181215000Y-92962440D01*
X181462765Y-92913157D01*
X181672809Y-92772809D01*
X181803475Y-92577255D01*
X181842914Y-92616694D01*
X181957546Y-92502062D01*
X182040884Y-92755953D01*
X182605306Y-92961590D01*
X183205458Y-92935579D01*
X183639116Y-92755953D01*
X183722455Y-92502060D01*
X182840000Y-91619605D01*
X182825858Y-91633748D01*
X182646253Y-91454143D01*
X182660395Y-91440000D01*
X183019605Y-91440000D01*
X183902060Y-92322455D01*
X184155953Y-92239116D01*
X184361590Y-91674694D01*
X184335579Y-91074542D01*
X184302811Y-90995431D01*
X189535000Y-90995431D01*
X189535000Y-91884569D01*
X189875259Y-92706026D01*
X190503974Y-93334741D01*
X191325431Y-93675000D01*
X192214569Y-93675000D01*
X193036026Y-93334741D01*
X193664741Y-92706026D01*
X194005000Y-91884569D01*
X194005000Y-90995431D01*
X193664741Y-90173974D01*
X193036026Y-89545259D01*
X192214569Y-89205000D01*
X191325431Y-89205000D01*
X190503974Y-89545259D01*
X189875259Y-90173974D01*
X189535000Y-90995431D01*
X184302811Y-90995431D01*
X184155953Y-90640884D01*
X183902060Y-90557545D01*
X183019605Y-91440000D01*
X182660395Y-91440000D01*
X182646253Y-91425858D01*
X182825858Y-91246253D01*
X182840000Y-91260395D01*
X183722455Y-90377940D01*
X183639116Y-90124047D01*
X183074694Y-89918410D01*
X182474542Y-89944421D01*
X182040884Y-90124047D01*
X181957546Y-90377938D01*
X181842914Y-90263306D01*
X181803475Y-90302745D01*
X181672809Y-90107191D01*
X181462765Y-89966843D01*
X181215000Y-89917560D01*
X179465000Y-89917560D01*
X179217235Y-89966843D01*
X179007191Y-90107191D01*
X178866843Y-90317235D01*
X178817560Y-90565000D01*
X108736710Y-90565000D01*
X108574741Y-90173974D01*
X107946026Y-89545259D01*
X107124569Y-89205000D01*
X106235431Y-89205000D01*
X105413974Y-89545259D01*
X104785259Y-90173974D01*
X104445000Y-90995431D01*
X103580000Y-90995431D01*
X103580000Y-88340000D01*
X194870000Y-88340000D01*
X194870001Y-141530000D01*
G36*
X159723463Y-111205904D02*
X159945148Y-111250000D01*
X159945152Y-111250000D01*
X160019999Y-111264888D01*
X160094846Y-111250000D01*
X165293199Y-111250000D01*
X165610001Y-111566802D01*
X165610001Y-111751822D01*
X165299375Y-111959375D01*
X165086157Y-112278478D01*
X165025183Y-112148642D01*
X164596924Y-111758355D01*
X164186890Y-111588524D01*
X163957000Y-111709845D01*
X163957000Y-112903000D01*
X163977000Y-112903000D01*
X163977000Y-113157000D01*
X163957000Y-113157000D01*
X163957000Y-114350155D01*
X164186890Y-114471476D01*
X164596924Y-114301645D01*
X165025183Y-113911358D01*
X165086157Y-113781522D01*
X165299375Y-114100625D01*
X165790582Y-114428839D01*
X166223744Y-114515000D01*
X166516256Y-114515000D01*
X166949418Y-114428839D01*
X167440625Y-114100625D01*
X167640000Y-113802239D01*
X167839375Y-114100625D01*
X168330582Y-114428839D01*
X168763744Y-114515000D01*
X169056256Y-114515000D01*
X169489418Y-114428839D01*
X169980625Y-114100625D01*
X170180000Y-113802239D01*
X170379375Y-114100625D01*
X170690001Y-114308178D01*
X170690001Y-114747197D01*
X169357199Y-116080000D01*
X158570846Y-116080000D01*
X158495999Y-116065112D01*
X158421152Y-116080000D01*
X158421148Y-116080000D01*
X158199463Y-116124096D01*
X158156427Y-116152852D01*
X158011526Y-116249671D01*
X158011524Y-116249673D01*
X157948071Y-116292071D01*
X157905673Y-116355524D01*
X156487528Y-117773671D01*
X156424072Y-117816071D01*
X156381672Y-117879527D01*
X156381671Y-117879528D01*
X156256097Y-118067463D01*
X156197112Y-118364000D01*
X156212001Y-118438852D01*
X156212001Y-119323199D01*
X155414524Y-118525722D01*
X155526280Y-118479431D01*
X155817431Y-118188280D01*
X155975000Y-117807874D01*
X155975000Y-117396126D01*
X155817431Y-117015720D01*
X155700000Y-116898289D01*
X155700000Y-114442647D01*
X156063744Y-114515000D01*
X156356256Y-114515000D01*
X156789418Y-114428839D01*
X157280625Y-114100625D01*
X157480000Y-113802239D01*
X157679375Y-114100625D01*
X158170582Y-114428839D01*
X158603744Y-114515000D01*
X158896256Y-114515000D01*
X159329418Y-114428839D01*
X159820625Y-114100625D01*
X160020000Y-113802239D01*
X160219375Y-114100625D01*
X160710582Y-114428839D01*
X161143744Y-114515000D01*
X161436256Y-114515000D01*
X161869418Y-114428839D01*
X162360625Y-114100625D01*
X162573843Y-113781522D01*
X162634817Y-113911358D01*
X163063076Y-114301645D01*
X163473110Y-114471476D01*
X163703000Y-114350155D01*
X163703000Y-113157000D01*
X163683000Y-113157000D01*
X163683000Y-112903000D01*
X163703000Y-112903000D01*
X163703000Y-111709845D01*
X163473110Y-111588524D01*
X163063076Y-111758355D01*
X162634817Y-112148642D01*
X162573843Y-112278478D01*
X162360625Y-111959375D01*
X161869418Y-111631161D01*
X161436256Y-111545000D01*
X161143744Y-111545000D01*
X160710582Y-111631161D01*
X160219375Y-111959375D01*
X160020000Y-112257761D01*
X159820625Y-111959375D01*
X159510000Y-111751822D01*
X159510000Y-111063272D01*
X159723463Y-111205904D01*
X159723463Y-111205904D01*
G37*
X159723463Y-111205904D02*
X159945148Y-111250000D01*
X159945152Y-111250000D01*
X160019999Y-111264888D01*
X160094846Y-111250000D01*
X165293199Y-111250000D01*
X165610001Y-111566802D01*
X165610001Y-111751822D01*
X165299375Y-111959375D01*
X165086157Y-112278478D01*
X165025183Y-112148642D01*
X164596924Y-111758355D01*
X164186890Y-111588524D01*
X163957000Y-111709845D01*
X163957000Y-112903000D01*
X163977000Y-112903000D01*
X163977000Y-113157000D01*
X163957000Y-113157000D01*
X163957000Y-114350155D01*
X164186890Y-114471476D01*
X164596924Y-114301645D01*
X165025183Y-113911358D01*
X165086157Y-113781522D01*
X165299375Y-114100625D01*
X165790582Y-114428839D01*
X166223744Y-114515000D01*
X166516256Y-114515000D01*
X166949418Y-114428839D01*
X167440625Y-114100625D01*
X167640000Y-113802239D01*
X167839375Y-114100625D01*
X168330582Y-114428839D01*
X168763744Y-114515000D01*
X169056256Y-114515000D01*
X169489418Y-114428839D01*
X169980625Y-114100625D01*
X170180000Y-113802239D01*
X170379375Y-114100625D01*
X170690001Y-114308178D01*
X170690001Y-114747197D01*
X169357199Y-116080000D01*
X158570846Y-116080000D01*
X158495999Y-116065112D01*
X158421152Y-116080000D01*
X158421148Y-116080000D01*
X158199463Y-116124096D01*
X158156427Y-116152852D01*
X158011526Y-116249671D01*
X158011524Y-116249673D01*
X157948071Y-116292071D01*
X157905673Y-116355524D01*
X156487528Y-117773671D01*
X156424072Y-117816071D01*
X156381672Y-117879527D01*
X156381671Y-117879528D01*
X156256097Y-118067463D01*
X156197112Y-118364000D01*
X156212001Y-118438852D01*
X156212001Y-119323199D01*
X155414524Y-118525722D01*
X155526280Y-118479431D01*
X155817431Y-118188280D01*
X155975000Y-117807874D01*
X155975000Y-117396126D01*
X155817431Y-117015720D01*
X155700000Y-116898289D01*
X155700000Y-114442647D01*
X156063744Y-114515000D01*
X156356256Y-114515000D01*
X156789418Y-114428839D01*
X157280625Y-114100625D01*
X157480000Y-113802239D01*
X157679375Y-114100625D01*
X158170582Y-114428839D01*
X158603744Y-114515000D01*
X158896256Y-114515000D01*
X159329418Y-114428839D01*
X159820625Y-114100625D01*
X160020000Y-113802239D01*
X160219375Y-114100625D01*
X160710582Y-114428839D01*
X161143744Y-114515000D01*
X161436256Y-114515000D01*
X161869418Y-114428839D01*
X162360625Y-114100625D01*
X162573843Y-113781522D01*
X162634817Y-113911358D01*
X163063076Y-114301645D01*
X163473110Y-114471476D01*
X163703000Y-114350155D01*
X163703000Y-113157000D01*
X163683000Y-113157000D01*
X163683000Y-112903000D01*
X163703000Y-112903000D01*
X163703000Y-111709845D01*
X163473110Y-111588524D01*
X163063076Y-111758355D01*
X162634817Y-112148642D01*
X162573843Y-112278478D01*
X162360625Y-111959375D01*
X161869418Y-111631161D01*
X161436256Y-111545000D01*
X161143744Y-111545000D01*
X160710582Y-111631161D01*
X160219375Y-111959375D01*
X160020000Y-112257761D01*
X159820625Y-111959375D01*
X159510000Y-111751822D01*
X159510000Y-111063272D01*
X159723463Y-111205904D01*
G04 #@! TD*
M02*
