G04 #@! TF.GenerationSoftware,KiCad,Pcbnew,(5.0.0)*
G04 #@! TF.CreationDate,2019-10-27T01:28:06-04:00*
G04 #@! TF.ProjectId,Micro-Breakoutout,4D6963726F2D427265616B6F75746F75,rev?*
G04 #@! TF.SameCoordinates,Original*
G04 #@! TF.FileFunction,Soldermask,Top*
G04 #@! TF.FilePolarity,Negative*
%FSLAX46Y46*%
G04 Gerber Fmt 4.6, Leading zero omitted, Abs format (unit mm)*
G04 Created by KiCad (PCBNEW (5.0.0)) date 10/27/19 01:28:06*
%MOMM*%
%LPD*%
G01*
G04 APERTURE LIST*
%ADD10O,2.100000X2.100000*%
%ADD11R,2.100000X2.100000*%
%ADD12R,2.150000X2.150000*%
%ADD13C,2.150000*%
%ADD14R,1.200000X1.300000*%
%ADD15C,0.500000*%
%ADD16C,0.100000*%
%ADD17R,1.900000X1.400000*%
%ADD18R,1.400000X1.900000*%
%ADD19C,3.600000*%
G04 APERTURE END LIST*
D10*
G04 #@! TO.C,J7*
X151130000Y-97790000D03*
X153670000Y-97790000D03*
X156210000Y-97790000D03*
X158750000Y-97790000D03*
X161290000Y-97790000D03*
X163830000Y-97790000D03*
X166370000Y-97790000D03*
X168910000Y-97790000D03*
X171450000Y-97790000D03*
X173990000Y-97790000D03*
X176530000Y-97790000D03*
X179070000Y-97790000D03*
X181610000Y-97790000D03*
X184150000Y-97790000D03*
X186690000Y-97790000D03*
X189230000Y-97790000D03*
D11*
X191770000Y-97790000D03*
G04 #@! TD*
G04 #@! TO.C,J10*
X191770000Y-113030000D03*
D10*
X189230000Y-113030000D03*
X186690000Y-113030000D03*
X184150000Y-113030000D03*
X181610000Y-113030000D03*
X179070000Y-113030000D03*
X176530000Y-113030000D03*
X173990000Y-113030000D03*
X171450000Y-113030000D03*
X168910000Y-113030000D03*
X166370000Y-113030000D03*
X163830000Y-113030000D03*
X161290000Y-113030000D03*
X158750000Y-113030000D03*
X156210000Y-113030000D03*
X153670000Y-113030000D03*
X151130000Y-113030000D03*
G04 #@! TD*
D12*
G04 #@! TO.C,J17*
X114300000Y-111760000D03*
D13*
X116800000Y-111760000D03*
X119300000Y-111760000D03*
X121800000Y-111760000D03*
G04 #@! TD*
G04 #@! TO.C,J16*
X137040000Y-124460000D03*
X134540000Y-124460000D03*
X132040000Y-124460000D03*
D12*
X129540000Y-124460000D03*
G04 #@! TD*
G04 #@! TO.C,J14*
X114227001Y-124483001D03*
D13*
X116727001Y-124483001D03*
X119227001Y-124483001D03*
X121727001Y-124483001D03*
G04 #@! TD*
G04 #@! TO.C,J12*
X137040000Y-111760000D03*
X134540000Y-111760000D03*
X132040000Y-111760000D03*
D12*
X129540000Y-111760000D03*
G04 #@! TD*
D14*
G04 #@! TO.C,Q9*
X117790000Y-118380000D03*
X115890000Y-118380000D03*
X116840000Y-120380000D03*
G04 #@! TD*
G04 #@! TO.C,Q12*
X116840000Y-132826000D03*
X115890000Y-130826000D03*
X117790000Y-130826000D03*
G04 #@! TD*
G04 #@! TO.C,Q11*
X117790000Y-105680000D03*
X115890000Y-105680000D03*
X116840000Y-107680000D03*
G04 #@! TD*
G04 #@! TO.C,Q8*
X132080000Y-107680000D03*
X131130000Y-105680000D03*
X133030000Y-105680000D03*
G04 #@! TD*
D15*
G04 #@! TO.C,JP5*
X124477356Y-104227742D03*
D16*
G36*
X123531199Y-103638724D02*
X123542580Y-103601205D01*
X123561062Y-103566628D01*
X123585935Y-103536321D01*
X123616242Y-103511448D01*
X123650819Y-103492966D01*
X123688338Y-103481585D01*
X123727356Y-103477742D01*
X125227356Y-103477742D01*
X125266374Y-103481585D01*
X125303893Y-103492966D01*
X125338470Y-103511448D01*
X125368777Y-103536321D01*
X125393650Y-103566628D01*
X125412132Y-103601205D01*
X125423513Y-103638724D01*
X125427356Y-103677742D01*
X125427356Y-104227742D01*
X125426754Y-104233854D01*
X125426754Y-104252276D01*
X125425791Y-104271882D01*
X125420981Y-104320713D01*
X125418102Y-104340122D01*
X125408530Y-104388247D01*
X125403760Y-104407290D01*
X125389516Y-104454245D01*
X125382905Y-104472722D01*
X125364128Y-104518055D01*
X125355733Y-104535803D01*
X125332602Y-104579076D01*
X125322516Y-104595904D01*
X125295256Y-104636703D01*
X125283561Y-104652472D01*
X125252433Y-104690401D01*
X125239253Y-104704942D01*
X125204556Y-104739639D01*
X125190015Y-104752819D01*
X125152086Y-104783947D01*
X125136317Y-104795642D01*
X125095518Y-104822902D01*
X125078690Y-104832988D01*
X125035417Y-104856119D01*
X125017669Y-104864514D01*
X124972336Y-104883291D01*
X124953859Y-104889902D01*
X124906904Y-104904146D01*
X124887861Y-104908916D01*
X124839736Y-104918488D01*
X124820327Y-104921367D01*
X124771496Y-104926177D01*
X124751890Y-104927140D01*
X124733468Y-104927140D01*
X124727356Y-104927742D01*
X124227356Y-104927742D01*
X124221244Y-104927140D01*
X124202822Y-104927140D01*
X124183216Y-104926177D01*
X124134385Y-104921367D01*
X124114976Y-104918488D01*
X124066851Y-104908916D01*
X124047808Y-104904146D01*
X124000853Y-104889902D01*
X123982376Y-104883291D01*
X123937043Y-104864514D01*
X123919295Y-104856119D01*
X123876022Y-104832988D01*
X123859194Y-104822902D01*
X123818395Y-104795642D01*
X123802626Y-104783947D01*
X123764697Y-104752819D01*
X123750156Y-104739639D01*
X123715459Y-104704942D01*
X123702279Y-104690401D01*
X123671151Y-104652472D01*
X123659456Y-104636703D01*
X123632196Y-104595904D01*
X123622110Y-104579076D01*
X123598979Y-104535803D01*
X123590584Y-104518055D01*
X123571807Y-104472722D01*
X123565196Y-104454245D01*
X123550952Y-104407290D01*
X123546182Y-104388247D01*
X123536610Y-104340122D01*
X123533731Y-104320713D01*
X123528921Y-104271882D01*
X123527958Y-104252276D01*
X123527958Y-104233854D01*
X123527356Y-104227742D01*
X123527356Y-103677742D01*
X123531199Y-103638724D01*
X123531199Y-103638724D01*
G37*
D15*
X124477356Y-101627742D03*
D16*
G36*
X123527958Y-101621630D02*
X123527958Y-101603208D01*
X123528921Y-101583602D01*
X123533731Y-101534771D01*
X123536610Y-101515362D01*
X123546182Y-101467237D01*
X123550952Y-101448194D01*
X123565196Y-101401239D01*
X123571807Y-101382762D01*
X123590584Y-101337429D01*
X123598979Y-101319681D01*
X123622110Y-101276408D01*
X123632196Y-101259580D01*
X123659456Y-101218781D01*
X123671151Y-101203012D01*
X123702279Y-101165083D01*
X123715459Y-101150542D01*
X123750156Y-101115845D01*
X123764697Y-101102665D01*
X123802626Y-101071537D01*
X123818395Y-101059842D01*
X123859194Y-101032582D01*
X123876022Y-101022496D01*
X123919295Y-100999365D01*
X123937043Y-100990970D01*
X123982376Y-100972193D01*
X124000853Y-100965582D01*
X124047808Y-100951338D01*
X124066851Y-100946568D01*
X124114976Y-100936996D01*
X124134385Y-100934117D01*
X124183216Y-100929307D01*
X124202822Y-100928344D01*
X124221244Y-100928344D01*
X124227356Y-100927742D01*
X124727356Y-100927742D01*
X124733468Y-100928344D01*
X124751890Y-100928344D01*
X124771496Y-100929307D01*
X124820327Y-100934117D01*
X124839736Y-100936996D01*
X124887861Y-100946568D01*
X124906904Y-100951338D01*
X124953859Y-100965582D01*
X124972336Y-100972193D01*
X125017669Y-100990970D01*
X125035417Y-100999365D01*
X125078690Y-101022496D01*
X125095518Y-101032582D01*
X125136317Y-101059842D01*
X125152086Y-101071537D01*
X125190015Y-101102665D01*
X125204556Y-101115845D01*
X125239253Y-101150542D01*
X125252433Y-101165083D01*
X125283561Y-101203012D01*
X125295256Y-101218781D01*
X125322516Y-101259580D01*
X125332602Y-101276408D01*
X125355733Y-101319681D01*
X125364128Y-101337429D01*
X125382905Y-101382762D01*
X125389516Y-101401239D01*
X125403760Y-101448194D01*
X125408530Y-101467237D01*
X125418102Y-101515362D01*
X125420981Y-101534771D01*
X125425791Y-101583602D01*
X125426754Y-101603208D01*
X125426754Y-101621630D01*
X125427356Y-101627742D01*
X125427356Y-102177742D01*
X125423513Y-102216760D01*
X125412132Y-102254279D01*
X125393650Y-102288856D01*
X125368777Y-102319163D01*
X125338470Y-102344036D01*
X125303893Y-102362518D01*
X125266374Y-102373899D01*
X125227356Y-102377742D01*
X123727356Y-102377742D01*
X123688338Y-102373899D01*
X123650819Y-102362518D01*
X123616242Y-102344036D01*
X123585935Y-102319163D01*
X123561062Y-102288856D01*
X123542580Y-102254279D01*
X123531199Y-102216760D01*
X123527356Y-102177742D01*
X123527356Y-101627742D01*
X123527958Y-101621630D01*
X123527958Y-101621630D01*
G37*
D17*
X124477356Y-102927742D03*
G04 #@! TD*
D13*
G04 #@! TO.C,J13*
X182840000Y-91440000D03*
D12*
X180340000Y-91440000D03*
G04 #@! TD*
D13*
G04 #@! TO.C,J8*
X152280000Y-137160000D03*
X149780000Y-137160000D03*
X147280000Y-137160000D03*
D12*
X144780000Y-137160000D03*
G04 #@! TD*
D13*
G04 #@! TO.C,J2*
X128150000Y-93472000D03*
X125650000Y-93472000D03*
X123150000Y-93472000D03*
D12*
X120650000Y-93472000D03*
G04 #@! TD*
D13*
G04 #@! TO.C,J3*
X182760000Y-137160000D03*
X180260000Y-137160000D03*
X177760000Y-137160000D03*
D12*
X175260000Y-137160000D03*
G04 #@! TD*
G04 #@! TO.C,J4*
X175260000Y-124460000D03*
D13*
X177760000Y-124460000D03*
X180260000Y-124460000D03*
X182760000Y-124460000D03*
G04 #@! TD*
G04 #@! TO.C,J5*
X167520000Y-137160000D03*
X165020000Y-137160000D03*
X162520000Y-137160000D03*
D12*
X160020000Y-137160000D03*
G04 #@! TD*
G04 #@! TO.C,J9*
X144780000Y-124460000D03*
D13*
X147280000Y-124460000D03*
X149780000Y-124460000D03*
X152280000Y-124460000D03*
G04 #@! TD*
G04 #@! TO.C,J11*
X137040000Y-137160000D03*
X134540000Y-137160000D03*
X132040000Y-137160000D03*
D12*
X129540000Y-137160000D03*
G04 #@! TD*
D13*
G04 #@! TO.C,J18*
X121800000Y-137160000D03*
X119300000Y-137160000D03*
X116800000Y-137160000D03*
D12*
X114300000Y-137160000D03*
G04 #@! TD*
G04 #@! TO.C,J1*
X135890000Y-93472000D03*
D13*
X138390000Y-93472000D03*
X140890000Y-93472000D03*
X143390000Y-93472000D03*
G04 #@! TD*
G04 #@! TO.C,J6*
X167520000Y-124460000D03*
X165020000Y-124460000D03*
X162520000Y-124460000D03*
D12*
X160020000Y-124460000D03*
G04 #@! TD*
D17*
G04 #@! TO.C,JP2*
X136200666Y-103187773D03*
D15*
X136200666Y-101887773D03*
D16*
G36*
X135251268Y-101881661D02*
X135251268Y-101863239D01*
X135252231Y-101843633D01*
X135257041Y-101794802D01*
X135259920Y-101775393D01*
X135269492Y-101727268D01*
X135274262Y-101708225D01*
X135288506Y-101661270D01*
X135295117Y-101642793D01*
X135313894Y-101597460D01*
X135322289Y-101579712D01*
X135345420Y-101536439D01*
X135355506Y-101519611D01*
X135382766Y-101478812D01*
X135394461Y-101463043D01*
X135425589Y-101425114D01*
X135438769Y-101410573D01*
X135473466Y-101375876D01*
X135488007Y-101362696D01*
X135525936Y-101331568D01*
X135541705Y-101319873D01*
X135582504Y-101292613D01*
X135599332Y-101282527D01*
X135642605Y-101259396D01*
X135660353Y-101251001D01*
X135705686Y-101232224D01*
X135724163Y-101225613D01*
X135771118Y-101211369D01*
X135790161Y-101206599D01*
X135838286Y-101197027D01*
X135857695Y-101194148D01*
X135906526Y-101189338D01*
X135926132Y-101188375D01*
X135944554Y-101188375D01*
X135950666Y-101187773D01*
X136450666Y-101187773D01*
X136456778Y-101188375D01*
X136475200Y-101188375D01*
X136494806Y-101189338D01*
X136543637Y-101194148D01*
X136563046Y-101197027D01*
X136611171Y-101206599D01*
X136630214Y-101211369D01*
X136677169Y-101225613D01*
X136695646Y-101232224D01*
X136740979Y-101251001D01*
X136758727Y-101259396D01*
X136802000Y-101282527D01*
X136818828Y-101292613D01*
X136859627Y-101319873D01*
X136875396Y-101331568D01*
X136913325Y-101362696D01*
X136927866Y-101375876D01*
X136962563Y-101410573D01*
X136975743Y-101425114D01*
X137006871Y-101463043D01*
X137018566Y-101478812D01*
X137045826Y-101519611D01*
X137055912Y-101536439D01*
X137079043Y-101579712D01*
X137087438Y-101597460D01*
X137106215Y-101642793D01*
X137112826Y-101661270D01*
X137127070Y-101708225D01*
X137131840Y-101727268D01*
X137141412Y-101775393D01*
X137144291Y-101794802D01*
X137149101Y-101843633D01*
X137150064Y-101863239D01*
X137150064Y-101881661D01*
X137150666Y-101887773D01*
X137150666Y-102437773D01*
X137146823Y-102476791D01*
X137135442Y-102514310D01*
X137116960Y-102548887D01*
X137092087Y-102579194D01*
X137061780Y-102604067D01*
X137027203Y-102622549D01*
X136989684Y-102633930D01*
X136950666Y-102637773D01*
X135450666Y-102637773D01*
X135411648Y-102633930D01*
X135374129Y-102622549D01*
X135339552Y-102604067D01*
X135309245Y-102579194D01*
X135284372Y-102548887D01*
X135265890Y-102514310D01*
X135254509Y-102476791D01*
X135250666Y-102437773D01*
X135250666Y-101887773D01*
X135251268Y-101881661D01*
X135251268Y-101881661D01*
G37*
D15*
X136200666Y-104487773D03*
D16*
G36*
X135254509Y-103898755D02*
X135265890Y-103861236D01*
X135284372Y-103826659D01*
X135309245Y-103796352D01*
X135339552Y-103771479D01*
X135374129Y-103752997D01*
X135411648Y-103741616D01*
X135450666Y-103737773D01*
X136950666Y-103737773D01*
X136989684Y-103741616D01*
X137027203Y-103752997D01*
X137061780Y-103771479D01*
X137092087Y-103796352D01*
X137116960Y-103826659D01*
X137135442Y-103861236D01*
X137146823Y-103898755D01*
X137150666Y-103937773D01*
X137150666Y-104487773D01*
X137150064Y-104493885D01*
X137150064Y-104512307D01*
X137149101Y-104531913D01*
X137144291Y-104580744D01*
X137141412Y-104600153D01*
X137131840Y-104648278D01*
X137127070Y-104667321D01*
X137112826Y-104714276D01*
X137106215Y-104732753D01*
X137087438Y-104778086D01*
X137079043Y-104795834D01*
X137055912Y-104839107D01*
X137045826Y-104855935D01*
X137018566Y-104896734D01*
X137006871Y-104912503D01*
X136975743Y-104950432D01*
X136962563Y-104964973D01*
X136927866Y-104999670D01*
X136913325Y-105012850D01*
X136875396Y-105043978D01*
X136859627Y-105055673D01*
X136818828Y-105082933D01*
X136802000Y-105093019D01*
X136758727Y-105116150D01*
X136740979Y-105124545D01*
X136695646Y-105143322D01*
X136677169Y-105149933D01*
X136630214Y-105164177D01*
X136611171Y-105168947D01*
X136563046Y-105178519D01*
X136543637Y-105181398D01*
X136494806Y-105186208D01*
X136475200Y-105187171D01*
X136456778Y-105187171D01*
X136450666Y-105187773D01*
X135950666Y-105187773D01*
X135944554Y-105187171D01*
X135926132Y-105187171D01*
X135906526Y-105186208D01*
X135857695Y-105181398D01*
X135838286Y-105178519D01*
X135790161Y-105168947D01*
X135771118Y-105164177D01*
X135724163Y-105149933D01*
X135705686Y-105143322D01*
X135660353Y-105124545D01*
X135642605Y-105116150D01*
X135599332Y-105093019D01*
X135582504Y-105082933D01*
X135541705Y-105055673D01*
X135525936Y-105043978D01*
X135488007Y-105012850D01*
X135473466Y-104999670D01*
X135438769Y-104964973D01*
X135425589Y-104950432D01*
X135394461Y-104912503D01*
X135382766Y-104896734D01*
X135355506Y-104855935D01*
X135345420Y-104839107D01*
X135322289Y-104795834D01*
X135313894Y-104778086D01*
X135295117Y-104732753D01*
X135288506Y-104714276D01*
X135274262Y-104667321D01*
X135269492Y-104648278D01*
X135259920Y-104600153D01*
X135257041Y-104580744D01*
X135252231Y-104531913D01*
X135251268Y-104512307D01*
X135251268Y-104493885D01*
X135250666Y-104487773D01*
X135250666Y-103937773D01*
X135254509Y-103898755D01*
X135254509Y-103898755D01*
G37*
G04 #@! TD*
D15*
G04 #@! TO.C,JP1*
X163546000Y-92456000D03*
D16*
G36*
X164135018Y-91509843D02*
X164172537Y-91521224D01*
X164207114Y-91539706D01*
X164237421Y-91564579D01*
X164262294Y-91594886D01*
X164280776Y-91629463D01*
X164292157Y-91666982D01*
X164296000Y-91706000D01*
X164296000Y-93206000D01*
X164292157Y-93245018D01*
X164280776Y-93282537D01*
X164262294Y-93317114D01*
X164237421Y-93347421D01*
X164207114Y-93372294D01*
X164172537Y-93390776D01*
X164135018Y-93402157D01*
X164096000Y-93406000D01*
X163546000Y-93406000D01*
X163539888Y-93405398D01*
X163521466Y-93405398D01*
X163501860Y-93404435D01*
X163453029Y-93399625D01*
X163433620Y-93396746D01*
X163385495Y-93387174D01*
X163366452Y-93382404D01*
X163319497Y-93368160D01*
X163301020Y-93361549D01*
X163255687Y-93342772D01*
X163237939Y-93334377D01*
X163194666Y-93311246D01*
X163177838Y-93301160D01*
X163137039Y-93273900D01*
X163121270Y-93262205D01*
X163083341Y-93231077D01*
X163068800Y-93217897D01*
X163034103Y-93183200D01*
X163020923Y-93168659D01*
X162989795Y-93130730D01*
X162978100Y-93114961D01*
X162950840Y-93074162D01*
X162940754Y-93057334D01*
X162917623Y-93014061D01*
X162909228Y-92996313D01*
X162890451Y-92950980D01*
X162883840Y-92932503D01*
X162869596Y-92885548D01*
X162864826Y-92866505D01*
X162855254Y-92818380D01*
X162852375Y-92798971D01*
X162847565Y-92750140D01*
X162846602Y-92730534D01*
X162846602Y-92712112D01*
X162846000Y-92706000D01*
X162846000Y-92206000D01*
X162846602Y-92199888D01*
X162846602Y-92181466D01*
X162847565Y-92161860D01*
X162852375Y-92113029D01*
X162855254Y-92093620D01*
X162864826Y-92045495D01*
X162869596Y-92026452D01*
X162883840Y-91979497D01*
X162890451Y-91961020D01*
X162909228Y-91915687D01*
X162917623Y-91897939D01*
X162940754Y-91854666D01*
X162950840Y-91837838D01*
X162978100Y-91797039D01*
X162989795Y-91781270D01*
X163020923Y-91743341D01*
X163034103Y-91728800D01*
X163068800Y-91694103D01*
X163083341Y-91680923D01*
X163121270Y-91649795D01*
X163137039Y-91638100D01*
X163177838Y-91610840D01*
X163194666Y-91600754D01*
X163237939Y-91577623D01*
X163255687Y-91569228D01*
X163301020Y-91550451D01*
X163319497Y-91543840D01*
X163366452Y-91529596D01*
X163385495Y-91524826D01*
X163433620Y-91515254D01*
X163453029Y-91512375D01*
X163501860Y-91507565D01*
X163521466Y-91506602D01*
X163539888Y-91506602D01*
X163546000Y-91506000D01*
X164096000Y-91506000D01*
X164135018Y-91509843D01*
X164135018Y-91509843D01*
G37*
D15*
X166146000Y-92456000D03*
D16*
G36*
X166152112Y-91506602D02*
X166170534Y-91506602D01*
X166190140Y-91507565D01*
X166238971Y-91512375D01*
X166258380Y-91515254D01*
X166306505Y-91524826D01*
X166325548Y-91529596D01*
X166372503Y-91543840D01*
X166390980Y-91550451D01*
X166436313Y-91569228D01*
X166454061Y-91577623D01*
X166497334Y-91600754D01*
X166514162Y-91610840D01*
X166554961Y-91638100D01*
X166570730Y-91649795D01*
X166608659Y-91680923D01*
X166623200Y-91694103D01*
X166657897Y-91728800D01*
X166671077Y-91743341D01*
X166702205Y-91781270D01*
X166713900Y-91797039D01*
X166741160Y-91837838D01*
X166751246Y-91854666D01*
X166774377Y-91897939D01*
X166782772Y-91915687D01*
X166801549Y-91961020D01*
X166808160Y-91979497D01*
X166822404Y-92026452D01*
X166827174Y-92045495D01*
X166836746Y-92093620D01*
X166839625Y-92113029D01*
X166844435Y-92161860D01*
X166845398Y-92181466D01*
X166845398Y-92199888D01*
X166846000Y-92206000D01*
X166846000Y-92706000D01*
X166845398Y-92712112D01*
X166845398Y-92730534D01*
X166844435Y-92750140D01*
X166839625Y-92798971D01*
X166836746Y-92818380D01*
X166827174Y-92866505D01*
X166822404Y-92885548D01*
X166808160Y-92932503D01*
X166801549Y-92950980D01*
X166782772Y-92996313D01*
X166774377Y-93014061D01*
X166751246Y-93057334D01*
X166741160Y-93074162D01*
X166713900Y-93114961D01*
X166702205Y-93130730D01*
X166671077Y-93168659D01*
X166657897Y-93183200D01*
X166623200Y-93217897D01*
X166608659Y-93231077D01*
X166570730Y-93262205D01*
X166554961Y-93273900D01*
X166514162Y-93301160D01*
X166497334Y-93311246D01*
X166454061Y-93334377D01*
X166436313Y-93342772D01*
X166390980Y-93361549D01*
X166372503Y-93368160D01*
X166325548Y-93382404D01*
X166306505Y-93387174D01*
X166258380Y-93396746D01*
X166238971Y-93399625D01*
X166190140Y-93404435D01*
X166170534Y-93405398D01*
X166152112Y-93405398D01*
X166146000Y-93406000D01*
X165596000Y-93406000D01*
X165556982Y-93402157D01*
X165519463Y-93390776D01*
X165484886Y-93372294D01*
X165454579Y-93347421D01*
X165429706Y-93317114D01*
X165411224Y-93282537D01*
X165399843Y-93245018D01*
X165396000Y-93206000D01*
X165396000Y-91706000D01*
X165399843Y-91666982D01*
X165411224Y-91629463D01*
X165429706Y-91594886D01*
X165454579Y-91564579D01*
X165484886Y-91539706D01*
X165519463Y-91521224D01*
X165556982Y-91509843D01*
X165596000Y-91506000D01*
X166146000Y-91506000D01*
X166152112Y-91506602D01*
X166152112Y-91506602D01*
G37*
D18*
X164846000Y-92456000D03*
G04 #@! TD*
D17*
G04 #@! TO.C,JP4*
X120921356Y-102927742D03*
D15*
X120921356Y-101627742D03*
D16*
G36*
X119971958Y-101621630D02*
X119971958Y-101603208D01*
X119972921Y-101583602D01*
X119977731Y-101534771D01*
X119980610Y-101515362D01*
X119990182Y-101467237D01*
X119994952Y-101448194D01*
X120009196Y-101401239D01*
X120015807Y-101382762D01*
X120034584Y-101337429D01*
X120042979Y-101319681D01*
X120066110Y-101276408D01*
X120076196Y-101259580D01*
X120103456Y-101218781D01*
X120115151Y-101203012D01*
X120146279Y-101165083D01*
X120159459Y-101150542D01*
X120194156Y-101115845D01*
X120208697Y-101102665D01*
X120246626Y-101071537D01*
X120262395Y-101059842D01*
X120303194Y-101032582D01*
X120320022Y-101022496D01*
X120363295Y-100999365D01*
X120381043Y-100990970D01*
X120426376Y-100972193D01*
X120444853Y-100965582D01*
X120491808Y-100951338D01*
X120510851Y-100946568D01*
X120558976Y-100936996D01*
X120578385Y-100934117D01*
X120627216Y-100929307D01*
X120646822Y-100928344D01*
X120665244Y-100928344D01*
X120671356Y-100927742D01*
X121171356Y-100927742D01*
X121177468Y-100928344D01*
X121195890Y-100928344D01*
X121215496Y-100929307D01*
X121264327Y-100934117D01*
X121283736Y-100936996D01*
X121331861Y-100946568D01*
X121350904Y-100951338D01*
X121397859Y-100965582D01*
X121416336Y-100972193D01*
X121461669Y-100990970D01*
X121479417Y-100999365D01*
X121522690Y-101022496D01*
X121539518Y-101032582D01*
X121580317Y-101059842D01*
X121596086Y-101071537D01*
X121634015Y-101102665D01*
X121648556Y-101115845D01*
X121683253Y-101150542D01*
X121696433Y-101165083D01*
X121727561Y-101203012D01*
X121739256Y-101218781D01*
X121766516Y-101259580D01*
X121776602Y-101276408D01*
X121799733Y-101319681D01*
X121808128Y-101337429D01*
X121826905Y-101382762D01*
X121833516Y-101401239D01*
X121847760Y-101448194D01*
X121852530Y-101467237D01*
X121862102Y-101515362D01*
X121864981Y-101534771D01*
X121869791Y-101583602D01*
X121870754Y-101603208D01*
X121870754Y-101621630D01*
X121871356Y-101627742D01*
X121871356Y-102177742D01*
X121867513Y-102216760D01*
X121856132Y-102254279D01*
X121837650Y-102288856D01*
X121812777Y-102319163D01*
X121782470Y-102344036D01*
X121747893Y-102362518D01*
X121710374Y-102373899D01*
X121671356Y-102377742D01*
X120171356Y-102377742D01*
X120132338Y-102373899D01*
X120094819Y-102362518D01*
X120060242Y-102344036D01*
X120029935Y-102319163D01*
X120005062Y-102288856D01*
X119986580Y-102254279D01*
X119975199Y-102216760D01*
X119971356Y-102177742D01*
X119971356Y-101627742D01*
X119971958Y-101621630D01*
X119971958Y-101621630D01*
G37*
D15*
X120921356Y-104227742D03*
D16*
G36*
X119975199Y-103638724D02*
X119986580Y-103601205D01*
X120005062Y-103566628D01*
X120029935Y-103536321D01*
X120060242Y-103511448D01*
X120094819Y-103492966D01*
X120132338Y-103481585D01*
X120171356Y-103477742D01*
X121671356Y-103477742D01*
X121710374Y-103481585D01*
X121747893Y-103492966D01*
X121782470Y-103511448D01*
X121812777Y-103536321D01*
X121837650Y-103566628D01*
X121856132Y-103601205D01*
X121867513Y-103638724D01*
X121871356Y-103677742D01*
X121871356Y-104227742D01*
X121870754Y-104233854D01*
X121870754Y-104252276D01*
X121869791Y-104271882D01*
X121864981Y-104320713D01*
X121862102Y-104340122D01*
X121852530Y-104388247D01*
X121847760Y-104407290D01*
X121833516Y-104454245D01*
X121826905Y-104472722D01*
X121808128Y-104518055D01*
X121799733Y-104535803D01*
X121776602Y-104579076D01*
X121766516Y-104595904D01*
X121739256Y-104636703D01*
X121727561Y-104652472D01*
X121696433Y-104690401D01*
X121683253Y-104704942D01*
X121648556Y-104739639D01*
X121634015Y-104752819D01*
X121596086Y-104783947D01*
X121580317Y-104795642D01*
X121539518Y-104822902D01*
X121522690Y-104832988D01*
X121479417Y-104856119D01*
X121461669Y-104864514D01*
X121416336Y-104883291D01*
X121397859Y-104889902D01*
X121350904Y-104904146D01*
X121331861Y-104908916D01*
X121283736Y-104918488D01*
X121264327Y-104921367D01*
X121215496Y-104926177D01*
X121195890Y-104927140D01*
X121177468Y-104927140D01*
X121171356Y-104927742D01*
X120671356Y-104927742D01*
X120665244Y-104927140D01*
X120646822Y-104927140D01*
X120627216Y-104926177D01*
X120578385Y-104921367D01*
X120558976Y-104918488D01*
X120510851Y-104908916D01*
X120491808Y-104904146D01*
X120444853Y-104889902D01*
X120426376Y-104883291D01*
X120381043Y-104864514D01*
X120363295Y-104856119D01*
X120320022Y-104832988D01*
X120303194Y-104822902D01*
X120262395Y-104795642D01*
X120246626Y-104783947D01*
X120208697Y-104752819D01*
X120194156Y-104739639D01*
X120159459Y-104704942D01*
X120146279Y-104690401D01*
X120115151Y-104652472D01*
X120103456Y-104636703D01*
X120076196Y-104595904D01*
X120066110Y-104579076D01*
X120042979Y-104535803D01*
X120034584Y-104518055D01*
X120015807Y-104472722D01*
X120009196Y-104454245D01*
X119994952Y-104407290D01*
X119990182Y-104388247D01*
X119980610Y-104340122D01*
X119977731Y-104320713D01*
X119972921Y-104271882D01*
X119971958Y-104252276D01*
X119971958Y-104233854D01*
X119971356Y-104227742D01*
X119971356Y-103677742D01*
X119975199Y-103638724D01*
X119975199Y-103638724D01*
G37*
G04 #@! TD*
D15*
G04 #@! TO.C,JP3*
X139756666Y-104487773D03*
D16*
G36*
X138810509Y-103898755D02*
X138821890Y-103861236D01*
X138840372Y-103826659D01*
X138865245Y-103796352D01*
X138895552Y-103771479D01*
X138930129Y-103752997D01*
X138967648Y-103741616D01*
X139006666Y-103737773D01*
X140506666Y-103737773D01*
X140545684Y-103741616D01*
X140583203Y-103752997D01*
X140617780Y-103771479D01*
X140648087Y-103796352D01*
X140672960Y-103826659D01*
X140691442Y-103861236D01*
X140702823Y-103898755D01*
X140706666Y-103937773D01*
X140706666Y-104487773D01*
X140706064Y-104493885D01*
X140706064Y-104512307D01*
X140705101Y-104531913D01*
X140700291Y-104580744D01*
X140697412Y-104600153D01*
X140687840Y-104648278D01*
X140683070Y-104667321D01*
X140668826Y-104714276D01*
X140662215Y-104732753D01*
X140643438Y-104778086D01*
X140635043Y-104795834D01*
X140611912Y-104839107D01*
X140601826Y-104855935D01*
X140574566Y-104896734D01*
X140562871Y-104912503D01*
X140531743Y-104950432D01*
X140518563Y-104964973D01*
X140483866Y-104999670D01*
X140469325Y-105012850D01*
X140431396Y-105043978D01*
X140415627Y-105055673D01*
X140374828Y-105082933D01*
X140358000Y-105093019D01*
X140314727Y-105116150D01*
X140296979Y-105124545D01*
X140251646Y-105143322D01*
X140233169Y-105149933D01*
X140186214Y-105164177D01*
X140167171Y-105168947D01*
X140119046Y-105178519D01*
X140099637Y-105181398D01*
X140050806Y-105186208D01*
X140031200Y-105187171D01*
X140012778Y-105187171D01*
X140006666Y-105187773D01*
X139506666Y-105187773D01*
X139500554Y-105187171D01*
X139482132Y-105187171D01*
X139462526Y-105186208D01*
X139413695Y-105181398D01*
X139394286Y-105178519D01*
X139346161Y-105168947D01*
X139327118Y-105164177D01*
X139280163Y-105149933D01*
X139261686Y-105143322D01*
X139216353Y-105124545D01*
X139198605Y-105116150D01*
X139155332Y-105093019D01*
X139138504Y-105082933D01*
X139097705Y-105055673D01*
X139081936Y-105043978D01*
X139044007Y-105012850D01*
X139029466Y-104999670D01*
X138994769Y-104964973D01*
X138981589Y-104950432D01*
X138950461Y-104912503D01*
X138938766Y-104896734D01*
X138911506Y-104855935D01*
X138901420Y-104839107D01*
X138878289Y-104795834D01*
X138869894Y-104778086D01*
X138851117Y-104732753D01*
X138844506Y-104714276D01*
X138830262Y-104667321D01*
X138825492Y-104648278D01*
X138815920Y-104600153D01*
X138813041Y-104580744D01*
X138808231Y-104531913D01*
X138807268Y-104512307D01*
X138807268Y-104493885D01*
X138806666Y-104487773D01*
X138806666Y-103937773D01*
X138810509Y-103898755D01*
X138810509Y-103898755D01*
G37*
D15*
X139756666Y-101887773D03*
D16*
G36*
X138807268Y-101881661D02*
X138807268Y-101863239D01*
X138808231Y-101843633D01*
X138813041Y-101794802D01*
X138815920Y-101775393D01*
X138825492Y-101727268D01*
X138830262Y-101708225D01*
X138844506Y-101661270D01*
X138851117Y-101642793D01*
X138869894Y-101597460D01*
X138878289Y-101579712D01*
X138901420Y-101536439D01*
X138911506Y-101519611D01*
X138938766Y-101478812D01*
X138950461Y-101463043D01*
X138981589Y-101425114D01*
X138994769Y-101410573D01*
X139029466Y-101375876D01*
X139044007Y-101362696D01*
X139081936Y-101331568D01*
X139097705Y-101319873D01*
X139138504Y-101292613D01*
X139155332Y-101282527D01*
X139198605Y-101259396D01*
X139216353Y-101251001D01*
X139261686Y-101232224D01*
X139280163Y-101225613D01*
X139327118Y-101211369D01*
X139346161Y-101206599D01*
X139394286Y-101197027D01*
X139413695Y-101194148D01*
X139462526Y-101189338D01*
X139482132Y-101188375D01*
X139500554Y-101188375D01*
X139506666Y-101187773D01*
X140006666Y-101187773D01*
X140012778Y-101188375D01*
X140031200Y-101188375D01*
X140050806Y-101189338D01*
X140099637Y-101194148D01*
X140119046Y-101197027D01*
X140167171Y-101206599D01*
X140186214Y-101211369D01*
X140233169Y-101225613D01*
X140251646Y-101232224D01*
X140296979Y-101251001D01*
X140314727Y-101259396D01*
X140358000Y-101282527D01*
X140374828Y-101292613D01*
X140415627Y-101319873D01*
X140431396Y-101331568D01*
X140469325Y-101362696D01*
X140483866Y-101375876D01*
X140518563Y-101410573D01*
X140531743Y-101425114D01*
X140562871Y-101463043D01*
X140574566Y-101478812D01*
X140601826Y-101519611D01*
X140611912Y-101536439D01*
X140635043Y-101579712D01*
X140643438Y-101597460D01*
X140662215Y-101642793D01*
X140668826Y-101661270D01*
X140683070Y-101708225D01*
X140687840Y-101727268D01*
X140697412Y-101775393D01*
X140700291Y-101794802D01*
X140705101Y-101843633D01*
X140706064Y-101863239D01*
X140706064Y-101881661D01*
X140706666Y-101887773D01*
X140706666Y-102437773D01*
X140702823Y-102476791D01*
X140691442Y-102514310D01*
X140672960Y-102548887D01*
X140648087Y-102579194D01*
X140617780Y-102604067D01*
X140583203Y-102622549D01*
X140545684Y-102633930D01*
X140506666Y-102637773D01*
X139006666Y-102637773D01*
X138967648Y-102633930D01*
X138930129Y-102622549D01*
X138895552Y-102604067D01*
X138865245Y-102579194D01*
X138840372Y-102548887D01*
X138821890Y-102514310D01*
X138810509Y-102476791D01*
X138806666Y-102437773D01*
X138806666Y-101887773D01*
X138807268Y-101881661D01*
X138807268Y-101881661D01*
G37*
D17*
X139756666Y-103187773D03*
G04 #@! TD*
D19*
G04 #@! TO.C,MH1*
X106680000Y-138430000D03*
G04 #@! TD*
G04 #@! TO.C,MH2*
X106680000Y-91440000D03*
G04 #@! TD*
G04 #@! TO.C,MH3*
X191770000Y-138430000D03*
G04 #@! TD*
G04 #@! TO.C,MH4*
X191770000Y-91440000D03*
G04 #@! TD*
D14*
G04 #@! TO.C,Q10*
X132080000Y-120380000D03*
X131130000Y-118380000D03*
X133030000Y-118380000D03*
G04 #@! TD*
G04 #@! TO.C,Q1*
X177800000Y-133080000D03*
X176850000Y-131080000D03*
X178750000Y-131080000D03*
G04 #@! TD*
G04 #@! TO.C,Q2*
X178750000Y-118380000D03*
X176850000Y-118380000D03*
X177800000Y-120380000D03*
G04 #@! TD*
G04 #@! TO.C,Q3*
X162560000Y-133080000D03*
X161610000Y-131080000D03*
X163510000Y-131080000D03*
G04 #@! TD*
G04 #@! TO.C,Q4*
X163510000Y-118380000D03*
X161610000Y-118380000D03*
X162560000Y-120380000D03*
G04 #@! TD*
G04 #@! TO.C,Q5*
X147320000Y-133080000D03*
X146370000Y-131080000D03*
X148270000Y-131080000D03*
G04 #@! TD*
G04 #@! TO.C,Q6*
X148270000Y-118380000D03*
X146370000Y-118380000D03*
X147320000Y-120380000D03*
G04 #@! TD*
G04 #@! TO.C,Q7*
X132080000Y-133080000D03*
X131130000Y-131080000D03*
X133030000Y-131080000D03*
G04 #@! TD*
M02*
