G04 #@! TF.GenerationSoftware,KiCad,Pcbnew,(5.0.0)*
G04 #@! TF.CreationDate,2019-08-26T21:19:04-04:00*
G04 #@! TF.ProjectId,ProMicro-Breakout+RGB,50726F4D6963726F2D427265616B6F75,rev?*
G04 #@! TF.SameCoordinates,Original*
G04 #@! TF.FileFunction,Copper,L2,Bot,Signal*
G04 #@! TF.FilePolarity,Positive*
%FSLAX46Y46*%
G04 Gerber Fmt 4.6, Leading zero omitted, Abs format (unit mm)*
G04 Created by KiCad (PCBNEW (5.0.0)) date 08/26/19 21:19:04*
%MOMM*%
%LPD*%
G01*
G04 APERTURE LIST*
G04 #@! TA.AperFunction,ComponentPad*
%ADD10C,1.750000*%
G04 #@! TD*
G04 #@! TA.AperFunction,ComponentPad*
%ADD11R,1.750000X1.750000*%
G04 #@! TD*
G04 #@! TA.AperFunction,ComponentPad*
%ADD12O,1.700000X1.700000*%
G04 #@! TD*
G04 #@! TA.AperFunction,ComponentPad*
%ADD13R,1.700000X1.700000*%
G04 #@! TD*
G04 #@! TA.AperFunction,Conductor*
%ADD14C,0.250000*%
G04 #@! TD*
G04 #@! TA.AperFunction,Conductor*
%ADD15C,0.254000*%
G04 #@! TD*
G04 APERTURE END LIST*
D10*
G04 #@! TO.P,J2,4*
G04 #@! TO.N,GND*
X128150000Y-95250000D03*
G04 #@! TO.P,J2,3*
G04 #@! TO.N,+5V*
X125650000Y-95250000D03*
G04 #@! TO.P,J2,2*
G04 #@! TO.N,/QE2B*
X123150000Y-95250000D03*
D11*
G04 #@! TO.P,J2,1*
G04 #@! TO.N,/QE2A*
X120650000Y-95250000D03*
G04 #@! TD*
D10*
G04 #@! TO.P,J5,2*
G04 #@! TO.N,GND*
X130008000Y-128778000D03*
D11*
G04 #@! TO.P,J5,1*
G04 #@! TO.N,/B3*
X127508000Y-128778000D03*
G04 #@! TD*
G04 #@! TO.P,J12,1*
G04 #@! TO.N,/B8*
X112228000Y-117348000D03*
D10*
G04 #@! TO.P,J12,2*
G04 #@! TO.N,GND*
X114728000Y-117348000D03*
G04 #@! TD*
G04 #@! TO.P,J3,2*
G04 #@! TO.N,GND*
X150328000Y-128778000D03*
D11*
G04 #@! TO.P,J3,1*
G04 #@! TO.N,/B1*
X147828000Y-128778000D03*
G04 #@! TD*
G04 #@! TO.P,J4,1*
G04 #@! TO.N,/B2*
X137668000Y-128778000D03*
D10*
G04 #@! TO.P,J4,2*
G04 #@! TO.N,GND*
X140168000Y-128778000D03*
G04 #@! TD*
G04 #@! TO.P,J6,2*
G04 #@! TO.N,GND*
X119848000Y-128778000D03*
D11*
G04 #@! TO.P,J6,1*
G04 #@! TO.N,/B4*
X117348000Y-128778000D03*
G04 #@! TD*
G04 #@! TO.P,J17,1*
G04 #@! TO.N,/B12*
X112268000Y-107188000D03*
D10*
G04 #@! TO.P,J17,2*
G04 #@! TO.N,GND*
X114768000Y-107188000D03*
G04 #@! TD*
G04 #@! TO.P,J16,2*
G04 #@! TO.N,GND*
X124928000Y-107188000D03*
D11*
G04 #@! TO.P,J16,1*
G04 #@! TO.N,/B11*
X122428000Y-107188000D03*
G04 #@! TD*
G04 #@! TO.P,J15,1*
G04 #@! TO.N,/B10*
X132588000Y-107188000D03*
D10*
G04 #@! TO.P,J15,2*
G04 #@! TO.N,GND*
X135088000Y-107188000D03*
G04 #@! TD*
G04 #@! TO.P,J14,2*
G04 #@! TO.N,GND*
X145248000Y-107188000D03*
D11*
G04 #@! TO.P,J14,1*
G04 #@! TO.N,/B9*
X142748000Y-107188000D03*
G04 #@! TD*
G04 #@! TO.P,J11,1*
G04 #@! TO.N,/B7*
X122428000Y-117348000D03*
D10*
G04 #@! TO.P,J11,2*
G04 #@! TO.N,GND*
X124928000Y-117348000D03*
G04 #@! TD*
G04 #@! TO.P,J9,2*
G04 #@! TO.N,GND*
X135088000Y-117348000D03*
D11*
G04 #@! TO.P,J9,1*
G04 #@! TO.N,/B6*
X132588000Y-117348000D03*
G04 #@! TD*
G04 #@! TO.P,J8,1*
G04 #@! TO.N,/B5*
X142748000Y-117348000D03*
D10*
G04 #@! TO.P,J8,2*
G04 #@! TO.N,GND*
X145248000Y-117348000D03*
G04 #@! TD*
G04 #@! TO.P,J18,4*
G04 #@! TO.N,GND*
X161424000Y-121412000D03*
G04 #@! TO.P,J18,3*
G04 #@! TO.N,/LDAT*
X158924000Y-121412000D03*
G04 #@! TO.P,J18,2*
G04 #@! TO.N,/LCLK*
X156424000Y-121412000D03*
D11*
G04 #@! TO.P,J18,1*
G04 #@! TO.N,/LED+*
X153924000Y-121412000D03*
G04 #@! TD*
D12*
G04 #@! TO.P,J7,12*
G04 #@! TO.N,/B12*
X153162000Y-100584000D03*
G04 #@! TO.P,J7,11*
G04 #@! TO.N,/B11*
X155702000Y-100584000D03*
G04 #@! TO.P,J7,10*
G04 #@! TO.N,/B10*
X158242000Y-100584000D03*
G04 #@! TO.P,J7,9*
G04 #@! TO.N,/B9*
X160782000Y-100584000D03*
G04 #@! TO.P,J7,8*
G04 #@! TO.N,/B8*
X163322000Y-100584000D03*
G04 #@! TO.P,J7,7*
G04 #@! TO.N,/B7*
X165862000Y-100584000D03*
G04 #@! TO.P,J7,6*
G04 #@! TO.N,/QE2B*
X168402000Y-100584000D03*
G04 #@! TO.P,J7,5*
G04 #@! TO.N,/QE2A*
X170942000Y-100584000D03*
G04 #@! TO.P,J7,4*
G04 #@! TO.N,GND*
X173482000Y-100584000D03*
G04 #@! TO.P,J7,3*
X176022000Y-100584000D03*
G04 #@! TO.P,J7,2*
G04 #@! TO.N,/QE1B*
X178562000Y-100584000D03*
D13*
G04 #@! TO.P,J7,1*
G04 #@! TO.N,/QE1A*
X181102000Y-100584000D03*
G04 #@! TD*
G04 #@! TO.P,J10,1*
G04 #@! TO.N,VBUS*
X181102000Y-115824000D03*
D12*
G04 #@! TO.P,J10,2*
G04 #@! TO.N,GND*
X178562000Y-115824000D03*
G04 #@! TO.P,J10,3*
G04 #@! TO.N,Net-(J10-Pad3)*
X176022000Y-115824000D03*
G04 #@! TO.P,J10,4*
G04 #@! TO.N,+5V*
X173482000Y-115824000D03*
G04 #@! TO.P,J10,5*
G04 #@! TO.N,/B1*
X170942000Y-115824000D03*
G04 #@! TO.P,J10,6*
G04 #@! TO.N,/B2*
X168402000Y-115824000D03*
G04 #@! TO.P,J10,7*
G04 #@! TO.N,/B3*
X165862000Y-115824000D03*
G04 #@! TO.P,J10,8*
G04 #@! TO.N,/B4*
X163322000Y-115824000D03*
G04 #@! TO.P,J10,9*
G04 #@! TO.N,/LCLK*
X160782000Y-115824000D03*
G04 #@! TO.P,J10,10*
G04 #@! TO.N,/B5*
X158242000Y-115824000D03*
G04 #@! TO.P,J10,11*
G04 #@! TO.N,/LDAT*
X155702000Y-115824000D03*
G04 #@! TO.P,J10,12*
G04 #@! TO.N,/B6*
X153162000Y-115824000D03*
G04 #@! TD*
D10*
G04 #@! TO.P,J13,2*
G04 #@! TO.N,GND*
X171918000Y-121412000D03*
D11*
G04 #@! TO.P,J13,1*
G04 #@! TO.N,+5P*
X169418000Y-121412000D03*
G04 #@! TD*
G04 #@! TO.P,J1,1*
G04 #@! TO.N,/QE1A*
X135890000Y-95250000D03*
D10*
G04 #@! TO.P,J1,2*
G04 #@! TO.N,/QE1B*
X138390000Y-95250000D03*
G04 #@! TO.P,J1,3*
G04 #@! TO.N,+5V*
X140890000Y-95250000D03*
G04 #@! TO.P,J1,4*
G04 #@! TO.N,GND*
X143390000Y-95250000D03*
G04 #@! TD*
D14*
G04 #@! TO.N,/QE1B*
X147828000Y-95504000D02*
X144780000Y-92456000D01*
X138390000Y-93766000D02*
X138390000Y-95250000D01*
X144780000Y-92456000D02*
X139700000Y-92456000D01*
X139700000Y-92456000D02*
X138390000Y-93766000D01*
X178562000Y-99381919D02*
X177478081Y-98298000D01*
X178562000Y-100584000D02*
X178562000Y-99381919D01*
X175514000Y-98298000D02*
X172720000Y-95504000D01*
X177478081Y-98298000D02*
X175514000Y-98298000D01*
X172720000Y-95504000D02*
X147828000Y-95504000D01*
G04 #@! TO.N,/QE1A*
X135890000Y-92202000D02*
X135890000Y-95250000D01*
X136652000Y-91440000D02*
X135890000Y-92202000D01*
X145288000Y-91440000D02*
X136652000Y-91440000D01*
X181102000Y-100584000D02*
X181102000Y-99484000D01*
X181102000Y-99484000D02*
X179154000Y-97536000D01*
X179154000Y-97536000D02*
X176530000Y-97536000D01*
X176530000Y-97536000D02*
X173482000Y-94488000D01*
X173482000Y-94488000D02*
X148336000Y-94488000D01*
X148336000Y-94488000D02*
X145288000Y-91440000D01*
G04 #@! TO.N,/B4*
X117348000Y-125984000D02*
X117348000Y-128778000D01*
X118872000Y-124460000D02*
X117348000Y-125984000D01*
X162306000Y-124460000D02*
X118872000Y-124460000D01*
X163322000Y-123444000D02*
X162306000Y-124460000D01*
X163322000Y-115824000D02*
X163322000Y-123444000D01*
G04 #@! TO.N,+5V*
X140890000Y-96854000D02*
X140890000Y-95250000D01*
X140208000Y-97536000D02*
X140890000Y-96854000D01*
X126698564Y-97536000D02*
X140208000Y-97536000D01*
X125650000Y-95250000D02*
X125650000Y-96487436D01*
X125650000Y-96487436D02*
X126698564Y-97536000D01*
G04 #@! TO.N,/B3*
X127508000Y-126746000D02*
X127508000Y-128778000D01*
X128778000Y-125476000D02*
X127508000Y-126746000D01*
X164338000Y-124206000D02*
X163068000Y-125476000D01*
X163068000Y-125476000D02*
X128778000Y-125476000D01*
X165862000Y-117026081D02*
X165286081Y-117602000D01*
X165862000Y-115824000D02*
X165862000Y-117026081D01*
X165286081Y-117602000D02*
X164846000Y-117602000D01*
X164338000Y-118110000D02*
X164338000Y-124206000D01*
X164846000Y-117602000D02*
X164338000Y-118110000D01*
G04 #@! TO.N,/B2*
X137668000Y-127000000D02*
X138176000Y-126492000D01*
X138176000Y-126492000D02*
X163576000Y-126492000D01*
X163576000Y-126492000D02*
X165354000Y-124714000D01*
X137668000Y-128778000D02*
X137668000Y-127000000D01*
X168402000Y-117026081D02*
X167064081Y-118364000D01*
X168402000Y-115824000D02*
X168402000Y-117026081D01*
X167064081Y-118364000D02*
X166116000Y-118364000D01*
X165354000Y-119126000D02*
X165354000Y-124714000D01*
X166116000Y-118364000D02*
X165354000Y-119126000D01*
G04 #@! TO.N,/B1*
X147828000Y-127653000D02*
X147828000Y-128778000D01*
X148227000Y-127254000D02*
X147828000Y-127653000D01*
X164592000Y-127254000D02*
X148227000Y-127254000D01*
X170942000Y-117856000D02*
X169418000Y-119380000D01*
X170942000Y-115824000D02*
X170942000Y-117856000D01*
X169418000Y-119380000D02*
X166878000Y-119380000D01*
X166878000Y-119380000D02*
X166370000Y-119888000D01*
X166370000Y-119888000D02*
X166370000Y-125476000D01*
X166370000Y-125476000D02*
X164592000Y-127254000D01*
G04 #@! TO.N,/QE2A*
X120650000Y-97282000D02*
X120650000Y-95250000D01*
X170942000Y-102108000D02*
X170180000Y-102870000D01*
X170942000Y-100584000D02*
X170942000Y-102108000D01*
X170180000Y-102870000D02*
X149860000Y-102870000D01*
X149860000Y-102870000D02*
X146558000Y-99568000D01*
X146558000Y-99568000D02*
X122936000Y-99568000D01*
X122936000Y-99568000D02*
X120650000Y-97282000D01*
G04 #@! TO.N,/QE2B*
X168402000Y-99314000D02*
X168402000Y-100584000D01*
X167640000Y-98552000D02*
X168402000Y-99314000D01*
X125214564Y-98552000D02*
X167640000Y-98552000D01*
X123150000Y-95250000D02*
X123150000Y-96487436D01*
X123150000Y-96487436D02*
X125214564Y-98552000D01*
G04 #@! TO.N,/LDAT*
X158924000Y-119046000D02*
X157988000Y-118110000D01*
X158924000Y-121412000D02*
X158924000Y-119046000D01*
X157988000Y-118110000D02*
X156464000Y-118110000D01*
X155702000Y-117348000D02*
X155702000Y-115824000D01*
X156464000Y-118110000D02*
X155702000Y-117348000D01*
G04 #@! TD*
D15*
G04 #@! TO.N,GND*
G36*
X136104071Y-90892071D02*
X136061671Y-90955527D01*
X135405530Y-91611669D01*
X135342071Y-91654071D01*
X135174096Y-91905464D01*
X135130000Y-92127149D01*
X135130000Y-92127153D01*
X135115112Y-92202000D01*
X135130000Y-92276847D01*
X135130001Y-93727560D01*
X135015000Y-93727560D01*
X134767235Y-93776843D01*
X134557191Y-93917191D01*
X134416843Y-94127235D01*
X134367560Y-94375000D01*
X134367560Y-96125000D01*
X134416843Y-96372765D01*
X134557191Y-96582809D01*
X134767235Y-96723157D01*
X135015000Y-96772440D01*
X136765000Y-96772440D01*
X137012765Y-96723157D01*
X137222809Y-96582809D01*
X137363157Y-96372765D01*
X137365504Y-96360966D01*
X137534654Y-96530116D01*
X138089642Y-96760000D01*
X138690358Y-96760000D01*
X139245346Y-96530116D01*
X139640000Y-96135462D01*
X140034654Y-96530116D01*
X140108496Y-96560702D01*
X139893199Y-96776000D01*
X127013367Y-96776000D01*
X126636414Y-96399048D01*
X126723402Y-96312060D01*
X127267545Y-96312060D01*
X127350884Y-96565953D01*
X127915306Y-96771590D01*
X128515458Y-96745579D01*
X128949116Y-96565953D01*
X129032455Y-96312060D01*
X128150000Y-95429605D01*
X127267545Y-96312060D01*
X126723402Y-96312060D01*
X126930116Y-96105346D01*
X126939121Y-96083606D01*
X127087940Y-96132455D01*
X127970395Y-95250000D01*
X128329605Y-95250000D01*
X129212060Y-96132455D01*
X129465953Y-96049116D01*
X129671590Y-95484694D01*
X129645579Y-94884542D01*
X129465953Y-94450884D01*
X129212060Y-94367545D01*
X128329605Y-95250000D01*
X127970395Y-95250000D01*
X127087940Y-94367545D01*
X126939121Y-94416394D01*
X126930116Y-94394654D01*
X126723402Y-94187940D01*
X127267545Y-94187940D01*
X128150000Y-95070395D01*
X129032455Y-94187940D01*
X128949116Y-93934047D01*
X128384694Y-93728410D01*
X127784542Y-93754421D01*
X127350884Y-93934047D01*
X127267545Y-94187940D01*
X126723402Y-94187940D01*
X126505346Y-93969884D01*
X125950358Y-93740000D01*
X125349642Y-93740000D01*
X124794654Y-93969884D01*
X124400000Y-94364538D01*
X124005346Y-93969884D01*
X123450358Y-93740000D01*
X122849642Y-93740000D01*
X122294654Y-93969884D01*
X122125504Y-94139034D01*
X122123157Y-94127235D01*
X121982809Y-93917191D01*
X121772765Y-93776843D01*
X121525000Y-93727560D01*
X119775000Y-93727560D01*
X119527235Y-93776843D01*
X119317191Y-93917191D01*
X119176843Y-94127235D01*
X119127560Y-94375000D01*
X119127560Y-96125000D01*
X119176843Y-96372765D01*
X119317191Y-96582809D01*
X119527235Y-96723157D01*
X119775000Y-96772440D01*
X119890000Y-96772440D01*
X119890000Y-97207153D01*
X119875112Y-97282000D01*
X119890000Y-97356847D01*
X119890000Y-97356851D01*
X119934096Y-97578536D01*
X120102071Y-97829929D01*
X120165530Y-97872331D01*
X122345670Y-100052472D01*
X122388071Y-100115929D01*
X122639463Y-100283904D01*
X122861148Y-100328000D01*
X122861152Y-100328000D01*
X122935999Y-100342888D01*
X123010846Y-100328000D01*
X146243199Y-100328000D01*
X149269671Y-103354473D01*
X149312071Y-103417929D01*
X149563463Y-103585904D01*
X149785148Y-103630000D01*
X149785152Y-103630000D01*
X149859999Y-103644888D01*
X149934846Y-103630000D01*
X170105153Y-103630000D01*
X170180000Y-103644888D01*
X170254847Y-103630000D01*
X170254852Y-103630000D01*
X170476537Y-103585904D01*
X170727929Y-103417929D01*
X170770331Y-103354470D01*
X171426473Y-102698329D01*
X171489929Y-102655929D01*
X171545032Y-102573462D01*
X171657904Y-102404538D01*
X171667480Y-102356395D01*
X171702000Y-102182852D01*
X171702000Y-102182848D01*
X171716888Y-102108000D01*
X171702000Y-102033152D01*
X171702000Y-101862178D01*
X172012625Y-101654625D01*
X172225843Y-101335522D01*
X172286817Y-101465358D01*
X172715076Y-101855645D01*
X173125110Y-102025476D01*
X173355000Y-101904155D01*
X173355000Y-100711000D01*
X173609000Y-100711000D01*
X173609000Y-101904155D01*
X173838890Y-102025476D01*
X174248924Y-101855645D01*
X174677183Y-101465358D01*
X174752000Y-101306046D01*
X174826817Y-101465358D01*
X175255076Y-101855645D01*
X175665110Y-102025476D01*
X175895000Y-101904155D01*
X175895000Y-100711000D01*
X173609000Y-100711000D01*
X173355000Y-100711000D01*
X173335000Y-100711000D01*
X173335000Y-100457000D01*
X173355000Y-100457000D01*
X173355000Y-99263845D01*
X173609000Y-99263845D01*
X173609000Y-100457000D01*
X175895000Y-100457000D01*
X175895000Y-99263845D01*
X175665110Y-99142524D01*
X175255076Y-99312355D01*
X174826817Y-99702642D01*
X174752000Y-99861954D01*
X174677183Y-99702642D01*
X174248924Y-99312355D01*
X173838890Y-99142524D01*
X173609000Y-99263845D01*
X173355000Y-99263845D01*
X173125110Y-99142524D01*
X172715076Y-99312355D01*
X172286817Y-99702642D01*
X172225843Y-99832478D01*
X172012625Y-99513375D01*
X171521418Y-99185161D01*
X171088256Y-99099000D01*
X170795744Y-99099000D01*
X170362582Y-99185161D01*
X169871375Y-99513375D01*
X169672000Y-99811761D01*
X169472625Y-99513375D01*
X169176577Y-99315562D01*
X169176888Y-99314000D01*
X169162000Y-99239152D01*
X169162000Y-99239148D01*
X169117904Y-99017463D01*
X169117904Y-99017462D01*
X168992329Y-98829527D01*
X168949929Y-98766071D01*
X168886473Y-98723671D01*
X168230331Y-98067530D01*
X168187929Y-98004071D01*
X167936537Y-97836096D01*
X167714852Y-97792000D01*
X167714847Y-97792000D01*
X167640000Y-97777112D01*
X167565153Y-97792000D01*
X141026801Y-97792000D01*
X141374473Y-97444329D01*
X141437929Y-97401929D01*
X141531210Y-97262325D01*
X141605904Y-97150538D01*
X141625598Y-97051527D01*
X141650000Y-96928852D01*
X141650000Y-96928848D01*
X141664888Y-96854000D01*
X141650000Y-96779152D01*
X141650000Y-96569610D01*
X141745346Y-96530116D01*
X141963402Y-96312060D01*
X142507545Y-96312060D01*
X142590884Y-96565953D01*
X143155306Y-96771590D01*
X143755458Y-96745579D01*
X144189116Y-96565953D01*
X144272455Y-96312060D01*
X143390000Y-95429605D01*
X142507545Y-96312060D01*
X141963402Y-96312060D01*
X142170116Y-96105346D01*
X142179121Y-96083606D01*
X142327940Y-96132455D01*
X143210395Y-95250000D01*
X143569605Y-95250000D01*
X144452060Y-96132455D01*
X144705953Y-96049116D01*
X144911590Y-95484694D01*
X144885579Y-94884542D01*
X144705953Y-94450884D01*
X144452060Y-94367545D01*
X143569605Y-95250000D01*
X143210395Y-95250000D01*
X142327940Y-94367545D01*
X142179121Y-94416394D01*
X142170116Y-94394654D01*
X141963402Y-94187940D01*
X142507545Y-94187940D01*
X143390000Y-95070395D01*
X144272455Y-94187940D01*
X144189116Y-93934047D01*
X143624694Y-93728410D01*
X143024542Y-93754421D01*
X142590884Y-93934047D01*
X142507545Y-94187940D01*
X141963402Y-94187940D01*
X141745346Y-93969884D01*
X141190358Y-93740000D01*
X140589642Y-93740000D01*
X140034654Y-93969884D01*
X139640000Y-94364538D01*
X139253132Y-93977670D01*
X140014802Y-93216000D01*
X144465199Y-93216000D01*
X147237670Y-95988472D01*
X147280071Y-96051929D01*
X147531463Y-96219904D01*
X147753148Y-96264000D01*
X147753153Y-96264000D01*
X147828000Y-96278888D01*
X147902847Y-96264000D01*
X172405199Y-96264000D01*
X174923670Y-98782472D01*
X174966071Y-98845929D01*
X175029527Y-98888329D01*
X175217462Y-99013904D01*
X175265605Y-99023480D01*
X175439148Y-99058000D01*
X175439152Y-99058000D01*
X175514000Y-99072888D01*
X175588848Y-99058000D01*
X177163280Y-99058000D01*
X177567673Y-99462394D01*
X177491375Y-99513375D01*
X177278157Y-99832478D01*
X177217183Y-99702642D01*
X176788924Y-99312355D01*
X176378890Y-99142524D01*
X176149000Y-99263845D01*
X176149000Y-100457000D01*
X176169000Y-100457000D01*
X176169000Y-100711000D01*
X176149000Y-100711000D01*
X176149000Y-101904155D01*
X176378890Y-102025476D01*
X176788924Y-101855645D01*
X177217183Y-101465358D01*
X177278157Y-101335522D01*
X177491375Y-101654625D01*
X177982582Y-101982839D01*
X178415744Y-102069000D01*
X178708256Y-102069000D01*
X179141418Y-101982839D01*
X179632625Y-101654625D01*
X179644816Y-101636381D01*
X179653843Y-101681765D01*
X179794191Y-101891809D01*
X180004235Y-102032157D01*
X180252000Y-102081440D01*
X181952000Y-102081440D01*
X182170000Y-102038078D01*
X182170001Y-114369923D01*
X181952000Y-114326560D01*
X180252000Y-114326560D01*
X180004235Y-114375843D01*
X179794191Y-114516191D01*
X179653843Y-114726235D01*
X179633261Y-114829708D01*
X179328924Y-114552355D01*
X178918890Y-114382524D01*
X178689000Y-114503845D01*
X178689000Y-115697000D01*
X178709000Y-115697000D01*
X178709000Y-115951000D01*
X178689000Y-115951000D01*
X178689000Y-117144155D01*
X178918890Y-117265476D01*
X179328924Y-117095645D01*
X179633261Y-116818292D01*
X179653843Y-116921765D01*
X179794191Y-117131809D01*
X180004235Y-117272157D01*
X180252000Y-117321440D01*
X181952000Y-117321440D01*
X182170001Y-117278077D01*
X182170001Y-132640000D01*
X107390000Y-132640000D01*
X107390000Y-129095431D01*
X108255000Y-129095431D01*
X108255000Y-129984569D01*
X108595259Y-130806026D01*
X109223974Y-131434741D01*
X110045431Y-131775000D01*
X110934569Y-131775000D01*
X111756026Y-131434741D01*
X112384741Y-130806026D01*
X112725000Y-129984569D01*
X112725000Y-129095431D01*
X112384741Y-128273974D01*
X112013767Y-127903000D01*
X115825560Y-127903000D01*
X115825560Y-129653000D01*
X115874843Y-129900765D01*
X116015191Y-130110809D01*
X116225235Y-130251157D01*
X116473000Y-130300440D01*
X118223000Y-130300440D01*
X118470765Y-130251157D01*
X118680809Y-130110809D01*
X118811475Y-129915255D01*
X118850914Y-129954694D01*
X118965546Y-129840062D01*
X119048884Y-130093953D01*
X119613306Y-130299590D01*
X120213458Y-130273579D01*
X120647116Y-130093953D01*
X120730455Y-129840060D01*
X119848000Y-128957605D01*
X119833858Y-128971748D01*
X119654253Y-128792143D01*
X119668395Y-128778000D01*
X120027605Y-128778000D01*
X120910060Y-129660455D01*
X121163953Y-129577116D01*
X121369590Y-129012694D01*
X121343579Y-128412542D01*
X121163953Y-127978884D01*
X120910060Y-127895545D01*
X120027605Y-128778000D01*
X119668395Y-128778000D01*
X119654253Y-128763858D01*
X119833858Y-128584253D01*
X119848000Y-128598395D01*
X120730455Y-127715940D01*
X120647116Y-127462047D01*
X120082694Y-127256410D01*
X119482542Y-127282421D01*
X119048884Y-127462047D01*
X118965546Y-127715938D01*
X118850914Y-127601306D01*
X118811475Y-127640745D01*
X118680809Y-127445191D01*
X118470765Y-127304843D01*
X118223000Y-127255560D01*
X118108000Y-127255560D01*
X118108000Y-126298801D01*
X119186803Y-125220000D01*
X127959198Y-125220000D01*
X127023530Y-126155669D01*
X126960071Y-126198071D01*
X126792096Y-126449464D01*
X126748000Y-126671149D01*
X126748000Y-126671153D01*
X126733112Y-126746000D01*
X126748000Y-126820847D01*
X126748000Y-127255560D01*
X126633000Y-127255560D01*
X126385235Y-127304843D01*
X126175191Y-127445191D01*
X126034843Y-127655235D01*
X125985560Y-127903000D01*
X125985560Y-129653000D01*
X126034843Y-129900765D01*
X126175191Y-130110809D01*
X126385235Y-130251157D01*
X126633000Y-130300440D01*
X128383000Y-130300440D01*
X128630765Y-130251157D01*
X128840809Y-130110809D01*
X128971475Y-129915255D01*
X129010914Y-129954694D01*
X129125546Y-129840062D01*
X129208884Y-130093953D01*
X129773306Y-130299590D01*
X130373458Y-130273579D01*
X130807116Y-130093953D01*
X130890455Y-129840060D01*
X130008000Y-128957605D01*
X129993858Y-128971748D01*
X129814253Y-128792143D01*
X129828395Y-128778000D01*
X130187605Y-128778000D01*
X131070060Y-129660455D01*
X131323953Y-129577116D01*
X131529590Y-129012694D01*
X131503579Y-128412542D01*
X131323953Y-127978884D01*
X131070060Y-127895545D01*
X130187605Y-128778000D01*
X129828395Y-128778000D01*
X129814253Y-128763858D01*
X129993858Y-128584253D01*
X130008000Y-128598395D01*
X130890455Y-127715940D01*
X130807116Y-127462047D01*
X130242694Y-127256410D01*
X129642542Y-127282421D01*
X129208884Y-127462047D01*
X129125546Y-127715938D01*
X129010914Y-127601306D01*
X128971475Y-127640745D01*
X128840809Y-127445191D01*
X128630765Y-127304843D01*
X128383000Y-127255560D01*
X128268000Y-127255560D01*
X128268000Y-127060801D01*
X129092802Y-126236000D01*
X137357198Y-126236000D01*
X137183527Y-126409672D01*
X137120072Y-126452071D01*
X137077672Y-126515527D01*
X137077671Y-126515528D01*
X136952097Y-126703463D01*
X136893112Y-127000000D01*
X136908001Y-127074852D01*
X136908001Y-127255560D01*
X136793000Y-127255560D01*
X136545235Y-127304843D01*
X136335191Y-127445191D01*
X136194843Y-127655235D01*
X136145560Y-127903000D01*
X136145560Y-129653000D01*
X136194843Y-129900765D01*
X136335191Y-130110809D01*
X136545235Y-130251157D01*
X136793000Y-130300440D01*
X138543000Y-130300440D01*
X138790765Y-130251157D01*
X139000809Y-130110809D01*
X139131475Y-129915255D01*
X139170914Y-129954694D01*
X139285546Y-129840062D01*
X139368884Y-130093953D01*
X139933306Y-130299590D01*
X140533458Y-130273579D01*
X140967116Y-130093953D01*
X141050455Y-129840060D01*
X140168000Y-128957605D01*
X140153858Y-128971748D01*
X139974253Y-128792143D01*
X139988395Y-128778000D01*
X140347605Y-128778000D01*
X141230060Y-129660455D01*
X141483953Y-129577116D01*
X141689590Y-129012694D01*
X141663579Y-128412542D01*
X141483953Y-127978884D01*
X141230060Y-127895545D01*
X140347605Y-128778000D01*
X139988395Y-128778000D01*
X139974253Y-128763858D01*
X140153858Y-128584253D01*
X140168000Y-128598395D01*
X141050455Y-127715940D01*
X140967116Y-127462047D01*
X140402694Y-127256410D01*
X139802542Y-127282421D01*
X139368884Y-127462047D01*
X139285546Y-127715938D01*
X139170914Y-127601306D01*
X139131475Y-127640745D01*
X139000809Y-127445191D01*
X138790765Y-127304843D01*
X138543000Y-127255560D01*
X138487242Y-127255560D01*
X138490802Y-127252000D01*
X147181896Y-127252000D01*
X147179518Y-127255560D01*
X146953000Y-127255560D01*
X146705235Y-127304843D01*
X146495191Y-127445191D01*
X146354843Y-127655235D01*
X146305560Y-127903000D01*
X146305560Y-129653000D01*
X146354843Y-129900765D01*
X146495191Y-130110809D01*
X146705235Y-130251157D01*
X146953000Y-130300440D01*
X148703000Y-130300440D01*
X148950765Y-130251157D01*
X149160809Y-130110809D01*
X149291475Y-129915255D01*
X149330914Y-129954694D01*
X149445546Y-129840062D01*
X149528884Y-130093953D01*
X150093306Y-130299590D01*
X150693458Y-130273579D01*
X151127116Y-130093953D01*
X151210455Y-129840060D01*
X150328000Y-128957605D01*
X150313858Y-128971748D01*
X150134253Y-128792143D01*
X150148395Y-128778000D01*
X150134253Y-128763858D01*
X150313858Y-128584253D01*
X150328000Y-128598395D01*
X150342143Y-128584253D01*
X150521748Y-128763858D01*
X150507605Y-128778000D01*
X151390060Y-129660455D01*
X151643953Y-129577116D01*
X151819446Y-129095431D01*
X176835000Y-129095431D01*
X176835000Y-129984569D01*
X177175259Y-130806026D01*
X177803974Y-131434741D01*
X178625431Y-131775000D01*
X179514569Y-131775000D01*
X180336026Y-131434741D01*
X180964741Y-130806026D01*
X181305000Y-129984569D01*
X181305000Y-129095431D01*
X180964741Y-128273974D01*
X180336026Y-127645259D01*
X179514569Y-127305000D01*
X178625431Y-127305000D01*
X177803974Y-127645259D01*
X177175259Y-128273974D01*
X176835000Y-129095431D01*
X151819446Y-129095431D01*
X151849590Y-129012694D01*
X151823579Y-128412542D01*
X151658498Y-128014000D01*
X164517153Y-128014000D01*
X164592000Y-128028888D01*
X164666847Y-128014000D01*
X164666852Y-128014000D01*
X164888537Y-127969904D01*
X165139929Y-127801929D01*
X165182331Y-127738470D01*
X166854473Y-126066329D01*
X166917929Y-126023929D01*
X166971288Y-125944072D01*
X167085904Y-125772538D01*
X167102826Y-125687463D01*
X167130000Y-125550852D01*
X167130000Y-125550848D01*
X167144888Y-125476000D01*
X167130000Y-125401152D01*
X167130000Y-120202802D01*
X167192802Y-120140000D01*
X168044559Y-120140000D01*
X167944843Y-120289235D01*
X167895560Y-120537000D01*
X167895560Y-122287000D01*
X167944843Y-122534765D01*
X168085191Y-122744809D01*
X168295235Y-122885157D01*
X168543000Y-122934440D01*
X170293000Y-122934440D01*
X170540765Y-122885157D01*
X170750809Y-122744809D01*
X170881475Y-122549255D01*
X170920914Y-122588694D01*
X171035546Y-122474062D01*
X171118884Y-122727953D01*
X171683306Y-122933590D01*
X172283458Y-122907579D01*
X172717116Y-122727953D01*
X172800455Y-122474060D01*
X171918000Y-121591605D01*
X171903858Y-121605748D01*
X171724253Y-121426143D01*
X171738395Y-121412000D01*
X172097605Y-121412000D01*
X172980060Y-122294455D01*
X173233953Y-122211116D01*
X173439590Y-121646694D01*
X173413579Y-121046542D01*
X173233953Y-120612884D01*
X172980060Y-120529545D01*
X172097605Y-121412000D01*
X171738395Y-121412000D01*
X171724253Y-121397858D01*
X171903858Y-121218253D01*
X171918000Y-121232395D01*
X172800455Y-120349940D01*
X172717116Y-120096047D01*
X172152694Y-119890410D01*
X171552542Y-119916421D01*
X171118884Y-120096047D01*
X171035546Y-120349938D01*
X170920914Y-120235306D01*
X170881475Y-120274745D01*
X170750809Y-120079191D01*
X170540765Y-119938843D01*
X170293000Y-119889560D01*
X169991566Y-119889560D01*
X170008331Y-119864470D01*
X171426476Y-118446327D01*
X171489929Y-118403929D01*
X171532327Y-118340476D01*
X171532329Y-118340474D01*
X171657903Y-118152538D01*
X171657904Y-118152537D01*
X171702000Y-117930852D01*
X171702000Y-117930848D01*
X171716888Y-117856001D01*
X171702000Y-117781154D01*
X171702000Y-117102178D01*
X172012625Y-116894625D01*
X172212000Y-116596239D01*
X172411375Y-116894625D01*
X172902582Y-117222839D01*
X173335744Y-117309000D01*
X173628256Y-117309000D01*
X174061418Y-117222839D01*
X174552625Y-116894625D01*
X174752000Y-116596239D01*
X174951375Y-116894625D01*
X175442582Y-117222839D01*
X175875744Y-117309000D01*
X176168256Y-117309000D01*
X176601418Y-117222839D01*
X177092625Y-116894625D01*
X177305843Y-116575522D01*
X177366817Y-116705358D01*
X177795076Y-117095645D01*
X178205110Y-117265476D01*
X178435000Y-117144155D01*
X178435000Y-115951000D01*
X178415000Y-115951000D01*
X178415000Y-115697000D01*
X178435000Y-115697000D01*
X178435000Y-114503845D01*
X178205110Y-114382524D01*
X177795076Y-114552355D01*
X177366817Y-114942642D01*
X177305843Y-115072478D01*
X177092625Y-114753375D01*
X176601418Y-114425161D01*
X176168256Y-114339000D01*
X175875744Y-114339000D01*
X175442582Y-114425161D01*
X174951375Y-114753375D01*
X174752000Y-115051761D01*
X174552625Y-114753375D01*
X174061418Y-114425161D01*
X173628256Y-114339000D01*
X173335744Y-114339000D01*
X172902582Y-114425161D01*
X172411375Y-114753375D01*
X172212000Y-115051761D01*
X172012625Y-114753375D01*
X171521418Y-114425161D01*
X171088256Y-114339000D01*
X170795744Y-114339000D01*
X170362582Y-114425161D01*
X169871375Y-114753375D01*
X169672000Y-115051761D01*
X169472625Y-114753375D01*
X168981418Y-114425161D01*
X168548256Y-114339000D01*
X168255744Y-114339000D01*
X167822582Y-114425161D01*
X167331375Y-114753375D01*
X167132000Y-115051761D01*
X166932625Y-114753375D01*
X166441418Y-114425161D01*
X166008256Y-114339000D01*
X165715744Y-114339000D01*
X165282582Y-114425161D01*
X164791375Y-114753375D01*
X164592000Y-115051761D01*
X164392625Y-114753375D01*
X163901418Y-114425161D01*
X163468256Y-114339000D01*
X163175744Y-114339000D01*
X162742582Y-114425161D01*
X162251375Y-114753375D01*
X162052000Y-115051761D01*
X161852625Y-114753375D01*
X161361418Y-114425161D01*
X160928256Y-114339000D01*
X160635744Y-114339000D01*
X160202582Y-114425161D01*
X159711375Y-114753375D01*
X159512000Y-115051761D01*
X159312625Y-114753375D01*
X158821418Y-114425161D01*
X158388256Y-114339000D01*
X158095744Y-114339000D01*
X157662582Y-114425161D01*
X157171375Y-114753375D01*
X156972000Y-115051761D01*
X156772625Y-114753375D01*
X156281418Y-114425161D01*
X155848256Y-114339000D01*
X155555744Y-114339000D01*
X155122582Y-114425161D01*
X154631375Y-114753375D01*
X154432000Y-115051761D01*
X154232625Y-114753375D01*
X153741418Y-114425161D01*
X153308256Y-114339000D01*
X153015744Y-114339000D01*
X152582582Y-114425161D01*
X152091375Y-114753375D01*
X151763161Y-115244582D01*
X151647908Y-115824000D01*
X151763161Y-116403418D01*
X152091375Y-116894625D01*
X152582582Y-117222839D01*
X153015744Y-117309000D01*
X153308256Y-117309000D01*
X153741418Y-117222839D01*
X154232625Y-116894625D01*
X154432000Y-116596239D01*
X154631375Y-116894625D01*
X154942000Y-117102178D01*
X154942000Y-117273153D01*
X154927112Y-117348000D01*
X154942000Y-117422847D01*
X154942000Y-117422851D01*
X154986096Y-117644536D01*
X155154071Y-117895929D01*
X155217530Y-117938331D01*
X155873670Y-118594472D01*
X155916071Y-118657929D01*
X155979527Y-118700329D01*
X156167462Y-118825904D01*
X156215605Y-118835480D01*
X156389148Y-118870000D01*
X156389152Y-118870000D01*
X156464000Y-118884888D01*
X156538848Y-118870000D01*
X157673199Y-118870000D01*
X158164001Y-119360803D01*
X158164001Y-120092390D01*
X158068654Y-120131884D01*
X157674000Y-120526538D01*
X157279346Y-120131884D01*
X156724358Y-119902000D01*
X156123642Y-119902000D01*
X155568654Y-120131884D01*
X155399504Y-120301034D01*
X155397157Y-120289235D01*
X155256809Y-120079191D01*
X155046765Y-119938843D01*
X154799000Y-119889560D01*
X153049000Y-119889560D01*
X152801235Y-119938843D01*
X152591191Y-120079191D01*
X152450843Y-120289235D01*
X152401560Y-120537000D01*
X152401560Y-122287000D01*
X152450843Y-122534765D01*
X152591191Y-122744809D01*
X152801235Y-122885157D01*
X153049000Y-122934440D01*
X154799000Y-122934440D01*
X155046765Y-122885157D01*
X155256809Y-122744809D01*
X155397157Y-122534765D01*
X155399504Y-122522966D01*
X155568654Y-122692116D01*
X156123642Y-122922000D01*
X156724358Y-122922000D01*
X157279346Y-122692116D01*
X157674000Y-122297462D01*
X158068654Y-122692116D01*
X158623642Y-122922000D01*
X159224358Y-122922000D01*
X159779346Y-122692116D01*
X159997402Y-122474060D01*
X160541545Y-122474060D01*
X160624884Y-122727953D01*
X161189306Y-122933590D01*
X161789458Y-122907579D01*
X162223116Y-122727953D01*
X162306455Y-122474060D01*
X161424000Y-121591605D01*
X160541545Y-122474060D01*
X159997402Y-122474060D01*
X160204116Y-122267346D01*
X160213121Y-122245606D01*
X160361940Y-122294455D01*
X161244395Y-121412000D01*
X160361940Y-120529545D01*
X160213121Y-120578394D01*
X160204116Y-120556654D01*
X159997402Y-120349940D01*
X160541545Y-120349940D01*
X161424000Y-121232395D01*
X162306455Y-120349940D01*
X162223116Y-120096047D01*
X161658694Y-119890410D01*
X161058542Y-119916421D01*
X160624884Y-120096047D01*
X160541545Y-120349940D01*
X159997402Y-120349940D01*
X159779346Y-120131884D01*
X159684000Y-120092390D01*
X159684000Y-119120847D01*
X159698888Y-119046000D01*
X159684000Y-118971153D01*
X159684000Y-118971148D01*
X159639904Y-118749463D01*
X159471929Y-118498071D01*
X159408473Y-118455671D01*
X158578331Y-117625530D01*
X158535929Y-117562071D01*
X158284537Y-117394096D01*
X158062852Y-117350000D01*
X158062847Y-117350000D01*
X157988000Y-117335112D01*
X157913153Y-117350000D01*
X156778802Y-117350000D01*
X156503350Y-117074549D01*
X156772625Y-116894625D01*
X156972000Y-116596239D01*
X157171375Y-116894625D01*
X157662582Y-117222839D01*
X158095744Y-117309000D01*
X158388256Y-117309000D01*
X158821418Y-117222839D01*
X159312625Y-116894625D01*
X159512000Y-116596239D01*
X159711375Y-116894625D01*
X160202582Y-117222839D01*
X160635744Y-117309000D01*
X160928256Y-117309000D01*
X161361418Y-117222839D01*
X161852625Y-116894625D01*
X162052000Y-116596239D01*
X162251375Y-116894625D01*
X162562000Y-117102178D01*
X162562001Y-120554472D01*
X162486060Y-120529545D01*
X161603605Y-121412000D01*
X162486060Y-122294455D01*
X162562001Y-122269528D01*
X162562001Y-123129197D01*
X161991199Y-123700000D01*
X118946846Y-123700000D01*
X118871999Y-123685112D01*
X118797152Y-123700000D01*
X118797148Y-123700000D01*
X118575463Y-123744096D01*
X118575461Y-123744097D01*
X118575462Y-123744097D01*
X118387526Y-123869671D01*
X118387524Y-123869673D01*
X118324071Y-123912071D01*
X118281673Y-123975524D01*
X116863530Y-125393669D01*
X116800071Y-125436071D01*
X116632096Y-125687464D01*
X116588000Y-125909149D01*
X116588000Y-125909153D01*
X116573112Y-125984000D01*
X116588000Y-126058847D01*
X116588000Y-127255560D01*
X116473000Y-127255560D01*
X116225235Y-127304843D01*
X116015191Y-127445191D01*
X115874843Y-127655235D01*
X115825560Y-127903000D01*
X112013767Y-127903000D01*
X111756026Y-127645259D01*
X110934569Y-127305000D01*
X110045431Y-127305000D01*
X109223974Y-127645259D01*
X108595259Y-128273974D01*
X108255000Y-129095431D01*
X107390000Y-129095431D01*
X107390000Y-116473000D01*
X110705560Y-116473000D01*
X110705560Y-118223000D01*
X110754843Y-118470765D01*
X110895191Y-118680809D01*
X111105235Y-118821157D01*
X111353000Y-118870440D01*
X113103000Y-118870440D01*
X113350765Y-118821157D01*
X113560809Y-118680809D01*
X113691475Y-118485255D01*
X113730914Y-118524694D01*
X113845546Y-118410062D01*
X113928884Y-118663953D01*
X114493306Y-118869590D01*
X115093458Y-118843579D01*
X115527116Y-118663953D01*
X115610455Y-118410060D01*
X114728000Y-117527605D01*
X114713858Y-117541748D01*
X114534253Y-117362143D01*
X114548395Y-117348000D01*
X114907605Y-117348000D01*
X115790060Y-118230455D01*
X116043953Y-118147116D01*
X116249590Y-117582694D01*
X116223579Y-116982542D01*
X116043953Y-116548884D01*
X115812772Y-116473000D01*
X120905560Y-116473000D01*
X120905560Y-118223000D01*
X120954843Y-118470765D01*
X121095191Y-118680809D01*
X121305235Y-118821157D01*
X121553000Y-118870440D01*
X123303000Y-118870440D01*
X123550765Y-118821157D01*
X123760809Y-118680809D01*
X123891475Y-118485255D01*
X123930914Y-118524694D01*
X124045546Y-118410062D01*
X124128884Y-118663953D01*
X124693306Y-118869590D01*
X125293458Y-118843579D01*
X125727116Y-118663953D01*
X125810455Y-118410060D01*
X124928000Y-117527605D01*
X124913858Y-117541748D01*
X124734253Y-117362143D01*
X124748395Y-117348000D01*
X125107605Y-117348000D01*
X125990060Y-118230455D01*
X126243953Y-118147116D01*
X126449590Y-117582694D01*
X126423579Y-116982542D01*
X126243953Y-116548884D01*
X126012772Y-116473000D01*
X131065560Y-116473000D01*
X131065560Y-118223000D01*
X131114843Y-118470765D01*
X131255191Y-118680809D01*
X131465235Y-118821157D01*
X131713000Y-118870440D01*
X133463000Y-118870440D01*
X133710765Y-118821157D01*
X133920809Y-118680809D01*
X134051475Y-118485255D01*
X134090914Y-118524694D01*
X134205546Y-118410062D01*
X134288884Y-118663953D01*
X134853306Y-118869590D01*
X135453458Y-118843579D01*
X135887116Y-118663953D01*
X135970455Y-118410060D01*
X135088000Y-117527605D01*
X135073858Y-117541748D01*
X134894253Y-117362143D01*
X134908395Y-117348000D01*
X135267605Y-117348000D01*
X136150060Y-118230455D01*
X136403953Y-118147116D01*
X136609590Y-117582694D01*
X136583579Y-116982542D01*
X136403953Y-116548884D01*
X136172772Y-116473000D01*
X141225560Y-116473000D01*
X141225560Y-118223000D01*
X141274843Y-118470765D01*
X141415191Y-118680809D01*
X141625235Y-118821157D01*
X141873000Y-118870440D01*
X143623000Y-118870440D01*
X143870765Y-118821157D01*
X144080809Y-118680809D01*
X144211475Y-118485255D01*
X144250914Y-118524694D01*
X144365546Y-118410062D01*
X144448884Y-118663953D01*
X145013306Y-118869590D01*
X145613458Y-118843579D01*
X146047116Y-118663953D01*
X146130455Y-118410060D01*
X145248000Y-117527605D01*
X145233858Y-117541748D01*
X145054253Y-117362143D01*
X145068395Y-117348000D01*
X145427605Y-117348000D01*
X146310060Y-118230455D01*
X146563953Y-118147116D01*
X146769590Y-117582694D01*
X146743579Y-116982542D01*
X146563953Y-116548884D01*
X146310060Y-116465545D01*
X145427605Y-117348000D01*
X145068395Y-117348000D01*
X145054253Y-117333858D01*
X145233858Y-117154253D01*
X145248000Y-117168395D01*
X146130455Y-116285940D01*
X146047116Y-116032047D01*
X145482694Y-115826410D01*
X144882542Y-115852421D01*
X144448884Y-116032047D01*
X144365546Y-116285938D01*
X144250914Y-116171306D01*
X144211475Y-116210745D01*
X144080809Y-116015191D01*
X143870765Y-115874843D01*
X143623000Y-115825560D01*
X141873000Y-115825560D01*
X141625235Y-115874843D01*
X141415191Y-116015191D01*
X141274843Y-116225235D01*
X141225560Y-116473000D01*
X136172772Y-116473000D01*
X136150060Y-116465545D01*
X135267605Y-117348000D01*
X134908395Y-117348000D01*
X134894253Y-117333858D01*
X135073858Y-117154253D01*
X135088000Y-117168395D01*
X135970455Y-116285940D01*
X135887116Y-116032047D01*
X135322694Y-115826410D01*
X134722542Y-115852421D01*
X134288884Y-116032047D01*
X134205546Y-116285938D01*
X134090914Y-116171306D01*
X134051475Y-116210745D01*
X133920809Y-116015191D01*
X133710765Y-115874843D01*
X133463000Y-115825560D01*
X131713000Y-115825560D01*
X131465235Y-115874843D01*
X131255191Y-116015191D01*
X131114843Y-116225235D01*
X131065560Y-116473000D01*
X126012772Y-116473000D01*
X125990060Y-116465545D01*
X125107605Y-117348000D01*
X124748395Y-117348000D01*
X124734253Y-117333858D01*
X124913858Y-117154253D01*
X124928000Y-117168395D01*
X125810455Y-116285940D01*
X125727116Y-116032047D01*
X125162694Y-115826410D01*
X124562542Y-115852421D01*
X124128884Y-116032047D01*
X124045546Y-116285938D01*
X123930914Y-116171306D01*
X123891475Y-116210745D01*
X123760809Y-116015191D01*
X123550765Y-115874843D01*
X123303000Y-115825560D01*
X121553000Y-115825560D01*
X121305235Y-115874843D01*
X121095191Y-116015191D01*
X120954843Y-116225235D01*
X120905560Y-116473000D01*
X115812772Y-116473000D01*
X115790060Y-116465545D01*
X114907605Y-117348000D01*
X114548395Y-117348000D01*
X114534253Y-117333858D01*
X114713858Y-117154253D01*
X114728000Y-117168395D01*
X115610455Y-116285940D01*
X115527116Y-116032047D01*
X114962694Y-115826410D01*
X114362542Y-115852421D01*
X113928884Y-116032047D01*
X113845546Y-116285938D01*
X113730914Y-116171306D01*
X113691475Y-116210745D01*
X113560809Y-116015191D01*
X113350765Y-115874843D01*
X113103000Y-115825560D01*
X111353000Y-115825560D01*
X111105235Y-115874843D01*
X110895191Y-116015191D01*
X110754843Y-116225235D01*
X110705560Y-116473000D01*
X107390000Y-116473000D01*
X107390000Y-106313000D01*
X110745560Y-106313000D01*
X110745560Y-108063000D01*
X110794843Y-108310765D01*
X110935191Y-108520809D01*
X111145235Y-108661157D01*
X111393000Y-108710440D01*
X113143000Y-108710440D01*
X113390765Y-108661157D01*
X113600809Y-108520809D01*
X113731475Y-108325255D01*
X113770914Y-108364694D01*
X113885546Y-108250062D01*
X113968884Y-108503953D01*
X114533306Y-108709590D01*
X115133458Y-108683579D01*
X115567116Y-108503953D01*
X115650455Y-108250060D01*
X114768000Y-107367605D01*
X114753858Y-107381748D01*
X114574253Y-107202143D01*
X114588395Y-107188000D01*
X114947605Y-107188000D01*
X115830060Y-108070455D01*
X116083953Y-107987116D01*
X116289590Y-107422694D01*
X116263579Y-106822542D01*
X116083953Y-106388884D01*
X115852772Y-106313000D01*
X120905560Y-106313000D01*
X120905560Y-108063000D01*
X120954843Y-108310765D01*
X121095191Y-108520809D01*
X121305235Y-108661157D01*
X121553000Y-108710440D01*
X123303000Y-108710440D01*
X123550765Y-108661157D01*
X123760809Y-108520809D01*
X123891475Y-108325255D01*
X123930914Y-108364694D01*
X124045546Y-108250062D01*
X124128884Y-108503953D01*
X124693306Y-108709590D01*
X125293458Y-108683579D01*
X125727116Y-108503953D01*
X125810455Y-108250060D01*
X124928000Y-107367605D01*
X124913858Y-107381748D01*
X124734253Y-107202143D01*
X124748395Y-107188000D01*
X125107605Y-107188000D01*
X125990060Y-108070455D01*
X126243953Y-107987116D01*
X126449590Y-107422694D01*
X126423579Y-106822542D01*
X126243953Y-106388884D01*
X126012772Y-106313000D01*
X131065560Y-106313000D01*
X131065560Y-108063000D01*
X131114843Y-108310765D01*
X131255191Y-108520809D01*
X131465235Y-108661157D01*
X131713000Y-108710440D01*
X133463000Y-108710440D01*
X133710765Y-108661157D01*
X133920809Y-108520809D01*
X134051475Y-108325255D01*
X134090914Y-108364694D01*
X134205546Y-108250062D01*
X134288884Y-108503953D01*
X134853306Y-108709590D01*
X135453458Y-108683579D01*
X135887116Y-108503953D01*
X135970455Y-108250060D01*
X135088000Y-107367605D01*
X135073858Y-107381748D01*
X134894253Y-107202143D01*
X134908395Y-107188000D01*
X135267605Y-107188000D01*
X136150060Y-108070455D01*
X136403953Y-107987116D01*
X136609590Y-107422694D01*
X136583579Y-106822542D01*
X136403953Y-106388884D01*
X136172772Y-106313000D01*
X141225560Y-106313000D01*
X141225560Y-108063000D01*
X141274843Y-108310765D01*
X141415191Y-108520809D01*
X141625235Y-108661157D01*
X141873000Y-108710440D01*
X143623000Y-108710440D01*
X143870765Y-108661157D01*
X144080809Y-108520809D01*
X144211475Y-108325255D01*
X144250914Y-108364694D01*
X144365546Y-108250062D01*
X144448884Y-108503953D01*
X145013306Y-108709590D01*
X145613458Y-108683579D01*
X146047116Y-108503953D01*
X146130455Y-108250060D01*
X145248000Y-107367605D01*
X145233858Y-107381748D01*
X145054253Y-107202143D01*
X145068395Y-107188000D01*
X145427605Y-107188000D01*
X146310060Y-108070455D01*
X146563953Y-107987116D01*
X146769590Y-107422694D01*
X146743579Y-106822542D01*
X146563953Y-106388884D01*
X146310060Y-106305545D01*
X145427605Y-107188000D01*
X145068395Y-107188000D01*
X145054253Y-107173858D01*
X145233858Y-106994253D01*
X145248000Y-107008395D01*
X146130455Y-106125940D01*
X146047116Y-105872047D01*
X145482694Y-105666410D01*
X144882542Y-105692421D01*
X144448884Y-105872047D01*
X144365546Y-106125938D01*
X144250914Y-106011306D01*
X144211475Y-106050745D01*
X144080809Y-105855191D01*
X143870765Y-105714843D01*
X143623000Y-105665560D01*
X141873000Y-105665560D01*
X141625235Y-105714843D01*
X141415191Y-105855191D01*
X141274843Y-106065235D01*
X141225560Y-106313000D01*
X136172772Y-106313000D01*
X136150060Y-106305545D01*
X135267605Y-107188000D01*
X134908395Y-107188000D01*
X134894253Y-107173858D01*
X135073858Y-106994253D01*
X135088000Y-107008395D01*
X135970455Y-106125940D01*
X135887116Y-105872047D01*
X135322694Y-105666410D01*
X134722542Y-105692421D01*
X134288884Y-105872047D01*
X134205546Y-106125938D01*
X134090914Y-106011306D01*
X134051475Y-106050745D01*
X133920809Y-105855191D01*
X133710765Y-105714843D01*
X133463000Y-105665560D01*
X131713000Y-105665560D01*
X131465235Y-105714843D01*
X131255191Y-105855191D01*
X131114843Y-106065235D01*
X131065560Y-106313000D01*
X126012772Y-106313000D01*
X125990060Y-106305545D01*
X125107605Y-107188000D01*
X124748395Y-107188000D01*
X124734253Y-107173858D01*
X124913858Y-106994253D01*
X124928000Y-107008395D01*
X125810455Y-106125940D01*
X125727116Y-105872047D01*
X125162694Y-105666410D01*
X124562542Y-105692421D01*
X124128884Y-105872047D01*
X124045546Y-106125938D01*
X123930914Y-106011306D01*
X123891475Y-106050745D01*
X123760809Y-105855191D01*
X123550765Y-105714843D01*
X123303000Y-105665560D01*
X121553000Y-105665560D01*
X121305235Y-105714843D01*
X121095191Y-105855191D01*
X120954843Y-106065235D01*
X120905560Y-106313000D01*
X115852772Y-106313000D01*
X115830060Y-106305545D01*
X114947605Y-107188000D01*
X114588395Y-107188000D01*
X114574253Y-107173858D01*
X114753858Y-106994253D01*
X114768000Y-107008395D01*
X115650455Y-106125940D01*
X115567116Y-105872047D01*
X115002694Y-105666410D01*
X114402542Y-105692421D01*
X113968884Y-105872047D01*
X113885546Y-106125938D01*
X113770914Y-106011306D01*
X113731475Y-106050745D01*
X113600809Y-105855191D01*
X113390765Y-105714843D01*
X113143000Y-105665560D01*
X111393000Y-105665560D01*
X111145235Y-105714843D01*
X110935191Y-105855191D01*
X110794843Y-106065235D01*
X110745560Y-106313000D01*
X107390000Y-106313000D01*
X107390000Y-93535431D01*
X108255000Y-93535431D01*
X108255000Y-94424569D01*
X108595259Y-95246026D01*
X109223974Y-95874741D01*
X110045431Y-96215000D01*
X110934569Y-96215000D01*
X111756026Y-95874741D01*
X112384741Y-95246026D01*
X112725000Y-94424569D01*
X112725000Y-93535431D01*
X112384741Y-92713974D01*
X111756026Y-92085259D01*
X110934569Y-91745000D01*
X110045431Y-91745000D01*
X109223974Y-92085259D01*
X108595259Y-92713974D01*
X108255000Y-93535431D01*
X107390000Y-93535431D01*
X107390000Y-90880000D01*
X136122137Y-90880000D01*
X136104071Y-90892071D01*
X136104071Y-90892071D01*
G37*
X136104071Y-90892071D02*
X136061671Y-90955527D01*
X135405530Y-91611669D01*
X135342071Y-91654071D01*
X135174096Y-91905464D01*
X135130000Y-92127149D01*
X135130000Y-92127153D01*
X135115112Y-92202000D01*
X135130000Y-92276847D01*
X135130001Y-93727560D01*
X135015000Y-93727560D01*
X134767235Y-93776843D01*
X134557191Y-93917191D01*
X134416843Y-94127235D01*
X134367560Y-94375000D01*
X134367560Y-96125000D01*
X134416843Y-96372765D01*
X134557191Y-96582809D01*
X134767235Y-96723157D01*
X135015000Y-96772440D01*
X136765000Y-96772440D01*
X137012765Y-96723157D01*
X137222809Y-96582809D01*
X137363157Y-96372765D01*
X137365504Y-96360966D01*
X137534654Y-96530116D01*
X138089642Y-96760000D01*
X138690358Y-96760000D01*
X139245346Y-96530116D01*
X139640000Y-96135462D01*
X140034654Y-96530116D01*
X140108496Y-96560702D01*
X139893199Y-96776000D01*
X127013367Y-96776000D01*
X126636414Y-96399048D01*
X126723402Y-96312060D01*
X127267545Y-96312060D01*
X127350884Y-96565953D01*
X127915306Y-96771590D01*
X128515458Y-96745579D01*
X128949116Y-96565953D01*
X129032455Y-96312060D01*
X128150000Y-95429605D01*
X127267545Y-96312060D01*
X126723402Y-96312060D01*
X126930116Y-96105346D01*
X126939121Y-96083606D01*
X127087940Y-96132455D01*
X127970395Y-95250000D01*
X128329605Y-95250000D01*
X129212060Y-96132455D01*
X129465953Y-96049116D01*
X129671590Y-95484694D01*
X129645579Y-94884542D01*
X129465953Y-94450884D01*
X129212060Y-94367545D01*
X128329605Y-95250000D01*
X127970395Y-95250000D01*
X127087940Y-94367545D01*
X126939121Y-94416394D01*
X126930116Y-94394654D01*
X126723402Y-94187940D01*
X127267545Y-94187940D01*
X128150000Y-95070395D01*
X129032455Y-94187940D01*
X128949116Y-93934047D01*
X128384694Y-93728410D01*
X127784542Y-93754421D01*
X127350884Y-93934047D01*
X127267545Y-94187940D01*
X126723402Y-94187940D01*
X126505346Y-93969884D01*
X125950358Y-93740000D01*
X125349642Y-93740000D01*
X124794654Y-93969884D01*
X124400000Y-94364538D01*
X124005346Y-93969884D01*
X123450358Y-93740000D01*
X122849642Y-93740000D01*
X122294654Y-93969884D01*
X122125504Y-94139034D01*
X122123157Y-94127235D01*
X121982809Y-93917191D01*
X121772765Y-93776843D01*
X121525000Y-93727560D01*
X119775000Y-93727560D01*
X119527235Y-93776843D01*
X119317191Y-93917191D01*
X119176843Y-94127235D01*
X119127560Y-94375000D01*
X119127560Y-96125000D01*
X119176843Y-96372765D01*
X119317191Y-96582809D01*
X119527235Y-96723157D01*
X119775000Y-96772440D01*
X119890000Y-96772440D01*
X119890000Y-97207153D01*
X119875112Y-97282000D01*
X119890000Y-97356847D01*
X119890000Y-97356851D01*
X119934096Y-97578536D01*
X120102071Y-97829929D01*
X120165530Y-97872331D01*
X122345670Y-100052472D01*
X122388071Y-100115929D01*
X122639463Y-100283904D01*
X122861148Y-100328000D01*
X122861152Y-100328000D01*
X122935999Y-100342888D01*
X123010846Y-100328000D01*
X146243199Y-100328000D01*
X149269671Y-103354473D01*
X149312071Y-103417929D01*
X149563463Y-103585904D01*
X149785148Y-103630000D01*
X149785152Y-103630000D01*
X149859999Y-103644888D01*
X149934846Y-103630000D01*
X170105153Y-103630000D01*
X170180000Y-103644888D01*
X170254847Y-103630000D01*
X170254852Y-103630000D01*
X170476537Y-103585904D01*
X170727929Y-103417929D01*
X170770331Y-103354470D01*
X171426473Y-102698329D01*
X171489929Y-102655929D01*
X171545032Y-102573462D01*
X171657904Y-102404538D01*
X171667480Y-102356395D01*
X171702000Y-102182852D01*
X171702000Y-102182848D01*
X171716888Y-102108000D01*
X171702000Y-102033152D01*
X171702000Y-101862178D01*
X172012625Y-101654625D01*
X172225843Y-101335522D01*
X172286817Y-101465358D01*
X172715076Y-101855645D01*
X173125110Y-102025476D01*
X173355000Y-101904155D01*
X173355000Y-100711000D01*
X173609000Y-100711000D01*
X173609000Y-101904155D01*
X173838890Y-102025476D01*
X174248924Y-101855645D01*
X174677183Y-101465358D01*
X174752000Y-101306046D01*
X174826817Y-101465358D01*
X175255076Y-101855645D01*
X175665110Y-102025476D01*
X175895000Y-101904155D01*
X175895000Y-100711000D01*
X173609000Y-100711000D01*
X173355000Y-100711000D01*
X173335000Y-100711000D01*
X173335000Y-100457000D01*
X173355000Y-100457000D01*
X173355000Y-99263845D01*
X173609000Y-99263845D01*
X173609000Y-100457000D01*
X175895000Y-100457000D01*
X175895000Y-99263845D01*
X175665110Y-99142524D01*
X175255076Y-99312355D01*
X174826817Y-99702642D01*
X174752000Y-99861954D01*
X174677183Y-99702642D01*
X174248924Y-99312355D01*
X173838890Y-99142524D01*
X173609000Y-99263845D01*
X173355000Y-99263845D01*
X173125110Y-99142524D01*
X172715076Y-99312355D01*
X172286817Y-99702642D01*
X172225843Y-99832478D01*
X172012625Y-99513375D01*
X171521418Y-99185161D01*
X171088256Y-99099000D01*
X170795744Y-99099000D01*
X170362582Y-99185161D01*
X169871375Y-99513375D01*
X169672000Y-99811761D01*
X169472625Y-99513375D01*
X169176577Y-99315562D01*
X169176888Y-99314000D01*
X169162000Y-99239152D01*
X169162000Y-99239148D01*
X169117904Y-99017463D01*
X169117904Y-99017462D01*
X168992329Y-98829527D01*
X168949929Y-98766071D01*
X168886473Y-98723671D01*
X168230331Y-98067530D01*
X168187929Y-98004071D01*
X167936537Y-97836096D01*
X167714852Y-97792000D01*
X167714847Y-97792000D01*
X167640000Y-97777112D01*
X167565153Y-97792000D01*
X141026801Y-97792000D01*
X141374473Y-97444329D01*
X141437929Y-97401929D01*
X141531210Y-97262325D01*
X141605904Y-97150538D01*
X141625598Y-97051527D01*
X141650000Y-96928852D01*
X141650000Y-96928848D01*
X141664888Y-96854000D01*
X141650000Y-96779152D01*
X141650000Y-96569610D01*
X141745346Y-96530116D01*
X141963402Y-96312060D01*
X142507545Y-96312060D01*
X142590884Y-96565953D01*
X143155306Y-96771590D01*
X143755458Y-96745579D01*
X144189116Y-96565953D01*
X144272455Y-96312060D01*
X143390000Y-95429605D01*
X142507545Y-96312060D01*
X141963402Y-96312060D01*
X142170116Y-96105346D01*
X142179121Y-96083606D01*
X142327940Y-96132455D01*
X143210395Y-95250000D01*
X143569605Y-95250000D01*
X144452060Y-96132455D01*
X144705953Y-96049116D01*
X144911590Y-95484694D01*
X144885579Y-94884542D01*
X144705953Y-94450884D01*
X144452060Y-94367545D01*
X143569605Y-95250000D01*
X143210395Y-95250000D01*
X142327940Y-94367545D01*
X142179121Y-94416394D01*
X142170116Y-94394654D01*
X141963402Y-94187940D01*
X142507545Y-94187940D01*
X143390000Y-95070395D01*
X144272455Y-94187940D01*
X144189116Y-93934047D01*
X143624694Y-93728410D01*
X143024542Y-93754421D01*
X142590884Y-93934047D01*
X142507545Y-94187940D01*
X141963402Y-94187940D01*
X141745346Y-93969884D01*
X141190358Y-93740000D01*
X140589642Y-93740000D01*
X140034654Y-93969884D01*
X139640000Y-94364538D01*
X139253132Y-93977670D01*
X140014802Y-93216000D01*
X144465199Y-93216000D01*
X147237670Y-95988472D01*
X147280071Y-96051929D01*
X147531463Y-96219904D01*
X147753148Y-96264000D01*
X147753153Y-96264000D01*
X147828000Y-96278888D01*
X147902847Y-96264000D01*
X172405199Y-96264000D01*
X174923670Y-98782472D01*
X174966071Y-98845929D01*
X175029527Y-98888329D01*
X175217462Y-99013904D01*
X175265605Y-99023480D01*
X175439148Y-99058000D01*
X175439152Y-99058000D01*
X175514000Y-99072888D01*
X175588848Y-99058000D01*
X177163280Y-99058000D01*
X177567673Y-99462394D01*
X177491375Y-99513375D01*
X177278157Y-99832478D01*
X177217183Y-99702642D01*
X176788924Y-99312355D01*
X176378890Y-99142524D01*
X176149000Y-99263845D01*
X176149000Y-100457000D01*
X176169000Y-100457000D01*
X176169000Y-100711000D01*
X176149000Y-100711000D01*
X176149000Y-101904155D01*
X176378890Y-102025476D01*
X176788924Y-101855645D01*
X177217183Y-101465358D01*
X177278157Y-101335522D01*
X177491375Y-101654625D01*
X177982582Y-101982839D01*
X178415744Y-102069000D01*
X178708256Y-102069000D01*
X179141418Y-101982839D01*
X179632625Y-101654625D01*
X179644816Y-101636381D01*
X179653843Y-101681765D01*
X179794191Y-101891809D01*
X180004235Y-102032157D01*
X180252000Y-102081440D01*
X181952000Y-102081440D01*
X182170000Y-102038078D01*
X182170001Y-114369923D01*
X181952000Y-114326560D01*
X180252000Y-114326560D01*
X180004235Y-114375843D01*
X179794191Y-114516191D01*
X179653843Y-114726235D01*
X179633261Y-114829708D01*
X179328924Y-114552355D01*
X178918890Y-114382524D01*
X178689000Y-114503845D01*
X178689000Y-115697000D01*
X178709000Y-115697000D01*
X178709000Y-115951000D01*
X178689000Y-115951000D01*
X178689000Y-117144155D01*
X178918890Y-117265476D01*
X179328924Y-117095645D01*
X179633261Y-116818292D01*
X179653843Y-116921765D01*
X179794191Y-117131809D01*
X180004235Y-117272157D01*
X180252000Y-117321440D01*
X181952000Y-117321440D01*
X182170001Y-117278077D01*
X182170001Y-132640000D01*
X107390000Y-132640000D01*
X107390000Y-129095431D01*
X108255000Y-129095431D01*
X108255000Y-129984569D01*
X108595259Y-130806026D01*
X109223974Y-131434741D01*
X110045431Y-131775000D01*
X110934569Y-131775000D01*
X111756026Y-131434741D01*
X112384741Y-130806026D01*
X112725000Y-129984569D01*
X112725000Y-129095431D01*
X112384741Y-128273974D01*
X112013767Y-127903000D01*
X115825560Y-127903000D01*
X115825560Y-129653000D01*
X115874843Y-129900765D01*
X116015191Y-130110809D01*
X116225235Y-130251157D01*
X116473000Y-130300440D01*
X118223000Y-130300440D01*
X118470765Y-130251157D01*
X118680809Y-130110809D01*
X118811475Y-129915255D01*
X118850914Y-129954694D01*
X118965546Y-129840062D01*
X119048884Y-130093953D01*
X119613306Y-130299590D01*
X120213458Y-130273579D01*
X120647116Y-130093953D01*
X120730455Y-129840060D01*
X119848000Y-128957605D01*
X119833858Y-128971748D01*
X119654253Y-128792143D01*
X119668395Y-128778000D01*
X120027605Y-128778000D01*
X120910060Y-129660455D01*
X121163953Y-129577116D01*
X121369590Y-129012694D01*
X121343579Y-128412542D01*
X121163953Y-127978884D01*
X120910060Y-127895545D01*
X120027605Y-128778000D01*
X119668395Y-128778000D01*
X119654253Y-128763858D01*
X119833858Y-128584253D01*
X119848000Y-128598395D01*
X120730455Y-127715940D01*
X120647116Y-127462047D01*
X120082694Y-127256410D01*
X119482542Y-127282421D01*
X119048884Y-127462047D01*
X118965546Y-127715938D01*
X118850914Y-127601306D01*
X118811475Y-127640745D01*
X118680809Y-127445191D01*
X118470765Y-127304843D01*
X118223000Y-127255560D01*
X118108000Y-127255560D01*
X118108000Y-126298801D01*
X119186803Y-125220000D01*
X127959198Y-125220000D01*
X127023530Y-126155669D01*
X126960071Y-126198071D01*
X126792096Y-126449464D01*
X126748000Y-126671149D01*
X126748000Y-126671153D01*
X126733112Y-126746000D01*
X126748000Y-126820847D01*
X126748000Y-127255560D01*
X126633000Y-127255560D01*
X126385235Y-127304843D01*
X126175191Y-127445191D01*
X126034843Y-127655235D01*
X125985560Y-127903000D01*
X125985560Y-129653000D01*
X126034843Y-129900765D01*
X126175191Y-130110809D01*
X126385235Y-130251157D01*
X126633000Y-130300440D01*
X128383000Y-130300440D01*
X128630765Y-130251157D01*
X128840809Y-130110809D01*
X128971475Y-129915255D01*
X129010914Y-129954694D01*
X129125546Y-129840062D01*
X129208884Y-130093953D01*
X129773306Y-130299590D01*
X130373458Y-130273579D01*
X130807116Y-130093953D01*
X130890455Y-129840060D01*
X130008000Y-128957605D01*
X129993858Y-128971748D01*
X129814253Y-128792143D01*
X129828395Y-128778000D01*
X130187605Y-128778000D01*
X131070060Y-129660455D01*
X131323953Y-129577116D01*
X131529590Y-129012694D01*
X131503579Y-128412542D01*
X131323953Y-127978884D01*
X131070060Y-127895545D01*
X130187605Y-128778000D01*
X129828395Y-128778000D01*
X129814253Y-128763858D01*
X129993858Y-128584253D01*
X130008000Y-128598395D01*
X130890455Y-127715940D01*
X130807116Y-127462047D01*
X130242694Y-127256410D01*
X129642542Y-127282421D01*
X129208884Y-127462047D01*
X129125546Y-127715938D01*
X129010914Y-127601306D01*
X128971475Y-127640745D01*
X128840809Y-127445191D01*
X128630765Y-127304843D01*
X128383000Y-127255560D01*
X128268000Y-127255560D01*
X128268000Y-127060801D01*
X129092802Y-126236000D01*
X137357198Y-126236000D01*
X137183527Y-126409672D01*
X137120072Y-126452071D01*
X137077672Y-126515527D01*
X137077671Y-126515528D01*
X136952097Y-126703463D01*
X136893112Y-127000000D01*
X136908001Y-127074852D01*
X136908001Y-127255560D01*
X136793000Y-127255560D01*
X136545235Y-127304843D01*
X136335191Y-127445191D01*
X136194843Y-127655235D01*
X136145560Y-127903000D01*
X136145560Y-129653000D01*
X136194843Y-129900765D01*
X136335191Y-130110809D01*
X136545235Y-130251157D01*
X136793000Y-130300440D01*
X138543000Y-130300440D01*
X138790765Y-130251157D01*
X139000809Y-130110809D01*
X139131475Y-129915255D01*
X139170914Y-129954694D01*
X139285546Y-129840062D01*
X139368884Y-130093953D01*
X139933306Y-130299590D01*
X140533458Y-130273579D01*
X140967116Y-130093953D01*
X141050455Y-129840060D01*
X140168000Y-128957605D01*
X140153858Y-128971748D01*
X139974253Y-128792143D01*
X139988395Y-128778000D01*
X140347605Y-128778000D01*
X141230060Y-129660455D01*
X141483953Y-129577116D01*
X141689590Y-129012694D01*
X141663579Y-128412542D01*
X141483953Y-127978884D01*
X141230060Y-127895545D01*
X140347605Y-128778000D01*
X139988395Y-128778000D01*
X139974253Y-128763858D01*
X140153858Y-128584253D01*
X140168000Y-128598395D01*
X141050455Y-127715940D01*
X140967116Y-127462047D01*
X140402694Y-127256410D01*
X139802542Y-127282421D01*
X139368884Y-127462047D01*
X139285546Y-127715938D01*
X139170914Y-127601306D01*
X139131475Y-127640745D01*
X139000809Y-127445191D01*
X138790765Y-127304843D01*
X138543000Y-127255560D01*
X138487242Y-127255560D01*
X138490802Y-127252000D01*
X147181896Y-127252000D01*
X147179518Y-127255560D01*
X146953000Y-127255560D01*
X146705235Y-127304843D01*
X146495191Y-127445191D01*
X146354843Y-127655235D01*
X146305560Y-127903000D01*
X146305560Y-129653000D01*
X146354843Y-129900765D01*
X146495191Y-130110809D01*
X146705235Y-130251157D01*
X146953000Y-130300440D01*
X148703000Y-130300440D01*
X148950765Y-130251157D01*
X149160809Y-130110809D01*
X149291475Y-129915255D01*
X149330914Y-129954694D01*
X149445546Y-129840062D01*
X149528884Y-130093953D01*
X150093306Y-130299590D01*
X150693458Y-130273579D01*
X151127116Y-130093953D01*
X151210455Y-129840060D01*
X150328000Y-128957605D01*
X150313858Y-128971748D01*
X150134253Y-128792143D01*
X150148395Y-128778000D01*
X150134253Y-128763858D01*
X150313858Y-128584253D01*
X150328000Y-128598395D01*
X150342143Y-128584253D01*
X150521748Y-128763858D01*
X150507605Y-128778000D01*
X151390060Y-129660455D01*
X151643953Y-129577116D01*
X151819446Y-129095431D01*
X176835000Y-129095431D01*
X176835000Y-129984569D01*
X177175259Y-130806026D01*
X177803974Y-131434741D01*
X178625431Y-131775000D01*
X179514569Y-131775000D01*
X180336026Y-131434741D01*
X180964741Y-130806026D01*
X181305000Y-129984569D01*
X181305000Y-129095431D01*
X180964741Y-128273974D01*
X180336026Y-127645259D01*
X179514569Y-127305000D01*
X178625431Y-127305000D01*
X177803974Y-127645259D01*
X177175259Y-128273974D01*
X176835000Y-129095431D01*
X151819446Y-129095431D01*
X151849590Y-129012694D01*
X151823579Y-128412542D01*
X151658498Y-128014000D01*
X164517153Y-128014000D01*
X164592000Y-128028888D01*
X164666847Y-128014000D01*
X164666852Y-128014000D01*
X164888537Y-127969904D01*
X165139929Y-127801929D01*
X165182331Y-127738470D01*
X166854473Y-126066329D01*
X166917929Y-126023929D01*
X166971288Y-125944072D01*
X167085904Y-125772538D01*
X167102826Y-125687463D01*
X167130000Y-125550852D01*
X167130000Y-125550848D01*
X167144888Y-125476000D01*
X167130000Y-125401152D01*
X167130000Y-120202802D01*
X167192802Y-120140000D01*
X168044559Y-120140000D01*
X167944843Y-120289235D01*
X167895560Y-120537000D01*
X167895560Y-122287000D01*
X167944843Y-122534765D01*
X168085191Y-122744809D01*
X168295235Y-122885157D01*
X168543000Y-122934440D01*
X170293000Y-122934440D01*
X170540765Y-122885157D01*
X170750809Y-122744809D01*
X170881475Y-122549255D01*
X170920914Y-122588694D01*
X171035546Y-122474062D01*
X171118884Y-122727953D01*
X171683306Y-122933590D01*
X172283458Y-122907579D01*
X172717116Y-122727953D01*
X172800455Y-122474060D01*
X171918000Y-121591605D01*
X171903858Y-121605748D01*
X171724253Y-121426143D01*
X171738395Y-121412000D01*
X172097605Y-121412000D01*
X172980060Y-122294455D01*
X173233953Y-122211116D01*
X173439590Y-121646694D01*
X173413579Y-121046542D01*
X173233953Y-120612884D01*
X172980060Y-120529545D01*
X172097605Y-121412000D01*
X171738395Y-121412000D01*
X171724253Y-121397858D01*
X171903858Y-121218253D01*
X171918000Y-121232395D01*
X172800455Y-120349940D01*
X172717116Y-120096047D01*
X172152694Y-119890410D01*
X171552542Y-119916421D01*
X171118884Y-120096047D01*
X171035546Y-120349938D01*
X170920914Y-120235306D01*
X170881475Y-120274745D01*
X170750809Y-120079191D01*
X170540765Y-119938843D01*
X170293000Y-119889560D01*
X169991566Y-119889560D01*
X170008331Y-119864470D01*
X171426476Y-118446327D01*
X171489929Y-118403929D01*
X171532327Y-118340476D01*
X171532329Y-118340474D01*
X171657903Y-118152538D01*
X171657904Y-118152537D01*
X171702000Y-117930852D01*
X171702000Y-117930848D01*
X171716888Y-117856001D01*
X171702000Y-117781154D01*
X171702000Y-117102178D01*
X172012625Y-116894625D01*
X172212000Y-116596239D01*
X172411375Y-116894625D01*
X172902582Y-117222839D01*
X173335744Y-117309000D01*
X173628256Y-117309000D01*
X174061418Y-117222839D01*
X174552625Y-116894625D01*
X174752000Y-116596239D01*
X174951375Y-116894625D01*
X175442582Y-117222839D01*
X175875744Y-117309000D01*
X176168256Y-117309000D01*
X176601418Y-117222839D01*
X177092625Y-116894625D01*
X177305843Y-116575522D01*
X177366817Y-116705358D01*
X177795076Y-117095645D01*
X178205110Y-117265476D01*
X178435000Y-117144155D01*
X178435000Y-115951000D01*
X178415000Y-115951000D01*
X178415000Y-115697000D01*
X178435000Y-115697000D01*
X178435000Y-114503845D01*
X178205110Y-114382524D01*
X177795076Y-114552355D01*
X177366817Y-114942642D01*
X177305843Y-115072478D01*
X177092625Y-114753375D01*
X176601418Y-114425161D01*
X176168256Y-114339000D01*
X175875744Y-114339000D01*
X175442582Y-114425161D01*
X174951375Y-114753375D01*
X174752000Y-115051761D01*
X174552625Y-114753375D01*
X174061418Y-114425161D01*
X173628256Y-114339000D01*
X173335744Y-114339000D01*
X172902582Y-114425161D01*
X172411375Y-114753375D01*
X172212000Y-115051761D01*
X172012625Y-114753375D01*
X171521418Y-114425161D01*
X171088256Y-114339000D01*
X170795744Y-114339000D01*
X170362582Y-114425161D01*
X169871375Y-114753375D01*
X169672000Y-115051761D01*
X169472625Y-114753375D01*
X168981418Y-114425161D01*
X168548256Y-114339000D01*
X168255744Y-114339000D01*
X167822582Y-114425161D01*
X167331375Y-114753375D01*
X167132000Y-115051761D01*
X166932625Y-114753375D01*
X166441418Y-114425161D01*
X166008256Y-114339000D01*
X165715744Y-114339000D01*
X165282582Y-114425161D01*
X164791375Y-114753375D01*
X164592000Y-115051761D01*
X164392625Y-114753375D01*
X163901418Y-114425161D01*
X163468256Y-114339000D01*
X163175744Y-114339000D01*
X162742582Y-114425161D01*
X162251375Y-114753375D01*
X162052000Y-115051761D01*
X161852625Y-114753375D01*
X161361418Y-114425161D01*
X160928256Y-114339000D01*
X160635744Y-114339000D01*
X160202582Y-114425161D01*
X159711375Y-114753375D01*
X159512000Y-115051761D01*
X159312625Y-114753375D01*
X158821418Y-114425161D01*
X158388256Y-114339000D01*
X158095744Y-114339000D01*
X157662582Y-114425161D01*
X157171375Y-114753375D01*
X156972000Y-115051761D01*
X156772625Y-114753375D01*
X156281418Y-114425161D01*
X155848256Y-114339000D01*
X155555744Y-114339000D01*
X155122582Y-114425161D01*
X154631375Y-114753375D01*
X154432000Y-115051761D01*
X154232625Y-114753375D01*
X153741418Y-114425161D01*
X153308256Y-114339000D01*
X153015744Y-114339000D01*
X152582582Y-114425161D01*
X152091375Y-114753375D01*
X151763161Y-115244582D01*
X151647908Y-115824000D01*
X151763161Y-116403418D01*
X152091375Y-116894625D01*
X152582582Y-117222839D01*
X153015744Y-117309000D01*
X153308256Y-117309000D01*
X153741418Y-117222839D01*
X154232625Y-116894625D01*
X154432000Y-116596239D01*
X154631375Y-116894625D01*
X154942000Y-117102178D01*
X154942000Y-117273153D01*
X154927112Y-117348000D01*
X154942000Y-117422847D01*
X154942000Y-117422851D01*
X154986096Y-117644536D01*
X155154071Y-117895929D01*
X155217530Y-117938331D01*
X155873670Y-118594472D01*
X155916071Y-118657929D01*
X155979527Y-118700329D01*
X156167462Y-118825904D01*
X156215605Y-118835480D01*
X156389148Y-118870000D01*
X156389152Y-118870000D01*
X156464000Y-118884888D01*
X156538848Y-118870000D01*
X157673199Y-118870000D01*
X158164001Y-119360803D01*
X158164001Y-120092390D01*
X158068654Y-120131884D01*
X157674000Y-120526538D01*
X157279346Y-120131884D01*
X156724358Y-119902000D01*
X156123642Y-119902000D01*
X155568654Y-120131884D01*
X155399504Y-120301034D01*
X155397157Y-120289235D01*
X155256809Y-120079191D01*
X155046765Y-119938843D01*
X154799000Y-119889560D01*
X153049000Y-119889560D01*
X152801235Y-119938843D01*
X152591191Y-120079191D01*
X152450843Y-120289235D01*
X152401560Y-120537000D01*
X152401560Y-122287000D01*
X152450843Y-122534765D01*
X152591191Y-122744809D01*
X152801235Y-122885157D01*
X153049000Y-122934440D01*
X154799000Y-122934440D01*
X155046765Y-122885157D01*
X155256809Y-122744809D01*
X155397157Y-122534765D01*
X155399504Y-122522966D01*
X155568654Y-122692116D01*
X156123642Y-122922000D01*
X156724358Y-122922000D01*
X157279346Y-122692116D01*
X157674000Y-122297462D01*
X158068654Y-122692116D01*
X158623642Y-122922000D01*
X159224358Y-122922000D01*
X159779346Y-122692116D01*
X159997402Y-122474060D01*
X160541545Y-122474060D01*
X160624884Y-122727953D01*
X161189306Y-122933590D01*
X161789458Y-122907579D01*
X162223116Y-122727953D01*
X162306455Y-122474060D01*
X161424000Y-121591605D01*
X160541545Y-122474060D01*
X159997402Y-122474060D01*
X160204116Y-122267346D01*
X160213121Y-122245606D01*
X160361940Y-122294455D01*
X161244395Y-121412000D01*
X160361940Y-120529545D01*
X160213121Y-120578394D01*
X160204116Y-120556654D01*
X159997402Y-120349940D01*
X160541545Y-120349940D01*
X161424000Y-121232395D01*
X162306455Y-120349940D01*
X162223116Y-120096047D01*
X161658694Y-119890410D01*
X161058542Y-119916421D01*
X160624884Y-120096047D01*
X160541545Y-120349940D01*
X159997402Y-120349940D01*
X159779346Y-120131884D01*
X159684000Y-120092390D01*
X159684000Y-119120847D01*
X159698888Y-119046000D01*
X159684000Y-118971153D01*
X159684000Y-118971148D01*
X159639904Y-118749463D01*
X159471929Y-118498071D01*
X159408473Y-118455671D01*
X158578331Y-117625530D01*
X158535929Y-117562071D01*
X158284537Y-117394096D01*
X158062852Y-117350000D01*
X158062847Y-117350000D01*
X157988000Y-117335112D01*
X157913153Y-117350000D01*
X156778802Y-117350000D01*
X156503350Y-117074549D01*
X156772625Y-116894625D01*
X156972000Y-116596239D01*
X157171375Y-116894625D01*
X157662582Y-117222839D01*
X158095744Y-117309000D01*
X158388256Y-117309000D01*
X158821418Y-117222839D01*
X159312625Y-116894625D01*
X159512000Y-116596239D01*
X159711375Y-116894625D01*
X160202582Y-117222839D01*
X160635744Y-117309000D01*
X160928256Y-117309000D01*
X161361418Y-117222839D01*
X161852625Y-116894625D01*
X162052000Y-116596239D01*
X162251375Y-116894625D01*
X162562000Y-117102178D01*
X162562001Y-120554472D01*
X162486060Y-120529545D01*
X161603605Y-121412000D01*
X162486060Y-122294455D01*
X162562001Y-122269528D01*
X162562001Y-123129197D01*
X161991199Y-123700000D01*
X118946846Y-123700000D01*
X118871999Y-123685112D01*
X118797152Y-123700000D01*
X118797148Y-123700000D01*
X118575463Y-123744096D01*
X118575461Y-123744097D01*
X118575462Y-123744097D01*
X118387526Y-123869671D01*
X118387524Y-123869673D01*
X118324071Y-123912071D01*
X118281673Y-123975524D01*
X116863530Y-125393669D01*
X116800071Y-125436071D01*
X116632096Y-125687464D01*
X116588000Y-125909149D01*
X116588000Y-125909153D01*
X116573112Y-125984000D01*
X116588000Y-126058847D01*
X116588000Y-127255560D01*
X116473000Y-127255560D01*
X116225235Y-127304843D01*
X116015191Y-127445191D01*
X115874843Y-127655235D01*
X115825560Y-127903000D01*
X112013767Y-127903000D01*
X111756026Y-127645259D01*
X110934569Y-127305000D01*
X110045431Y-127305000D01*
X109223974Y-127645259D01*
X108595259Y-128273974D01*
X108255000Y-129095431D01*
X107390000Y-129095431D01*
X107390000Y-116473000D01*
X110705560Y-116473000D01*
X110705560Y-118223000D01*
X110754843Y-118470765D01*
X110895191Y-118680809D01*
X111105235Y-118821157D01*
X111353000Y-118870440D01*
X113103000Y-118870440D01*
X113350765Y-118821157D01*
X113560809Y-118680809D01*
X113691475Y-118485255D01*
X113730914Y-118524694D01*
X113845546Y-118410062D01*
X113928884Y-118663953D01*
X114493306Y-118869590D01*
X115093458Y-118843579D01*
X115527116Y-118663953D01*
X115610455Y-118410060D01*
X114728000Y-117527605D01*
X114713858Y-117541748D01*
X114534253Y-117362143D01*
X114548395Y-117348000D01*
X114907605Y-117348000D01*
X115790060Y-118230455D01*
X116043953Y-118147116D01*
X116249590Y-117582694D01*
X116223579Y-116982542D01*
X116043953Y-116548884D01*
X115812772Y-116473000D01*
X120905560Y-116473000D01*
X120905560Y-118223000D01*
X120954843Y-118470765D01*
X121095191Y-118680809D01*
X121305235Y-118821157D01*
X121553000Y-118870440D01*
X123303000Y-118870440D01*
X123550765Y-118821157D01*
X123760809Y-118680809D01*
X123891475Y-118485255D01*
X123930914Y-118524694D01*
X124045546Y-118410062D01*
X124128884Y-118663953D01*
X124693306Y-118869590D01*
X125293458Y-118843579D01*
X125727116Y-118663953D01*
X125810455Y-118410060D01*
X124928000Y-117527605D01*
X124913858Y-117541748D01*
X124734253Y-117362143D01*
X124748395Y-117348000D01*
X125107605Y-117348000D01*
X125990060Y-118230455D01*
X126243953Y-118147116D01*
X126449590Y-117582694D01*
X126423579Y-116982542D01*
X126243953Y-116548884D01*
X126012772Y-116473000D01*
X131065560Y-116473000D01*
X131065560Y-118223000D01*
X131114843Y-118470765D01*
X131255191Y-118680809D01*
X131465235Y-118821157D01*
X131713000Y-118870440D01*
X133463000Y-118870440D01*
X133710765Y-118821157D01*
X133920809Y-118680809D01*
X134051475Y-118485255D01*
X134090914Y-118524694D01*
X134205546Y-118410062D01*
X134288884Y-118663953D01*
X134853306Y-118869590D01*
X135453458Y-118843579D01*
X135887116Y-118663953D01*
X135970455Y-118410060D01*
X135088000Y-117527605D01*
X135073858Y-117541748D01*
X134894253Y-117362143D01*
X134908395Y-117348000D01*
X135267605Y-117348000D01*
X136150060Y-118230455D01*
X136403953Y-118147116D01*
X136609590Y-117582694D01*
X136583579Y-116982542D01*
X136403953Y-116548884D01*
X136172772Y-116473000D01*
X141225560Y-116473000D01*
X141225560Y-118223000D01*
X141274843Y-118470765D01*
X141415191Y-118680809D01*
X141625235Y-118821157D01*
X141873000Y-118870440D01*
X143623000Y-118870440D01*
X143870765Y-118821157D01*
X144080809Y-118680809D01*
X144211475Y-118485255D01*
X144250914Y-118524694D01*
X144365546Y-118410062D01*
X144448884Y-118663953D01*
X145013306Y-118869590D01*
X145613458Y-118843579D01*
X146047116Y-118663953D01*
X146130455Y-118410060D01*
X145248000Y-117527605D01*
X145233858Y-117541748D01*
X145054253Y-117362143D01*
X145068395Y-117348000D01*
X145427605Y-117348000D01*
X146310060Y-118230455D01*
X146563953Y-118147116D01*
X146769590Y-117582694D01*
X146743579Y-116982542D01*
X146563953Y-116548884D01*
X146310060Y-116465545D01*
X145427605Y-117348000D01*
X145068395Y-117348000D01*
X145054253Y-117333858D01*
X145233858Y-117154253D01*
X145248000Y-117168395D01*
X146130455Y-116285940D01*
X146047116Y-116032047D01*
X145482694Y-115826410D01*
X144882542Y-115852421D01*
X144448884Y-116032047D01*
X144365546Y-116285938D01*
X144250914Y-116171306D01*
X144211475Y-116210745D01*
X144080809Y-116015191D01*
X143870765Y-115874843D01*
X143623000Y-115825560D01*
X141873000Y-115825560D01*
X141625235Y-115874843D01*
X141415191Y-116015191D01*
X141274843Y-116225235D01*
X141225560Y-116473000D01*
X136172772Y-116473000D01*
X136150060Y-116465545D01*
X135267605Y-117348000D01*
X134908395Y-117348000D01*
X134894253Y-117333858D01*
X135073858Y-117154253D01*
X135088000Y-117168395D01*
X135970455Y-116285940D01*
X135887116Y-116032047D01*
X135322694Y-115826410D01*
X134722542Y-115852421D01*
X134288884Y-116032047D01*
X134205546Y-116285938D01*
X134090914Y-116171306D01*
X134051475Y-116210745D01*
X133920809Y-116015191D01*
X133710765Y-115874843D01*
X133463000Y-115825560D01*
X131713000Y-115825560D01*
X131465235Y-115874843D01*
X131255191Y-116015191D01*
X131114843Y-116225235D01*
X131065560Y-116473000D01*
X126012772Y-116473000D01*
X125990060Y-116465545D01*
X125107605Y-117348000D01*
X124748395Y-117348000D01*
X124734253Y-117333858D01*
X124913858Y-117154253D01*
X124928000Y-117168395D01*
X125810455Y-116285940D01*
X125727116Y-116032047D01*
X125162694Y-115826410D01*
X124562542Y-115852421D01*
X124128884Y-116032047D01*
X124045546Y-116285938D01*
X123930914Y-116171306D01*
X123891475Y-116210745D01*
X123760809Y-116015191D01*
X123550765Y-115874843D01*
X123303000Y-115825560D01*
X121553000Y-115825560D01*
X121305235Y-115874843D01*
X121095191Y-116015191D01*
X120954843Y-116225235D01*
X120905560Y-116473000D01*
X115812772Y-116473000D01*
X115790060Y-116465545D01*
X114907605Y-117348000D01*
X114548395Y-117348000D01*
X114534253Y-117333858D01*
X114713858Y-117154253D01*
X114728000Y-117168395D01*
X115610455Y-116285940D01*
X115527116Y-116032047D01*
X114962694Y-115826410D01*
X114362542Y-115852421D01*
X113928884Y-116032047D01*
X113845546Y-116285938D01*
X113730914Y-116171306D01*
X113691475Y-116210745D01*
X113560809Y-116015191D01*
X113350765Y-115874843D01*
X113103000Y-115825560D01*
X111353000Y-115825560D01*
X111105235Y-115874843D01*
X110895191Y-116015191D01*
X110754843Y-116225235D01*
X110705560Y-116473000D01*
X107390000Y-116473000D01*
X107390000Y-106313000D01*
X110745560Y-106313000D01*
X110745560Y-108063000D01*
X110794843Y-108310765D01*
X110935191Y-108520809D01*
X111145235Y-108661157D01*
X111393000Y-108710440D01*
X113143000Y-108710440D01*
X113390765Y-108661157D01*
X113600809Y-108520809D01*
X113731475Y-108325255D01*
X113770914Y-108364694D01*
X113885546Y-108250062D01*
X113968884Y-108503953D01*
X114533306Y-108709590D01*
X115133458Y-108683579D01*
X115567116Y-108503953D01*
X115650455Y-108250060D01*
X114768000Y-107367605D01*
X114753858Y-107381748D01*
X114574253Y-107202143D01*
X114588395Y-107188000D01*
X114947605Y-107188000D01*
X115830060Y-108070455D01*
X116083953Y-107987116D01*
X116289590Y-107422694D01*
X116263579Y-106822542D01*
X116083953Y-106388884D01*
X115852772Y-106313000D01*
X120905560Y-106313000D01*
X120905560Y-108063000D01*
X120954843Y-108310765D01*
X121095191Y-108520809D01*
X121305235Y-108661157D01*
X121553000Y-108710440D01*
X123303000Y-108710440D01*
X123550765Y-108661157D01*
X123760809Y-108520809D01*
X123891475Y-108325255D01*
X123930914Y-108364694D01*
X124045546Y-108250062D01*
X124128884Y-108503953D01*
X124693306Y-108709590D01*
X125293458Y-108683579D01*
X125727116Y-108503953D01*
X125810455Y-108250060D01*
X124928000Y-107367605D01*
X124913858Y-107381748D01*
X124734253Y-107202143D01*
X124748395Y-107188000D01*
X125107605Y-107188000D01*
X125990060Y-108070455D01*
X126243953Y-107987116D01*
X126449590Y-107422694D01*
X126423579Y-106822542D01*
X126243953Y-106388884D01*
X126012772Y-106313000D01*
X131065560Y-106313000D01*
X131065560Y-108063000D01*
X131114843Y-108310765D01*
X131255191Y-108520809D01*
X131465235Y-108661157D01*
X131713000Y-108710440D01*
X133463000Y-108710440D01*
X133710765Y-108661157D01*
X133920809Y-108520809D01*
X134051475Y-108325255D01*
X134090914Y-108364694D01*
X134205546Y-108250062D01*
X134288884Y-108503953D01*
X134853306Y-108709590D01*
X135453458Y-108683579D01*
X135887116Y-108503953D01*
X135970455Y-108250060D01*
X135088000Y-107367605D01*
X135073858Y-107381748D01*
X134894253Y-107202143D01*
X134908395Y-107188000D01*
X135267605Y-107188000D01*
X136150060Y-108070455D01*
X136403953Y-107987116D01*
X136609590Y-107422694D01*
X136583579Y-106822542D01*
X136403953Y-106388884D01*
X136172772Y-106313000D01*
X141225560Y-106313000D01*
X141225560Y-108063000D01*
X141274843Y-108310765D01*
X141415191Y-108520809D01*
X141625235Y-108661157D01*
X141873000Y-108710440D01*
X143623000Y-108710440D01*
X143870765Y-108661157D01*
X144080809Y-108520809D01*
X144211475Y-108325255D01*
X144250914Y-108364694D01*
X144365546Y-108250062D01*
X144448884Y-108503953D01*
X145013306Y-108709590D01*
X145613458Y-108683579D01*
X146047116Y-108503953D01*
X146130455Y-108250060D01*
X145248000Y-107367605D01*
X145233858Y-107381748D01*
X145054253Y-107202143D01*
X145068395Y-107188000D01*
X145427605Y-107188000D01*
X146310060Y-108070455D01*
X146563953Y-107987116D01*
X146769590Y-107422694D01*
X146743579Y-106822542D01*
X146563953Y-106388884D01*
X146310060Y-106305545D01*
X145427605Y-107188000D01*
X145068395Y-107188000D01*
X145054253Y-107173858D01*
X145233858Y-106994253D01*
X145248000Y-107008395D01*
X146130455Y-106125940D01*
X146047116Y-105872047D01*
X145482694Y-105666410D01*
X144882542Y-105692421D01*
X144448884Y-105872047D01*
X144365546Y-106125938D01*
X144250914Y-106011306D01*
X144211475Y-106050745D01*
X144080809Y-105855191D01*
X143870765Y-105714843D01*
X143623000Y-105665560D01*
X141873000Y-105665560D01*
X141625235Y-105714843D01*
X141415191Y-105855191D01*
X141274843Y-106065235D01*
X141225560Y-106313000D01*
X136172772Y-106313000D01*
X136150060Y-106305545D01*
X135267605Y-107188000D01*
X134908395Y-107188000D01*
X134894253Y-107173858D01*
X135073858Y-106994253D01*
X135088000Y-107008395D01*
X135970455Y-106125940D01*
X135887116Y-105872047D01*
X135322694Y-105666410D01*
X134722542Y-105692421D01*
X134288884Y-105872047D01*
X134205546Y-106125938D01*
X134090914Y-106011306D01*
X134051475Y-106050745D01*
X133920809Y-105855191D01*
X133710765Y-105714843D01*
X133463000Y-105665560D01*
X131713000Y-105665560D01*
X131465235Y-105714843D01*
X131255191Y-105855191D01*
X131114843Y-106065235D01*
X131065560Y-106313000D01*
X126012772Y-106313000D01*
X125990060Y-106305545D01*
X125107605Y-107188000D01*
X124748395Y-107188000D01*
X124734253Y-107173858D01*
X124913858Y-106994253D01*
X124928000Y-107008395D01*
X125810455Y-106125940D01*
X125727116Y-105872047D01*
X125162694Y-105666410D01*
X124562542Y-105692421D01*
X124128884Y-105872047D01*
X124045546Y-106125938D01*
X123930914Y-106011306D01*
X123891475Y-106050745D01*
X123760809Y-105855191D01*
X123550765Y-105714843D01*
X123303000Y-105665560D01*
X121553000Y-105665560D01*
X121305235Y-105714843D01*
X121095191Y-105855191D01*
X120954843Y-106065235D01*
X120905560Y-106313000D01*
X115852772Y-106313000D01*
X115830060Y-106305545D01*
X114947605Y-107188000D01*
X114588395Y-107188000D01*
X114574253Y-107173858D01*
X114753858Y-106994253D01*
X114768000Y-107008395D01*
X115650455Y-106125940D01*
X115567116Y-105872047D01*
X115002694Y-105666410D01*
X114402542Y-105692421D01*
X113968884Y-105872047D01*
X113885546Y-106125938D01*
X113770914Y-106011306D01*
X113731475Y-106050745D01*
X113600809Y-105855191D01*
X113390765Y-105714843D01*
X113143000Y-105665560D01*
X111393000Y-105665560D01*
X111145235Y-105714843D01*
X110935191Y-105855191D01*
X110794843Y-106065235D01*
X110745560Y-106313000D01*
X107390000Y-106313000D01*
X107390000Y-93535431D01*
X108255000Y-93535431D01*
X108255000Y-94424569D01*
X108595259Y-95246026D01*
X109223974Y-95874741D01*
X110045431Y-96215000D01*
X110934569Y-96215000D01*
X111756026Y-95874741D01*
X112384741Y-95246026D01*
X112725000Y-94424569D01*
X112725000Y-93535431D01*
X112384741Y-92713974D01*
X111756026Y-92085259D01*
X110934569Y-91745000D01*
X110045431Y-91745000D01*
X109223974Y-92085259D01*
X108595259Y-92713974D01*
X108255000Y-93535431D01*
X107390000Y-93535431D01*
X107390000Y-90880000D01*
X136122137Y-90880000D01*
X136104071Y-90892071D01*
G04 #@! TD*
M02*
