M48
;DRILL file {KiCad (5.0.0)} date 08/26/19 21:19:08
;FORMAT={-:-/ absolute / inch / decimal}
FMAT,2
INCH,TZ
T1C0.0394
T2C0.0413
%
G90
G05
M72
T1
X6.03Y-3.96
X6.13Y-3.96
X6.23Y-3.96
X6.33Y-3.96
X6.43Y-3.96
X6.53Y-3.96
X6.63Y-3.96
X6.73Y-3.96
X6.83Y-3.96
X6.93Y-3.96
X7.03Y-3.96
X7.13Y-3.96
X6.06Y-4.78
X6.1584Y-4.78
X6.2569Y-4.78
X6.3553Y-4.78
X4.75Y-3.75
X4.8484Y-3.75
X4.9469Y-3.75
X5.0453Y-3.75
X5.35Y-3.75
X5.4484Y-3.75
X5.5469Y-3.75
X5.6453Y-3.75
X6.03Y-4.56
X6.13Y-4.56
X6.23Y-4.56
X6.33Y-4.56
X6.43Y-4.56
X6.53Y-4.56
X6.63Y-4.56
X6.73Y-4.56
X6.83Y-4.56
X6.93Y-4.56
X7.03Y-4.56
X7.13Y-4.56
T2
X5.62Y-4.62
X5.7184Y-4.62
X5.22Y-4.62
X5.3184Y-4.62
X4.82Y-4.22
X4.9184Y-4.22
X5.02Y-5.07
X5.1184Y-5.07
X6.67Y-4.78
X6.7684Y-4.78
X5.42Y-5.07
X5.5184Y-5.07
X4.82Y-4.62
X4.9184Y-4.62
X5.82Y-5.07
X5.9184Y-5.07
X4.4184Y-4.62
X4.5169Y-4.62
X5.62Y-4.22
X5.7184Y-4.22
X4.62Y-5.07
X4.7184Y-5.07
X5.22Y-4.22
X5.3184Y-4.22
X4.42Y-4.22
X4.5184Y-4.22
T0
M30
