G04 #@! TF.GenerationSoftware,KiCad,Pcbnew,(5.0.0)*
G04 #@! TF.CreationDate,2019-08-26T21:19:04-04:00*
G04 #@! TF.ProjectId,ProMicro-Breakout+RGB,50726F4D6963726F2D427265616B6F75,rev?*
G04 #@! TF.SameCoordinates,Original*
G04 #@! TF.FileFunction,Soldermask,Top*
G04 #@! TF.FilePolarity,Negative*
%FSLAX46Y46*%
G04 Gerber Fmt 4.6, Leading zero omitted, Abs format (unit mm)*
G04 Created by KiCad (PCBNEW (5.0.0)) date 08/26/19 21:19:04*
%MOMM*%
%LPD*%
G01*
G04 APERTURE LIST*
%ADD10C,2.150000*%
%ADD11R,2.150000X2.150000*%
%ADD12O,2.100000X2.100000*%
%ADD13R,2.100000X2.100000*%
%ADD14C,0.500000*%
%ADD15C,0.100000*%
%ADD16R,1.400000X1.900000*%
%ADD17C,3.600000*%
G04 APERTURE END LIST*
D10*
G04 #@! TO.C,J2*
X128150000Y-95250000D03*
X125650000Y-95250000D03*
X123150000Y-95250000D03*
D11*
X120650000Y-95250000D03*
G04 #@! TD*
D10*
G04 #@! TO.C,J5*
X130008000Y-128778000D03*
D11*
X127508000Y-128778000D03*
G04 #@! TD*
G04 #@! TO.C,J12*
X112228000Y-117348000D03*
D10*
X114728000Y-117348000D03*
G04 #@! TD*
G04 #@! TO.C,J3*
X150328000Y-128778000D03*
D11*
X147828000Y-128778000D03*
G04 #@! TD*
G04 #@! TO.C,J4*
X137668000Y-128778000D03*
D10*
X140168000Y-128778000D03*
G04 #@! TD*
G04 #@! TO.C,J6*
X119848000Y-128778000D03*
D11*
X117348000Y-128778000D03*
G04 #@! TD*
G04 #@! TO.C,J17*
X112268000Y-107188000D03*
D10*
X114768000Y-107188000D03*
G04 #@! TD*
G04 #@! TO.C,J16*
X124928000Y-107188000D03*
D11*
X122428000Y-107188000D03*
G04 #@! TD*
G04 #@! TO.C,J15*
X132588000Y-107188000D03*
D10*
X135088000Y-107188000D03*
G04 #@! TD*
G04 #@! TO.C,J14*
X145248000Y-107188000D03*
D11*
X142748000Y-107188000D03*
G04 #@! TD*
G04 #@! TO.C,J11*
X122428000Y-117348000D03*
D10*
X124928000Y-117348000D03*
G04 #@! TD*
G04 #@! TO.C,J9*
X135088000Y-117348000D03*
D11*
X132588000Y-117348000D03*
G04 #@! TD*
G04 #@! TO.C,J8*
X142748000Y-117348000D03*
D10*
X145248000Y-117348000D03*
G04 #@! TD*
G04 #@! TO.C,J18*
X161424000Y-121412000D03*
X158924000Y-121412000D03*
X156424000Y-121412000D03*
D11*
X153924000Y-121412000D03*
G04 #@! TD*
D12*
G04 #@! TO.C,J7*
X153162000Y-100584000D03*
X155702000Y-100584000D03*
X158242000Y-100584000D03*
X160782000Y-100584000D03*
X163322000Y-100584000D03*
X165862000Y-100584000D03*
X168402000Y-100584000D03*
X170942000Y-100584000D03*
X173482000Y-100584000D03*
X176022000Y-100584000D03*
X178562000Y-100584000D03*
D13*
X181102000Y-100584000D03*
G04 #@! TD*
G04 #@! TO.C,J10*
X181102000Y-115824000D03*
D12*
X178562000Y-115824000D03*
X176022000Y-115824000D03*
X173482000Y-115824000D03*
X170942000Y-115824000D03*
X168402000Y-115824000D03*
X165862000Y-115824000D03*
X163322000Y-115824000D03*
X160782000Y-115824000D03*
X158242000Y-115824000D03*
X155702000Y-115824000D03*
X153162000Y-115824000D03*
G04 #@! TD*
D10*
G04 #@! TO.C,J13*
X171918000Y-121412000D03*
D11*
X169418000Y-121412000D03*
G04 #@! TD*
G04 #@! TO.C,J1*
X135890000Y-95250000D03*
D10*
X138390000Y-95250000D03*
X140890000Y-95250000D03*
X143390000Y-95250000D03*
G04 #@! TD*
D14*
G04 #@! TO.C,JP1*
X171988000Y-127254000D03*
D15*
G36*
X171398982Y-128200157D02*
X171361463Y-128188776D01*
X171326886Y-128170294D01*
X171296579Y-128145421D01*
X171271706Y-128115114D01*
X171253224Y-128080537D01*
X171241843Y-128043018D01*
X171238000Y-128004000D01*
X171238000Y-126504000D01*
X171241843Y-126464982D01*
X171253224Y-126427463D01*
X171271706Y-126392886D01*
X171296579Y-126362579D01*
X171326886Y-126337706D01*
X171361463Y-126319224D01*
X171398982Y-126307843D01*
X171438000Y-126304000D01*
X171988000Y-126304000D01*
X171994112Y-126304602D01*
X172012534Y-126304602D01*
X172032140Y-126305565D01*
X172080971Y-126310375D01*
X172100380Y-126313254D01*
X172148505Y-126322826D01*
X172167548Y-126327596D01*
X172214503Y-126341840D01*
X172232980Y-126348451D01*
X172278313Y-126367228D01*
X172296061Y-126375623D01*
X172339334Y-126398754D01*
X172356162Y-126408840D01*
X172396961Y-126436100D01*
X172412730Y-126447795D01*
X172450659Y-126478923D01*
X172465200Y-126492103D01*
X172499897Y-126526800D01*
X172513077Y-126541341D01*
X172544205Y-126579270D01*
X172555900Y-126595039D01*
X172583160Y-126635838D01*
X172593246Y-126652666D01*
X172616377Y-126695939D01*
X172624772Y-126713687D01*
X172643549Y-126759020D01*
X172650160Y-126777497D01*
X172664404Y-126824452D01*
X172669174Y-126843495D01*
X172678746Y-126891620D01*
X172681625Y-126911029D01*
X172686435Y-126959860D01*
X172687398Y-126979466D01*
X172687398Y-126997888D01*
X172688000Y-127004000D01*
X172688000Y-127504000D01*
X172687398Y-127510112D01*
X172687398Y-127528534D01*
X172686435Y-127548140D01*
X172681625Y-127596971D01*
X172678746Y-127616380D01*
X172669174Y-127664505D01*
X172664404Y-127683548D01*
X172650160Y-127730503D01*
X172643549Y-127748980D01*
X172624772Y-127794313D01*
X172616377Y-127812061D01*
X172593246Y-127855334D01*
X172583160Y-127872162D01*
X172555900Y-127912961D01*
X172544205Y-127928730D01*
X172513077Y-127966659D01*
X172499897Y-127981200D01*
X172465200Y-128015897D01*
X172450659Y-128029077D01*
X172412730Y-128060205D01*
X172396961Y-128071900D01*
X172356162Y-128099160D01*
X172339334Y-128109246D01*
X172296061Y-128132377D01*
X172278313Y-128140772D01*
X172232980Y-128159549D01*
X172214503Y-128166160D01*
X172167548Y-128180404D01*
X172148505Y-128185174D01*
X172100380Y-128194746D01*
X172080971Y-128197625D01*
X172032140Y-128202435D01*
X172012534Y-128203398D01*
X171994112Y-128203398D01*
X171988000Y-128204000D01*
X171438000Y-128204000D01*
X171398982Y-128200157D01*
X171398982Y-128200157D01*
G37*
D14*
X169388000Y-127254000D03*
D15*
G36*
X169381888Y-128203398D02*
X169363466Y-128203398D01*
X169343860Y-128202435D01*
X169295029Y-128197625D01*
X169275620Y-128194746D01*
X169227495Y-128185174D01*
X169208452Y-128180404D01*
X169161497Y-128166160D01*
X169143020Y-128159549D01*
X169097687Y-128140772D01*
X169079939Y-128132377D01*
X169036666Y-128109246D01*
X169019838Y-128099160D01*
X168979039Y-128071900D01*
X168963270Y-128060205D01*
X168925341Y-128029077D01*
X168910800Y-128015897D01*
X168876103Y-127981200D01*
X168862923Y-127966659D01*
X168831795Y-127928730D01*
X168820100Y-127912961D01*
X168792840Y-127872162D01*
X168782754Y-127855334D01*
X168759623Y-127812061D01*
X168751228Y-127794313D01*
X168732451Y-127748980D01*
X168725840Y-127730503D01*
X168711596Y-127683548D01*
X168706826Y-127664505D01*
X168697254Y-127616380D01*
X168694375Y-127596971D01*
X168689565Y-127548140D01*
X168688602Y-127528534D01*
X168688602Y-127510112D01*
X168688000Y-127504000D01*
X168688000Y-127004000D01*
X168688602Y-126997888D01*
X168688602Y-126979466D01*
X168689565Y-126959860D01*
X168694375Y-126911029D01*
X168697254Y-126891620D01*
X168706826Y-126843495D01*
X168711596Y-126824452D01*
X168725840Y-126777497D01*
X168732451Y-126759020D01*
X168751228Y-126713687D01*
X168759623Y-126695939D01*
X168782754Y-126652666D01*
X168792840Y-126635838D01*
X168820100Y-126595039D01*
X168831795Y-126579270D01*
X168862923Y-126541341D01*
X168876103Y-126526800D01*
X168910800Y-126492103D01*
X168925341Y-126478923D01*
X168963270Y-126447795D01*
X168979039Y-126436100D01*
X169019838Y-126408840D01*
X169036666Y-126398754D01*
X169079939Y-126375623D01*
X169097687Y-126367228D01*
X169143020Y-126348451D01*
X169161497Y-126341840D01*
X169208452Y-126327596D01*
X169227495Y-126322826D01*
X169275620Y-126313254D01*
X169295029Y-126310375D01*
X169343860Y-126305565D01*
X169363466Y-126304602D01*
X169381888Y-126304602D01*
X169388000Y-126304000D01*
X169938000Y-126304000D01*
X169977018Y-126307843D01*
X170014537Y-126319224D01*
X170049114Y-126337706D01*
X170079421Y-126362579D01*
X170104294Y-126392886D01*
X170122776Y-126427463D01*
X170134157Y-126464982D01*
X170138000Y-126504000D01*
X170138000Y-128004000D01*
X170134157Y-128043018D01*
X170122776Y-128080537D01*
X170104294Y-128115114D01*
X170079421Y-128145421D01*
X170049114Y-128170294D01*
X170014537Y-128188776D01*
X169977018Y-128200157D01*
X169938000Y-128204000D01*
X169388000Y-128204000D01*
X169381888Y-128203398D01*
X169381888Y-128203398D01*
G37*
D16*
X170688000Y-127254000D03*
G04 #@! TD*
D17*
G04 #@! TO.C,MH1*
X110490000Y-129540000D03*
G04 #@! TD*
G04 #@! TO.C,MH2*
X110490000Y-93980000D03*
G04 #@! TD*
G04 #@! TO.C,MH3*
X179070000Y-129540000D03*
G04 #@! TD*
G04 #@! TO.C,MH4*
X179070000Y-93980000D03*
G04 #@! TD*
M02*
