M48
; DRILL file {KiCad (5.1.5)-3} date 5/31/2020 3:18:44 PM
; FORMAT={-:-/ absolute / inch / decimal}
; #@! TF.CreationDate,2020-05-31T15:18:44-04:00
; #@! TF.GenerationSoftware,Kicad,Pcbnew,(5.1.5)-3
; #@! TF.FileFunction,Plated,1,2,PTH
FMAT,2
INCH
T1C0.0157
T2C0.0394
T3C0.0413
%
G90
G05
T1
X4.6929Y-5.1496
X4.76Y-4.17
X4.83Y-3.99
X4.98Y-3.92
X5.24Y-4.6
X5.24Y-5.1
X5.36Y-4.17
X5.43Y-4.17
X5.5488Y-4.5566
X5.59Y-4.17
X5.59Y-4.33
X5.65Y-4.02
X5.65Y-4.08
X5.7244Y-4.5787
X5.8425Y-5.0669
X6.1Y-4.21
X6.16Y-4.21
X6.22Y-4.21
X6.28Y-4.21
X6.44Y-5.1
X6.5Y-4.66
X6.7835Y-4.1378
X6.874Y-4.0984
X7.04Y-5.1
X7.1Y-4.66
X7.23Y-4.12
T2
X5.7Y-5.4
X5.7984Y-5.4
X5.8969Y-5.4
X5.9953Y-5.4
X5.7Y-4.9
X5.7984Y-4.9
X5.8969Y-4.9
X5.9953Y-4.9
X5.1Y-5.4
X5.1984Y-5.4
X5.2969Y-5.4
X5.3953Y-5.4
X4.4971Y-4.9009
X4.5956Y-4.9009
X4.694Y-4.9009
X4.7924Y-4.9009
X5.1Y-4.4
X5.1984Y-4.4
X5.2969Y-4.4
X5.3953Y-4.4
X6.9Y-4.9
X6.9984Y-4.9
X7.0969Y-4.9
X7.1953Y-4.9
X5.95Y-4.45
X6.05Y-4.45
X6.15Y-4.45
X6.25Y-4.45
X6.35Y-4.45
X6.45Y-4.45
X6.55Y-4.45
X6.65Y-4.45
X6.75Y-4.45
X6.85Y-4.45
X6.95Y-4.45
X7.05Y-4.45
X7.15Y-4.45
X7.25Y-4.45
X7.35Y-4.45
X7.45Y-4.45
X7.55Y-4.45
X6.9Y-5.4
X6.9984Y-5.4
X7.0969Y-5.4
X7.1953Y-5.4
X5.35Y-3.68
X5.4484Y-3.68
X5.5469Y-3.68
X5.6453Y-3.68
X5.1Y-4.9
X5.1984Y-4.9
X5.2969Y-4.9
X5.3953Y-4.9
X6.3Y-4.9
X6.3984Y-4.9
X6.4969Y-4.9
X6.5953Y-4.9
X5.95Y-3.85
X6.05Y-3.85
X6.15Y-3.85
X6.25Y-3.85
X6.35Y-3.85
X6.45Y-3.85
X6.55Y-3.85
X6.65Y-3.85
X6.75Y-3.85
X6.85Y-3.85
X6.95Y-3.85
X7.05Y-3.85
X7.15Y-3.85
X7.25Y-3.85
X7.35Y-3.85
X7.45Y-3.85
X7.55Y-3.85
X6.3Y-5.4
X6.3984Y-5.4
X6.4969Y-5.4
X6.5953Y-5.4
X4.75Y-3.68
X4.8484Y-3.68
X4.9469Y-3.68
X5.0453Y-3.68
X4.5Y-4.4
X4.5984Y-4.4
X4.6969Y-4.4
X4.7953Y-4.4
X4.5Y-5.4
X4.5984Y-5.4
X4.6969Y-5.4
X4.7953Y-5.4
T3
X7.1Y-3.6
X7.1984Y-3.6
T0
M30
