G04 #@! TF.GenerationSoftware,KiCad,Pcbnew,(5.0.0)*
G04 #@! TF.CreationDate,2019-10-27T19:17:23-04:00*
G04 #@! TF.ProjectId,Micro-Breakout+RGB,4D6963726F2D427265616B6F75742B52,rev?*
G04 #@! TF.SameCoordinates,Original*
G04 #@! TF.FileFunction,Soldermask,Bot*
G04 #@! TF.FilePolarity,Negative*
%FSLAX46Y46*%
G04 Gerber Fmt 4.6, Leading zero omitted, Abs format (unit mm)*
G04 Created by KiCad (PCBNEW (5.0.0)) date 10/27/19 19:17:23*
%MOMM*%
%LPD*%
G01*
G04 APERTURE LIST*
%ADD10O,2.100000X2.100000*%
%ADD11R,2.100000X2.100000*%
%ADD12R,2.150000X2.150000*%
%ADD13C,2.150000*%
%ADD14C,3.600000*%
G04 APERTURE END LIST*
D10*
G04 #@! TO.C,J7*
X151130000Y-97790000D03*
X153670000Y-97790000D03*
X156210000Y-97790000D03*
X158750000Y-97790000D03*
X161290000Y-97790000D03*
X163830000Y-97790000D03*
X166370000Y-97790000D03*
X168910000Y-97790000D03*
X171450000Y-97790000D03*
X173990000Y-97790000D03*
X176530000Y-97790000D03*
X179070000Y-97790000D03*
X181610000Y-97790000D03*
X184150000Y-97790000D03*
X186690000Y-97790000D03*
X189230000Y-97790000D03*
D11*
X191770000Y-97790000D03*
G04 #@! TD*
G04 #@! TO.C,J10*
X191770000Y-113030000D03*
D10*
X189230000Y-113030000D03*
X186690000Y-113030000D03*
X184150000Y-113030000D03*
X181610000Y-113030000D03*
X179070000Y-113030000D03*
X176530000Y-113030000D03*
X173990000Y-113030000D03*
X171450000Y-113030000D03*
X168910000Y-113030000D03*
X166370000Y-113030000D03*
X163830000Y-113030000D03*
X161290000Y-113030000D03*
X158750000Y-113030000D03*
X156210000Y-113030000D03*
X153670000Y-113030000D03*
X151130000Y-113030000D03*
G04 #@! TD*
D12*
G04 #@! TO.C,J17*
X114300000Y-111760000D03*
D13*
X116800000Y-111760000D03*
X119300000Y-111760000D03*
X121800000Y-111760000D03*
G04 #@! TD*
G04 #@! TO.C,J16*
X137040000Y-124460000D03*
X134540000Y-124460000D03*
X132040000Y-124460000D03*
D12*
X129540000Y-124460000D03*
G04 #@! TD*
G04 #@! TO.C,J14*
X114227001Y-124483001D03*
D13*
X116727001Y-124483001D03*
X119227001Y-124483001D03*
X121727001Y-124483001D03*
G04 #@! TD*
G04 #@! TO.C,J12*
X137040000Y-111760000D03*
X134540000Y-111760000D03*
X132040000Y-111760000D03*
D12*
X129540000Y-111760000D03*
G04 #@! TD*
D13*
G04 #@! TO.C,J13*
X182840000Y-91440000D03*
D12*
X180340000Y-91440000D03*
G04 #@! TD*
D13*
G04 #@! TO.C,J8*
X152280000Y-137160000D03*
X149780000Y-137160000D03*
X147280000Y-137160000D03*
D12*
X144780000Y-137160000D03*
G04 #@! TD*
D13*
G04 #@! TO.C,J2*
X128150000Y-93472000D03*
X125650000Y-93472000D03*
X123150000Y-93472000D03*
D12*
X120650000Y-93472000D03*
G04 #@! TD*
D13*
G04 #@! TO.C,J3*
X182760000Y-137160000D03*
X180260000Y-137160000D03*
X177760000Y-137160000D03*
D12*
X175260000Y-137160000D03*
G04 #@! TD*
G04 #@! TO.C,J4*
X175260000Y-124460000D03*
D13*
X177760000Y-124460000D03*
X180260000Y-124460000D03*
X182760000Y-124460000D03*
G04 #@! TD*
G04 #@! TO.C,J5*
X167520000Y-137160000D03*
X165020000Y-137160000D03*
X162520000Y-137160000D03*
D12*
X160020000Y-137160000D03*
G04 #@! TD*
G04 #@! TO.C,J9*
X144780000Y-124460000D03*
D13*
X147280000Y-124460000D03*
X149780000Y-124460000D03*
X152280000Y-124460000D03*
G04 #@! TD*
G04 #@! TO.C,J11*
X137040000Y-137160000D03*
X134540000Y-137160000D03*
X132040000Y-137160000D03*
D12*
X129540000Y-137160000D03*
G04 #@! TD*
D13*
G04 #@! TO.C,J18*
X121800000Y-137160000D03*
X119300000Y-137160000D03*
X116800000Y-137160000D03*
D12*
X114300000Y-137160000D03*
G04 #@! TD*
G04 #@! TO.C,J1*
X135890000Y-93472000D03*
D13*
X138390000Y-93472000D03*
X140890000Y-93472000D03*
X143390000Y-93472000D03*
G04 #@! TD*
G04 #@! TO.C,J6*
X167520000Y-124460000D03*
X165020000Y-124460000D03*
X162520000Y-124460000D03*
D12*
X160020000Y-124460000D03*
G04 #@! TD*
D14*
G04 #@! TO.C,MH1*
X106680000Y-138430000D03*
G04 #@! TD*
G04 #@! TO.C,MH2*
X106680000Y-91440000D03*
G04 #@! TD*
G04 #@! TO.C,MH3*
X191770000Y-138430000D03*
G04 #@! TD*
G04 #@! TO.C,MH4*
X191770000Y-91440000D03*
G04 #@! TD*
M02*
