G04 #@! TF.GenerationSoftware,KiCad,Pcbnew,(5.0.0)*
G04 #@! TF.CreationDate,2019-10-27T19:17:23-04:00*
G04 #@! TF.ProjectId,Micro-Breakout+RGB,4D6963726F2D427265616B6F75742B52,rev?*
G04 #@! TF.SameCoordinates,Original*
G04 #@! TF.FileFunction,Copper,L1,Top,Signal*
G04 #@! TF.FilePolarity,Positive*
%FSLAX46Y46*%
G04 Gerber Fmt 4.6, Leading zero omitted, Abs format (unit mm)*
G04 Created by KiCad (PCBNEW (5.0.0)) date 10/27/19 19:17:23*
%MOMM*%
%LPD*%
G01*
G04 APERTURE LIST*
G04 #@! TA.AperFunction,ComponentPad*
%ADD10O,1.700000X1.700000*%
G04 #@! TD*
G04 #@! TA.AperFunction,ComponentPad*
%ADD11R,1.700000X1.700000*%
G04 #@! TD*
G04 #@! TA.AperFunction,ComponentPad*
%ADD12R,1.750000X1.750000*%
G04 #@! TD*
G04 #@! TA.AperFunction,ComponentPad*
%ADD13C,1.750000*%
G04 #@! TD*
G04 #@! TA.AperFunction,SMDPad,CuDef*
%ADD14R,0.800000X0.900000*%
G04 #@! TD*
G04 #@! TA.AperFunction,SMDPad,CuDef*
%ADD15C,0.500000*%
G04 #@! TD*
G04 #@! TA.AperFunction,Conductor*
%ADD16C,0.100000*%
G04 #@! TD*
G04 #@! TA.AperFunction,SMDPad,CuDef*
%ADD17R,1.500000X1.000000*%
G04 #@! TD*
G04 #@! TA.AperFunction,SMDPad,CuDef*
%ADD18R,1.000000X1.500000*%
G04 #@! TD*
G04 #@! TA.AperFunction,ViaPad*
%ADD19C,0.800000*%
G04 #@! TD*
G04 #@! TA.AperFunction,Conductor*
%ADD20C,0.250000*%
G04 #@! TD*
G04 #@! TA.AperFunction,Conductor*
%ADD21C,0.500000*%
G04 #@! TD*
G04 #@! TA.AperFunction,Conductor*
%ADD22C,0.254000*%
G04 #@! TD*
G04 APERTURE END LIST*
D10*
G04 #@! TO.P,J7,17*
G04 #@! TO.N,/LCLK*
X151130000Y-97790000D03*
G04 #@! TO.P,J7,16*
G04 #@! TO.N,/B5LED*
X153670000Y-97790000D03*
G04 #@! TO.P,J7,15*
G04 #@! TO.N,VBUS*
X156210000Y-97790000D03*
G04 #@! TO.P,J7,14*
G04 #@! TO.N,GND*
X158750000Y-97790000D03*
G04 #@! TO.P,J7,13*
G04 #@! TO.N,Net-(J7-Pad13)*
X161290000Y-97790000D03*
G04 #@! TO.P,J7,12*
G04 #@! TO.N,+5V*
X163830000Y-97790000D03*
G04 #@! TO.P,J7,11*
G04 #@! TO.N,Net-(J7-Pad11)*
X166370000Y-97790000D03*
G04 #@! TO.P,J7,10*
G04 #@! TO.N,Net-(J7-Pad10)*
X168910000Y-97790000D03*
G04 #@! TO.P,J7,9*
G04 #@! TO.N,/B9LED*
X171450000Y-97790000D03*
G04 #@! TO.P,J7,8*
G04 #@! TO.N,/B9*
X173990000Y-97790000D03*
G04 #@! TO.P,J7,7*
G04 #@! TO.N,/B8LED*
X176530000Y-97790000D03*
G04 #@! TO.P,J7,6*
G04 #@! TO.N,/B8*
X179070000Y-97790000D03*
G04 #@! TO.P,J7,5*
G04 #@! TO.N,/B7LED*
X181610000Y-97790000D03*
G04 #@! TO.P,J7,4*
G04 #@! TO.N,/B6LED*
X184150000Y-97790000D03*
G04 #@! TO.P,J7,3*
G04 #@! TO.N,Net-(J7-Pad3)*
X186690000Y-97790000D03*
G04 #@! TO.P,J7,2*
G04 #@! TO.N,+3V3*
X189230000Y-97790000D03*
D11*
G04 #@! TO.P,J7,1*
G04 #@! TO.N,/B7*
X191770000Y-97790000D03*
G04 #@! TD*
G04 #@! TO.P,J10,1*
G04 #@! TO.N,/B1*
X191770000Y-113030000D03*
D10*
G04 #@! TO.P,J10,2*
G04 #@! TO.N,/B1LED*
X189230000Y-113030000D03*
G04 #@! TO.P,J10,3*
G04 #@! TO.N,/B2*
X186690000Y-113030000D03*
G04 #@! TO.P,J10,4*
G04 #@! TO.N,/B2LED*
X184150000Y-113030000D03*
G04 #@! TO.P,J10,5*
G04 #@! TO.N,/B3*
X181610000Y-113030000D03*
G04 #@! TO.P,J10,6*
G04 #@! TO.N,/B3LED*
X179070000Y-113030000D03*
G04 #@! TO.P,J10,7*
G04 #@! TO.N,/B4*
X176530000Y-113030000D03*
G04 #@! TO.P,J10,8*
G04 #@! TO.N,/B4LED*
X173990000Y-113030000D03*
G04 #@! TO.P,J10,9*
G04 #@! TO.N,/B5*
X171450000Y-113030000D03*
G04 #@! TO.P,J10,10*
G04 #@! TO.N,/PIN3*
X168910000Y-113030000D03*
G04 #@! TO.P,J10,11*
G04 #@! TO.N,/PIN2*
X166370000Y-113030000D03*
G04 #@! TO.P,J10,12*
G04 #@! TO.N,GND*
X163830000Y-113030000D03*
G04 #@! TO.P,J10,13*
G04 #@! TO.N,Net-(J10-Pad13)*
X161290000Y-113030000D03*
G04 #@! TO.P,J10,14*
G04 #@! TO.N,/PIN0*
X158750000Y-113030000D03*
G04 #@! TO.P,J10,15*
G04 #@! TO.N,/PIN1*
X156210000Y-113030000D03*
G04 #@! TO.P,J10,16*
G04 #@! TO.N,/B6*
X153670000Y-113030000D03*
G04 #@! TO.P,J10,17*
G04 #@! TO.N,/LDAT*
X151130000Y-113030000D03*
G04 #@! TD*
D12*
G04 #@! TO.P,J17,1*
G04 #@! TO.N,/B11*
X114300000Y-111760000D03*
D13*
G04 #@! TO.P,J17,2*
G04 #@! TO.N,Net-(J17-Pad2)*
X116800000Y-111760000D03*
G04 #@! TO.P,J17,3*
G04 #@! TO.N,/LED+*
X119300000Y-111760000D03*
G04 #@! TO.P,J17,4*
G04 #@! TO.N,GND*
X121800000Y-111760000D03*
G04 #@! TD*
G04 #@! TO.P,J16,4*
G04 #@! TO.N,GND*
X137040000Y-124460000D03*
G04 #@! TO.P,J16,3*
G04 #@! TO.N,/LED+*
X134540000Y-124460000D03*
G04 #@! TO.P,J16,2*
G04 #@! TO.N,Net-(J16-Pad2)*
X132040000Y-124460000D03*
D12*
G04 #@! TO.P,J16,1*
G04 #@! TO.N,/B8*
X129540000Y-124460000D03*
G04 #@! TD*
G04 #@! TO.P,J14,1*
G04 #@! TO.N,/LED+*
X114227001Y-124483001D03*
D13*
G04 #@! TO.P,J14,2*
G04 #@! TO.N,/LCLK*
X116727001Y-124483001D03*
G04 #@! TO.P,J14,3*
G04 #@! TO.N,/LDAT*
X119227001Y-124483001D03*
G04 #@! TO.P,J14,4*
G04 #@! TO.N,GND*
X121727001Y-124483001D03*
G04 #@! TD*
G04 #@! TO.P,J12,4*
G04 #@! TO.N,GND*
X137040000Y-111760000D03*
G04 #@! TO.P,J12,3*
G04 #@! TO.N,/LED+*
X134540000Y-111760000D03*
G04 #@! TO.P,J12,2*
G04 #@! TO.N,Net-(J12-Pad2)*
X132040000Y-111760000D03*
D12*
G04 #@! TO.P,J12,1*
G04 #@! TO.N,/B10*
X129540000Y-111760000D03*
G04 #@! TD*
D14*
G04 #@! TO.P,Q12,3*
G04 #@! TO.N,Net-(J18-Pad2)*
X116840000Y-132826000D03*
G04 #@! TO.P,Q12,2*
G04 #@! TO.N,GND*
X115890000Y-130826000D03*
G04 #@! TO.P,Q12,1*
G04 #@! TO.N,/B9LED*
X117790000Y-130826000D03*
G04 #@! TD*
G04 #@! TO.P,Q11,1*
G04 #@! TO.N,/B11LED*
X117790000Y-105680000D03*
G04 #@! TO.P,Q11,2*
G04 #@! TO.N,GND*
X115890000Y-105680000D03*
G04 #@! TO.P,Q11,3*
G04 #@! TO.N,Net-(J17-Pad2)*
X116840000Y-107680000D03*
G04 #@! TD*
G04 #@! TO.P,Q8,3*
G04 #@! TO.N,Net-(J12-Pad2)*
X132080000Y-107680000D03*
G04 #@! TO.P,Q8,2*
G04 #@! TO.N,GND*
X131130000Y-105680000D03*
G04 #@! TO.P,Q8,1*
G04 #@! TO.N,/B10LED*
X133030000Y-105680000D03*
G04 #@! TD*
D15*
G04 #@! TO.P,JP5,1*
G04 #@! TO.N,/B11LED*
X124477356Y-104227742D03*
D16*
G04 #@! TD*
G04 #@! TO.N,/B11LED*
G04 #@! TO.C,JP5*
G36*
X125227356Y-103677742D02*
X125227356Y-104227742D01*
X125226754Y-104227742D01*
X125226754Y-104252276D01*
X125221944Y-104301107D01*
X125212372Y-104349232D01*
X125198128Y-104396187D01*
X125179351Y-104441520D01*
X125156220Y-104484793D01*
X125128960Y-104525592D01*
X125097832Y-104563521D01*
X125063135Y-104598218D01*
X125025206Y-104629346D01*
X124984407Y-104656606D01*
X124941134Y-104679737D01*
X124895801Y-104698514D01*
X124848846Y-104712758D01*
X124800721Y-104722330D01*
X124751890Y-104727140D01*
X124727356Y-104727140D01*
X124727356Y-104727742D01*
X124227356Y-104727742D01*
X124227356Y-104727140D01*
X124202822Y-104727140D01*
X124153991Y-104722330D01*
X124105866Y-104712758D01*
X124058911Y-104698514D01*
X124013578Y-104679737D01*
X123970305Y-104656606D01*
X123929506Y-104629346D01*
X123891577Y-104598218D01*
X123856880Y-104563521D01*
X123825752Y-104525592D01*
X123798492Y-104484793D01*
X123775361Y-104441520D01*
X123756584Y-104396187D01*
X123742340Y-104349232D01*
X123732768Y-104301107D01*
X123727958Y-104252276D01*
X123727958Y-104227742D01*
X123727356Y-104227742D01*
X123727356Y-103677742D01*
X125227356Y-103677742D01*
X125227356Y-103677742D01*
G37*
D15*
G04 #@! TO.P,JP5,3*
G04 #@! TO.N,/QE2B*
X124477356Y-101627742D03*
D16*
G04 #@! TD*
G04 #@! TO.N,/QE2B*
G04 #@! TO.C,JP5*
G36*
X123727958Y-101627742D02*
X123727958Y-101603208D01*
X123732768Y-101554377D01*
X123742340Y-101506252D01*
X123756584Y-101459297D01*
X123775361Y-101413964D01*
X123798492Y-101370691D01*
X123825752Y-101329892D01*
X123856880Y-101291963D01*
X123891577Y-101257266D01*
X123929506Y-101226138D01*
X123970305Y-101198878D01*
X124013578Y-101175747D01*
X124058911Y-101156970D01*
X124105866Y-101142726D01*
X124153991Y-101133154D01*
X124202822Y-101128344D01*
X124227356Y-101128344D01*
X124227356Y-101127742D01*
X124727356Y-101127742D01*
X124727356Y-101128344D01*
X124751890Y-101128344D01*
X124800721Y-101133154D01*
X124848846Y-101142726D01*
X124895801Y-101156970D01*
X124941134Y-101175747D01*
X124984407Y-101198878D01*
X125025206Y-101226138D01*
X125063135Y-101257266D01*
X125097832Y-101291963D01*
X125128960Y-101329892D01*
X125156220Y-101370691D01*
X125179351Y-101413964D01*
X125198128Y-101459297D01*
X125212372Y-101506252D01*
X125221944Y-101554377D01*
X125226754Y-101603208D01*
X125226754Y-101627742D01*
X125227356Y-101627742D01*
X125227356Y-102177742D01*
X123727356Y-102177742D01*
X123727356Y-101627742D01*
X123727958Y-101627742D01*
X123727958Y-101627742D01*
G37*
D17*
G04 #@! TO.P,JP5,2*
G04 #@! TO.N,/PIN3*
X124477356Y-102927742D03*
G04 #@! TD*
D13*
G04 #@! TO.P,J13,2*
G04 #@! TO.N,GND*
X182840000Y-91440000D03*
D12*
G04 #@! TO.P,J13,1*
G04 #@! TO.N,+12V*
X180340000Y-91440000D03*
G04 #@! TD*
D13*
G04 #@! TO.P,J8,4*
G04 #@! TO.N,GND*
X152280000Y-137160000D03*
G04 #@! TO.P,J8,3*
G04 #@! TO.N,/LED+*
X149780000Y-137160000D03*
G04 #@! TO.P,J8,2*
G04 #@! TO.N,Net-(J8-Pad2)*
X147280000Y-137160000D03*
D12*
G04 #@! TO.P,J8,1*
G04 #@! TO.N,/B5*
X144780000Y-137160000D03*
G04 #@! TD*
D13*
G04 #@! TO.P,J2,4*
G04 #@! TO.N,GND*
X128150000Y-93472000D03*
G04 #@! TO.P,J2,3*
G04 #@! TO.N,+5V*
X125650000Y-93472000D03*
G04 #@! TO.P,J2,2*
G04 #@! TO.N,/QE2B*
X123150000Y-93472000D03*
D12*
G04 #@! TO.P,J2,1*
G04 #@! TO.N,/QE2A*
X120650000Y-93472000D03*
G04 #@! TD*
D13*
G04 #@! TO.P,J3,4*
G04 #@! TO.N,GND*
X182760000Y-137160000D03*
G04 #@! TO.P,J3,3*
G04 #@! TO.N,/LED+*
X180260000Y-137160000D03*
G04 #@! TO.P,J3,2*
G04 #@! TO.N,Net-(J3-Pad2)*
X177760000Y-137160000D03*
D12*
G04 #@! TO.P,J3,1*
G04 #@! TO.N,/B1*
X175260000Y-137160000D03*
G04 #@! TD*
G04 #@! TO.P,J4,1*
G04 #@! TO.N,/B2*
X175260000Y-124460000D03*
D13*
G04 #@! TO.P,J4,2*
G04 #@! TO.N,Net-(J4-Pad2)*
X177760000Y-124460000D03*
G04 #@! TO.P,J4,3*
G04 #@! TO.N,/LED+*
X180260000Y-124460000D03*
G04 #@! TO.P,J4,4*
G04 #@! TO.N,GND*
X182760000Y-124460000D03*
G04 #@! TD*
G04 #@! TO.P,J5,4*
G04 #@! TO.N,GND*
X167520000Y-137160000D03*
G04 #@! TO.P,J5,3*
G04 #@! TO.N,/LED+*
X165020000Y-137160000D03*
G04 #@! TO.P,J5,2*
G04 #@! TO.N,Net-(J5-Pad2)*
X162520000Y-137160000D03*
D12*
G04 #@! TO.P,J5,1*
G04 #@! TO.N,/B3*
X160020000Y-137160000D03*
G04 #@! TD*
G04 #@! TO.P,J9,1*
G04 #@! TO.N,/B6*
X144780000Y-124460000D03*
D13*
G04 #@! TO.P,J9,2*
G04 #@! TO.N,Net-(J9-Pad2)*
X147280000Y-124460000D03*
G04 #@! TO.P,J9,3*
G04 #@! TO.N,/LED+*
X149780000Y-124460000D03*
G04 #@! TO.P,J9,4*
G04 #@! TO.N,GND*
X152280000Y-124460000D03*
G04 #@! TD*
G04 #@! TO.P,J11,4*
G04 #@! TO.N,GND*
X137040000Y-137160000D03*
G04 #@! TO.P,J11,3*
G04 #@! TO.N,/LED+*
X134540000Y-137160000D03*
G04 #@! TO.P,J11,2*
G04 #@! TO.N,Net-(J11-Pad2)*
X132040000Y-137160000D03*
D12*
G04 #@! TO.P,J11,1*
G04 #@! TO.N,/B7*
X129540000Y-137160000D03*
G04 #@! TD*
D13*
G04 #@! TO.P,J18,4*
G04 #@! TO.N,GND*
X121800000Y-137160000D03*
G04 #@! TO.P,J18,3*
G04 #@! TO.N,/LED+*
X119300000Y-137160000D03*
G04 #@! TO.P,J18,2*
G04 #@! TO.N,Net-(J18-Pad2)*
X116800000Y-137160000D03*
D12*
G04 #@! TO.P,J18,1*
G04 #@! TO.N,/B9*
X114300000Y-137160000D03*
G04 #@! TD*
G04 #@! TO.P,J1,1*
G04 #@! TO.N,/QE1A*
X135890000Y-93472000D03*
D13*
G04 #@! TO.P,J1,2*
G04 #@! TO.N,/QE1B*
X138390000Y-93472000D03*
G04 #@! TO.P,J1,3*
G04 #@! TO.N,+5V*
X140890000Y-93472000D03*
G04 #@! TO.P,J1,4*
G04 #@! TO.N,GND*
X143390000Y-93472000D03*
G04 #@! TD*
G04 #@! TO.P,J6,4*
G04 #@! TO.N,GND*
X167520000Y-124460000D03*
G04 #@! TO.P,J6,3*
G04 #@! TO.N,/LED+*
X165020000Y-124460000D03*
G04 #@! TO.P,J6,2*
G04 #@! TO.N,Net-(J6-Pad2)*
X162520000Y-124460000D03*
D12*
G04 #@! TO.P,J6,1*
G04 #@! TO.N,/B4*
X160020000Y-124460000D03*
G04 #@! TD*
D17*
G04 #@! TO.P,JP2,2*
G04 #@! TO.N,/PIN1*
X136200666Y-103187773D03*
D15*
G04 #@! TO.P,JP2,3*
G04 #@! TO.N,/QE1A*
X136200666Y-101887773D03*
D16*
G04 #@! TD*
G04 #@! TO.N,/QE1A*
G04 #@! TO.C,JP2*
G36*
X135451268Y-101887773D02*
X135451268Y-101863239D01*
X135456078Y-101814408D01*
X135465650Y-101766283D01*
X135479894Y-101719328D01*
X135498671Y-101673995D01*
X135521802Y-101630722D01*
X135549062Y-101589923D01*
X135580190Y-101551994D01*
X135614887Y-101517297D01*
X135652816Y-101486169D01*
X135693615Y-101458909D01*
X135736888Y-101435778D01*
X135782221Y-101417001D01*
X135829176Y-101402757D01*
X135877301Y-101393185D01*
X135926132Y-101388375D01*
X135950666Y-101388375D01*
X135950666Y-101387773D01*
X136450666Y-101387773D01*
X136450666Y-101388375D01*
X136475200Y-101388375D01*
X136524031Y-101393185D01*
X136572156Y-101402757D01*
X136619111Y-101417001D01*
X136664444Y-101435778D01*
X136707717Y-101458909D01*
X136748516Y-101486169D01*
X136786445Y-101517297D01*
X136821142Y-101551994D01*
X136852270Y-101589923D01*
X136879530Y-101630722D01*
X136902661Y-101673995D01*
X136921438Y-101719328D01*
X136935682Y-101766283D01*
X136945254Y-101814408D01*
X136950064Y-101863239D01*
X136950064Y-101887773D01*
X136950666Y-101887773D01*
X136950666Y-102437773D01*
X135450666Y-102437773D01*
X135450666Y-101887773D01*
X135451268Y-101887773D01*
X135451268Y-101887773D01*
G37*
D15*
G04 #@! TO.P,JP2,1*
G04 #@! TO.N,/B10*
X136200666Y-104487773D03*
D16*
G04 #@! TD*
G04 #@! TO.N,/B10*
G04 #@! TO.C,JP2*
G36*
X136950666Y-103937773D02*
X136950666Y-104487773D01*
X136950064Y-104487773D01*
X136950064Y-104512307D01*
X136945254Y-104561138D01*
X136935682Y-104609263D01*
X136921438Y-104656218D01*
X136902661Y-104701551D01*
X136879530Y-104744824D01*
X136852270Y-104785623D01*
X136821142Y-104823552D01*
X136786445Y-104858249D01*
X136748516Y-104889377D01*
X136707717Y-104916637D01*
X136664444Y-104939768D01*
X136619111Y-104958545D01*
X136572156Y-104972789D01*
X136524031Y-104982361D01*
X136475200Y-104987171D01*
X136450666Y-104987171D01*
X136450666Y-104987773D01*
X135950666Y-104987773D01*
X135950666Y-104987171D01*
X135926132Y-104987171D01*
X135877301Y-104982361D01*
X135829176Y-104972789D01*
X135782221Y-104958545D01*
X135736888Y-104939768D01*
X135693615Y-104916637D01*
X135652816Y-104889377D01*
X135614887Y-104858249D01*
X135580190Y-104823552D01*
X135549062Y-104785623D01*
X135521802Y-104744824D01*
X135498671Y-104701551D01*
X135479894Y-104656218D01*
X135465650Y-104609263D01*
X135456078Y-104561138D01*
X135451268Y-104512307D01*
X135451268Y-104487773D01*
X135450666Y-104487773D01*
X135450666Y-103937773D01*
X136950666Y-103937773D01*
X136950666Y-103937773D01*
G37*
D15*
G04 #@! TO.P,JP1,1*
G04 #@! TO.N,VBUS*
X163546000Y-92456000D03*
D16*
G04 #@! TD*
G04 #@! TO.N,VBUS*
G04 #@! TO.C,JP1*
G36*
X164096000Y-93206000D02*
X163546000Y-93206000D01*
X163546000Y-93205398D01*
X163521466Y-93205398D01*
X163472635Y-93200588D01*
X163424510Y-93191016D01*
X163377555Y-93176772D01*
X163332222Y-93157995D01*
X163288949Y-93134864D01*
X163248150Y-93107604D01*
X163210221Y-93076476D01*
X163175524Y-93041779D01*
X163144396Y-93003850D01*
X163117136Y-92963051D01*
X163094005Y-92919778D01*
X163075228Y-92874445D01*
X163060984Y-92827490D01*
X163051412Y-92779365D01*
X163046602Y-92730534D01*
X163046602Y-92706000D01*
X163046000Y-92706000D01*
X163046000Y-92206000D01*
X163046602Y-92206000D01*
X163046602Y-92181466D01*
X163051412Y-92132635D01*
X163060984Y-92084510D01*
X163075228Y-92037555D01*
X163094005Y-91992222D01*
X163117136Y-91948949D01*
X163144396Y-91908150D01*
X163175524Y-91870221D01*
X163210221Y-91835524D01*
X163248150Y-91804396D01*
X163288949Y-91777136D01*
X163332222Y-91754005D01*
X163377555Y-91735228D01*
X163424510Y-91720984D01*
X163472635Y-91711412D01*
X163521466Y-91706602D01*
X163546000Y-91706602D01*
X163546000Y-91706000D01*
X164096000Y-91706000D01*
X164096000Y-93206000D01*
X164096000Y-93206000D01*
G37*
D15*
G04 #@! TO.P,JP1,3*
G04 #@! TO.N,+12V*
X166146000Y-92456000D03*
D16*
G04 #@! TD*
G04 #@! TO.N,+12V*
G04 #@! TO.C,JP1*
G36*
X166146000Y-91706602D02*
X166170534Y-91706602D01*
X166219365Y-91711412D01*
X166267490Y-91720984D01*
X166314445Y-91735228D01*
X166359778Y-91754005D01*
X166403051Y-91777136D01*
X166443850Y-91804396D01*
X166481779Y-91835524D01*
X166516476Y-91870221D01*
X166547604Y-91908150D01*
X166574864Y-91948949D01*
X166597995Y-91992222D01*
X166616772Y-92037555D01*
X166631016Y-92084510D01*
X166640588Y-92132635D01*
X166645398Y-92181466D01*
X166645398Y-92206000D01*
X166646000Y-92206000D01*
X166646000Y-92706000D01*
X166645398Y-92706000D01*
X166645398Y-92730534D01*
X166640588Y-92779365D01*
X166631016Y-92827490D01*
X166616772Y-92874445D01*
X166597995Y-92919778D01*
X166574864Y-92963051D01*
X166547604Y-93003850D01*
X166516476Y-93041779D01*
X166481779Y-93076476D01*
X166443850Y-93107604D01*
X166403051Y-93134864D01*
X166359778Y-93157995D01*
X166314445Y-93176772D01*
X166267490Y-93191016D01*
X166219365Y-93200588D01*
X166170534Y-93205398D01*
X166146000Y-93205398D01*
X166146000Y-93206000D01*
X165596000Y-93206000D01*
X165596000Y-91706000D01*
X166146000Y-91706000D01*
X166146000Y-91706602D01*
X166146000Y-91706602D01*
G37*
D18*
G04 #@! TO.P,JP1,2*
G04 #@! TO.N,/LED+*
X164846000Y-92456000D03*
G04 #@! TD*
D17*
G04 #@! TO.P,JP4,2*
G04 #@! TO.N,/PIN2*
X120921356Y-102927742D03*
D15*
G04 #@! TO.P,JP4,3*
G04 #@! TO.N,/QE2A*
X120921356Y-101627742D03*
D16*
G04 #@! TD*
G04 #@! TO.N,/QE2A*
G04 #@! TO.C,JP4*
G36*
X120171958Y-101627742D02*
X120171958Y-101603208D01*
X120176768Y-101554377D01*
X120186340Y-101506252D01*
X120200584Y-101459297D01*
X120219361Y-101413964D01*
X120242492Y-101370691D01*
X120269752Y-101329892D01*
X120300880Y-101291963D01*
X120335577Y-101257266D01*
X120373506Y-101226138D01*
X120414305Y-101198878D01*
X120457578Y-101175747D01*
X120502911Y-101156970D01*
X120549866Y-101142726D01*
X120597991Y-101133154D01*
X120646822Y-101128344D01*
X120671356Y-101128344D01*
X120671356Y-101127742D01*
X121171356Y-101127742D01*
X121171356Y-101128344D01*
X121195890Y-101128344D01*
X121244721Y-101133154D01*
X121292846Y-101142726D01*
X121339801Y-101156970D01*
X121385134Y-101175747D01*
X121428407Y-101198878D01*
X121469206Y-101226138D01*
X121507135Y-101257266D01*
X121541832Y-101291963D01*
X121572960Y-101329892D01*
X121600220Y-101370691D01*
X121623351Y-101413964D01*
X121642128Y-101459297D01*
X121656372Y-101506252D01*
X121665944Y-101554377D01*
X121670754Y-101603208D01*
X121670754Y-101627742D01*
X121671356Y-101627742D01*
X121671356Y-102177742D01*
X120171356Y-102177742D01*
X120171356Y-101627742D01*
X120171958Y-101627742D01*
X120171958Y-101627742D01*
G37*
D15*
G04 #@! TO.P,JP4,1*
G04 #@! TO.N,/B11*
X120921356Y-104227742D03*
D16*
G04 #@! TD*
G04 #@! TO.N,/B11*
G04 #@! TO.C,JP4*
G36*
X121671356Y-103677742D02*
X121671356Y-104227742D01*
X121670754Y-104227742D01*
X121670754Y-104252276D01*
X121665944Y-104301107D01*
X121656372Y-104349232D01*
X121642128Y-104396187D01*
X121623351Y-104441520D01*
X121600220Y-104484793D01*
X121572960Y-104525592D01*
X121541832Y-104563521D01*
X121507135Y-104598218D01*
X121469206Y-104629346D01*
X121428407Y-104656606D01*
X121385134Y-104679737D01*
X121339801Y-104698514D01*
X121292846Y-104712758D01*
X121244721Y-104722330D01*
X121195890Y-104727140D01*
X121171356Y-104727140D01*
X121171356Y-104727742D01*
X120671356Y-104727742D01*
X120671356Y-104727140D01*
X120646822Y-104727140D01*
X120597991Y-104722330D01*
X120549866Y-104712758D01*
X120502911Y-104698514D01*
X120457578Y-104679737D01*
X120414305Y-104656606D01*
X120373506Y-104629346D01*
X120335577Y-104598218D01*
X120300880Y-104563521D01*
X120269752Y-104525592D01*
X120242492Y-104484793D01*
X120219361Y-104441520D01*
X120200584Y-104396187D01*
X120186340Y-104349232D01*
X120176768Y-104301107D01*
X120171958Y-104252276D01*
X120171958Y-104227742D01*
X120171356Y-104227742D01*
X120171356Y-103677742D01*
X121671356Y-103677742D01*
X121671356Y-103677742D01*
G37*
D15*
G04 #@! TO.P,JP3,1*
G04 #@! TO.N,/B10LED*
X139756666Y-104487773D03*
D16*
G04 #@! TD*
G04 #@! TO.N,/B10LED*
G04 #@! TO.C,JP3*
G36*
X140506666Y-103937773D02*
X140506666Y-104487773D01*
X140506064Y-104487773D01*
X140506064Y-104512307D01*
X140501254Y-104561138D01*
X140491682Y-104609263D01*
X140477438Y-104656218D01*
X140458661Y-104701551D01*
X140435530Y-104744824D01*
X140408270Y-104785623D01*
X140377142Y-104823552D01*
X140342445Y-104858249D01*
X140304516Y-104889377D01*
X140263717Y-104916637D01*
X140220444Y-104939768D01*
X140175111Y-104958545D01*
X140128156Y-104972789D01*
X140080031Y-104982361D01*
X140031200Y-104987171D01*
X140006666Y-104987171D01*
X140006666Y-104987773D01*
X139506666Y-104987773D01*
X139506666Y-104987171D01*
X139482132Y-104987171D01*
X139433301Y-104982361D01*
X139385176Y-104972789D01*
X139338221Y-104958545D01*
X139292888Y-104939768D01*
X139249615Y-104916637D01*
X139208816Y-104889377D01*
X139170887Y-104858249D01*
X139136190Y-104823552D01*
X139105062Y-104785623D01*
X139077802Y-104744824D01*
X139054671Y-104701551D01*
X139035894Y-104656218D01*
X139021650Y-104609263D01*
X139012078Y-104561138D01*
X139007268Y-104512307D01*
X139007268Y-104487773D01*
X139006666Y-104487773D01*
X139006666Y-103937773D01*
X140506666Y-103937773D01*
X140506666Y-103937773D01*
G37*
D15*
G04 #@! TO.P,JP3,3*
G04 #@! TO.N,/QE1B*
X139756666Y-101887773D03*
D16*
G04 #@! TD*
G04 #@! TO.N,/QE1B*
G04 #@! TO.C,JP3*
G36*
X139007268Y-101887773D02*
X139007268Y-101863239D01*
X139012078Y-101814408D01*
X139021650Y-101766283D01*
X139035894Y-101719328D01*
X139054671Y-101673995D01*
X139077802Y-101630722D01*
X139105062Y-101589923D01*
X139136190Y-101551994D01*
X139170887Y-101517297D01*
X139208816Y-101486169D01*
X139249615Y-101458909D01*
X139292888Y-101435778D01*
X139338221Y-101417001D01*
X139385176Y-101402757D01*
X139433301Y-101393185D01*
X139482132Y-101388375D01*
X139506666Y-101388375D01*
X139506666Y-101387773D01*
X140006666Y-101387773D01*
X140006666Y-101388375D01*
X140031200Y-101388375D01*
X140080031Y-101393185D01*
X140128156Y-101402757D01*
X140175111Y-101417001D01*
X140220444Y-101435778D01*
X140263717Y-101458909D01*
X140304516Y-101486169D01*
X140342445Y-101517297D01*
X140377142Y-101551994D01*
X140408270Y-101589923D01*
X140435530Y-101630722D01*
X140458661Y-101673995D01*
X140477438Y-101719328D01*
X140491682Y-101766283D01*
X140501254Y-101814408D01*
X140506064Y-101863239D01*
X140506064Y-101887773D01*
X140506666Y-101887773D01*
X140506666Y-102437773D01*
X139006666Y-102437773D01*
X139006666Y-101887773D01*
X139007268Y-101887773D01*
X139007268Y-101887773D01*
G37*
D17*
G04 #@! TO.P,JP3,2*
G04 #@! TO.N,/PIN0*
X139756666Y-103187773D03*
G04 #@! TD*
D14*
G04 #@! TO.P,Q10,3*
G04 #@! TO.N,Net-(J16-Pad2)*
X132080000Y-120380000D03*
G04 #@! TO.P,Q10,2*
G04 #@! TO.N,GND*
X131130000Y-118380000D03*
G04 #@! TO.P,Q10,1*
G04 #@! TO.N,/B8LED*
X133030000Y-118380000D03*
G04 #@! TD*
G04 #@! TO.P,Q1,3*
G04 #@! TO.N,Net-(J3-Pad2)*
X177800000Y-133080000D03*
G04 #@! TO.P,Q1,2*
G04 #@! TO.N,GND*
X176850000Y-131080000D03*
G04 #@! TO.P,Q1,1*
G04 #@! TO.N,/B1LED*
X178750000Y-131080000D03*
G04 #@! TD*
G04 #@! TO.P,Q2,1*
G04 #@! TO.N,/B2LED*
X178750000Y-118380000D03*
G04 #@! TO.P,Q2,2*
G04 #@! TO.N,GND*
X176850000Y-118380000D03*
G04 #@! TO.P,Q2,3*
G04 #@! TO.N,Net-(J4-Pad2)*
X177800000Y-120380000D03*
G04 #@! TD*
G04 #@! TO.P,Q3,3*
G04 #@! TO.N,Net-(J5-Pad2)*
X162560000Y-133080000D03*
G04 #@! TO.P,Q3,2*
G04 #@! TO.N,GND*
X161610000Y-131080000D03*
G04 #@! TO.P,Q3,1*
G04 #@! TO.N,/B3LED*
X163510000Y-131080000D03*
G04 #@! TD*
G04 #@! TO.P,Q4,1*
G04 #@! TO.N,/B4LED*
X163510000Y-118380000D03*
G04 #@! TO.P,Q4,2*
G04 #@! TO.N,GND*
X161610000Y-118380000D03*
G04 #@! TO.P,Q4,3*
G04 #@! TO.N,Net-(J6-Pad2)*
X162560000Y-120380000D03*
G04 #@! TD*
G04 #@! TO.P,Q5,3*
G04 #@! TO.N,Net-(J8-Pad2)*
X147320000Y-133080000D03*
G04 #@! TO.P,Q5,2*
G04 #@! TO.N,GND*
X146370000Y-131080000D03*
G04 #@! TO.P,Q5,1*
G04 #@! TO.N,/B5LED*
X148270000Y-131080000D03*
G04 #@! TD*
G04 #@! TO.P,Q6,1*
G04 #@! TO.N,/B6LED*
X148270000Y-118380000D03*
G04 #@! TO.P,Q6,2*
G04 #@! TO.N,GND*
X146370000Y-118380000D03*
G04 #@! TO.P,Q6,3*
G04 #@! TO.N,Net-(J9-Pad2)*
X147320000Y-120380000D03*
G04 #@! TD*
G04 #@! TO.P,Q7,3*
G04 #@! TO.N,Net-(J11-Pad2)*
X132080000Y-133080000D03*
G04 #@! TO.P,Q7,2*
G04 #@! TO.N,GND*
X131130000Y-131080000D03*
G04 #@! TO.P,Q7,1*
G04 #@! TO.N,/B7LED*
X133030000Y-131080000D03*
G04 #@! TD*
D19*
G04 #@! TO.N,/B5LED*
X148336000Y-129540000D03*
G04 #@! TO.N,/B7LED*
X133096000Y-129540000D03*
G04 #@! TO.N,/B6LED*
X148082000Y-116332000D03*
X183642000Y-104648000D03*
G04 #@! TO.N,/B5LED*
X150622000Y-100838000D03*
X157988000Y-104140000D03*
G04 #@! TO.N,/B4LED*
X165100000Y-118364000D03*
G04 #@! TO.N,/B3LED*
X163576000Y-129540000D03*
G04 #@! TO.N,/B2LED*
X180340000Y-118364000D03*
G04 #@! TO.N,/B1LED*
X178816000Y-129540000D03*
G04 #@! TO.N,/B9LED*
X117856000Y-129286000D03*
G04 #@! TO.N,/B8LED*
X133096000Y-116840000D03*
G04 #@! TO.N,/PIN0*
X156464000Y-106934000D03*
G04 #@! TO.N,/PIN1*
X137922000Y-105918000D03*
X141986000Y-105918000D03*
X154940000Y-106934000D03*
G04 #@! TO.N,/B6*
X154940000Y-121412000D03*
X154940000Y-117602000D03*
G04 #@! TO.N,/PIN3*
X126492000Y-99568000D03*
X159512000Y-106934000D03*
X143510000Y-102108000D03*
G04 #@! TO.N,/PIN2*
X122682000Y-101346000D03*
X157988000Y-106934000D03*
X143510000Y-103632000D03*
G04 #@! TO.N,/B11*
X120904000Y-105918000D03*
G04 #@! TO.N,/B10*
X136144000Y-105918000D03*
G04 #@! TO.N,/LDAT*
X141986000Y-109982000D03*
G04 #@! TD*
D20*
G04 #@! TO.N,/B5LED*
X148270000Y-131080000D02*
X148270000Y-129606000D01*
X148270000Y-129606000D02*
X148336000Y-129540000D01*
G04 #@! TO.N,/B7LED*
X133030000Y-131080000D02*
X133030000Y-129606000D01*
X133030000Y-129606000D02*
X133096000Y-129540000D01*
G04 #@! TO.N,/B6LED*
X148082000Y-118192000D02*
X148270000Y-118380000D01*
X148082000Y-116332000D02*
X148082000Y-118192000D01*
X184150000Y-97790000D02*
X184150000Y-104140000D01*
X184150000Y-104140000D02*
X183642000Y-104648000D01*
G04 #@! TO.N,/B5LED*
X157988000Y-104140000D02*
X157480000Y-103632000D01*
X157480000Y-103632000D02*
X151384000Y-103632000D01*
X150622000Y-102870000D02*
X150622000Y-100838000D01*
X151384000Y-103632000D02*
X150622000Y-102870000D01*
G04 #@! TO.N,/B4LED*
X165084000Y-118380000D02*
X165100000Y-118364000D01*
X163510000Y-118380000D02*
X165084000Y-118380000D01*
G04 #@! TO.N,/B3LED*
X163510000Y-131080000D02*
X163510000Y-129606000D01*
X163510000Y-129606000D02*
X163576000Y-129540000D01*
G04 #@! TO.N,/B2LED*
X180324000Y-118380000D02*
X180340000Y-118364000D01*
X178750000Y-118380000D02*
X180324000Y-118380000D01*
G04 #@! TO.N,/B1LED*
X178750000Y-129606000D02*
X178816000Y-129540000D01*
X178750000Y-131080000D02*
X178750000Y-129606000D01*
G04 #@! TO.N,/B9LED*
X117790000Y-130826000D02*
X117790000Y-129352000D01*
X117790000Y-129352000D02*
X117856000Y-129286000D01*
G04 #@! TO.N,/B8LED*
X133030000Y-118380000D02*
X133030000Y-116906000D01*
X133030000Y-116906000D02*
X133096000Y-116840000D01*
G04 #@! TO.N,/QE1B*
X138390000Y-100521107D02*
X139756666Y-101887773D01*
X138390000Y-93472000D02*
X138390000Y-100521107D01*
G04 #@! TO.N,/PIN0*
X139756666Y-103187773D02*
X141541773Y-103187773D01*
X141541773Y-103187773D02*
X143635590Y-105281590D01*
X154811590Y-105281590D02*
X154178000Y-105281590D01*
X156464000Y-106934000D02*
X154811590Y-105281590D01*
X143635590Y-105281590D02*
X154178000Y-105281590D01*
G04 #@! TO.N,/PIN1*
X137922000Y-103909107D02*
X137922000Y-105918000D01*
X136200666Y-103187773D02*
X137200666Y-103187773D01*
X137200666Y-103187773D02*
X137922000Y-103909107D01*
X153924000Y-105918000D02*
X154940000Y-106934000D01*
X141986000Y-105918000D02*
X153924000Y-105918000D01*
G04 #@! TO.N,/QE1A*
X135890000Y-101577107D02*
X136200666Y-101887773D01*
X135890000Y-93472000D02*
X135890000Y-101577107D01*
D21*
G04 #@! TO.N,VBUS*
X163576000Y-92456000D02*
X159004000Y-92456000D01*
X157734000Y-92456000D02*
X159004000Y-92456000D01*
X156210000Y-97790000D02*
X156210000Y-93980000D01*
X156210000Y-93980000D02*
X157734000Y-92456000D01*
G04 #@! TO.N,+12V*
X180340000Y-91440000D02*
X175768000Y-91440000D01*
X174468000Y-92456000D02*
X166116000Y-92456000D01*
X175484000Y-91440000D02*
X180340000Y-91440000D01*
X174468000Y-92456000D02*
X175484000Y-91440000D01*
G04 #@! TO.N,/LED+*
X180340000Y-138477436D02*
X180340000Y-140716000D01*
X180260000Y-137160000D02*
X180260000Y-138397436D01*
X180260000Y-138397436D02*
X180340000Y-138477436D01*
X165100000Y-138477436D02*
X165100000Y-140716000D01*
X165020000Y-137160000D02*
X165020000Y-138397436D01*
X165020000Y-138397436D02*
X165100000Y-138477436D01*
X149860000Y-138477436D02*
X149860000Y-140716000D01*
X149780000Y-137160000D02*
X149780000Y-138397436D01*
X149780000Y-138397436D02*
X149860000Y-138477436D01*
X134620000Y-138477436D02*
X134620000Y-140716000D01*
X134540000Y-137160000D02*
X134540000Y-138397436D01*
X134540000Y-138397436D02*
X134620000Y-138477436D01*
X119380000Y-137120000D02*
X119340000Y-137160000D01*
X134620000Y-137120000D02*
X134580000Y-137160000D01*
X149860000Y-137120000D02*
X149820000Y-137160000D01*
X165100000Y-137120000D02*
X165060000Y-137160000D01*
X134540000Y-112997436D02*
X134540000Y-124460000D01*
X134540000Y-111760000D02*
X134540000Y-112997436D01*
X119300000Y-138397436D02*
X119380000Y-138477436D01*
X119380000Y-138477436D02*
X119380000Y-140716000D01*
X119300000Y-137160000D02*
X119300000Y-138397436D01*
X134540000Y-125697436D02*
X134540000Y-137160000D01*
X134540000Y-124460000D02*
X134540000Y-125697436D01*
X149780000Y-124460000D02*
X149780000Y-137160000D01*
X165020000Y-125697436D02*
X165020000Y-137160000D01*
X165020000Y-124460000D02*
X165020000Y-125697436D01*
X180260000Y-125697436D02*
X180260000Y-137160000D01*
X180260000Y-124460000D02*
X180260000Y-125697436D01*
X164846000Y-92456000D02*
X164846000Y-91206000D01*
X164846000Y-91206000D02*
X164846000Y-88646000D01*
X119227001Y-137087001D02*
X119300000Y-137160000D01*
G04 #@! TO.N,/LDAT*
X119300000Y-124410002D02*
X119227001Y-124483001D01*
G04 #@! TO.N,/LED+*
X119300000Y-113792000D02*
X119300000Y-114126000D01*
X119300000Y-111760000D02*
X119300000Y-113792000D01*
X119300000Y-114126000D02*
X118110000Y-115316000D01*
X118110000Y-115316000D02*
X107442000Y-115316000D01*
X114227001Y-124483001D02*
X107465001Y-124483001D01*
D20*
G04 #@! TO.N,/B6*
X154940000Y-121412000D02*
X154940000Y-117602000D01*
G04 #@! TO.N,/QE2A*
X120650000Y-101356386D02*
X120921356Y-101627742D01*
X120650000Y-93472000D02*
X120650000Y-101356386D01*
G04 #@! TO.N,/QE2B*
X123150000Y-100300386D02*
X124477356Y-101627742D01*
X123150000Y-93472000D02*
X123150000Y-100300386D01*
G04 #@! TO.N,/PIN3*
X126492000Y-101913098D02*
X126492000Y-99568000D01*
X124477356Y-102927742D02*
X125477356Y-102927742D01*
X125477356Y-102927742D02*
X126492000Y-101913098D01*
X152146000Y-104140000D02*
X145542000Y-104140000D01*
X145542000Y-104140000D02*
X143510000Y-102108000D01*
X159512000Y-106934000D02*
X156718000Y-104140000D01*
X152146000Y-104140000D02*
X156718000Y-104140000D01*
G04 #@! TO.N,/PIN2*
X122682000Y-102167098D02*
X122682000Y-101346000D01*
X120921356Y-102927742D02*
X121921356Y-102927742D01*
X121921356Y-102927742D02*
X122682000Y-102167098D01*
X150622000Y-104648000D02*
X144526000Y-104648000D01*
X144526000Y-104648000D02*
X143510000Y-103632000D01*
X157262999Y-106208999D02*
X155702000Y-104648000D01*
X157988000Y-106934000D02*
X157262999Y-106208999D01*
X150622000Y-104648000D02*
X155702000Y-104648000D01*
D21*
G04 #@! TO.N,Net-(J11-Pad2)*
X132080000Y-133080000D02*
X132080000Y-137120000D01*
G04 #@! TO.N,Net-(J9-Pad2)*
X147320000Y-124420000D02*
X147280000Y-124460000D01*
X147320000Y-120380000D02*
X147320000Y-124420000D01*
G04 #@! TO.N,Net-(J8-Pad2)*
X147320000Y-133080000D02*
X147320000Y-137120000D01*
G04 #@! TO.N,Net-(J6-Pad2)*
X162560000Y-124420000D02*
X162520000Y-124460000D01*
X162560000Y-120380000D02*
X162560000Y-124420000D01*
G04 #@! TO.N,Net-(J5-Pad2)*
X162560000Y-133080000D02*
X162560000Y-137120000D01*
G04 #@! TO.N,Net-(J4-Pad2)*
X177800000Y-124420000D02*
X177760000Y-124460000D01*
X177800000Y-120380000D02*
X177800000Y-124420000D01*
G04 #@! TO.N,Net-(J3-Pad2)*
X177800000Y-133080000D02*
X177800000Y-137120000D01*
G04 #@! TO.N,Net-(J12-Pad2)*
X132040000Y-107720000D02*
X132080000Y-107680000D01*
X132040000Y-111760000D02*
X132040000Y-107720000D01*
D20*
G04 #@! TO.N,/B11LED*
X124477356Y-104227742D02*
X124477356Y-106154644D01*
X120396000Y-106934000D02*
X119142000Y-105680000D01*
X119142000Y-105680000D02*
X117790000Y-105680000D01*
X124477356Y-106154644D02*
X123698000Y-106934000D01*
X120396000Y-106934000D02*
X123698000Y-106934000D01*
D21*
G04 #@! TO.N,Net-(J16-Pad2)*
X132080000Y-124380000D02*
X132000000Y-124460000D01*
X132080000Y-120380000D02*
X132080000Y-124380000D01*
G04 #@! TO.N,Net-(J17-Pad2)*
X116800000Y-107720000D02*
X116840000Y-107680000D01*
X116800000Y-111760000D02*
X116800000Y-107720000D01*
D20*
G04 #@! TO.N,/B10LED*
X135636000Y-106934000D02*
X134382000Y-105680000D01*
X134382000Y-105680000D02*
X133030000Y-105680000D01*
X139717356Y-106154644D02*
X138938000Y-106934000D01*
X139717356Y-104227742D02*
X139717356Y-106154644D01*
X135636000Y-106934000D02*
X138938000Y-106934000D01*
D21*
G04 #@! TO.N,Net-(J18-Pad2)*
X116800000Y-132866000D02*
X116840000Y-132826000D01*
X116800000Y-137160000D02*
X116800000Y-132866000D01*
D20*
G04 #@! TO.N,/B11*
X120921356Y-104227742D02*
X120921356Y-105900644D01*
G04 #@! TO.N,/B10*
X136161356Y-104227742D02*
X136161356Y-105900644D01*
G04 #@! TO.N,/LDAT*
X151130000Y-113030000D02*
X145034000Y-113030000D01*
X145034000Y-113030000D02*
X141986000Y-109982000D01*
G04 #@! TD*
D22*
G04 #@! TO.N,/LED+*
G36*
X167005000Y-89535000D02*
X110490000Y-89535000D01*
X110441399Y-89544667D01*
X110400197Y-89572197D01*
X110372667Y-89613399D01*
X110363000Y-89662000D01*
X110363000Y-139700000D01*
X110372667Y-139748601D01*
X110400197Y-139789803D01*
X110441399Y-139817333D01*
X110490000Y-139827000D01*
X190006233Y-139827000D01*
X190503974Y-140324741D01*
X191325431Y-140665000D01*
X192214569Y-140665000D01*
X193036026Y-140324741D01*
X193533767Y-139827000D01*
X194870001Y-139827000D01*
X194870001Y-141530000D01*
X103580000Y-141530000D01*
X103580000Y-137985431D01*
X104445000Y-137985431D01*
X104445000Y-138874569D01*
X104785259Y-139696026D01*
X105413974Y-140324741D01*
X106235431Y-140665000D01*
X107124569Y-140665000D01*
X107946026Y-140324741D01*
X108574741Y-139696026D01*
X108915000Y-138874569D01*
X108915000Y-137985431D01*
X108574741Y-137163974D01*
X107946026Y-136535259D01*
X107124569Y-136195000D01*
X106235431Y-136195000D01*
X105413974Y-136535259D01*
X104785259Y-137163974D01*
X104445000Y-137985431D01*
X103580000Y-137985431D01*
X103580000Y-90995431D01*
X104445000Y-90995431D01*
X104445000Y-91884569D01*
X104785259Y-92706026D01*
X105413974Y-93334741D01*
X106235431Y-93675000D01*
X107124569Y-93675000D01*
X107946026Y-93334741D01*
X108574741Y-92706026D01*
X108915000Y-91884569D01*
X108915000Y-90995431D01*
X108574741Y-90173974D01*
X107946026Y-89545259D01*
X107124569Y-89205000D01*
X106235431Y-89205000D01*
X105413974Y-89545259D01*
X104785259Y-90173974D01*
X104445000Y-90995431D01*
X103580000Y-90995431D01*
X103580000Y-88340000D01*
X167005000Y-88340000D01*
X167005000Y-89535000D01*
X167005000Y-89535000D01*
G37*
X167005000Y-89535000D02*
X110490000Y-89535000D01*
X110441399Y-89544667D01*
X110400197Y-89572197D01*
X110372667Y-89613399D01*
X110363000Y-89662000D01*
X110363000Y-139700000D01*
X110372667Y-139748601D01*
X110400197Y-139789803D01*
X110441399Y-139817333D01*
X110490000Y-139827000D01*
X190006233Y-139827000D01*
X190503974Y-140324741D01*
X191325431Y-140665000D01*
X192214569Y-140665000D01*
X193036026Y-140324741D01*
X193533767Y-139827000D01*
X194870001Y-139827000D01*
X194870001Y-141530000D01*
X103580000Y-141530000D01*
X103580000Y-137985431D01*
X104445000Y-137985431D01*
X104445000Y-138874569D01*
X104785259Y-139696026D01*
X105413974Y-140324741D01*
X106235431Y-140665000D01*
X107124569Y-140665000D01*
X107946026Y-140324741D01*
X108574741Y-139696026D01*
X108915000Y-138874569D01*
X108915000Y-137985431D01*
X108574741Y-137163974D01*
X107946026Y-136535259D01*
X107124569Y-136195000D01*
X106235431Y-136195000D01*
X105413974Y-136535259D01*
X104785259Y-137163974D01*
X104445000Y-137985431D01*
X103580000Y-137985431D01*
X103580000Y-90995431D01*
X104445000Y-90995431D01*
X104445000Y-91884569D01*
X104785259Y-92706026D01*
X105413974Y-93334741D01*
X106235431Y-93675000D01*
X107124569Y-93675000D01*
X107946026Y-93334741D01*
X108574741Y-92706026D01*
X108915000Y-91884569D01*
X108915000Y-90995431D01*
X108574741Y-90173974D01*
X107946026Y-89545259D01*
X107124569Y-89205000D01*
X106235431Y-89205000D01*
X105413974Y-89545259D01*
X104785259Y-90173974D01*
X104445000Y-90995431D01*
X103580000Y-90995431D01*
X103580000Y-88340000D01*
X167005000Y-88340000D01*
X167005000Y-89535000D01*
G04 #@! TO.N,GND*
G36*
X194870001Y-139065000D02*
X193926121Y-139065000D01*
X194005000Y-138874569D01*
X194005000Y-137985431D01*
X193664741Y-137163974D01*
X193036026Y-136535259D01*
X192214569Y-136195000D01*
X191325431Y-136195000D01*
X190503974Y-136535259D01*
X189875259Y-137163974D01*
X189535000Y-137985431D01*
X189535000Y-138874569D01*
X189613879Y-139065000D01*
X181225000Y-139065000D01*
X181225000Y-138564595D01*
X181242337Y-138477435D01*
X181225000Y-138390276D01*
X181225000Y-138390271D01*
X181215077Y-138340385D01*
X181333402Y-138222060D01*
X181877545Y-138222060D01*
X181960884Y-138475953D01*
X182525306Y-138681590D01*
X183125458Y-138655579D01*
X183559116Y-138475953D01*
X183642455Y-138222060D01*
X182760000Y-137339605D01*
X181877545Y-138222060D01*
X181333402Y-138222060D01*
X181540116Y-138015346D01*
X181549121Y-137993606D01*
X181697940Y-138042455D01*
X182580395Y-137160000D01*
X182939605Y-137160000D01*
X183822060Y-138042455D01*
X184075953Y-137959116D01*
X184281590Y-137394694D01*
X184255579Y-136794542D01*
X184075953Y-136360884D01*
X183822060Y-136277545D01*
X182939605Y-137160000D01*
X182580395Y-137160000D01*
X181697940Y-136277545D01*
X181549121Y-136326394D01*
X181540116Y-136304654D01*
X181333402Y-136097940D01*
X181877545Y-136097940D01*
X182760000Y-136980395D01*
X183642455Y-136097940D01*
X183559116Y-135844047D01*
X182994694Y-135638410D01*
X182394542Y-135664421D01*
X181960884Y-135844047D01*
X181877545Y-136097940D01*
X181333402Y-136097940D01*
X181145000Y-135909538D01*
X181145000Y-125710462D01*
X181333402Y-125522060D01*
X181877545Y-125522060D01*
X181960884Y-125775953D01*
X182525306Y-125981590D01*
X183125458Y-125955579D01*
X183559116Y-125775953D01*
X183642455Y-125522060D01*
X182760000Y-124639605D01*
X181877545Y-125522060D01*
X181333402Y-125522060D01*
X181540116Y-125315346D01*
X181549121Y-125293606D01*
X181697940Y-125342455D01*
X182580395Y-124460000D01*
X182939605Y-124460000D01*
X183822060Y-125342455D01*
X184075953Y-125259116D01*
X184281590Y-124694694D01*
X184255579Y-124094542D01*
X184075953Y-123660884D01*
X183822060Y-123577545D01*
X182939605Y-124460000D01*
X182580395Y-124460000D01*
X181697940Y-123577545D01*
X181549121Y-123626394D01*
X181540116Y-123604654D01*
X181333402Y-123397940D01*
X181877545Y-123397940D01*
X182760000Y-124280395D01*
X183642455Y-123397940D01*
X183559116Y-123144047D01*
X182994694Y-122938410D01*
X182394542Y-122964421D01*
X181960884Y-123144047D01*
X181877545Y-123397940D01*
X181333402Y-123397940D01*
X181115346Y-123179884D01*
X180560358Y-122950000D01*
X179959642Y-122950000D01*
X179404654Y-123179884D01*
X179010000Y-123574538D01*
X178685000Y-123249538D01*
X178685000Y-121247115D01*
X178798157Y-121077765D01*
X178847440Y-120830000D01*
X178847440Y-119930000D01*
X178798157Y-119682235D01*
X178661316Y-119477440D01*
X179150000Y-119477440D01*
X179397765Y-119428157D01*
X179607809Y-119287809D01*
X179684830Y-119172541D01*
X179753720Y-119241431D01*
X180134126Y-119399000D01*
X180545874Y-119399000D01*
X180926280Y-119241431D01*
X181217431Y-118950280D01*
X181375000Y-118569874D01*
X181375000Y-118158126D01*
X181217431Y-117777720D01*
X180926280Y-117486569D01*
X180545874Y-117329000D01*
X180134126Y-117329000D01*
X179753720Y-117486569D01*
X179672012Y-117568277D01*
X179607809Y-117472191D01*
X179397765Y-117331843D01*
X179150000Y-117282560D01*
X178350000Y-117282560D01*
X178102235Y-117331843D01*
X177892191Y-117472191D01*
X177802987Y-117605694D01*
X177788327Y-117570302D01*
X177609699Y-117391673D01*
X177376310Y-117295000D01*
X177135750Y-117295000D01*
X176977000Y-117453750D01*
X176977000Y-118253000D01*
X176997000Y-118253000D01*
X176997000Y-118507000D01*
X176977000Y-118507000D01*
X176977000Y-119306250D01*
X177062531Y-119391781D01*
X176942191Y-119472191D01*
X176801843Y-119682235D01*
X176752560Y-119930000D01*
X176752560Y-120830000D01*
X176801843Y-121077765D01*
X176915000Y-121247115D01*
X176915001Y-123175598D01*
X176904654Y-123179884D01*
X176735504Y-123349034D01*
X176733157Y-123337235D01*
X176592809Y-123127191D01*
X176382765Y-122986843D01*
X176135000Y-122937560D01*
X174385000Y-122937560D01*
X174137235Y-122986843D01*
X173927191Y-123127191D01*
X173786843Y-123337235D01*
X173737560Y-123585000D01*
X173737560Y-125335000D01*
X173786843Y-125582765D01*
X173927191Y-125792809D01*
X174137235Y-125933157D01*
X174385000Y-125982440D01*
X176135000Y-125982440D01*
X176382765Y-125933157D01*
X176592809Y-125792809D01*
X176733157Y-125582765D01*
X176735504Y-125570966D01*
X176904654Y-125740116D01*
X177459642Y-125970000D01*
X178060358Y-125970000D01*
X178615346Y-125740116D01*
X179010000Y-125345462D01*
X179375000Y-125710462D01*
X179375000Y-128651269D01*
X179021874Y-128505000D01*
X178610126Y-128505000D01*
X178229720Y-128662569D01*
X177938569Y-128953720D01*
X177781000Y-129334126D01*
X177781000Y-129745874D01*
X177938569Y-130126280D01*
X177947514Y-130135225D01*
X177892191Y-130172191D01*
X177802987Y-130305694D01*
X177788327Y-130270302D01*
X177609699Y-130091673D01*
X177376310Y-129995000D01*
X177135750Y-129995000D01*
X176977000Y-130153750D01*
X176977000Y-130953000D01*
X176997000Y-130953000D01*
X176997000Y-131207000D01*
X176977000Y-131207000D01*
X176977000Y-132006250D01*
X177062531Y-132091781D01*
X176942191Y-132172191D01*
X176801843Y-132382235D01*
X176752560Y-132630000D01*
X176752560Y-133530000D01*
X176801843Y-133777765D01*
X176915000Y-133947115D01*
X176915001Y-135875598D01*
X176904654Y-135879884D01*
X176735504Y-136049034D01*
X176733157Y-136037235D01*
X176592809Y-135827191D01*
X176382765Y-135686843D01*
X176135000Y-135637560D01*
X174385000Y-135637560D01*
X174137235Y-135686843D01*
X173927191Y-135827191D01*
X173786843Y-136037235D01*
X173737560Y-136285000D01*
X173737560Y-138035000D01*
X173786843Y-138282765D01*
X173927191Y-138492809D01*
X174137235Y-138633157D01*
X174385000Y-138682440D01*
X176135000Y-138682440D01*
X176382765Y-138633157D01*
X176592809Y-138492809D01*
X176733157Y-138282765D01*
X176735504Y-138270966D01*
X176904654Y-138440116D01*
X177459642Y-138670000D01*
X178060358Y-138670000D01*
X178615346Y-138440116D01*
X179010000Y-138045462D01*
X179358378Y-138393840D01*
X179357663Y-138397436D01*
X179426348Y-138742745D01*
X179455000Y-138785626D01*
X179455000Y-139065000D01*
X165985000Y-139065000D01*
X165985000Y-138564595D01*
X166002337Y-138477435D01*
X165985000Y-138390276D01*
X165985000Y-138390271D01*
X165975077Y-138340385D01*
X166093402Y-138222060D01*
X166637545Y-138222060D01*
X166720884Y-138475953D01*
X167285306Y-138681590D01*
X167885458Y-138655579D01*
X168319116Y-138475953D01*
X168402455Y-138222060D01*
X167520000Y-137339605D01*
X166637545Y-138222060D01*
X166093402Y-138222060D01*
X166300116Y-138015346D01*
X166309121Y-137993606D01*
X166457940Y-138042455D01*
X167340395Y-137160000D01*
X167699605Y-137160000D01*
X168582060Y-138042455D01*
X168835953Y-137959116D01*
X169041590Y-137394694D01*
X169015579Y-136794542D01*
X168835953Y-136360884D01*
X168582060Y-136277545D01*
X167699605Y-137160000D01*
X167340395Y-137160000D01*
X166457940Y-136277545D01*
X166309121Y-136326394D01*
X166300116Y-136304654D01*
X166093402Y-136097940D01*
X166637545Y-136097940D01*
X167520000Y-136980395D01*
X168402455Y-136097940D01*
X168319116Y-135844047D01*
X167754694Y-135638410D01*
X167154542Y-135664421D01*
X166720884Y-135844047D01*
X166637545Y-136097940D01*
X166093402Y-136097940D01*
X165905000Y-135909538D01*
X165905000Y-131365750D01*
X175815000Y-131365750D01*
X175815000Y-131656309D01*
X175911673Y-131889698D01*
X176090301Y-132068327D01*
X176323690Y-132165000D01*
X176564250Y-132165000D01*
X176723000Y-132006250D01*
X176723000Y-131207000D01*
X175973750Y-131207000D01*
X175815000Y-131365750D01*
X165905000Y-131365750D01*
X165905000Y-130503691D01*
X175815000Y-130503691D01*
X175815000Y-130794250D01*
X175973750Y-130953000D01*
X176723000Y-130953000D01*
X176723000Y-130153750D01*
X176564250Y-129995000D01*
X176323690Y-129995000D01*
X176090301Y-130091673D01*
X175911673Y-130270302D01*
X175815000Y-130503691D01*
X165905000Y-130503691D01*
X165905000Y-125710462D01*
X166093402Y-125522060D01*
X166637545Y-125522060D01*
X166720884Y-125775953D01*
X167285306Y-125981590D01*
X167885458Y-125955579D01*
X168319116Y-125775953D01*
X168402455Y-125522060D01*
X167520000Y-124639605D01*
X166637545Y-125522060D01*
X166093402Y-125522060D01*
X166300116Y-125315346D01*
X166309121Y-125293606D01*
X166457940Y-125342455D01*
X167340395Y-124460000D01*
X167699605Y-124460000D01*
X168582060Y-125342455D01*
X168835953Y-125259116D01*
X169041590Y-124694694D01*
X169015579Y-124094542D01*
X168835953Y-123660884D01*
X168582060Y-123577545D01*
X167699605Y-124460000D01*
X167340395Y-124460000D01*
X166457940Y-123577545D01*
X166309121Y-123626394D01*
X166300116Y-123604654D01*
X166093402Y-123397940D01*
X166637545Y-123397940D01*
X167520000Y-124280395D01*
X168402455Y-123397940D01*
X168319116Y-123144047D01*
X167754694Y-122938410D01*
X167154542Y-122964421D01*
X166720884Y-123144047D01*
X166637545Y-123397940D01*
X166093402Y-123397940D01*
X165875346Y-123179884D01*
X165320358Y-122950000D01*
X164719642Y-122950000D01*
X164164654Y-123179884D01*
X163770000Y-123574538D01*
X163445000Y-123249538D01*
X163445000Y-121247115D01*
X163558157Y-121077765D01*
X163607440Y-120830000D01*
X163607440Y-119930000D01*
X163558157Y-119682235D01*
X163421316Y-119477440D01*
X163910000Y-119477440D01*
X164157765Y-119428157D01*
X164367809Y-119287809D01*
X164444830Y-119172541D01*
X164513720Y-119241431D01*
X164894126Y-119399000D01*
X165305874Y-119399000D01*
X165686280Y-119241431D01*
X165977431Y-118950280D01*
X166095286Y-118665750D01*
X175815000Y-118665750D01*
X175815000Y-118956309D01*
X175911673Y-119189698D01*
X176090301Y-119368327D01*
X176323690Y-119465000D01*
X176564250Y-119465000D01*
X176723000Y-119306250D01*
X176723000Y-118507000D01*
X175973750Y-118507000D01*
X175815000Y-118665750D01*
X166095286Y-118665750D01*
X166135000Y-118569874D01*
X166135000Y-118158126D01*
X165988189Y-117803691D01*
X175815000Y-117803691D01*
X175815000Y-118094250D01*
X175973750Y-118253000D01*
X176723000Y-118253000D01*
X176723000Y-117453750D01*
X176564250Y-117295000D01*
X176323690Y-117295000D01*
X176090301Y-117391673D01*
X175911673Y-117570302D01*
X175815000Y-117803691D01*
X165988189Y-117803691D01*
X165977431Y-117777720D01*
X165686280Y-117486569D01*
X165305874Y-117329000D01*
X164894126Y-117329000D01*
X164513720Y-117486569D01*
X164432012Y-117568277D01*
X164367809Y-117472191D01*
X164157765Y-117331843D01*
X163910000Y-117282560D01*
X163110000Y-117282560D01*
X162862235Y-117331843D01*
X162652191Y-117472191D01*
X162562987Y-117605694D01*
X162548327Y-117570302D01*
X162369699Y-117391673D01*
X162136310Y-117295000D01*
X161895750Y-117295000D01*
X161737000Y-117453750D01*
X161737000Y-118253000D01*
X161757000Y-118253000D01*
X161757000Y-118507000D01*
X161737000Y-118507000D01*
X161737000Y-119306250D01*
X161822531Y-119391781D01*
X161702191Y-119472191D01*
X161561843Y-119682235D01*
X161512560Y-119930000D01*
X161512560Y-120830000D01*
X161561843Y-121077765D01*
X161675000Y-121247115D01*
X161675001Y-123175598D01*
X161664654Y-123179884D01*
X161495504Y-123349034D01*
X161493157Y-123337235D01*
X161352809Y-123127191D01*
X161142765Y-122986843D01*
X160895000Y-122937560D01*
X159145000Y-122937560D01*
X158897235Y-122986843D01*
X158687191Y-123127191D01*
X158546843Y-123337235D01*
X158497560Y-123585000D01*
X158497560Y-125335000D01*
X158546843Y-125582765D01*
X158687191Y-125792809D01*
X158897235Y-125933157D01*
X159145000Y-125982440D01*
X160895000Y-125982440D01*
X161142765Y-125933157D01*
X161352809Y-125792809D01*
X161493157Y-125582765D01*
X161495504Y-125570966D01*
X161664654Y-125740116D01*
X162219642Y-125970000D01*
X162820358Y-125970000D01*
X163375346Y-125740116D01*
X163770000Y-125345462D01*
X164135000Y-125710462D01*
X164135000Y-128651269D01*
X163781874Y-128505000D01*
X163370126Y-128505000D01*
X162989720Y-128662569D01*
X162698569Y-128953720D01*
X162541000Y-129334126D01*
X162541000Y-129745874D01*
X162698569Y-130126280D01*
X162707514Y-130135225D01*
X162652191Y-130172191D01*
X162562987Y-130305694D01*
X162548327Y-130270302D01*
X162369699Y-130091673D01*
X162136310Y-129995000D01*
X161895750Y-129995000D01*
X161737000Y-130153750D01*
X161737000Y-130953000D01*
X161757000Y-130953000D01*
X161757000Y-131207000D01*
X161737000Y-131207000D01*
X161737000Y-132006250D01*
X161822531Y-132091781D01*
X161702191Y-132172191D01*
X161561843Y-132382235D01*
X161512560Y-132630000D01*
X161512560Y-133530000D01*
X161561843Y-133777765D01*
X161675000Y-133947115D01*
X161675001Y-135875598D01*
X161664654Y-135879884D01*
X161495504Y-136049034D01*
X161493157Y-136037235D01*
X161352809Y-135827191D01*
X161142765Y-135686843D01*
X160895000Y-135637560D01*
X159145000Y-135637560D01*
X158897235Y-135686843D01*
X158687191Y-135827191D01*
X158546843Y-136037235D01*
X158497560Y-136285000D01*
X158497560Y-138035000D01*
X158546843Y-138282765D01*
X158687191Y-138492809D01*
X158897235Y-138633157D01*
X159145000Y-138682440D01*
X160895000Y-138682440D01*
X161142765Y-138633157D01*
X161352809Y-138492809D01*
X161493157Y-138282765D01*
X161495504Y-138270966D01*
X161664654Y-138440116D01*
X162219642Y-138670000D01*
X162820358Y-138670000D01*
X163375346Y-138440116D01*
X163770000Y-138045462D01*
X164118378Y-138393840D01*
X164117663Y-138397436D01*
X164186348Y-138742745D01*
X164215000Y-138785626D01*
X164215000Y-139065000D01*
X150745000Y-139065000D01*
X150745000Y-138564595D01*
X150762337Y-138477435D01*
X150745000Y-138390276D01*
X150745000Y-138390271D01*
X150735077Y-138340385D01*
X150853402Y-138222060D01*
X151397545Y-138222060D01*
X151480884Y-138475953D01*
X152045306Y-138681590D01*
X152645458Y-138655579D01*
X153079116Y-138475953D01*
X153162455Y-138222060D01*
X152280000Y-137339605D01*
X151397545Y-138222060D01*
X150853402Y-138222060D01*
X151060116Y-138015346D01*
X151069121Y-137993606D01*
X151217940Y-138042455D01*
X152100395Y-137160000D01*
X152459605Y-137160000D01*
X153342060Y-138042455D01*
X153595953Y-137959116D01*
X153801590Y-137394694D01*
X153775579Y-136794542D01*
X153595953Y-136360884D01*
X153342060Y-136277545D01*
X152459605Y-137160000D01*
X152100395Y-137160000D01*
X151217940Y-136277545D01*
X151069121Y-136326394D01*
X151060116Y-136304654D01*
X150853402Y-136097940D01*
X151397545Y-136097940D01*
X152280000Y-136980395D01*
X153162455Y-136097940D01*
X153079116Y-135844047D01*
X152514694Y-135638410D01*
X151914542Y-135664421D01*
X151480884Y-135844047D01*
X151397545Y-136097940D01*
X150853402Y-136097940D01*
X150665000Y-135909538D01*
X150665000Y-131365750D01*
X160575000Y-131365750D01*
X160575000Y-131656309D01*
X160671673Y-131889698D01*
X160850301Y-132068327D01*
X161083690Y-132165000D01*
X161324250Y-132165000D01*
X161483000Y-132006250D01*
X161483000Y-131207000D01*
X160733750Y-131207000D01*
X160575000Y-131365750D01*
X150665000Y-131365750D01*
X150665000Y-130503691D01*
X160575000Y-130503691D01*
X160575000Y-130794250D01*
X160733750Y-130953000D01*
X161483000Y-130953000D01*
X161483000Y-130153750D01*
X161324250Y-129995000D01*
X161083690Y-129995000D01*
X160850301Y-130091673D01*
X160671673Y-130270302D01*
X160575000Y-130503691D01*
X150665000Y-130503691D01*
X150665000Y-125710462D01*
X150853402Y-125522060D01*
X151397545Y-125522060D01*
X151480884Y-125775953D01*
X152045306Y-125981590D01*
X152645458Y-125955579D01*
X153079116Y-125775953D01*
X153162455Y-125522060D01*
X152280000Y-124639605D01*
X151397545Y-125522060D01*
X150853402Y-125522060D01*
X151060116Y-125315346D01*
X151069121Y-125293606D01*
X151217940Y-125342455D01*
X152100395Y-124460000D01*
X152459605Y-124460000D01*
X153342060Y-125342455D01*
X153595953Y-125259116D01*
X153801590Y-124694694D01*
X153775579Y-124094542D01*
X153595953Y-123660884D01*
X153342060Y-123577545D01*
X152459605Y-124460000D01*
X152100395Y-124460000D01*
X151217940Y-123577545D01*
X151069121Y-123626394D01*
X151060116Y-123604654D01*
X150853402Y-123397940D01*
X151397545Y-123397940D01*
X152280000Y-124280395D01*
X153162455Y-123397940D01*
X153079116Y-123144047D01*
X152514694Y-122938410D01*
X151914542Y-122964421D01*
X151480884Y-123144047D01*
X151397545Y-123397940D01*
X150853402Y-123397940D01*
X150635346Y-123179884D01*
X150080358Y-122950000D01*
X149479642Y-122950000D01*
X148924654Y-123179884D01*
X148530000Y-123574538D01*
X148205000Y-123249538D01*
X148205000Y-121247115D01*
X148318157Y-121077765D01*
X148367440Y-120830000D01*
X148367440Y-119930000D01*
X148318157Y-119682235D01*
X148181316Y-119477440D01*
X148670000Y-119477440D01*
X148917765Y-119428157D01*
X149127809Y-119287809D01*
X149268157Y-119077765D01*
X149317440Y-118830000D01*
X149317440Y-117930000D01*
X149268157Y-117682235D01*
X149127809Y-117472191D01*
X149013971Y-117396126D01*
X153905000Y-117396126D01*
X153905000Y-117807874D01*
X154062569Y-118188280D01*
X154180001Y-118305712D01*
X154180000Y-120708289D01*
X154062569Y-120825720D01*
X153905000Y-121206126D01*
X153905000Y-121617874D01*
X154062569Y-121998280D01*
X154353720Y-122289431D01*
X154734126Y-122447000D01*
X155145874Y-122447000D01*
X155526280Y-122289431D01*
X155817431Y-121998280D01*
X155975000Y-121617874D01*
X155975000Y-121206126D01*
X155817431Y-120825720D01*
X155700000Y-120708289D01*
X155700000Y-118665750D01*
X160575000Y-118665750D01*
X160575000Y-118956309D01*
X160671673Y-119189698D01*
X160850301Y-119368327D01*
X161083690Y-119465000D01*
X161324250Y-119465000D01*
X161483000Y-119306250D01*
X161483000Y-118507000D01*
X160733750Y-118507000D01*
X160575000Y-118665750D01*
X155700000Y-118665750D01*
X155700000Y-118305711D01*
X155817431Y-118188280D01*
X155975000Y-117807874D01*
X155975000Y-117803691D01*
X160575000Y-117803691D01*
X160575000Y-118094250D01*
X160733750Y-118253000D01*
X161483000Y-118253000D01*
X161483000Y-117453750D01*
X161324250Y-117295000D01*
X161083690Y-117295000D01*
X160850301Y-117391673D01*
X160671673Y-117570302D01*
X160575000Y-117803691D01*
X155975000Y-117803691D01*
X155975000Y-117396126D01*
X155817431Y-117015720D01*
X155526280Y-116724569D01*
X155145874Y-116567000D01*
X154734126Y-116567000D01*
X154353720Y-116724569D01*
X154062569Y-117015720D01*
X153905000Y-117396126D01*
X149013971Y-117396126D01*
X148917765Y-117331843D01*
X148842000Y-117316773D01*
X148842000Y-117035711D01*
X148959431Y-116918280D01*
X149117000Y-116537874D01*
X149117000Y-116126126D01*
X148959431Y-115745720D01*
X148668280Y-115454569D01*
X148287874Y-115297000D01*
X147876126Y-115297000D01*
X147495720Y-115454569D01*
X147204569Y-115745720D01*
X147047000Y-116126126D01*
X147047000Y-116537874D01*
X147204569Y-116918280D01*
X147322000Y-117035711D01*
X147322001Y-117603313D01*
X147308327Y-117570302D01*
X147129699Y-117391673D01*
X146896310Y-117295000D01*
X146655750Y-117295000D01*
X146497000Y-117453750D01*
X146497000Y-118253000D01*
X146517000Y-118253000D01*
X146517000Y-118507000D01*
X146497000Y-118507000D01*
X146497000Y-119306250D01*
X146582531Y-119391781D01*
X146462191Y-119472191D01*
X146321843Y-119682235D01*
X146272560Y-119930000D01*
X146272560Y-120830000D01*
X146321843Y-121077765D01*
X146435000Y-121247115D01*
X146435001Y-123175598D01*
X146424654Y-123179884D01*
X146255504Y-123349034D01*
X146253157Y-123337235D01*
X146112809Y-123127191D01*
X145902765Y-122986843D01*
X145655000Y-122937560D01*
X143905000Y-122937560D01*
X143657235Y-122986843D01*
X143447191Y-123127191D01*
X143306843Y-123337235D01*
X143257560Y-123585000D01*
X143257560Y-125335000D01*
X143306843Y-125582765D01*
X143447191Y-125792809D01*
X143657235Y-125933157D01*
X143905000Y-125982440D01*
X145655000Y-125982440D01*
X145902765Y-125933157D01*
X146112809Y-125792809D01*
X146253157Y-125582765D01*
X146255504Y-125570966D01*
X146424654Y-125740116D01*
X146979642Y-125970000D01*
X147580358Y-125970000D01*
X148135346Y-125740116D01*
X148530000Y-125345462D01*
X148895000Y-125710462D01*
X148895000Y-128651269D01*
X148541874Y-128505000D01*
X148130126Y-128505000D01*
X147749720Y-128662569D01*
X147458569Y-128953720D01*
X147301000Y-129334126D01*
X147301000Y-129745874D01*
X147458569Y-130126280D01*
X147467514Y-130135225D01*
X147412191Y-130172191D01*
X147322987Y-130305694D01*
X147308327Y-130270302D01*
X147129699Y-130091673D01*
X146896310Y-129995000D01*
X146655750Y-129995000D01*
X146497000Y-130153750D01*
X146497000Y-130953000D01*
X146517000Y-130953000D01*
X146517000Y-131207000D01*
X146497000Y-131207000D01*
X146497000Y-132006250D01*
X146582531Y-132091781D01*
X146462191Y-132172191D01*
X146321843Y-132382235D01*
X146272560Y-132630000D01*
X146272560Y-133530000D01*
X146321843Y-133777765D01*
X146435000Y-133947115D01*
X146435001Y-135875598D01*
X146424654Y-135879884D01*
X146255504Y-136049034D01*
X146253157Y-136037235D01*
X146112809Y-135827191D01*
X145902765Y-135686843D01*
X145655000Y-135637560D01*
X143905000Y-135637560D01*
X143657235Y-135686843D01*
X143447191Y-135827191D01*
X143306843Y-136037235D01*
X143257560Y-136285000D01*
X143257560Y-138035000D01*
X143306843Y-138282765D01*
X143447191Y-138492809D01*
X143657235Y-138633157D01*
X143905000Y-138682440D01*
X145655000Y-138682440D01*
X145902765Y-138633157D01*
X146112809Y-138492809D01*
X146253157Y-138282765D01*
X146255504Y-138270966D01*
X146424654Y-138440116D01*
X146979642Y-138670000D01*
X147580358Y-138670000D01*
X148135346Y-138440116D01*
X148530000Y-138045462D01*
X148878378Y-138393840D01*
X148877663Y-138397436D01*
X148946348Y-138742745D01*
X148975000Y-138785626D01*
X148975000Y-139065000D01*
X135505000Y-139065000D01*
X135505000Y-138564595D01*
X135522337Y-138477435D01*
X135505000Y-138390276D01*
X135505000Y-138390271D01*
X135495077Y-138340385D01*
X135613402Y-138222060D01*
X136157545Y-138222060D01*
X136240884Y-138475953D01*
X136805306Y-138681590D01*
X137405458Y-138655579D01*
X137839116Y-138475953D01*
X137922455Y-138222060D01*
X137040000Y-137339605D01*
X136157545Y-138222060D01*
X135613402Y-138222060D01*
X135820116Y-138015346D01*
X135829121Y-137993606D01*
X135977940Y-138042455D01*
X136860395Y-137160000D01*
X137219605Y-137160000D01*
X138102060Y-138042455D01*
X138355953Y-137959116D01*
X138561590Y-137394694D01*
X138535579Y-136794542D01*
X138355953Y-136360884D01*
X138102060Y-136277545D01*
X137219605Y-137160000D01*
X136860395Y-137160000D01*
X135977940Y-136277545D01*
X135829121Y-136326394D01*
X135820116Y-136304654D01*
X135613402Y-136097940D01*
X136157545Y-136097940D01*
X137040000Y-136980395D01*
X137922455Y-136097940D01*
X137839116Y-135844047D01*
X137274694Y-135638410D01*
X136674542Y-135664421D01*
X136240884Y-135844047D01*
X136157545Y-136097940D01*
X135613402Y-136097940D01*
X135425000Y-135909538D01*
X135425000Y-131365750D01*
X145335000Y-131365750D01*
X145335000Y-131656309D01*
X145431673Y-131889698D01*
X145610301Y-132068327D01*
X145843690Y-132165000D01*
X146084250Y-132165000D01*
X146243000Y-132006250D01*
X146243000Y-131207000D01*
X145493750Y-131207000D01*
X145335000Y-131365750D01*
X135425000Y-131365750D01*
X135425000Y-130503691D01*
X145335000Y-130503691D01*
X145335000Y-130794250D01*
X145493750Y-130953000D01*
X146243000Y-130953000D01*
X146243000Y-130153750D01*
X146084250Y-129995000D01*
X145843690Y-129995000D01*
X145610301Y-130091673D01*
X145431673Y-130270302D01*
X145335000Y-130503691D01*
X135425000Y-130503691D01*
X135425000Y-125710462D01*
X135613402Y-125522060D01*
X136157545Y-125522060D01*
X136240884Y-125775953D01*
X136805306Y-125981590D01*
X137405458Y-125955579D01*
X137839116Y-125775953D01*
X137922455Y-125522060D01*
X137040000Y-124639605D01*
X136157545Y-125522060D01*
X135613402Y-125522060D01*
X135820116Y-125315346D01*
X135829121Y-125293606D01*
X135977940Y-125342455D01*
X136860395Y-124460000D01*
X137219605Y-124460000D01*
X138102060Y-125342455D01*
X138355953Y-125259116D01*
X138561590Y-124694694D01*
X138535579Y-124094542D01*
X138355953Y-123660884D01*
X138102060Y-123577545D01*
X137219605Y-124460000D01*
X136860395Y-124460000D01*
X135977940Y-123577545D01*
X135829121Y-123626394D01*
X135820116Y-123604654D01*
X135613402Y-123397940D01*
X136157545Y-123397940D01*
X137040000Y-124280395D01*
X137922455Y-123397940D01*
X137839116Y-123144047D01*
X137274694Y-122938410D01*
X136674542Y-122964421D01*
X136240884Y-123144047D01*
X136157545Y-123397940D01*
X135613402Y-123397940D01*
X135425000Y-123209538D01*
X135425000Y-118665750D01*
X145335000Y-118665750D01*
X145335000Y-118956309D01*
X145431673Y-119189698D01*
X145610301Y-119368327D01*
X145843690Y-119465000D01*
X146084250Y-119465000D01*
X146243000Y-119306250D01*
X146243000Y-118507000D01*
X145493750Y-118507000D01*
X145335000Y-118665750D01*
X135425000Y-118665750D01*
X135425000Y-117803691D01*
X145335000Y-117803691D01*
X145335000Y-118094250D01*
X145493750Y-118253000D01*
X146243000Y-118253000D01*
X146243000Y-117453750D01*
X146084250Y-117295000D01*
X145843690Y-117295000D01*
X145610301Y-117391673D01*
X145431673Y-117570302D01*
X145335000Y-117803691D01*
X135425000Y-117803691D01*
X135425000Y-113010462D01*
X135613402Y-112822060D01*
X136157545Y-112822060D01*
X136240884Y-113075953D01*
X136805306Y-113281590D01*
X137405458Y-113255579D01*
X137839116Y-113075953D01*
X137922455Y-112822060D01*
X137040000Y-111939605D01*
X136157545Y-112822060D01*
X135613402Y-112822060D01*
X135820116Y-112615346D01*
X135829121Y-112593606D01*
X135977940Y-112642455D01*
X136860395Y-111760000D01*
X137219605Y-111760000D01*
X138102060Y-112642455D01*
X138355953Y-112559116D01*
X138561590Y-111994694D01*
X138535579Y-111394542D01*
X138355953Y-110960884D01*
X138102060Y-110877545D01*
X137219605Y-111760000D01*
X136860395Y-111760000D01*
X135977940Y-110877545D01*
X135829121Y-110926394D01*
X135820116Y-110904654D01*
X135613402Y-110697940D01*
X136157545Y-110697940D01*
X137040000Y-111580395D01*
X137922455Y-110697940D01*
X137839116Y-110444047D01*
X137274694Y-110238410D01*
X136674542Y-110264421D01*
X136240884Y-110444047D01*
X136157545Y-110697940D01*
X135613402Y-110697940D01*
X135395346Y-110479884D01*
X134840358Y-110250000D01*
X134239642Y-110250000D01*
X133684654Y-110479884D01*
X133290000Y-110874538D01*
X132925000Y-110509538D01*
X132925000Y-109776126D01*
X140951000Y-109776126D01*
X140951000Y-110187874D01*
X141108569Y-110568280D01*
X141399720Y-110859431D01*
X141780126Y-111017000D01*
X141946199Y-111017000D01*
X144443671Y-113514473D01*
X144486071Y-113577929D01*
X144737463Y-113745904D01*
X144959148Y-113790000D01*
X144959153Y-113790000D01*
X145034000Y-113804888D01*
X145108847Y-113790000D01*
X149851822Y-113790000D01*
X150059375Y-114100625D01*
X150550582Y-114428839D01*
X150983744Y-114515000D01*
X151276256Y-114515000D01*
X151709418Y-114428839D01*
X152200625Y-114100625D01*
X152400000Y-113802239D01*
X152599375Y-114100625D01*
X153090582Y-114428839D01*
X153523744Y-114515000D01*
X153816256Y-114515000D01*
X154249418Y-114428839D01*
X154740625Y-114100625D01*
X154940000Y-113802239D01*
X155139375Y-114100625D01*
X155630582Y-114428839D01*
X156063744Y-114515000D01*
X156356256Y-114515000D01*
X156789418Y-114428839D01*
X157280625Y-114100625D01*
X157480000Y-113802239D01*
X157679375Y-114100625D01*
X158170582Y-114428839D01*
X158603744Y-114515000D01*
X158896256Y-114515000D01*
X159329418Y-114428839D01*
X159820625Y-114100625D01*
X160020000Y-113802239D01*
X160219375Y-114100625D01*
X160710582Y-114428839D01*
X161143744Y-114515000D01*
X161436256Y-114515000D01*
X161869418Y-114428839D01*
X162360625Y-114100625D01*
X162573843Y-113781522D01*
X162634817Y-113911358D01*
X163063076Y-114301645D01*
X163473110Y-114471476D01*
X163703000Y-114350155D01*
X163703000Y-113157000D01*
X163683000Y-113157000D01*
X163683000Y-112903000D01*
X163703000Y-112903000D01*
X163703000Y-111709845D01*
X163957000Y-111709845D01*
X163957000Y-112903000D01*
X163977000Y-112903000D01*
X163977000Y-113157000D01*
X163957000Y-113157000D01*
X163957000Y-114350155D01*
X164186890Y-114471476D01*
X164596924Y-114301645D01*
X165025183Y-113911358D01*
X165086157Y-113781522D01*
X165299375Y-114100625D01*
X165790582Y-114428839D01*
X166223744Y-114515000D01*
X166516256Y-114515000D01*
X166949418Y-114428839D01*
X167440625Y-114100625D01*
X167640000Y-113802239D01*
X167839375Y-114100625D01*
X168330582Y-114428839D01*
X168763744Y-114515000D01*
X169056256Y-114515000D01*
X169489418Y-114428839D01*
X169980625Y-114100625D01*
X170180000Y-113802239D01*
X170379375Y-114100625D01*
X170870582Y-114428839D01*
X171303744Y-114515000D01*
X171596256Y-114515000D01*
X172029418Y-114428839D01*
X172520625Y-114100625D01*
X172720000Y-113802239D01*
X172919375Y-114100625D01*
X173410582Y-114428839D01*
X173843744Y-114515000D01*
X174136256Y-114515000D01*
X174569418Y-114428839D01*
X175060625Y-114100625D01*
X175260000Y-113802239D01*
X175459375Y-114100625D01*
X175950582Y-114428839D01*
X176383744Y-114515000D01*
X176676256Y-114515000D01*
X177109418Y-114428839D01*
X177600625Y-114100625D01*
X177800000Y-113802239D01*
X177999375Y-114100625D01*
X178490582Y-114428839D01*
X178923744Y-114515000D01*
X179216256Y-114515000D01*
X179649418Y-114428839D01*
X180140625Y-114100625D01*
X180340000Y-113802239D01*
X180539375Y-114100625D01*
X181030582Y-114428839D01*
X181463744Y-114515000D01*
X181756256Y-114515000D01*
X182189418Y-114428839D01*
X182680625Y-114100625D01*
X182880000Y-113802239D01*
X183079375Y-114100625D01*
X183570582Y-114428839D01*
X184003744Y-114515000D01*
X184296256Y-114515000D01*
X184729418Y-114428839D01*
X185220625Y-114100625D01*
X185420000Y-113802239D01*
X185619375Y-114100625D01*
X186110582Y-114428839D01*
X186543744Y-114515000D01*
X186836256Y-114515000D01*
X187269418Y-114428839D01*
X187760625Y-114100625D01*
X187960000Y-113802239D01*
X188159375Y-114100625D01*
X188650582Y-114428839D01*
X189083744Y-114515000D01*
X189376256Y-114515000D01*
X189809418Y-114428839D01*
X190300625Y-114100625D01*
X190312816Y-114082381D01*
X190321843Y-114127765D01*
X190462191Y-114337809D01*
X190672235Y-114478157D01*
X190920000Y-114527440D01*
X192620000Y-114527440D01*
X192867765Y-114478157D01*
X193077809Y-114337809D01*
X193218157Y-114127765D01*
X193267440Y-113880000D01*
X193267440Y-112180000D01*
X193218157Y-111932235D01*
X193077809Y-111722191D01*
X192867765Y-111581843D01*
X192620000Y-111532560D01*
X190920000Y-111532560D01*
X190672235Y-111581843D01*
X190462191Y-111722191D01*
X190321843Y-111932235D01*
X190312816Y-111977619D01*
X190300625Y-111959375D01*
X189809418Y-111631161D01*
X189376256Y-111545000D01*
X189083744Y-111545000D01*
X188650582Y-111631161D01*
X188159375Y-111959375D01*
X187960000Y-112257761D01*
X187760625Y-111959375D01*
X187269418Y-111631161D01*
X186836256Y-111545000D01*
X186543744Y-111545000D01*
X186110582Y-111631161D01*
X185619375Y-111959375D01*
X185420000Y-112257761D01*
X185220625Y-111959375D01*
X184729418Y-111631161D01*
X184296256Y-111545000D01*
X184003744Y-111545000D01*
X183570582Y-111631161D01*
X183079375Y-111959375D01*
X182880000Y-112257761D01*
X182680625Y-111959375D01*
X182189418Y-111631161D01*
X181756256Y-111545000D01*
X181463744Y-111545000D01*
X181030582Y-111631161D01*
X180539375Y-111959375D01*
X180340000Y-112257761D01*
X180140625Y-111959375D01*
X179649418Y-111631161D01*
X179216256Y-111545000D01*
X178923744Y-111545000D01*
X178490582Y-111631161D01*
X177999375Y-111959375D01*
X177800000Y-112257761D01*
X177600625Y-111959375D01*
X177109418Y-111631161D01*
X176676256Y-111545000D01*
X176383744Y-111545000D01*
X175950582Y-111631161D01*
X175459375Y-111959375D01*
X175260000Y-112257761D01*
X175060625Y-111959375D01*
X174569418Y-111631161D01*
X174136256Y-111545000D01*
X173843744Y-111545000D01*
X173410582Y-111631161D01*
X172919375Y-111959375D01*
X172720000Y-112257761D01*
X172520625Y-111959375D01*
X172029418Y-111631161D01*
X171596256Y-111545000D01*
X171303744Y-111545000D01*
X170870582Y-111631161D01*
X170379375Y-111959375D01*
X170180000Y-112257761D01*
X169980625Y-111959375D01*
X169489418Y-111631161D01*
X169056256Y-111545000D01*
X168763744Y-111545000D01*
X168330582Y-111631161D01*
X167839375Y-111959375D01*
X167640000Y-112257761D01*
X167440625Y-111959375D01*
X166949418Y-111631161D01*
X166516256Y-111545000D01*
X166223744Y-111545000D01*
X165790582Y-111631161D01*
X165299375Y-111959375D01*
X165086157Y-112278478D01*
X165025183Y-112148642D01*
X164596924Y-111758355D01*
X164186890Y-111588524D01*
X163957000Y-111709845D01*
X163703000Y-111709845D01*
X163473110Y-111588524D01*
X163063076Y-111758355D01*
X162634817Y-112148642D01*
X162573843Y-112278478D01*
X162360625Y-111959375D01*
X161869418Y-111631161D01*
X161436256Y-111545000D01*
X161143744Y-111545000D01*
X160710582Y-111631161D01*
X160219375Y-111959375D01*
X160020000Y-112257761D01*
X159820625Y-111959375D01*
X159329418Y-111631161D01*
X158896256Y-111545000D01*
X158603744Y-111545000D01*
X158170582Y-111631161D01*
X157679375Y-111959375D01*
X157480000Y-112257761D01*
X157280625Y-111959375D01*
X156789418Y-111631161D01*
X156356256Y-111545000D01*
X156063744Y-111545000D01*
X155630582Y-111631161D01*
X155139375Y-111959375D01*
X154940000Y-112257761D01*
X154740625Y-111959375D01*
X154249418Y-111631161D01*
X153816256Y-111545000D01*
X153523744Y-111545000D01*
X153090582Y-111631161D01*
X152599375Y-111959375D01*
X152400000Y-112257761D01*
X152200625Y-111959375D01*
X151709418Y-111631161D01*
X151276256Y-111545000D01*
X150983744Y-111545000D01*
X150550582Y-111631161D01*
X150059375Y-111959375D01*
X149851822Y-112270000D01*
X145348802Y-112270000D01*
X143021000Y-109942199D01*
X143021000Y-109776126D01*
X142863431Y-109395720D01*
X142572280Y-109104569D01*
X142191874Y-108947000D01*
X141780126Y-108947000D01*
X141399720Y-109104569D01*
X141108569Y-109395720D01*
X140951000Y-109776126D01*
X132925000Y-109776126D01*
X132925000Y-108596368D01*
X132937809Y-108587809D01*
X133078157Y-108377765D01*
X133127440Y-108130000D01*
X133127440Y-107230000D01*
X133078157Y-106982235D01*
X132941316Y-106777440D01*
X133430000Y-106777440D01*
X133677765Y-106728157D01*
X133887809Y-106587809D01*
X133986573Y-106440000D01*
X134067199Y-106440000D01*
X135045671Y-107418473D01*
X135088071Y-107481929D01*
X135151527Y-107524329D01*
X135339462Y-107649904D01*
X135387605Y-107659480D01*
X135561148Y-107694000D01*
X135561152Y-107694000D01*
X135636000Y-107708888D01*
X135710848Y-107694000D01*
X138863153Y-107694000D01*
X138938000Y-107708888D01*
X139012847Y-107694000D01*
X139012852Y-107694000D01*
X139234537Y-107649904D01*
X139485929Y-107481929D01*
X139528331Y-107418470D01*
X140201829Y-106744973D01*
X140265285Y-106702573D01*
X140345475Y-106582560D01*
X140433260Y-106451182D01*
X140447863Y-106377765D01*
X140477356Y-106229496D01*
X140477356Y-106229492D01*
X140492244Y-106154644D01*
X140477356Y-106079796D01*
X140477356Y-105532181D01*
X140490126Y-105526892D01*
X140602063Y-105467060D01*
X140683562Y-105412604D01*
X140781672Y-105332087D01*
X140850980Y-105262779D01*
X140931497Y-105164669D01*
X140985953Y-105083170D01*
X141045785Y-104971233D01*
X141083294Y-104880677D01*
X141120136Y-104759224D01*
X141139258Y-104663091D01*
X141151698Y-104536782D01*
X141151698Y-104499879D01*
X141154106Y-104487773D01*
X141154106Y-103947773D01*
X141226972Y-103947773D01*
X142162198Y-104883000D01*
X141780126Y-104883000D01*
X141399720Y-105040569D01*
X141108569Y-105331720D01*
X140951000Y-105712126D01*
X140951000Y-106123874D01*
X141108569Y-106504280D01*
X141399720Y-106795431D01*
X141780126Y-106953000D01*
X142191874Y-106953000D01*
X142572280Y-106795431D01*
X142689711Y-106678000D01*
X153609199Y-106678000D01*
X153905000Y-106973802D01*
X153905000Y-107139874D01*
X154062569Y-107520280D01*
X154353720Y-107811431D01*
X154734126Y-107969000D01*
X155145874Y-107969000D01*
X155526280Y-107811431D01*
X155702000Y-107635711D01*
X155877720Y-107811431D01*
X156258126Y-107969000D01*
X156669874Y-107969000D01*
X157050280Y-107811431D01*
X157226000Y-107635711D01*
X157401720Y-107811431D01*
X157782126Y-107969000D01*
X158193874Y-107969000D01*
X158574280Y-107811431D01*
X158750000Y-107635711D01*
X158925720Y-107811431D01*
X159306126Y-107969000D01*
X159717874Y-107969000D01*
X160098280Y-107811431D01*
X160389431Y-107520280D01*
X160547000Y-107139874D01*
X160547000Y-106728126D01*
X160389431Y-106347720D01*
X160098280Y-106056569D01*
X159717874Y-105899000D01*
X159551802Y-105899000D01*
X158622256Y-104969455D01*
X158865431Y-104726280D01*
X159023000Y-104345874D01*
X159023000Y-103934126D01*
X158865431Y-103553720D01*
X158574280Y-103262569D01*
X158193874Y-103105000D01*
X158041913Y-103105000D01*
X158027929Y-103084071D01*
X157776537Y-102916096D01*
X157554852Y-102872000D01*
X157554847Y-102872000D01*
X157480000Y-102857112D01*
X157405153Y-102872000D01*
X151698802Y-102872000D01*
X151382000Y-102555199D01*
X151382000Y-101541711D01*
X151499431Y-101424280D01*
X151657000Y-101043874D01*
X151657000Y-100632126D01*
X151499431Y-100251720D01*
X151208280Y-99960569D01*
X150827874Y-99803000D01*
X150416126Y-99803000D01*
X150035720Y-99960569D01*
X149744569Y-100251720D01*
X149587000Y-100632126D01*
X149587000Y-101043874D01*
X149744569Y-101424280D01*
X149862001Y-101541712D01*
X149862000Y-102795153D01*
X149847112Y-102870000D01*
X149862000Y-102944847D01*
X149862000Y-102944851D01*
X149906096Y-103166536D01*
X150048728Y-103380000D01*
X145856802Y-103380000D01*
X144545000Y-102068199D01*
X144545000Y-101902126D01*
X144387431Y-101521720D01*
X144096280Y-101230569D01*
X143715874Y-101073000D01*
X143304126Y-101073000D01*
X142923720Y-101230569D01*
X142632569Y-101521720D01*
X142475000Y-101902126D01*
X142475000Y-102313874D01*
X142632569Y-102694280D01*
X142808289Y-102870000D01*
X142632569Y-103045720D01*
X142586278Y-103157477D01*
X142132104Y-102703303D01*
X142089702Y-102639844D01*
X141838310Y-102471869D01*
X141616625Y-102427773D01*
X141616620Y-102427773D01*
X141541773Y-102412885D01*
X141466926Y-102427773D01*
X141154106Y-102427773D01*
X141154106Y-101887773D01*
X141151698Y-101875667D01*
X141151698Y-101838764D01*
X141139258Y-101712455D01*
X141120136Y-101616322D01*
X141083294Y-101494869D01*
X141045785Y-101404313D01*
X140985953Y-101292376D01*
X140931497Y-101210877D01*
X140850980Y-101112767D01*
X140781672Y-101043459D01*
X140683562Y-100962942D01*
X140602063Y-100908486D01*
X140490126Y-100848654D01*
X140399570Y-100811145D01*
X140278117Y-100774303D01*
X140181984Y-100755181D01*
X140055675Y-100742741D01*
X140018772Y-100742741D01*
X140006666Y-100740333D01*
X139684028Y-100740333D01*
X139150000Y-100206306D01*
X139150000Y-94791610D01*
X139245346Y-94752116D01*
X139640000Y-94357462D01*
X140034654Y-94752116D01*
X140589642Y-94982000D01*
X141190358Y-94982000D01*
X141745346Y-94752116D01*
X141963402Y-94534060D01*
X142507545Y-94534060D01*
X142590884Y-94787953D01*
X143155306Y-94993590D01*
X143755458Y-94967579D01*
X144189116Y-94787953D01*
X144272455Y-94534060D01*
X143390000Y-93651605D01*
X142507545Y-94534060D01*
X141963402Y-94534060D01*
X142170116Y-94327346D01*
X142179121Y-94305606D01*
X142327940Y-94354455D01*
X143210395Y-93472000D01*
X143569605Y-93472000D01*
X144452060Y-94354455D01*
X144705953Y-94271116D01*
X144911590Y-93706694D01*
X144885579Y-93106542D01*
X144705953Y-92672884D01*
X144452060Y-92589545D01*
X143569605Y-93472000D01*
X143210395Y-93472000D01*
X142327940Y-92589545D01*
X142179121Y-92638394D01*
X142170116Y-92616654D01*
X141963402Y-92409940D01*
X142507545Y-92409940D01*
X143390000Y-93292395D01*
X144272455Y-92409940D01*
X144189116Y-92156047D01*
X143624694Y-91950410D01*
X143024542Y-91976421D01*
X142590884Y-92156047D01*
X142507545Y-92409940D01*
X141963402Y-92409940D01*
X141745346Y-92191884D01*
X141190358Y-91962000D01*
X140589642Y-91962000D01*
X140034654Y-92191884D01*
X139640000Y-92586538D01*
X139245346Y-92191884D01*
X138690358Y-91962000D01*
X138089642Y-91962000D01*
X137534654Y-92191884D01*
X137365504Y-92361034D01*
X137363157Y-92349235D01*
X137222809Y-92139191D01*
X137012765Y-91998843D01*
X136765000Y-91949560D01*
X135015000Y-91949560D01*
X134767235Y-91998843D01*
X134557191Y-92139191D01*
X134416843Y-92349235D01*
X134367560Y-92597000D01*
X134367560Y-94347000D01*
X134416843Y-94594765D01*
X134557191Y-94804809D01*
X134767235Y-94945157D01*
X135015000Y-94994440D01*
X135130000Y-94994440D01*
X135130001Y-101089118D01*
X135106352Y-101112767D01*
X135025835Y-101210877D01*
X134971379Y-101292376D01*
X134911547Y-101404313D01*
X134874038Y-101494869D01*
X134837196Y-101616322D01*
X134818074Y-101712455D01*
X134805634Y-101838764D01*
X134805634Y-101875667D01*
X134803226Y-101887773D01*
X134803226Y-102437773D01*
X134828090Y-102562773D01*
X134803226Y-102687773D01*
X134803226Y-103687773D01*
X134828090Y-103812773D01*
X134803226Y-103937773D01*
X134803226Y-104487773D01*
X134805634Y-104499879D01*
X134805634Y-104536782D01*
X134818074Y-104663091D01*
X134837196Y-104759224D01*
X134874038Y-104880677D01*
X134911547Y-104971233D01*
X134971379Y-105083170D01*
X135025835Y-105164669D01*
X135106352Y-105262779D01*
X135175660Y-105332087D01*
X135243392Y-105387674D01*
X135220278Y-105443477D01*
X134972331Y-105195530D01*
X134929929Y-105132071D01*
X134678537Y-104964096D01*
X134456852Y-104920000D01*
X134456847Y-104920000D01*
X134382000Y-104905112D01*
X134307153Y-104920000D01*
X133986573Y-104920000D01*
X133887809Y-104772191D01*
X133677765Y-104631843D01*
X133430000Y-104582560D01*
X132630000Y-104582560D01*
X132382235Y-104631843D01*
X132172191Y-104772191D01*
X132082987Y-104905694D01*
X132068327Y-104870302D01*
X131889699Y-104691673D01*
X131656310Y-104595000D01*
X131415750Y-104595000D01*
X131257000Y-104753750D01*
X131257000Y-105553000D01*
X131277000Y-105553000D01*
X131277000Y-105807000D01*
X131257000Y-105807000D01*
X131257000Y-106606250D01*
X131342531Y-106691781D01*
X131222191Y-106772191D01*
X131081843Y-106982235D01*
X131032560Y-107230000D01*
X131032560Y-108130000D01*
X131081843Y-108377765D01*
X131155001Y-108487253D01*
X131155000Y-110509538D01*
X131015504Y-110649034D01*
X131013157Y-110637235D01*
X130872809Y-110427191D01*
X130662765Y-110286843D01*
X130415000Y-110237560D01*
X128665000Y-110237560D01*
X128417235Y-110286843D01*
X128207191Y-110427191D01*
X128066843Y-110637235D01*
X128017560Y-110885000D01*
X128017560Y-112635000D01*
X128066843Y-112882765D01*
X128207191Y-113092809D01*
X128417235Y-113233157D01*
X128665000Y-113282440D01*
X130415000Y-113282440D01*
X130662765Y-113233157D01*
X130872809Y-113092809D01*
X131013157Y-112882765D01*
X131015504Y-112870966D01*
X131184654Y-113040116D01*
X131739642Y-113270000D01*
X132340358Y-113270000D01*
X132895346Y-113040116D01*
X133290000Y-112645462D01*
X133655000Y-113010462D01*
X133655000Y-115951269D01*
X133301874Y-115805000D01*
X132890126Y-115805000D01*
X132509720Y-115962569D01*
X132218569Y-116253720D01*
X132061000Y-116634126D01*
X132061000Y-117045874D01*
X132218569Y-117426280D01*
X132227514Y-117435225D01*
X132172191Y-117472191D01*
X132082987Y-117605694D01*
X132068327Y-117570302D01*
X131889699Y-117391673D01*
X131656310Y-117295000D01*
X131415750Y-117295000D01*
X131257000Y-117453750D01*
X131257000Y-118253000D01*
X131277000Y-118253000D01*
X131277000Y-118507000D01*
X131257000Y-118507000D01*
X131257000Y-119306250D01*
X131342531Y-119391781D01*
X131222191Y-119472191D01*
X131081843Y-119682235D01*
X131032560Y-119930000D01*
X131032560Y-120830000D01*
X131081843Y-121077765D01*
X131195000Y-121247115D01*
X131195001Y-123175598D01*
X131184654Y-123179884D01*
X131015504Y-123349034D01*
X131013157Y-123337235D01*
X130872809Y-123127191D01*
X130662765Y-122986843D01*
X130415000Y-122937560D01*
X128665000Y-122937560D01*
X128417235Y-122986843D01*
X128207191Y-123127191D01*
X128066843Y-123337235D01*
X128017560Y-123585000D01*
X128017560Y-125335000D01*
X128066843Y-125582765D01*
X128207191Y-125792809D01*
X128417235Y-125933157D01*
X128665000Y-125982440D01*
X130415000Y-125982440D01*
X130662765Y-125933157D01*
X130872809Y-125792809D01*
X131013157Y-125582765D01*
X131015504Y-125570966D01*
X131184654Y-125740116D01*
X131739642Y-125970000D01*
X132340358Y-125970000D01*
X132895346Y-125740116D01*
X133290000Y-125345462D01*
X133655000Y-125710462D01*
X133655000Y-128651269D01*
X133301874Y-128505000D01*
X132890126Y-128505000D01*
X132509720Y-128662569D01*
X132218569Y-128953720D01*
X132061000Y-129334126D01*
X132061000Y-129745874D01*
X132218569Y-130126280D01*
X132227514Y-130135225D01*
X132172191Y-130172191D01*
X132082987Y-130305694D01*
X132068327Y-130270302D01*
X131889699Y-130091673D01*
X131656310Y-129995000D01*
X131415750Y-129995000D01*
X131257000Y-130153750D01*
X131257000Y-130953000D01*
X131277000Y-130953000D01*
X131277000Y-131207000D01*
X131257000Y-131207000D01*
X131257000Y-132006250D01*
X131342531Y-132091781D01*
X131222191Y-132172191D01*
X131081843Y-132382235D01*
X131032560Y-132630000D01*
X131032560Y-133530000D01*
X131081843Y-133777765D01*
X131195000Y-133947115D01*
X131195001Y-135875598D01*
X131184654Y-135879884D01*
X131015504Y-136049034D01*
X131013157Y-136037235D01*
X130872809Y-135827191D01*
X130662765Y-135686843D01*
X130415000Y-135637560D01*
X128665000Y-135637560D01*
X128417235Y-135686843D01*
X128207191Y-135827191D01*
X128066843Y-136037235D01*
X128017560Y-136285000D01*
X128017560Y-138035000D01*
X128066843Y-138282765D01*
X128207191Y-138492809D01*
X128417235Y-138633157D01*
X128665000Y-138682440D01*
X130415000Y-138682440D01*
X130662765Y-138633157D01*
X130872809Y-138492809D01*
X131013157Y-138282765D01*
X131015504Y-138270966D01*
X131184654Y-138440116D01*
X131739642Y-138670000D01*
X132340358Y-138670000D01*
X132895346Y-138440116D01*
X133290000Y-138045462D01*
X133638378Y-138393840D01*
X133637663Y-138397436D01*
X133706348Y-138742745D01*
X133735000Y-138785626D01*
X133735000Y-139065000D01*
X120265000Y-139065000D01*
X120265000Y-138564595D01*
X120282337Y-138477435D01*
X120265000Y-138390276D01*
X120265000Y-138390271D01*
X120255077Y-138340385D01*
X120373402Y-138222060D01*
X120917545Y-138222060D01*
X121000884Y-138475953D01*
X121565306Y-138681590D01*
X122165458Y-138655579D01*
X122599116Y-138475953D01*
X122682455Y-138222060D01*
X121800000Y-137339605D01*
X120917545Y-138222060D01*
X120373402Y-138222060D01*
X120580116Y-138015346D01*
X120589121Y-137993606D01*
X120737940Y-138042455D01*
X121620395Y-137160000D01*
X121979605Y-137160000D01*
X122862060Y-138042455D01*
X123115953Y-137959116D01*
X123321590Y-137394694D01*
X123295579Y-136794542D01*
X123115953Y-136360884D01*
X122862060Y-136277545D01*
X121979605Y-137160000D01*
X121620395Y-137160000D01*
X120737940Y-136277545D01*
X120589121Y-136326394D01*
X120580116Y-136304654D01*
X120373402Y-136097940D01*
X120917545Y-136097940D01*
X121800000Y-136980395D01*
X122682455Y-136097940D01*
X122599116Y-135844047D01*
X122034694Y-135638410D01*
X121434542Y-135664421D01*
X121000884Y-135844047D01*
X120917545Y-136097940D01*
X120373402Y-136097940D01*
X120155346Y-135879884D01*
X119600358Y-135650000D01*
X118999642Y-135650000D01*
X118444654Y-135879884D01*
X118050000Y-136274538D01*
X117685000Y-135909538D01*
X117685000Y-133742368D01*
X117697809Y-133733809D01*
X117838157Y-133523765D01*
X117887440Y-133276000D01*
X117887440Y-132376000D01*
X117838157Y-132128235D01*
X117701316Y-131923440D01*
X118190000Y-131923440D01*
X118437765Y-131874157D01*
X118647809Y-131733809D01*
X118788157Y-131523765D01*
X118819587Y-131365750D01*
X130095000Y-131365750D01*
X130095000Y-131656309D01*
X130191673Y-131889698D01*
X130370301Y-132068327D01*
X130603690Y-132165000D01*
X130844250Y-132165000D01*
X131003000Y-132006250D01*
X131003000Y-131207000D01*
X130253750Y-131207000D01*
X130095000Y-131365750D01*
X118819587Y-131365750D01*
X118837440Y-131276000D01*
X118837440Y-130503691D01*
X130095000Y-130503691D01*
X130095000Y-130794250D01*
X130253750Y-130953000D01*
X131003000Y-130953000D01*
X131003000Y-130153750D01*
X130844250Y-129995000D01*
X130603690Y-129995000D01*
X130370301Y-130091673D01*
X130191673Y-130270302D01*
X130095000Y-130503691D01*
X118837440Y-130503691D01*
X118837440Y-130376000D01*
X118788157Y-130128235D01*
X118663715Y-129941996D01*
X118733431Y-129872280D01*
X118891000Y-129491874D01*
X118891000Y-129080126D01*
X118733431Y-128699720D01*
X118442280Y-128408569D01*
X118061874Y-128251000D01*
X117650126Y-128251000D01*
X117269720Y-128408569D01*
X116978569Y-128699720D01*
X116821000Y-129080126D01*
X116821000Y-129491874D01*
X116978569Y-129872280D01*
X116987514Y-129881225D01*
X116932191Y-129918191D01*
X116842987Y-130051694D01*
X116828327Y-130016302D01*
X116649699Y-129837673D01*
X116416310Y-129741000D01*
X116175750Y-129741000D01*
X116017000Y-129899750D01*
X116017000Y-130699000D01*
X116037000Y-130699000D01*
X116037000Y-130953000D01*
X116017000Y-130953000D01*
X116017000Y-131752250D01*
X116102531Y-131837781D01*
X115982191Y-131918191D01*
X115841843Y-132128235D01*
X115792560Y-132376000D01*
X115792560Y-133276000D01*
X115841843Y-133523765D01*
X115915001Y-133633253D01*
X115915000Y-135909538D01*
X115775504Y-136049034D01*
X115773157Y-136037235D01*
X115632809Y-135827191D01*
X115422765Y-135686843D01*
X115175000Y-135637560D01*
X113425000Y-135637560D01*
X113177235Y-135686843D01*
X112967191Y-135827191D01*
X112826843Y-136037235D01*
X112777560Y-136285000D01*
X112777560Y-138035000D01*
X112826843Y-138282765D01*
X112967191Y-138492809D01*
X113177235Y-138633157D01*
X113425000Y-138682440D01*
X115175000Y-138682440D01*
X115422765Y-138633157D01*
X115632809Y-138492809D01*
X115773157Y-138282765D01*
X115775504Y-138270966D01*
X115944654Y-138440116D01*
X116499642Y-138670000D01*
X117100358Y-138670000D01*
X117655346Y-138440116D01*
X118050000Y-138045462D01*
X118398378Y-138393840D01*
X118397663Y-138397436D01*
X118466348Y-138742745D01*
X118495000Y-138785626D01*
X118495000Y-139065000D01*
X111125000Y-139065000D01*
X111125000Y-131111750D01*
X114855000Y-131111750D01*
X114855000Y-131402309D01*
X114951673Y-131635698D01*
X115130301Y-131814327D01*
X115363690Y-131911000D01*
X115604250Y-131911000D01*
X115763000Y-131752250D01*
X115763000Y-130953000D01*
X115013750Y-130953000D01*
X114855000Y-131111750D01*
X111125000Y-131111750D01*
X111125000Y-130249691D01*
X114855000Y-130249691D01*
X114855000Y-130540250D01*
X115013750Y-130699000D01*
X115763000Y-130699000D01*
X115763000Y-129899750D01*
X115604250Y-129741000D01*
X115363690Y-129741000D01*
X115130301Y-129837673D01*
X114951673Y-130016302D01*
X114855000Y-130249691D01*
X111125000Y-130249691D01*
X111125000Y-125368001D01*
X112706550Y-125368001D01*
X112753844Y-125605766D01*
X112894192Y-125815810D01*
X113104236Y-125956158D01*
X113352001Y-126005441D01*
X115102001Y-126005441D01*
X115349766Y-125956158D01*
X115559810Y-125815810D01*
X115700158Y-125605766D01*
X115702505Y-125593967D01*
X115871655Y-125763117D01*
X116426643Y-125993001D01*
X117027359Y-125993001D01*
X117582347Y-125763117D01*
X117977001Y-125368463D01*
X118371655Y-125763117D01*
X118926643Y-125993001D01*
X119527359Y-125993001D01*
X120082347Y-125763117D01*
X120300403Y-125545061D01*
X120844546Y-125545061D01*
X120927885Y-125798954D01*
X121492307Y-126004591D01*
X122092459Y-125978580D01*
X122526117Y-125798954D01*
X122609456Y-125545061D01*
X121727001Y-124662606D01*
X120844546Y-125545061D01*
X120300403Y-125545061D01*
X120507117Y-125338347D01*
X120516122Y-125316607D01*
X120664941Y-125365456D01*
X121547396Y-124483001D01*
X121906606Y-124483001D01*
X122789061Y-125365456D01*
X123042954Y-125282117D01*
X123248591Y-124717695D01*
X123222580Y-124117543D01*
X123042954Y-123683885D01*
X122789061Y-123600546D01*
X121906606Y-124483001D01*
X121547396Y-124483001D01*
X120664941Y-123600546D01*
X120516122Y-123649395D01*
X120507117Y-123627655D01*
X120300403Y-123420941D01*
X120844546Y-123420941D01*
X121727001Y-124303396D01*
X122609456Y-123420941D01*
X122526117Y-123167048D01*
X121961695Y-122961411D01*
X121361543Y-122987422D01*
X120927885Y-123167048D01*
X120844546Y-123420941D01*
X120300403Y-123420941D01*
X120082347Y-123202885D01*
X119527359Y-122973001D01*
X118926643Y-122973001D01*
X118371655Y-123202885D01*
X117977001Y-123597539D01*
X117582347Y-123202885D01*
X117027359Y-122973001D01*
X116426643Y-122973001D01*
X115871655Y-123202885D01*
X115702505Y-123372035D01*
X115700158Y-123360236D01*
X115559810Y-123150192D01*
X115349766Y-123009844D01*
X115102001Y-122960561D01*
X113352001Y-122960561D01*
X113104236Y-123009844D01*
X112894192Y-123150192D01*
X112753844Y-123360236D01*
X112706550Y-123598001D01*
X111125000Y-123598001D01*
X111125000Y-118665750D01*
X130095000Y-118665750D01*
X130095000Y-118956309D01*
X130191673Y-119189698D01*
X130370301Y-119368327D01*
X130603690Y-119465000D01*
X130844250Y-119465000D01*
X131003000Y-119306250D01*
X131003000Y-118507000D01*
X130253750Y-118507000D01*
X130095000Y-118665750D01*
X111125000Y-118665750D01*
X111125000Y-117803691D01*
X130095000Y-117803691D01*
X130095000Y-118094250D01*
X130253750Y-118253000D01*
X131003000Y-118253000D01*
X131003000Y-117453750D01*
X130844250Y-117295000D01*
X130603690Y-117295000D01*
X130370301Y-117391673D01*
X130191673Y-117570302D01*
X130095000Y-117803691D01*
X111125000Y-117803691D01*
X111125000Y-116201000D01*
X118022839Y-116201000D01*
X118110000Y-116218337D01*
X118197161Y-116201000D01*
X118197165Y-116201000D01*
X118455310Y-116149652D01*
X118748049Y-115954049D01*
X118797425Y-115880153D01*
X119864156Y-114813423D01*
X119938049Y-114764049D01*
X120030524Y-114625652D01*
X120104459Y-114515000D01*
X120133652Y-114471310D01*
X120185000Y-114213164D01*
X120185000Y-114213161D01*
X120202337Y-114126001D01*
X120185000Y-114038841D01*
X120185000Y-113010462D01*
X120373402Y-112822060D01*
X120917545Y-112822060D01*
X121000884Y-113075953D01*
X121565306Y-113281590D01*
X122165458Y-113255579D01*
X122599116Y-113075953D01*
X122682455Y-112822060D01*
X121800000Y-111939605D01*
X120917545Y-112822060D01*
X120373402Y-112822060D01*
X120580116Y-112615346D01*
X120589121Y-112593606D01*
X120737940Y-112642455D01*
X121620395Y-111760000D01*
X121979605Y-111760000D01*
X122862060Y-112642455D01*
X123115953Y-112559116D01*
X123321590Y-111994694D01*
X123295579Y-111394542D01*
X123115953Y-110960884D01*
X122862060Y-110877545D01*
X121979605Y-111760000D01*
X121620395Y-111760000D01*
X120737940Y-110877545D01*
X120589121Y-110926394D01*
X120580116Y-110904654D01*
X120373402Y-110697940D01*
X120917545Y-110697940D01*
X121800000Y-111580395D01*
X122682455Y-110697940D01*
X122599116Y-110444047D01*
X122034694Y-110238410D01*
X121434542Y-110264421D01*
X121000884Y-110444047D01*
X120917545Y-110697940D01*
X120373402Y-110697940D01*
X120155346Y-110479884D01*
X119600358Y-110250000D01*
X118999642Y-110250000D01*
X118444654Y-110479884D01*
X118050000Y-110874538D01*
X117685000Y-110509538D01*
X117685000Y-108596368D01*
X117697809Y-108587809D01*
X117838157Y-108377765D01*
X117887440Y-108130000D01*
X117887440Y-107230000D01*
X117838157Y-106982235D01*
X117701316Y-106777440D01*
X118190000Y-106777440D01*
X118437765Y-106728157D01*
X118647809Y-106587809D01*
X118746573Y-106440000D01*
X118827199Y-106440000D01*
X119805671Y-107418473D01*
X119848071Y-107481929D01*
X119911527Y-107524329D01*
X120099462Y-107649904D01*
X120147605Y-107659480D01*
X120321148Y-107694000D01*
X120321152Y-107694000D01*
X120396000Y-107708888D01*
X120470848Y-107694000D01*
X123623153Y-107694000D01*
X123698000Y-107708888D01*
X123772847Y-107694000D01*
X123772852Y-107694000D01*
X123994537Y-107649904D01*
X124245929Y-107481929D01*
X124288331Y-107418470D01*
X124961829Y-106744973D01*
X125025285Y-106702573D01*
X125105475Y-106582560D01*
X125193260Y-106451182D01*
X125207863Y-106377765D01*
X125237356Y-106229496D01*
X125237356Y-106229492D01*
X125252244Y-106154644D01*
X125237356Y-106079796D01*
X125237356Y-105965750D01*
X130095000Y-105965750D01*
X130095000Y-106256309D01*
X130191673Y-106489698D01*
X130370301Y-106668327D01*
X130603690Y-106765000D01*
X130844250Y-106765000D01*
X131003000Y-106606250D01*
X131003000Y-105807000D01*
X130253750Y-105807000D01*
X130095000Y-105965750D01*
X125237356Y-105965750D01*
X125237356Y-105252675D01*
X125322753Y-105207029D01*
X125404252Y-105152573D01*
X125463814Y-105103691D01*
X130095000Y-105103691D01*
X130095000Y-105394250D01*
X130253750Y-105553000D01*
X131003000Y-105553000D01*
X131003000Y-104753750D01*
X130844250Y-104595000D01*
X130603690Y-104595000D01*
X130370301Y-104691673D01*
X130191673Y-104870302D01*
X130095000Y-105103691D01*
X125463814Y-105103691D01*
X125502362Y-105072056D01*
X125571670Y-105002748D01*
X125652187Y-104904638D01*
X125706643Y-104823139D01*
X125766475Y-104711202D01*
X125803984Y-104620646D01*
X125840826Y-104499193D01*
X125859948Y-104403060D01*
X125872388Y-104276751D01*
X125872388Y-104239848D01*
X125874796Y-104227742D01*
X125874796Y-103677742D01*
X125856972Y-103588134D01*
X126025285Y-103475671D01*
X126067687Y-103412213D01*
X126976476Y-102503425D01*
X127039929Y-102461027D01*
X127082327Y-102397574D01*
X127082329Y-102397572D01*
X127186312Y-102241949D01*
X127207904Y-102209635D01*
X127252000Y-101987950D01*
X127252000Y-101987946D01*
X127266888Y-101913099D01*
X127252000Y-101838252D01*
X127252000Y-100271711D01*
X127369431Y-100154280D01*
X127527000Y-99773874D01*
X127527000Y-99362126D01*
X127369431Y-98981720D01*
X127078280Y-98690569D01*
X126697874Y-98533000D01*
X126286126Y-98533000D01*
X125905720Y-98690569D01*
X125614569Y-98981720D01*
X125457000Y-99362126D01*
X125457000Y-99773874D01*
X125614569Y-100154280D01*
X125732001Y-100271712D01*
X125732000Y-101079785D01*
X125706643Y-101032345D01*
X125652187Y-100950846D01*
X125571670Y-100852736D01*
X125502362Y-100783428D01*
X125404252Y-100702911D01*
X125322753Y-100648455D01*
X125210816Y-100588623D01*
X125120260Y-100551114D01*
X124998807Y-100514272D01*
X124902674Y-100495150D01*
X124776365Y-100482710D01*
X124739462Y-100482710D01*
X124727356Y-100480302D01*
X124404718Y-100480302D01*
X123910000Y-99985585D01*
X123910000Y-94791610D01*
X124005346Y-94752116D01*
X124400000Y-94357462D01*
X124794654Y-94752116D01*
X125349642Y-94982000D01*
X125950358Y-94982000D01*
X126505346Y-94752116D01*
X126723402Y-94534060D01*
X127267545Y-94534060D01*
X127350884Y-94787953D01*
X127915306Y-94993590D01*
X128515458Y-94967579D01*
X128949116Y-94787953D01*
X129032455Y-94534060D01*
X128150000Y-93651605D01*
X127267545Y-94534060D01*
X126723402Y-94534060D01*
X126930116Y-94327346D01*
X126939121Y-94305606D01*
X127087940Y-94354455D01*
X127970395Y-93472000D01*
X128329605Y-93472000D01*
X129212060Y-94354455D01*
X129465953Y-94271116D01*
X129671590Y-93706694D01*
X129645579Y-93106542D01*
X129465953Y-92672884D01*
X129212060Y-92589545D01*
X128329605Y-93472000D01*
X127970395Y-93472000D01*
X127087940Y-92589545D01*
X126939121Y-92638394D01*
X126930116Y-92616654D01*
X126723402Y-92409940D01*
X127267545Y-92409940D01*
X128150000Y-93292395D01*
X129032455Y-92409940D01*
X128949116Y-92156047D01*
X128384694Y-91950410D01*
X127784542Y-91976421D01*
X127350884Y-92156047D01*
X127267545Y-92409940D01*
X126723402Y-92409940D01*
X126505346Y-92191884D01*
X125950358Y-91962000D01*
X125349642Y-91962000D01*
X124794654Y-92191884D01*
X124400000Y-92586538D01*
X124005346Y-92191884D01*
X123450358Y-91962000D01*
X122849642Y-91962000D01*
X122294654Y-92191884D01*
X122125504Y-92361034D01*
X122123157Y-92349235D01*
X121982809Y-92139191D01*
X121772765Y-91998843D01*
X121525000Y-91949560D01*
X119775000Y-91949560D01*
X119527235Y-91998843D01*
X119317191Y-92139191D01*
X119176843Y-92349235D01*
X119127560Y-92597000D01*
X119127560Y-94347000D01*
X119176843Y-94594765D01*
X119317191Y-94804809D01*
X119527235Y-94945157D01*
X119775000Y-94994440D01*
X119890000Y-94994440D01*
X119890001Y-100789777D01*
X119827042Y-100852736D01*
X119746525Y-100950846D01*
X119692069Y-101032345D01*
X119632237Y-101144282D01*
X119594728Y-101234838D01*
X119557886Y-101356291D01*
X119538764Y-101452424D01*
X119526324Y-101578733D01*
X119526324Y-101615636D01*
X119523916Y-101627742D01*
X119523916Y-102177742D01*
X119548780Y-102302742D01*
X119523916Y-102427742D01*
X119523916Y-103427742D01*
X119548780Y-103552742D01*
X119523916Y-103677742D01*
X119523916Y-104227742D01*
X119526324Y-104239848D01*
X119526324Y-104276751D01*
X119538764Y-104403060D01*
X119557886Y-104499193D01*
X119594728Y-104620646D01*
X119632237Y-104711202D01*
X119692069Y-104823139D01*
X119746525Y-104904638D01*
X119827042Y-105002748D01*
X119896350Y-105072056D01*
X119994460Y-105152573D01*
X120075959Y-105207029D01*
X120125031Y-105233258D01*
X120026569Y-105331720D01*
X119980278Y-105443477D01*
X119732331Y-105195530D01*
X119689929Y-105132071D01*
X119438537Y-104964096D01*
X119216852Y-104920000D01*
X119216847Y-104920000D01*
X119142000Y-104905112D01*
X119067153Y-104920000D01*
X118746573Y-104920000D01*
X118647809Y-104772191D01*
X118437765Y-104631843D01*
X118190000Y-104582560D01*
X117390000Y-104582560D01*
X117142235Y-104631843D01*
X116932191Y-104772191D01*
X116842987Y-104905694D01*
X116828327Y-104870302D01*
X116649699Y-104691673D01*
X116416310Y-104595000D01*
X116175750Y-104595000D01*
X116017000Y-104753750D01*
X116017000Y-105553000D01*
X116037000Y-105553000D01*
X116037000Y-105807000D01*
X116017000Y-105807000D01*
X116017000Y-106606250D01*
X116102531Y-106691781D01*
X115982191Y-106772191D01*
X115841843Y-106982235D01*
X115792560Y-107230000D01*
X115792560Y-108130000D01*
X115841843Y-108377765D01*
X115915001Y-108487253D01*
X115915000Y-110509538D01*
X115775504Y-110649034D01*
X115773157Y-110637235D01*
X115632809Y-110427191D01*
X115422765Y-110286843D01*
X115175000Y-110237560D01*
X113425000Y-110237560D01*
X113177235Y-110286843D01*
X112967191Y-110427191D01*
X112826843Y-110637235D01*
X112777560Y-110885000D01*
X112777560Y-112635000D01*
X112826843Y-112882765D01*
X112967191Y-113092809D01*
X113177235Y-113233157D01*
X113425000Y-113282440D01*
X115175000Y-113282440D01*
X115422765Y-113233157D01*
X115632809Y-113092809D01*
X115773157Y-112882765D01*
X115775504Y-112870966D01*
X115944654Y-113040116D01*
X116499642Y-113270000D01*
X117100358Y-113270000D01*
X117655346Y-113040116D01*
X118050000Y-112645462D01*
X118415001Y-113010463D01*
X118415001Y-113704831D01*
X118415000Y-113704836D01*
X118415000Y-113759421D01*
X117743422Y-114431000D01*
X111125000Y-114431000D01*
X111125000Y-105965750D01*
X114855000Y-105965750D01*
X114855000Y-106256309D01*
X114951673Y-106489698D01*
X115130301Y-106668327D01*
X115363690Y-106765000D01*
X115604250Y-106765000D01*
X115763000Y-106606250D01*
X115763000Y-105807000D01*
X115013750Y-105807000D01*
X114855000Y-105965750D01*
X111125000Y-105965750D01*
X111125000Y-105103691D01*
X114855000Y-105103691D01*
X114855000Y-105394250D01*
X115013750Y-105553000D01*
X115763000Y-105553000D01*
X115763000Y-104753750D01*
X115604250Y-104595000D01*
X115363690Y-104595000D01*
X115130301Y-104691673D01*
X114951673Y-104870302D01*
X114855000Y-105103691D01*
X111125000Y-105103691D01*
X111125000Y-90297000D01*
X163961000Y-90297000D01*
X163961000Y-91058560D01*
X163546000Y-91058560D01*
X163533894Y-91060968D01*
X163496991Y-91060968D01*
X163370682Y-91073408D01*
X163274549Y-91092530D01*
X163153096Y-91129372D01*
X163062540Y-91166881D01*
X162950603Y-91226713D01*
X162869104Y-91281169D01*
X162770994Y-91361686D01*
X162701686Y-91430994D01*
X162621169Y-91529104D01*
X162593175Y-91571000D01*
X157821159Y-91571000D01*
X157733999Y-91553663D01*
X157646839Y-91571000D01*
X157646835Y-91571000D01*
X157388690Y-91622348D01*
X157388688Y-91622349D01*
X157388689Y-91622349D01*
X157169845Y-91768576D01*
X157169844Y-91768577D01*
X157095951Y-91817951D01*
X157046577Y-91891844D01*
X155645845Y-93292577D01*
X155571952Y-93341951D01*
X155522578Y-93415844D01*
X155522576Y-93415846D01*
X155376348Y-93634691D01*
X155307663Y-93980000D01*
X155325001Y-94067165D01*
X155325000Y-96595344D01*
X155139375Y-96719375D01*
X154940000Y-97017761D01*
X154740625Y-96719375D01*
X154249418Y-96391161D01*
X153816256Y-96305000D01*
X153523744Y-96305000D01*
X153090582Y-96391161D01*
X152599375Y-96719375D01*
X152400000Y-97017761D01*
X152200625Y-96719375D01*
X151709418Y-96391161D01*
X151276256Y-96305000D01*
X150983744Y-96305000D01*
X150550582Y-96391161D01*
X150059375Y-96719375D01*
X149731161Y-97210582D01*
X149615908Y-97790000D01*
X149731161Y-98369418D01*
X150059375Y-98860625D01*
X150550582Y-99188839D01*
X150983744Y-99275000D01*
X151276256Y-99275000D01*
X151709418Y-99188839D01*
X152200625Y-98860625D01*
X152400000Y-98562239D01*
X152599375Y-98860625D01*
X153090582Y-99188839D01*
X153523744Y-99275000D01*
X153816256Y-99275000D01*
X154249418Y-99188839D01*
X154740625Y-98860625D01*
X154940000Y-98562239D01*
X155139375Y-98860625D01*
X155630582Y-99188839D01*
X156063744Y-99275000D01*
X156356256Y-99275000D01*
X156789418Y-99188839D01*
X157280625Y-98860625D01*
X157493843Y-98541522D01*
X157554817Y-98671358D01*
X157983076Y-99061645D01*
X158393110Y-99231476D01*
X158623000Y-99110155D01*
X158623000Y-97917000D01*
X158603000Y-97917000D01*
X158603000Y-97663000D01*
X158623000Y-97663000D01*
X158623000Y-96469845D01*
X158877000Y-96469845D01*
X158877000Y-97663000D01*
X158897000Y-97663000D01*
X158897000Y-97917000D01*
X158877000Y-97917000D01*
X158877000Y-99110155D01*
X159106890Y-99231476D01*
X159516924Y-99061645D01*
X159945183Y-98671358D01*
X160006157Y-98541522D01*
X160219375Y-98860625D01*
X160710582Y-99188839D01*
X161143744Y-99275000D01*
X161436256Y-99275000D01*
X161869418Y-99188839D01*
X162360625Y-98860625D01*
X162560000Y-98562239D01*
X162759375Y-98860625D01*
X163250582Y-99188839D01*
X163683744Y-99275000D01*
X163976256Y-99275000D01*
X164409418Y-99188839D01*
X164900625Y-98860625D01*
X165100000Y-98562239D01*
X165299375Y-98860625D01*
X165790582Y-99188839D01*
X166223744Y-99275000D01*
X166516256Y-99275000D01*
X166949418Y-99188839D01*
X167440625Y-98860625D01*
X167640000Y-98562239D01*
X167839375Y-98860625D01*
X168330582Y-99188839D01*
X168763744Y-99275000D01*
X169056256Y-99275000D01*
X169489418Y-99188839D01*
X169980625Y-98860625D01*
X170180000Y-98562239D01*
X170379375Y-98860625D01*
X170870582Y-99188839D01*
X171303744Y-99275000D01*
X171596256Y-99275000D01*
X172029418Y-99188839D01*
X172520625Y-98860625D01*
X172720000Y-98562239D01*
X172919375Y-98860625D01*
X173410582Y-99188839D01*
X173843744Y-99275000D01*
X174136256Y-99275000D01*
X174569418Y-99188839D01*
X175060625Y-98860625D01*
X175260000Y-98562239D01*
X175459375Y-98860625D01*
X175950582Y-99188839D01*
X176383744Y-99275000D01*
X176676256Y-99275000D01*
X177109418Y-99188839D01*
X177600625Y-98860625D01*
X177800000Y-98562239D01*
X177999375Y-98860625D01*
X178490582Y-99188839D01*
X178923744Y-99275000D01*
X179216256Y-99275000D01*
X179649418Y-99188839D01*
X180140625Y-98860625D01*
X180340000Y-98562239D01*
X180539375Y-98860625D01*
X181030582Y-99188839D01*
X181463744Y-99275000D01*
X181756256Y-99275000D01*
X182189418Y-99188839D01*
X182680625Y-98860625D01*
X182880000Y-98562239D01*
X183079375Y-98860625D01*
X183390000Y-99068178D01*
X183390001Y-103632106D01*
X183055720Y-103770569D01*
X182764569Y-104061720D01*
X182607000Y-104442126D01*
X182607000Y-104853874D01*
X182764569Y-105234280D01*
X183055720Y-105525431D01*
X183436126Y-105683000D01*
X183847874Y-105683000D01*
X184228280Y-105525431D01*
X184519431Y-105234280D01*
X184677000Y-104853874D01*
X184677000Y-104701913D01*
X184697929Y-104687929D01*
X184740327Y-104624476D01*
X184740329Y-104624474D01*
X184852207Y-104457036D01*
X184865904Y-104436537D01*
X184910000Y-104214852D01*
X184910000Y-104214848D01*
X184924888Y-104140001D01*
X184910000Y-104065154D01*
X184910000Y-99068178D01*
X185220625Y-98860625D01*
X185420000Y-98562239D01*
X185619375Y-98860625D01*
X186110582Y-99188839D01*
X186543744Y-99275000D01*
X186836256Y-99275000D01*
X187269418Y-99188839D01*
X187760625Y-98860625D01*
X187960000Y-98562239D01*
X188159375Y-98860625D01*
X188650582Y-99188839D01*
X189083744Y-99275000D01*
X189376256Y-99275000D01*
X189809418Y-99188839D01*
X190300625Y-98860625D01*
X190312816Y-98842381D01*
X190321843Y-98887765D01*
X190462191Y-99097809D01*
X190672235Y-99238157D01*
X190920000Y-99287440D01*
X192620000Y-99287440D01*
X192867765Y-99238157D01*
X193077809Y-99097809D01*
X193218157Y-98887765D01*
X193267440Y-98640000D01*
X193267440Y-96940000D01*
X193218157Y-96692235D01*
X193077809Y-96482191D01*
X192867765Y-96341843D01*
X192620000Y-96292560D01*
X190920000Y-96292560D01*
X190672235Y-96341843D01*
X190462191Y-96482191D01*
X190321843Y-96692235D01*
X190312816Y-96737619D01*
X190300625Y-96719375D01*
X189809418Y-96391161D01*
X189376256Y-96305000D01*
X189083744Y-96305000D01*
X188650582Y-96391161D01*
X188159375Y-96719375D01*
X187960000Y-97017761D01*
X187760625Y-96719375D01*
X187269418Y-96391161D01*
X186836256Y-96305000D01*
X186543744Y-96305000D01*
X186110582Y-96391161D01*
X185619375Y-96719375D01*
X185420000Y-97017761D01*
X185220625Y-96719375D01*
X184729418Y-96391161D01*
X184296256Y-96305000D01*
X184003744Y-96305000D01*
X183570582Y-96391161D01*
X183079375Y-96719375D01*
X182880000Y-97017761D01*
X182680625Y-96719375D01*
X182189418Y-96391161D01*
X181756256Y-96305000D01*
X181463744Y-96305000D01*
X181030582Y-96391161D01*
X180539375Y-96719375D01*
X180340000Y-97017761D01*
X180140625Y-96719375D01*
X179649418Y-96391161D01*
X179216256Y-96305000D01*
X178923744Y-96305000D01*
X178490582Y-96391161D01*
X177999375Y-96719375D01*
X177800000Y-97017761D01*
X177600625Y-96719375D01*
X177109418Y-96391161D01*
X176676256Y-96305000D01*
X176383744Y-96305000D01*
X175950582Y-96391161D01*
X175459375Y-96719375D01*
X175260000Y-97017761D01*
X175060625Y-96719375D01*
X174569418Y-96391161D01*
X174136256Y-96305000D01*
X173843744Y-96305000D01*
X173410582Y-96391161D01*
X172919375Y-96719375D01*
X172720000Y-97017761D01*
X172520625Y-96719375D01*
X172029418Y-96391161D01*
X171596256Y-96305000D01*
X171303744Y-96305000D01*
X170870582Y-96391161D01*
X170379375Y-96719375D01*
X170180000Y-97017761D01*
X169980625Y-96719375D01*
X169489418Y-96391161D01*
X169056256Y-96305000D01*
X168763744Y-96305000D01*
X168330582Y-96391161D01*
X167839375Y-96719375D01*
X167640000Y-97017761D01*
X167440625Y-96719375D01*
X166949418Y-96391161D01*
X166516256Y-96305000D01*
X166223744Y-96305000D01*
X165790582Y-96391161D01*
X165299375Y-96719375D01*
X165100000Y-97017761D01*
X164900625Y-96719375D01*
X164409418Y-96391161D01*
X163976256Y-96305000D01*
X163683744Y-96305000D01*
X163250582Y-96391161D01*
X162759375Y-96719375D01*
X162560000Y-97017761D01*
X162360625Y-96719375D01*
X161869418Y-96391161D01*
X161436256Y-96305000D01*
X161143744Y-96305000D01*
X160710582Y-96391161D01*
X160219375Y-96719375D01*
X160006157Y-97038478D01*
X159945183Y-96908642D01*
X159516924Y-96518355D01*
X159106890Y-96348524D01*
X158877000Y-96469845D01*
X158623000Y-96469845D01*
X158393110Y-96348524D01*
X157983076Y-96518355D01*
X157554817Y-96908642D01*
X157493843Y-97038478D01*
X157280625Y-96719375D01*
X157095000Y-96595344D01*
X157095000Y-94346578D01*
X158100579Y-93341000D01*
X162593175Y-93341000D01*
X162621169Y-93382896D01*
X162701686Y-93481006D01*
X162770994Y-93550314D01*
X162869104Y-93630831D01*
X162950603Y-93685287D01*
X163062540Y-93745119D01*
X163153096Y-93782628D01*
X163274549Y-93819470D01*
X163370682Y-93838592D01*
X163496991Y-93851032D01*
X163533894Y-93851032D01*
X163546000Y-93853440D01*
X164096000Y-93853440D01*
X164221000Y-93828576D01*
X164346000Y-93853440D01*
X165346000Y-93853440D01*
X165471000Y-93828576D01*
X165596000Y-93853440D01*
X166146000Y-93853440D01*
X166158106Y-93851032D01*
X166195009Y-93851032D01*
X166321318Y-93838592D01*
X166417451Y-93819470D01*
X166538904Y-93782628D01*
X166629460Y-93745119D01*
X166741397Y-93685287D01*
X166822896Y-93630831D01*
X166921006Y-93550314D01*
X166990314Y-93481006D01*
X167070831Y-93382896D01*
X167098825Y-93341000D01*
X174380839Y-93341000D01*
X174468000Y-93358337D01*
X174555161Y-93341000D01*
X174555165Y-93341000D01*
X174813310Y-93289652D01*
X175106049Y-93094049D01*
X175155425Y-93020153D01*
X175850579Y-92325000D01*
X178819549Y-92325000D01*
X178866843Y-92562765D01*
X179007191Y-92772809D01*
X179217235Y-92913157D01*
X179465000Y-92962440D01*
X181215000Y-92962440D01*
X181462765Y-92913157D01*
X181672809Y-92772809D01*
X181803475Y-92577255D01*
X181842914Y-92616694D01*
X181957546Y-92502062D01*
X182040884Y-92755953D01*
X182605306Y-92961590D01*
X183205458Y-92935579D01*
X183639116Y-92755953D01*
X183722455Y-92502060D01*
X182840000Y-91619605D01*
X182825858Y-91633748D01*
X182646253Y-91454143D01*
X182660395Y-91440000D01*
X183019605Y-91440000D01*
X183902060Y-92322455D01*
X184155953Y-92239116D01*
X184361590Y-91674694D01*
X184335579Y-91074542D01*
X184302811Y-90995431D01*
X189535000Y-90995431D01*
X189535000Y-91884569D01*
X189875259Y-92706026D01*
X190503974Y-93334741D01*
X191325431Y-93675000D01*
X192214569Y-93675000D01*
X193036026Y-93334741D01*
X193664741Y-92706026D01*
X194005000Y-91884569D01*
X194005000Y-90995431D01*
X193664741Y-90173974D01*
X193036026Y-89545259D01*
X192214569Y-89205000D01*
X191325431Y-89205000D01*
X190503974Y-89545259D01*
X189875259Y-90173974D01*
X189535000Y-90995431D01*
X184302811Y-90995431D01*
X184155953Y-90640884D01*
X183902060Y-90557545D01*
X183019605Y-91440000D01*
X182660395Y-91440000D01*
X182646253Y-91425858D01*
X182825858Y-91246253D01*
X182840000Y-91260395D01*
X183722455Y-90377940D01*
X183639116Y-90124047D01*
X183074694Y-89918410D01*
X182474542Y-89944421D01*
X182040884Y-90124047D01*
X181957546Y-90377938D01*
X181842914Y-90263306D01*
X181803475Y-90302745D01*
X181672809Y-90107191D01*
X181462765Y-89966843D01*
X181215000Y-89917560D01*
X179465000Y-89917560D01*
X179217235Y-89966843D01*
X179007191Y-90107191D01*
X178866843Y-90317235D01*
X178819549Y-90555000D01*
X175571161Y-90555000D01*
X175484000Y-90537663D01*
X175396839Y-90555000D01*
X175396835Y-90555000D01*
X175138690Y-90606348D01*
X174919845Y-90752576D01*
X174919844Y-90752577D01*
X174845951Y-90801951D01*
X174796577Y-90875844D01*
X174101422Y-91571000D01*
X167098825Y-91571000D01*
X167070831Y-91529104D01*
X166990314Y-91430994D01*
X166921006Y-91361686D01*
X166822896Y-91281169D01*
X166741397Y-91226713D01*
X166629460Y-91166881D01*
X166538904Y-91129372D01*
X166417451Y-91092530D01*
X166321318Y-91073408D01*
X166195009Y-91060968D01*
X166158106Y-91060968D01*
X166146000Y-91058560D01*
X165731000Y-91058560D01*
X165731000Y-90297000D01*
X167640000Y-90297000D01*
X167688601Y-90287333D01*
X167729803Y-90259803D01*
X167757333Y-90218601D01*
X167767000Y-90170000D01*
X167767000Y-88340000D01*
X194870000Y-88340000D01*
X194870001Y-139065000D01*
X194870001Y-139065000D01*
G37*
X194870001Y-139065000D02*
X193926121Y-139065000D01*
X194005000Y-138874569D01*
X194005000Y-137985431D01*
X193664741Y-137163974D01*
X193036026Y-136535259D01*
X192214569Y-136195000D01*
X191325431Y-136195000D01*
X190503974Y-136535259D01*
X189875259Y-137163974D01*
X189535000Y-137985431D01*
X189535000Y-138874569D01*
X189613879Y-139065000D01*
X181225000Y-139065000D01*
X181225000Y-138564595D01*
X181242337Y-138477435D01*
X181225000Y-138390276D01*
X181225000Y-138390271D01*
X181215077Y-138340385D01*
X181333402Y-138222060D01*
X181877545Y-138222060D01*
X181960884Y-138475953D01*
X182525306Y-138681590D01*
X183125458Y-138655579D01*
X183559116Y-138475953D01*
X183642455Y-138222060D01*
X182760000Y-137339605D01*
X181877545Y-138222060D01*
X181333402Y-138222060D01*
X181540116Y-138015346D01*
X181549121Y-137993606D01*
X181697940Y-138042455D01*
X182580395Y-137160000D01*
X182939605Y-137160000D01*
X183822060Y-138042455D01*
X184075953Y-137959116D01*
X184281590Y-137394694D01*
X184255579Y-136794542D01*
X184075953Y-136360884D01*
X183822060Y-136277545D01*
X182939605Y-137160000D01*
X182580395Y-137160000D01*
X181697940Y-136277545D01*
X181549121Y-136326394D01*
X181540116Y-136304654D01*
X181333402Y-136097940D01*
X181877545Y-136097940D01*
X182760000Y-136980395D01*
X183642455Y-136097940D01*
X183559116Y-135844047D01*
X182994694Y-135638410D01*
X182394542Y-135664421D01*
X181960884Y-135844047D01*
X181877545Y-136097940D01*
X181333402Y-136097940D01*
X181145000Y-135909538D01*
X181145000Y-125710462D01*
X181333402Y-125522060D01*
X181877545Y-125522060D01*
X181960884Y-125775953D01*
X182525306Y-125981590D01*
X183125458Y-125955579D01*
X183559116Y-125775953D01*
X183642455Y-125522060D01*
X182760000Y-124639605D01*
X181877545Y-125522060D01*
X181333402Y-125522060D01*
X181540116Y-125315346D01*
X181549121Y-125293606D01*
X181697940Y-125342455D01*
X182580395Y-124460000D01*
X182939605Y-124460000D01*
X183822060Y-125342455D01*
X184075953Y-125259116D01*
X184281590Y-124694694D01*
X184255579Y-124094542D01*
X184075953Y-123660884D01*
X183822060Y-123577545D01*
X182939605Y-124460000D01*
X182580395Y-124460000D01*
X181697940Y-123577545D01*
X181549121Y-123626394D01*
X181540116Y-123604654D01*
X181333402Y-123397940D01*
X181877545Y-123397940D01*
X182760000Y-124280395D01*
X183642455Y-123397940D01*
X183559116Y-123144047D01*
X182994694Y-122938410D01*
X182394542Y-122964421D01*
X181960884Y-123144047D01*
X181877545Y-123397940D01*
X181333402Y-123397940D01*
X181115346Y-123179884D01*
X180560358Y-122950000D01*
X179959642Y-122950000D01*
X179404654Y-123179884D01*
X179010000Y-123574538D01*
X178685000Y-123249538D01*
X178685000Y-121247115D01*
X178798157Y-121077765D01*
X178847440Y-120830000D01*
X178847440Y-119930000D01*
X178798157Y-119682235D01*
X178661316Y-119477440D01*
X179150000Y-119477440D01*
X179397765Y-119428157D01*
X179607809Y-119287809D01*
X179684830Y-119172541D01*
X179753720Y-119241431D01*
X180134126Y-119399000D01*
X180545874Y-119399000D01*
X180926280Y-119241431D01*
X181217431Y-118950280D01*
X181375000Y-118569874D01*
X181375000Y-118158126D01*
X181217431Y-117777720D01*
X180926280Y-117486569D01*
X180545874Y-117329000D01*
X180134126Y-117329000D01*
X179753720Y-117486569D01*
X179672012Y-117568277D01*
X179607809Y-117472191D01*
X179397765Y-117331843D01*
X179150000Y-117282560D01*
X178350000Y-117282560D01*
X178102235Y-117331843D01*
X177892191Y-117472191D01*
X177802987Y-117605694D01*
X177788327Y-117570302D01*
X177609699Y-117391673D01*
X177376310Y-117295000D01*
X177135750Y-117295000D01*
X176977000Y-117453750D01*
X176977000Y-118253000D01*
X176997000Y-118253000D01*
X176997000Y-118507000D01*
X176977000Y-118507000D01*
X176977000Y-119306250D01*
X177062531Y-119391781D01*
X176942191Y-119472191D01*
X176801843Y-119682235D01*
X176752560Y-119930000D01*
X176752560Y-120830000D01*
X176801843Y-121077765D01*
X176915000Y-121247115D01*
X176915001Y-123175598D01*
X176904654Y-123179884D01*
X176735504Y-123349034D01*
X176733157Y-123337235D01*
X176592809Y-123127191D01*
X176382765Y-122986843D01*
X176135000Y-122937560D01*
X174385000Y-122937560D01*
X174137235Y-122986843D01*
X173927191Y-123127191D01*
X173786843Y-123337235D01*
X173737560Y-123585000D01*
X173737560Y-125335000D01*
X173786843Y-125582765D01*
X173927191Y-125792809D01*
X174137235Y-125933157D01*
X174385000Y-125982440D01*
X176135000Y-125982440D01*
X176382765Y-125933157D01*
X176592809Y-125792809D01*
X176733157Y-125582765D01*
X176735504Y-125570966D01*
X176904654Y-125740116D01*
X177459642Y-125970000D01*
X178060358Y-125970000D01*
X178615346Y-125740116D01*
X179010000Y-125345462D01*
X179375000Y-125710462D01*
X179375000Y-128651269D01*
X179021874Y-128505000D01*
X178610126Y-128505000D01*
X178229720Y-128662569D01*
X177938569Y-128953720D01*
X177781000Y-129334126D01*
X177781000Y-129745874D01*
X177938569Y-130126280D01*
X177947514Y-130135225D01*
X177892191Y-130172191D01*
X177802987Y-130305694D01*
X177788327Y-130270302D01*
X177609699Y-130091673D01*
X177376310Y-129995000D01*
X177135750Y-129995000D01*
X176977000Y-130153750D01*
X176977000Y-130953000D01*
X176997000Y-130953000D01*
X176997000Y-131207000D01*
X176977000Y-131207000D01*
X176977000Y-132006250D01*
X177062531Y-132091781D01*
X176942191Y-132172191D01*
X176801843Y-132382235D01*
X176752560Y-132630000D01*
X176752560Y-133530000D01*
X176801843Y-133777765D01*
X176915000Y-133947115D01*
X176915001Y-135875598D01*
X176904654Y-135879884D01*
X176735504Y-136049034D01*
X176733157Y-136037235D01*
X176592809Y-135827191D01*
X176382765Y-135686843D01*
X176135000Y-135637560D01*
X174385000Y-135637560D01*
X174137235Y-135686843D01*
X173927191Y-135827191D01*
X173786843Y-136037235D01*
X173737560Y-136285000D01*
X173737560Y-138035000D01*
X173786843Y-138282765D01*
X173927191Y-138492809D01*
X174137235Y-138633157D01*
X174385000Y-138682440D01*
X176135000Y-138682440D01*
X176382765Y-138633157D01*
X176592809Y-138492809D01*
X176733157Y-138282765D01*
X176735504Y-138270966D01*
X176904654Y-138440116D01*
X177459642Y-138670000D01*
X178060358Y-138670000D01*
X178615346Y-138440116D01*
X179010000Y-138045462D01*
X179358378Y-138393840D01*
X179357663Y-138397436D01*
X179426348Y-138742745D01*
X179455000Y-138785626D01*
X179455000Y-139065000D01*
X165985000Y-139065000D01*
X165985000Y-138564595D01*
X166002337Y-138477435D01*
X165985000Y-138390276D01*
X165985000Y-138390271D01*
X165975077Y-138340385D01*
X166093402Y-138222060D01*
X166637545Y-138222060D01*
X166720884Y-138475953D01*
X167285306Y-138681590D01*
X167885458Y-138655579D01*
X168319116Y-138475953D01*
X168402455Y-138222060D01*
X167520000Y-137339605D01*
X166637545Y-138222060D01*
X166093402Y-138222060D01*
X166300116Y-138015346D01*
X166309121Y-137993606D01*
X166457940Y-138042455D01*
X167340395Y-137160000D01*
X167699605Y-137160000D01*
X168582060Y-138042455D01*
X168835953Y-137959116D01*
X169041590Y-137394694D01*
X169015579Y-136794542D01*
X168835953Y-136360884D01*
X168582060Y-136277545D01*
X167699605Y-137160000D01*
X167340395Y-137160000D01*
X166457940Y-136277545D01*
X166309121Y-136326394D01*
X166300116Y-136304654D01*
X166093402Y-136097940D01*
X166637545Y-136097940D01*
X167520000Y-136980395D01*
X168402455Y-136097940D01*
X168319116Y-135844047D01*
X167754694Y-135638410D01*
X167154542Y-135664421D01*
X166720884Y-135844047D01*
X166637545Y-136097940D01*
X166093402Y-136097940D01*
X165905000Y-135909538D01*
X165905000Y-131365750D01*
X175815000Y-131365750D01*
X175815000Y-131656309D01*
X175911673Y-131889698D01*
X176090301Y-132068327D01*
X176323690Y-132165000D01*
X176564250Y-132165000D01*
X176723000Y-132006250D01*
X176723000Y-131207000D01*
X175973750Y-131207000D01*
X175815000Y-131365750D01*
X165905000Y-131365750D01*
X165905000Y-130503691D01*
X175815000Y-130503691D01*
X175815000Y-130794250D01*
X175973750Y-130953000D01*
X176723000Y-130953000D01*
X176723000Y-130153750D01*
X176564250Y-129995000D01*
X176323690Y-129995000D01*
X176090301Y-130091673D01*
X175911673Y-130270302D01*
X175815000Y-130503691D01*
X165905000Y-130503691D01*
X165905000Y-125710462D01*
X166093402Y-125522060D01*
X166637545Y-125522060D01*
X166720884Y-125775953D01*
X167285306Y-125981590D01*
X167885458Y-125955579D01*
X168319116Y-125775953D01*
X168402455Y-125522060D01*
X167520000Y-124639605D01*
X166637545Y-125522060D01*
X166093402Y-125522060D01*
X166300116Y-125315346D01*
X166309121Y-125293606D01*
X166457940Y-125342455D01*
X167340395Y-124460000D01*
X167699605Y-124460000D01*
X168582060Y-125342455D01*
X168835953Y-125259116D01*
X169041590Y-124694694D01*
X169015579Y-124094542D01*
X168835953Y-123660884D01*
X168582060Y-123577545D01*
X167699605Y-124460000D01*
X167340395Y-124460000D01*
X166457940Y-123577545D01*
X166309121Y-123626394D01*
X166300116Y-123604654D01*
X166093402Y-123397940D01*
X166637545Y-123397940D01*
X167520000Y-124280395D01*
X168402455Y-123397940D01*
X168319116Y-123144047D01*
X167754694Y-122938410D01*
X167154542Y-122964421D01*
X166720884Y-123144047D01*
X166637545Y-123397940D01*
X166093402Y-123397940D01*
X165875346Y-123179884D01*
X165320358Y-122950000D01*
X164719642Y-122950000D01*
X164164654Y-123179884D01*
X163770000Y-123574538D01*
X163445000Y-123249538D01*
X163445000Y-121247115D01*
X163558157Y-121077765D01*
X163607440Y-120830000D01*
X163607440Y-119930000D01*
X163558157Y-119682235D01*
X163421316Y-119477440D01*
X163910000Y-119477440D01*
X164157765Y-119428157D01*
X164367809Y-119287809D01*
X164444830Y-119172541D01*
X164513720Y-119241431D01*
X164894126Y-119399000D01*
X165305874Y-119399000D01*
X165686280Y-119241431D01*
X165977431Y-118950280D01*
X166095286Y-118665750D01*
X175815000Y-118665750D01*
X175815000Y-118956309D01*
X175911673Y-119189698D01*
X176090301Y-119368327D01*
X176323690Y-119465000D01*
X176564250Y-119465000D01*
X176723000Y-119306250D01*
X176723000Y-118507000D01*
X175973750Y-118507000D01*
X175815000Y-118665750D01*
X166095286Y-118665750D01*
X166135000Y-118569874D01*
X166135000Y-118158126D01*
X165988189Y-117803691D01*
X175815000Y-117803691D01*
X175815000Y-118094250D01*
X175973750Y-118253000D01*
X176723000Y-118253000D01*
X176723000Y-117453750D01*
X176564250Y-117295000D01*
X176323690Y-117295000D01*
X176090301Y-117391673D01*
X175911673Y-117570302D01*
X175815000Y-117803691D01*
X165988189Y-117803691D01*
X165977431Y-117777720D01*
X165686280Y-117486569D01*
X165305874Y-117329000D01*
X164894126Y-117329000D01*
X164513720Y-117486569D01*
X164432012Y-117568277D01*
X164367809Y-117472191D01*
X164157765Y-117331843D01*
X163910000Y-117282560D01*
X163110000Y-117282560D01*
X162862235Y-117331843D01*
X162652191Y-117472191D01*
X162562987Y-117605694D01*
X162548327Y-117570302D01*
X162369699Y-117391673D01*
X162136310Y-117295000D01*
X161895750Y-117295000D01*
X161737000Y-117453750D01*
X161737000Y-118253000D01*
X161757000Y-118253000D01*
X161757000Y-118507000D01*
X161737000Y-118507000D01*
X161737000Y-119306250D01*
X161822531Y-119391781D01*
X161702191Y-119472191D01*
X161561843Y-119682235D01*
X161512560Y-119930000D01*
X161512560Y-120830000D01*
X161561843Y-121077765D01*
X161675000Y-121247115D01*
X161675001Y-123175598D01*
X161664654Y-123179884D01*
X161495504Y-123349034D01*
X161493157Y-123337235D01*
X161352809Y-123127191D01*
X161142765Y-122986843D01*
X160895000Y-122937560D01*
X159145000Y-122937560D01*
X158897235Y-122986843D01*
X158687191Y-123127191D01*
X158546843Y-123337235D01*
X158497560Y-123585000D01*
X158497560Y-125335000D01*
X158546843Y-125582765D01*
X158687191Y-125792809D01*
X158897235Y-125933157D01*
X159145000Y-125982440D01*
X160895000Y-125982440D01*
X161142765Y-125933157D01*
X161352809Y-125792809D01*
X161493157Y-125582765D01*
X161495504Y-125570966D01*
X161664654Y-125740116D01*
X162219642Y-125970000D01*
X162820358Y-125970000D01*
X163375346Y-125740116D01*
X163770000Y-125345462D01*
X164135000Y-125710462D01*
X164135000Y-128651269D01*
X163781874Y-128505000D01*
X163370126Y-128505000D01*
X162989720Y-128662569D01*
X162698569Y-128953720D01*
X162541000Y-129334126D01*
X162541000Y-129745874D01*
X162698569Y-130126280D01*
X162707514Y-130135225D01*
X162652191Y-130172191D01*
X162562987Y-130305694D01*
X162548327Y-130270302D01*
X162369699Y-130091673D01*
X162136310Y-129995000D01*
X161895750Y-129995000D01*
X161737000Y-130153750D01*
X161737000Y-130953000D01*
X161757000Y-130953000D01*
X161757000Y-131207000D01*
X161737000Y-131207000D01*
X161737000Y-132006250D01*
X161822531Y-132091781D01*
X161702191Y-132172191D01*
X161561843Y-132382235D01*
X161512560Y-132630000D01*
X161512560Y-133530000D01*
X161561843Y-133777765D01*
X161675000Y-133947115D01*
X161675001Y-135875598D01*
X161664654Y-135879884D01*
X161495504Y-136049034D01*
X161493157Y-136037235D01*
X161352809Y-135827191D01*
X161142765Y-135686843D01*
X160895000Y-135637560D01*
X159145000Y-135637560D01*
X158897235Y-135686843D01*
X158687191Y-135827191D01*
X158546843Y-136037235D01*
X158497560Y-136285000D01*
X158497560Y-138035000D01*
X158546843Y-138282765D01*
X158687191Y-138492809D01*
X158897235Y-138633157D01*
X159145000Y-138682440D01*
X160895000Y-138682440D01*
X161142765Y-138633157D01*
X161352809Y-138492809D01*
X161493157Y-138282765D01*
X161495504Y-138270966D01*
X161664654Y-138440116D01*
X162219642Y-138670000D01*
X162820358Y-138670000D01*
X163375346Y-138440116D01*
X163770000Y-138045462D01*
X164118378Y-138393840D01*
X164117663Y-138397436D01*
X164186348Y-138742745D01*
X164215000Y-138785626D01*
X164215000Y-139065000D01*
X150745000Y-139065000D01*
X150745000Y-138564595D01*
X150762337Y-138477435D01*
X150745000Y-138390276D01*
X150745000Y-138390271D01*
X150735077Y-138340385D01*
X150853402Y-138222060D01*
X151397545Y-138222060D01*
X151480884Y-138475953D01*
X152045306Y-138681590D01*
X152645458Y-138655579D01*
X153079116Y-138475953D01*
X153162455Y-138222060D01*
X152280000Y-137339605D01*
X151397545Y-138222060D01*
X150853402Y-138222060D01*
X151060116Y-138015346D01*
X151069121Y-137993606D01*
X151217940Y-138042455D01*
X152100395Y-137160000D01*
X152459605Y-137160000D01*
X153342060Y-138042455D01*
X153595953Y-137959116D01*
X153801590Y-137394694D01*
X153775579Y-136794542D01*
X153595953Y-136360884D01*
X153342060Y-136277545D01*
X152459605Y-137160000D01*
X152100395Y-137160000D01*
X151217940Y-136277545D01*
X151069121Y-136326394D01*
X151060116Y-136304654D01*
X150853402Y-136097940D01*
X151397545Y-136097940D01*
X152280000Y-136980395D01*
X153162455Y-136097940D01*
X153079116Y-135844047D01*
X152514694Y-135638410D01*
X151914542Y-135664421D01*
X151480884Y-135844047D01*
X151397545Y-136097940D01*
X150853402Y-136097940D01*
X150665000Y-135909538D01*
X150665000Y-131365750D01*
X160575000Y-131365750D01*
X160575000Y-131656309D01*
X160671673Y-131889698D01*
X160850301Y-132068327D01*
X161083690Y-132165000D01*
X161324250Y-132165000D01*
X161483000Y-132006250D01*
X161483000Y-131207000D01*
X160733750Y-131207000D01*
X160575000Y-131365750D01*
X150665000Y-131365750D01*
X150665000Y-130503691D01*
X160575000Y-130503691D01*
X160575000Y-130794250D01*
X160733750Y-130953000D01*
X161483000Y-130953000D01*
X161483000Y-130153750D01*
X161324250Y-129995000D01*
X161083690Y-129995000D01*
X160850301Y-130091673D01*
X160671673Y-130270302D01*
X160575000Y-130503691D01*
X150665000Y-130503691D01*
X150665000Y-125710462D01*
X150853402Y-125522060D01*
X151397545Y-125522060D01*
X151480884Y-125775953D01*
X152045306Y-125981590D01*
X152645458Y-125955579D01*
X153079116Y-125775953D01*
X153162455Y-125522060D01*
X152280000Y-124639605D01*
X151397545Y-125522060D01*
X150853402Y-125522060D01*
X151060116Y-125315346D01*
X151069121Y-125293606D01*
X151217940Y-125342455D01*
X152100395Y-124460000D01*
X152459605Y-124460000D01*
X153342060Y-125342455D01*
X153595953Y-125259116D01*
X153801590Y-124694694D01*
X153775579Y-124094542D01*
X153595953Y-123660884D01*
X153342060Y-123577545D01*
X152459605Y-124460000D01*
X152100395Y-124460000D01*
X151217940Y-123577545D01*
X151069121Y-123626394D01*
X151060116Y-123604654D01*
X150853402Y-123397940D01*
X151397545Y-123397940D01*
X152280000Y-124280395D01*
X153162455Y-123397940D01*
X153079116Y-123144047D01*
X152514694Y-122938410D01*
X151914542Y-122964421D01*
X151480884Y-123144047D01*
X151397545Y-123397940D01*
X150853402Y-123397940D01*
X150635346Y-123179884D01*
X150080358Y-122950000D01*
X149479642Y-122950000D01*
X148924654Y-123179884D01*
X148530000Y-123574538D01*
X148205000Y-123249538D01*
X148205000Y-121247115D01*
X148318157Y-121077765D01*
X148367440Y-120830000D01*
X148367440Y-119930000D01*
X148318157Y-119682235D01*
X148181316Y-119477440D01*
X148670000Y-119477440D01*
X148917765Y-119428157D01*
X149127809Y-119287809D01*
X149268157Y-119077765D01*
X149317440Y-118830000D01*
X149317440Y-117930000D01*
X149268157Y-117682235D01*
X149127809Y-117472191D01*
X149013971Y-117396126D01*
X153905000Y-117396126D01*
X153905000Y-117807874D01*
X154062569Y-118188280D01*
X154180001Y-118305712D01*
X154180000Y-120708289D01*
X154062569Y-120825720D01*
X153905000Y-121206126D01*
X153905000Y-121617874D01*
X154062569Y-121998280D01*
X154353720Y-122289431D01*
X154734126Y-122447000D01*
X155145874Y-122447000D01*
X155526280Y-122289431D01*
X155817431Y-121998280D01*
X155975000Y-121617874D01*
X155975000Y-121206126D01*
X155817431Y-120825720D01*
X155700000Y-120708289D01*
X155700000Y-118665750D01*
X160575000Y-118665750D01*
X160575000Y-118956309D01*
X160671673Y-119189698D01*
X160850301Y-119368327D01*
X161083690Y-119465000D01*
X161324250Y-119465000D01*
X161483000Y-119306250D01*
X161483000Y-118507000D01*
X160733750Y-118507000D01*
X160575000Y-118665750D01*
X155700000Y-118665750D01*
X155700000Y-118305711D01*
X155817431Y-118188280D01*
X155975000Y-117807874D01*
X155975000Y-117803691D01*
X160575000Y-117803691D01*
X160575000Y-118094250D01*
X160733750Y-118253000D01*
X161483000Y-118253000D01*
X161483000Y-117453750D01*
X161324250Y-117295000D01*
X161083690Y-117295000D01*
X160850301Y-117391673D01*
X160671673Y-117570302D01*
X160575000Y-117803691D01*
X155975000Y-117803691D01*
X155975000Y-117396126D01*
X155817431Y-117015720D01*
X155526280Y-116724569D01*
X155145874Y-116567000D01*
X154734126Y-116567000D01*
X154353720Y-116724569D01*
X154062569Y-117015720D01*
X153905000Y-117396126D01*
X149013971Y-117396126D01*
X148917765Y-117331843D01*
X148842000Y-117316773D01*
X148842000Y-117035711D01*
X148959431Y-116918280D01*
X149117000Y-116537874D01*
X149117000Y-116126126D01*
X148959431Y-115745720D01*
X148668280Y-115454569D01*
X148287874Y-115297000D01*
X147876126Y-115297000D01*
X147495720Y-115454569D01*
X147204569Y-115745720D01*
X147047000Y-116126126D01*
X147047000Y-116537874D01*
X147204569Y-116918280D01*
X147322000Y-117035711D01*
X147322001Y-117603313D01*
X147308327Y-117570302D01*
X147129699Y-117391673D01*
X146896310Y-117295000D01*
X146655750Y-117295000D01*
X146497000Y-117453750D01*
X146497000Y-118253000D01*
X146517000Y-118253000D01*
X146517000Y-118507000D01*
X146497000Y-118507000D01*
X146497000Y-119306250D01*
X146582531Y-119391781D01*
X146462191Y-119472191D01*
X146321843Y-119682235D01*
X146272560Y-119930000D01*
X146272560Y-120830000D01*
X146321843Y-121077765D01*
X146435000Y-121247115D01*
X146435001Y-123175598D01*
X146424654Y-123179884D01*
X146255504Y-123349034D01*
X146253157Y-123337235D01*
X146112809Y-123127191D01*
X145902765Y-122986843D01*
X145655000Y-122937560D01*
X143905000Y-122937560D01*
X143657235Y-122986843D01*
X143447191Y-123127191D01*
X143306843Y-123337235D01*
X143257560Y-123585000D01*
X143257560Y-125335000D01*
X143306843Y-125582765D01*
X143447191Y-125792809D01*
X143657235Y-125933157D01*
X143905000Y-125982440D01*
X145655000Y-125982440D01*
X145902765Y-125933157D01*
X146112809Y-125792809D01*
X146253157Y-125582765D01*
X146255504Y-125570966D01*
X146424654Y-125740116D01*
X146979642Y-125970000D01*
X147580358Y-125970000D01*
X148135346Y-125740116D01*
X148530000Y-125345462D01*
X148895000Y-125710462D01*
X148895000Y-128651269D01*
X148541874Y-128505000D01*
X148130126Y-128505000D01*
X147749720Y-128662569D01*
X147458569Y-128953720D01*
X147301000Y-129334126D01*
X147301000Y-129745874D01*
X147458569Y-130126280D01*
X147467514Y-130135225D01*
X147412191Y-130172191D01*
X147322987Y-130305694D01*
X147308327Y-130270302D01*
X147129699Y-130091673D01*
X146896310Y-129995000D01*
X146655750Y-129995000D01*
X146497000Y-130153750D01*
X146497000Y-130953000D01*
X146517000Y-130953000D01*
X146517000Y-131207000D01*
X146497000Y-131207000D01*
X146497000Y-132006250D01*
X146582531Y-132091781D01*
X146462191Y-132172191D01*
X146321843Y-132382235D01*
X146272560Y-132630000D01*
X146272560Y-133530000D01*
X146321843Y-133777765D01*
X146435000Y-133947115D01*
X146435001Y-135875598D01*
X146424654Y-135879884D01*
X146255504Y-136049034D01*
X146253157Y-136037235D01*
X146112809Y-135827191D01*
X145902765Y-135686843D01*
X145655000Y-135637560D01*
X143905000Y-135637560D01*
X143657235Y-135686843D01*
X143447191Y-135827191D01*
X143306843Y-136037235D01*
X143257560Y-136285000D01*
X143257560Y-138035000D01*
X143306843Y-138282765D01*
X143447191Y-138492809D01*
X143657235Y-138633157D01*
X143905000Y-138682440D01*
X145655000Y-138682440D01*
X145902765Y-138633157D01*
X146112809Y-138492809D01*
X146253157Y-138282765D01*
X146255504Y-138270966D01*
X146424654Y-138440116D01*
X146979642Y-138670000D01*
X147580358Y-138670000D01*
X148135346Y-138440116D01*
X148530000Y-138045462D01*
X148878378Y-138393840D01*
X148877663Y-138397436D01*
X148946348Y-138742745D01*
X148975000Y-138785626D01*
X148975000Y-139065000D01*
X135505000Y-139065000D01*
X135505000Y-138564595D01*
X135522337Y-138477435D01*
X135505000Y-138390276D01*
X135505000Y-138390271D01*
X135495077Y-138340385D01*
X135613402Y-138222060D01*
X136157545Y-138222060D01*
X136240884Y-138475953D01*
X136805306Y-138681590D01*
X137405458Y-138655579D01*
X137839116Y-138475953D01*
X137922455Y-138222060D01*
X137040000Y-137339605D01*
X136157545Y-138222060D01*
X135613402Y-138222060D01*
X135820116Y-138015346D01*
X135829121Y-137993606D01*
X135977940Y-138042455D01*
X136860395Y-137160000D01*
X137219605Y-137160000D01*
X138102060Y-138042455D01*
X138355953Y-137959116D01*
X138561590Y-137394694D01*
X138535579Y-136794542D01*
X138355953Y-136360884D01*
X138102060Y-136277545D01*
X137219605Y-137160000D01*
X136860395Y-137160000D01*
X135977940Y-136277545D01*
X135829121Y-136326394D01*
X135820116Y-136304654D01*
X135613402Y-136097940D01*
X136157545Y-136097940D01*
X137040000Y-136980395D01*
X137922455Y-136097940D01*
X137839116Y-135844047D01*
X137274694Y-135638410D01*
X136674542Y-135664421D01*
X136240884Y-135844047D01*
X136157545Y-136097940D01*
X135613402Y-136097940D01*
X135425000Y-135909538D01*
X135425000Y-131365750D01*
X145335000Y-131365750D01*
X145335000Y-131656309D01*
X145431673Y-131889698D01*
X145610301Y-132068327D01*
X145843690Y-132165000D01*
X146084250Y-132165000D01*
X146243000Y-132006250D01*
X146243000Y-131207000D01*
X145493750Y-131207000D01*
X145335000Y-131365750D01*
X135425000Y-131365750D01*
X135425000Y-130503691D01*
X145335000Y-130503691D01*
X145335000Y-130794250D01*
X145493750Y-130953000D01*
X146243000Y-130953000D01*
X146243000Y-130153750D01*
X146084250Y-129995000D01*
X145843690Y-129995000D01*
X145610301Y-130091673D01*
X145431673Y-130270302D01*
X145335000Y-130503691D01*
X135425000Y-130503691D01*
X135425000Y-125710462D01*
X135613402Y-125522060D01*
X136157545Y-125522060D01*
X136240884Y-125775953D01*
X136805306Y-125981590D01*
X137405458Y-125955579D01*
X137839116Y-125775953D01*
X137922455Y-125522060D01*
X137040000Y-124639605D01*
X136157545Y-125522060D01*
X135613402Y-125522060D01*
X135820116Y-125315346D01*
X135829121Y-125293606D01*
X135977940Y-125342455D01*
X136860395Y-124460000D01*
X137219605Y-124460000D01*
X138102060Y-125342455D01*
X138355953Y-125259116D01*
X138561590Y-124694694D01*
X138535579Y-124094542D01*
X138355953Y-123660884D01*
X138102060Y-123577545D01*
X137219605Y-124460000D01*
X136860395Y-124460000D01*
X135977940Y-123577545D01*
X135829121Y-123626394D01*
X135820116Y-123604654D01*
X135613402Y-123397940D01*
X136157545Y-123397940D01*
X137040000Y-124280395D01*
X137922455Y-123397940D01*
X137839116Y-123144047D01*
X137274694Y-122938410D01*
X136674542Y-122964421D01*
X136240884Y-123144047D01*
X136157545Y-123397940D01*
X135613402Y-123397940D01*
X135425000Y-123209538D01*
X135425000Y-118665750D01*
X145335000Y-118665750D01*
X145335000Y-118956309D01*
X145431673Y-119189698D01*
X145610301Y-119368327D01*
X145843690Y-119465000D01*
X146084250Y-119465000D01*
X146243000Y-119306250D01*
X146243000Y-118507000D01*
X145493750Y-118507000D01*
X145335000Y-118665750D01*
X135425000Y-118665750D01*
X135425000Y-117803691D01*
X145335000Y-117803691D01*
X145335000Y-118094250D01*
X145493750Y-118253000D01*
X146243000Y-118253000D01*
X146243000Y-117453750D01*
X146084250Y-117295000D01*
X145843690Y-117295000D01*
X145610301Y-117391673D01*
X145431673Y-117570302D01*
X145335000Y-117803691D01*
X135425000Y-117803691D01*
X135425000Y-113010462D01*
X135613402Y-112822060D01*
X136157545Y-112822060D01*
X136240884Y-113075953D01*
X136805306Y-113281590D01*
X137405458Y-113255579D01*
X137839116Y-113075953D01*
X137922455Y-112822060D01*
X137040000Y-111939605D01*
X136157545Y-112822060D01*
X135613402Y-112822060D01*
X135820116Y-112615346D01*
X135829121Y-112593606D01*
X135977940Y-112642455D01*
X136860395Y-111760000D01*
X137219605Y-111760000D01*
X138102060Y-112642455D01*
X138355953Y-112559116D01*
X138561590Y-111994694D01*
X138535579Y-111394542D01*
X138355953Y-110960884D01*
X138102060Y-110877545D01*
X137219605Y-111760000D01*
X136860395Y-111760000D01*
X135977940Y-110877545D01*
X135829121Y-110926394D01*
X135820116Y-110904654D01*
X135613402Y-110697940D01*
X136157545Y-110697940D01*
X137040000Y-111580395D01*
X137922455Y-110697940D01*
X137839116Y-110444047D01*
X137274694Y-110238410D01*
X136674542Y-110264421D01*
X136240884Y-110444047D01*
X136157545Y-110697940D01*
X135613402Y-110697940D01*
X135395346Y-110479884D01*
X134840358Y-110250000D01*
X134239642Y-110250000D01*
X133684654Y-110479884D01*
X133290000Y-110874538D01*
X132925000Y-110509538D01*
X132925000Y-109776126D01*
X140951000Y-109776126D01*
X140951000Y-110187874D01*
X141108569Y-110568280D01*
X141399720Y-110859431D01*
X141780126Y-111017000D01*
X141946199Y-111017000D01*
X144443671Y-113514473D01*
X144486071Y-113577929D01*
X144737463Y-113745904D01*
X144959148Y-113790000D01*
X144959153Y-113790000D01*
X145034000Y-113804888D01*
X145108847Y-113790000D01*
X149851822Y-113790000D01*
X150059375Y-114100625D01*
X150550582Y-114428839D01*
X150983744Y-114515000D01*
X151276256Y-114515000D01*
X151709418Y-114428839D01*
X152200625Y-114100625D01*
X152400000Y-113802239D01*
X152599375Y-114100625D01*
X153090582Y-114428839D01*
X153523744Y-114515000D01*
X153816256Y-114515000D01*
X154249418Y-114428839D01*
X154740625Y-114100625D01*
X154940000Y-113802239D01*
X155139375Y-114100625D01*
X155630582Y-114428839D01*
X156063744Y-114515000D01*
X156356256Y-114515000D01*
X156789418Y-114428839D01*
X157280625Y-114100625D01*
X157480000Y-113802239D01*
X157679375Y-114100625D01*
X158170582Y-114428839D01*
X158603744Y-114515000D01*
X158896256Y-114515000D01*
X159329418Y-114428839D01*
X159820625Y-114100625D01*
X160020000Y-113802239D01*
X160219375Y-114100625D01*
X160710582Y-114428839D01*
X161143744Y-114515000D01*
X161436256Y-114515000D01*
X161869418Y-114428839D01*
X162360625Y-114100625D01*
X162573843Y-113781522D01*
X162634817Y-113911358D01*
X163063076Y-114301645D01*
X163473110Y-114471476D01*
X163703000Y-114350155D01*
X163703000Y-113157000D01*
X163683000Y-113157000D01*
X163683000Y-112903000D01*
X163703000Y-112903000D01*
X163703000Y-111709845D01*
X163957000Y-111709845D01*
X163957000Y-112903000D01*
X163977000Y-112903000D01*
X163977000Y-113157000D01*
X163957000Y-113157000D01*
X163957000Y-114350155D01*
X164186890Y-114471476D01*
X164596924Y-114301645D01*
X165025183Y-113911358D01*
X165086157Y-113781522D01*
X165299375Y-114100625D01*
X165790582Y-114428839D01*
X166223744Y-114515000D01*
X166516256Y-114515000D01*
X166949418Y-114428839D01*
X167440625Y-114100625D01*
X167640000Y-113802239D01*
X167839375Y-114100625D01*
X168330582Y-114428839D01*
X168763744Y-114515000D01*
X169056256Y-114515000D01*
X169489418Y-114428839D01*
X169980625Y-114100625D01*
X170180000Y-113802239D01*
X170379375Y-114100625D01*
X170870582Y-114428839D01*
X171303744Y-114515000D01*
X171596256Y-114515000D01*
X172029418Y-114428839D01*
X172520625Y-114100625D01*
X172720000Y-113802239D01*
X172919375Y-114100625D01*
X173410582Y-114428839D01*
X173843744Y-114515000D01*
X174136256Y-114515000D01*
X174569418Y-114428839D01*
X175060625Y-114100625D01*
X175260000Y-113802239D01*
X175459375Y-114100625D01*
X175950582Y-114428839D01*
X176383744Y-114515000D01*
X176676256Y-114515000D01*
X177109418Y-114428839D01*
X177600625Y-114100625D01*
X177800000Y-113802239D01*
X177999375Y-114100625D01*
X178490582Y-114428839D01*
X178923744Y-114515000D01*
X179216256Y-114515000D01*
X179649418Y-114428839D01*
X180140625Y-114100625D01*
X180340000Y-113802239D01*
X180539375Y-114100625D01*
X181030582Y-114428839D01*
X181463744Y-114515000D01*
X181756256Y-114515000D01*
X182189418Y-114428839D01*
X182680625Y-114100625D01*
X182880000Y-113802239D01*
X183079375Y-114100625D01*
X183570582Y-114428839D01*
X184003744Y-114515000D01*
X184296256Y-114515000D01*
X184729418Y-114428839D01*
X185220625Y-114100625D01*
X185420000Y-113802239D01*
X185619375Y-114100625D01*
X186110582Y-114428839D01*
X186543744Y-114515000D01*
X186836256Y-114515000D01*
X187269418Y-114428839D01*
X187760625Y-114100625D01*
X187960000Y-113802239D01*
X188159375Y-114100625D01*
X188650582Y-114428839D01*
X189083744Y-114515000D01*
X189376256Y-114515000D01*
X189809418Y-114428839D01*
X190300625Y-114100625D01*
X190312816Y-114082381D01*
X190321843Y-114127765D01*
X190462191Y-114337809D01*
X190672235Y-114478157D01*
X190920000Y-114527440D01*
X192620000Y-114527440D01*
X192867765Y-114478157D01*
X193077809Y-114337809D01*
X193218157Y-114127765D01*
X193267440Y-113880000D01*
X193267440Y-112180000D01*
X193218157Y-111932235D01*
X193077809Y-111722191D01*
X192867765Y-111581843D01*
X192620000Y-111532560D01*
X190920000Y-111532560D01*
X190672235Y-111581843D01*
X190462191Y-111722191D01*
X190321843Y-111932235D01*
X190312816Y-111977619D01*
X190300625Y-111959375D01*
X189809418Y-111631161D01*
X189376256Y-111545000D01*
X189083744Y-111545000D01*
X188650582Y-111631161D01*
X188159375Y-111959375D01*
X187960000Y-112257761D01*
X187760625Y-111959375D01*
X187269418Y-111631161D01*
X186836256Y-111545000D01*
X186543744Y-111545000D01*
X186110582Y-111631161D01*
X185619375Y-111959375D01*
X185420000Y-112257761D01*
X185220625Y-111959375D01*
X184729418Y-111631161D01*
X184296256Y-111545000D01*
X184003744Y-111545000D01*
X183570582Y-111631161D01*
X183079375Y-111959375D01*
X182880000Y-112257761D01*
X182680625Y-111959375D01*
X182189418Y-111631161D01*
X181756256Y-111545000D01*
X181463744Y-111545000D01*
X181030582Y-111631161D01*
X180539375Y-111959375D01*
X180340000Y-112257761D01*
X180140625Y-111959375D01*
X179649418Y-111631161D01*
X179216256Y-111545000D01*
X178923744Y-111545000D01*
X178490582Y-111631161D01*
X177999375Y-111959375D01*
X177800000Y-112257761D01*
X177600625Y-111959375D01*
X177109418Y-111631161D01*
X176676256Y-111545000D01*
X176383744Y-111545000D01*
X175950582Y-111631161D01*
X175459375Y-111959375D01*
X175260000Y-112257761D01*
X175060625Y-111959375D01*
X174569418Y-111631161D01*
X174136256Y-111545000D01*
X173843744Y-111545000D01*
X173410582Y-111631161D01*
X172919375Y-111959375D01*
X172720000Y-112257761D01*
X172520625Y-111959375D01*
X172029418Y-111631161D01*
X171596256Y-111545000D01*
X171303744Y-111545000D01*
X170870582Y-111631161D01*
X170379375Y-111959375D01*
X170180000Y-112257761D01*
X169980625Y-111959375D01*
X169489418Y-111631161D01*
X169056256Y-111545000D01*
X168763744Y-111545000D01*
X168330582Y-111631161D01*
X167839375Y-111959375D01*
X167640000Y-112257761D01*
X167440625Y-111959375D01*
X166949418Y-111631161D01*
X166516256Y-111545000D01*
X166223744Y-111545000D01*
X165790582Y-111631161D01*
X165299375Y-111959375D01*
X165086157Y-112278478D01*
X165025183Y-112148642D01*
X164596924Y-111758355D01*
X164186890Y-111588524D01*
X163957000Y-111709845D01*
X163703000Y-111709845D01*
X163473110Y-111588524D01*
X163063076Y-111758355D01*
X162634817Y-112148642D01*
X162573843Y-112278478D01*
X162360625Y-111959375D01*
X161869418Y-111631161D01*
X161436256Y-111545000D01*
X161143744Y-111545000D01*
X160710582Y-111631161D01*
X160219375Y-111959375D01*
X160020000Y-112257761D01*
X159820625Y-111959375D01*
X159329418Y-111631161D01*
X158896256Y-111545000D01*
X158603744Y-111545000D01*
X158170582Y-111631161D01*
X157679375Y-111959375D01*
X157480000Y-112257761D01*
X157280625Y-111959375D01*
X156789418Y-111631161D01*
X156356256Y-111545000D01*
X156063744Y-111545000D01*
X155630582Y-111631161D01*
X155139375Y-111959375D01*
X154940000Y-112257761D01*
X154740625Y-111959375D01*
X154249418Y-111631161D01*
X153816256Y-111545000D01*
X153523744Y-111545000D01*
X153090582Y-111631161D01*
X152599375Y-111959375D01*
X152400000Y-112257761D01*
X152200625Y-111959375D01*
X151709418Y-111631161D01*
X151276256Y-111545000D01*
X150983744Y-111545000D01*
X150550582Y-111631161D01*
X150059375Y-111959375D01*
X149851822Y-112270000D01*
X145348802Y-112270000D01*
X143021000Y-109942199D01*
X143021000Y-109776126D01*
X142863431Y-109395720D01*
X142572280Y-109104569D01*
X142191874Y-108947000D01*
X141780126Y-108947000D01*
X141399720Y-109104569D01*
X141108569Y-109395720D01*
X140951000Y-109776126D01*
X132925000Y-109776126D01*
X132925000Y-108596368D01*
X132937809Y-108587809D01*
X133078157Y-108377765D01*
X133127440Y-108130000D01*
X133127440Y-107230000D01*
X133078157Y-106982235D01*
X132941316Y-106777440D01*
X133430000Y-106777440D01*
X133677765Y-106728157D01*
X133887809Y-106587809D01*
X133986573Y-106440000D01*
X134067199Y-106440000D01*
X135045671Y-107418473D01*
X135088071Y-107481929D01*
X135151527Y-107524329D01*
X135339462Y-107649904D01*
X135387605Y-107659480D01*
X135561148Y-107694000D01*
X135561152Y-107694000D01*
X135636000Y-107708888D01*
X135710848Y-107694000D01*
X138863153Y-107694000D01*
X138938000Y-107708888D01*
X139012847Y-107694000D01*
X139012852Y-107694000D01*
X139234537Y-107649904D01*
X139485929Y-107481929D01*
X139528331Y-107418470D01*
X140201829Y-106744973D01*
X140265285Y-106702573D01*
X140345475Y-106582560D01*
X140433260Y-106451182D01*
X140447863Y-106377765D01*
X140477356Y-106229496D01*
X140477356Y-106229492D01*
X140492244Y-106154644D01*
X140477356Y-106079796D01*
X140477356Y-105532181D01*
X140490126Y-105526892D01*
X140602063Y-105467060D01*
X140683562Y-105412604D01*
X140781672Y-105332087D01*
X140850980Y-105262779D01*
X140931497Y-105164669D01*
X140985953Y-105083170D01*
X141045785Y-104971233D01*
X141083294Y-104880677D01*
X141120136Y-104759224D01*
X141139258Y-104663091D01*
X141151698Y-104536782D01*
X141151698Y-104499879D01*
X141154106Y-104487773D01*
X141154106Y-103947773D01*
X141226972Y-103947773D01*
X142162198Y-104883000D01*
X141780126Y-104883000D01*
X141399720Y-105040569D01*
X141108569Y-105331720D01*
X140951000Y-105712126D01*
X140951000Y-106123874D01*
X141108569Y-106504280D01*
X141399720Y-106795431D01*
X141780126Y-106953000D01*
X142191874Y-106953000D01*
X142572280Y-106795431D01*
X142689711Y-106678000D01*
X153609199Y-106678000D01*
X153905000Y-106973802D01*
X153905000Y-107139874D01*
X154062569Y-107520280D01*
X154353720Y-107811431D01*
X154734126Y-107969000D01*
X155145874Y-107969000D01*
X155526280Y-107811431D01*
X155702000Y-107635711D01*
X155877720Y-107811431D01*
X156258126Y-107969000D01*
X156669874Y-107969000D01*
X157050280Y-107811431D01*
X157226000Y-107635711D01*
X157401720Y-107811431D01*
X157782126Y-107969000D01*
X158193874Y-107969000D01*
X158574280Y-107811431D01*
X158750000Y-107635711D01*
X158925720Y-107811431D01*
X159306126Y-107969000D01*
X159717874Y-107969000D01*
X160098280Y-107811431D01*
X160389431Y-107520280D01*
X160547000Y-107139874D01*
X160547000Y-106728126D01*
X160389431Y-106347720D01*
X160098280Y-106056569D01*
X159717874Y-105899000D01*
X159551802Y-105899000D01*
X158622256Y-104969455D01*
X158865431Y-104726280D01*
X159023000Y-104345874D01*
X159023000Y-103934126D01*
X158865431Y-103553720D01*
X158574280Y-103262569D01*
X158193874Y-103105000D01*
X158041913Y-103105000D01*
X158027929Y-103084071D01*
X157776537Y-102916096D01*
X157554852Y-102872000D01*
X157554847Y-102872000D01*
X157480000Y-102857112D01*
X157405153Y-102872000D01*
X151698802Y-102872000D01*
X151382000Y-102555199D01*
X151382000Y-101541711D01*
X151499431Y-101424280D01*
X151657000Y-101043874D01*
X151657000Y-100632126D01*
X151499431Y-100251720D01*
X151208280Y-99960569D01*
X150827874Y-99803000D01*
X150416126Y-99803000D01*
X150035720Y-99960569D01*
X149744569Y-100251720D01*
X149587000Y-100632126D01*
X149587000Y-101043874D01*
X149744569Y-101424280D01*
X149862001Y-101541712D01*
X149862000Y-102795153D01*
X149847112Y-102870000D01*
X149862000Y-102944847D01*
X149862000Y-102944851D01*
X149906096Y-103166536D01*
X150048728Y-103380000D01*
X145856802Y-103380000D01*
X144545000Y-102068199D01*
X144545000Y-101902126D01*
X144387431Y-101521720D01*
X144096280Y-101230569D01*
X143715874Y-101073000D01*
X143304126Y-101073000D01*
X142923720Y-101230569D01*
X142632569Y-101521720D01*
X142475000Y-101902126D01*
X142475000Y-102313874D01*
X142632569Y-102694280D01*
X142808289Y-102870000D01*
X142632569Y-103045720D01*
X142586278Y-103157477D01*
X142132104Y-102703303D01*
X142089702Y-102639844D01*
X141838310Y-102471869D01*
X141616625Y-102427773D01*
X141616620Y-102427773D01*
X141541773Y-102412885D01*
X141466926Y-102427773D01*
X141154106Y-102427773D01*
X141154106Y-101887773D01*
X141151698Y-101875667D01*
X141151698Y-101838764D01*
X141139258Y-101712455D01*
X141120136Y-101616322D01*
X141083294Y-101494869D01*
X141045785Y-101404313D01*
X140985953Y-101292376D01*
X140931497Y-101210877D01*
X140850980Y-101112767D01*
X140781672Y-101043459D01*
X140683562Y-100962942D01*
X140602063Y-100908486D01*
X140490126Y-100848654D01*
X140399570Y-100811145D01*
X140278117Y-100774303D01*
X140181984Y-100755181D01*
X140055675Y-100742741D01*
X140018772Y-100742741D01*
X140006666Y-100740333D01*
X139684028Y-100740333D01*
X139150000Y-100206306D01*
X139150000Y-94791610D01*
X139245346Y-94752116D01*
X139640000Y-94357462D01*
X140034654Y-94752116D01*
X140589642Y-94982000D01*
X141190358Y-94982000D01*
X141745346Y-94752116D01*
X141963402Y-94534060D01*
X142507545Y-94534060D01*
X142590884Y-94787953D01*
X143155306Y-94993590D01*
X143755458Y-94967579D01*
X144189116Y-94787953D01*
X144272455Y-94534060D01*
X143390000Y-93651605D01*
X142507545Y-94534060D01*
X141963402Y-94534060D01*
X142170116Y-94327346D01*
X142179121Y-94305606D01*
X142327940Y-94354455D01*
X143210395Y-93472000D01*
X143569605Y-93472000D01*
X144452060Y-94354455D01*
X144705953Y-94271116D01*
X144911590Y-93706694D01*
X144885579Y-93106542D01*
X144705953Y-92672884D01*
X144452060Y-92589545D01*
X143569605Y-93472000D01*
X143210395Y-93472000D01*
X142327940Y-92589545D01*
X142179121Y-92638394D01*
X142170116Y-92616654D01*
X141963402Y-92409940D01*
X142507545Y-92409940D01*
X143390000Y-93292395D01*
X144272455Y-92409940D01*
X144189116Y-92156047D01*
X143624694Y-91950410D01*
X143024542Y-91976421D01*
X142590884Y-92156047D01*
X142507545Y-92409940D01*
X141963402Y-92409940D01*
X141745346Y-92191884D01*
X141190358Y-91962000D01*
X140589642Y-91962000D01*
X140034654Y-92191884D01*
X139640000Y-92586538D01*
X139245346Y-92191884D01*
X138690358Y-91962000D01*
X138089642Y-91962000D01*
X137534654Y-92191884D01*
X137365504Y-92361034D01*
X137363157Y-92349235D01*
X137222809Y-92139191D01*
X137012765Y-91998843D01*
X136765000Y-91949560D01*
X135015000Y-91949560D01*
X134767235Y-91998843D01*
X134557191Y-92139191D01*
X134416843Y-92349235D01*
X134367560Y-92597000D01*
X134367560Y-94347000D01*
X134416843Y-94594765D01*
X134557191Y-94804809D01*
X134767235Y-94945157D01*
X135015000Y-94994440D01*
X135130000Y-94994440D01*
X135130001Y-101089118D01*
X135106352Y-101112767D01*
X135025835Y-101210877D01*
X134971379Y-101292376D01*
X134911547Y-101404313D01*
X134874038Y-101494869D01*
X134837196Y-101616322D01*
X134818074Y-101712455D01*
X134805634Y-101838764D01*
X134805634Y-101875667D01*
X134803226Y-101887773D01*
X134803226Y-102437773D01*
X134828090Y-102562773D01*
X134803226Y-102687773D01*
X134803226Y-103687773D01*
X134828090Y-103812773D01*
X134803226Y-103937773D01*
X134803226Y-104487773D01*
X134805634Y-104499879D01*
X134805634Y-104536782D01*
X134818074Y-104663091D01*
X134837196Y-104759224D01*
X134874038Y-104880677D01*
X134911547Y-104971233D01*
X134971379Y-105083170D01*
X135025835Y-105164669D01*
X135106352Y-105262779D01*
X135175660Y-105332087D01*
X135243392Y-105387674D01*
X135220278Y-105443477D01*
X134972331Y-105195530D01*
X134929929Y-105132071D01*
X134678537Y-104964096D01*
X134456852Y-104920000D01*
X134456847Y-104920000D01*
X134382000Y-104905112D01*
X134307153Y-104920000D01*
X133986573Y-104920000D01*
X133887809Y-104772191D01*
X133677765Y-104631843D01*
X133430000Y-104582560D01*
X132630000Y-104582560D01*
X132382235Y-104631843D01*
X132172191Y-104772191D01*
X132082987Y-104905694D01*
X132068327Y-104870302D01*
X131889699Y-104691673D01*
X131656310Y-104595000D01*
X131415750Y-104595000D01*
X131257000Y-104753750D01*
X131257000Y-105553000D01*
X131277000Y-105553000D01*
X131277000Y-105807000D01*
X131257000Y-105807000D01*
X131257000Y-106606250D01*
X131342531Y-106691781D01*
X131222191Y-106772191D01*
X131081843Y-106982235D01*
X131032560Y-107230000D01*
X131032560Y-108130000D01*
X131081843Y-108377765D01*
X131155001Y-108487253D01*
X131155000Y-110509538D01*
X131015504Y-110649034D01*
X131013157Y-110637235D01*
X130872809Y-110427191D01*
X130662765Y-110286843D01*
X130415000Y-110237560D01*
X128665000Y-110237560D01*
X128417235Y-110286843D01*
X128207191Y-110427191D01*
X128066843Y-110637235D01*
X128017560Y-110885000D01*
X128017560Y-112635000D01*
X128066843Y-112882765D01*
X128207191Y-113092809D01*
X128417235Y-113233157D01*
X128665000Y-113282440D01*
X130415000Y-113282440D01*
X130662765Y-113233157D01*
X130872809Y-113092809D01*
X131013157Y-112882765D01*
X131015504Y-112870966D01*
X131184654Y-113040116D01*
X131739642Y-113270000D01*
X132340358Y-113270000D01*
X132895346Y-113040116D01*
X133290000Y-112645462D01*
X133655000Y-113010462D01*
X133655000Y-115951269D01*
X133301874Y-115805000D01*
X132890126Y-115805000D01*
X132509720Y-115962569D01*
X132218569Y-116253720D01*
X132061000Y-116634126D01*
X132061000Y-117045874D01*
X132218569Y-117426280D01*
X132227514Y-117435225D01*
X132172191Y-117472191D01*
X132082987Y-117605694D01*
X132068327Y-117570302D01*
X131889699Y-117391673D01*
X131656310Y-117295000D01*
X131415750Y-117295000D01*
X131257000Y-117453750D01*
X131257000Y-118253000D01*
X131277000Y-118253000D01*
X131277000Y-118507000D01*
X131257000Y-118507000D01*
X131257000Y-119306250D01*
X131342531Y-119391781D01*
X131222191Y-119472191D01*
X131081843Y-119682235D01*
X131032560Y-119930000D01*
X131032560Y-120830000D01*
X131081843Y-121077765D01*
X131195000Y-121247115D01*
X131195001Y-123175598D01*
X131184654Y-123179884D01*
X131015504Y-123349034D01*
X131013157Y-123337235D01*
X130872809Y-123127191D01*
X130662765Y-122986843D01*
X130415000Y-122937560D01*
X128665000Y-122937560D01*
X128417235Y-122986843D01*
X128207191Y-123127191D01*
X128066843Y-123337235D01*
X128017560Y-123585000D01*
X128017560Y-125335000D01*
X128066843Y-125582765D01*
X128207191Y-125792809D01*
X128417235Y-125933157D01*
X128665000Y-125982440D01*
X130415000Y-125982440D01*
X130662765Y-125933157D01*
X130872809Y-125792809D01*
X131013157Y-125582765D01*
X131015504Y-125570966D01*
X131184654Y-125740116D01*
X131739642Y-125970000D01*
X132340358Y-125970000D01*
X132895346Y-125740116D01*
X133290000Y-125345462D01*
X133655000Y-125710462D01*
X133655000Y-128651269D01*
X133301874Y-128505000D01*
X132890126Y-128505000D01*
X132509720Y-128662569D01*
X132218569Y-128953720D01*
X132061000Y-129334126D01*
X132061000Y-129745874D01*
X132218569Y-130126280D01*
X132227514Y-130135225D01*
X132172191Y-130172191D01*
X132082987Y-130305694D01*
X132068327Y-130270302D01*
X131889699Y-130091673D01*
X131656310Y-129995000D01*
X131415750Y-129995000D01*
X131257000Y-130153750D01*
X131257000Y-130953000D01*
X131277000Y-130953000D01*
X131277000Y-131207000D01*
X131257000Y-131207000D01*
X131257000Y-132006250D01*
X131342531Y-132091781D01*
X131222191Y-132172191D01*
X131081843Y-132382235D01*
X131032560Y-132630000D01*
X131032560Y-133530000D01*
X131081843Y-133777765D01*
X131195000Y-133947115D01*
X131195001Y-135875598D01*
X131184654Y-135879884D01*
X131015504Y-136049034D01*
X131013157Y-136037235D01*
X130872809Y-135827191D01*
X130662765Y-135686843D01*
X130415000Y-135637560D01*
X128665000Y-135637560D01*
X128417235Y-135686843D01*
X128207191Y-135827191D01*
X128066843Y-136037235D01*
X128017560Y-136285000D01*
X128017560Y-138035000D01*
X128066843Y-138282765D01*
X128207191Y-138492809D01*
X128417235Y-138633157D01*
X128665000Y-138682440D01*
X130415000Y-138682440D01*
X130662765Y-138633157D01*
X130872809Y-138492809D01*
X131013157Y-138282765D01*
X131015504Y-138270966D01*
X131184654Y-138440116D01*
X131739642Y-138670000D01*
X132340358Y-138670000D01*
X132895346Y-138440116D01*
X133290000Y-138045462D01*
X133638378Y-138393840D01*
X133637663Y-138397436D01*
X133706348Y-138742745D01*
X133735000Y-138785626D01*
X133735000Y-139065000D01*
X120265000Y-139065000D01*
X120265000Y-138564595D01*
X120282337Y-138477435D01*
X120265000Y-138390276D01*
X120265000Y-138390271D01*
X120255077Y-138340385D01*
X120373402Y-138222060D01*
X120917545Y-138222060D01*
X121000884Y-138475953D01*
X121565306Y-138681590D01*
X122165458Y-138655579D01*
X122599116Y-138475953D01*
X122682455Y-138222060D01*
X121800000Y-137339605D01*
X120917545Y-138222060D01*
X120373402Y-138222060D01*
X120580116Y-138015346D01*
X120589121Y-137993606D01*
X120737940Y-138042455D01*
X121620395Y-137160000D01*
X121979605Y-137160000D01*
X122862060Y-138042455D01*
X123115953Y-137959116D01*
X123321590Y-137394694D01*
X123295579Y-136794542D01*
X123115953Y-136360884D01*
X122862060Y-136277545D01*
X121979605Y-137160000D01*
X121620395Y-137160000D01*
X120737940Y-136277545D01*
X120589121Y-136326394D01*
X120580116Y-136304654D01*
X120373402Y-136097940D01*
X120917545Y-136097940D01*
X121800000Y-136980395D01*
X122682455Y-136097940D01*
X122599116Y-135844047D01*
X122034694Y-135638410D01*
X121434542Y-135664421D01*
X121000884Y-135844047D01*
X120917545Y-136097940D01*
X120373402Y-136097940D01*
X120155346Y-135879884D01*
X119600358Y-135650000D01*
X118999642Y-135650000D01*
X118444654Y-135879884D01*
X118050000Y-136274538D01*
X117685000Y-135909538D01*
X117685000Y-133742368D01*
X117697809Y-133733809D01*
X117838157Y-133523765D01*
X117887440Y-133276000D01*
X117887440Y-132376000D01*
X117838157Y-132128235D01*
X117701316Y-131923440D01*
X118190000Y-131923440D01*
X118437765Y-131874157D01*
X118647809Y-131733809D01*
X118788157Y-131523765D01*
X118819587Y-131365750D01*
X130095000Y-131365750D01*
X130095000Y-131656309D01*
X130191673Y-131889698D01*
X130370301Y-132068327D01*
X130603690Y-132165000D01*
X130844250Y-132165000D01*
X131003000Y-132006250D01*
X131003000Y-131207000D01*
X130253750Y-131207000D01*
X130095000Y-131365750D01*
X118819587Y-131365750D01*
X118837440Y-131276000D01*
X118837440Y-130503691D01*
X130095000Y-130503691D01*
X130095000Y-130794250D01*
X130253750Y-130953000D01*
X131003000Y-130953000D01*
X131003000Y-130153750D01*
X130844250Y-129995000D01*
X130603690Y-129995000D01*
X130370301Y-130091673D01*
X130191673Y-130270302D01*
X130095000Y-130503691D01*
X118837440Y-130503691D01*
X118837440Y-130376000D01*
X118788157Y-130128235D01*
X118663715Y-129941996D01*
X118733431Y-129872280D01*
X118891000Y-129491874D01*
X118891000Y-129080126D01*
X118733431Y-128699720D01*
X118442280Y-128408569D01*
X118061874Y-128251000D01*
X117650126Y-128251000D01*
X117269720Y-128408569D01*
X116978569Y-128699720D01*
X116821000Y-129080126D01*
X116821000Y-129491874D01*
X116978569Y-129872280D01*
X116987514Y-129881225D01*
X116932191Y-129918191D01*
X116842987Y-130051694D01*
X116828327Y-130016302D01*
X116649699Y-129837673D01*
X116416310Y-129741000D01*
X116175750Y-129741000D01*
X116017000Y-129899750D01*
X116017000Y-130699000D01*
X116037000Y-130699000D01*
X116037000Y-130953000D01*
X116017000Y-130953000D01*
X116017000Y-131752250D01*
X116102531Y-131837781D01*
X115982191Y-131918191D01*
X115841843Y-132128235D01*
X115792560Y-132376000D01*
X115792560Y-133276000D01*
X115841843Y-133523765D01*
X115915001Y-133633253D01*
X115915000Y-135909538D01*
X115775504Y-136049034D01*
X115773157Y-136037235D01*
X115632809Y-135827191D01*
X115422765Y-135686843D01*
X115175000Y-135637560D01*
X113425000Y-135637560D01*
X113177235Y-135686843D01*
X112967191Y-135827191D01*
X112826843Y-136037235D01*
X112777560Y-136285000D01*
X112777560Y-138035000D01*
X112826843Y-138282765D01*
X112967191Y-138492809D01*
X113177235Y-138633157D01*
X113425000Y-138682440D01*
X115175000Y-138682440D01*
X115422765Y-138633157D01*
X115632809Y-138492809D01*
X115773157Y-138282765D01*
X115775504Y-138270966D01*
X115944654Y-138440116D01*
X116499642Y-138670000D01*
X117100358Y-138670000D01*
X117655346Y-138440116D01*
X118050000Y-138045462D01*
X118398378Y-138393840D01*
X118397663Y-138397436D01*
X118466348Y-138742745D01*
X118495000Y-138785626D01*
X118495000Y-139065000D01*
X111125000Y-139065000D01*
X111125000Y-131111750D01*
X114855000Y-131111750D01*
X114855000Y-131402309D01*
X114951673Y-131635698D01*
X115130301Y-131814327D01*
X115363690Y-131911000D01*
X115604250Y-131911000D01*
X115763000Y-131752250D01*
X115763000Y-130953000D01*
X115013750Y-130953000D01*
X114855000Y-131111750D01*
X111125000Y-131111750D01*
X111125000Y-130249691D01*
X114855000Y-130249691D01*
X114855000Y-130540250D01*
X115013750Y-130699000D01*
X115763000Y-130699000D01*
X115763000Y-129899750D01*
X115604250Y-129741000D01*
X115363690Y-129741000D01*
X115130301Y-129837673D01*
X114951673Y-130016302D01*
X114855000Y-130249691D01*
X111125000Y-130249691D01*
X111125000Y-125368001D01*
X112706550Y-125368001D01*
X112753844Y-125605766D01*
X112894192Y-125815810D01*
X113104236Y-125956158D01*
X113352001Y-126005441D01*
X115102001Y-126005441D01*
X115349766Y-125956158D01*
X115559810Y-125815810D01*
X115700158Y-125605766D01*
X115702505Y-125593967D01*
X115871655Y-125763117D01*
X116426643Y-125993001D01*
X117027359Y-125993001D01*
X117582347Y-125763117D01*
X117977001Y-125368463D01*
X118371655Y-125763117D01*
X118926643Y-125993001D01*
X119527359Y-125993001D01*
X120082347Y-125763117D01*
X120300403Y-125545061D01*
X120844546Y-125545061D01*
X120927885Y-125798954D01*
X121492307Y-126004591D01*
X122092459Y-125978580D01*
X122526117Y-125798954D01*
X122609456Y-125545061D01*
X121727001Y-124662606D01*
X120844546Y-125545061D01*
X120300403Y-125545061D01*
X120507117Y-125338347D01*
X120516122Y-125316607D01*
X120664941Y-125365456D01*
X121547396Y-124483001D01*
X121906606Y-124483001D01*
X122789061Y-125365456D01*
X123042954Y-125282117D01*
X123248591Y-124717695D01*
X123222580Y-124117543D01*
X123042954Y-123683885D01*
X122789061Y-123600546D01*
X121906606Y-124483001D01*
X121547396Y-124483001D01*
X120664941Y-123600546D01*
X120516122Y-123649395D01*
X120507117Y-123627655D01*
X120300403Y-123420941D01*
X120844546Y-123420941D01*
X121727001Y-124303396D01*
X122609456Y-123420941D01*
X122526117Y-123167048D01*
X121961695Y-122961411D01*
X121361543Y-122987422D01*
X120927885Y-123167048D01*
X120844546Y-123420941D01*
X120300403Y-123420941D01*
X120082347Y-123202885D01*
X119527359Y-122973001D01*
X118926643Y-122973001D01*
X118371655Y-123202885D01*
X117977001Y-123597539D01*
X117582347Y-123202885D01*
X117027359Y-122973001D01*
X116426643Y-122973001D01*
X115871655Y-123202885D01*
X115702505Y-123372035D01*
X115700158Y-123360236D01*
X115559810Y-123150192D01*
X115349766Y-123009844D01*
X115102001Y-122960561D01*
X113352001Y-122960561D01*
X113104236Y-123009844D01*
X112894192Y-123150192D01*
X112753844Y-123360236D01*
X112706550Y-123598001D01*
X111125000Y-123598001D01*
X111125000Y-118665750D01*
X130095000Y-118665750D01*
X130095000Y-118956309D01*
X130191673Y-119189698D01*
X130370301Y-119368327D01*
X130603690Y-119465000D01*
X130844250Y-119465000D01*
X131003000Y-119306250D01*
X131003000Y-118507000D01*
X130253750Y-118507000D01*
X130095000Y-118665750D01*
X111125000Y-118665750D01*
X111125000Y-117803691D01*
X130095000Y-117803691D01*
X130095000Y-118094250D01*
X130253750Y-118253000D01*
X131003000Y-118253000D01*
X131003000Y-117453750D01*
X130844250Y-117295000D01*
X130603690Y-117295000D01*
X130370301Y-117391673D01*
X130191673Y-117570302D01*
X130095000Y-117803691D01*
X111125000Y-117803691D01*
X111125000Y-116201000D01*
X118022839Y-116201000D01*
X118110000Y-116218337D01*
X118197161Y-116201000D01*
X118197165Y-116201000D01*
X118455310Y-116149652D01*
X118748049Y-115954049D01*
X118797425Y-115880153D01*
X119864156Y-114813423D01*
X119938049Y-114764049D01*
X120030524Y-114625652D01*
X120104459Y-114515000D01*
X120133652Y-114471310D01*
X120185000Y-114213164D01*
X120185000Y-114213161D01*
X120202337Y-114126001D01*
X120185000Y-114038841D01*
X120185000Y-113010462D01*
X120373402Y-112822060D01*
X120917545Y-112822060D01*
X121000884Y-113075953D01*
X121565306Y-113281590D01*
X122165458Y-113255579D01*
X122599116Y-113075953D01*
X122682455Y-112822060D01*
X121800000Y-111939605D01*
X120917545Y-112822060D01*
X120373402Y-112822060D01*
X120580116Y-112615346D01*
X120589121Y-112593606D01*
X120737940Y-112642455D01*
X121620395Y-111760000D01*
X121979605Y-111760000D01*
X122862060Y-112642455D01*
X123115953Y-112559116D01*
X123321590Y-111994694D01*
X123295579Y-111394542D01*
X123115953Y-110960884D01*
X122862060Y-110877545D01*
X121979605Y-111760000D01*
X121620395Y-111760000D01*
X120737940Y-110877545D01*
X120589121Y-110926394D01*
X120580116Y-110904654D01*
X120373402Y-110697940D01*
X120917545Y-110697940D01*
X121800000Y-111580395D01*
X122682455Y-110697940D01*
X122599116Y-110444047D01*
X122034694Y-110238410D01*
X121434542Y-110264421D01*
X121000884Y-110444047D01*
X120917545Y-110697940D01*
X120373402Y-110697940D01*
X120155346Y-110479884D01*
X119600358Y-110250000D01*
X118999642Y-110250000D01*
X118444654Y-110479884D01*
X118050000Y-110874538D01*
X117685000Y-110509538D01*
X117685000Y-108596368D01*
X117697809Y-108587809D01*
X117838157Y-108377765D01*
X117887440Y-108130000D01*
X117887440Y-107230000D01*
X117838157Y-106982235D01*
X117701316Y-106777440D01*
X118190000Y-106777440D01*
X118437765Y-106728157D01*
X118647809Y-106587809D01*
X118746573Y-106440000D01*
X118827199Y-106440000D01*
X119805671Y-107418473D01*
X119848071Y-107481929D01*
X119911527Y-107524329D01*
X120099462Y-107649904D01*
X120147605Y-107659480D01*
X120321148Y-107694000D01*
X120321152Y-107694000D01*
X120396000Y-107708888D01*
X120470848Y-107694000D01*
X123623153Y-107694000D01*
X123698000Y-107708888D01*
X123772847Y-107694000D01*
X123772852Y-107694000D01*
X123994537Y-107649904D01*
X124245929Y-107481929D01*
X124288331Y-107418470D01*
X124961829Y-106744973D01*
X125025285Y-106702573D01*
X125105475Y-106582560D01*
X125193260Y-106451182D01*
X125207863Y-106377765D01*
X125237356Y-106229496D01*
X125237356Y-106229492D01*
X125252244Y-106154644D01*
X125237356Y-106079796D01*
X125237356Y-105965750D01*
X130095000Y-105965750D01*
X130095000Y-106256309D01*
X130191673Y-106489698D01*
X130370301Y-106668327D01*
X130603690Y-106765000D01*
X130844250Y-106765000D01*
X131003000Y-106606250D01*
X131003000Y-105807000D01*
X130253750Y-105807000D01*
X130095000Y-105965750D01*
X125237356Y-105965750D01*
X125237356Y-105252675D01*
X125322753Y-105207029D01*
X125404252Y-105152573D01*
X125463814Y-105103691D01*
X130095000Y-105103691D01*
X130095000Y-105394250D01*
X130253750Y-105553000D01*
X131003000Y-105553000D01*
X131003000Y-104753750D01*
X130844250Y-104595000D01*
X130603690Y-104595000D01*
X130370301Y-104691673D01*
X130191673Y-104870302D01*
X130095000Y-105103691D01*
X125463814Y-105103691D01*
X125502362Y-105072056D01*
X125571670Y-105002748D01*
X125652187Y-104904638D01*
X125706643Y-104823139D01*
X125766475Y-104711202D01*
X125803984Y-104620646D01*
X125840826Y-104499193D01*
X125859948Y-104403060D01*
X125872388Y-104276751D01*
X125872388Y-104239848D01*
X125874796Y-104227742D01*
X125874796Y-103677742D01*
X125856972Y-103588134D01*
X126025285Y-103475671D01*
X126067687Y-103412213D01*
X126976476Y-102503425D01*
X127039929Y-102461027D01*
X127082327Y-102397574D01*
X127082329Y-102397572D01*
X127186312Y-102241949D01*
X127207904Y-102209635D01*
X127252000Y-101987950D01*
X127252000Y-101987946D01*
X127266888Y-101913099D01*
X127252000Y-101838252D01*
X127252000Y-100271711D01*
X127369431Y-100154280D01*
X127527000Y-99773874D01*
X127527000Y-99362126D01*
X127369431Y-98981720D01*
X127078280Y-98690569D01*
X126697874Y-98533000D01*
X126286126Y-98533000D01*
X125905720Y-98690569D01*
X125614569Y-98981720D01*
X125457000Y-99362126D01*
X125457000Y-99773874D01*
X125614569Y-100154280D01*
X125732001Y-100271712D01*
X125732000Y-101079785D01*
X125706643Y-101032345D01*
X125652187Y-100950846D01*
X125571670Y-100852736D01*
X125502362Y-100783428D01*
X125404252Y-100702911D01*
X125322753Y-100648455D01*
X125210816Y-100588623D01*
X125120260Y-100551114D01*
X124998807Y-100514272D01*
X124902674Y-100495150D01*
X124776365Y-100482710D01*
X124739462Y-100482710D01*
X124727356Y-100480302D01*
X124404718Y-100480302D01*
X123910000Y-99985585D01*
X123910000Y-94791610D01*
X124005346Y-94752116D01*
X124400000Y-94357462D01*
X124794654Y-94752116D01*
X125349642Y-94982000D01*
X125950358Y-94982000D01*
X126505346Y-94752116D01*
X126723402Y-94534060D01*
X127267545Y-94534060D01*
X127350884Y-94787953D01*
X127915306Y-94993590D01*
X128515458Y-94967579D01*
X128949116Y-94787953D01*
X129032455Y-94534060D01*
X128150000Y-93651605D01*
X127267545Y-94534060D01*
X126723402Y-94534060D01*
X126930116Y-94327346D01*
X126939121Y-94305606D01*
X127087940Y-94354455D01*
X127970395Y-93472000D01*
X128329605Y-93472000D01*
X129212060Y-94354455D01*
X129465953Y-94271116D01*
X129671590Y-93706694D01*
X129645579Y-93106542D01*
X129465953Y-92672884D01*
X129212060Y-92589545D01*
X128329605Y-93472000D01*
X127970395Y-93472000D01*
X127087940Y-92589545D01*
X126939121Y-92638394D01*
X126930116Y-92616654D01*
X126723402Y-92409940D01*
X127267545Y-92409940D01*
X128150000Y-93292395D01*
X129032455Y-92409940D01*
X128949116Y-92156047D01*
X128384694Y-91950410D01*
X127784542Y-91976421D01*
X127350884Y-92156047D01*
X127267545Y-92409940D01*
X126723402Y-92409940D01*
X126505346Y-92191884D01*
X125950358Y-91962000D01*
X125349642Y-91962000D01*
X124794654Y-92191884D01*
X124400000Y-92586538D01*
X124005346Y-92191884D01*
X123450358Y-91962000D01*
X122849642Y-91962000D01*
X122294654Y-92191884D01*
X122125504Y-92361034D01*
X122123157Y-92349235D01*
X121982809Y-92139191D01*
X121772765Y-91998843D01*
X121525000Y-91949560D01*
X119775000Y-91949560D01*
X119527235Y-91998843D01*
X119317191Y-92139191D01*
X119176843Y-92349235D01*
X119127560Y-92597000D01*
X119127560Y-94347000D01*
X119176843Y-94594765D01*
X119317191Y-94804809D01*
X119527235Y-94945157D01*
X119775000Y-94994440D01*
X119890000Y-94994440D01*
X119890001Y-100789777D01*
X119827042Y-100852736D01*
X119746525Y-100950846D01*
X119692069Y-101032345D01*
X119632237Y-101144282D01*
X119594728Y-101234838D01*
X119557886Y-101356291D01*
X119538764Y-101452424D01*
X119526324Y-101578733D01*
X119526324Y-101615636D01*
X119523916Y-101627742D01*
X119523916Y-102177742D01*
X119548780Y-102302742D01*
X119523916Y-102427742D01*
X119523916Y-103427742D01*
X119548780Y-103552742D01*
X119523916Y-103677742D01*
X119523916Y-104227742D01*
X119526324Y-104239848D01*
X119526324Y-104276751D01*
X119538764Y-104403060D01*
X119557886Y-104499193D01*
X119594728Y-104620646D01*
X119632237Y-104711202D01*
X119692069Y-104823139D01*
X119746525Y-104904638D01*
X119827042Y-105002748D01*
X119896350Y-105072056D01*
X119994460Y-105152573D01*
X120075959Y-105207029D01*
X120125031Y-105233258D01*
X120026569Y-105331720D01*
X119980278Y-105443477D01*
X119732331Y-105195530D01*
X119689929Y-105132071D01*
X119438537Y-104964096D01*
X119216852Y-104920000D01*
X119216847Y-104920000D01*
X119142000Y-104905112D01*
X119067153Y-104920000D01*
X118746573Y-104920000D01*
X118647809Y-104772191D01*
X118437765Y-104631843D01*
X118190000Y-104582560D01*
X117390000Y-104582560D01*
X117142235Y-104631843D01*
X116932191Y-104772191D01*
X116842987Y-104905694D01*
X116828327Y-104870302D01*
X116649699Y-104691673D01*
X116416310Y-104595000D01*
X116175750Y-104595000D01*
X116017000Y-104753750D01*
X116017000Y-105553000D01*
X116037000Y-105553000D01*
X116037000Y-105807000D01*
X116017000Y-105807000D01*
X116017000Y-106606250D01*
X116102531Y-106691781D01*
X115982191Y-106772191D01*
X115841843Y-106982235D01*
X115792560Y-107230000D01*
X115792560Y-108130000D01*
X115841843Y-108377765D01*
X115915001Y-108487253D01*
X115915000Y-110509538D01*
X115775504Y-110649034D01*
X115773157Y-110637235D01*
X115632809Y-110427191D01*
X115422765Y-110286843D01*
X115175000Y-110237560D01*
X113425000Y-110237560D01*
X113177235Y-110286843D01*
X112967191Y-110427191D01*
X112826843Y-110637235D01*
X112777560Y-110885000D01*
X112777560Y-112635000D01*
X112826843Y-112882765D01*
X112967191Y-113092809D01*
X113177235Y-113233157D01*
X113425000Y-113282440D01*
X115175000Y-113282440D01*
X115422765Y-113233157D01*
X115632809Y-113092809D01*
X115773157Y-112882765D01*
X115775504Y-112870966D01*
X115944654Y-113040116D01*
X116499642Y-113270000D01*
X117100358Y-113270000D01*
X117655346Y-113040116D01*
X118050000Y-112645462D01*
X118415001Y-113010463D01*
X118415001Y-113704831D01*
X118415000Y-113704836D01*
X118415000Y-113759421D01*
X117743422Y-114431000D01*
X111125000Y-114431000D01*
X111125000Y-105965750D01*
X114855000Y-105965750D01*
X114855000Y-106256309D01*
X114951673Y-106489698D01*
X115130301Y-106668327D01*
X115363690Y-106765000D01*
X115604250Y-106765000D01*
X115763000Y-106606250D01*
X115763000Y-105807000D01*
X115013750Y-105807000D01*
X114855000Y-105965750D01*
X111125000Y-105965750D01*
X111125000Y-105103691D01*
X114855000Y-105103691D01*
X114855000Y-105394250D01*
X115013750Y-105553000D01*
X115763000Y-105553000D01*
X115763000Y-104753750D01*
X115604250Y-104595000D01*
X115363690Y-104595000D01*
X115130301Y-104691673D01*
X114951673Y-104870302D01*
X114855000Y-105103691D01*
X111125000Y-105103691D01*
X111125000Y-90297000D01*
X163961000Y-90297000D01*
X163961000Y-91058560D01*
X163546000Y-91058560D01*
X163533894Y-91060968D01*
X163496991Y-91060968D01*
X163370682Y-91073408D01*
X163274549Y-91092530D01*
X163153096Y-91129372D01*
X163062540Y-91166881D01*
X162950603Y-91226713D01*
X162869104Y-91281169D01*
X162770994Y-91361686D01*
X162701686Y-91430994D01*
X162621169Y-91529104D01*
X162593175Y-91571000D01*
X157821159Y-91571000D01*
X157733999Y-91553663D01*
X157646839Y-91571000D01*
X157646835Y-91571000D01*
X157388690Y-91622348D01*
X157388688Y-91622349D01*
X157388689Y-91622349D01*
X157169845Y-91768576D01*
X157169844Y-91768577D01*
X157095951Y-91817951D01*
X157046577Y-91891844D01*
X155645845Y-93292577D01*
X155571952Y-93341951D01*
X155522578Y-93415844D01*
X155522576Y-93415846D01*
X155376348Y-93634691D01*
X155307663Y-93980000D01*
X155325001Y-94067165D01*
X155325000Y-96595344D01*
X155139375Y-96719375D01*
X154940000Y-97017761D01*
X154740625Y-96719375D01*
X154249418Y-96391161D01*
X153816256Y-96305000D01*
X153523744Y-96305000D01*
X153090582Y-96391161D01*
X152599375Y-96719375D01*
X152400000Y-97017761D01*
X152200625Y-96719375D01*
X151709418Y-96391161D01*
X151276256Y-96305000D01*
X150983744Y-96305000D01*
X150550582Y-96391161D01*
X150059375Y-96719375D01*
X149731161Y-97210582D01*
X149615908Y-97790000D01*
X149731161Y-98369418D01*
X150059375Y-98860625D01*
X150550582Y-99188839D01*
X150983744Y-99275000D01*
X151276256Y-99275000D01*
X151709418Y-99188839D01*
X152200625Y-98860625D01*
X152400000Y-98562239D01*
X152599375Y-98860625D01*
X153090582Y-99188839D01*
X153523744Y-99275000D01*
X153816256Y-99275000D01*
X154249418Y-99188839D01*
X154740625Y-98860625D01*
X154940000Y-98562239D01*
X155139375Y-98860625D01*
X155630582Y-99188839D01*
X156063744Y-99275000D01*
X156356256Y-99275000D01*
X156789418Y-99188839D01*
X157280625Y-98860625D01*
X157493843Y-98541522D01*
X157554817Y-98671358D01*
X157983076Y-99061645D01*
X158393110Y-99231476D01*
X158623000Y-99110155D01*
X158623000Y-97917000D01*
X158603000Y-97917000D01*
X158603000Y-97663000D01*
X158623000Y-97663000D01*
X158623000Y-96469845D01*
X158877000Y-96469845D01*
X158877000Y-97663000D01*
X158897000Y-97663000D01*
X158897000Y-97917000D01*
X158877000Y-97917000D01*
X158877000Y-99110155D01*
X159106890Y-99231476D01*
X159516924Y-99061645D01*
X159945183Y-98671358D01*
X160006157Y-98541522D01*
X160219375Y-98860625D01*
X160710582Y-99188839D01*
X161143744Y-99275000D01*
X161436256Y-99275000D01*
X161869418Y-99188839D01*
X162360625Y-98860625D01*
X162560000Y-98562239D01*
X162759375Y-98860625D01*
X163250582Y-99188839D01*
X163683744Y-99275000D01*
X163976256Y-99275000D01*
X164409418Y-99188839D01*
X164900625Y-98860625D01*
X165100000Y-98562239D01*
X165299375Y-98860625D01*
X165790582Y-99188839D01*
X166223744Y-99275000D01*
X166516256Y-99275000D01*
X166949418Y-99188839D01*
X167440625Y-98860625D01*
X167640000Y-98562239D01*
X167839375Y-98860625D01*
X168330582Y-99188839D01*
X168763744Y-99275000D01*
X169056256Y-99275000D01*
X169489418Y-99188839D01*
X169980625Y-98860625D01*
X170180000Y-98562239D01*
X170379375Y-98860625D01*
X170870582Y-99188839D01*
X171303744Y-99275000D01*
X171596256Y-99275000D01*
X172029418Y-99188839D01*
X172520625Y-98860625D01*
X172720000Y-98562239D01*
X172919375Y-98860625D01*
X173410582Y-99188839D01*
X173843744Y-99275000D01*
X174136256Y-99275000D01*
X174569418Y-99188839D01*
X175060625Y-98860625D01*
X175260000Y-98562239D01*
X175459375Y-98860625D01*
X175950582Y-99188839D01*
X176383744Y-99275000D01*
X176676256Y-99275000D01*
X177109418Y-99188839D01*
X177600625Y-98860625D01*
X177800000Y-98562239D01*
X177999375Y-98860625D01*
X178490582Y-99188839D01*
X178923744Y-99275000D01*
X179216256Y-99275000D01*
X179649418Y-99188839D01*
X180140625Y-98860625D01*
X180340000Y-98562239D01*
X180539375Y-98860625D01*
X181030582Y-99188839D01*
X181463744Y-99275000D01*
X181756256Y-99275000D01*
X182189418Y-99188839D01*
X182680625Y-98860625D01*
X182880000Y-98562239D01*
X183079375Y-98860625D01*
X183390000Y-99068178D01*
X183390001Y-103632106D01*
X183055720Y-103770569D01*
X182764569Y-104061720D01*
X182607000Y-104442126D01*
X182607000Y-104853874D01*
X182764569Y-105234280D01*
X183055720Y-105525431D01*
X183436126Y-105683000D01*
X183847874Y-105683000D01*
X184228280Y-105525431D01*
X184519431Y-105234280D01*
X184677000Y-104853874D01*
X184677000Y-104701913D01*
X184697929Y-104687929D01*
X184740327Y-104624476D01*
X184740329Y-104624474D01*
X184852207Y-104457036D01*
X184865904Y-104436537D01*
X184910000Y-104214852D01*
X184910000Y-104214848D01*
X184924888Y-104140001D01*
X184910000Y-104065154D01*
X184910000Y-99068178D01*
X185220625Y-98860625D01*
X185420000Y-98562239D01*
X185619375Y-98860625D01*
X186110582Y-99188839D01*
X186543744Y-99275000D01*
X186836256Y-99275000D01*
X187269418Y-99188839D01*
X187760625Y-98860625D01*
X187960000Y-98562239D01*
X188159375Y-98860625D01*
X188650582Y-99188839D01*
X189083744Y-99275000D01*
X189376256Y-99275000D01*
X189809418Y-99188839D01*
X190300625Y-98860625D01*
X190312816Y-98842381D01*
X190321843Y-98887765D01*
X190462191Y-99097809D01*
X190672235Y-99238157D01*
X190920000Y-99287440D01*
X192620000Y-99287440D01*
X192867765Y-99238157D01*
X193077809Y-99097809D01*
X193218157Y-98887765D01*
X193267440Y-98640000D01*
X193267440Y-96940000D01*
X193218157Y-96692235D01*
X193077809Y-96482191D01*
X192867765Y-96341843D01*
X192620000Y-96292560D01*
X190920000Y-96292560D01*
X190672235Y-96341843D01*
X190462191Y-96482191D01*
X190321843Y-96692235D01*
X190312816Y-96737619D01*
X190300625Y-96719375D01*
X189809418Y-96391161D01*
X189376256Y-96305000D01*
X189083744Y-96305000D01*
X188650582Y-96391161D01*
X188159375Y-96719375D01*
X187960000Y-97017761D01*
X187760625Y-96719375D01*
X187269418Y-96391161D01*
X186836256Y-96305000D01*
X186543744Y-96305000D01*
X186110582Y-96391161D01*
X185619375Y-96719375D01*
X185420000Y-97017761D01*
X185220625Y-96719375D01*
X184729418Y-96391161D01*
X184296256Y-96305000D01*
X184003744Y-96305000D01*
X183570582Y-96391161D01*
X183079375Y-96719375D01*
X182880000Y-97017761D01*
X182680625Y-96719375D01*
X182189418Y-96391161D01*
X181756256Y-96305000D01*
X181463744Y-96305000D01*
X181030582Y-96391161D01*
X180539375Y-96719375D01*
X180340000Y-97017761D01*
X180140625Y-96719375D01*
X179649418Y-96391161D01*
X179216256Y-96305000D01*
X178923744Y-96305000D01*
X178490582Y-96391161D01*
X177999375Y-96719375D01*
X177800000Y-97017761D01*
X177600625Y-96719375D01*
X177109418Y-96391161D01*
X176676256Y-96305000D01*
X176383744Y-96305000D01*
X175950582Y-96391161D01*
X175459375Y-96719375D01*
X175260000Y-97017761D01*
X175060625Y-96719375D01*
X174569418Y-96391161D01*
X174136256Y-96305000D01*
X173843744Y-96305000D01*
X173410582Y-96391161D01*
X172919375Y-96719375D01*
X172720000Y-97017761D01*
X172520625Y-96719375D01*
X172029418Y-96391161D01*
X171596256Y-96305000D01*
X171303744Y-96305000D01*
X170870582Y-96391161D01*
X170379375Y-96719375D01*
X170180000Y-97017761D01*
X169980625Y-96719375D01*
X169489418Y-96391161D01*
X169056256Y-96305000D01*
X168763744Y-96305000D01*
X168330582Y-96391161D01*
X167839375Y-96719375D01*
X167640000Y-97017761D01*
X167440625Y-96719375D01*
X166949418Y-96391161D01*
X166516256Y-96305000D01*
X166223744Y-96305000D01*
X165790582Y-96391161D01*
X165299375Y-96719375D01*
X165100000Y-97017761D01*
X164900625Y-96719375D01*
X164409418Y-96391161D01*
X163976256Y-96305000D01*
X163683744Y-96305000D01*
X163250582Y-96391161D01*
X162759375Y-96719375D01*
X162560000Y-97017761D01*
X162360625Y-96719375D01*
X161869418Y-96391161D01*
X161436256Y-96305000D01*
X161143744Y-96305000D01*
X160710582Y-96391161D01*
X160219375Y-96719375D01*
X160006157Y-97038478D01*
X159945183Y-96908642D01*
X159516924Y-96518355D01*
X159106890Y-96348524D01*
X158877000Y-96469845D01*
X158623000Y-96469845D01*
X158393110Y-96348524D01*
X157983076Y-96518355D01*
X157554817Y-96908642D01*
X157493843Y-97038478D01*
X157280625Y-96719375D01*
X157095000Y-96595344D01*
X157095000Y-94346578D01*
X158100579Y-93341000D01*
X162593175Y-93341000D01*
X162621169Y-93382896D01*
X162701686Y-93481006D01*
X162770994Y-93550314D01*
X162869104Y-93630831D01*
X162950603Y-93685287D01*
X163062540Y-93745119D01*
X163153096Y-93782628D01*
X163274549Y-93819470D01*
X163370682Y-93838592D01*
X163496991Y-93851032D01*
X163533894Y-93851032D01*
X163546000Y-93853440D01*
X164096000Y-93853440D01*
X164221000Y-93828576D01*
X164346000Y-93853440D01*
X165346000Y-93853440D01*
X165471000Y-93828576D01*
X165596000Y-93853440D01*
X166146000Y-93853440D01*
X166158106Y-93851032D01*
X166195009Y-93851032D01*
X166321318Y-93838592D01*
X166417451Y-93819470D01*
X166538904Y-93782628D01*
X166629460Y-93745119D01*
X166741397Y-93685287D01*
X166822896Y-93630831D01*
X166921006Y-93550314D01*
X166990314Y-93481006D01*
X167070831Y-93382896D01*
X167098825Y-93341000D01*
X174380839Y-93341000D01*
X174468000Y-93358337D01*
X174555161Y-93341000D01*
X174555165Y-93341000D01*
X174813310Y-93289652D01*
X175106049Y-93094049D01*
X175155425Y-93020153D01*
X175850579Y-92325000D01*
X178819549Y-92325000D01*
X178866843Y-92562765D01*
X179007191Y-92772809D01*
X179217235Y-92913157D01*
X179465000Y-92962440D01*
X181215000Y-92962440D01*
X181462765Y-92913157D01*
X181672809Y-92772809D01*
X181803475Y-92577255D01*
X181842914Y-92616694D01*
X181957546Y-92502062D01*
X182040884Y-92755953D01*
X182605306Y-92961590D01*
X183205458Y-92935579D01*
X183639116Y-92755953D01*
X183722455Y-92502060D01*
X182840000Y-91619605D01*
X182825858Y-91633748D01*
X182646253Y-91454143D01*
X182660395Y-91440000D01*
X183019605Y-91440000D01*
X183902060Y-92322455D01*
X184155953Y-92239116D01*
X184361590Y-91674694D01*
X184335579Y-91074542D01*
X184302811Y-90995431D01*
X189535000Y-90995431D01*
X189535000Y-91884569D01*
X189875259Y-92706026D01*
X190503974Y-93334741D01*
X191325431Y-93675000D01*
X192214569Y-93675000D01*
X193036026Y-93334741D01*
X193664741Y-92706026D01*
X194005000Y-91884569D01*
X194005000Y-90995431D01*
X193664741Y-90173974D01*
X193036026Y-89545259D01*
X192214569Y-89205000D01*
X191325431Y-89205000D01*
X190503974Y-89545259D01*
X189875259Y-90173974D01*
X189535000Y-90995431D01*
X184302811Y-90995431D01*
X184155953Y-90640884D01*
X183902060Y-90557545D01*
X183019605Y-91440000D01*
X182660395Y-91440000D01*
X182646253Y-91425858D01*
X182825858Y-91246253D01*
X182840000Y-91260395D01*
X183722455Y-90377940D01*
X183639116Y-90124047D01*
X183074694Y-89918410D01*
X182474542Y-89944421D01*
X182040884Y-90124047D01*
X181957546Y-90377938D01*
X181842914Y-90263306D01*
X181803475Y-90302745D01*
X181672809Y-90107191D01*
X181462765Y-89966843D01*
X181215000Y-89917560D01*
X179465000Y-89917560D01*
X179217235Y-89966843D01*
X179007191Y-90107191D01*
X178866843Y-90317235D01*
X178819549Y-90555000D01*
X175571161Y-90555000D01*
X175484000Y-90537663D01*
X175396839Y-90555000D01*
X175396835Y-90555000D01*
X175138690Y-90606348D01*
X174919845Y-90752576D01*
X174919844Y-90752577D01*
X174845951Y-90801951D01*
X174796577Y-90875844D01*
X174101422Y-91571000D01*
X167098825Y-91571000D01*
X167070831Y-91529104D01*
X166990314Y-91430994D01*
X166921006Y-91361686D01*
X166822896Y-91281169D01*
X166741397Y-91226713D01*
X166629460Y-91166881D01*
X166538904Y-91129372D01*
X166417451Y-91092530D01*
X166321318Y-91073408D01*
X166195009Y-91060968D01*
X166158106Y-91060968D01*
X166146000Y-91058560D01*
X165731000Y-91058560D01*
X165731000Y-90297000D01*
X167640000Y-90297000D01*
X167688601Y-90287333D01*
X167729803Y-90259803D01*
X167757333Y-90218601D01*
X167767000Y-90170000D01*
X167767000Y-88340000D01*
X194870000Y-88340000D01*
X194870001Y-139065000D01*
G04 #@! TD*
M02*
