M48
;DRILL file {KiCad (5.0.0)} date 07/13/19 19:24:04
;FORMAT={-:-/ absolute / inch / decimal}
FMAT,2
INCH,TZ
T1C0.0157
T2C0.0394
T3C0.0413
%
G90
G05
M72
T1
X4.3986Y-4.03
X4.3988Y-3.8
X4.45Y-4.25
X4.5Y-3.85
X4.5Y-4.05
X4.5Y-4.25
X4.5374Y-5.09
X5.0374Y-5.1
X5.4036Y-4.62
X5.6374Y-5.09
X6.0394Y-4.6606
X6.3Y-5.
X6.5374Y-4.6
X6.8374Y-5.09
T2
X6.Y-3.65
X6.1Y-3.65
X6.2Y-3.65
X6.3Y-3.65
X6.4Y-3.65
X6.5Y-3.65
X6.6Y-3.65
X6.7Y-3.65
X6.8Y-3.65
X6.9Y-3.65
X7.Y-3.65
X7.1Y-3.65
X6.1Y-5.4
X6.1984Y-5.4
X6.2969Y-5.4
X6.3953Y-5.4
X6.Y-4.25
X6.1Y-4.25
X6.2Y-4.25
X6.3Y-4.25
X6.4Y-4.25
X6.5Y-4.25
X6.6Y-4.25
X6.7Y-4.25
X6.8Y-4.25
X6.9Y-4.25
X7.Y-4.25
X7.1Y-4.25
X5.2Y-4.9
X5.2984Y-4.9
X5.3969Y-4.9
X5.4953Y-4.9
X4.9Y-5.4
X4.9984Y-5.4
X5.0969Y-5.4
X5.1953Y-5.4
X5.5Y-5.4
X5.5984Y-5.4
X5.6969Y-5.4
X5.7953Y-5.4
X4.5984Y-4.9
X4.6969Y-4.9
X4.7953Y-4.9
X4.8937Y-4.9
X4.85Y-4.25
X4.9484Y-4.25
X5.0469Y-4.25
X5.1453Y-4.25
X4.3Y-5.4
X4.3984Y-5.4
X4.4969Y-5.4
X4.5953Y-5.4
X6.7Y-5.4
X6.7984Y-5.4
X6.8969Y-5.4
X6.9953Y-5.4
X4.85Y-3.85
X4.9484Y-3.85
X5.0469Y-3.85
X5.1453Y-3.85
X6.4Y-4.9
X6.4984Y-4.9
X6.5969Y-4.9
X6.6953Y-4.9
X5.8Y-4.9
X5.8984Y-4.9
X5.9969Y-4.9
X6.0953Y-4.9
T3
X7.Y-4.5
X7.0984Y-4.5
T0
M30
