G04 #@! TF.GenerationSoftware,KiCad,Pcbnew,(5.0.0)*
G04 #@! TF.CreationDate,2019-07-13T19:24:01-04:00*
G04 #@! TF.ProjectId,ProMicro-Breakout,50726F4D6963726F2D427265616B6F75,rev?*
G04 #@! TF.SameCoordinates,Original*
G04 #@! TF.FileFunction,Copper,L2,Bot,Signal*
G04 #@! TF.FilePolarity,Positive*
%FSLAX46Y46*%
G04 Gerber Fmt 4.6, Leading zero omitted, Abs format (unit mm)*
G04 Created by KiCad (PCBNEW (5.0.0)) date 07/13/19 19:24:01*
%MOMM*%
%LPD*%
G01*
G04 APERTURE LIST*
G04 #@! TA.AperFunction,ComponentPad*
%ADD10O,1.700000X1.700000*%
G04 #@! TD*
G04 #@! TA.AperFunction,ComponentPad*
%ADD11R,1.700000X1.700000*%
G04 #@! TD*
G04 #@! TA.AperFunction,ComponentPad*
%ADD12C,1.750000*%
G04 #@! TD*
G04 #@! TA.AperFunction,ComponentPad*
%ADD13R,1.750000X1.750000*%
G04 #@! TD*
G04 #@! TA.AperFunction,ViaPad*
%ADD14C,0.800000*%
G04 #@! TD*
G04 #@! TA.AperFunction,Conductor*
%ADD15C,0.250000*%
G04 #@! TD*
G04 #@! TA.AperFunction,Conductor*
%ADD16C,0.500000*%
G04 #@! TD*
G04 #@! TA.AperFunction,Conductor*
%ADD17C,0.254000*%
G04 #@! TD*
G04 APERTURE END LIST*
D10*
G04 #@! TO.P,J7,12*
G04 #@! TO.N,/B7*
X152400000Y-92710000D03*
G04 #@! TO.P,J7,11*
G04 #@! TO.N,/B7LED*
X154940000Y-92710000D03*
G04 #@! TO.P,J7,10*
G04 #@! TO.N,/B6*
X157480000Y-92710000D03*
G04 #@! TO.P,J7,9*
G04 #@! TO.N,/B6LED*
X160020000Y-92710000D03*
G04 #@! TO.P,J7,8*
G04 #@! TO.N,/B5*
X162560000Y-92710000D03*
G04 #@! TO.P,J7,7*
G04 #@! TO.N,/B5LED*
X165100000Y-92710000D03*
G04 #@! TO.P,J7,6*
G04 #@! TO.N,/PIN3*
X167640000Y-92710000D03*
G04 #@! TO.P,J7,5*
G04 #@! TO.N,/PIN2*
X170180000Y-92710000D03*
G04 #@! TO.P,J7,4*
G04 #@! TO.N,GND*
X172720000Y-92710000D03*
G04 #@! TO.P,J7,3*
X175260000Y-92710000D03*
G04 #@! TO.P,J7,2*
G04 #@! TO.N,/PIN0*
X177800000Y-92710000D03*
D11*
G04 #@! TO.P,J7,1*
G04 #@! TO.N,/PIN1*
X180340000Y-92710000D03*
G04 #@! TD*
G04 #@! TO.P,J10,1*
G04 #@! TO.N,VBUS*
X180340000Y-107950000D03*
D10*
G04 #@! TO.P,J10,2*
G04 #@! TO.N,GND*
X177800000Y-107950000D03*
G04 #@! TO.P,J10,3*
G04 #@! TO.N,Net-(J10-Pad3)*
X175260000Y-107950000D03*
G04 #@! TO.P,J10,4*
G04 #@! TO.N,+5V*
X172720000Y-107950000D03*
G04 #@! TO.P,J10,5*
G04 #@! TO.N,/B1LED*
X170180000Y-107950000D03*
G04 #@! TO.P,J10,6*
G04 #@! TO.N,/B1*
X167640000Y-107950000D03*
G04 #@! TO.P,J10,7*
G04 #@! TO.N,/B2LED*
X165100000Y-107950000D03*
G04 #@! TO.P,J10,8*
G04 #@! TO.N,/B2*
X162560000Y-107950000D03*
G04 #@! TO.P,J10,9*
G04 #@! TO.N,/B3LED*
X160020000Y-107950000D03*
G04 #@! TO.P,J10,10*
G04 #@! TO.N,/B3*
X157480000Y-107950000D03*
G04 #@! TO.P,J10,11*
G04 #@! TO.N,/B4LED*
X154940000Y-107950000D03*
G04 #@! TO.P,J10,12*
G04 #@! TO.N,/B4*
X152400000Y-107950000D03*
G04 #@! TD*
D12*
G04 #@! TO.P,J13,2*
G04 #@! TO.N,GND*
X180300000Y-114300000D03*
D13*
G04 #@! TO.P,J13,1*
G04 #@! TO.N,+12V*
X177800000Y-114300000D03*
G04 #@! TD*
D12*
G04 #@! TO.P,J8,4*
G04 #@! TO.N,GND*
X147200000Y-137160000D03*
G04 #@! TO.P,J8,3*
G04 #@! TO.N,/LED+*
X144700000Y-137160000D03*
G04 #@! TO.P,J8,2*
G04 #@! TO.N,Net-(J8-Pad2)*
X142200000Y-137160000D03*
D13*
G04 #@! TO.P,J8,1*
G04 #@! TO.N,/B5*
X139700000Y-137160000D03*
G04 #@! TD*
D12*
G04 #@! TO.P,J2,4*
G04 #@! TO.N,GND*
X130690000Y-107950000D03*
G04 #@! TO.P,J2,3*
G04 #@! TO.N,+5V*
X128190000Y-107950000D03*
G04 #@! TO.P,J2,2*
G04 #@! TO.N,/QE2B*
X125690000Y-107950000D03*
D13*
G04 #@! TO.P,J2,1*
G04 #@! TO.N,/QE2A*
X123190000Y-107950000D03*
G04 #@! TD*
D12*
G04 #@! TO.P,J3,4*
G04 #@! TO.N,GND*
X177680000Y-137160000D03*
G04 #@! TO.P,J3,3*
G04 #@! TO.N,/LED+*
X175180000Y-137160000D03*
G04 #@! TO.P,J3,2*
G04 #@! TO.N,Net-(J3-Pad2)*
X172680000Y-137160000D03*
D13*
G04 #@! TO.P,J3,1*
G04 #@! TO.N,/B1*
X170180000Y-137160000D03*
G04 #@! TD*
G04 #@! TO.P,J4,1*
G04 #@! TO.N,/B2*
X162560000Y-124460000D03*
D12*
G04 #@! TO.P,J4,2*
G04 #@! TO.N,Net-(J4-Pad2)*
X165060000Y-124460000D03*
G04 #@! TO.P,J4,3*
G04 #@! TO.N,/LED+*
X167560000Y-124460000D03*
G04 #@! TO.P,J4,4*
G04 #@! TO.N,GND*
X170060000Y-124460000D03*
G04 #@! TD*
G04 #@! TO.P,J5,4*
G04 #@! TO.N,GND*
X162440000Y-137160000D03*
G04 #@! TO.P,J5,3*
G04 #@! TO.N,/LED+*
X159940000Y-137160000D03*
G04 #@! TO.P,J5,2*
G04 #@! TO.N,Net-(J5-Pad2)*
X157440000Y-137160000D03*
D13*
G04 #@! TO.P,J5,1*
G04 #@! TO.N,/B3*
X154940000Y-137160000D03*
G04 #@! TD*
G04 #@! TO.P,J9,1*
G04 #@! TO.N,/B6*
X132080000Y-124460000D03*
D12*
G04 #@! TO.P,J9,2*
G04 #@! TO.N,Net-(J9-Pad2)*
X134580000Y-124460000D03*
G04 #@! TO.P,J9,3*
G04 #@! TO.N,/LED+*
X137080000Y-124460000D03*
G04 #@! TO.P,J9,4*
G04 #@! TO.N,GND*
X139580000Y-124460000D03*
G04 #@! TD*
G04 #@! TO.P,J11,4*
G04 #@! TO.N,GND*
X131960000Y-137160000D03*
G04 #@! TO.P,J11,3*
G04 #@! TO.N,/LED+*
X129460000Y-137160000D03*
G04 #@! TO.P,J11,2*
G04 #@! TO.N,Net-(J11-Pad2)*
X126960000Y-137160000D03*
D13*
G04 #@! TO.P,J11,1*
G04 #@! TO.N,/B7*
X124460000Y-137160000D03*
G04 #@! TD*
G04 #@! TO.P,J12,1*
G04 #@! TO.N,/B8*
X116800000Y-124460000D03*
D12*
G04 #@! TO.P,J12,2*
G04 #@! TO.N,Net-(J12-Pad2)*
X119300000Y-124460000D03*
G04 #@! TO.P,J12,3*
G04 #@! TO.N,/LED+*
X121800000Y-124460000D03*
G04 #@! TO.P,J12,4*
G04 #@! TO.N,GND*
X124300000Y-124460000D03*
G04 #@! TD*
G04 #@! TO.P,J14,4*
G04 #@! TO.N,GND*
X116720000Y-137160000D03*
G04 #@! TO.P,J14,3*
G04 #@! TO.N,/LED+*
X114220000Y-137160000D03*
G04 #@! TO.P,J14,2*
G04 #@! TO.N,Net-(J14-Pad2)*
X111720000Y-137160000D03*
D13*
G04 #@! TO.P,J14,1*
G04 #@! TO.N,/B9*
X109220000Y-137160000D03*
G04 #@! TD*
G04 #@! TO.P,J1,1*
G04 #@! TO.N,/QE1A*
X123190000Y-97790000D03*
D12*
G04 #@! TO.P,J1,2*
G04 #@! TO.N,/QE1B*
X125690000Y-97790000D03*
G04 #@! TO.P,J1,3*
G04 #@! TO.N,+5V*
X128190000Y-97790000D03*
G04 #@! TO.P,J1,4*
G04 #@! TO.N,GND*
X130690000Y-97790000D03*
G04 #@! TD*
G04 #@! TO.P,J6,4*
G04 #@! TO.N,GND*
X154820000Y-124460000D03*
G04 #@! TO.P,J6,3*
G04 #@! TO.N,/LED+*
X152320000Y-124460000D03*
G04 #@! TO.P,J6,2*
G04 #@! TO.N,Net-(J6-Pad2)*
X149820000Y-124460000D03*
D13*
G04 #@! TO.P,J6,1*
G04 #@! TO.N,/B4*
X147320000Y-124460000D03*
G04 #@! TD*
D14*
G04 #@! TO.N,/B7LED*
X127950000Y-129540000D03*
G04 #@! TO.N,/B6LED*
X137252000Y-117348000D03*
G04 #@! TO.N,/B5LED*
X143190000Y-129286000D03*
G04 #@! TO.N,/B4LED*
X153400000Y-118380000D03*
G04 #@! TO.N,/B3LED*
X160020000Y-127000000D03*
G04 #@! TO.N,/B2LED*
X166050000Y-116840000D03*
G04 #@! TO.N,/B1LED*
X173670000Y-129286000D03*
G04 #@! TO.N,/B9LED*
X111724980Y-102362000D03*
X115250000Y-129286000D03*
G04 #@! TO.N,/PIN0*
X114300000Y-97790000D03*
G04 #@! TO.N,/B8*
X113030000Y-107950000D03*
G04 #@! TO.N,/B9*
X111730000Y-96520000D03*
G04 #@! TO.N,/PIN3*
X114300000Y-107950000D03*
G04 #@! TO.N,/PIN2*
X114300000Y-102870000D03*
G04 #@! TD*
D15*
G04 #@! TO.N,/B7LED*
X154090001Y-93559999D02*
X154940000Y-92710000D01*
X128349999Y-119300001D02*
X154090001Y-93559999D01*
X128349999Y-129140001D02*
X128349999Y-119300001D01*
X127950000Y-129540000D02*
X128349999Y-129140001D01*
G04 #@! TO.N,/B6LED*
X137252000Y-115478000D02*
X160020000Y-92710000D01*
X137252000Y-117348000D02*
X137252000Y-115478000D01*
G04 #@! TO.N,/B5LED*
X143190000Y-114620000D02*
X165100000Y-92710000D01*
X143190000Y-129286000D02*
X143190000Y-114620000D01*
G04 #@! TO.N,/B4LED*
X154940000Y-116840000D02*
X153400000Y-118380000D01*
X154940000Y-107950000D02*
X154940000Y-116840000D01*
G04 #@! TO.N,/B3LED*
X160020000Y-107950000D02*
X160020000Y-127000000D01*
G04 #@! TO.N,/B2LED*
X166050000Y-116840000D02*
X166050000Y-115758000D01*
X165100000Y-114808000D02*
X165100000Y-107950000D01*
X166050000Y-115758000D02*
X165100000Y-114808000D01*
G04 #@! TO.N,/B1LED*
X173670000Y-129286000D02*
X173670000Y-114742000D01*
X170180000Y-111252000D02*
X170180000Y-107950000D01*
X173670000Y-114742000D02*
X170180000Y-111252000D01*
G04 #@! TO.N,/B9LED*
X111324981Y-102761999D02*
X111324981Y-122246981D01*
X111724980Y-102362000D02*
X111324981Y-102761999D01*
X115250000Y-126172000D02*
X115250000Y-129286000D01*
X111324981Y-122246981D02*
X115250000Y-126172000D01*
G04 #@! TO.N,/PIN0*
X176950001Y-91860001D02*
X177800000Y-92710000D01*
X114300000Y-97790000D02*
X116840000Y-97790000D01*
X116840000Y-97790000D02*
X118479980Y-96150020D01*
X118479980Y-96150020D02*
X118479980Y-93044335D01*
X118479980Y-93044335D02*
X122254334Y-89269981D01*
X122254334Y-89269981D02*
X174359981Y-89269981D01*
X174359981Y-89269981D02*
X176950001Y-91860001D01*
G04 #@! TO.N,/B8*
X113030000Y-107950000D02*
X112014000Y-108966000D01*
X112014000Y-108966000D02*
X112014000Y-121666000D01*
X114808000Y-124460000D02*
X116800000Y-124460000D01*
X112014000Y-121666000D02*
X114808000Y-124460000D01*
G04 #@! TO.N,/B4*
X147320000Y-123335000D02*
X147320000Y-124460000D01*
X152400000Y-107950000D02*
X152400000Y-109152081D01*
X152400000Y-109152081D02*
X147320000Y-114232081D01*
X147320000Y-114232081D02*
X147320000Y-123335000D01*
D16*
G04 #@! TO.N,+5V*
X128190000Y-99027436D02*
X128190000Y-107950000D01*
X128190000Y-97790000D02*
X128190000Y-99027436D01*
D15*
G04 #@! TO.N,/B9*
X109220000Y-136035000D02*
X112014000Y-133241000D01*
X109220000Y-137160000D02*
X109220000Y-136035000D01*
X112014000Y-133241000D02*
X112014000Y-124460000D01*
X110874971Y-123320971D02*
X110874971Y-101469029D01*
X112014000Y-124460000D02*
X110874971Y-123320971D01*
X111730000Y-100614000D02*
X111730000Y-96520000D01*
X110874971Y-101469029D02*
X111730000Y-100614000D01*
G04 #@! TO.N,/B7*
X124460000Y-137160000D02*
X124460000Y-129540000D01*
X124460000Y-129540000D02*
X127499990Y-126500010D01*
X127499990Y-126500010D02*
X127499990Y-117610010D01*
X127499990Y-117610010D02*
X151550001Y-93559999D01*
X151550001Y-93559999D02*
X152400000Y-92710000D01*
G04 #@! TO.N,/B6*
X132080000Y-118110000D02*
X132080000Y-124460000D01*
X157480000Y-92710000D02*
X132080000Y-118110000D01*
G04 #@! TO.N,/B3*
X154940000Y-137160000D02*
X154940000Y-130048000D01*
X157480000Y-127508000D02*
X157480000Y-107950000D01*
X154940000Y-130048000D02*
X157480000Y-127508000D01*
G04 #@! TO.N,/B2*
X162560000Y-124460000D02*
X162560000Y-107950000D01*
G04 #@! TO.N,/B1*
X167640000Y-110236000D02*
X167640000Y-107950000D01*
X170180000Y-129032000D02*
X172720000Y-126492000D01*
X170180000Y-137160000D02*
X170180000Y-129032000D01*
X172720000Y-126492000D02*
X172720000Y-115316000D01*
X172720000Y-115316000D02*
X167640000Y-110236000D01*
G04 #@! TO.N,/B5*
X139700000Y-130048000D02*
X139700000Y-137160000D01*
X162560000Y-92710000D02*
X142739990Y-112530010D01*
X142739990Y-112530010D02*
X142739990Y-127008010D01*
X142739990Y-127008010D02*
X139700000Y-130048000D01*
G04 #@! TO.N,/PIN3*
X167640000Y-91440000D02*
X167640000Y-92710000D01*
X115570000Y-107950000D02*
X119380000Y-104140000D01*
X114300000Y-107950000D02*
X115570000Y-107950000D01*
X119380000Y-104140000D02*
X119380000Y-93980000D01*
X119380000Y-93980000D02*
X123190000Y-90170000D01*
X123190000Y-90170000D02*
X166370000Y-90170000D01*
X166370000Y-90170000D02*
X167640000Y-91440000D01*
G04 #@! TO.N,/PIN2*
X169330001Y-91860001D02*
X170180000Y-92710000D01*
X115570000Y-102870000D02*
X118929990Y-99510010D01*
X118929990Y-99510010D02*
X118929990Y-93793600D01*
X118929990Y-93793600D02*
X123003600Y-89719990D01*
X123003600Y-89719990D02*
X167189990Y-89719990D01*
X114300000Y-102870000D02*
X115570000Y-102870000D01*
X167189990Y-89719990D02*
X169330001Y-91860001D01*
G04 #@! TD*
D17*
G04 #@! TO.N,GND*
G36*
X183440001Y-141530000D02*
X103580000Y-141530000D01*
X103580000Y-136285000D01*
X107697560Y-136285000D01*
X107697560Y-138035000D01*
X107746843Y-138282765D01*
X107887191Y-138492809D01*
X108097235Y-138633157D01*
X108345000Y-138682440D01*
X110095000Y-138682440D01*
X110342765Y-138633157D01*
X110552809Y-138492809D01*
X110693157Y-138282765D01*
X110695504Y-138270966D01*
X110864654Y-138440116D01*
X111419642Y-138670000D01*
X112020358Y-138670000D01*
X112575346Y-138440116D01*
X112970000Y-138045462D01*
X113364654Y-138440116D01*
X113919642Y-138670000D01*
X114520358Y-138670000D01*
X115075346Y-138440116D01*
X115293402Y-138222060D01*
X115837545Y-138222060D01*
X115920884Y-138475953D01*
X116485306Y-138681590D01*
X117085458Y-138655579D01*
X117519116Y-138475953D01*
X117602455Y-138222060D01*
X116720000Y-137339605D01*
X115837545Y-138222060D01*
X115293402Y-138222060D01*
X115500116Y-138015346D01*
X115509121Y-137993606D01*
X115657940Y-138042455D01*
X116540395Y-137160000D01*
X116899605Y-137160000D01*
X117782060Y-138042455D01*
X118035953Y-137959116D01*
X118241590Y-137394694D01*
X118215579Y-136794542D01*
X118035953Y-136360884D01*
X117782060Y-136277545D01*
X116899605Y-137160000D01*
X116540395Y-137160000D01*
X115657940Y-136277545D01*
X115509121Y-136326394D01*
X115500116Y-136304654D01*
X115293402Y-136097940D01*
X115837545Y-136097940D01*
X116720000Y-136980395D01*
X117602455Y-136097940D01*
X117519116Y-135844047D01*
X116954694Y-135638410D01*
X116354542Y-135664421D01*
X115920884Y-135844047D01*
X115837545Y-136097940D01*
X115293402Y-136097940D01*
X115075346Y-135879884D01*
X114520358Y-135650000D01*
X113919642Y-135650000D01*
X113364654Y-135879884D01*
X112970000Y-136274538D01*
X112575346Y-135879884D01*
X112020358Y-135650000D01*
X111419642Y-135650000D01*
X110864654Y-135879884D01*
X110695504Y-136049034D01*
X110693157Y-136037235D01*
X110552809Y-135827191D01*
X110522717Y-135807084D01*
X112498473Y-133831329D01*
X112561929Y-133788929D01*
X112604924Y-133724582D01*
X112729904Y-133537538D01*
X112739480Y-133489395D01*
X112774000Y-133315852D01*
X112774000Y-133315848D01*
X112788888Y-133241000D01*
X112774000Y-133166152D01*
X112774000Y-124770802D01*
X114490000Y-126486802D01*
X114490001Y-128582288D01*
X114372569Y-128699720D01*
X114215000Y-129080126D01*
X114215000Y-129491874D01*
X114372569Y-129872280D01*
X114663720Y-130163431D01*
X115044126Y-130321000D01*
X115455874Y-130321000D01*
X115836280Y-130163431D01*
X116127431Y-129872280D01*
X116285000Y-129491874D01*
X116285000Y-129080126D01*
X116127431Y-128699720D01*
X116010000Y-128582289D01*
X116010000Y-126246846D01*
X116024888Y-126171999D01*
X116010000Y-126097152D01*
X116010000Y-126097148D01*
X115987183Y-125982440D01*
X117675000Y-125982440D01*
X117922765Y-125933157D01*
X118132809Y-125792809D01*
X118273157Y-125582765D01*
X118275504Y-125570966D01*
X118444654Y-125740116D01*
X118999642Y-125970000D01*
X119600358Y-125970000D01*
X120155346Y-125740116D01*
X120550000Y-125345462D01*
X120944654Y-125740116D01*
X121499642Y-125970000D01*
X122100358Y-125970000D01*
X122655346Y-125740116D01*
X122873402Y-125522060D01*
X123417545Y-125522060D01*
X123500884Y-125775953D01*
X124065306Y-125981590D01*
X124665458Y-125955579D01*
X125099116Y-125775953D01*
X125182455Y-125522060D01*
X124300000Y-124639605D01*
X123417545Y-125522060D01*
X122873402Y-125522060D01*
X123080116Y-125315346D01*
X123089121Y-125293606D01*
X123237940Y-125342455D01*
X124120395Y-124460000D01*
X124479605Y-124460000D01*
X125362060Y-125342455D01*
X125615953Y-125259116D01*
X125821590Y-124694694D01*
X125795579Y-124094542D01*
X125615953Y-123660884D01*
X125362060Y-123577545D01*
X124479605Y-124460000D01*
X124120395Y-124460000D01*
X123237940Y-123577545D01*
X123089121Y-123626394D01*
X123080116Y-123604654D01*
X122873402Y-123397940D01*
X123417545Y-123397940D01*
X124300000Y-124280395D01*
X125182455Y-123397940D01*
X125099116Y-123144047D01*
X124534694Y-122938410D01*
X123934542Y-122964421D01*
X123500884Y-123144047D01*
X123417545Y-123397940D01*
X122873402Y-123397940D01*
X122655346Y-123179884D01*
X122100358Y-122950000D01*
X121499642Y-122950000D01*
X120944654Y-123179884D01*
X120550000Y-123574538D01*
X120155346Y-123179884D01*
X119600358Y-122950000D01*
X118999642Y-122950000D01*
X118444654Y-123179884D01*
X118275504Y-123349034D01*
X118273157Y-123337235D01*
X118132809Y-123127191D01*
X117922765Y-122986843D01*
X117675000Y-122937560D01*
X115925000Y-122937560D01*
X115677235Y-122986843D01*
X115467191Y-123127191D01*
X115326843Y-123337235D01*
X115277560Y-123585000D01*
X115277560Y-123700000D01*
X115122802Y-123700000D01*
X112774000Y-121351199D01*
X112774000Y-109280801D01*
X113069802Y-108985000D01*
X113235874Y-108985000D01*
X113616280Y-108827431D01*
X113665000Y-108778711D01*
X113713720Y-108827431D01*
X114094126Y-108985000D01*
X114505874Y-108985000D01*
X114886280Y-108827431D01*
X115003711Y-108710000D01*
X115495153Y-108710000D01*
X115570000Y-108724888D01*
X115644847Y-108710000D01*
X115644852Y-108710000D01*
X115866537Y-108665904D01*
X116117929Y-108497929D01*
X116160331Y-108434470D01*
X119864473Y-104730329D01*
X119927929Y-104687929D01*
X119970924Y-104623582D01*
X120095904Y-104436538D01*
X120105480Y-104388395D01*
X120140000Y-104214852D01*
X120140000Y-104214848D01*
X120154888Y-104140000D01*
X120140000Y-104065152D01*
X120140000Y-96915000D01*
X121667560Y-96915000D01*
X121667560Y-98665000D01*
X121716843Y-98912765D01*
X121857191Y-99122809D01*
X122067235Y-99263157D01*
X122315000Y-99312440D01*
X124065000Y-99312440D01*
X124312765Y-99263157D01*
X124522809Y-99122809D01*
X124663157Y-98912765D01*
X124665504Y-98900966D01*
X124834654Y-99070116D01*
X125389642Y-99300000D01*
X125990358Y-99300000D01*
X126545346Y-99070116D01*
X126940000Y-98675462D01*
X127305000Y-99040462D01*
X127305001Y-106699537D01*
X126940000Y-107064538D01*
X126545346Y-106669884D01*
X125990358Y-106440000D01*
X125389642Y-106440000D01*
X124834654Y-106669884D01*
X124665504Y-106839034D01*
X124663157Y-106827235D01*
X124522809Y-106617191D01*
X124312765Y-106476843D01*
X124065000Y-106427560D01*
X122315000Y-106427560D01*
X122067235Y-106476843D01*
X121857191Y-106617191D01*
X121716843Y-106827235D01*
X121667560Y-107075000D01*
X121667560Y-108825000D01*
X121716843Y-109072765D01*
X121857191Y-109282809D01*
X122067235Y-109423157D01*
X122315000Y-109472440D01*
X124065000Y-109472440D01*
X124312765Y-109423157D01*
X124522809Y-109282809D01*
X124663157Y-109072765D01*
X124665504Y-109060966D01*
X124834654Y-109230116D01*
X125389642Y-109460000D01*
X125990358Y-109460000D01*
X126545346Y-109230116D01*
X126940000Y-108835462D01*
X127334654Y-109230116D01*
X127889642Y-109460000D01*
X128490358Y-109460000D01*
X129045346Y-109230116D01*
X129263402Y-109012060D01*
X129807545Y-109012060D01*
X129890884Y-109265953D01*
X130455306Y-109471590D01*
X131055458Y-109445579D01*
X131489116Y-109265953D01*
X131572455Y-109012060D01*
X130690000Y-108129605D01*
X129807545Y-109012060D01*
X129263402Y-109012060D01*
X129470116Y-108805346D01*
X129479121Y-108783606D01*
X129627940Y-108832455D01*
X130510395Y-107950000D01*
X130869605Y-107950000D01*
X131752060Y-108832455D01*
X132005953Y-108749116D01*
X132211590Y-108184694D01*
X132185579Y-107584542D01*
X132005953Y-107150884D01*
X131752060Y-107067545D01*
X130869605Y-107950000D01*
X130510395Y-107950000D01*
X129627940Y-107067545D01*
X129479121Y-107116394D01*
X129470116Y-107094654D01*
X129263402Y-106887940D01*
X129807545Y-106887940D01*
X130690000Y-107770395D01*
X131572455Y-106887940D01*
X131489116Y-106634047D01*
X130924694Y-106428410D01*
X130324542Y-106454421D01*
X129890884Y-106634047D01*
X129807545Y-106887940D01*
X129263402Y-106887940D01*
X129075000Y-106699538D01*
X129075000Y-99040462D01*
X129263402Y-98852060D01*
X129807545Y-98852060D01*
X129890884Y-99105953D01*
X130455306Y-99311590D01*
X131055458Y-99285579D01*
X131489116Y-99105953D01*
X131572455Y-98852060D01*
X130690000Y-97969605D01*
X129807545Y-98852060D01*
X129263402Y-98852060D01*
X129470116Y-98645346D01*
X129479121Y-98623606D01*
X129627940Y-98672455D01*
X130510395Y-97790000D01*
X130869605Y-97790000D01*
X131752060Y-98672455D01*
X132005953Y-98589116D01*
X132211590Y-98024694D01*
X132185579Y-97424542D01*
X132005953Y-96990884D01*
X131752060Y-96907545D01*
X130869605Y-97790000D01*
X130510395Y-97790000D01*
X129627940Y-96907545D01*
X129479121Y-96956394D01*
X129470116Y-96934654D01*
X129263402Y-96727940D01*
X129807545Y-96727940D01*
X130690000Y-97610395D01*
X131572455Y-96727940D01*
X131489116Y-96474047D01*
X130924694Y-96268410D01*
X130324542Y-96294421D01*
X129890884Y-96474047D01*
X129807545Y-96727940D01*
X129263402Y-96727940D01*
X129045346Y-96509884D01*
X128490358Y-96280000D01*
X127889642Y-96280000D01*
X127334654Y-96509884D01*
X126940000Y-96904538D01*
X126545346Y-96509884D01*
X125990358Y-96280000D01*
X125389642Y-96280000D01*
X124834654Y-96509884D01*
X124665504Y-96679034D01*
X124663157Y-96667235D01*
X124522809Y-96457191D01*
X124312765Y-96316843D01*
X124065000Y-96267560D01*
X122315000Y-96267560D01*
X122067235Y-96316843D01*
X121857191Y-96457191D01*
X121716843Y-96667235D01*
X121667560Y-96915000D01*
X120140000Y-96915000D01*
X120140000Y-94294801D01*
X123504802Y-90930000D01*
X166055199Y-90930000D01*
X166686388Y-91561190D01*
X166569375Y-91639375D01*
X166370000Y-91937761D01*
X166170625Y-91639375D01*
X165679418Y-91311161D01*
X165246256Y-91225000D01*
X164953744Y-91225000D01*
X164520582Y-91311161D01*
X164029375Y-91639375D01*
X163830000Y-91937761D01*
X163630625Y-91639375D01*
X163139418Y-91311161D01*
X162706256Y-91225000D01*
X162413744Y-91225000D01*
X161980582Y-91311161D01*
X161489375Y-91639375D01*
X161290000Y-91937761D01*
X161090625Y-91639375D01*
X160599418Y-91311161D01*
X160166256Y-91225000D01*
X159873744Y-91225000D01*
X159440582Y-91311161D01*
X158949375Y-91639375D01*
X158750000Y-91937761D01*
X158550625Y-91639375D01*
X158059418Y-91311161D01*
X157626256Y-91225000D01*
X157333744Y-91225000D01*
X156900582Y-91311161D01*
X156409375Y-91639375D01*
X156210000Y-91937761D01*
X156010625Y-91639375D01*
X155519418Y-91311161D01*
X155086256Y-91225000D01*
X154793744Y-91225000D01*
X154360582Y-91311161D01*
X153869375Y-91639375D01*
X153670000Y-91937761D01*
X153470625Y-91639375D01*
X152979418Y-91311161D01*
X152546256Y-91225000D01*
X152253744Y-91225000D01*
X151820582Y-91311161D01*
X151329375Y-91639375D01*
X151001161Y-92130582D01*
X150885908Y-92710000D01*
X150958791Y-93076407D01*
X127015518Y-117019681D01*
X126952062Y-117062081D01*
X126909662Y-117125537D01*
X126909661Y-117125538D01*
X126784087Y-117313473D01*
X126725102Y-117610010D01*
X126739991Y-117684862D01*
X126739990Y-126185208D01*
X123975528Y-128949671D01*
X123912072Y-128992071D01*
X123869672Y-129055527D01*
X123869671Y-129055528D01*
X123744097Y-129243463D01*
X123685112Y-129540000D01*
X123700001Y-129614852D01*
X123700000Y-135637560D01*
X123585000Y-135637560D01*
X123337235Y-135686843D01*
X123127191Y-135827191D01*
X122986843Y-136037235D01*
X122937560Y-136285000D01*
X122937560Y-138035000D01*
X122986843Y-138282765D01*
X123127191Y-138492809D01*
X123337235Y-138633157D01*
X123585000Y-138682440D01*
X125335000Y-138682440D01*
X125582765Y-138633157D01*
X125792809Y-138492809D01*
X125933157Y-138282765D01*
X125935504Y-138270966D01*
X126104654Y-138440116D01*
X126659642Y-138670000D01*
X127260358Y-138670000D01*
X127815346Y-138440116D01*
X128210000Y-138045462D01*
X128604654Y-138440116D01*
X129159642Y-138670000D01*
X129760358Y-138670000D01*
X130315346Y-138440116D01*
X130533402Y-138222060D01*
X131077545Y-138222060D01*
X131160884Y-138475953D01*
X131725306Y-138681590D01*
X132325458Y-138655579D01*
X132759116Y-138475953D01*
X132842455Y-138222060D01*
X131960000Y-137339605D01*
X131077545Y-138222060D01*
X130533402Y-138222060D01*
X130740116Y-138015346D01*
X130749121Y-137993606D01*
X130897940Y-138042455D01*
X131780395Y-137160000D01*
X132139605Y-137160000D01*
X133022060Y-138042455D01*
X133275953Y-137959116D01*
X133481590Y-137394694D01*
X133455579Y-136794542D01*
X133275953Y-136360884D01*
X133022060Y-136277545D01*
X132139605Y-137160000D01*
X131780395Y-137160000D01*
X130897940Y-136277545D01*
X130749121Y-136326394D01*
X130740116Y-136304654D01*
X130533402Y-136097940D01*
X131077545Y-136097940D01*
X131960000Y-136980395D01*
X132842455Y-136097940D01*
X132759116Y-135844047D01*
X132194694Y-135638410D01*
X131594542Y-135664421D01*
X131160884Y-135844047D01*
X131077545Y-136097940D01*
X130533402Y-136097940D01*
X130315346Y-135879884D01*
X129760358Y-135650000D01*
X129159642Y-135650000D01*
X128604654Y-135879884D01*
X128210000Y-136274538D01*
X127815346Y-135879884D01*
X127260358Y-135650000D01*
X126659642Y-135650000D01*
X126104654Y-135879884D01*
X125935504Y-136049034D01*
X125933157Y-136037235D01*
X125792809Y-135827191D01*
X125582765Y-135686843D01*
X125335000Y-135637560D01*
X125220000Y-135637560D01*
X125220000Y-129854801D01*
X127589999Y-127484803D01*
X127589999Y-128568841D01*
X127363720Y-128662569D01*
X127072569Y-128953720D01*
X126915000Y-129334126D01*
X126915000Y-129745874D01*
X127072569Y-130126280D01*
X127363720Y-130417431D01*
X127744126Y-130575000D01*
X128155874Y-130575000D01*
X128536280Y-130417431D01*
X128827431Y-130126280D01*
X128985000Y-129745874D01*
X128985000Y-129557618D01*
X129065903Y-129436538D01*
X129109999Y-129214853D01*
X129109999Y-129214849D01*
X129124887Y-129140002D01*
X129109999Y-129065155D01*
X129109999Y-119614802D01*
X154573593Y-94151209D01*
X154793744Y-94195000D01*
X154920197Y-94195000D01*
X131595530Y-117519669D01*
X131532071Y-117562071D01*
X131364096Y-117813464D01*
X131320000Y-118035149D01*
X131320000Y-118035153D01*
X131305112Y-118110000D01*
X131320000Y-118184847D01*
X131320001Y-122937560D01*
X131205000Y-122937560D01*
X130957235Y-122986843D01*
X130747191Y-123127191D01*
X130606843Y-123337235D01*
X130557560Y-123585000D01*
X130557560Y-125335000D01*
X130606843Y-125582765D01*
X130747191Y-125792809D01*
X130957235Y-125933157D01*
X131205000Y-125982440D01*
X132955000Y-125982440D01*
X133202765Y-125933157D01*
X133412809Y-125792809D01*
X133553157Y-125582765D01*
X133555504Y-125570966D01*
X133724654Y-125740116D01*
X134279642Y-125970000D01*
X134880358Y-125970000D01*
X135435346Y-125740116D01*
X135830000Y-125345462D01*
X136224654Y-125740116D01*
X136779642Y-125970000D01*
X137380358Y-125970000D01*
X137935346Y-125740116D01*
X138153402Y-125522060D01*
X138697545Y-125522060D01*
X138780884Y-125775953D01*
X139345306Y-125981590D01*
X139945458Y-125955579D01*
X140379116Y-125775953D01*
X140462455Y-125522060D01*
X139580000Y-124639605D01*
X138697545Y-125522060D01*
X138153402Y-125522060D01*
X138360116Y-125315346D01*
X138369121Y-125293606D01*
X138517940Y-125342455D01*
X139400395Y-124460000D01*
X139759605Y-124460000D01*
X140642060Y-125342455D01*
X140895953Y-125259116D01*
X141101590Y-124694694D01*
X141075579Y-124094542D01*
X140895953Y-123660884D01*
X140642060Y-123577545D01*
X139759605Y-124460000D01*
X139400395Y-124460000D01*
X138517940Y-123577545D01*
X138369121Y-123626394D01*
X138360116Y-123604654D01*
X138153402Y-123397940D01*
X138697545Y-123397940D01*
X139580000Y-124280395D01*
X140462455Y-123397940D01*
X140379116Y-123144047D01*
X139814694Y-122938410D01*
X139214542Y-122964421D01*
X138780884Y-123144047D01*
X138697545Y-123397940D01*
X138153402Y-123397940D01*
X137935346Y-123179884D01*
X137380358Y-122950000D01*
X136779642Y-122950000D01*
X136224654Y-123179884D01*
X135830000Y-123574538D01*
X135435346Y-123179884D01*
X134880358Y-122950000D01*
X134279642Y-122950000D01*
X133724654Y-123179884D01*
X133555504Y-123349034D01*
X133553157Y-123337235D01*
X133412809Y-123127191D01*
X133202765Y-122986843D01*
X132955000Y-122937560D01*
X132840000Y-122937560D01*
X132840000Y-118424801D01*
X157113593Y-94151209D01*
X157333744Y-94195000D01*
X157460197Y-94195000D01*
X136767528Y-114887671D01*
X136704072Y-114930071D01*
X136661672Y-114993527D01*
X136661671Y-114993528D01*
X136536097Y-115181463D01*
X136477112Y-115478000D01*
X136492001Y-115552852D01*
X136492000Y-116644289D01*
X136374569Y-116761720D01*
X136217000Y-117142126D01*
X136217000Y-117553874D01*
X136374569Y-117934280D01*
X136665720Y-118225431D01*
X137046126Y-118383000D01*
X137457874Y-118383000D01*
X137838280Y-118225431D01*
X138129431Y-117934280D01*
X138287000Y-117553874D01*
X138287000Y-117142126D01*
X138129431Y-116761720D01*
X138012000Y-116644289D01*
X138012000Y-115792801D01*
X159653593Y-94151209D01*
X159873744Y-94195000D01*
X160000198Y-94195000D01*
X142255520Y-111939679D01*
X142192061Y-111982081D01*
X142024086Y-112233474D01*
X141979990Y-112455159D01*
X141979990Y-112455163D01*
X141965102Y-112530010D01*
X141979990Y-112604857D01*
X141979991Y-126693207D01*
X139215530Y-129457669D01*
X139152071Y-129500071D01*
X138984096Y-129751464D01*
X138940000Y-129973149D01*
X138940000Y-129973153D01*
X138925112Y-130048000D01*
X138940000Y-130122847D01*
X138940001Y-135637560D01*
X138825000Y-135637560D01*
X138577235Y-135686843D01*
X138367191Y-135827191D01*
X138226843Y-136037235D01*
X138177560Y-136285000D01*
X138177560Y-138035000D01*
X138226843Y-138282765D01*
X138367191Y-138492809D01*
X138577235Y-138633157D01*
X138825000Y-138682440D01*
X140575000Y-138682440D01*
X140822765Y-138633157D01*
X141032809Y-138492809D01*
X141173157Y-138282765D01*
X141175504Y-138270966D01*
X141344654Y-138440116D01*
X141899642Y-138670000D01*
X142500358Y-138670000D01*
X143055346Y-138440116D01*
X143450000Y-138045462D01*
X143844654Y-138440116D01*
X144399642Y-138670000D01*
X145000358Y-138670000D01*
X145555346Y-138440116D01*
X145773402Y-138222060D01*
X146317545Y-138222060D01*
X146400884Y-138475953D01*
X146965306Y-138681590D01*
X147565458Y-138655579D01*
X147999116Y-138475953D01*
X148082455Y-138222060D01*
X147200000Y-137339605D01*
X146317545Y-138222060D01*
X145773402Y-138222060D01*
X145980116Y-138015346D01*
X145989121Y-137993606D01*
X146137940Y-138042455D01*
X147020395Y-137160000D01*
X147379605Y-137160000D01*
X148262060Y-138042455D01*
X148515953Y-137959116D01*
X148721590Y-137394694D01*
X148695579Y-136794542D01*
X148515953Y-136360884D01*
X148262060Y-136277545D01*
X147379605Y-137160000D01*
X147020395Y-137160000D01*
X146137940Y-136277545D01*
X145989121Y-136326394D01*
X145980116Y-136304654D01*
X145773402Y-136097940D01*
X146317545Y-136097940D01*
X147200000Y-136980395D01*
X148082455Y-136097940D01*
X147999116Y-135844047D01*
X147434694Y-135638410D01*
X146834542Y-135664421D01*
X146400884Y-135844047D01*
X146317545Y-136097940D01*
X145773402Y-136097940D01*
X145555346Y-135879884D01*
X145000358Y-135650000D01*
X144399642Y-135650000D01*
X143844654Y-135879884D01*
X143450000Y-136274538D01*
X143055346Y-135879884D01*
X142500358Y-135650000D01*
X141899642Y-135650000D01*
X141344654Y-135879884D01*
X141175504Y-136049034D01*
X141173157Y-136037235D01*
X141032809Y-135827191D01*
X140822765Y-135686843D01*
X140575000Y-135637560D01*
X140460000Y-135637560D01*
X140460000Y-130362801D01*
X142430000Y-128392802D01*
X142430000Y-128582289D01*
X142312569Y-128699720D01*
X142155000Y-129080126D01*
X142155000Y-129491874D01*
X142312569Y-129872280D01*
X142603720Y-130163431D01*
X142984126Y-130321000D01*
X143395874Y-130321000D01*
X143776280Y-130163431D01*
X144067431Y-129872280D01*
X144225000Y-129491874D01*
X144225000Y-129080126D01*
X144067431Y-128699720D01*
X143950000Y-128582289D01*
X143950000Y-114934801D01*
X150894020Y-107990781D01*
X151001161Y-108529418D01*
X151329375Y-109020625D01*
X151405673Y-109071606D01*
X146835530Y-113641750D01*
X146772071Y-113684152D01*
X146604096Y-113935545D01*
X146560000Y-114157230D01*
X146560000Y-114157234D01*
X146545112Y-114232081D01*
X146560000Y-114306928D01*
X146560001Y-122937560D01*
X146445000Y-122937560D01*
X146197235Y-122986843D01*
X145987191Y-123127191D01*
X145846843Y-123337235D01*
X145797560Y-123585000D01*
X145797560Y-125335000D01*
X145846843Y-125582765D01*
X145987191Y-125792809D01*
X146197235Y-125933157D01*
X146445000Y-125982440D01*
X148195000Y-125982440D01*
X148442765Y-125933157D01*
X148652809Y-125792809D01*
X148793157Y-125582765D01*
X148795504Y-125570966D01*
X148964654Y-125740116D01*
X149519642Y-125970000D01*
X150120358Y-125970000D01*
X150675346Y-125740116D01*
X151070000Y-125345462D01*
X151464654Y-125740116D01*
X152019642Y-125970000D01*
X152620358Y-125970000D01*
X153175346Y-125740116D01*
X153393402Y-125522060D01*
X153937545Y-125522060D01*
X154020884Y-125775953D01*
X154585306Y-125981590D01*
X155185458Y-125955579D01*
X155619116Y-125775953D01*
X155702455Y-125522060D01*
X154820000Y-124639605D01*
X153937545Y-125522060D01*
X153393402Y-125522060D01*
X153600116Y-125315346D01*
X153609121Y-125293606D01*
X153757940Y-125342455D01*
X154640395Y-124460000D01*
X154999605Y-124460000D01*
X155882060Y-125342455D01*
X156135953Y-125259116D01*
X156341590Y-124694694D01*
X156315579Y-124094542D01*
X156135953Y-123660884D01*
X155882060Y-123577545D01*
X154999605Y-124460000D01*
X154640395Y-124460000D01*
X153757940Y-123577545D01*
X153609121Y-123626394D01*
X153600116Y-123604654D01*
X153393402Y-123397940D01*
X153937545Y-123397940D01*
X154820000Y-124280395D01*
X155702455Y-123397940D01*
X155619116Y-123144047D01*
X155054694Y-122938410D01*
X154454542Y-122964421D01*
X154020884Y-123144047D01*
X153937545Y-123397940D01*
X153393402Y-123397940D01*
X153175346Y-123179884D01*
X152620358Y-122950000D01*
X152019642Y-122950000D01*
X151464654Y-123179884D01*
X151070000Y-123574538D01*
X150675346Y-123179884D01*
X150120358Y-122950000D01*
X149519642Y-122950000D01*
X148964654Y-123179884D01*
X148795504Y-123349034D01*
X148793157Y-123337235D01*
X148652809Y-123127191D01*
X148442765Y-122986843D01*
X148195000Y-122937560D01*
X148080000Y-122937560D01*
X148080000Y-114546882D01*
X152884473Y-109742410D01*
X152947929Y-109700010D01*
X153115904Y-109448618D01*
X153159714Y-109228369D01*
X153470625Y-109020625D01*
X153670000Y-108722239D01*
X153869375Y-109020625D01*
X154180000Y-109228178D01*
X154180001Y-116525197D01*
X153360199Y-117345000D01*
X153194126Y-117345000D01*
X152813720Y-117502569D01*
X152522569Y-117793720D01*
X152365000Y-118174126D01*
X152365000Y-118585874D01*
X152522569Y-118966280D01*
X152813720Y-119257431D01*
X153194126Y-119415000D01*
X153605874Y-119415000D01*
X153986280Y-119257431D01*
X154277431Y-118966280D01*
X154435000Y-118585874D01*
X154435000Y-118419801D01*
X155424473Y-117430329D01*
X155487929Y-117387929D01*
X155655904Y-117136537D01*
X155700000Y-116914852D01*
X155700000Y-116914847D01*
X155714888Y-116840000D01*
X155700000Y-116765153D01*
X155700000Y-109228178D01*
X156010625Y-109020625D01*
X156210000Y-108722239D01*
X156409375Y-109020625D01*
X156720001Y-109228179D01*
X156720000Y-127193197D01*
X154455528Y-129457671D01*
X154392072Y-129500071D01*
X154349672Y-129563527D01*
X154349671Y-129563528D01*
X154224097Y-129751463D01*
X154165112Y-130048000D01*
X154180001Y-130122852D01*
X154180000Y-135637560D01*
X154065000Y-135637560D01*
X153817235Y-135686843D01*
X153607191Y-135827191D01*
X153466843Y-136037235D01*
X153417560Y-136285000D01*
X153417560Y-138035000D01*
X153466843Y-138282765D01*
X153607191Y-138492809D01*
X153817235Y-138633157D01*
X154065000Y-138682440D01*
X155815000Y-138682440D01*
X156062765Y-138633157D01*
X156272809Y-138492809D01*
X156413157Y-138282765D01*
X156415504Y-138270966D01*
X156584654Y-138440116D01*
X157139642Y-138670000D01*
X157740358Y-138670000D01*
X158295346Y-138440116D01*
X158690000Y-138045462D01*
X159084654Y-138440116D01*
X159639642Y-138670000D01*
X160240358Y-138670000D01*
X160795346Y-138440116D01*
X161013402Y-138222060D01*
X161557545Y-138222060D01*
X161640884Y-138475953D01*
X162205306Y-138681590D01*
X162805458Y-138655579D01*
X163239116Y-138475953D01*
X163322455Y-138222060D01*
X162440000Y-137339605D01*
X161557545Y-138222060D01*
X161013402Y-138222060D01*
X161220116Y-138015346D01*
X161229121Y-137993606D01*
X161377940Y-138042455D01*
X162260395Y-137160000D01*
X162619605Y-137160000D01*
X163502060Y-138042455D01*
X163755953Y-137959116D01*
X163961590Y-137394694D01*
X163935579Y-136794542D01*
X163755953Y-136360884D01*
X163502060Y-136277545D01*
X162619605Y-137160000D01*
X162260395Y-137160000D01*
X161377940Y-136277545D01*
X161229121Y-136326394D01*
X161220116Y-136304654D01*
X161013402Y-136097940D01*
X161557545Y-136097940D01*
X162440000Y-136980395D01*
X163322455Y-136097940D01*
X163239116Y-135844047D01*
X162674694Y-135638410D01*
X162074542Y-135664421D01*
X161640884Y-135844047D01*
X161557545Y-136097940D01*
X161013402Y-136097940D01*
X160795346Y-135879884D01*
X160240358Y-135650000D01*
X159639642Y-135650000D01*
X159084654Y-135879884D01*
X158690000Y-136274538D01*
X158295346Y-135879884D01*
X157740358Y-135650000D01*
X157139642Y-135650000D01*
X156584654Y-135879884D01*
X156415504Y-136049034D01*
X156413157Y-136037235D01*
X156272809Y-135827191D01*
X156062765Y-135686843D01*
X155815000Y-135637560D01*
X155700000Y-135637560D01*
X155700000Y-130362801D01*
X157964476Y-128098327D01*
X158027929Y-128055929D01*
X158070327Y-127992476D01*
X158070329Y-127992474D01*
X158195903Y-127804538D01*
X158195904Y-127804537D01*
X158240000Y-127582852D01*
X158240000Y-127582848D01*
X158254888Y-127508001D01*
X158240000Y-127433154D01*
X158240000Y-109228178D01*
X158550625Y-109020625D01*
X158750000Y-108722239D01*
X158949375Y-109020625D01*
X159260000Y-109228178D01*
X159260001Y-126296288D01*
X159142569Y-126413720D01*
X158985000Y-126794126D01*
X158985000Y-127205874D01*
X159142569Y-127586280D01*
X159433720Y-127877431D01*
X159814126Y-128035000D01*
X160225874Y-128035000D01*
X160606280Y-127877431D01*
X160897431Y-127586280D01*
X161055000Y-127205874D01*
X161055000Y-126794126D01*
X160897431Y-126413720D01*
X160780000Y-126296289D01*
X160780000Y-109228178D01*
X161090625Y-109020625D01*
X161290000Y-108722239D01*
X161489375Y-109020625D01*
X161800001Y-109228179D01*
X161800000Y-122937560D01*
X161685000Y-122937560D01*
X161437235Y-122986843D01*
X161227191Y-123127191D01*
X161086843Y-123337235D01*
X161037560Y-123585000D01*
X161037560Y-125335000D01*
X161086843Y-125582765D01*
X161227191Y-125792809D01*
X161437235Y-125933157D01*
X161685000Y-125982440D01*
X163435000Y-125982440D01*
X163682765Y-125933157D01*
X163892809Y-125792809D01*
X164033157Y-125582765D01*
X164035504Y-125570966D01*
X164204654Y-125740116D01*
X164759642Y-125970000D01*
X165360358Y-125970000D01*
X165915346Y-125740116D01*
X166310000Y-125345462D01*
X166704654Y-125740116D01*
X167259642Y-125970000D01*
X167860358Y-125970000D01*
X168415346Y-125740116D01*
X168633402Y-125522060D01*
X169177545Y-125522060D01*
X169260884Y-125775953D01*
X169825306Y-125981590D01*
X170425458Y-125955579D01*
X170859116Y-125775953D01*
X170942455Y-125522060D01*
X170060000Y-124639605D01*
X169177545Y-125522060D01*
X168633402Y-125522060D01*
X168840116Y-125315346D01*
X168849121Y-125293606D01*
X168997940Y-125342455D01*
X169880395Y-124460000D01*
X170239605Y-124460000D01*
X171122060Y-125342455D01*
X171375953Y-125259116D01*
X171581590Y-124694694D01*
X171555579Y-124094542D01*
X171375953Y-123660884D01*
X171122060Y-123577545D01*
X170239605Y-124460000D01*
X169880395Y-124460000D01*
X168997940Y-123577545D01*
X168849121Y-123626394D01*
X168840116Y-123604654D01*
X168633402Y-123397940D01*
X169177545Y-123397940D01*
X170060000Y-124280395D01*
X170942455Y-123397940D01*
X170859116Y-123144047D01*
X170294694Y-122938410D01*
X169694542Y-122964421D01*
X169260884Y-123144047D01*
X169177545Y-123397940D01*
X168633402Y-123397940D01*
X168415346Y-123179884D01*
X167860358Y-122950000D01*
X167259642Y-122950000D01*
X166704654Y-123179884D01*
X166310000Y-123574538D01*
X165915346Y-123179884D01*
X165360358Y-122950000D01*
X164759642Y-122950000D01*
X164204654Y-123179884D01*
X164035504Y-123349034D01*
X164033157Y-123337235D01*
X163892809Y-123127191D01*
X163682765Y-122986843D01*
X163435000Y-122937560D01*
X163320000Y-122937560D01*
X163320000Y-109228178D01*
X163630625Y-109020625D01*
X163830000Y-108722239D01*
X164029375Y-109020625D01*
X164340001Y-109228179D01*
X164340000Y-114733153D01*
X164325112Y-114808000D01*
X164340000Y-114882847D01*
X164340000Y-114882851D01*
X164384096Y-115104536D01*
X164552071Y-115355929D01*
X164615530Y-115398331D01*
X165290001Y-116072802D01*
X165290001Y-116136288D01*
X165172569Y-116253720D01*
X165015000Y-116634126D01*
X165015000Y-117045874D01*
X165172569Y-117426280D01*
X165463720Y-117717431D01*
X165844126Y-117875000D01*
X166255874Y-117875000D01*
X166636280Y-117717431D01*
X166927431Y-117426280D01*
X167085000Y-117045874D01*
X167085000Y-116634126D01*
X166927431Y-116253720D01*
X166810000Y-116136289D01*
X166810000Y-115832847D01*
X166824888Y-115758000D01*
X166810000Y-115683153D01*
X166810000Y-115683148D01*
X166765904Y-115461463D01*
X166597929Y-115210071D01*
X166534473Y-115167671D01*
X165860000Y-114493199D01*
X165860000Y-109228178D01*
X166170625Y-109020625D01*
X166370000Y-108722239D01*
X166569375Y-109020625D01*
X166880000Y-109228178D01*
X166880000Y-110161153D01*
X166865112Y-110236000D01*
X166880000Y-110310847D01*
X166880000Y-110310851D01*
X166924096Y-110532536D01*
X167092071Y-110783929D01*
X167155530Y-110826331D01*
X171960001Y-115630803D01*
X171960000Y-126177197D01*
X169695528Y-128441671D01*
X169632072Y-128484071D01*
X169589672Y-128547527D01*
X169589671Y-128547528D01*
X169464097Y-128735463D01*
X169405112Y-129032000D01*
X169420001Y-129106852D01*
X169420000Y-135637560D01*
X169305000Y-135637560D01*
X169057235Y-135686843D01*
X168847191Y-135827191D01*
X168706843Y-136037235D01*
X168657560Y-136285000D01*
X168657560Y-138035000D01*
X168706843Y-138282765D01*
X168847191Y-138492809D01*
X169057235Y-138633157D01*
X169305000Y-138682440D01*
X171055000Y-138682440D01*
X171302765Y-138633157D01*
X171512809Y-138492809D01*
X171653157Y-138282765D01*
X171655504Y-138270966D01*
X171824654Y-138440116D01*
X172379642Y-138670000D01*
X172980358Y-138670000D01*
X173535346Y-138440116D01*
X173930000Y-138045462D01*
X174324654Y-138440116D01*
X174879642Y-138670000D01*
X175480358Y-138670000D01*
X176035346Y-138440116D01*
X176253402Y-138222060D01*
X176797545Y-138222060D01*
X176880884Y-138475953D01*
X177445306Y-138681590D01*
X178045458Y-138655579D01*
X178479116Y-138475953D01*
X178562455Y-138222060D01*
X177680000Y-137339605D01*
X176797545Y-138222060D01*
X176253402Y-138222060D01*
X176460116Y-138015346D01*
X176469121Y-137993606D01*
X176617940Y-138042455D01*
X177500395Y-137160000D01*
X177859605Y-137160000D01*
X178742060Y-138042455D01*
X178995953Y-137959116D01*
X179201590Y-137394694D01*
X179175579Y-136794542D01*
X178995953Y-136360884D01*
X178742060Y-136277545D01*
X177859605Y-137160000D01*
X177500395Y-137160000D01*
X176617940Y-136277545D01*
X176469121Y-136326394D01*
X176460116Y-136304654D01*
X176253402Y-136097940D01*
X176797545Y-136097940D01*
X177680000Y-136980395D01*
X178562455Y-136097940D01*
X178479116Y-135844047D01*
X177914694Y-135638410D01*
X177314542Y-135664421D01*
X176880884Y-135844047D01*
X176797545Y-136097940D01*
X176253402Y-136097940D01*
X176035346Y-135879884D01*
X175480358Y-135650000D01*
X174879642Y-135650000D01*
X174324654Y-135879884D01*
X173930000Y-136274538D01*
X173535346Y-135879884D01*
X172980358Y-135650000D01*
X172379642Y-135650000D01*
X171824654Y-135879884D01*
X171655504Y-136049034D01*
X171653157Y-136037235D01*
X171512809Y-135827191D01*
X171302765Y-135686843D01*
X171055000Y-135637560D01*
X170940000Y-135637560D01*
X170940000Y-129346801D01*
X172910000Y-127376803D01*
X172910000Y-128582289D01*
X172792569Y-128699720D01*
X172635000Y-129080126D01*
X172635000Y-129491874D01*
X172792569Y-129872280D01*
X173083720Y-130163431D01*
X173464126Y-130321000D01*
X173875874Y-130321000D01*
X174256280Y-130163431D01*
X174547431Y-129872280D01*
X174705000Y-129491874D01*
X174705000Y-129080126D01*
X174595360Y-128815431D01*
X176977000Y-128815431D01*
X176977000Y-129704569D01*
X177317259Y-130526026D01*
X177945974Y-131154741D01*
X178767431Y-131495000D01*
X179656569Y-131495000D01*
X180478026Y-131154741D01*
X181106741Y-130526026D01*
X181447000Y-129704569D01*
X181447000Y-128815431D01*
X181106741Y-127993974D01*
X180478026Y-127365259D01*
X179656569Y-127025000D01*
X178767431Y-127025000D01*
X177945974Y-127365259D01*
X177317259Y-127993974D01*
X176977000Y-128815431D01*
X174595360Y-128815431D01*
X174547431Y-128699720D01*
X174430000Y-128582289D01*
X174430000Y-114816846D01*
X174444888Y-114741999D01*
X174430000Y-114667152D01*
X174430000Y-114667148D01*
X174385904Y-114445463D01*
X174288709Y-114300000D01*
X174260329Y-114257526D01*
X174260327Y-114257524D01*
X174217929Y-114194071D01*
X174154476Y-114151673D01*
X173427803Y-113425000D01*
X176277560Y-113425000D01*
X176277560Y-115175000D01*
X176326843Y-115422765D01*
X176467191Y-115632809D01*
X176677235Y-115773157D01*
X176925000Y-115822440D01*
X178675000Y-115822440D01*
X178922765Y-115773157D01*
X179132809Y-115632809D01*
X179263475Y-115437255D01*
X179302914Y-115476694D01*
X179417546Y-115362062D01*
X179500884Y-115615953D01*
X180065306Y-115821590D01*
X180665458Y-115795579D01*
X181099116Y-115615953D01*
X181182455Y-115362060D01*
X180300000Y-114479605D01*
X180285858Y-114493748D01*
X180106253Y-114314143D01*
X180120395Y-114300000D01*
X180479605Y-114300000D01*
X181362060Y-115182455D01*
X181615953Y-115099116D01*
X181821590Y-114534694D01*
X181795579Y-113934542D01*
X181615953Y-113500884D01*
X181362060Y-113417545D01*
X180479605Y-114300000D01*
X180120395Y-114300000D01*
X180106253Y-114285858D01*
X180285858Y-114106253D01*
X180300000Y-114120395D01*
X181182455Y-113237940D01*
X181099116Y-112984047D01*
X180534694Y-112778410D01*
X179934542Y-112804421D01*
X179500884Y-112984047D01*
X179417546Y-113237938D01*
X179302914Y-113123306D01*
X179263475Y-113162745D01*
X179132809Y-112967191D01*
X178922765Y-112826843D01*
X178675000Y-112777560D01*
X176925000Y-112777560D01*
X176677235Y-112826843D01*
X176467191Y-112967191D01*
X176326843Y-113177235D01*
X176277560Y-113425000D01*
X173427803Y-113425000D01*
X170940000Y-110937199D01*
X170940000Y-109228178D01*
X171250625Y-109020625D01*
X171450000Y-108722239D01*
X171649375Y-109020625D01*
X172140582Y-109348839D01*
X172573744Y-109435000D01*
X172866256Y-109435000D01*
X173299418Y-109348839D01*
X173790625Y-109020625D01*
X173990000Y-108722239D01*
X174189375Y-109020625D01*
X174680582Y-109348839D01*
X175113744Y-109435000D01*
X175406256Y-109435000D01*
X175839418Y-109348839D01*
X176330625Y-109020625D01*
X176543843Y-108701522D01*
X176604817Y-108831358D01*
X177033076Y-109221645D01*
X177443110Y-109391476D01*
X177673000Y-109270155D01*
X177673000Y-108077000D01*
X177653000Y-108077000D01*
X177653000Y-107823000D01*
X177673000Y-107823000D01*
X177673000Y-106629845D01*
X177927000Y-106629845D01*
X177927000Y-107823000D01*
X177947000Y-107823000D01*
X177947000Y-108077000D01*
X177927000Y-108077000D01*
X177927000Y-109270155D01*
X178156890Y-109391476D01*
X178566924Y-109221645D01*
X178871261Y-108944292D01*
X178891843Y-109047765D01*
X179032191Y-109257809D01*
X179242235Y-109398157D01*
X179490000Y-109447440D01*
X181190000Y-109447440D01*
X181437765Y-109398157D01*
X181647809Y-109257809D01*
X181788157Y-109047765D01*
X181837440Y-108800000D01*
X181837440Y-107100000D01*
X181788157Y-106852235D01*
X181647809Y-106642191D01*
X181437765Y-106501843D01*
X181190000Y-106452560D01*
X179490000Y-106452560D01*
X179242235Y-106501843D01*
X179032191Y-106642191D01*
X178891843Y-106852235D01*
X178871261Y-106955708D01*
X178566924Y-106678355D01*
X178156890Y-106508524D01*
X177927000Y-106629845D01*
X177673000Y-106629845D01*
X177443110Y-106508524D01*
X177033076Y-106678355D01*
X176604817Y-107068642D01*
X176543843Y-107198478D01*
X176330625Y-106879375D01*
X175839418Y-106551161D01*
X175406256Y-106465000D01*
X175113744Y-106465000D01*
X174680582Y-106551161D01*
X174189375Y-106879375D01*
X173990000Y-107177761D01*
X173790625Y-106879375D01*
X173299418Y-106551161D01*
X172866256Y-106465000D01*
X172573744Y-106465000D01*
X172140582Y-106551161D01*
X171649375Y-106879375D01*
X171450000Y-107177761D01*
X171250625Y-106879375D01*
X170759418Y-106551161D01*
X170326256Y-106465000D01*
X170033744Y-106465000D01*
X169600582Y-106551161D01*
X169109375Y-106879375D01*
X168910000Y-107177761D01*
X168710625Y-106879375D01*
X168219418Y-106551161D01*
X167786256Y-106465000D01*
X167493744Y-106465000D01*
X167060582Y-106551161D01*
X166569375Y-106879375D01*
X166370000Y-107177761D01*
X166170625Y-106879375D01*
X165679418Y-106551161D01*
X165246256Y-106465000D01*
X164953744Y-106465000D01*
X164520582Y-106551161D01*
X164029375Y-106879375D01*
X163830000Y-107177761D01*
X163630625Y-106879375D01*
X163139418Y-106551161D01*
X162706256Y-106465000D01*
X162413744Y-106465000D01*
X161980582Y-106551161D01*
X161489375Y-106879375D01*
X161290000Y-107177761D01*
X161090625Y-106879375D01*
X160599418Y-106551161D01*
X160166256Y-106465000D01*
X159873744Y-106465000D01*
X159440582Y-106551161D01*
X158949375Y-106879375D01*
X158750000Y-107177761D01*
X158550625Y-106879375D01*
X158059418Y-106551161D01*
X157626256Y-106465000D01*
X157333744Y-106465000D01*
X156900582Y-106551161D01*
X156409375Y-106879375D01*
X156210000Y-107177761D01*
X156010625Y-106879375D01*
X155519418Y-106551161D01*
X155086256Y-106465000D01*
X154793744Y-106465000D01*
X154360582Y-106551161D01*
X153869375Y-106879375D01*
X153670000Y-107177761D01*
X153470625Y-106879375D01*
X152979418Y-106551161D01*
X152546256Y-106465000D01*
X152419801Y-106465000D01*
X161069370Y-97815431D01*
X176977000Y-97815431D01*
X176977000Y-98704569D01*
X177317259Y-99526026D01*
X177945974Y-100154741D01*
X178767431Y-100495000D01*
X179656569Y-100495000D01*
X180478026Y-100154741D01*
X181106741Y-99526026D01*
X181447000Y-98704569D01*
X181447000Y-97815431D01*
X181106741Y-96993974D01*
X180478026Y-96365259D01*
X179656569Y-96025000D01*
X178767431Y-96025000D01*
X177945974Y-96365259D01*
X177317259Y-96993974D01*
X176977000Y-97815431D01*
X161069370Y-97815431D01*
X164733593Y-94151209D01*
X164953744Y-94195000D01*
X165246256Y-94195000D01*
X165679418Y-94108839D01*
X166170625Y-93780625D01*
X166370000Y-93482239D01*
X166569375Y-93780625D01*
X167060582Y-94108839D01*
X167493744Y-94195000D01*
X167786256Y-94195000D01*
X168219418Y-94108839D01*
X168710625Y-93780625D01*
X168910000Y-93482239D01*
X169109375Y-93780625D01*
X169600582Y-94108839D01*
X170033744Y-94195000D01*
X170326256Y-94195000D01*
X170759418Y-94108839D01*
X171250625Y-93780625D01*
X171463843Y-93461522D01*
X171524817Y-93591358D01*
X171953076Y-93981645D01*
X172363110Y-94151476D01*
X172593000Y-94030155D01*
X172593000Y-92837000D01*
X172847000Y-92837000D01*
X172847000Y-94030155D01*
X173076890Y-94151476D01*
X173486924Y-93981645D01*
X173915183Y-93591358D01*
X173990000Y-93432046D01*
X174064817Y-93591358D01*
X174493076Y-93981645D01*
X174903110Y-94151476D01*
X175133000Y-94030155D01*
X175133000Y-92837000D01*
X172847000Y-92837000D01*
X172593000Y-92837000D01*
X172573000Y-92837000D01*
X172573000Y-92583000D01*
X172593000Y-92583000D01*
X172593000Y-91389845D01*
X172363110Y-91268524D01*
X171953076Y-91438355D01*
X171524817Y-91828642D01*
X171463843Y-91958478D01*
X171250625Y-91639375D01*
X170759418Y-91311161D01*
X170326256Y-91225000D01*
X170033744Y-91225000D01*
X169813593Y-91268791D01*
X168574782Y-90029981D01*
X174045180Y-90029981D01*
X175240198Y-91225000D01*
X175132998Y-91225000D01*
X175132998Y-91389844D01*
X174903110Y-91268524D01*
X174493076Y-91438355D01*
X174064817Y-91828642D01*
X173990000Y-91987954D01*
X173915183Y-91828642D01*
X173486924Y-91438355D01*
X173076890Y-91268524D01*
X172847000Y-91389845D01*
X172847000Y-92583000D01*
X175133000Y-92583000D01*
X175133000Y-92563000D01*
X175387000Y-92563000D01*
X175387000Y-92583000D01*
X175407000Y-92583000D01*
X175407000Y-92837000D01*
X175387000Y-92837000D01*
X175387000Y-94030155D01*
X175616890Y-94151476D01*
X176026924Y-93981645D01*
X176455183Y-93591358D01*
X176516157Y-93461522D01*
X176729375Y-93780625D01*
X177220582Y-94108839D01*
X177653744Y-94195000D01*
X177946256Y-94195000D01*
X178379418Y-94108839D01*
X178870625Y-93780625D01*
X178882816Y-93762381D01*
X178891843Y-93807765D01*
X179032191Y-94017809D01*
X179242235Y-94158157D01*
X179490000Y-94207440D01*
X181190000Y-94207440D01*
X181437765Y-94158157D01*
X181647809Y-94017809D01*
X181788157Y-93807765D01*
X181837440Y-93560000D01*
X181837440Y-91860000D01*
X181788157Y-91612235D01*
X181647809Y-91402191D01*
X181437765Y-91261843D01*
X181190000Y-91212560D01*
X179490000Y-91212560D01*
X179242235Y-91261843D01*
X179032191Y-91402191D01*
X178891843Y-91612235D01*
X178882816Y-91657619D01*
X178870625Y-91639375D01*
X178379418Y-91311161D01*
X177946256Y-91225000D01*
X177653744Y-91225000D01*
X177433593Y-91268791D01*
X174950312Y-88785511D01*
X174907910Y-88722052D01*
X174656518Y-88554077D01*
X174434833Y-88509981D01*
X174434828Y-88509981D01*
X174359981Y-88495093D01*
X174285134Y-88509981D01*
X122329182Y-88509981D01*
X122254334Y-88495093D01*
X122179486Y-88509981D01*
X122179482Y-88509981D01*
X121957797Y-88554077D01*
X121706405Y-88722052D01*
X121664005Y-88785508D01*
X117995508Y-92454006D01*
X117932052Y-92496406D01*
X117889652Y-92559862D01*
X117889651Y-92559863D01*
X117764077Y-92747798D01*
X117705092Y-93044335D01*
X117719981Y-93119187D01*
X117719980Y-95835218D01*
X116525199Y-97030000D01*
X115003711Y-97030000D01*
X114886280Y-96912569D01*
X114505874Y-96755000D01*
X114094126Y-96755000D01*
X113713720Y-96912569D01*
X113422569Y-97203720D01*
X113265000Y-97584126D01*
X113265000Y-97995874D01*
X113422569Y-98376280D01*
X113713720Y-98667431D01*
X114094126Y-98825000D01*
X114505874Y-98825000D01*
X114886280Y-98667431D01*
X115003711Y-98550000D01*
X116765153Y-98550000D01*
X116840000Y-98564888D01*
X116914847Y-98550000D01*
X116914852Y-98550000D01*
X117136537Y-98505904D01*
X117387929Y-98337929D01*
X117430331Y-98274470D01*
X118169990Y-97534811D01*
X118169990Y-99195207D01*
X115255199Y-102110000D01*
X115003711Y-102110000D01*
X114886280Y-101992569D01*
X114505874Y-101835000D01*
X114094126Y-101835000D01*
X113713720Y-101992569D01*
X113422569Y-102283720D01*
X113265000Y-102664126D01*
X113265000Y-103075874D01*
X113422569Y-103456280D01*
X113713720Y-103747431D01*
X114094126Y-103905000D01*
X114505874Y-103905000D01*
X114886280Y-103747431D01*
X115003711Y-103630000D01*
X115495153Y-103630000D01*
X115570000Y-103644888D01*
X115644847Y-103630000D01*
X115644852Y-103630000D01*
X115866537Y-103585904D01*
X116117929Y-103417929D01*
X116160331Y-103354470D01*
X118620000Y-100894802D01*
X118620000Y-103825198D01*
X115255199Y-107190000D01*
X115003711Y-107190000D01*
X114886280Y-107072569D01*
X114505874Y-106915000D01*
X114094126Y-106915000D01*
X113713720Y-107072569D01*
X113665000Y-107121289D01*
X113616280Y-107072569D01*
X113235874Y-106915000D01*
X112824126Y-106915000D01*
X112443720Y-107072569D01*
X112152569Y-107363720D01*
X112084981Y-107526892D01*
X112084981Y-103333159D01*
X112311260Y-103239431D01*
X112602411Y-102948280D01*
X112759980Y-102567874D01*
X112759980Y-102156126D01*
X112602411Y-101775720D01*
X112311260Y-101484569D01*
X112044661Y-101374140D01*
X112214473Y-101204329D01*
X112277929Y-101161929D01*
X112445904Y-100910537D01*
X112490000Y-100688852D01*
X112490000Y-100688848D01*
X112504888Y-100614000D01*
X112490000Y-100539152D01*
X112490000Y-97223711D01*
X112607431Y-97106280D01*
X112765000Y-96725874D01*
X112765000Y-96314126D01*
X112607431Y-95933720D01*
X112316280Y-95642569D01*
X111935874Y-95485000D01*
X111524126Y-95485000D01*
X111143720Y-95642569D01*
X110852569Y-95933720D01*
X110695000Y-96314126D01*
X110695000Y-96725874D01*
X110852569Y-97106280D01*
X110970001Y-97223712D01*
X110970000Y-100299198D01*
X110390499Y-100878700D01*
X110327043Y-100921100D01*
X110284643Y-100984556D01*
X110284642Y-100984557D01*
X110159068Y-101172492D01*
X110100083Y-101469029D01*
X110114972Y-101543881D01*
X110114971Y-123246124D01*
X110100083Y-123320971D01*
X110114971Y-123395818D01*
X110114971Y-123395822D01*
X110159067Y-123617507D01*
X110327042Y-123868900D01*
X110390501Y-123911302D01*
X111254001Y-124774803D01*
X111254000Y-132926198D01*
X108735528Y-135444671D01*
X108672072Y-135487071D01*
X108629672Y-135550527D01*
X108629671Y-135550528D01*
X108571518Y-135637560D01*
X108345000Y-135637560D01*
X108097235Y-135686843D01*
X107887191Y-135827191D01*
X107746843Y-136037235D01*
X107697560Y-136285000D01*
X103580000Y-136285000D01*
X103580000Y-128815431D01*
X105677000Y-128815431D01*
X105677000Y-129704569D01*
X106017259Y-130526026D01*
X106645974Y-131154741D01*
X107467431Y-131495000D01*
X108356569Y-131495000D01*
X109178026Y-131154741D01*
X109806741Y-130526026D01*
X110147000Y-129704569D01*
X110147000Y-128815431D01*
X109806741Y-127993974D01*
X109178026Y-127365259D01*
X108356569Y-127025000D01*
X107467431Y-127025000D01*
X106645974Y-127365259D01*
X106017259Y-127993974D01*
X105677000Y-128815431D01*
X103580000Y-128815431D01*
X103580000Y-97815431D01*
X105677000Y-97815431D01*
X105677000Y-98704569D01*
X106017259Y-99526026D01*
X106645974Y-100154741D01*
X107467431Y-100495000D01*
X108356569Y-100495000D01*
X109178026Y-100154741D01*
X109806741Y-99526026D01*
X110147000Y-98704569D01*
X110147000Y-97815431D01*
X109806741Y-96993974D01*
X109178026Y-96365259D01*
X108356569Y-96025000D01*
X107467431Y-96025000D01*
X106645974Y-96365259D01*
X106017259Y-96993974D01*
X105677000Y-97815431D01*
X103580000Y-97815431D01*
X103580000Y-88340000D01*
X183440000Y-88340000D01*
X183440001Y-141530000D01*
X183440001Y-141530000D01*
G37*
X183440001Y-141530000D02*
X103580000Y-141530000D01*
X103580000Y-136285000D01*
X107697560Y-136285000D01*
X107697560Y-138035000D01*
X107746843Y-138282765D01*
X107887191Y-138492809D01*
X108097235Y-138633157D01*
X108345000Y-138682440D01*
X110095000Y-138682440D01*
X110342765Y-138633157D01*
X110552809Y-138492809D01*
X110693157Y-138282765D01*
X110695504Y-138270966D01*
X110864654Y-138440116D01*
X111419642Y-138670000D01*
X112020358Y-138670000D01*
X112575346Y-138440116D01*
X112970000Y-138045462D01*
X113364654Y-138440116D01*
X113919642Y-138670000D01*
X114520358Y-138670000D01*
X115075346Y-138440116D01*
X115293402Y-138222060D01*
X115837545Y-138222060D01*
X115920884Y-138475953D01*
X116485306Y-138681590D01*
X117085458Y-138655579D01*
X117519116Y-138475953D01*
X117602455Y-138222060D01*
X116720000Y-137339605D01*
X115837545Y-138222060D01*
X115293402Y-138222060D01*
X115500116Y-138015346D01*
X115509121Y-137993606D01*
X115657940Y-138042455D01*
X116540395Y-137160000D01*
X116899605Y-137160000D01*
X117782060Y-138042455D01*
X118035953Y-137959116D01*
X118241590Y-137394694D01*
X118215579Y-136794542D01*
X118035953Y-136360884D01*
X117782060Y-136277545D01*
X116899605Y-137160000D01*
X116540395Y-137160000D01*
X115657940Y-136277545D01*
X115509121Y-136326394D01*
X115500116Y-136304654D01*
X115293402Y-136097940D01*
X115837545Y-136097940D01*
X116720000Y-136980395D01*
X117602455Y-136097940D01*
X117519116Y-135844047D01*
X116954694Y-135638410D01*
X116354542Y-135664421D01*
X115920884Y-135844047D01*
X115837545Y-136097940D01*
X115293402Y-136097940D01*
X115075346Y-135879884D01*
X114520358Y-135650000D01*
X113919642Y-135650000D01*
X113364654Y-135879884D01*
X112970000Y-136274538D01*
X112575346Y-135879884D01*
X112020358Y-135650000D01*
X111419642Y-135650000D01*
X110864654Y-135879884D01*
X110695504Y-136049034D01*
X110693157Y-136037235D01*
X110552809Y-135827191D01*
X110522717Y-135807084D01*
X112498473Y-133831329D01*
X112561929Y-133788929D01*
X112604924Y-133724582D01*
X112729904Y-133537538D01*
X112739480Y-133489395D01*
X112774000Y-133315852D01*
X112774000Y-133315848D01*
X112788888Y-133241000D01*
X112774000Y-133166152D01*
X112774000Y-124770802D01*
X114490000Y-126486802D01*
X114490001Y-128582288D01*
X114372569Y-128699720D01*
X114215000Y-129080126D01*
X114215000Y-129491874D01*
X114372569Y-129872280D01*
X114663720Y-130163431D01*
X115044126Y-130321000D01*
X115455874Y-130321000D01*
X115836280Y-130163431D01*
X116127431Y-129872280D01*
X116285000Y-129491874D01*
X116285000Y-129080126D01*
X116127431Y-128699720D01*
X116010000Y-128582289D01*
X116010000Y-126246846D01*
X116024888Y-126171999D01*
X116010000Y-126097152D01*
X116010000Y-126097148D01*
X115987183Y-125982440D01*
X117675000Y-125982440D01*
X117922765Y-125933157D01*
X118132809Y-125792809D01*
X118273157Y-125582765D01*
X118275504Y-125570966D01*
X118444654Y-125740116D01*
X118999642Y-125970000D01*
X119600358Y-125970000D01*
X120155346Y-125740116D01*
X120550000Y-125345462D01*
X120944654Y-125740116D01*
X121499642Y-125970000D01*
X122100358Y-125970000D01*
X122655346Y-125740116D01*
X122873402Y-125522060D01*
X123417545Y-125522060D01*
X123500884Y-125775953D01*
X124065306Y-125981590D01*
X124665458Y-125955579D01*
X125099116Y-125775953D01*
X125182455Y-125522060D01*
X124300000Y-124639605D01*
X123417545Y-125522060D01*
X122873402Y-125522060D01*
X123080116Y-125315346D01*
X123089121Y-125293606D01*
X123237940Y-125342455D01*
X124120395Y-124460000D01*
X124479605Y-124460000D01*
X125362060Y-125342455D01*
X125615953Y-125259116D01*
X125821590Y-124694694D01*
X125795579Y-124094542D01*
X125615953Y-123660884D01*
X125362060Y-123577545D01*
X124479605Y-124460000D01*
X124120395Y-124460000D01*
X123237940Y-123577545D01*
X123089121Y-123626394D01*
X123080116Y-123604654D01*
X122873402Y-123397940D01*
X123417545Y-123397940D01*
X124300000Y-124280395D01*
X125182455Y-123397940D01*
X125099116Y-123144047D01*
X124534694Y-122938410D01*
X123934542Y-122964421D01*
X123500884Y-123144047D01*
X123417545Y-123397940D01*
X122873402Y-123397940D01*
X122655346Y-123179884D01*
X122100358Y-122950000D01*
X121499642Y-122950000D01*
X120944654Y-123179884D01*
X120550000Y-123574538D01*
X120155346Y-123179884D01*
X119600358Y-122950000D01*
X118999642Y-122950000D01*
X118444654Y-123179884D01*
X118275504Y-123349034D01*
X118273157Y-123337235D01*
X118132809Y-123127191D01*
X117922765Y-122986843D01*
X117675000Y-122937560D01*
X115925000Y-122937560D01*
X115677235Y-122986843D01*
X115467191Y-123127191D01*
X115326843Y-123337235D01*
X115277560Y-123585000D01*
X115277560Y-123700000D01*
X115122802Y-123700000D01*
X112774000Y-121351199D01*
X112774000Y-109280801D01*
X113069802Y-108985000D01*
X113235874Y-108985000D01*
X113616280Y-108827431D01*
X113665000Y-108778711D01*
X113713720Y-108827431D01*
X114094126Y-108985000D01*
X114505874Y-108985000D01*
X114886280Y-108827431D01*
X115003711Y-108710000D01*
X115495153Y-108710000D01*
X115570000Y-108724888D01*
X115644847Y-108710000D01*
X115644852Y-108710000D01*
X115866537Y-108665904D01*
X116117929Y-108497929D01*
X116160331Y-108434470D01*
X119864473Y-104730329D01*
X119927929Y-104687929D01*
X119970924Y-104623582D01*
X120095904Y-104436538D01*
X120105480Y-104388395D01*
X120140000Y-104214852D01*
X120140000Y-104214848D01*
X120154888Y-104140000D01*
X120140000Y-104065152D01*
X120140000Y-96915000D01*
X121667560Y-96915000D01*
X121667560Y-98665000D01*
X121716843Y-98912765D01*
X121857191Y-99122809D01*
X122067235Y-99263157D01*
X122315000Y-99312440D01*
X124065000Y-99312440D01*
X124312765Y-99263157D01*
X124522809Y-99122809D01*
X124663157Y-98912765D01*
X124665504Y-98900966D01*
X124834654Y-99070116D01*
X125389642Y-99300000D01*
X125990358Y-99300000D01*
X126545346Y-99070116D01*
X126940000Y-98675462D01*
X127305000Y-99040462D01*
X127305001Y-106699537D01*
X126940000Y-107064538D01*
X126545346Y-106669884D01*
X125990358Y-106440000D01*
X125389642Y-106440000D01*
X124834654Y-106669884D01*
X124665504Y-106839034D01*
X124663157Y-106827235D01*
X124522809Y-106617191D01*
X124312765Y-106476843D01*
X124065000Y-106427560D01*
X122315000Y-106427560D01*
X122067235Y-106476843D01*
X121857191Y-106617191D01*
X121716843Y-106827235D01*
X121667560Y-107075000D01*
X121667560Y-108825000D01*
X121716843Y-109072765D01*
X121857191Y-109282809D01*
X122067235Y-109423157D01*
X122315000Y-109472440D01*
X124065000Y-109472440D01*
X124312765Y-109423157D01*
X124522809Y-109282809D01*
X124663157Y-109072765D01*
X124665504Y-109060966D01*
X124834654Y-109230116D01*
X125389642Y-109460000D01*
X125990358Y-109460000D01*
X126545346Y-109230116D01*
X126940000Y-108835462D01*
X127334654Y-109230116D01*
X127889642Y-109460000D01*
X128490358Y-109460000D01*
X129045346Y-109230116D01*
X129263402Y-109012060D01*
X129807545Y-109012060D01*
X129890884Y-109265953D01*
X130455306Y-109471590D01*
X131055458Y-109445579D01*
X131489116Y-109265953D01*
X131572455Y-109012060D01*
X130690000Y-108129605D01*
X129807545Y-109012060D01*
X129263402Y-109012060D01*
X129470116Y-108805346D01*
X129479121Y-108783606D01*
X129627940Y-108832455D01*
X130510395Y-107950000D01*
X130869605Y-107950000D01*
X131752060Y-108832455D01*
X132005953Y-108749116D01*
X132211590Y-108184694D01*
X132185579Y-107584542D01*
X132005953Y-107150884D01*
X131752060Y-107067545D01*
X130869605Y-107950000D01*
X130510395Y-107950000D01*
X129627940Y-107067545D01*
X129479121Y-107116394D01*
X129470116Y-107094654D01*
X129263402Y-106887940D01*
X129807545Y-106887940D01*
X130690000Y-107770395D01*
X131572455Y-106887940D01*
X131489116Y-106634047D01*
X130924694Y-106428410D01*
X130324542Y-106454421D01*
X129890884Y-106634047D01*
X129807545Y-106887940D01*
X129263402Y-106887940D01*
X129075000Y-106699538D01*
X129075000Y-99040462D01*
X129263402Y-98852060D01*
X129807545Y-98852060D01*
X129890884Y-99105953D01*
X130455306Y-99311590D01*
X131055458Y-99285579D01*
X131489116Y-99105953D01*
X131572455Y-98852060D01*
X130690000Y-97969605D01*
X129807545Y-98852060D01*
X129263402Y-98852060D01*
X129470116Y-98645346D01*
X129479121Y-98623606D01*
X129627940Y-98672455D01*
X130510395Y-97790000D01*
X130869605Y-97790000D01*
X131752060Y-98672455D01*
X132005953Y-98589116D01*
X132211590Y-98024694D01*
X132185579Y-97424542D01*
X132005953Y-96990884D01*
X131752060Y-96907545D01*
X130869605Y-97790000D01*
X130510395Y-97790000D01*
X129627940Y-96907545D01*
X129479121Y-96956394D01*
X129470116Y-96934654D01*
X129263402Y-96727940D01*
X129807545Y-96727940D01*
X130690000Y-97610395D01*
X131572455Y-96727940D01*
X131489116Y-96474047D01*
X130924694Y-96268410D01*
X130324542Y-96294421D01*
X129890884Y-96474047D01*
X129807545Y-96727940D01*
X129263402Y-96727940D01*
X129045346Y-96509884D01*
X128490358Y-96280000D01*
X127889642Y-96280000D01*
X127334654Y-96509884D01*
X126940000Y-96904538D01*
X126545346Y-96509884D01*
X125990358Y-96280000D01*
X125389642Y-96280000D01*
X124834654Y-96509884D01*
X124665504Y-96679034D01*
X124663157Y-96667235D01*
X124522809Y-96457191D01*
X124312765Y-96316843D01*
X124065000Y-96267560D01*
X122315000Y-96267560D01*
X122067235Y-96316843D01*
X121857191Y-96457191D01*
X121716843Y-96667235D01*
X121667560Y-96915000D01*
X120140000Y-96915000D01*
X120140000Y-94294801D01*
X123504802Y-90930000D01*
X166055199Y-90930000D01*
X166686388Y-91561190D01*
X166569375Y-91639375D01*
X166370000Y-91937761D01*
X166170625Y-91639375D01*
X165679418Y-91311161D01*
X165246256Y-91225000D01*
X164953744Y-91225000D01*
X164520582Y-91311161D01*
X164029375Y-91639375D01*
X163830000Y-91937761D01*
X163630625Y-91639375D01*
X163139418Y-91311161D01*
X162706256Y-91225000D01*
X162413744Y-91225000D01*
X161980582Y-91311161D01*
X161489375Y-91639375D01*
X161290000Y-91937761D01*
X161090625Y-91639375D01*
X160599418Y-91311161D01*
X160166256Y-91225000D01*
X159873744Y-91225000D01*
X159440582Y-91311161D01*
X158949375Y-91639375D01*
X158750000Y-91937761D01*
X158550625Y-91639375D01*
X158059418Y-91311161D01*
X157626256Y-91225000D01*
X157333744Y-91225000D01*
X156900582Y-91311161D01*
X156409375Y-91639375D01*
X156210000Y-91937761D01*
X156010625Y-91639375D01*
X155519418Y-91311161D01*
X155086256Y-91225000D01*
X154793744Y-91225000D01*
X154360582Y-91311161D01*
X153869375Y-91639375D01*
X153670000Y-91937761D01*
X153470625Y-91639375D01*
X152979418Y-91311161D01*
X152546256Y-91225000D01*
X152253744Y-91225000D01*
X151820582Y-91311161D01*
X151329375Y-91639375D01*
X151001161Y-92130582D01*
X150885908Y-92710000D01*
X150958791Y-93076407D01*
X127015518Y-117019681D01*
X126952062Y-117062081D01*
X126909662Y-117125537D01*
X126909661Y-117125538D01*
X126784087Y-117313473D01*
X126725102Y-117610010D01*
X126739991Y-117684862D01*
X126739990Y-126185208D01*
X123975528Y-128949671D01*
X123912072Y-128992071D01*
X123869672Y-129055527D01*
X123869671Y-129055528D01*
X123744097Y-129243463D01*
X123685112Y-129540000D01*
X123700001Y-129614852D01*
X123700000Y-135637560D01*
X123585000Y-135637560D01*
X123337235Y-135686843D01*
X123127191Y-135827191D01*
X122986843Y-136037235D01*
X122937560Y-136285000D01*
X122937560Y-138035000D01*
X122986843Y-138282765D01*
X123127191Y-138492809D01*
X123337235Y-138633157D01*
X123585000Y-138682440D01*
X125335000Y-138682440D01*
X125582765Y-138633157D01*
X125792809Y-138492809D01*
X125933157Y-138282765D01*
X125935504Y-138270966D01*
X126104654Y-138440116D01*
X126659642Y-138670000D01*
X127260358Y-138670000D01*
X127815346Y-138440116D01*
X128210000Y-138045462D01*
X128604654Y-138440116D01*
X129159642Y-138670000D01*
X129760358Y-138670000D01*
X130315346Y-138440116D01*
X130533402Y-138222060D01*
X131077545Y-138222060D01*
X131160884Y-138475953D01*
X131725306Y-138681590D01*
X132325458Y-138655579D01*
X132759116Y-138475953D01*
X132842455Y-138222060D01*
X131960000Y-137339605D01*
X131077545Y-138222060D01*
X130533402Y-138222060D01*
X130740116Y-138015346D01*
X130749121Y-137993606D01*
X130897940Y-138042455D01*
X131780395Y-137160000D01*
X132139605Y-137160000D01*
X133022060Y-138042455D01*
X133275953Y-137959116D01*
X133481590Y-137394694D01*
X133455579Y-136794542D01*
X133275953Y-136360884D01*
X133022060Y-136277545D01*
X132139605Y-137160000D01*
X131780395Y-137160000D01*
X130897940Y-136277545D01*
X130749121Y-136326394D01*
X130740116Y-136304654D01*
X130533402Y-136097940D01*
X131077545Y-136097940D01*
X131960000Y-136980395D01*
X132842455Y-136097940D01*
X132759116Y-135844047D01*
X132194694Y-135638410D01*
X131594542Y-135664421D01*
X131160884Y-135844047D01*
X131077545Y-136097940D01*
X130533402Y-136097940D01*
X130315346Y-135879884D01*
X129760358Y-135650000D01*
X129159642Y-135650000D01*
X128604654Y-135879884D01*
X128210000Y-136274538D01*
X127815346Y-135879884D01*
X127260358Y-135650000D01*
X126659642Y-135650000D01*
X126104654Y-135879884D01*
X125935504Y-136049034D01*
X125933157Y-136037235D01*
X125792809Y-135827191D01*
X125582765Y-135686843D01*
X125335000Y-135637560D01*
X125220000Y-135637560D01*
X125220000Y-129854801D01*
X127589999Y-127484803D01*
X127589999Y-128568841D01*
X127363720Y-128662569D01*
X127072569Y-128953720D01*
X126915000Y-129334126D01*
X126915000Y-129745874D01*
X127072569Y-130126280D01*
X127363720Y-130417431D01*
X127744126Y-130575000D01*
X128155874Y-130575000D01*
X128536280Y-130417431D01*
X128827431Y-130126280D01*
X128985000Y-129745874D01*
X128985000Y-129557618D01*
X129065903Y-129436538D01*
X129109999Y-129214853D01*
X129109999Y-129214849D01*
X129124887Y-129140002D01*
X129109999Y-129065155D01*
X129109999Y-119614802D01*
X154573593Y-94151209D01*
X154793744Y-94195000D01*
X154920197Y-94195000D01*
X131595530Y-117519669D01*
X131532071Y-117562071D01*
X131364096Y-117813464D01*
X131320000Y-118035149D01*
X131320000Y-118035153D01*
X131305112Y-118110000D01*
X131320000Y-118184847D01*
X131320001Y-122937560D01*
X131205000Y-122937560D01*
X130957235Y-122986843D01*
X130747191Y-123127191D01*
X130606843Y-123337235D01*
X130557560Y-123585000D01*
X130557560Y-125335000D01*
X130606843Y-125582765D01*
X130747191Y-125792809D01*
X130957235Y-125933157D01*
X131205000Y-125982440D01*
X132955000Y-125982440D01*
X133202765Y-125933157D01*
X133412809Y-125792809D01*
X133553157Y-125582765D01*
X133555504Y-125570966D01*
X133724654Y-125740116D01*
X134279642Y-125970000D01*
X134880358Y-125970000D01*
X135435346Y-125740116D01*
X135830000Y-125345462D01*
X136224654Y-125740116D01*
X136779642Y-125970000D01*
X137380358Y-125970000D01*
X137935346Y-125740116D01*
X138153402Y-125522060D01*
X138697545Y-125522060D01*
X138780884Y-125775953D01*
X139345306Y-125981590D01*
X139945458Y-125955579D01*
X140379116Y-125775953D01*
X140462455Y-125522060D01*
X139580000Y-124639605D01*
X138697545Y-125522060D01*
X138153402Y-125522060D01*
X138360116Y-125315346D01*
X138369121Y-125293606D01*
X138517940Y-125342455D01*
X139400395Y-124460000D01*
X139759605Y-124460000D01*
X140642060Y-125342455D01*
X140895953Y-125259116D01*
X141101590Y-124694694D01*
X141075579Y-124094542D01*
X140895953Y-123660884D01*
X140642060Y-123577545D01*
X139759605Y-124460000D01*
X139400395Y-124460000D01*
X138517940Y-123577545D01*
X138369121Y-123626394D01*
X138360116Y-123604654D01*
X138153402Y-123397940D01*
X138697545Y-123397940D01*
X139580000Y-124280395D01*
X140462455Y-123397940D01*
X140379116Y-123144047D01*
X139814694Y-122938410D01*
X139214542Y-122964421D01*
X138780884Y-123144047D01*
X138697545Y-123397940D01*
X138153402Y-123397940D01*
X137935346Y-123179884D01*
X137380358Y-122950000D01*
X136779642Y-122950000D01*
X136224654Y-123179884D01*
X135830000Y-123574538D01*
X135435346Y-123179884D01*
X134880358Y-122950000D01*
X134279642Y-122950000D01*
X133724654Y-123179884D01*
X133555504Y-123349034D01*
X133553157Y-123337235D01*
X133412809Y-123127191D01*
X133202765Y-122986843D01*
X132955000Y-122937560D01*
X132840000Y-122937560D01*
X132840000Y-118424801D01*
X157113593Y-94151209D01*
X157333744Y-94195000D01*
X157460197Y-94195000D01*
X136767528Y-114887671D01*
X136704072Y-114930071D01*
X136661672Y-114993527D01*
X136661671Y-114993528D01*
X136536097Y-115181463D01*
X136477112Y-115478000D01*
X136492001Y-115552852D01*
X136492000Y-116644289D01*
X136374569Y-116761720D01*
X136217000Y-117142126D01*
X136217000Y-117553874D01*
X136374569Y-117934280D01*
X136665720Y-118225431D01*
X137046126Y-118383000D01*
X137457874Y-118383000D01*
X137838280Y-118225431D01*
X138129431Y-117934280D01*
X138287000Y-117553874D01*
X138287000Y-117142126D01*
X138129431Y-116761720D01*
X138012000Y-116644289D01*
X138012000Y-115792801D01*
X159653593Y-94151209D01*
X159873744Y-94195000D01*
X160000198Y-94195000D01*
X142255520Y-111939679D01*
X142192061Y-111982081D01*
X142024086Y-112233474D01*
X141979990Y-112455159D01*
X141979990Y-112455163D01*
X141965102Y-112530010D01*
X141979990Y-112604857D01*
X141979991Y-126693207D01*
X139215530Y-129457669D01*
X139152071Y-129500071D01*
X138984096Y-129751464D01*
X138940000Y-129973149D01*
X138940000Y-129973153D01*
X138925112Y-130048000D01*
X138940000Y-130122847D01*
X138940001Y-135637560D01*
X138825000Y-135637560D01*
X138577235Y-135686843D01*
X138367191Y-135827191D01*
X138226843Y-136037235D01*
X138177560Y-136285000D01*
X138177560Y-138035000D01*
X138226843Y-138282765D01*
X138367191Y-138492809D01*
X138577235Y-138633157D01*
X138825000Y-138682440D01*
X140575000Y-138682440D01*
X140822765Y-138633157D01*
X141032809Y-138492809D01*
X141173157Y-138282765D01*
X141175504Y-138270966D01*
X141344654Y-138440116D01*
X141899642Y-138670000D01*
X142500358Y-138670000D01*
X143055346Y-138440116D01*
X143450000Y-138045462D01*
X143844654Y-138440116D01*
X144399642Y-138670000D01*
X145000358Y-138670000D01*
X145555346Y-138440116D01*
X145773402Y-138222060D01*
X146317545Y-138222060D01*
X146400884Y-138475953D01*
X146965306Y-138681590D01*
X147565458Y-138655579D01*
X147999116Y-138475953D01*
X148082455Y-138222060D01*
X147200000Y-137339605D01*
X146317545Y-138222060D01*
X145773402Y-138222060D01*
X145980116Y-138015346D01*
X145989121Y-137993606D01*
X146137940Y-138042455D01*
X147020395Y-137160000D01*
X147379605Y-137160000D01*
X148262060Y-138042455D01*
X148515953Y-137959116D01*
X148721590Y-137394694D01*
X148695579Y-136794542D01*
X148515953Y-136360884D01*
X148262060Y-136277545D01*
X147379605Y-137160000D01*
X147020395Y-137160000D01*
X146137940Y-136277545D01*
X145989121Y-136326394D01*
X145980116Y-136304654D01*
X145773402Y-136097940D01*
X146317545Y-136097940D01*
X147200000Y-136980395D01*
X148082455Y-136097940D01*
X147999116Y-135844047D01*
X147434694Y-135638410D01*
X146834542Y-135664421D01*
X146400884Y-135844047D01*
X146317545Y-136097940D01*
X145773402Y-136097940D01*
X145555346Y-135879884D01*
X145000358Y-135650000D01*
X144399642Y-135650000D01*
X143844654Y-135879884D01*
X143450000Y-136274538D01*
X143055346Y-135879884D01*
X142500358Y-135650000D01*
X141899642Y-135650000D01*
X141344654Y-135879884D01*
X141175504Y-136049034D01*
X141173157Y-136037235D01*
X141032809Y-135827191D01*
X140822765Y-135686843D01*
X140575000Y-135637560D01*
X140460000Y-135637560D01*
X140460000Y-130362801D01*
X142430000Y-128392802D01*
X142430000Y-128582289D01*
X142312569Y-128699720D01*
X142155000Y-129080126D01*
X142155000Y-129491874D01*
X142312569Y-129872280D01*
X142603720Y-130163431D01*
X142984126Y-130321000D01*
X143395874Y-130321000D01*
X143776280Y-130163431D01*
X144067431Y-129872280D01*
X144225000Y-129491874D01*
X144225000Y-129080126D01*
X144067431Y-128699720D01*
X143950000Y-128582289D01*
X143950000Y-114934801D01*
X150894020Y-107990781D01*
X151001161Y-108529418D01*
X151329375Y-109020625D01*
X151405673Y-109071606D01*
X146835530Y-113641750D01*
X146772071Y-113684152D01*
X146604096Y-113935545D01*
X146560000Y-114157230D01*
X146560000Y-114157234D01*
X146545112Y-114232081D01*
X146560000Y-114306928D01*
X146560001Y-122937560D01*
X146445000Y-122937560D01*
X146197235Y-122986843D01*
X145987191Y-123127191D01*
X145846843Y-123337235D01*
X145797560Y-123585000D01*
X145797560Y-125335000D01*
X145846843Y-125582765D01*
X145987191Y-125792809D01*
X146197235Y-125933157D01*
X146445000Y-125982440D01*
X148195000Y-125982440D01*
X148442765Y-125933157D01*
X148652809Y-125792809D01*
X148793157Y-125582765D01*
X148795504Y-125570966D01*
X148964654Y-125740116D01*
X149519642Y-125970000D01*
X150120358Y-125970000D01*
X150675346Y-125740116D01*
X151070000Y-125345462D01*
X151464654Y-125740116D01*
X152019642Y-125970000D01*
X152620358Y-125970000D01*
X153175346Y-125740116D01*
X153393402Y-125522060D01*
X153937545Y-125522060D01*
X154020884Y-125775953D01*
X154585306Y-125981590D01*
X155185458Y-125955579D01*
X155619116Y-125775953D01*
X155702455Y-125522060D01*
X154820000Y-124639605D01*
X153937545Y-125522060D01*
X153393402Y-125522060D01*
X153600116Y-125315346D01*
X153609121Y-125293606D01*
X153757940Y-125342455D01*
X154640395Y-124460000D01*
X154999605Y-124460000D01*
X155882060Y-125342455D01*
X156135953Y-125259116D01*
X156341590Y-124694694D01*
X156315579Y-124094542D01*
X156135953Y-123660884D01*
X155882060Y-123577545D01*
X154999605Y-124460000D01*
X154640395Y-124460000D01*
X153757940Y-123577545D01*
X153609121Y-123626394D01*
X153600116Y-123604654D01*
X153393402Y-123397940D01*
X153937545Y-123397940D01*
X154820000Y-124280395D01*
X155702455Y-123397940D01*
X155619116Y-123144047D01*
X155054694Y-122938410D01*
X154454542Y-122964421D01*
X154020884Y-123144047D01*
X153937545Y-123397940D01*
X153393402Y-123397940D01*
X153175346Y-123179884D01*
X152620358Y-122950000D01*
X152019642Y-122950000D01*
X151464654Y-123179884D01*
X151070000Y-123574538D01*
X150675346Y-123179884D01*
X150120358Y-122950000D01*
X149519642Y-122950000D01*
X148964654Y-123179884D01*
X148795504Y-123349034D01*
X148793157Y-123337235D01*
X148652809Y-123127191D01*
X148442765Y-122986843D01*
X148195000Y-122937560D01*
X148080000Y-122937560D01*
X148080000Y-114546882D01*
X152884473Y-109742410D01*
X152947929Y-109700010D01*
X153115904Y-109448618D01*
X153159714Y-109228369D01*
X153470625Y-109020625D01*
X153670000Y-108722239D01*
X153869375Y-109020625D01*
X154180000Y-109228178D01*
X154180001Y-116525197D01*
X153360199Y-117345000D01*
X153194126Y-117345000D01*
X152813720Y-117502569D01*
X152522569Y-117793720D01*
X152365000Y-118174126D01*
X152365000Y-118585874D01*
X152522569Y-118966280D01*
X152813720Y-119257431D01*
X153194126Y-119415000D01*
X153605874Y-119415000D01*
X153986280Y-119257431D01*
X154277431Y-118966280D01*
X154435000Y-118585874D01*
X154435000Y-118419801D01*
X155424473Y-117430329D01*
X155487929Y-117387929D01*
X155655904Y-117136537D01*
X155700000Y-116914852D01*
X155700000Y-116914847D01*
X155714888Y-116840000D01*
X155700000Y-116765153D01*
X155700000Y-109228178D01*
X156010625Y-109020625D01*
X156210000Y-108722239D01*
X156409375Y-109020625D01*
X156720001Y-109228179D01*
X156720000Y-127193197D01*
X154455528Y-129457671D01*
X154392072Y-129500071D01*
X154349672Y-129563527D01*
X154349671Y-129563528D01*
X154224097Y-129751463D01*
X154165112Y-130048000D01*
X154180001Y-130122852D01*
X154180000Y-135637560D01*
X154065000Y-135637560D01*
X153817235Y-135686843D01*
X153607191Y-135827191D01*
X153466843Y-136037235D01*
X153417560Y-136285000D01*
X153417560Y-138035000D01*
X153466843Y-138282765D01*
X153607191Y-138492809D01*
X153817235Y-138633157D01*
X154065000Y-138682440D01*
X155815000Y-138682440D01*
X156062765Y-138633157D01*
X156272809Y-138492809D01*
X156413157Y-138282765D01*
X156415504Y-138270966D01*
X156584654Y-138440116D01*
X157139642Y-138670000D01*
X157740358Y-138670000D01*
X158295346Y-138440116D01*
X158690000Y-138045462D01*
X159084654Y-138440116D01*
X159639642Y-138670000D01*
X160240358Y-138670000D01*
X160795346Y-138440116D01*
X161013402Y-138222060D01*
X161557545Y-138222060D01*
X161640884Y-138475953D01*
X162205306Y-138681590D01*
X162805458Y-138655579D01*
X163239116Y-138475953D01*
X163322455Y-138222060D01*
X162440000Y-137339605D01*
X161557545Y-138222060D01*
X161013402Y-138222060D01*
X161220116Y-138015346D01*
X161229121Y-137993606D01*
X161377940Y-138042455D01*
X162260395Y-137160000D01*
X162619605Y-137160000D01*
X163502060Y-138042455D01*
X163755953Y-137959116D01*
X163961590Y-137394694D01*
X163935579Y-136794542D01*
X163755953Y-136360884D01*
X163502060Y-136277545D01*
X162619605Y-137160000D01*
X162260395Y-137160000D01*
X161377940Y-136277545D01*
X161229121Y-136326394D01*
X161220116Y-136304654D01*
X161013402Y-136097940D01*
X161557545Y-136097940D01*
X162440000Y-136980395D01*
X163322455Y-136097940D01*
X163239116Y-135844047D01*
X162674694Y-135638410D01*
X162074542Y-135664421D01*
X161640884Y-135844047D01*
X161557545Y-136097940D01*
X161013402Y-136097940D01*
X160795346Y-135879884D01*
X160240358Y-135650000D01*
X159639642Y-135650000D01*
X159084654Y-135879884D01*
X158690000Y-136274538D01*
X158295346Y-135879884D01*
X157740358Y-135650000D01*
X157139642Y-135650000D01*
X156584654Y-135879884D01*
X156415504Y-136049034D01*
X156413157Y-136037235D01*
X156272809Y-135827191D01*
X156062765Y-135686843D01*
X155815000Y-135637560D01*
X155700000Y-135637560D01*
X155700000Y-130362801D01*
X157964476Y-128098327D01*
X158027929Y-128055929D01*
X158070327Y-127992476D01*
X158070329Y-127992474D01*
X158195903Y-127804538D01*
X158195904Y-127804537D01*
X158240000Y-127582852D01*
X158240000Y-127582848D01*
X158254888Y-127508001D01*
X158240000Y-127433154D01*
X158240000Y-109228178D01*
X158550625Y-109020625D01*
X158750000Y-108722239D01*
X158949375Y-109020625D01*
X159260000Y-109228178D01*
X159260001Y-126296288D01*
X159142569Y-126413720D01*
X158985000Y-126794126D01*
X158985000Y-127205874D01*
X159142569Y-127586280D01*
X159433720Y-127877431D01*
X159814126Y-128035000D01*
X160225874Y-128035000D01*
X160606280Y-127877431D01*
X160897431Y-127586280D01*
X161055000Y-127205874D01*
X161055000Y-126794126D01*
X160897431Y-126413720D01*
X160780000Y-126296289D01*
X160780000Y-109228178D01*
X161090625Y-109020625D01*
X161290000Y-108722239D01*
X161489375Y-109020625D01*
X161800001Y-109228179D01*
X161800000Y-122937560D01*
X161685000Y-122937560D01*
X161437235Y-122986843D01*
X161227191Y-123127191D01*
X161086843Y-123337235D01*
X161037560Y-123585000D01*
X161037560Y-125335000D01*
X161086843Y-125582765D01*
X161227191Y-125792809D01*
X161437235Y-125933157D01*
X161685000Y-125982440D01*
X163435000Y-125982440D01*
X163682765Y-125933157D01*
X163892809Y-125792809D01*
X164033157Y-125582765D01*
X164035504Y-125570966D01*
X164204654Y-125740116D01*
X164759642Y-125970000D01*
X165360358Y-125970000D01*
X165915346Y-125740116D01*
X166310000Y-125345462D01*
X166704654Y-125740116D01*
X167259642Y-125970000D01*
X167860358Y-125970000D01*
X168415346Y-125740116D01*
X168633402Y-125522060D01*
X169177545Y-125522060D01*
X169260884Y-125775953D01*
X169825306Y-125981590D01*
X170425458Y-125955579D01*
X170859116Y-125775953D01*
X170942455Y-125522060D01*
X170060000Y-124639605D01*
X169177545Y-125522060D01*
X168633402Y-125522060D01*
X168840116Y-125315346D01*
X168849121Y-125293606D01*
X168997940Y-125342455D01*
X169880395Y-124460000D01*
X170239605Y-124460000D01*
X171122060Y-125342455D01*
X171375953Y-125259116D01*
X171581590Y-124694694D01*
X171555579Y-124094542D01*
X171375953Y-123660884D01*
X171122060Y-123577545D01*
X170239605Y-124460000D01*
X169880395Y-124460000D01*
X168997940Y-123577545D01*
X168849121Y-123626394D01*
X168840116Y-123604654D01*
X168633402Y-123397940D01*
X169177545Y-123397940D01*
X170060000Y-124280395D01*
X170942455Y-123397940D01*
X170859116Y-123144047D01*
X170294694Y-122938410D01*
X169694542Y-122964421D01*
X169260884Y-123144047D01*
X169177545Y-123397940D01*
X168633402Y-123397940D01*
X168415346Y-123179884D01*
X167860358Y-122950000D01*
X167259642Y-122950000D01*
X166704654Y-123179884D01*
X166310000Y-123574538D01*
X165915346Y-123179884D01*
X165360358Y-122950000D01*
X164759642Y-122950000D01*
X164204654Y-123179884D01*
X164035504Y-123349034D01*
X164033157Y-123337235D01*
X163892809Y-123127191D01*
X163682765Y-122986843D01*
X163435000Y-122937560D01*
X163320000Y-122937560D01*
X163320000Y-109228178D01*
X163630625Y-109020625D01*
X163830000Y-108722239D01*
X164029375Y-109020625D01*
X164340001Y-109228179D01*
X164340000Y-114733153D01*
X164325112Y-114808000D01*
X164340000Y-114882847D01*
X164340000Y-114882851D01*
X164384096Y-115104536D01*
X164552071Y-115355929D01*
X164615530Y-115398331D01*
X165290001Y-116072802D01*
X165290001Y-116136288D01*
X165172569Y-116253720D01*
X165015000Y-116634126D01*
X165015000Y-117045874D01*
X165172569Y-117426280D01*
X165463720Y-117717431D01*
X165844126Y-117875000D01*
X166255874Y-117875000D01*
X166636280Y-117717431D01*
X166927431Y-117426280D01*
X167085000Y-117045874D01*
X167085000Y-116634126D01*
X166927431Y-116253720D01*
X166810000Y-116136289D01*
X166810000Y-115832847D01*
X166824888Y-115758000D01*
X166810000Y-115683153D01*
X166810000Y-115683148D01*
X166765904Y-115461463D01*
X166597929Y-115210071D01*
X166534473Y-115167671D01*
X165860000Y-114493199D01*
X165860000Y-109228178D01*
X166170625Y-109020625D01*
X166370000Y-108722239D01*
X166569375Y-109020625D01*
X166880000Y-109228178D01*
X166880000Y-110161153D01*
X166865112Y-110236000D01*
X166880000Y-110310847D01*
X166880000Y-110310851D01*
X166924096Y-110532536D01*
X167092071Y-110783929D01*
X167155530Y-110826331D01*
X171960001Y-115630803D01*
X171960000Y-126177197D01*
X169695528Y-128441671D01*
X169632072Y-128484071D01*
X169589672Y-128547527D01*
X169589671Y-128547528D01*
X169464097Y-128735463D01*
X169405112Y-129032000D01*
X169420001Y-129106852D01*
X169420000Y-135637560D01*
X169305000Y-135637560D01*
X169057235Y-135686843D01*
X168847191Y-135827191D01*
X168706843Y-136037235D01*
X168657560Y-136285000D01*
X168657560Y-138035000D01*
X168706843Y-138282765D01*
X168847191Y-138492809D01*
X169057235Y-138633157D01*
X169305000Y-138682440D01*
X171055000Y-138682440D01*
X171302765Y-138633157D01*
X171512809Y-138492809D01*
X171653157Y-138282765D01*
X171655504Y-138270966D01*
X171824654Y-138440116D01*
X172379642Y-138670000D01*
X172980358Y-138670000D01*
X173535346Y-138440116D01*
X173930000Y-138045462D01*
X174324654Y-138440116D01*
X174879642Y-138670000D01*
X175480358Y-138670000D01*
X176035346Y-138440116D01*
X176253402Y-138222060D01*
X176797545Y-138222060D01*
X176880884Y-138475953D01*
X177445306Y-138681590D01*
X178045458Y-138655579D01*
X178479116Y-138475953D01*
X178562455Y-138222060D01*
X177680000Y-137339605D01*
X176797545Y-138222060D01*
X176253402Y-138222060D01*
X176460116Y-138015346D01*
X176469121Y-137993606D01*
X176617940Y-138042455D01*
X177500395Y-137160000D01*
X177859605Y-137160000D01*
X178742060Y-138042455D01*
X178995953Y-137959116D01*
X179201590Y-137394694D01*
X179175579Y-136794542D01*
X178995953Y-136360884D01*
X178742060Y-136277545D01*
X177859605Y-137160000D01*
X177500395Y-137160000D01*
X176617940Y-136277545D01*
X176469121Y-136326394D01*
X176460116Y-136304654D01*
X176253402Y-136097940D01*
X176797545Y-136097940D01*
X177680000Y-136980395D01*
X178562455Y-136097940D01*
X178479116Y-135844047D01*
X177914694Y-135638410D01*
X177314542Y-135664421D01*
X176880884Y-135844047D01*
X176797545Y-136097940D01*
X176253402Y-136097940D01*
X176035346Y-135879884D01*
X175480358Y-135650000D01*
X174879642Y-135650000D01*
X174324654Y-135879884D01*
X173930000Y-136274538D01*
X173535346Y-135879884D01*
X172980358Y-135650000D01*
X172379642Y-135650000D01*
X171824654Y-135879884D01*
X171655504Y-136049034D01*
X171653157Y-136037235D01*
X171512809Y-135827191D01*
X171302765Y-135686843D01*
X171055000Y-135637560D01*
X170940000Y-135637560D01*
X170940000Y-129346801D01*
X172910000Y-127376803D01*
X172910000Y-128582289D01*
X172792569Y-128699720D01*
X172635000Y-129080126D01*
X172635000Y-129491874D01*
X172792569Y-129872280D01*
X173083720Y-130163431D01*
X173464126Y-130321000D01*
X173875874Y-130321000D01*
X174256280Y-130163431D01*
X174547431Y-129872280D01*
X174705000Y-129491874D01*
X174705000Y-129080126D01*
X174595360Y-128815431D01*
X176977000Y-128815431D01*
X176977000Y-129704569D01*
X177317259Y-130526026D01*
X177945974Y-131154741D01*
X178767431Y-131495000D01*
X179656569Y-131495000D01*
X180478026Y-131154741D01*
X181106741Y-130526026D01*
X181447000Y-129704569D01*
X181447000Y-128815431D01*
X181106741Y-127993974D01*
X180478026Y-127365259D01*
X179656569Y-127025000D01*
X178767431Y-127025000D01*
X177945974Y-127365259D01*
X177317259Y-127993974D01*
X176977000Y-128815431D01*
X174595360Y-128815431D01*
X174547431Y-128699720D01*
X174430000Y-128582289D01*
X174430000Y-114816846D01*
X174444888Y-114741999D01*
X174430000Y-114667152D01*
X174430000Y-114667148D01*
X174385904Y-114445463D01*
X174288709Y-114300000D01*
X174260329Y-114257526D01*
X174260327Y-114257524D01*
X174217929Y-114194071D01*
X174154476Y-114151673D01*
X173427803Y-113425000D01*
X176277560Y-113425000D01*
X176277560Y-115175000D01*
X176326843Y-115422765D01*
X176467191Y-115632809D01*
X176677235Y-115773157D01*
X176925000Y-115822440D01*
X178675000Y-115822440D01*
X178922765Y-115773157D01*
X179132809Y-115632809D01*
X179263475Y-115437255D01*
X179302914Y-115476694D01*
X179417546Y-115362062D01*
X179500884Y-115615953D01*
X180065306Y-115821590D01*
X180665458Y-115795579D01*
X181099116Y-115615953D01*
X181182455Y-115362060D01*
X180300000Y-114479605D01*
X180285858Y-114493748D01*
X180106253Y-114314143D01*
X180120395Y-114300000D01*
X180479605Y-114300000D01*
X181362060Y-115182455D01*
X181615953Y-115099116D01*
X181821590Y-114534694D01*
X181795579Y-113934542D01*
X181615953Y-113500884D01*
X181362060Y-113417545D01*
X180479605Y-114300000D01*
X180120395Y-114300000D01*
X180106253Y-114285858D01*
X180285858Y-114106253D01*
X180300000Y-114120395D01*
X181182455Y-113237940D01*
X181099116Y-112984047D01*
X180534694Y-112778410D01*
X179934542Y-112804421D01*
X179500884Y-112984047D01*
X179417546Y-113237938D01*
X179302914Y-113123306D01*
X179263475Y-113162745D01*
X179132809Y-112967191D01*
X178922765Y-112826843D01*
X178675000Y-112777560D01*
X176925000Y-112777560D01*
X176677235Y-112826843D01*
X176467191Y-112967191D01*
X176326843Y-113177235D01*
X176277560Y-113425000D01*
X173427803Y-113425000D01*
X170940000Y-110937199D01*
X170940000Y-109228178D01*
X171250625Y-109020625D01*
X171450000Y-108722239D01*
X171649375Y-109020625D01*
X172140582Y-109348839D01*
X172573744Y-109435000D01*
X172866256Y-109435000D01*
X173299418Y-109348839D01*
X173790625Y-109020625D01*
X173990000Y-108722239D01*
X174189375Y-109020625D01*
X174680582Y-109348839D01*
X175113744Y-109435000D01*
X175406256Y-109435000D01*
X175839418Y-109348839D01*
X176330625Y-109020625D01*
X176543843Y-108701522D01*
X176604817Y-108831358D01*
X177033076Y-109221645D01*
X177443110Y-109391476D01*
X177673000Y-109270155D01*
X177673000Y-108077000D01*
X177653000Y-108077000D01*
X177653000Y-107823000D01*
X177673000Y-107823000D01*
X177673000Y-106629845D01*
X177927000Y-106629845D01*
X177927000Y-107823000D01*
X177947000Y-107823000D01*
X177947000Y-108077000D01*
X177927000Y-108077000D01*
X177927000Y-109270155D01*
X178156890Y-109391476D01*
X178566924Y-109221645D01*
X178871261Y-108944292D01*
X178891843Y-109047765D01*
X179032191Y-109257809D01*
X179242235Y-109398157D01*
X179490000Y-109447440D01*
X181190000Y-109447440D01*
X181437765Y-109398157D01*
X181647809Y-109257809D01*
X181788157Y-109047765D01*
X181837440Y-108800000D01*
X181837440Y-107100000D01*
X181788157Y-106852235D01*
X181647809Y-106642191D01*
X181437765Y-106501843D01*
X181190000Y-106452560D01*
X179490000Y-106452560D01*
X179242235Y-106501843D01*
X179032191Y-106642191D01*
X178891843Y-106852235D01*
X178871261Y-106955708D01*
X178566924Y-106678355D01*
X178156890Y-106508524D01*
X177927000Y-106629845D01*
X177673000Y-106629845D01*
X177443110Y-106508524D01*
X177033076Y-106678355D01*
X176604817Y-107068642D01*
X176543843Y-107198478D01*
X176330625Y-106879375D01*
X175839418Y-106551161D01*
X175406256Y-106465000D01*
X175113744Y-106465000D01*
X174680582Y-106551161D01*
X174189375Y-106879375D01*
X173990000Y-107177761D01*
X173790625Y-106879375D01*
X173299418Y-106551161D01*
X172866256Y-106465000D01*
X172573744Y-106465000D01*
X172140582Y-106551161D01*
X171649375Y-106879375D01*
X171450000Y-107177761D01*
X171250625Y-106879375D01*
X170759418Y-106551161D01*
X170326256Y-106465000D01*
X170033744Y-106465000D01*
X169600582Y-106551161D01*
X169109375Y-106879375D01*
X168910000Y-107177761D01*
X168710625Y-106879375D01*
X168219418Y-106551161D01*
X167786256Y-106465000D01*
X167493744Y-106465000D01*
X167060582Y-106551161D01*
X166569375Y-106879375D01*
X166370000Y-107177761D01*
X166170625Y-106879375D01*
X165679418Y-106551161D01*
X165246256Y-106465000D01*
X164953744Y-106465000D01*
X164520582Y-106551161D01*
X164029375Y-106879375D01*
X163830000Y-107177761D01*
X163630625Y-106879375D01*
X163139418Y-106551161D01*
X162706256Y-106465000D01*
X162413744Y-106465000D01*
X161980582Y-106551161D01*
X161489375Y-106879375D01*
X161290000Y-107177761D01*
X161090625Y-106879375D01*
X160599418Y-106551161D01*
X160166256Y-106465000D01*
X159873744Y-106465000D01*
X159440582Y-106551161D01*
X158949375Y-106879375D01*
X158750000Y-107177761D01*
X158550625Y-106879375D01*
X158059418Y-106551161D01*
X157626256Y-106465000D01*
X157333744Y-106465000D01*
X156900582Y-106551161D01*
X156409375Y-106879375D01*
X156210000Y-107177761D01*
X156010625Y-106879375D01*
X155519418Y-106551161D01*
X155086256Y-106465000D01*
X154793744Y-106465000D01*
X154360582Y-106551161D01*
X153869375Y-106879375D01*
X153670000Y-107177761D01*
X153470625Y-106879375D01*
X152979418Y-106551161D01*
X152546256Y-106465000D01*
X152419801Y-106465000D01*
X161069370Y-97815431D01*
X176977000Y-97815431D01*
X176977000Y-98704569D01*
X177317259Y-99526026D01*
X177945974Y-100154741D01*
X178767431Y-100495000D01*
X179656569Y-100495000D01*
X180478026Y-100154741D01*
X181106741Y-99526026D01*
X181447000Y-98704569D01*
X181447000Y-97815431D01*
X181106741Y-96993974D01*
X180478026Y-96365259D01*
X179656569Y-96025000D01*
X178767431Y-96025000D01*
X177945974Y-96365259D01*
X177317259Y-96993974D01*
X176977000Y-97815431D01*
X161069370Y-97815431D01*
X164733593Y-94151209D01*
X164953744Y-94195000D01*
X165246256Y-94195000D01*
X165679418Y-94108839D01*
X166170625Y-93780625D01*
X166370000Y-93482239D01*
X166569375Y-93780625D01*
X167060582Y-94108839D01*
X167493744Y-94195000D01*
X167786256Y-94195000D01*
X168219418Y-94108839D01*
X168710625Y-93780625D01*
X168910000Y-93482239D01*
X169109375Y-93780625D01*
X169600582Y-94108839D01*
X170033744Y-94195000D01*
X170326256Y-94195000D01*
X170759418Y-94108839D01*
X171250625Y-93780625D01*
X171463843Y-93461522D01*
X171524817Y-93591358D01*
X171953076Y-93981645D01*
X172363110Y-94151476D01*
X172593000Y-94030155D01*
X172593000Y-92837000D01*
X172847000Y-92837000D01*
X172847000Y-94030155D01*
X173076890Y-94151476D01*
X173486924Y-93981645D01*
X173915183Y-93591358D01*
X173990000Y-93432046D01*
X174064817Y-93591358D01*
X174493076Y-93981645D01*
X174903110Y-94151476D01*
X175133000Y-94030155D01*
X175133000Y-92837000D01*
X172847000Y-92837000D01*
X172593000Y-92837000D01*
X172573000Y-92837000D01*
X172573000Y-92583000D01*
X172593000Y-92583000D01*
X172593000Y-91389845D01*
X172363110Y-91268524D01*
X171953076Y-91438355D01*
X171524817Y-91828642D01*
X171463843Y-91958478D01*
X171250625Y-91639375D01*
X170759418Y-91311161D01*
X170326256Y-91225000D01*
X170033744Y-91225000D01*
X169813593Y-91268791D01*
X168574782Y-90029981D01*
X174045180Y-90029981D01*
X175240198Y-91225000D01*
X175132998Y-91225000D01*
X175132998Y-91389844D01*
X174903110Y-91268524D01*
X174493076Y-91438355D01*
X174064817Y-91828642D01*
X173990000Y-91987954D01*
X173915183Y-91828642D01*
X173486924Y-91438355D01*
X173076890Y-91268524D01*
X172847000Y-91389845D01*
X172847000Y-92583000D01*
X175133000Y-92583000D01*
X175133000Y-92563000D01*
X175387000Y-92563000D01*
X175387000Y-92583000D01*
X175407000Y-92583000D01*
X175407000Y-92837000D01*
X175387000Y-92837000D01*
X175387000Y-94030155D01*
X175616890Y-94151476D01*
X176026924Y-93981645D01*
X176455183Y-93591358D01*
X176516157Y-93461522D01*
X176729375Y-93780625D01*
X177220582Y-94108839D01*
X177653744Y-94195000D01*
X177946256Y-94195000D01*
X178379418Y-94108839D01*
X178870625Y-93780625D01*
X178882816Y-93762381D01*
X178891843Y-93807765D01*
X179032191Y-94017809D01*
X179242235Y-94158157D01*
X179490000Y-94207440D01*
X181190000Y-94207440D01*
X181437765Y-94158157D01*
X181647809Y-94017809D01*
X181788157Y-93807765D01*
X181837440Y-93560000D01*
X181837440Y-91860000D01*
X181788157Y-91612235D01*
X181647809Y-91402191D01*
X181437765Y-91261843D01*
X181190000Y-91212560D01*
X179490000Y-91212560D01*
X179242235Y-91261843D01*
X179032191Y-91402191D01*
X178891843Y-91612235D01*
X178882816Y-91657619D01*
X178870625Y-91639375D01*
X178379418Y-91311161D01*
X177946256Y-91225000D01*
X177653744Y-91225000D01*
X177433593Y-91268791D01*
X174950312Y-88785511D01*
X174907910Y-88722052D01*
X174656518Y-88554077D01*
X174434833Y-88509981D01*
X174434828Y-88509981D01*
X174359981Y-88495093D01*
X174285134Y-88509981D01*
X122329182Y-88509981D01*
X122254334Y-88495093D01*
X122179486Y-88509981D01*
X122179482Y-88509981D01*
X121957797Y-88554077D01*
X121706405Y-88722052D01*
X121664005Y-88785508D01*
X117995508Y-92454006D01*
X117932052Y-92496406D01*
X117889652Y-92559862D01*
X117889651Y-92559863D01*
X117764077Y-92747798D01*
X117705092Y-93044335D01*
X117719981Y-93119187D01*
X117719980Y-95835218D01*
X116525199Y-97030000D01*
X115003711Y-97030000D01*
X114886280Y-96912569D01*
X114505874Y-96755000D01*
X114094126Y-96755000D01*
X113713720Y-96912569D01*
X113422569Y-97203720D01*
X113265000Y-97584126D01*
X113265000Y-97995874D01*
X113422569Y-98376280D01*
X113713720Y-98667431D01*
X114094126Y-98825000D01*
X114505874Y-98825000D01*
X114886280Y-98667431D01*
X115003711Y-98550000D01*
X116765153Y-98550000D01*
X116840000Y-98564888D01*
X116914847Y-98550000D01*
X116914852Y-98550000D01*
X117136537Y-98505904D01*
X117387929Y-98337929D01*
X117430331Y-98274470D01*
X118169990Y-97534811D01*
X118169990Y-99195207D01*
X115255199Y-102110000D01*
X115003711Y-102110000D01*
X114886280Y-101992569D01*
X114505874Y-101835000D01*
X114094126Y-101835000D01*
X113713720Y-101992569D01*
X113422569Y-102283720D01*
X113265000Y-102664126D01*
X113265000Y-103075874D01*
X113422569Y-103456280D01*
X113713720Y-103747431D01*
X114094126Y-103905000D01*
X114505874Y-103905000D01*
X114886280Y-103747431D01*
X115003711Y-103630000D01*
X115495153Y-103630000D01*
X115570000Y-103644888D01*
X115644847Y-103630000D01*
X115644852Y-103630000D01*
X115866537Y-103585904D01*
X116117929Y-103417929D01*
X116160331Y-103354470D01*
X118620000Y-100894802D01*
X118620000Y-103825198D01*
X115255199Y-107190000D01*
X115003711Y-107190000D01*
X114886280Y-107072569D01*
X114505874Y-106915000D01*
X114094126Y-106915000D01*
X113713720Y-107072569D01*
X113665000Y-107121289D01*
X113616280Y-107072569D01*
X113235874Y-106915000D01*
X112824126Y-106915000D01*
X112443720Y-107072569D01*
X112152569Y-107363720D01*
X112084981Y-107526892D01*
X112084981Y-103333159D01*
X112311260Y-103239431D01*
X112602411Y-102948280D01*
X112759980Y-102567874D01*
X112759980Y-102156126D01*
X112602411Y-101775720D01*
X112311260Y-101484569D01*
X112044661Y-101374140D01*
X112214473Y-101204329D01*
X112277929Y-101161929D01*
X112445904Y-100910537D01*
X112490000Y-100688852D01*
X112490000Y-100688848D01*
X112504888Y-100614000D01*
X112490000Y-100539152D01*
X112490000Y-97223711D01*
X112607431Y-97106280D01*
X112765000Y-96725874D01*
X112765000Y-96314126D01*
X112607431Y-95933720D01*
X112316280Y-95642569D01*
X111935874Y-95485000D01*
X111524126Y-95485000D01*
X111143720Y-95642569D01*
X110852569Y-95933720D01*
X110695000Y-96314126D01*
X110695000Y-96725874D01*
X110852569Y-97106280D01*
X110970001Y-97223712D01*
X110970000Y-100299198D01*
X110390499Y-100878700D01*
X110327043Y-100921100D01*
X110284643Y-100984556D01*
X110284642Y-100984557D01*
X110159068Y-101172492D01*
X110100083Y-101469029D01*
X110114972Y-101543881D01*
X110114971Y-123246124D01*
X110100083Y-123320971D01*
X110114971Y-123395818D01*
X110114971Y-123395822D01*
X110159067Y-123617507D01*
X110327042Y-123868900D01*
X110390501Y-123911302D01*
X111254001Y-124774803D01*
X111254000Y-132926198D01*
X108735528Y-135444671D01*
X108672072Y-135487071D01*
X108629672Y-135550527D01*
X108629671Y-135550528D01*
X108571518Y-135637560D01*
X108345000Y-135637560D01*
X108097235Y-135686843D01*
X107887191Y-135827191D01*
X107746843Y-136037235D01*
X107697560Y-136285000D01*
X103580000Y-136285000D01*
X103580000Y-128815431D01*
X105677000Y-128815431D01*
X105677000Y-129704569D01*
X106017259Y-130526026D01*
X106645974Y-131154741D01*
X107467431Y-131495000D01*
X108356569Y-131495000D01*
X109178026Y-131154741D01*
X109806741Y-130526026D01*
X110147000Y-129704569D01*
X110147000Y-128815431D01*
X109806741Y-127993974D01*
X109178026Y-127365259D01*
X108356569Y-127025000D01*
X107467431Y-127025000D01*
X106645974Y-127365259D01*
X106017259Y-127993974D01*
X105677000Y-128815431D01*
X103580000Y-128815431D01*
X103580000Y-97815431D01*
X105677000Y-97815431D01*
X105677000Y-98704569D01*
X106017259Y-99526026D01*
X106645974Y-100154741D01*
X107467431Y-100495000D01*
X108356569Y-100495000D01*
X109178026Y-100154741D01*
X109806741Y-99526026D01*
X110147000Y-98704569D01*
X110147000Y-97815431D01*
X109806741Y-96993974D01*
X109178026Y-96365259D01*
X108356569Y-96025000D01*
X107467431Y-96025000D01*
X106645974Y-96365259D01*
X106017259Y-96993974D01*
X105677000Y-97815431D01*
X103580000Y-97815431D01*
X103580000Y-88340000D01*
X183440000Y-88340000D01*
X183440001Y-141530000D01*
G04 #@! TD*
M02*
