G04 #@! TF.GenerationSoftware,KiCad,Pcbnew,(5.0.0)*
G04 #@! TF.CreationDate,2019-07-13T19:24:01-04:00*
G04 #@! TF.ProjectId,ProMicro-Breakout,50726F4D6963726F2D427265616B6F75,rev?*
G04 #@! TF.SameCoordinates,Original*
G04 #@! TF.FileFunction,Copper,L1,Top,Signal*
G04 #@! TF.FilePolarity,Positive*
%FSLAX46Y46*%
G04 Gerber Fmt 4.6, Leading zero omitted, Abs format (unit mm)*
G04 Created by KiCad (PCBNEW (5.0.0)) date 07/13/19 19:24:01*
%MOMM*%
%LPD*%
G01*
G04 APERTURE LIST*
G04 #@! TA.AperFunction,SMDPad,CuDef*
%ADD10C,0.500000*%
G04 #@! TD*
G04 #@! TA.AperFunction,Conductor*
%ADD11C,0.100000*%
G04 #@! TD*
G04 #@! TA.AperFunction,SMDPad,CuDef*
%ADD12R,1.000000X1.500000*%
G04 #@! TD*
G04 #@! TA.AperFunction,ComponentPad*
%ADD13O,1.700000X1.700000*%
G04 #@! TD*
G04 #@! TA.AperFunction,ComponentPad*
%ADD14R,1.700000X1.700000*%
G04 #@! TD*
G04 #@! TA.AperFunction,ComponentPad*
%ADD15C,1.750000*%
G04 #@! TD*
G04 #@! TA.AperFunction,ComponentPad*
%ADD16R,1.750000X1.750000*%
G04 #@! TD*
G04 #@! TA.AperFunction,SMDPad,CuDef*
%ADD17R,0.800000X0.900000*%
G04 #@! TD*
G04 #@! TA.AperFunction,ViaPad*
%ADD18C,0.800000*%
G04 #@! TD*
G04 #@! TA.AperFunction,Conductor*
%ADD19C,0.250000*%
G04 #@! TD*
G04 #@! TA.AperFunction,Conductor*
%ADD20C,0.500000*%
G04 #@! TD*
G04 #@! TA.AperFunction,Conductor*
%ADD21C,0.254000*%
G04 #@! TD*
G04 APERTURE END LIST*
D10*
G04 #@! TO.P,JP5,1*
G04 #@! TO.N,/B8LED*
X113000000Y-110490000D03*
D11*
G04 #@! TD*
G04 #@! TO.N,/B8LED*
G04 #@! TO.C,JP5*
G36*
X113550000Y-111240000D02*
X113000000Y-111240000D01*
X113000000Y-111239398D01*
X112975466Y-111239398D01*
X112926635Y-111234588D01*
X112878510Y-111225016D01*
X112831555Y-111210772D01*
X112786222Y-111191995D01*
X112742949Y-111168864D01*
X112702150Y-111141604D01*
X112664221Y-111110476D01*
X112629524Y-111075779D01*
X112598396Y-111037850D01*
X112571136Y-110997051D01*
X112548005Y-110953778D01*
X112529228Y-110908445D01*
X112514984Y-110861490D01*
X112505412Y-110813365D01*
X112500602Y-110764534D01*
X112500602Y-110740000D01*
X112500000Y-110740000D01*
X112500000Y-110240000D01*
X112500602Y-110240000D01*
X112500602Y-110215466D01*
X112505412Y-110166635D01*
X112514984Y-110118510D01*
X112529228Y-110071555D01*
X112548005Y-110026222D01*
X112571136Y-109982949D01*
X112598396Y-109942150D01*
X112629524Y-109904221D01*
X112664221Y-109869524D01*
X112702150Y-109838396D01*
X112742949Y-109811136D01*
X112786222Y-109788005D01*
X112831555Y-109769228D01*
X112878510Y-109754984D01*
X112926635Y-109745412D01*
X112975466Y-109740602D01*
X113000000Y-109740602D01*
X113000000Y-109740000D01*
X113550000Y-109740000D01*
X113550000Y-111240000D01*
X113550000Y-111240000D01*
G37*
D10*
G04 #@! TO.P,JP5,3*
G04 #@! TO.N,/QE2B*
X115600000Y-110490000D03*
D11*
G04 #@! TD*
G04 #@! TO.N,/QE2B*
G04 #@! TO.C,JP5*
G36*
X115600000Y-109740602D02*
X115624534Y-109740602D01*
X115673365Y-109745412D01*
X115721490Y-109754984D01*
X115768445Y-109769228D01*
X115813778Y-109788005D01*
X115857051Y-109811136D01*
X115897850Y-109838396D01*
X115935779Y-109869524D01*
X115970476Y-109904221D01*
X116001604Y-109942150D01*
X116028864Y-109982949D01*
X116051995Y-110026222D01*
X116070772Y-110071555D01*
X116085016Y-110118510D01*
X116094588Y-110166635D01*
X116099398Y-110215466D01*
X116099398Y-110240000D01*
X116100000Y-110240000D01*
X116100000Y-110740000D01*
X116099398Y-110740000D01*
X116099398Y-110764534D01*
X116094588Y-110813365D01*
X116085016Y-110861490D01*
X116070772Y-110908445D01*
X116051995Y-110953778D01*
X116028864Y-110997051D01*
X116001604Y-111037850D01*
X115970476Y-111075779D01*
X115935779Y-111110476D01*
X115897850Y-111141604D01*
X115857051Y-111168864D01*
X115813778Y-111191995D01*
X115768445Y-111210772D01*
X115721490Y-111225016D01*
X115673365Y-111234588D01*
X115624534Y-111239398D01*
X115600000Y-111239398D01*
X115600000Y-111240000D01*
X115050000Y-111240000D01*
X115050000Y-109740000D01*
X115600000Y-109740000D01*
X115600000Y-109740602D01*
X115600000Y-109740602D01*
G37*
D12*
G04 #@! TO.P,JP5,2*
G04 #@! TO.N,/PIN3*
X114300000Y-110490000D03*
G04 #@! TD*
D13*
G04 #@! TO.P,J7,12*
G04 #@! TO.N,/B7*
X152400000Y-92710000D03*
G04 #@! TO.P,J7,11*
G04 #@! TO.N,/B7LED*
X154940000Y-92710000D03*
G04 #@! TO.P,J7,10*
G04 #@! TO.N,/B6*
X157480000Y-92710000D03*
G04 #@! TO.P,J7,9*
G04 #@! TO.N,/B6LED*
X160020000Y-92710000D03*
G04 #@! TO.P,J7,8*
G04 #@! TO.N,/B5*
X162560000Y-92710000D03*
G04 #@! TO.P,J7,7*
G04 #@! TO.N,/B5LED*
X165100000Y-92710000D03*
G04 #@! TO.P,J7,6*
G04 #@! TO.N,/PIN3*
X167640000Y-92710000D03*
G04 #@! TO.P,J7,5*
G04 #@! TO.N,/PIN2*
X170180000Y-92710000D03*
G04 #@! TO.P,J7,4*
G04 #@! TO.N,GND*
X172720000Y-92710000D03*
G04 #@! TO.P,J7,3*
X175260000Y-92710000D03*
G04 #@! TO.P,J7,2*
G04 #@! TO.N,/PIN0*
X177800000Y-92710000D03*
D14*
G04 #@! TO.P,J7,1*
G04 #@! TO.N,/PIN1*
X180340000Y-92710000D03*
G04 #@! TD*
G04 #@! TO.P,J10,1*
G04 #@! TO.N,VBUS*
X180340000Y-107950000D03*
D13*
G04 #@! TO.P,J10,2*
G04 #@! TO.N,GND*
X177800000Y-107950000D03*
G04 #@! TO.P,J10,3*
G04 #@! TO.N,Net-(J10-Pad3)*
X175260000Y-107950000D03*
G04 #@! TO.P,J10,4*
G04 #@! TO.N,+5V*
X172720000Y-107950000D03*
G04 #@! TO.P,J10,5*
G04 #@! TO.N,/B1LED*
X170180000Y-107950000D03*
G04 #@! TO.P,J10,6*
G04 #@! TO.N,/B1*
X167640000Y-107950000D03*
G04 #@! TO.P,J10,7*
G04 #@! TO.N,/B2LED*
X165100000Y-107950000D03*
G04 #@! TO.P,J10,8*
G04 #@! TO.N,/B2*
X162560000Y-107950000D03*
G04 #@! TO.P,J10,9*
G04 #@! TO.N,/B3LED*
X160020000Y-107950000D03*
G04 #@! TO.P,J10,10*
G04 #@! TO.N,/B3*
X157480000Y-107950000D03*
G04 #@! TO.P,J10,11*
G04 #@! TO.N,/B4LED*
X154940000Y-107950000D03*
G04 #@! TO.P,J10,12*
G04 #@! TO.N,/B4*
X152400000Y-107950000D03*
G04 #@! TD*
D15*
G04 #@! TO.P,J13,2*
G04 #@! TO.N,GND*
X180300000Y-114300000D03*
D16*
G04 #@! TO.P,J13,1*
G04 #@! TO.N,+12V*
X177800000Y-114300000D03*
G04 #@! TD*
D15*
G04 #@! TO.P,J8,4*
G04 #@! TO.N,GND*
X147200000Y-137160000D03*
G04 #@! TO.P,J8,3*
G04 #@! TO.N,/LED+*
X144700000Y-137160000D03*
G04 #@! TO.P,J8,2*
G04 #@! TO.N,Net-(J8-Pad2)*
X142200000Y-137160000D03*
D16*
G04 #@! TO.P,J8,1*
G04 #@! TO.N,/B5*
X139700000Y-137160000D03*
G04 #@! TD*
D15*
G04 #@! TO.P,J2,4*
G04 #@! TO.N,GND*
X130690000Y-107950000D03*
G04 #@! TO.P,J2,3*
G04 #@! TO.N,+5V*
X128190000Y-107950000D03*
G04 #@! TO.P,J2,2*
G04 #@! TO.N,/QE2B*
X125690000Y-107950000D03*
D16*
G04 #@! TO.P,J2,1*
G04 #@! TO.N,/QE2A*
X123190000Y-107950000D03*
G04 #@! TD*
D15*
G04 #@! TO.P,J3,4*
G04 #@! TO.N,GND*
X177680000Y-137160000D03*
G04 #@! TO.P,J3,3*
G04 #@! TO.N,/LED+*
X175180000Y-137160000D03*
G04 #@! TO.P,J3,2*
G04 #@! TO.N,Net-(J3-Pad2)*
X172680000Y-137160000D03*
D16*
G04 #@! TO.P,J3,1*
G04 #@! TO.N,/B1*
X170180000Y-137160000D03*
G04 #@! TD*
G04 #@! TO.P,J4,1*
G04 #@! TO.N,/B2*
X162560000Y-124460000D03*
D15*
G04 #@! TO.P,J4,2*
G04 #@! TO.N,Net-(J4-Pad2)*
X165060000Y-124460000D03*
G04 #@! TO.P,J4,3*
G04 #@! TO.N,/LED+*
X167560000Y-124460000D03*
G04 #@! TO.P,J4,4*
G04 #@! TO.N,GND*
X170060000Y-124460000D03*
G04 #@! TD*
G04 #@! TO.P,J5,4*
G04 #@! TO.N,GND*
X162440000Y-137160000D03*
G04 #@! TO.P,J5,3*
G04 #@! TO.N,/LED+*
X159940000Y-137160000D03*
G04 #@! TO.P,J5,2*
G04 #@! TO.N,Net-(J5-Pad2)*
X157440000Y-137160000D03*
D16*
G04 #@! TO.P,J5,1*
G04 #@! TO.N,/B3*
X154940000Y-137160000D03*
G04 #@! TD*
G04 #@! TO.P,J9,1*
G04 #@! TO.N,/B6*
X132080000Y-124460000D03*
D15*
G04 #@! TO.P,J9,2*
G04 #@! TO.N,Net-(J9-Pad2)*
X134580000Y-124460000D03*
G04 #@! TO.P,J9,3*
G04 #@! TO.N,/LED+*
X137080000Y-124460000D03*
G04 #@! TO.P,J9,4*
G04 #@! TO.N,GND*
X139580000Y-124460000D03*
G04 #@! TD*
G04 #@! TO.P,J11,4*
G04 #@! TO.N,GND*
X131960000Y-137160000D03*
G04 #@! TO.P,J11,3*
G04 #@! TO.N,/LED+*
X129460000Y-137160000D03*
G04 #@! TO.P,J11,2*
G04 #@! TO.N,Net-(J11-Pad2)*
X126960000Y-137160000D03*
D16*
G04 #@! TO.P,J11,1*
G04 #@! TO.N,/B7*
X124460000Y-137160000D03*
G04 #@! TD*
G04 #@! TO.P,J12,1*
G04 #@! TO.N,/B8*
X116800000Y-124460000D03*
D15*
G04 #@! TO.P,J12,2*
G04 #@! TO.N,Net-(J12-Pad2)*
X119300000Y-124460000D03*
G04 #@! TO.P,J12,3*
G04 #@! TO.N,/LED+*
X121800000Y-124460000D03*
G04 #@! TO.P,J12,4*
G04 #@! TO.N,GND*
X124300000Y-124460000D03*
G04 #@! TD*
G04 #@! TO.P,J14,4*
G04 #@! TO.N,GND*
X116720000Y-137160000D03*
G04 #@! TO.P,J14,3*
G04 #@! TO.N,/LED+*
X114220000Y-137160000D03*
G04 #@! TO.P,J14,2*
G04 #@! TO.N,Net-(J14-Pad2)*
X111720000Y-137160000D03*
D16*
G04 #@! TO.P,J14,1*
G04 #@! TO.N,/B9*
X109220000Y-137160000D03*
G04 #@! TD*
G04 #@! TO.P,J1,1*
G04 #@! TO.N,/QE1A*
X123190000Y-97790000D03*
D15*
G04 #@! TO.P,J1,2*
G04 #@! TO.N,/QE1B*
X125690000Y-97790000D03*
G04 #@! TO.P,J1,3*
G04 #@! TO.N,+5V*
X128190000Y-97790000D03*
G04 #@! TO.P,J1,4*
G04 #@! TO.N,GND*
X130690000Y-97790000D03*
G04 #@! TD*
G04 #@! TO.P,J6,4*
G04 #@! TO.N,GND*
X154820000Y-124460000D03*
G04 #@! TO.P,J6,3*
G04 #@! TO.N,/LED+*
X152320000Y-124460000D03*
G04 #@! TO.P,J6,2*
G04 #@! TO.N,Net-(J6-Pad2)*
X149820000Y-124460000D03*
D16*
G04 #@! TO.P,J6,1*
G04 #@! TO.N,/B4*
X147320000Y-124460000D03*
G04 #@! TD*
D12*
G04 #@! TO.P,JP2,2*
G04 #@! TO.N,/PIN1*
X114300000Y-95250000D03*
D10*
G04 #@! TO.P,JP2,3*
G04 #@! TO.N,/QE1A*
X115600000Y-95250000D03*
D11*
G04 #@! TD*
G04 #@! TO.N,/QE1A*
G04 #@! TO.C,JP2*
G36*
X115600000Y-94500602D02*
X115624534Y-94500602D01*
X115673365Y-94505412D01*
X115721490Y-94514984D01*
X115768445Y-94529228D01*
X115813778Y-94548005D01*
X115857051Y-94571136D01*
X115897850Y-94598396D01*
X115935779Y-94629524D01*
X115970476Y-94664221D01*
X116001604Y-94702150D01*
X116028864Y-94742949D01*
X116051995Y-94786222D01*
X116070772Y-94831555D01*
X116085016Y-94878510D01*
X116094588Y-94926635D01*
X116099398Y-94975466D01*
X116099398Y-95000000D01*
X116100000Y-95000000D01*
X116100000Y-95500000D01*
X116099398Y-95500000D01*
X116099398Y-95524534D01*
X116094588Y-95573365D01*
X116085016Y-95621490D01*
X116070772Y-95668445D01*
X116051995Y-95713778D01*
X116028864Y-95757051D01*
X116001604Y-95797850D01*
X115970476Y-95835779D01*
X115935779Y-95870476D01*
X115897850Y-95901604D01*
X115857051Y-95928864D01*
X115813778Y-95951995D01*
X115768445Y-95970772D01*
X115721490Y-95985016D01*
X115673365Y-95994588D01*
X115624534Y-95999398D01*
X115600000Y-95999398D01*
X115600000Y-96000000D01*
X115050000Y-96000000D01*
X115050000Y-94500000D01*
X115600000Y-94500000D01*
X115600000Y-94500602D01*
X115600000Y-94500602D01*
G37*
D10*
G04 #@! TO.P,JP2,1*
G04 #@! TO.N,/B9*
X113000000Y-95250000D03*
D11*
G04 #@! TD*
G04 #@! TO.N,/B9*
G04 #@! TO.C,JP2*
G36*
X113550000Y-96000000D02*
X113000000Y-96000000D01*
X113000000Y-95999398D01*
X112975466Y-95999398D01*
X112926635Y-95994588D01*
X112878510Y-95985016D01*
X112831555Y-95970772D01*
X112786222Y-95951995D01*
X112742949Y-95928864D01*
X112702150Y-95901604D01*
X112664221Y-95870476D01*
X112629524Y-95835779D01*
X112598396Y-95797850D01*
X112571136Y-95757051D01*
X112548005Y-95713778D01*
X112529228Y-95668445D01*
X112514984Y-95621490D01*
X112505412Y-95573365D01*
X112500602Y-95524534D01*
X112500602Y-95500000D01*
X112500000Y-95500000D01*
X112500000Y-95000000D01*
X112500602Y-95000000D01*
X112500602Y-94975466D01*
X112505412Y-94926635D01*
X112514984Y-94878510D01*
X112529228Y-94831555D01*
X112548005Y-94786222D01*
X112571136Y-94742949D01*
X112598396Y-94702150D01*
X112629524Y-94664221D01*
X112664221Y-94629524D01*
X112702150Y-94598396D01*
X112742949Y-94571136D01*
X112786222Y-94548005D01*
X112831555Y-94529228D01*
X112878510Y-94514984D01*
X112926635Y-94505412D01*
X112975466Y-94500602D01*
X113000000Y-94500602D01*
X113000000Y-94500000D01*
X113550000Y-94500000D01*
X113550000Y-96000000D01*
X113550000Y-96000000D01*
G37*
D10*
G04 #@! TO.P,JP1,1*
G04 #@! TO.N,VBUS*
X180116000Y-120396000D03*
D11*
G04 #@! TD*
G04 #@! TO.N,VBUS*
G04 #@! TO.C,JP1*
G36*
X179566000Y-119646000D02*
X180116000Y-119646000D01*
X180116000Y-119646602D01*
X180140534Y-119646602D01*
X180189365Y-119651412D01*
X180237490Y-119660984D01*
X180284445Y-119675228D01*
X180329778Y-119694005D01*
X180373051Y-119717136D01*
X180413850Y-119744396D01*
X180451779Y-119775524D01*
X180486476Y-119810221D01*
X180517604Y-119848150D01*
X180544864Y-119888949D01*
X180567995Y-119932222D01*
X180586772Y-119977555D01*
X180601016Y-120024510D01*
X180610588Y-120072635D01*
X180615398Y-120121466D01*
X180615398Y-120146000D01*
X180616000Y-120146000D01*
X180616000Y-120646000D01*
X180615398Y-120646000D01*
X180615398Y-120670534D01*
X180610588Y-120719365D01*
X180601016Y-120767490D01*
X180586772Y-120814445D01*
X180567995Y-120859778D01*
X180544864Y-120903051D01*
X180517604Y-120943850D01*
X180486476Y-120981779D01*
X180451779Y-121016476D01*
X180413850Y-121047604D01*
X180373051Y-121074864D01*
X180329778Y-121097995D01*
X180284445Y-121116772D01*
X180237490Y-121131016D01*
X180189365Y-121140588D01*
X180140534Y-121145398D01*
X180116000Y-121145398D01*
X180116000Y-121146000D01*
X179566000Y-121146000D01*
X179566000Y-119646000D01*
X179566000Y-119646000D01*
G37*
D10*
G04 #@! TO.P,JP1,3*
G04 #@! TO.N,+12V*
X177516000Y-120396000D03*
D11*
G04 #@! TD*
G04 #@! TO.N,+12V*
G04 #@! TO.C,JP1*
G36*
X177516000Y-121145398D02*
X177491466Y-121145398D01*
X177442635Y-121140588D01*
X177394510Y-121131016D01*
X177347555Y-121116772D01*
X177302222Y-121097995D01*
X177258949Y-121074864D01*
X177218150Y-121047604D01*
X177180221Y-121016476D01*
X177145524Y-120981779D01*
X177114396Y-120943850D01*
X177087136Y-120903051D01*
X177064005Y-120859778D01*
X177045228Y-120814445D01*
X177030984Y-120767490D01*
X177021412Y-120719365D01*
X177016602Y-120670534D01*
X177016602Y-120646000D01*
X177016000Y-120646000D01*
X177016000Y-120146000D01*
X177016602Y-120146000D01*
X177016602Y-120121466D01*
X177021412Y-120072635D01*
X177030984Y-120024510D01*
X177045228Y-119977555D01*
X177064005Y-119932222D01*
X177087136Y-119888949D01*
X177114396Y-119848150D01*
X177145524Y-119810221D01*
X177180221Y-119775524D01*
X177218150Y-119744396D01*
X177258949Y-119717136D01*
X177302222Y-119694005D01*
X177347555Y-119675228D01*
X177394510Y-119660984D01*
X177442635Y-119651412D01*
X177491466Y-119646602D01*
X177516000Y-119646602D01*
X177516000Y-119646000D01*
X178066000Y-119646000D01*
X178066000Y-121146000D01*
X177516000Y-121146000D01*
X177516000Y-121145398D01*
X177516000Y-121145398D01*
G37*
D12*
G04 #@! TO.P,JP1,2*
G04 #@! TO.N,/LED+*
X178816000Y-120396000D03*
G04 #@! TD*
G04 #@! TO.P,JP4,2*
G04 #@! TO.N,/PIN2*
X114300000Y-105410000D03*
D10*
G04 #@! TO.P,JP4,3*
G04 #@! TO.N,/QE2A*
X115600000Y-105410000D03*
D11*
G04 #@! TD*
G04 #@! TO.N,/QE2A*
G04 #@! TO.C,JP4*
G36*
X115600000Y-104660602D02*
X115624534Y-104660602D01*
X115673365Y-104665412D01*
X115721490Y-104674984D01*
X115768445Y-104689228D01*
X115813778Y-104708005D01*
X115857051Y-104731136D01*
X115897850Y-104758396D01*
X115935779Y-104789524D01*
X115970476Y-104824221D01*
X116001604Y-104862150D01*
X116028864Y-104902949D01*
X116051995Y-104946222D01*
X116070772Y-104991555D01*
X116085016Y-105038510D01*
X116094588Y-105086635D01*
X116099398Y-105135466D01*
X116099398Y-105160000D01*
X116100000Y-105160000D01*
X116100000Y-105660000D01*
X116099398Y-105660000D01*
X116099398Y-105684534D01*
X116094588Y-105733365D01*
X116085016Y-105781490D01*
X116070772Y-105828445D01*
X116051995Y-105873778D01*
X116028864Y-105917051D01*
X116001604Y-105957850D01*
X115970476Y-105995779D01*
X115935779Y-106030476D01*
X115897850Y-106061604D01*
X115857051Y-106088864D01*
X115813778Y-106111995D01*
X115768445Y-106130772D01*
X115721490Y-106145016D01*
X115673365Y-106154588D01*
X115624534Y-106159398D01*
X115600000Y-106159398D01*
X115600000Y-106160000D01*
X115050000Y-106160000D01*
X115050000Y-104660000D01*
X115600000Y-104660000D01*
X115600000Y-104660602D01*
X115600000Y-104660602D01*
G37*
D10*
G04 #@! TO.P,JP4,1*
G04 #@! TO.N,/B8*
X113000000Y-105410000D03*
D11*
G04 #@! TD*
G04 #@! TO.N,/B8*
G04 #@! TO.C,JP4*
G36*
X113550000Y-106160000D02*
X113000000Y-106160000D01*
X113000000Y-106159398D01*
X112975466Y-106159398D01*
X112926635Y-106154588D01*
X112878510Y-106145016D01*
X112831555Y-106130772D01*
X112786222Y-106111995D01*
X112742949Y-106088864D01*
X112702150Y-106061604D01*
X112664221Y-106030476D01*
X112629524Y-105995779D01*
X112598396Y-105957850D01*
X112571136Y-105917051D01*
X112548005Y-105873778D01*
X112529228Y-105828445D01*
X112514984Y-105781490D01*
X112505412Y-105733365D01*
X112500602Y-105684534D01*
X112500602Y-105660000D01*
X112500000Y-105660000D01*
X112500000Y-105160000D01*
X112500602Y-105160000D01*
X112500602Y-105135466D01*
X112505412Y-105086635D01*
X112514984Y-105038510D01*
X112529228Y-104991555D01*
X112548005Y-104946222D01*
X112571136Y-104902949D01*
X112598396Y-104862150D01*
X112629524Y-104824221D01*
X112664221Y-104789524D01*
X112702150Y-104758396D01*
X112742949Y-104731136D01*
X112786222Y-104708005D01*
X112831555Y-104689228D01*
X112878510Y-104674984D01*
X112926635Y-104665412D01*
X112975466Y-104660602D01*
X113000000Y-104660602D01*
X113000000Y-104660000D01*
X113550000Y-104660000D01*
X113550000Y-106160000D01*
X113550000Y-106160000D01*
G37*
D10*
G04 #@! TO.P,JP3,1*
G04 #@! TO.N,/B9LED*
X113000000Y-100330000D03*
D11*
G04 #@! TD*
G04 #@! TO.N,/B9LED*
G04 #@! TO.C,JP3*
G36*
X113550000Y-101080000D02*
X113000000Y-101080000D01*
X113000000Y-101079398D01*
X112975466Y-101079398D01*
X112926635Y-101074588D01*
X112878510Y-101065016D01*
X112831555Y-101050772D01*
X112786222Y-101031995D01*
X112742949Y-101008864D01*
X112702150Y-100981604D01*
X112664221Y-100950476D01*
X112629524Y-100915779D01*
X112598396Y-100877850D01*
X112571136Y-100837051D01*
X112548005Y-100793778D01*
X112529228Y-100748445D01*
X112514984Y-100701490D01*
X112505412Y-100653365D01*
X112500602Y-100604534D01*
X112500602Y-100580000D01*
X112500000Y-100580000D01*
X112500000Y-100080000D01*
X112500602Y-100080000D01*
X112500602Y-100055466D01*
X112505412Y-100006635D01*
X112514984Y-99958510D01*
X112529228Y-99911555D01*
X112548005Y-99866222D01*
X112571136Y-99822949D01*
X112598396Y-99782150D01*
X112629524Y-99744221D01*
X112664221Y-99709524D01*
X112702150Y-99678396D01*
X112742949Y-99651136D01*
X112786222Y-99628005D01*
X112831555Y-99609228D01*
X112878510Y-99594984D01*
X112926635Y-99585412D01*
X112975466Y-99580602D01*
X113000000Y-99580602D01*
X113000000Y-99580000D01*
X113550000Y-99580000D01*
X113550000Y-101080000D01*
X113550000Y-101080000D01*
G37*
D10*
G04 #@! TO.P,JP3,3*
G04 #@! TO.N,/QE1B*
X115600000Y-100330000D03*
D11*
G04 #@! TD*
G04 #@! TO.N,/QE1B*
G04 #@! TO.C,JP3*
G36*
X115600000Y-99580602D02*
X115624534Y-99580602D01*
X115673365Y-99585412D01*
X115721490Y-99594984D01*
X115768445Y-99609228D01*
X115813778Y-99628005D01*
X115857051Y-99651136D01*
X115897850Y-99678396D01*
X115935779Y-99709524D01*
X115970476Y-99744221D01*
X116001604Y-99782150D01*
X116028864Y-99822949D01*
X116051995Y-99866222D01*
X116070772Y-99911555D01*
X116085016Y-99958510D01*
X116094588Y-100006635D01*
X116099398Y-100055466D01*
X116099398Y-100080000D01*
X116100000Y-100080000D01*
X116100000Y-100580000D01*
X116099398Y-100580000D01*
X116099398Y-100604534D01*
X116094588Y-100653365D01*
X116085016Y-100701490D01*
X116070772Y-100748445D01*
X116051995Y-100793778D01*
X116028864Y-100837051D01*
X116001604Y-100877850D01*
X115970476Y-100915779D01*
X115935779Y-100950476D01*
X115897850Y-100981604D01*
X115857051Y-101008864D01*
X115813778Y-101031995D01*
X115768445Y-101050772D01*
X115721490Y-101065016D01*
X115673365Y-101074588D01*
X115624534Y-101079398D01*
X115600000Y-101079398D01*
X115600000Y-101080000D01*
X115050000Y-101080000D01*
X115050000Y-99580000D01*
X115600000Y-99580000D01*
X115600000Y-99580602D01*
X115600000Y-99580602D01*
G37*
D12*
G04 #@! TO.P,JP3,2*
G04 #@! TO.N,/PIN0*
X114300000Y-100330000D03*
G04 #@! TD*
D17*
G04 #@! TO.P,Q8,3*
G04 #@! TO.N,Net-(J12-Pad2)*
X119380000Y-120380000D03*
G04 #@! TO.P,Q8,2*
G04 #@! TO.N,GND*
X118430000Y-118380000D03*
G04 #@! TO.P,Q8,1*
G04 #@! TO.N,/B8LED*
X120330000Y-118380000D03*
G04 #@! TD*
G04 #@! TO.P,Q9,1*
G04 #@! TO.N,/B9LED*
X115250000Y-131080000D03*
G04 #@! TO.P,Q9,2*
G04 #@! TO.N,GND*
X113350000Y-131080000D03*
G04 #@! TO.P,Q9,3*
G04 #@! TO.N,Net-(J14-Pad2)*
X114300000Y-133080000D03*
G04 #@! TD*
G04 #@! TO.P,Q1,3*
G04 #@! TO.N,Net-(J3-Pad2)*
X172720000Y-133080000D03*
G04 #@! TO.P,Q1,2*
G04 #@! TO.N,GND*
X171770000Y-131080000D03*
G04 #@! TO.P,Q1,1*
G04 #@! TO.N,/B1LED*
X173670000Y-131080000D03*
G04 #@! TD*
G04 #@! TO.P,Q2,1*
G04 #@! TO.N,/B2LED*
X166050000Y-118380000D03*
G04 #@! TO.P,Q2,2*
G04 #@! TO.N,GND*
X164150000Y-118380000D03*
G04 #@! TO.P,Q2,3*
G04 #@! TO.N,Net-(J4-Pad2)*
X165100000Y-120380000D03*
G04 #@! TD*
G04 #@! TO.P,Q3,3*
G04 #@! TO.N,Net-(J5-Pad2)*
X157480000Y-133080000D03*
G04 #@! TO.P,Q3,2*
G04 #@! TO.N,GND*
X156530000Y-131080000D03*
G04 #@! TO.P,Q3,1*
G04 #@! TO.N,/B3LED*
X158430000Y-131080000D03*
G04 #@! TD*
G04 #@! TO.P,Q4,1*
G04 #@! TO.N,/B4LED*
X150810000Y-118380000D03*
G04 #@! TO.P,Q4,2*
G04 #@! TO.N,GND*
X148910000Y-118380000D03*
G04 #@! TO.P,Q4,3*
G04 #@! TO.N,Net-(J6-Pad2)*
X149860000Y-120380000D03*
G04 #@! TD*
G04 #@! TO.P,Q5,3*
G04 #@! TO.N,Net-(J8-Pad2)*
X142240000Y-133080000D03*
G04 #@! TO.P,Q5,2*
G04 #@! TO.N,GND*
X141290000Y-131080000D03*
G04 #@! TO.P,Q5,1*
G04 #@! TO.N,/B5LED*
X143190000Y-131080000D03*
G04 #@! TD*
G04 #@! TO.P,Q6,1*
G04 #@! TO.N,/B6LED*
X135570000Y-118380000D03*
G04 #@! TO.P,Q6,2*
G04 #@! TO.N,GND*
X133670000Y-118380000D03*
G04 #@! TO.P,Q6,3*
G04 #@! TO.N,Net-(J9-Pad2)*
X134620000Y-120380000D03*
G04 #@! TD*
G04 #@! TO.P,Q7,3*
G04 #@! TO.N,Net-(J11-Pad2)*
X127000000Y-133080000D03*
G04 #@! TO.P,Q7,2*
G04 #@! TO.N,GND*
X126050000Y-131080000D03*
G04 #@! TO.P,Q7,1*
G04 #@! TO.N,/B7LED*
X127950000Y-131080000D03*
G04 #@! TD*
D18*
G04 #@! TO.N,/B7LED*
X127950000Y-129540000D03*
G04 #@! TO.N,/B6LED*
X137252000Y-117348000D03*
G04 #@! TO.N,/B5LED*
X143190000Y-129286000D03*
G04 #@! TO.N,/B4LED*
X153400000Y-118380000D03*
G04 #@! TO.N,/B3LED*
X160020000Y-127000000D03*
G04 #@! TO.N,/B2LED*
X166050000Y-116840000D03*
G04 #@! TO.N,/B1LED*
X173670000Y-129286000D03*
G04 #@! TO.N,/B9LED*
X111724980Y-102362000D03*
X115250000Y-129286000D03*
G04 #@! TO.N,/PIN0*
X114300000Y-97790000D03*
G04 #@! TO.N,/B8*
X113030000Y-107950000D03*
G04 #@! TO.N,/B9*
X111730000Y-96520000D03*
G04 #@! TO.N,/PIN3*
X114300000Y-107950000D03*
G04 #@! TO.N,/PIN2*
X114300000Y-102870000D03*
G04 #@! TD*
D19*
G04 #@! TO.N,/B7LED*
X127950000Y-131080000D02*
X127950000Y-129540000D01*
G04 #@! TO.N,/B6LED*
X136220000Y-118380000D02*
X135570000Y-118380000D01*
X137252000Y-117348000D02*
X136220000Y-118380000D01*
G04 #@! TO.N,/B5LED*
X143190000Y-129286000D02*
X143190000Y-131080000D01*
G04 #@! TO.N,/B4LED*
X153400000Y-118380000D02*
X153400000Y-118380000D01*
X153400000Y-118380000D02*
X150810000Y-118380000D01*
G04 #@! TO.N,/B3LED*
X158430000Y-128590000D02*
X158430000Y-131080000D01*
X160020000Y-127000000D02*
X158430000Y-128590000D01*
G04 #@! TO.N,/B2LED*
X166050000Y-116840000D02*
X166050000Y-118380000D01*
G04 #@! TO.N,/B1LED*
X173670000Y-131080000D02*
X173670000Y-129286000D01*
G04 #@! TO.N,/B9LED*
X113000000Y-100330000D02*
X111724980Y-101605020D01*
X115250000Y-131080000D02*
X115250000Y-129286000D01*
X111724980Y-101605020D02*
X111724980Y-102362000D01*
G04 #@! TO.N,/B8LED*
X120330000Y-113218000D02*
X120330000Y-118380000D01*
X119507000Y-112395000D02*
X120330000Y-113218000D01*
X114057408Y-112395000D02*
X119507000Y-112395000D01*
X113000000Y-110490000D02*
X113000000Y-111337592D01*
X113000000Y-111337592D02*
X114057408Y-112395000D01*
G04 #@! TO.N,/QE1B*
X125690000Y-99100000D02*
X125690000Y-97790000D01*
X115600000Y-100330000D02*
X124460000Y-100330000D01*
X124460000Y-100330000D02*
X125690000Y-99100000D01*
G04 #@! TO.N,/PIN0*
X114300000Y-100330000D02*
X114300000Y-97790000D01*
G04 #@! TO.N,/PIN1*
X114300000Y-94250000D02*
X118380000Y-90170000D01*
X114300000Y-95250000D02*
X114300000Y-94250000D01*
X180340000Y-91610000D02*
X180340000Y-92710000D01*
X178900000Y-90170000D02*
X180340000Y-91610000D01*
X118380000Y-90170000D02*
X178900000Y-90170000D01*
G04 #@! TO.N,/QE1A*
X123190000Y-96665000D02*
X123190000Y-97790000D01*
X121775000Y-95250000D02*
X123190000Y-96665000D01*
X115600000Y-95250000D02*
X121775000Y-95250000D01*
G04 #@! TO.N,/B8*
X113000000Y-105410000D02*
X113000000Y-107920000D01*
X113000000Y-107920000D02*
X113030000Y-107950000D01*
D20*
G04 #@! TO.N,VBUS*
X181356000Y-120396000D02*
X180116000Y-120396000D01*
X182372000Y-119380000D02*
X181356000Y-120396000D01*
X182372000Y-111332000D02*
X182372000Y-119380000D01*
X180340000Y-107950000D02*
X180340000Y-109300000D01*
X180340000Y-109300000D02*
X182372000Y-111332000D01*
G04 #@! TO.N,+12V*
X177800000Y-114300000D02*
X177800000Y-115824000D01*
X177516000Y-116108000D02*
X177516000Y-120396000D01*
X177800000Y-115824000D02*
X177516000Y-116108000D01*
G04 #@! TO.N,/LED+*
X114220000Y-137160000D02*
X114220000Y-140780000D01*
X121800000Y-124460000D02*
X121800000Y-141200000D01*
X129460000Y-137160000D02*
X129460000Y-140540000D01*
X137080000Y-124460000D02*
X137080000Y-140920000D01*
X144700000Y-137160000D02*
X144700000Y-141300000D01*
X152320000Y-124460000D02*
X152320000Y-140820000D01*
X159940000Y-137160000D02*
X159940000Y-141440000D01*
X175180000Y-138397436D02*
X175158400Y-138419036D01*
X175180000Y-137160000D02*
X175180000Y-138397436D01*
X175158400Y-138419036D02*
X175158400Y-141325600D01*
X167560000Y-125697436D02*
X167589200Y-125726636D01*
X167560000Y-124460000D02*
X167560000Y-125697436D01*
X167589200Y-125726636D02*
X167589200Y-141274800D01*
X178816000Y-121646000D02*
X178816000Y-120396000D01*
X175260000Y-125202000D02*
X178816000Y-121646000D01*
X175260000Y-131064000D02*
X175260000Y-125202000D01*
X179832000Y-135636000D02*
X175260000Y-131064000D01*
X179832000Y-140716000D02*
X179832000Y-135636000D01*
G04 #@! TO.N,+5V*
X172720000Y-97790000D02*
X172720000Y-107950000D01*
X128190000Y-96552564D02*
X129365564Y-95377000D01*
X128190000Y-97790000D02*
X128190000Y-96552564D01*
X129365564Y-95377000D02*
X170307000Y-95377000D01*
X170307000Y-95377000D02*
X172720000Y-97790000D01*
D19*
G04 #@! TO.N,/B9*
X111730000Y-96520000D02*
X111730000Y-96520000D01*
X111730000Y-96520000D02*
X113000000Y-95250000D01*
G04 #@! TO.N,/QE2A*
X123190000Y-106825000D02*
X123190000Y-107950000D01*
X121775000Y-105410000D02*
X123190000Y-106825000D01*
X115600000Y-105410000D02*
X121775000Y-105410000D01*
G04 #@! TO.N,/QE2B*
X124460000Y-110490000D02*
X115600000Y-110490000D01*
X125690000Y-107950000D02*
X125690000Y-109260000D01*
X125690000Y-109260000D02*
X124460000Y-110490000D01*
G04 #@! TO.N,/PIN3*
X114300000Y-110490000D02*
X114300000Y-107950000D01*
G04 #@! TO.N,/PIN2*
X114300000Y-105410000D02*
X114300000Y-102870000D01*
D20*
G04 #@! TO.N,Net-(J11-Pad2)*
X127000000Y-137120000D02*
X126960000Y-137160000D01*
X127000000Y-133080000D02*
X127000000Y-137120000D01*
G04 #@! TO.N,Net-(J9-Pad2)*
X134620000Y-124420000D02*
X134580000Y-124460000D01*
X134620000Y-120380000D02*
X134620000Y-124420000D01*
G04 #@! TO.N,Net-(J8-Pad2)*
X142240000Y-137120000D02*
X142200000Y-137160000D01*
X142240000Y-133080000D02*
X142240000Y-137120000D01*
G04 #@! TO.N,Net-(J6-Pad2)*
X149860000Y-124420000D02*
X149820000Y-124460000D01*
X149860000Y-120380000D02*
X149860000Y-124420000D01*
G04 #@! TO.N,Net-(J5-Pad2)*
X157480000Y-137120000D02*
X157440000Y-137160000D01*
X157480000Y-133080000D02*
X157480000Y-137120000D01*
G04 #@! TO.N,Net-(J4-Pad2)*
X165100000Y-124420000D02*
X165060000Y-124460000D01*
X165100000Y-120380000D02*
X165100000Y-124420000D01*
G04 #@! TO.N,Net-(J3-Pad2)*
X172720000Y-137120000D02*
X172680000Y-137160000D01*
X172720000Y-133080000D02*
X172720000Y-137120000D01*
G04 #@! TO.N,Net-(J14-Pad2)*
X111760000Y-137120000D02*
X111720000Y-137160000D01*
X114300000Y-134580000D02*
X111720000Y-137160000D01*
X114300000Y-133080000D02*
X114300000Y-134580000D01*
G04 #@! TO.N,Net-(J12-Pad2)*
X119380000Y-124380000D02*
X119300000Y-124460000D01*
X119380000Y-120380000D02*
X119380000Y-124380000D01*
G04 #@! TD*
D21*
G04 #@! TO.N,/LED+*
G36*
X182753000Y-141530000D02*
X104267000Y-141530000D01*
X104267000Y-139827000D01*
X182753000Y-139827000D01*
X182753000Y-141530000D01*
X182753000Y-141530000D01*
G37*
X182753000Y-141530000D02*
X104267000Y-141530000D01*
X104267000Y-139827000D01*
X182753000Y-139827000D01*
X182753000Y-141530000D01*
G04 #@! TO.N,GND*
G36*
X183440001Y-139065000D02*
X180717000Y-139065000D01*
X180717000Y-135723159D01*
X180734337Y-135635999D01*
X180717000Y-135548839D01*
X180717000Y-135548835D01*
X180665652Y-135290690D01*
X180470049Y-134997951D01*
X180396156Y-134948577D01*
X176145000Y-130697422D01*
X176145000Y-128815431D01*
X176977000Y-128815431D01*
X176977000Y-129704569D01*
X177317259Y-130526026D01*
X177945974Y-131154741D01*
X178767431Y-131495000D01*
X179656569Y-131495000D01*
X180478026Y-131154741D01*
X181106741Y-130526026D01*
X181447000Y-129704569D01*
X181447000Y-128815431D01*
X181106741Y-127993974D01*
X180478026Y-127365259D01*
X179656569Y-127025000D01*
X178767431Y-127025000D01*
X177945974Y-127365259D01*
X177317259Y-127993974D01*
X176977000Y-128815431D01*
X176145000Y-128815431D01*
X176145000Y-125568578D01*
X179380156Y-122333423D01*
X179454049Y-122284049D01*
X179649652Y-121991310D01*
X179689011Y-121793440D01*
X180116000Y-121793440D01*
X180128106Y-121791032D01*
X180165009Y-121791032D01*
X180291318Y-121778592D01*
X180387451Y-121759470D01*
X180508904Y-121722628D01*
X180599460Y-121685119D01*
X180711397Y-121625287D01*
X180792896Y-121570831D01*
X180891006Y-121490314D01*
X180960314Y-121421006D01*
X181040831Y-121322896D01*
X181068825Y-121281000D01*
X181268839Y-121281000D01*
X181356000Y-121298337D01*
X181443161Y-121281000D01*
X181443165Y-121281000D01*
X181701310Y-121229652D01*
X181994049Y-121034049D01*
X182043425Y-120960153D01*
X182936156Y-120067423D01*
X183010049Y-120018049D01*
X183205652Y-119725310D01*
X183257000Y-119467165D01*
X183257000Y-119467161D01*
X183274337Y-119380000D01*
X183257000Y-119292839D01*
X183257000Y-111419161D01*
X183274337Y-111332000D01*
X183257000Y-111244839D01*
X183257000Y-111244835D01*
X183205652Y-110986690D01*
X183059424Y-110767845D01*
X183059423Y-110767844D01*
X183010049Y-110693951D01*
X182936156Y-110644577D01*
X181588810Y-109297231D01*
X181647809Y-109257809D01*
X181788157Y-109047765D01*
X181837440Y-108800000D01*
X181837440Y-107100000D01*
X181788157Y-106852235D01*
X181647809Y-106642191D01*
X181437765Y-106501843D01*
X181190000Y-106452560D01*
X179490000Y-106452560D01*
X179242235Y-106501843D01*
X179032191Y-106642191D01*
X178891843Y-106852235D01*
X178871261Y-106955708D01*
X178566924Y-106678355D01*
X178156890Y-106508524D01*
X177927000Y-106629845D01*
X177927000Y-107823000D01*
X177947000Y-107823000D01*
X177947000Y-108077000D01*
X177927000Y-108077000D01*
X177927000Y-109270155D01*
X178156890Y-109391476D01*
X178566924Y-109221645D01*
X178871261Y-108944292D01*
X178891843Y-109047765D01*
X179032191Y-109257809D01*
X179242235Y-109398157D01*
X179466042Y-109442675D01*
X179506348Y-109645309D01*
X179652576Y-109864154D01*
X179652578Y-109864156D01*
X179701952Y-109938049D01*
X179775845Y-109987423D01*
X181487000Y-111698579D01*
X181487000Y-113458556D01*
X181362060Y-113417545D01*
X180479605Y-114300000D01*
X181362060Y-115182455D01*
X181487000Y-115141444D01*
X181487001Y-119013420D01*
X181036543Y-119463879D01*
X180960314Y-119370994D01*
X180891006Y-119301686D01*
X180792896Y-119221169D01*
X180711397Y-119166713D01*
X180599460Y-119106881D01*
X180508904Y-119069372D01*
X180387451Y-119032530D01*
X180291318Y-119013408D01*
X180165009Y-119000968D01*
X180128106Y-119000968D01*
X180116000Y-118998560D01*
X179566000Y-118998560D01*
X179441000Y-119023424D01*
X179316000Y-118998560D01*
X178401000Y-118998560D01*
X178401000Y-116486804D01*
X178438049Y-116462049D01*
X178633652Y-116169310D01*
X178685000Y-115911165D01*
X178685000Y-115911161D01*
X178702337Y-115824000D01*
X178700998Y-115817269D01*
X178922765Y-115773157D01*
X179132809Y-115632809D01*
X179263475Y-115437255D01*
X179302914Y-115476694D01*
X179417546Y-115362062D01*
X179500884Y-115615953D01*
X180065306Y-115821590D01*
X180665458Y-115795579D01*
X181099116Y-115615953D01*
X181182455Y-115362060D01*
X180300000Y-114479605D01*
X180285858Y-114493748D01*
X180106253Y-114314143D01*
X180120395Y-114300000D01*
X180106253Y-114285858D01*
X180285858Y-114106253D01*
X180300000Y-114120395D01*
X181182455Y-113237940D01*
X181099116Y-112984047D01*
X180534694Y-112778410D01*
X179934542Y-112804421D01*
X179500884Y-112984047D01*
X179417546Y-113237938D01*
X179302914Y-113123306D01*
X179263475Y-113162745D01*
X179132809Y-112967191D01*
X178922765Y-112826843D01*
X178675000Y-112777560D01*
X176925000Y-112777560D01*
X176677235Y-112826843D01*
X176467191Y-112967191D01*
X176326843Y-113177235D01*
X176277560Y-113425000D01*
X176277560Y-115175000D01*
X176326843Y-115422765D01*
X176467191Y-115632809D01*
X176677235Y-115773157D01*
X176680151Y-115773737D01*
X176631000Y-116020836D01*
X176631000Y-116020839D01*
X176613663Y-116108000D01*
X176631000Y-116195161D01*
X176631001Y-119420569D01*
X176591169Y-119469104D01*
X176536713Y-119550603D01*
X176476881Y-119662540D01*
X176439372Y-119753096D01*
X176402530Y-119874549D01*
X176383408Y-119970682D01*
X176370968Y-120096991D01*
X176370968Y-120133894D01*
X176368560Y-120146000D01*
X176368560Y-120646000D01*
X176370968Y-120658106D01*
X176370968Y-120695009D01*
X176383408Y-120821318D01*
X176402530Y-120917451D01*
X176439372Y-121038904D01*
X176476881Y-121129460D01*
X176536713Y-121241397D01*
X176591169Y-121322896D01*
X176671686Y-121421006D01*
X176740994Y-121490314D01*
X176839104Y-121570831D01*
X176920603Y-121625287D01*
X177032540Y-121685119D01*
X177123096Y-121722628D01*
X177244549Y-121759470D01*
X177340682Y-121778592D01*
X177423657Y-121786764D01*
X174695845Y-124514577D01*
X174621952Y-124563951D01*
X174572578Y-124637844D01*
X174572576Y-124637846D01*
X174426348Y-124856691D01*
X174357663Y-125202000D01*
X174375001Y-125289165D01*
X174375000Y-128527289D01*
X174256280Y-128408569D01*
X173875874Y-128251000D01*
X173464126Y-128251000D01*
X173083720Y-128408569D01*
X172792569Y-128699720D01*
X172635000Y-129080126D01*
X172635000Y-129491874D01*
X172792569Y-129872280D01*
X172910001Y-129989712D01*
X172910001Y-130106836D01*
X172812191Y-130172191D01*
X172722987Y-130305694D01*
X172708327Y-130270302D01*
X172529699Y-130091673D01*
X172296310Y-129995000D01*
X172055750Y-129995000D01*
X171897000Y-130153750D01*
X171897000Y-130953000D01*
X171917000Y-130953000D01*
X171917000Y-131207000D01*
X171897000Y-131207000D01*
X171897000Y-132006250D01*
X171982531Y-132091781D01*
X171862191Y-132172191D01*
X171721843Y-132382235D01*
X171672560Y-132630000D01*
X171672560Y-133530000D01*
X171721843Y-133777765D01*
X171835000Y-133947115D01*
X171835001Y-135875598D01*
X171824654Y-135879884D01*
X171655504Y-136049034D01*
X171653157Y-136037235D01*
X171512809Y-135827191D01*
X171302765Y-135686843D01*
X171055000Y-135637560D01*
X169305000Y-135637560D01*
X169057235Y-135686843D01*
X168847191Y-135827191D01*
X168706843Y-136037235D01*
X168657560Y-136285000D01*
X168657560Y-138035000D01*
X168706843Y-138282765D01*
X168847191Y-138492809D01*
X169057235Y-138633157D01*
X169305000Y-138682440D01*
X171055000Y-138682440D01*
X171302765Y-138633157D01*
X171512809Y-138492809D01*
X171653157Y-138282765D01*
X171655504Y-138270966D01*
X171824654Y-138440116D01*
X172379642Y-138670000D01*
X172980358Y-138670000D01*
X173535346Y-138440116D01*
X173930000Y-138045462D01*
X174263945Y-138379407D01*
X174256063Y-138419036D01*
X174273400Y-138506197D01*
X174273400Y-139065000D01*
X168474200Y-139065000D01*
X168474200Y-131365750D01*
X170735000Y-131365750D01*
X170735000Y-131656309D01*
X170831673Y-131889698D01*
X171010301Y-132068327D01*
X171243690Y-132165000D01*
X171484250Y-132165000D01*
X171643000Y-132006250D01*
X171643000Y-131207000D01*
X170893750Y-131207000D01*
X170735000Y-131365750D01*
X168474200Y-131365750D01*
X168474200Y-130503691D01*
X170735000Y-130503691D01*
X170735000Y-130794250D01*
X170893750Y-130953000D01*
X171643000Y-130953000D01*
X171643000Y-130153750D01*
X171484250Y-129995000D01*
X171243690Y-129995000D01*
X171010301Y-130091673D01*
X170831673Y-130270302D01*
X170735000Y-130503691D01*
X168474200Y-130503691D01*
X168474200Y-125813795D01*
X168491537Y-125726635D01*
X168481133Y-125674329D01*
X168633402Y-125522060D01*
X169177545Y-125522060D01*
X169260884Y-125775953D01*
X169825306Y-125981590D01*
X170425458Y-125955579D01*
X170859116Y-125775953D01*
X170942455Y-125522060D01*
X170060000Y-124639605D01*
X169177545Y-125522060D01*
X168633402Y-125522060D01*
X168840116Y-125315346D01*
X168849121Y-125293606D01*
X168997940Y-125342455D01*
X169880395Y-124460000D01*
X170239605Y-124460000D01*
X171122060Y-125342455D01*
X171375953Y-125259116D01*
X171581590Y-124694694D01*
X171555579Y-124094542D01*
X171375953Y-123660884D01*
X171122060Y-123577545D01*
X170239605Y-124460000D01*
X169880395Y-124460000D01*
X168997940Y-123577545D01*
X168849121Y-123626394D01*
X168840116Y-123604654D01*
X168633402Y-123397940D01*
X169177545Y-123397940D01*
X170060000Y-124280395D01*
X170942455Y-123397940D01*
X170859116Y-123144047D01*
X170294694Y-122938410D01*
X169694542Y-122964421D01*
X169260884Y-123144047D01*
X169177545Y-123397940D01*
X168633402Y-123397940D01*
X168415346Y-123179884D01*
X167860358Y-122950000D01*
X167259642Y-122950000D01*
X166704654Y-123179884D01*
X166310000Y-123574538D01*
X165985000Y-123249538D01*
X165985000Y-121247115D01*
X166098157Y-121077765D01*
X166147440Y-120830000D01*
X166147440Y-119930000D01*
X166098157Y-119682235D01*
X165961316Y-119477440D01*
X166450000Y-119477440D01*
X166697765Y-119428157D01*
X166907809Y-119287809D01*
X167048157Y-119077765D01*
X167097440Y-118830000D01*
X167097440Y-117930000D01*
X167048157Y-117682235D01*
X166907809Y-117472191D01*
X166892050Y-117461661D01*
X166927431Y-117426280D01*
X167085000Y-117045874D01*
X167085000Y-116634126D01*
X166927431Y-116253720D01*
X166636280Y-115962569D01*
X166255874Y-115805000D01*
X165844126Y-115805000D01*
X165463720Y-115962569D01*
X165172569Y-116253720D01*
X165015000Y-116634126D01*
X165015000Y-117045874D01*
X165172569Y-117426280D01*
X165207950Y-117461661D01*
X165192191Y-117472191D01*
X165102987Y-117605694D01*
X165088327Y-117570302D01*
X164909699Y-117391673D01*
X164676310Y-117295000D01*
X164435750Y-117295000D01*
X164277000Y-117453750D01*
X164277000Y-118253000D01*
X164297000Y-118253000D01*
X164297000Y-118507000D01*
X164277000Y-118507000D01*
X164277000Y-119306250D01*
X164362531Y-119391781D01*
X164242191Y-119472191D01*
X164101843Y-119682235D01*
X164052560Y-119930000D01*
X164052560Y-120830000D01*
X164101843Y-121077765D01*
X164215000Y-121247115D01*
X164215001Y-123175598D01*
X164204654Y-123179884D01*
X164035504Y-123349034D01*
X164033157Y-123337235D01*
X163892809Y-123127191D01*
X163682765Y-122986843D01*
X163435000Y-122937560D01*
X161685000Y-122937560D01*
X161437235Y-122986843D01*
X161227191Y-123127191D01*
X161086843Y-123337235D01*
X161037560Y-123585000D01*
X161037560Y-125335000D01*
X161086843Y-125582765D01*
X161227191Y-125792809D01*
X161437235Y-125933157D01*
X161685000Y-125982440D01*
X163435000Y-125982440D01*
X163682765Y-125933157D01*
X163892809Y-125792809D01*
X164033157Y-125582765D01*
X164035504Y-125570966D01*
X164204654Y-125740116D01*
X164759642Y-125970000D01*
X165360358Y-125970000D01*
X165915346Y-125740116D01*
X166310000Y-125345462D01*
X166658378Y-125693840D01*
X166657663Y-125697436D01*
X166704200Y-125931398D01*
X166704201Y-139065000D01*
X160825000Y-139065000D01*
X160825000Y-138410462D01*
X161013402Y-138222060D01*
X161557545Y-138222060D01*
X161640884Y-138475953D01*
X162205306Y-138681590D01*
X162805458Y-138655579D01*
X163239116Y-138475953D01*
X163322455Y-138222060D01*
X162440000Y-137339605D01*
X161557545Y-138222060D01*
X161013402Y-138222060D01*
X161220116Y-138015346D01*
X161229121Y-137993606D01*
X161377940Y-138042455D01*
X162260395Y-137160000D01*
X162619605Y-137160000D01*
X163502060Y-138042455D01*
X163755953Y-137959116D01*
X163961590Y-137394694D01*
X163935579Y-136794542D01*
X163755953Y-136360884D01*
X163502060Y-136277545D01*
X162619605Y-137160000D01*
X162260395Y-137160000D01*
X161377940Y-136277545D01*
X161229121Y-136326394D01*
X161220116Y-136304654D01*
X161013402Y-136097940D01*
X161557545Y-136097940D01*
X162440000Y-136980395D01*
X163322455Y-136097940D01*
X163239116Y-135844047D01*
X162674694Y-135638410D01*
X162074542Y-135664421D01*
X161640884Y-135844047D01*
X161557545Y-136097940D01*
X161013402Y-136097940D01*
X160795346Y-135879884D01*
X160240358Y-135650000D01*
X159639642Y-135650000D01*
X159084654Y-135879884D01*
X158690000Y-136274538D01*
X158365000Y-135949538D01*
X158365000Y-133947115D01*
X158478157Y-133777765D01*
X158527440Y-133530000D01*
X158527440Y-132630000D01*
X158478157Y-132382235D01*
X158341316Y-132177440D01*
X158830000Y-132177440D01*
X159077765Y-132128157D01*
X159287809Y-131987809D01*
X159428157Y-131777765D01*
X159477440Y-131530000D01*
X159477440Y-130630000D01*
X159428157Y-130382235D01*
X159287809Y-130172191D01*
X159190000Y-130106837D01*
X159190000Y-128904801D01*
X160059802Y-128035000D01*
X160225874Y-128035000D01*
X160606280Y-127877431D01*
X160897431Y-127586280D01*
X161055000Y-127205874D01*
X161055000Y-126794126D01*
X160897431Y-126413720D01*
X160606280Y-126122569D01*
X160225874Y-125965000D01*
X159814126Y-125965000D01*
X159433720Y-126122569D01*
X159142569Y-126413720D01*
X158985000Y-126794126D01*
X158985000Y-126960198D01*
X157945530Y-127999669D01*
X157882071Y-128042071D01*
X157714096Y-128293464D01*
X157670000Y-128515149D01*
X157670000Y-128515153D01*
X157655112Y-128590000D01*
X157670000Y-128664847D01*
X157670001Y-130106836D01*
X157572191Y-130172191D01*
X157482987Y-130305694D01*
X157468327Y-130270302D01*
X157289699Y-130091673D01*
X157056310Y-129995000D01*
X156815750Y-129995000D01*
X156657000Y-130153750D01*
X156657000Y-130953000D01*
X156677000Y-130953000D01*
X156677000Y-131207000D01*
X156657000Y-131207000D01*
X156657000Y-132006250D01*
X156742531Y-132091781D01*
X156622191Y-132172191D01*
X156481843Y-132382235D01*
X156432560Y-132630000D01*
X156432560Y-133530000D01*
X156481843Y-133777765D01*
X156595000Y-133947115D01*
X156595001Y-135875598D01*
X156584654Y-135879884D01*
X156415504Y-136049034D01*
X156413157Y-136037235D01*
X156272809Y-135827191D01*
X156062765Y-135686843D01*
X155815000Y-135637560D01*
X154065000Y-135637560D01*
X153817235Y-135686843D01*
X153607191Y-135827191D01*
X153466843Y-136037235D01*
X153417560Y-136285000D01*
X153417560Y-138035000D01*
X153466843Y-138282765D01*
X153607191Y-138492809D01*
X153817235Y-138633157D01*
X154065000Y-138682440D01*
X155815000Y-138682440D01*
X156062765Y-138633157D01*
X156272809Y-138492809D01*
X156413157Y-138282765D01*
X156415504Y-138270966D01*
X156584654Y-138440116D01*
X157139642Y-138670000D01*
X157740358Y-138670000D01*
X158295346Y-138440116D01*
X158690000Y-138045462D01*
X159055000Y-138410462D01*
X159055000Y-139065000D01*
X153205000Y-139065000D01*
X153205000Y-131365750D01*
X155495000Y-131365750D01*
X155495000Y-131656309D01*
X155591673Y-131889698D01*
X155770301Y-132068327D01*
X156003690Y-132165000D01*
X156244250Y-132165000D01*
X156403000Y-132006250D01*
X156403000Y-131207000D01*
X155653750Y-131207000D01*
X155495000Y-131365750D01*
X153205000Y-131365750D01*
X153205000Y-130503691D01*
X155495000Y-130503691D01*
X155495000Y-130794250D01*
X155653750Y-130953000D01*
X156403000Y-130953000D01*
X156403000Y-130153750D01*
X156244250Y-129995000D01*
X156003690Y-129995000D01*
X155770301Y-130091673D01*
X155591673Y-130270302D01*
X155495000Y-130503691D01*
X153205000Y-130503691D01*
X153205000Y-125710462D01*
X153393402Y-125522060D01*
X153937545Y-125522060D01*
X154020884Y-125775953D01*
X154585306Y-125981590D01*
X155185458Y-125955579D01*
X155619116Y-125775953D01*
X155702455Y-125522060D01*
X154820000Y-124639605D01*
X153937545Y-125522060D01*
X153393402Y-125522060D01*
X153600116Y-125315346D01*
X153609121Y-125293606D01*
X153757940Y-125342455D01*
X154640395Y-124460000D01*
X154999605Y-124460000D01*
X155882060Y-125342455D01*
X156135953Y-125259116D01*
X156341590Y-124694694D01*
X156315579Y-124094542D01*
X156135953Y-123660884D01*
X155882060Y-123577545D01*
X154999605Y-124460000D01*
X154640395Y-124460000D01*
X153757940Y-123577545D01*
X153609121Y-123626394D01*
X153600116Y-123604654D01*
X153393402Y-123397940D01*
X153937545Y-123397940D01*
X154820000Y-124280395D01*
X155702455Y-123397940D01*
X155619116Y-123144047D01*
X155054694Y-122938410D01*
X154454542Y-122964421D01*
X154020884Y-123144047D01*
X153937545Y-123397940D01*
X153393402Y-123397940D01*
X153175346Y-123179884D01*
X152620358Y-122950000D01*
X152019642Y-122950000D01*
X151464654Y-123179884D01*
X151070000Y-123574538D01*
X150745000Y-123249538D01*
X150745000Y-121247115D01*
X150858157Y-121077765D01*
X150907440Y-120830000D01*
X150907440Y-119930000D01*
X150858157Y-119682235D01*
X150721316Y-119477440D01*
X151210000Y-119477440D01*
X151457765Y-119428157D01*
X151667809Y-119287809D01*
X151766573Y-119140000D01*
X152696289Y-119140000D01*
X152813720Y-119257431D01*
X153194126Y-119415000D01*
X153605874Y-119415000D01*
X153986280Y-119257431D01*
X154277431Y-118966280D01*
X154401914Y-118665750D01*
X163115000Y-118665750D01*
X163115000Y-118956309D01*
X163211673Y-119189698D01*
X163390301Y-119368327D01*
X163623690Y-119465000D01*
X163864250Y-119465000D01*
X164023000Y-119306250D01*
X164023000Y-118507000D01*
X163273750Y-118507000D01*
X163115000Y-118665750D01*
X154401914Y-118665750D01*
X154435000Y-118585874D01*
X154435000Y-118174126D01*
X154281562Y-117803691D01*
X163115000Y-117803691D01*
X163115000Y-118094250D01*
X163273750Y-118253000D01*
X164023000Y-118253000D01*
X164023000Y-117453750D01*
X163864250Y-117295000D01*
X163623690Y-117295000D01*
X163390301Y-117391673D01*
X163211673Y-117570302D01*
X163115000Y-117803691D01*
X154281562Y-117803691D01*
X154277431Y-117793720D01*
X153986280Y-117502569D01*
X153605874Y-117345000D01*
X153194126Y-117345000D01*
X152813720Y-117502569D01*
X152696289Y-117620000D01*
X151766573Y-117620000D01*
X151667809Y-117472191D01*
X151457765Y-117331843D01*
X151210000Y-117282560D01*
X150410000Y-117282560D01*
X150162235Y-117331843D01*
X149952191Y-117472191D01*
X149862987Y-117605694D01*
X149848327Y-117570302D01*
X149669699Y-117391673D01*
X149436310Y-117295000D01*
X149195750Y-117295000D01*
X149037000Y-117453750D01*
X149037000Y-118253000D01*
X149057000Y-118253000D01*
X149057000Y-118507000D01*
X149037000Y-118507000D01*
X149037000Y-119306250D01*
X149122531Y-119391781D01*
X149002191Y-119472191D01*
X148861843Y-119682235D01*
X148812560Y-119930000D01*
X148812560Y-120830000D01*
X148861843Y-121077765D01*
X148975000Y-121247115D01*
X148975001Y-123175598D01*
X148964654Y-123179884D01*
X148795504Y-123349034D01*
X148793157Y-123337235D01*
X148652809Y-123127191D01*
X148442765Y-122986843D01*
X148195000Y-122937560D01*
X146445000Y-122937560D01*
X146197235Y-122986843D01*
X145987191Y-123127191D01*
X145846843Y-123337235D01*
X145797560Y-123585000D01*
X145797560Y-125335000D01*
X145846843Y-125582765D01*
X145987191Y-125792809D01*
X146197235Y-125933157D01*
X146445000Y-125982440D01*
X148195000Y-125982440D01*
X148442765Y-125933157D01*
X148652809Y-125792809D01*
X148793157Y-125582765D01*
X148795504Y-125570966D01*
X148964654Y-125740116D01*
X149519642Y-125970000D01*
X150120358Y-125970000D01*
X150675346Y-125740116D01*
X151070000Y-125345462D01*
X151435000Y-125710462D01*
X151435001Y-139065000D01*
X145585000Y-139065000D01*
X145585000Y-138410462D01*
X145773402Y-138222060D01*
X146317545Y-138222060D01*
X146400884Y-138475953D01*
X146965306Y-138681590D01*
X147565458Y-138655579D01*
X147999116Y-138475953D01*
X148082455Y-138222060D01*
X147200000Y-137339605D01*
X146317545Y-138222060D01*
X145773402Y-138222060D01*
X145980116Y-138015346D01*
X145989121Y-137993606D01*
X146137940Y-138042455D01*
X147020395Y-137160000D01*
X147379605Y-137160000D01*
X148262060Y-138042455D01*
X148515953Y-137959116D01*
X148721590Y-137394694D01*
X148695579Y-136794542D01*
X148515953Y-136360884D01*
X148262060Y-136277545D01*
X147379605Y-137160000D01*
X147020395Y-137160000D01*
X146137940Y-136277545D01*
X145989121Y-136326394D01*
X145980116Y-136304654D01*
X145773402Y-136097940D01*
X146317545Y-136097940D01*
X147200000Y-136980395D01*
X148082455Y-136097940D01*
X147999116Y-135844047D01*
X147434694Y-135638410D01*
X146834542Y-135664421D01*
X146400884Y-135844047D01*
X146317545Y-136097940D01*
X145773402Y-136097940D01*
X145555346Y-135879884D01*
X145000358Y-135650000D01*
X144399642Y-135650000D01*
X143844654Y-135879884D01*
X143450000Y-136274538D01*
X143125000Y-135949538D01*
X143125000Y-133947115D01*
X143238157Y-133777765D01*
X143287440Y-133530000D01*
X143287440Y-132630000D01*
X143238157Y-132382235D01*
X143101316Y-132177440D01*
X143590000Y-132177440D01*
X143837765Y-132128157D01*
X144047809Y-131987809D01*
X144188157Y-131777765D01*
X144237440Y-131530000D01*
X144237440Y-130630000D01*
X144188157Y-130382235D01*
X144047809Y-130172191D01*
X143950000Y-130106837D01*
X143950000Y-129989711D01*
X144067431Y-129872280D01*
X144225000Y-129491874D01*
X144225000Y-129080126D01*
X144067431Y-128699720D01*
X143776280Y-128408569D01*
X143395874Y-128251000D01*
X142984126Y-128251000D01*
X142603720Y-128408569D01*
X142312569Y-128699720D01*
X142155000Y-129080126D01*
X142155000Y-129491874D01*
X142312569Y-129872280D01*
X142430000Y-129989711D01*
X142430000Y-130106836D01*
X142332191Y-130172191D01*
X142242987Y-130305694D01*
X142228327Y-130270302D01*
X142049699Y-130091673D01*
X141816310Y-129995000D01*
X141575750Y-129995000D01*
X141417000Y-130153750D01*
X141417000Y-130953000D01*
X141437000Y-130953000D01*
X141437000Y-131207000D01*
X141417000Y-131207000D01*
X141417000Y-132006250D01*
X141502531Y-132091781D01*
X141382191Y-132172191D01*
X141241843Y-132382235D01*
X141192560Y-132630000D01*
X141192560Y-133530000D01*
X141241843Y-133777765D01*
X141355000Y-133947115D01*
X141355001Y-135875598D01*
X141344654Y-135879884D01*
X141175504Y-136049034D01*
X141173157Y-136037235D01*
X141032809Y-135827191D01*
X140822765Y-135686843D01*
X140575000Y-135637560D01*
X138825000Y-135637560D01*
X138577235Y-135686843D01*
X138367191Y-135827191D01*
X138226843Y-136037235D01*
X138177560Y-136285000D01*
X138177560Y-138035000D01*
X138226843Y-138282765D01*
X138367191Y-138492809D01*
X138577235Y-138633157D01*
X138825000Y-138682440D01*
X140575000Y-138682440D01*
X140822765Y-138633157D01*
X141032809Y-138492809D01*
X141173157Y-138282765D01*
X141175504Y-138270966D01*
X141344654Y-138440116D01*
X141899642Y-138670000D01*
X142500358Y-138670000D01*
X143055346Y-138440116D01*
X143450000Y-138045462D01*
X143815000Y-138410462D01*
X143815000Y-139065000D01*
X137965000Y-139065000D01*
X137965000Y-131365750D01*
X140255000Y-131365750D01*
X140255000Y-131656309D01*
X140351673Y-131889698D01*
X140530301Y-132068327D01*
X140763690Y-132165000D01*
X141004250Y-132165000D01*
X141163000Y-132006250D01*
X141163000Y-131207000D01*
X140413750Y-131207000D01*
X140255000Y-131365750D01*
X137965000Y-131365750D01*
X137965000Y-130503691D01*
X140255000Y-130503691D01*
X140255000Y-130794250D01*
X140413750Y-130953000D01*
X141163000Y-130953000D01*
X141163000Y-130153750D01*
X141004250Y-129995000D01*
X140763690Y-129995000D01*
X140530301Y-130091673D01*
X140351673Y-130270302D01*
X140255000Y-130503691D01*
X137965000Y-130503691D01*
X137965000Y-125710462D01*
X138153402Y-125522060D01*
X138697545Y-125522060D01*
X138780884Y-125775953D01*
X139345306Y-125981590D01*
X139945458Y-125955579D01*
X140379116Y-125775953D01*
X140462455Y-125522060D01*
X139580000Y-124639605D01*
X138697545Y-125522060D01*
X138153402Y-125522060D01*
X138360116Y-125315346D01*
X138369121Y-125293606D01*
X138517940Y-125342455D01*
X139400395Y-124460000D01*
X139759605Y-124460000D01*
X140642060Y-125342455D01*
X140895953Y-125259116D01*
X141101590Y-124694694D01*
X141075579Y-124094542D01*
X140895953Y-123660884D01*
X140642060Y-123577545D01*
X139759605Y-124460000D01*
X139400395Y-124460000D01*
X138517940Y-123577545D01*
X138369121Y-123626394D01*
X138360116Y-123604654D01*
X138153402Y-123397940D01*
X138697545Y-123397940D01*
X139580000Y-124280395D01*
X140462455Y-123397940D01*
X140379116Y-123144047D01*
X139814694Y-122938410D01*
X139214542Y-122964421D01*
X138780884Y-123144047D01*
X138697545Y-123397940D01*
X138153402Y-123397940D01*
X137935346Y-123179884D01*
X137380358Y-122950000D01*
X136779642Y-122950000D01*
X136224654Y-123179884D01*
X135830000Y-123574538D01*
X135505000Y-123249538D01*
X135505000Y-121247115D01*
X135618157Y-121077765D01*
X135667440Y-120830000D01*
X135667440Y-119930000D01*
X135618157Y-119682235D01*
X135481316Y-119477440D01*
X135970000Y-119477440D01*
X136217765Y-119428157D01*
X136427809Y-119287809D01*
X136568157Y-119077765D01*
X136571908Y-119058906D01*
X136767929Y-118927929D01*
X136810331Y-118864471D01*
X137009052Y-118665750D01*
X147875000Y-118665750D01*
X147875000Y-118956309D01*
X147971673Y-119189698D01*
X148150301Y-119368327D01*
X148383690Y-119465000D01*
X148624250Y-119465000D01*
X148783000Y-119306250D01*
X148783000Y-118507000D01*
X148033750Y-118507000D01*
X147875000Y-118665750D01*
X137009052Y-118665750D01*
X137291802Y-118383000D01*
X137457874Y-118383000D01*
X137838280Y-118225431D01*
X138129431Y-117934280D01*
X138183522Y-117803691D01*
X147875000Y-117803691D01*
X147875000Y-118094250D01*
X148033750Y-118253000D01*
X148783000Y-118253000D01*
X148783000Y-117453750D01*
X148624250Y-117295000D01*
X148383690Y-117295000D01*
X148150301Y-117391673D01*
X147971673Y-117570302D01*
X147875000Y-117803691D01*
X138183522Y-117803691D01*
X138287000Y-117553874D01*
X138287000Y-117142126D01*
X138129431Y-116761720D01*
X137838280Y-116470569D01*
X137457874Y-116313000D01*
X137046126Y-116313000D01*
X136665720Y-116470569D01*
X136374569Y-116761720D01*
X136217000Y-117142126D01*
X136217000Y-117308198D01*
X136197405Y-117327793D01*
X135970000Y-117282560D01*
X135170000Y-117282560D01*
X134922235Y-117331843D01*
X134712191Y-117472191D01*
X134622987Y-117605694D01*
X134608327Y-117570302D01*
X134429699Y-117391673D01*
X134196310Y-117295000D01*
X133955750Y-117295000D01*
X133797000Y-117453750D01*
X133797000Y-118253000D01*
X133817000Y-118253000D01*
X133817000Y-118507000D01*
X133797000Y-118507000D01*
X133797000Y-119306250D01*
X133882531Y-119391781D01*
X133762191Y-119472191D01*
X133621843Y-119682235D01*
X133572560Y-119930000D01*
X133572560Y-120830000D01*
X133621843Y-121077765D01*
X133735000Y-121247115D01*
X133735001Y-123175598D01*
X133724654Y-123179884D01*
X133555504Y-123349034D01*
X133553157Y-123337235D01*
X133412809Y-123127191D01*
X133202765Y-122986843D01*
X132955000Y-122937560D01*
X131205000Y-122937560D01*
X130957235Y-122986843D01*
X130747191Y-123127191D01*
X130606843Y-123337235D01*
X130557560Y-123585000D01*
X130557560Y-125335000D01*
X130606843Y-125582765D01*
X130747191Y-125792809D01*
X130957235Y-125933157D01*
X131205000Y-125982440D01*
X132955000Y-125982440D01*
X133202765Y-125933157D01*
X133412809Y-125792809D01*
X133553157Y-125582765D01*
X133555504Y-125570966D01*
X133724654Y-125740116D01*
X134279642Y-125970000D01*
X134880358Y-125970000D01*
X135435346Y-125740116D01*
X135830000Y-125345462D01*
X136195000Y-125710462D01*
X136195001Y-139065000D01*
X130345000Y-139065000D01*
X130345000Y-138410462D01*
X130533402Y-138222060D01*
X131077545Y-138222060D01*
X131160884Y-138475953D01*
X131725306Y-138681590D01*
X132325458Y-138655579D01*
X132759116Y-138475953D01*
X132842455Y-138222060D01*
X131960000Y-137339605D01*
X131077545Y-138222060D01*
X130533402Y-138222060D01*
X130740116Y-138015346D01*
X130749121Y-137993606D01*
X130897940Y-138042455D01*
X131780395Y-137160000D01*
X132139605Y-137160000D01*
X133022060Y-138042455D01*
X133275953Y-137959116D01*
X133481590Y-137394694D01*
X133455579Y-136794542D01*
X133275953Y-136360884D01*
X133022060Y-136277545D01*
X132139605Y-137160000D01*
X131780395Y-137160000D01*
X130897940Y-136277545D01*
X130749121Y-136326394D01*
X130740116Y-136304654D01*
X130533402Y-136097940D01*
X131077545Y-136097940D01*
X131960000Y-136980395D01*
X132842455Y-136097940D01*
X132759116Y-135844047D01*
X132194694Y-135638410D01*
X131594542Y-135664421D01*
X131160884Y-135844047D01*
X131077545Y-136097940D01*
X130533402Y-136097940D01*
X130315346Y-135879884D01*
X129760358Y-135650000D01*
X129159642Y-135650000D01*
X128604654Y-135879884D01*
X128210000Y-136274538D01*
X127885000Y-135949538D01*
X127885000Y-133947115D01*
X127998157Y-133777765D01*
X128047440Y-133530000D01*
X128047440Y-132630000D01*
X127998157Y-132382235D01*
X127861316Y-132177440D01*
X128350000Y-132177440D01*
X128597765Y-132128157D01*
X128807809Y-131987809D01*
X128948157Y-131777765D01*
X128997440Y-131530000D01*
X128997440Y-130630000D01*
X128948157Y-130382235D01*
X128807809Y-130172191D01*
X128792050Y-130161661D01*
X128827431Y-130126280D01*
X128985000Y-129745874D01*
X128985000Y-129334126D01*
X128827431Y-128953720D01*
X128536280Y-128662569D01*
X128155874Y-128505000D01*
X127744126Y-128505000D01*
X127363720Y-128662569D01*
X127072569Y-128953720D01*
X126915000Y-129334126D01*
X126915000Y-129745874D01*
X127072569Y-130126280D01*
X127107950Y-130161661D01*
X127092191Y-130172191D01*
X127002987Y-130305694D01*
X126988327Y-130270302D01*
X126809699Y-130091673D01*
X126576310Y-129995000D01*
X126335750Y-129995000D01*
X126177000Y-130153750D01*
X126177000Y-130953000D01*
X126197000Y-130953000D01*
X126197000Y-131207000D01*
X126177000Y-131207000D01*
X126177000Y-132006250D01*
X126262531Y-132091781D01*
X126142191Y-132172191D01*
X126001843Y-132382235D01*
X125952560Y-132630000D01*
X125952560Y-133530000D01*
X126001843Y-133777765D01*
X126115000Y-133947115D01*
X126115001Y-135875598D01*
X126104654Y-135879884D01*
X125935504Y-136049034D01*
X125933157Y-136037235D01*
X125792809Y-135827191D01*
X125582765Y-135686843D01*
X125335000Y-135637560D01*
X123585000Y-135637560D01*
X123337235Y-135686843D01*
X123127191Y-135827191D01*
X122986843Y-136037235D01*
X122937560Y-136285000D01*
X122937560Y-138035000D01*
X122986843Y-138282765D01*
X123127191Y-138492809D01*
X123337235Y-138633157D01*
X123585000Y-138682440D01*
X125335000Y-138682440D01*
X125582765Y-138633157D01*
X125792809Y-138492809D01*
X125933157Y-138282765D01*
X125935504Y-138270966D01*
X126104654Y-138440116D01*
X126659642Y-138670000D01*
X127260358Y-138670000D01*
X127815346Y-138440116D01*
X128210000Y-138045462D01*
X128575000Y-138410462D01*
X128575000Y-139065000D01*
X122685000Y-139065000D01*
X122685000Y-131365750D01*
X125015000Y-131365750D01*
X125015000Y-131656309D01*
X125111673Y-131889698D01*
X125290301Y-132068327D01*
X125523690Y-132165000D01*
X125764250Y-132165000D01*
X125923000Y-132006250D01*
X125923000Y-131207000D01*
X125173750Y-131207000D01*
X125015000Y-131365750D01*
X122685000Y-131365750D01*
X122685000Y-130503691D01*
X125015000Y-130503691D01*
X125015000Y-130794250D01*
X125173750Y-130953000D01*
X125923000Y-130953000D01*
X125923000Y-130153750D01*
X125764250Y-129995000D01*
X125523690Y-129995000D01*
X125290301Y-130091673D01*
X125111673Y-130270302D01*
X125015000Y-130503691D01*
X122685000Y-130503691D01*
X122685000Y-125710462D01*
X122873402Y-125522060D01*
X123417545Y-125522060D01*
X123500884Y-125775953D01*
X124065306Y-125981590D01*
X124665458Y-125955579D01*
X125099116Y-125775953D01*
X125182455Y-125522060D01*
X124300000Y-124639605D01*
X123417545Y-125522060D01*
X122873402Y-125522060D01*
X123080116Y-125315346D01*
X123089121Y-125293606D01*
X123237940Y-125342455D01*
X124120395Y-124460000D01*
X124479605Y-124460000D01*
X125362060Y-125342455D01*
X125615953Y-125259116D01*
X125821590Y-124694694D01*
X125795579Y-124094542D01*
X125615953Y-123660884D01*
X125362060Y-123577545D01*
X124479605Y-124460000D01*
X124120395Y-124460000D01*
X123237940Y-123577545D01*
X123089121Y-123626394D01*
X123080116Y-123604654D01*
X122873402Y-123397940D01*
X123417545Y-123397940D01*
X124300000Y-124280395D01*
X125182455Y-123397940D01*
X125099116Y-123144047D01*
X124534694Y-122938410D01*
X123934542Y-122964421D01*
X123500884Y-123144047D01*
X123417545Y-123397940D01*
X122873402Y-123397940D01*
X122655346Y-123179884D01*
X122100358Y-122950000D01*
X121499642Y-122950000D01*
X120944654Y-123179884D01*
X120550000Y-123574538D01*
X120265000Y-123289538D01*
X120265000Y-121247115D01*
X120378157Y-121077765D01*
X120427440Y-120830000D01*
X120427440Y-119930000D01*
X120378157Y-119682235D01*
X120241316Y-119477440D01*
X120730000Y-119477440D01*
X120977765Y-119428157D01*
X121187809Y-119287809D01*
X121328157Y-119077765D01*
X121377440Y-118830000D01*
X121377440Y-118665750D01*
X132635000Y-118665750D01*
X132635000Y-118956309D01*
X132731673Y-119189698D01*
X132910301Y-119368327D01*
X133143690Y-119465000D01*
X133384250Y-119465000D01*
X133543000Y-119306250D01*
X133543000Y-118507000D01*
X132793750Y-118507000D01*
X132635000Y-118665750D01*
X121377440Y-118665750D01*
X121377440Y-117930000D01*
X121352316Y-117803691D01*
X132635000Y-117803691D01*
X132635000Y-118094250D01*
X132793750Y-118253000D01*
X133543000Y-118253000D01*
X133543000Y-117453750D01*
X133384250Y-117295000D01*
X133143690Y-117295000D01*
X132910301Y-117391673D01*
X132731673Y-117570302D01*
X132635000Y-117803691D01*
X121352316Y-117803691D01*
X121328157Y-117682235D01*
X121187809Y-117472191D01*
X121090000Y-117406837D01*
X121090000Y-113292848D01*
X121104888Y-113218000D01*
X121090000Y-113143152D01*
X121090000Y-113143148D01*
X121045904Y-112921463D01*
X121045904Y-112921462D01*
X120920329Y-112733527D01*
X120877929Y-112670071D01*
X120814473Y-112627671D01*
X120097331Y-111910530D01*
X120054929Y-111847071D01*
X119803537Y-111679096D01*
X119581852Y-111635000D01*
X119581847Y-111635000D01*
X119507000Y-111620112D01*
X119432153Y-111635000D01*
X116313245Y-111635000D01*
X116375006Y-111584314D01*
X116444314Y-111515006D01*
X116524831Y-111416896D01*
X116579287Y-111335397D01*
X116624933Y-111250000D01*
X124385153Y-111250000D01*
X124460000Y-111264888D01*
X124534847Y-111250000D01*
X124534852Y-111250000D01*
X124756537Y-111205904D01*
X125007929Y-111037929D01*
X125050331Y-110974470D01*
X126174473Y-109850329D01*
X126237929Y-109807929D01*
X126346588Y-109645310D01*
X126405904Y-109556538D01*
X126432435Y-109423157D01*
X126450000Y-109334852D01*
X126450000Y-109334848D01*
X126464142Y-109263752D01*
X126545346Y-109230116D01*
X126940000Y-108835462D01*
X127334654Y-109230116D01*
X127889642Y-109460000D01*
X128490358Y-109460000D01*
X129045346Y-109230116D01*
X129263402Y-109012060D01*
X129807545Y-109012060D01*
X129890884Y-109265953D01*
X130455306Y-109471590D01*
X131055458Y-109445579D01*
X131489116Y-109265953D01*
X131572455Y-109012060D01*
X130690000Y-108129605D01*
X129807545Y-109012060D01*
X129263402Y-109012060D01*
X129470116Y-108805346D01*
X129479121Y-108783606D01*
X129627940Y-108832455D01*
X130510395Y-107950000D01*
X130869605Y-107950000D01*
X131752060Y-108832455D01*
X132005953Y-108749116D01*
X132211590Y-108184694D01*
X132185579Y-107584542D01*
X132005953Y-107150884D01*
X131752060Y-107067545D01*
X130869605Y-107950000D01*
X130510395Y-107950000D01*
X129627940Y-107067545D01*
X129479121Y-107116394D01*
X129470116Y-107094654D01*
X129263402Y-106887940D01*
X129807545Y-106887940D01*
X130690000Y-107770395D01*
X131572455Y-106887940D01*
X131489116Y-106634047D01*
X130924694Y-106428410D01*
X130324542Y-106454421D01*
X129890884Y-106634047D01*
X129807545Y-106887940D01*
X129263402Y-106887940D01*
X129045346Y-106669884D01*
X128490358Y-106440000D01*
X127889642Y-106440000D01*
X127334654Y-106669884D01*
X126940000Y-107064538D01*
X126545346Y-106669884D01*
X125990358Y-106440000D01*
X125389642Y-106440000D01*
X124834654Y-106669884D01*
X124665504Y-106839034D01*
X124663157Y-106827235D01*
X124522809Y-106617191D01*
X124312765Y-106476843D01*
X124065000Y-106427560D01*
X123838483Y-106427560D01*
X123737929Y-106277071D01*
X123674473Y-106234671D01*
X122365331Y-104925530D01*
X122322929Y-104862071D01*
X122071537Y-104694096D01*
X121849852Y-104650000D01*
X121849847Y-104650000D01*
X121775000Y-104635112D01*
X121700153Y-104650000D01*
X116624933Y-104650000D01*
X116579287Y-104564603D01*
X116524831Y-104483104D01*
X116444314Y-104384994D01*
X116375006Y-104315686D01*
X116276896Y-104235169D01*
X116195397Y-104180713D01*
X116083460Y-104120881D01*
X115992904Y-104083372D01*
X115871451Y-104046530D01*
X115775318Y-104027408D01*
X115649009Y-104014968D01*
X115612106Y-104014968D01*
X115600000Y-104012560D01*
X115060000Y-104012560D01*
X115060000Y-103573711D01*
X115177431Y-103456280D01*
X115335000Y-103075874D01*
X115335000Y-102664126D01*
X115177431Y-102283720D01*
X114886280Y-101992569D01*
X114505874Y-101835000D01*
X114094126Y-101835000D01*
X113713720Y-101992569D01*
X113422569Y-102283720D01*
X113265000Y-102664126D01*
X113265000Y-103075874D01*
X113422569Y-103456280D01*
X113540001Y-103573712D01*
X113540001Y-104012560D01*
X113000000Y-104012560D01*
X112987894Y-104014968D01*
X112950991Y-104014968D01*
X112824682Y-104027408D01*
X112728549Y-104046530D01*
X112607096Y-104083372D01*
X112516540Y-104120881D01*
X112404603Y-104180713D01*
X112323104Y-104235169D01*
X112224994Y-104315686D01*
X112155686Y-104384994D01*
X112075169Y-104483104D01*
X112020713Y-104564603D01*
X111960881Y-104676540D01*
X111923372Y-104767096D01*
X111886530Y-104888549D01*
X111867408Y-104984682D01*
X111854968Y-105110991D01*
X111854968Y-105147894D01*
X111852560Y-105160000D01*
X111852560Y-105660000D01*
X111854968Y-105672106D01*
X111854968Y-105709009D01*
X111867408Y-105835318D01*
X111886530Y-105931451D01*
X111923372Y-106052904D01*
X111960881Y-106143460D01*
X112020713Y-106255397D01*
X112075169Y-106336896D01*
X112155686Y-106435006D01*
X112224994Y-106504314D01*
X112240000Y-106516630D01*
X112240001Y-107276288D01*
X112152569Y-107363720D01*
X111995000Y-107744126D01*
X111995000Y-108155874D01*
X112152569Y-108536280D01*
X112443720Y-108827431D01*
X112824126Y-108985000D01*
X113235874Y-108985000D01*
X113540001Y-108859027D01*
X113540001Y-109092560D01*
X113000000Y-109092560D01*
X112987894Y-109094968D01*
X112950991Y-109094968D01*
X112824682Y-109107408D01*
X112728549Y-109126530D01*
X112607096Y-109163372D01*
X112516540Y-109200881D01*
X112404603Y-109260713D01*
X112323104Y-109315169D01*
X112224994Y-109395686D01*
X112155686Y-109464994D01*
X112075169Y-109563104D01*
X112020713Y-109644603D01*
X111960881Y-109756540D01*
X111923372Y-109847096D01*
X111886530Y-109968549D01*
X111867408Y-110064682D01*
X111854968Y-110190991D01*
X111854968Y-110227894D01*
X111852560Y-110240000D01*
X111852560Y-110740000D01*
X111854968Y-110752106D01*
X111854968Y-110789009D01*
X111867408Y-110915318D01*
X111886530Y-111011451D01*
X111923372Y-111132904D01*
X111960881Y-111223460D01*
X112020713Y-111335397D01*
X112075169Y-111416896D01*
X112155686Y-111515006D01*
X112224994Y-111584314D01*
X112283786Y-111632563D01*
X112284097Y-111634129D01*
X112398050Y-111804671D01*
X112452072Y-111885521D01*
X112515528Y-111927921D01*
X113467078Y-112879472D01*
X113509479Y-112942929D01*
X113572935Y-112985329D01*
X113760870Y-113110904D01*
X113809013Y-113120480D01*
X113982556Y-113155000D01*
X113982560Y-113155000D01*
X114057408Y-113169888D01*
X114132256Y-113155000D01*
X119192199Y-113155000D01*
X119570000Y-113532802D01*
X119570001Y-117406836D01*
X119472191Y-117472191D01*
X119382987Y-117605694D01*
X119368327Y-117570302D01*
X119189699Y-117391673D01*
X118956310Y-117295000D01*
X118715750Y-117295000D01*
X118557000Y-117453750D01*
X118557000Y-118253000D01*
X118577000Y-118253000D01*
X118577000Y-118507000D01*
X118557000Y-118507000D01*
X118557000Y-119306250D01*
X118642531Y-119391781D01*
X118522191Y-119472191D01*
X118381843Y-119682235D01*
X118332560Y-119930000D01*
X118332560Y-120830000D01*
X118381843Y-121077765D01*
X118495000Y-121247115D01*
X118495001Y-123159030D01*
X118444654Y-123179884D01*
X118275504Y-123349034D01*
X118273157Y-123337235D01*
X118132809Y-123127191D01*
X117922765Y-122986843D01*
X117675000Y-122937560D01*
X115925000Y-122937560D01*
X115677235Y-122986843D01*
X115467191Y-123127191D01*
X115326843Y-123337235D01*
X115277560Y-123585000D01*
X115277560Y-125335000D01*
X115326843Y-125582765D01*
X115467191Y-125792809D01*
X115677235Y-125933157D01*
X115925000Y-125982440D01*
X117675000Y-125982440D01*
X117922765Y-125933157D01*
X118132809Y-125792809D01*
X118273157Y-125582765D01*
X118275504Y-125570966D01*
X118444654Y-125740116D01*
X118999642Y-125970000D01*
X119600358Y-125970000D01*
X120155346Y-125740116D01*
X120550000Y-125345462D01*
X120915000Y-125710462D01*
X120915001Y-139065000D01*
X115105000Y-139065000D01*
X115105000Y-138410462D01*
X115293402Y-138222060D01*
X115837545Y-138222060D01*
X115920884Y-138475953D01*
X116485306Y-138681590D01*
X117085458Y-138655579D01*
X117519116Y-138475953D01*
X117602455Y-138222060D01*
X116720000Y-137339605D01*
X115837545Y-138222060D01*
X115293402Y-138222060D01*
X115500116Y-138015346D01*
X115509121Y-137993606D01*
X115657940Y-138042455D01*
X116540395Y-137160000D01*
X116899605Y-137160000D01*
X117782060Y-138042455D01*
X118035953Y-137959116D01*
X118241590Y-137394694D01*
X118215579Y-136794542D01*
X118035953Y-136360884D01*
X117782060Y-136277545D01*
X116899605Y-137160000D01*
X116540395Y-137160000D01*
X115657940Y-136277545D01*
X115509121Y-136326394D01*
X115500116Y-136304654D01*
X115293402Y-136097940D01*
X115837545Y-136097940D01*
X116720000Y-136980395D01*
X117602455Y-136097940D01*
X117519116Y-135844047D01*
X116954694Y-135638410D01*
X116354542Y-135664421D01*
X115920884Y-135844047D01*
X115837545Y-136097940D01*
X115293402Y-136097940D01*
X115075346Y-135879884D01*
X114520358Y-135650000D01*
X114481579Y-135650000D01*
X114864156Y-135267423D01*
X114938049Y-135218049D01*
X115133652Y-134925310D01*
X115185000Y-134667165D01*
X115185000Y-134667161D01*
X115202337Y-134580000D01*
X115185000Y-134492839D01*
X115185000Y-133947115D01*
X115298157Y-133777765D01*
X115347440Y-133530000D01*
X115347440Y-132630000D01*
X115298157Y-132382235D01*
X115161316Y-132177440D01*
X115650000Y-132177440D01*
X115897765Y-132128157D01*
X116107809Y-131987809D01*
X116248157Y-131777765D01*
X116297440Y-131530000D01*
X116297440Y-130630000D01*
X116248157Y-130382235D01*
X116107809Y-130172191D01*
X116010000Y-130106837D01*
X116010000Y-129989711D01*
X116127431Y-129872280D01*
X116285000Y-129491874D01*
X116285000Y-129080126D01*
X116127431Y-128699720D01*
X115836280Y-128408569D01*
X115455874Y-128251000D01*
X115044126Y-128251000D01*
X114663720Y-128408569D01*
X114372569Y-128699720D01*
X114215000Y-129080126D01*
X114215000Y-129491874D01*
X114372569Y-129872280D01*
X114490001Y-129989712D01*
X114490001Y-130106836D01*
X114392191Y-130172191D01*
X114302987Y-130305694D01*
X114288327Y-130270302D01*
X114109699Y-130091673D01*
X113876310Y-129995000D01*
X113635750Y-129995000D01*
X113477000Y-130153750D01*
X113477000Y-130953000D01*
X113497000Y-130953000D01*
X113497000Y-131207000D01*
X113477000Y-131207000D01*
X113477000Y-132006250D01*
X113562531Y-132091781D01*
X113442191Y-132172191D01*
X113301843Y-132382235D01*
X113252560Y-132630000D01*
X113252560Y-133530000D01*
X113301843Y-133777765D01*
X113415001Y-133947116D01*
X113415001Y-134213420D01*
X111978422Y-135650000D01*
X111419642Y-135650000D01*
X110864654Y-135879884D01*
X110695504Y-136049034D01*
X110693157Y-136037235D01*
X110552809Y-135827191D01*
X110342765Y-135686843D01*
X110095000Y-135637560D01*
X108345000Y-135637560D01*
X108097235Y-135686843D01*
X107887191Y-135827191D01*
X107746843Y-136037235D01*
X107697560Y-136285000D01*
X107697560Y-138035000D01*
X107746843Y-138282765D01*
X107887191Y-138492809D01*
X108097235Y-138633157D01*
X108345000Y-138682440D01*
X110095000Y-138682440D01*
X110342765Y-138633157D01*
X110552809Y-138492809D01*
X110693157Y-138282765D01*
X110695504Y-138270966D01*
X110864654Y-138440116D01*
X111419642Y-138670000D01*
X112020358Y-138670000D01*
X112575346Y-138440116D01*
X112970000Y-138045462D01*
X113335000Y-138410462D01*
X113335000Y-139065000D01*
X103580000Y-139065000D01*
X103580000Y-128815431D01*
X105677000Y-128815431D01*
X105677000Y-129704569D01*
X106017259Y-130526026D01*
X106645974Y-131154741D01*
X107467431Y-131495000D01*
X108356569Y-131495000D01*
X108668605Y-131365750D01*
X112315000Y-131365750D01*
X112315000Y-131656309D01*
X112411673Y-131889698D01*
X112590301Y-132068327D01*
X112823690Y-132165000D01*
X113064250Y-132165000D01*
X113223000Y-132006250D01*
X113223000Y-131207000D01*
X112473750Y-131207000D01*
X112315000Y-131365750D01*
X108668605Y-131365750D01*
X109178026Y-131154741D01*
X109806741Y-130526026D01*
X109815992Y-130503691D01*
X112315000Y-130503691D01*
X112315000Y-130794250D01*
X112473750Y-130953000D01*
X113223000Y-130953000D01*
X113223000Y-130153750D01*
X113064250Y-129995000D01*
X112823690Y-129995000D01*
X112590301Y-130091673D01*
X112411673Y-130270302D01*
X112315000Y-130503691D01*
X109815992Y-130503691D01*
X110147000Y-129704569D01*
X110147000Y-128815431D01*
X109806741Y-127993974D01*
X109178026Y-127365259D01*
X108356569Y-127025000D01*
X107467431Y-127025000D01*
X106645974Y-127365259D01*
X106017259Y-127993974D01*
X105677000Y-128815431D01*
X103580000Y-128815431D01*
X103580000Y-118665750D01*
X117395000Y-118665750D01*
X117395000Y-118956309D01*
X117491673Y-119189698D01*
X117670301Y-119368327D01*
X117903690Y-119465000D01*
X118144250Y-119465000D01*
X118303000Y-119306250D01*
X118303000Y-118507000D01*
X117553750Y-118507000D01*
X117395000Y-118665750D01*
X103580000Y-118665750D01*
X103580000Y-117803691D01*
X117395000Y-117803691D01*
X117395000Y-118094250D01*
X117553750Y-118253000D01*
X118303000Y-118253000D01*
X118303000Y-117453750D01*
X118144250Y-117295000D01*
X117903690Y-117295000D01*
X117670301Y-117391673D01*
X117491673Y-117570302D01*
X117395000Y-117803691D01*
X103580000Y-117803691D01*
X103580000Y-102156126D01*
X110689980Y-102156126D01*
X110689980Y-102567874D01*
X110847549Y-102948280D01*
X111138700Y-103239431D01*
X111519106Y-103397000D01*
X111930854Y-103397000D01*
X112311260Y-103239431D01*
X112602411Y-102948280D01*
X112759980Y-102567874D01*
X112759980Y-102156126D01*
X112610223Y-101794579D01*
X112715339Y-101689463D01*
X112728549Y-101693470D01*
X112824682Y-101712592D01*
X112950991Y-101725032D01*
X112987894Y-101725032D01*
X113000000Y-101727440D01*
X113550000Y-101727440D01*
X113675000Y-101702576D01*
X113800000Y-101727440D01*
X114800000Y-101727440D01*
X114925000Y-101702576D01*
X115050000Y-101727440D01*
X115600000Y-101727440D01*
X115612106Y-101725032D01*
X115649009Y-101725032D01*
X115775318Y-101712592D01*
X115871451Y-101693470D01*
X115992904Y-101656628D01*
X116083460Y-101619119D01*
X116195397Y-101559287D01*
X116276896Y-101504831D01*
X116375006Y-101424314D01*
X116444314Y-101355006D01*
X116524831Y-101256896D01*
X116579287Y-101175397D01*
X116624933Y-101090000D01*
X124385153Y-101090000D01*
X124460000Y-101104888D01*
X124534847Y-101090000D01*
X124534852Y-101090000D01*
X124756537Y-101045904D01*
X125007929Y-100877929D01*
X125050331Y-100814470D01*
X126174473Y-99690329D01*
X126237929Y-99647929D01*
X126290000Y-99570000D01*
X126405904Y-99396538D01*
X126437899Y-99235686D01*
X126450000Y-99174852D01*
X126450000Y-99174848D01*
X126464142Y-99103752D01*
X126545346Y-99070116D01*
X126940000Y-98675462D01*
X127334654Y-99070116D01*
X127889642Y-99300000D01*
X128490358Y-99300000D01*
X129045346Y-99070116D01*
X129263402Y-98852060D01*
X129807545Y-98852060D01*
X129890884Y-99105953D01*
X130455306Y-99311590D01*
X131055458Y-99285579D01*
X131489116Y-99105953D01*
X131572455Y-98852060D01*
X130690000Y-97969605D01*
X129807545Y-98852060D01*
X129263402Y-98852060D01*
X129470116Y-98645346D01*
X129479121Y-98623606D01*
X129627940Y-98672455D01*
X130510395Y-97790000D01*
X130869605Y-97790000D01*
X131752060Y-98672455D01*
X132005953Y-98589116D01*
X132211590Y-98024694D01*
X132185579Y-97424542D01*
X132005953Y-96990884D01*
X131752060Y-96907545D01*
X130869605Y-97790000D01*
X130510395Y-97790000D01*
X129627940Y-96907545D01*
X129479121Y-96956394D01*
X129470116Y-96934654D01*
X129264802Y-96729340D01*
X129266202Y-96727940D01*
X129807545Y-96727940D01*
X130690000Y-97610395D01*
X131572455Y-96727940D01*
X131489116Y-96474047D01*
X130924694Y-96268410D01*
X130324542Y-96294421D01*
X129890884Y-96474047D01*
X129807545Y-96727940D01*
X129266202Y-96727940D01*
X129732143Y-96262000D01*
X169940422Y-96262000D01*
X171835000Y-98156579D01*
X171835001Y-106755344D01*
X171649375Y-106879375D01*
X171450000Y-107177761D01*
X171250625Y-106879375D01*
X170759418Y-106551161D01*
X170326256Y-106465000D01*
X170033744Y-106465000D01*
X169600582Y-106551161D01*
X169109375Y-106879375D01*
X168910000Y-107177761D01*
X168710625Y-106879375D01*
X168219418Y-106551161D01*
X167786256Y-106465000D01*
X167493744Y-106465000D01*
X167060582Y-106551161D01*
X166569375Y-106879375D01*
X166370000Y-107177761D01*
X166170625Y-106879375D01*
X165679418Y-106551161D01*
X165246256Y-106465000D01*
X164953744Y-106465000D01*
X164520582Y-106551161D01*
X164029375Y-106879375D01*
X163830000Y-107177761D01*
X163630625Y-106879375D01*
X163139418Y-106551161D01*
X162706256Y-106465000D01*
X162413744Y-106465000D01*
X161980582Y-106551161D01*
X161489375Y-106879375D01*
X161290000Y-107177761D01*
X161090625Y-106879375D01*
X160599418Y-106551161D01*
X160166256Y-106465000D01*
X159873744Y-106465000D01*
X159440582Y-106551161D01*
X158949375Y-106879375D01*
X158750000Y-107177761D01*
X158550625Y-106879375D01*
X158059418Y-106551161D01*
X157626256Y-106465000D01*
X157333744Y-106465000D01*
X156900582Y-106551161D01*
X156409375Y-106879375D01*
X156210000Y-107177761D01*
X156010625Y-106879375D01*
X155519418Y-106551161D01*
X155086256Y-106465000D01*
X154793744Y-106465000D01*
X154360582Y-106551161D01*
X153869375Y-106879375D01*
X153670000Y-107177761D01*
X153470625Y-106879375D01*
X152979418Y-106551161D01*
X152546256Y-106465000D01*
X152253744Y-106465000D01*
X151820582Y-106551161D01*
X151329375Y-106879375D01*
X151001161Y-107370582D01*
X150885908Y-107950000D01*
X151001161Y-108529418D01*
X151329375Y-109020625D01*
X151820582Y-109348839D01*
X152253744Y-109435000D01*
X152546256Y-109435000D01*
X152979418Y-109348839D01*
X153470625Y-109020625D01*
X153670000Y-108722239D01*
X153869375Y-109020625D01*
X154360582Y-109348839D01*
X154793744Y-109435000D01*
X155086256Y-109435000D01*
X155519418Y-109348839D01*
X156010625Y-109020625D01*
X156210000Y-108722239D01*
X156409375Y-109020625D01*
X156900582Y-109348839D01*
X157333744Y-109435000D01*
X157626256Y-109435000D01*
X158059418Y-109348839D01*
X158550625Y-109020625D01*
X158750000Y-108722239D01*
X158949375Y-109020625D01*
X159440582Y-109348839D01*
X159873744Y-109435000D01*
X160166256Y-109435000D01*
X160599418Y-109348839D01*
X161090625Y-109020625D01*
X161290000Y-108722239D01*
X161489375Y-109020625D01*
X161980582Y-109348839D01*
X162413744Y-109435000D01*
X162706256Y-109435000D01*
X163139418Y-109348839D01*
X163630625Y-109020625D01*
X163830000Y-108722239D01*
X164029375Y-109020625D01*
X164520582Y-109348839D01*
X164953744Y-109435000D01*
X165246256Y-109435000D01*
X165679418Y-109348839D01*
X166170625Y-109020625D01*
X166370000Y-108722239D01*
X166569375Y-109020625D01*
X167060582Y-109348839D01*
X167493744Y-109435000D01*
X167786256Y-109435000D01*
X168219418Y-109348839D01*
X168710625Y-109020625D01*
X168910000Y-108722239D01*
X169109375Y-109020625D01*
X169600582Y-109348839D01*
X170033744Y-109435000D01*
X170326256Y-109435000D01*
X170759418Y-109348839D01*
X171250625Y-109020625D01*
X171450000Y-108722239D01*
X171649375Y-109020625D01*
X172140582Y-109348839D01*
X172573744Y-109435000D01*
X172866256Y-109435000D01*
X173299418Y-109348839D01*
X173790625Y-109020625D01*
X173990000Y-108722239D01*
X174189375Y-109020625D01*
X174680582Y-109348839D01*
X175113744Y-109435000D01*
X175406256Y-109435000D01*
X175839418Y-109348839D01*
X176330625Y-109020625D01*
X176543843Y-108701522D01*
X176604817Y-108831358D01*
X177033076Y-109221645D01*
X177443110Y-109391476D01*
X177673000Y-109270155D01*
X177673000Y-108077000D01*
X177653000Y-108077000D01*
X177653000Y-107823000D01*
X177673000Y-107823000D01*
X177673000Y-106629845D01*
X177443110Y-106508524D01*
X177033076Y-106678355D01*
X176604817Y-107068642D01*
X176543843Y-107198478D01*
X176330625Y-106879375D01*
X175839418Y-106551161D01*
X175406256Y-106465000D01*
X175113744Y-106465000D01*
X174680582Y-106551161D01*
X174189375Y-106879375D01*
X173990000Y-107177761D01*
X173790625Y-106879375D01*
X173605000Y-106755344D01*
X173605000Y-97877159D01*
X173617278Y-97815431D01*
X176977000Y-97815431D01*
X176977000Y-98704569D01*
X177317259Y-99526026D01*
X177945974Y-100154741D01*
X178767431Y-100495000D01*
X179656569Y-100495000D01*
X180478026Y-100154741D01*
X181106741Y-99526026D01*
X181447000Y-98704569D01*
X181447000Y-97815431D01*
X181106741Y-96993974D01*
X180478026Y-96365259D01*
X179656569Y-96025000D01*
X178767431Y-96025000D01*
X177945974Y-96365259D01*
X177317259Y-96993974D01*
X176977000Y-97815431D01*
X173617278Y-97815431D01*
X173622337Y-97789999D01*
X173605000Y-97702839D01*
X173605000Y-97702835D01*
X173553652Y-97444690D01*
X173443609Y-97280000D01*
X173407424Y-97225845D01*
X173407423Y-97225844D01*
X173358049Y-97151951D01*
X173284156Y-97102577D01*
X170994425Y-94812847D01*
X170945049Y-94738951D01*
X170652310Y-94543348D01*
X170394165Y-94492000D01*
X170394161Y-94492000D01*
X170307000Y-94474663D01*
X170219839Y-94492000D01*
X129452725Y-94492000D01*
X129365564Y-94474663D01*
X129278403Y-94492000D01*
X129278399Y-94492000D01*
X129020254Y-94543348D01*
X128801409Y-94689576D01*
X128801408Y-94689577D01*
X128727515Y-94738951D01*
X128678141Y-94812844D01*
X127625845Y-95865141D01*
X127551952Y-95914515D01*
X127502578Y-95988408D01*
X127502576Y-95988410D01*
X127356348Y-96207255D01*
X127287663Y-96552564D01*
X127288378Y-96556160D01*
X126940000Y-96904538D01*
X126545346Y-96509884D01*
X125990358Y-96280000D01*
X125389642Y-96280000D01*
X124834654Y-96509884D01*
X124665504Y-96679034D01*
X124663157Y-96667235D01*
X124522809Y-96457191D01*
X124312765Y-96316843D01*
X124065000Y-96267560D01*
X123838483Y-96267560D01*
X123737929Y-96117071D01*
X123674473Y-96074671D01*
X122365331Y-94765530D01*
X122322929Y-94702071D01*
X122071537Y-94534096D01*
X121849852Y-94490000D01*
X121849847Y-94490000D01*
X121775000Y-94475112D01*
X121700153Y-94490000D01*
X116624933Y-94490000D01*
X116579287Y-94404603D01*
X116524831Y-94323104D01*
X116444314Y-94224994D01*
X116375006Y-94155686D01*
X116276896Y-94075169D01*
X116195397Y-94020713D01*
X116083460Y-93960881D01*
X115992904Y-93923372D01*
X115871451Y-93886530D01*
X115775318Y-93867408D01*
X115759001Y-93865801D01*
X116914802Y-92710000D01*
X150885908Y-92710000D01*
X151001161Y-93289418D01*
X151329375Y-93780625D01*
X151820582Y-94108839D01*
X152253744Y-94195000D01*
X152546256Y-94195000D01*
X152979418Y-94108839D01*
X153470625Y-93780625D01*
X153670000Y-93482239D01*
X153869375Y-93780625D01*
X154360582Y-94108839D01*
X154793744Y-94195000D01*
X155086256Y-94195000D01*
X155519418Y-94108839D01*
X156010625Y-93780625D01*
X156210000Y-93482239D01*
X156409375Y-93780625D01*
X156900582Y-94108839D01*
X157333744Y-94195000D01*
X157626256Y-94195000D01*
X158059418Y-94108839D01*
X158550625Y-93780625D01*
X158750000Y-93482239D01*
X158949375Y-93780625D01*
X159440582Y-94108839D01*
X159873744Y-94195000D01*
X160166256Y-94195000D01*
X160599418Y-94108839D01*
X161090625Y-93780625D01*
X161290000Y-93482239D01*
X161489375Y-93780625D01*
X161980582Y-94108839D01*
X162413744Y-94195000D01*
X162706256Y-94195000D01*
X163139418Y-94108839D01*
X163630625Y-93780625D01*
X163830000Y-93482239D01*
X164029375Y-93780625D01*
X164520582Y-94108839D01*
X164953744Y-94195000D01*
X165246256Y-94195000D01*
X165679418Y-94108839D01*
X166170625Y-93780625D01*
X166370000Y-93482239D01*
X166569375Y-93780625D01*
X167060582Y-94108839D01*
X167493744Y-94195000D01*
X167786256Y-94195000D01*
X168219418Y-94108839D01*
X168710625Y-93780625D01*
X168910000Y-93482239D01*
X169109375Y-93780625D01*
X169600582Y-94108839D01*
X170033744Y-94195000D01*
X170326256Y-94195000D01*
X170759418Y-94108839D01*
X171250625Y-93780625D01*
X171463843Y-93461522D01*
X171524817Y-93591358D01*
X171953076Y-93981645D01*
X172363110Y-94151476D01*
X172593000Y-94030155D01*
X172593000Y-92837000D01*
X172847000Y-92837000D01*
X172847000Y-94030155D01*
X173076890Y-94151476D01*
X173486924Y-93981645D01*
X173915183Y-93591358D01*
X173990000Y-93432046D01*
X174064817Y-93591358D01*
X174493076Y-93981645D01*
X174903110Y-94151476D01*
X175133000Y-94030155D01*
X175133000Y-92837000D01*
X172847000Y-92837000D01*
X172593000Y-92837000D01*
X172573000Y-92837000D01*
X172573000Y-92583000D01*
X172593000Y-92583000D01*
X172593000Y-91389845D01*
X172847000Y-91389845D01*
X172847000Y-92583000D01*
X175133000Y-92583000D01*
X175133000Y-91389845D01*
X174903110Y-91268524D01*
X174493076Y-91438355D01*
X174064817Y-91828642D01*
X173990000Y-91987954D01*
X173915183Y-91828642D01*
X173486924Y-91438355D01*
X173076890Y-91268524D01*
X172847000Y-91389845D01*
X172593000Y-91389845D01*
X172363110Y-91268524D01*
X171953076Y-91438355D01*
X171524817Y-91828642D01*
X171463843Y-91958478D01*
X171250625Y-91639375D01*
X170759418Y-91311161D01*
X170326256Y-91225000D01*
X170033744Y-91225000D01*
X169600582Y-91311161D01*
X169109375Y-91639375D01*
X168910000Y-91937761D01*
X168710625Y-91639375D01*
X168219418Y-91311161D01*
X167786256Y-91225000D01*
X167493744Y-91225000D01*
X167060582Y-91311161D01*
X166569375Y-91639375D01*
X166370000Y-91937761D01*
X166170625Y-91639375D01*
X165679418Y-91311161D01*
X165246256Y-91225000D01*
X164953744Y-91225000D01*
X164520582Y-91311161D01*
X164029375Y-91639375D01*
X163830000Y-91937761D01*
X163630625Y-91639375D01*
X163139418Y-91311161D01*
X162706256Y-91225000D01*
X162413744Y-91225000D01*
X161980582Y-91311161D01*
X161489375Y-91639375D01*
X161290000Y-91937761D01*
X161090625Y-91639375D01*
X160599418Y-91311161D01*
X160166256Y-91225000D01*
X159873744Y-91225000D01*
X159440582Y-91311161D01*
X158949375Y-91639375D01*
X158750000Y-91937761D01*
X158550625Y-91639375D01*
X158059418Y-91311161D01*
X157626256Y-91225000D01*
X157333744Y-91225000D01*
X156900582Y-91311161D01*
X156409375Y-91639375D01*
X156210000Y-91937761D01*
X156010625Y-91639375D01*
X155519418Y-91311161D01*
X155086256Y-91225000D01*
X154793744Y-91225000D01*
X154360582Y-91311161D01*
X153869375Y-91639375D01*
X153670000Y-91937761D01*
X153470625Y-91639375D01*
X152979418Y-91311161D01*
X152546256Y-91225000D01*
X152253744Y-91225000D01*
X151820582Y-91311161D01*
X151329375Y-91639375D01*
X151001161Y-92130582D01*
X150885908Y-92710000D01*
X116914802Y-92710000D01*
X118694803Y-90930000D01*
X178585199Y-90930000D01*
X179047296Y-91392098D01*
X179032191Y-91402191D01*
X178891843Y-91612235D01*
X178882816Y-91657619D01*
X178870625Y-91639375D01*
X178379418Y-91311161D01*
X177946256Y-91225000D01*
X177653744Y-91225000D01*
X177220582Y-91311161D01*
X176729375Y-91639375D01*
X176516157Y-91958478D01*
X176455183Y-91828642D01*
X176026924Y-91438355D01*
X175616890Y-91268524D01*
X175387000Y-91389845D01*
X175387000Y-92583000D01*
X175407000Y-92583000D01*
X175407000Y-92837000D01*
X175387000Y-92837000D01*
X175387000Y-94030155D01*
X175616890Y-94151476D01*
X176026924Y-93981645D01*
X176455183Y-93591358D01*
X176516157Y-93461522D01*
X176729375Y-93780625D01*
X177220582Y-94108839D01*
X177653744Y-94195000D01*
X177946256Y-94195000D01*
X178379418Y-94108839D01*
X178870625Y-93780625D01*
X178882816Y-93762381D01*
X178891843Y-93807765D01*
X179032191Y-94017809D01*
X179242235Y-94158157D01*
X179490000Y-94207440D01*
X181190000Y-94207440D01*
X181437765Y-94158157D01*
X181647809Y-94017809D01*
X181788157Y-93807765D01*
X181837440Y-93560000D01*
X181837440Y-91860000D01*
X181788157Y-91612235D01*
X181647809Y-91402191D01*
X181437765Y-91261843D01*
X181190000Y-91212560D01*
X180988483Y-91212560D01*
X180887929Y-91062071D01*
X180824473Y-91019671D01*
X179490331Y-89685530D01*
X179447929Y-89622071D01*
X179196537Y-89454096D01*
X178974852Y-89410000D01*
X178974847Y-89410000D01*
X178900000Y-89395112D01*
X178825153Y-89410000D01*
X118454846Y-89410000D01*
X118379999Y-89395112D01*
X118305152Y-89410000D01*
X118305148Y-89410000D01*
X118083463Y-89454096D01*
X118083461Y-89454097D01*
X118083462Y-89454097D01*
X117895526Y-89579671D01*
X117895524Y-89579673D01*
X117832071Y-89622071D01*
X117789673Y-89685524D01*
X113815528Y-93659671D01*
X113752072Y-93702071D01*
X113709672Y-93765527D01*
X113709671Y-93765528D01*
X113639609Y-93870384D01*
X113550000Y-93852560D01*
X113000000Y-93852560D01*
X112987894Y-93854968D01*
X112950991Y-93854968D01*
X112824682Y-93867408D01*
X112728549Y-93886530D01*
X112607096Y-93923372D01*
X112516540Y-93960881D01*
X112404603Y-94020713D01*
X112323104Y-94075169D01*
X112224994Y-94155686D01*
X112155686Y-94224994D01*
X112075169Y-94323104D01*
X112020713Y-94404603D01*
X111960881Y-94516540D01*
X111923372Y-94607096D01*
X111886530Y-94728549D01*
X111867408Y-94824682D01*
X111854968Y-94950991D01*
X111854968Y-94987894D01*
X111852560Y-95000000D01*
X111852560Y-95322638D01*
X111690199Y-95485000D01*
X111524126Y-95485000D01*
X111143720Y-95642569D01*
X110852569Y-95933720D01*
X110695000Y-96314126D01*
X110695000Y-96725874D01*
X110852569Y-97106280D01*
X111143720Y-97397431D01*
X111524126Y-97555000D01*
X111935874Y-97555000D01*
X112316280Y-97397431D01*
X112607431Y-97106280D01*
X112765000Y-96725874D01*
X112765000Y-96620721D01*
X112824682Y-96632592D01*
X112950991Y-96645032D01*
X112987894Y-96645032D01*
X113000000Y-96647440D01*
X113550000Y-96647440D01*
X113675000Y-96622576D01*
X113800000Y-96647440D01*
X114800000Y-96647440D01*
X114925000Y-96622576D01*
X115050000Y-96647440D01*
X115600000Y-96647440D01*
X115612106Y-96645032D01*
X115649009Y-96645032D01*
X115775318Y-96632592D01*
X115871451Y-96613470D01*
X115992904Y-96576628D01*
X116083460Y-96539119D01*
X116195397Y-96479287D01*
X116276896Y-96424831D01*
X116375006Y-96344314D01*
X116444314Y-96275006D01*
X116524831Y-96176896D01*
X116579287Y-96095397D01*
X116624933Y-96010000D01*
X121460199Y-96010000D01*
X121887283Y-96437084D01*
X121857191Y-96457191D01*
X121716843Y-96667235D01*
X121667560Y-96915000D01*
X121667560Y-98665000D01*
X121716843Y-98912765D01*
X121857191Y-99122809D01*
X122067235Y-99263157D01*
X122315000Y-99312440D01*
X124065000Y-99312440D01*
X124312765Y-99263157D01*
X124522809Y-99122809D01*
X124663157Y-98912765D01*
X124665504Y-98900966D01*
X124739868Y-98975330D01*
X124145199Y-99570000D01*
X116624933Y-99570000D01*
X116579287Y-99484603D01*
X116524831Y-99403104D01*
X116444314Y-99304994D01*
X116375006Y-99235686D01*
X116276896Y-99155169D01*
X116195397Y-99100713D01*
X116083460Y-99040881D01*
X115992904Y-99003372D01*
X115871451Y-98966530D01*
X115775318Y-98947408D01*
X115649009Y-98934968D01*
X115612106Y-98934968D01*
X115600000Y-98932560D01*
X115060000Y-98932560D01*
X115060000Y-98493711D01*
X115177431Y-98376280D01*
X115335000Y-97995874D01*
X115335000Y-97584126D01*
X115177431Y-97203720D01*
X114886280Y-96912569D01*
X114505874Y-96755000D01*
X114094126Y-96755000D01*
X113713720Y-96912569D01*
X113422569Y-97203720D01*
X113265000Y-97584126D01*
X113265000Y-97995874D01*
X113422569Y-98376280D01*
X113540001Y-98493712D01*
X113540001Y-98932560D01*
X113000000Y-98932560D01*
X112987894Y-98934968D01*
X112950991Y-98934968D01*
X112824682Y-98947408D01*
X112728549Y-98966530D01*
X112607096Y-99003372D01*
X112516540Y-99040881D01*
X112404603Y-99100713D01*
X112323104Y-99155169D01*
X112224994Y-99235686D01*
X112155686Y-99304994D01*
X112075169Y-99403104D01*
X112020713Y-99484603D01*
X111960881Y-99596540D01*
X111923372Y-99687096D01*
X111886530Y-99808549D01*
X111867408Y-99904682D01*
X111854968Y-100030991D01*
X111854968Y-100067894D01*
X111852560Y-100080000D01*
X111852560Y-100402638D01*
X111240510Y-101014689D01*
X111177051Y-101057091D01*
X111009076Y-101308484D01*
X110964980Y-101530169D01*
X110964980Y-101530173D01*
X110950092Y-101605020D01*
X110961400Y-101661869D01*
X110847549Y-101775720D01*
X110689980Y-102156126D01*
X103580000Y-102156126D01*
X103580000Y-97815431D01*
X105677000Y-97815431D01*
X105677000Y-98704569D01*
X106017259Y-99526026D01*
X106645974Y-100154741D01*
X107467431Y-100495000D01*
X108356569Y-100495000D01*
X109178026Y-100154741D01*
X109806741Y-99526026D01*
X110147000Y-98704569D01*
X110147000Y-97815431D01*
X109806741Y-96993974D01*
X109178026Y-96365259D01*
X108356569Y-96025000D01*
X107467431Y-96025000D01*
X106645974Y-96365259D01*
X106017259Y-96993974D01*
X105677000Y-97815431D01*
X103580000Y-97815431D01*
X103580000Y-88340000D01*
X183440000Y-88340000D01*
X183440001Y-139065000D01*
X183440001Y-139065000D01*
G37*
X183440001Y-139065000D02*
X180717000Y-139065000D01*
X180717000Y-135723159D01*
X180734337Y-135635999D01*
X180717000Y-135548839D01*
X180717000Y-135548835D01*
X180665652Y-135290690D01*
X180470049Y-134997951D01*
X180396156Y-134948577D01*
X176145000Y-130697422D01*
X176145000Y-128815431D01*
X176977000Y-128815431D01*
X176977000Y-129704569D01*
X177317259Y-130526026D01*
X177945974Y-131154741D01*
X178767431Y-131495000D01*
X179656569Y-131495000D01*
X180478026Y-131154741D01*
X181106741Y-130526026D01*
X181447000Y-129704569D01*
X181447000Y-128815431D01*
X181106741Y-127993974D01*
X180478026Y-127365259D01*
X179656569Y-127025000D01*
X178767431Y-127025000D01*
X177945974Y-127365259D01*
X177317259Y-127993974D01*
X176977000Y-128815431D01*
X176145000Y-128815431D01*
X176145000Y-125568578D01*
X179380156Y-122333423D01*
X179454049Y-122284049D01*
X179649652Y-121991310D01*
X179689011Y-121793440D01*
X180116000Y-121793440D01*
X180128106Y-121791032D01*
X180165009Y-121791032D01*
X180291318Y-121778592D01*
X180387451Y-121759470D01*
X180508904Y-121722628D01*
X180599460Y-121685119D01*
X180711397Y-121625287D01*
X180792896Y-121570831D01*
X180891006Y-121490314D01*
X180960314Y-121421006D01*
X181040831Y-121322896D01*
X181068825Y-121281000D01*
X181268839Y-121281000D01*
X181356000Y-121298337D01*
X181443161Y-121281000D01*
X181443165Y-121281000D01*
X181701310Y-121229652D01*
X181994049Y-121034049D01*
X182043425Y-120960153D01*
X182936156Y-120067423D01*
X183010049Y-120018049D01*
X183205652Y-119725310D01*
X183257000Y-119467165D01*
X183257000Y-119467161D01*
X183274337Y-119380000D01*
X183257000Y-119292839D01*
X183257000Y-111419161D01*
X183274337Y-111332000D01*
X183257000Y-111244839D01*
X183257000Y-111244835D01*
X183205652Y-110986690D01*
X183059424Y-110767845D01*
X183059423Y-110767844D01*
X183010049Y-110693951D01*
X182936156Y-110644577D01*
X181588810Y-109297231D01*
X181647809Y-109257809D01*
X181788157Y-109047765D01*
X181837440Y-108800000D01*
X181837440Y-107100000D01*
X181788157Y-106852235D01*
X181647809Y-106642191D01*
X181437765Y-106501843D01*
X181190000Y-106452560D01*
X179490000Y-106452560D01*
X179242235Y-106501843D01*
X179032191Y-106642191D01*
X178891843Y-106852235D01*
X178871261Y-106955708D01*
X178566924Y-106678355D01*
X178156890Y-106508524D01*
X177927000Y-106629845D01*
X177927000Y-107823000D01*
X177947000Y-107823000D01*
X177947000Y-108077000D01*
X177927000Y-108077000D01*
X177927000Y-109270155D01*
X178156890Y-109391476D01*
X178566924Y-109221645D01*
X178871261Y-108944292D01*
X178891843Y-109047765D01*
X179032191Y-109257809D01*
X179242235Y-109398157D01*
X179466042Y-109442675D01*
X179506348Y-109645309D01*
X179652576Y-109864154D01*
X179652578Y-109864156D01*
X179701952Y-109938049D01*
X179775845Y-109987423D01*
X181487000Y-111698579D01*
X181487000Y-113458556D01*
X181362060Y-113417545D01*
X180479605Y-114300000D01*
X181362060Y-115182455D01*
X181487000Y-115141444D01*
X181487001Y-119013420D01*
X181036543Y-119463879D01*
X180960314Y-119370994D01*
X180891006Y-119301686D01*
X180792896Y-119221169D01*
X180711397Y-119166713D01*
X180599460Y-119106881D01*
X180508904Y-119069372D01*
X180387451Y-119032530D01*
X180291318Y-119013408D01*
X180165009Y-119000968D01*
X180128106Y-119000968D01*
X180116000Y-118998560D01*
X179566000Y-118998560D01*
X179441000Y-119023424D01*
X179316000Y-118998560D01*
X178401000Y-118998560D01*
X178401000Y-116486804D01*
X178438049Y-116462049D01*
X178633652Y-116169310D01*
X178685000Y-115911165D01*
X178685000Y-115911161D01*
X178702337Y-115824000D01*
X178700998Y-115817269D01*
X178922765Y-115773157D01*
X179132809Y-115632809D01*
X179263475Y-115437255D01*
X179302914Y-115476694D01*
X179417546Y-115362062D01*
X179500884Y-115615953D01*
X180065306Y-115821590D01*
X180665458Y-115795579D01*
X181099116Y-115615953D01*
X181182455Y-115362060D01*
X180300000Y-114479605D01*
X180285858Y-114493748D01*
X180106253Y-114314143D01*
X180120395Y-114300000D01*
X180106253Y-114285858D01*
X180285858Y-114106253D01*
X180300000Y-114120395D01*
X181182455Y-113237940D01*
X181099116Y-112984047D01*
X180534694Y-112778410D01*
X179934542Y-112804421D01*
X179500884Y-112984047D01*
X179417546Y-113237938D01*
X179302914Y-113123306D01*
X179263475Y-113162745D01*
X179132809Y-112967191D01*
X178922765Y-112826843D01*
X178675000Y-112777560D01*
X176925000Y-112777560D01*
X176677235Y-112826843D01*
X176467191Y-112967191D01*
X176326843Y-113177235D01*
X176277560Y-113425000D01*
X176277560Y-115175000D01*
X176326843Y-115422765D01*
X176467191Y-115632809D01*
X176677235Y-115773157D01*
X176680151Y-115773737D01*
X176631000Y-116020836D01*
X176631000Y-116020839D01*
X176613663Y-116108000D01*
X176631000Y-116195161D01*
X176631001Y-119420569D01*
X176591169Y-119469104D01*
X176536713Y-119550603D01*
X176476881Y-119662540D01*
X176439372Y-119753096D01*
X176402530Y-119874549D01*
X176383408Y-119970682D01*
X176370968Y-120096991D01*
X176370968Y-120133894D01*
X176368560Y-120146000D01*
X176368560Y-120646000D01*
X176370968Y-120658106D01*
X176370968Y-120695009D01*
X176383408Y-120821318D01*
X176402530Y-120917451D01*
X176439372Y-121038904D01*
X176476881Y-121129460D01*
X176536713Y-121241397D01*
X176591169Y-121322896D01*
X176671686Y-121421006D01*
X176740994Y-121490314D01*
X176839104Y-121570831D01*
X176920603Y-121625287D01*
X177032540Y-121685119D01*
X177123096Y-121722628D01*
X177244549Y-121759470D01*
X177340682Y-121778592D01*
X177423657Y-121786764D01*
X174695845Y-124514577D01*
X174621952Y-124563951D01*
X174572578Y-124637844D01*
X174572576Y-124637846D01*
X174426348Y-124856691D01*
X174357663Y-125202000D01*
X174375001Y-125289165D01*
X174375000Y-128527289D01*
X174256280Y-128408569D01*
X173875874Y-128251000D01*
X173464126Y-128251000D01*
X173083720Y-128408569D01*
X172792569Y-128699720D01*
X172635000Y-129080126D01*
X172635000Y-129491874D01*
X172792569Y-129872280D01*
X172910001Y-129989712D01*
X172910001Y-130106836D01*
X172812191Y-130172191D01*
X172722987Y-130305694D01*
X172708327Y-130270302D01*
X172529699Y-130091673D01*
X172296310Y-129995000D01*
X172055750Y-129995000D01*
X171897000Y-130153750D01*
X171897000Y-130953000D01*
X171917000Y-130953000D01*
X171917000Y-131207000D01*
X171897000Y-131207000D01*
X171897000Y-132006250D01*
X171982531Y-132091781D01*
X171862191Y-132172191D01*
X171721843Y-132382235D01*
X171672560Y-132630000D01*
X171672560Y-133530000D01*
X171721843Y-133777765D01*
X171835000Y-133947115D01*
X171835001Y-135875598D01*
X171824654Y-135879884D01*
X171655504Y-136049034D01*
X171653157Y-136037235D01*
X171512809Y-135827191D01*
X171302765Y-135686843D01*
X171055000Y-135637560D01*
X169305000Y-135637560D01*
X169057235Y-135686843D01*
X168847191Y-135827191D01*
X168706843Y-136037235D01*
X168657560Y-136285000D01*
X168657560Y-138035000D01*
X168706843Y-138282765D01*
X168847191Y-138492809D01*
X169057235Y-138633157D01*
X169305000Y-138682440D01*
X171055000Y-138682440D01*
X171302765Y-138633157D01*
X171512809Y-138492809D01*
X171653157Y-138282765D01*
X171655504Y-138270966D01*
X171824654Y-138440116D01*
X172379642Y-138670000D01*
X172980358Y-138670000D01*
X173535346Y-138440116D01*
X173930000Y-138045462D01*
X174263945Y-138379407D01*
X174256063Y-138419036D01*
X174273400Y-138506197D01*
X174273400Y-139065000D01*
X168474200Y-139065000D01*
X168474200Y-131365750D01*
X170735000Y-131365750D01*
X170735000Y-131656309D01*
X170831673Y-131889698D01*
X171010301Y-132068327D01*
X171243690Y-132165000D01*
X171484250Y-132165000D01*
X171643000Y-132006250D01*
X171643000Y-131207000D01*
X170893750Y-131207000D01*
X170735000Y-131365750D01*
X168474200Y-131365750D01*
X168474200Y-130503691D01*
X170735000Y-130503691D01*
X170735000Y-130794250D01*
X170893750Y-130953000D01*
X171643000Y-130953000D01*
X171643000Y-130153750D01*
X171484250Y-129995000D01*
X171243690Y-129995000D01*
X171010301Y-130091673D01*
X170831673Y-130270302D01*
X170735000Y-130503691D01*
X168474200Y-130503691D01*
X168474200Y-125813795D01*
X168491537Y-125726635D01*
X168481133Y-125674329D01*
X168633402Y-125522060D01*
X169177545Y-125522060D01*
X169260884Y-125775953D01*
X169825306Y-125981590D01*
X170425458Y-125955579D01*
X170859116Y-125775953D01*
X170942455Y-125522060D01*
X170060000Y-124639605D01*
X169177545Y-125522060D01*
X168633402Y-125522060D01*
X168840116Y-125315346D01*
X168849121Y-125293606D01*
X168997940Y-125342455D01*
X169880395Y-124460000D01*
X170239605Y-124460000D01*
X171122060Y-125342455D01*
X171375953Y-125259116D01*
X171581590Y-124694694D01*
X171555579Y-124094542D01*
X171375953Y-123660884D01*
X171122060Y-123577545D01*
X170239605Y-124460000D01*
X169880395Y-124460000D01*
X168997940Y-123577545D01*
X168849121Y-123626394D01*
X168840116Y-123604654D01*
X168633402Y-123397940D01*
X169177545Y-123397940D01*
X170060000Y-124280395D01*
X170942455Y-123397940D01*
X170859116Y-123144047D01*
X170294694Y-122938410D01*
X169694542Y-122964421D01*
X169260884Y-123144047D01*
X169177545Y-123397940D01*
X168633402Y-123397940D01*
X168415346Y-123179884D01*
X167860358Y-122950000D01*
X167259642Y-122950000D01*
X166704654Y-123179884D01*
X166310000Y-123574538D01*
X165985000Y-123249538D01*
X165985000Y-121247115D01*
X166098157Y-121077765D01*
X166147440Y-120830000D01*
X166147440Y-119930000D01*
X166098157Y-119682235D01*
X165961316Y-119477440D01*
X166450000Y-119477440D01*
X166697765Y-119428157D01*
X166907809Y-119287809D01*
X167048157Y-119077765D01*
X167097440Y-118830000D01*
X167097440Y-117930000D01*
X167048157Y-117682235D01*
X166907809Y-117472191D01*
X166892050Y-117461661D01*
X166927431Y-117426280D01*
X167085000Y-117045874D01*
X167085000Y-116634126D01*
X166927431Y-116253720D01*
X166636280Y-115962569D01*
X166255874Y-115805000D01*
X165844126Y-115805000D01*
X165463720Y-115962569D01*
X165172569Y-116253720D01*
X165015000Y-116634126D01*
X165015000Y-117045874D01*
X165172569Y-117426280D01*
X165207950Y-117461661D01*
X165192191Y-117472191D01*
X165102987Y-117605694D01*
X165088327Y-117570302D01*
X164909699Y-117391673D01*
X164676310Y-117295000D01*
X164435750Y-117295000D01*
X164277000Y-117453750D01*
X164277000Y-118253000D01*
X164297000Y-118253000D01*
X164297000Y-118507000D01*
X164277000Y-118507000D01*
X164277000Y-119306250D01*
X164362531Y-119391781D01*
X164242191Y-119472191D01*
X164101843Y-119682235D01*
X164052560Y-119930000D01*
X164052560Y-120830000D01*
X164101843Y-121077765D01*
X164215000Y-121247115D01*
X164215001Y-123175598D01*
X164204654Y-123179884D01*
X164035504Y-123349034D01*
X164033157Y-123337235D01*
X163892809Y-123127191D01*
X163682765Y-122986843D01*
X163435000Y-122937560D01*
X161685000Y-122937560D01*
X161437235Y-122986843D01*
X161227191Y-123127191D01*
X161086843Y-123337235D01*
X161037560Y-123585000D01*
X161037560Y-125335000D01*
X161086843Y-125582765D01*
X161227191Y-125792809D01*
X161437235Y-125933157D01*
X161685000Y-125982440D01*
X163435000Y-125982440D01*
X163682765Y-125933157D01*
X163892809Y-125792809D01*
X164033157Y-125582765D01*
X164035504Y-125570966D01*
X164204654Y-125740116D01*
X164759642Y-125970000D01*
X165360358Y-125970000D01*
X165915346Y-125740116D01*
X166310000Y-125345462D01*
X166658378Y-125693840D01*
X166657663Y-125697436D01*
X166704200Y-125931398D01*
X166704201Y-139065000D01*
X160825000Y-139065000D01*
X160825000Y-138410462D01*
X161013402Y-138222060D01*
X161557545Y-138222060D01*
X161640884Y-138475953D01*
X162205306Y-138681590D01*
X162805458Y-138655579D01*
X163239116Y-138475953D01*
X163322455Y-138222060D01*
X162440000Y-137339605D01*
X161557545Y-138222060D01*
X161013402Y-138222060D01*
X161220116Y-138015346D01*
X161229121Y-137993606D01*
X161377940Y-138042455D01*
X162260395Y-137160000D01*
X162619605Y-137160000D01*
X163502060Y-138042455D01*
X163755953Y-137959116D01*
X163961590Y-137394694D01*
X163935579Y-136794542D01*
X163755953Y-136360884D01*
X163502060Y-136277545D01*
X162619605Y-137160000D01*
X162260395Y-137160000D01*
X161377940Y-136277545D01*
X161229121Y-136326394D01*
X161220116Y-136304654D01*
X161013402Y-136097940D01*
X161557545Y-136097940D01*
X162440000Y-136980395D01*
X163322455Y-136097940D01*
X163239116Y-135844047D01*
X162674694Y-135638410D01*
X162074542Y-135664421D01*
X161640884Y-135844047D01*
X161557545Y-136097940D01*
X161013402Y-136097940D01*
X160795346Y-135879884D01*
X160240358Y-135650000D01*
X159639642Y-135650000D01*
X159084654Y-135879884D01*
X158690000Y-136274538D01*
X158365000Y-135949538D01*
X158365000Y-133947115D01*
X158478157Y-133777765D01*
X158527440Y-133530000D01*
X158527440Y-132630000D01*
X158478157Y-132382235D01*
X158341316Y-132177440D01*
X158830000Y-132177440D01*
X159077765Y-132128157D01*
X159287809Y-131987809D01*
X159428157Y-131777765D01*
X159477440Y-131530000D01*
X159477440Y-130630000D01*
X159428157Y-130382235D01*
X159287809Y-130172191D01*
X159190000Y-130106837D01*
X159190000Y-128904801D01*
X160059802Y-128035000D01*
X160225874Y-128035000D01*
X160606280Y-127877431D01*
X160897431Y-127586280D01*
X161055000Y-127205874D01*
X161055000Y-126794126D01*
X160897431Y-126413720D01*
X160606280Y-126122569D01*
X160225874Y-125965000D01*
X159814126Y-125965000D01*
X159433720Y-126122569D01*
X159142569Y-126413720D01*
X158985000Y-126794126D01*
X158985000Y-126960198D01*
X157945530Y-127999669D01*
X157882071Y-128042071D01*
X157714096Y-128293464D01*
X157670000Y-128515149D01*
X157670000Y-128515153D01*
X157655112Y-128590000D01*
X157670000Y-128664847D01*
X157670001Y-130106836D01*
X157572191Y-130172191D01*
X157482987Y-130305694D01*
X157468327Y-130270302D01*
X157289699Y-130091673D01*
X157056310Y-129995000D01*
X156815750Y-129995000D01*
X156657000Y-130153750D01*
X156657000Y-130953000D01*
X156677000Y-130953000D01*
X156677000Y-131207000D01*
X156657000Y-131207000D01*
X156657000Y-132006250D01*
X156742531Y-132091781D01*
X156622191Y-132172191D01*
X156481843Y-132382235D01*
X156432560Y-132630000D01*
X156432560Y-133530000D01*
X156481843Y-133777765D01*
X156595000Y-133947115D01*
X156595001Y-135875598D01*
X156584654Y-135879884D01*
X156415504Y-136049034D01*
X156413157Y-136037235D01*
X156272809Y-135827191D01*
X156062765Y-135686843D01*
X155815000Y-135637560D01*
X154065000Y-135637560D01*
X153817235Y-135686843D01*
X153607191Y-135827191D01*
X153466843Y-136037235D01*
X153417560Y-136285000D01*
X153417560Y-138035000D01*
X153466843Y-138282765D01*
X153607191Y-138492809D01*
X153817235Y-138633157D01*
X154065000Y-138682440D01*
X155815000Y-138682440D01*
X156062765Y-138633157D01*
X156272809Y-138492809D01*
X156413157Y-138282765D01*
X156415504Y-138270966D01*
X156584654Y-138440116D01*
X157139642Y-138670000D01*
X157740358Y-138670000D01*
X158295346Y-138440116D01*
X158690000Y-138045462D01*
X159055000Y-138410462D01*
X159055000Y-139065000D01*
X153205000Y-139065000D01*
X153205000Y-131365750D01*
X155495000Y-131365750D01*
X155495000Y-131656309D01*
X155591673Y-131889698D01*
X155770301Y-132068327D01*
X156003690Y-132165000D01*
X156244250Y-132165000D01*
X156403000Y-132006250D01*
X156403000Y-131207000D01*
X155653750Y-131207000D01*
X155495000Y-131365750D01*
X153205000Y-131365750D01*
X153205000Y-130503691D01*
X155495000Y-130503691D01*
X155495000Y-130794250D01*
X155653750Y-130953000D01*
X156403000Y-130953000D01*
X156403000Y-130153750D01*
X156244250Y-129995000D01*
X156003690Y-129995000D01*
X155770301Y-130091673D01*
X155591673Y-130270302D01*
X155495000Y-130503691D01*
X153205000Y-130503691D01*
X153205000Y-125710462D01*
X153393402Y-125522060D01*
X153937545Y-125522060D01*
X154020884Y-125775953D01*
X154585306Y-125981590D01*
X155185458Y-125955579D01*
X155619116Y-125775953D01*
X155702455Y-125522060D01*
X154820000Y-124639605D01*
X153937545Y-125522060D01*
X153393402Y-125522060D01*
X153600116Y-125315346D01*
X153609121Y-125293606D01*
X153757940Y-125342455D01*
X154640395Y-124460000D01*
X154999605Y-124460000D01*
X155882060Y-125342455D01*
X156135953Y-125259116D01*
X156341590Y-124694694D01*
X156315579Y-124094542D01*
X156135953Y-123660884D01*
X155882060Y-123577545D01*
X154999605Y-124460000D01*
X154640395Y-124460000D01*
X153757940Y-123577545D01*
X153609121Y-123626394D01*
X153600116Y-123604654D01*
X153393402Y-123397940D01*
X153937545Y-123397940D01*
X154820000Y-124280395D01*
X155702455Y-123397940D01*
X155619116Y-123144047D01*
X155054694Y-122938410D01*
X154454542Y-122964421D01*
X154020884Y-123144047D01*
X153937545Y-123397940D01*
X153393402Y-123397940D01*
X153175346Y-123179884D01*
X152620358Y-122950000D01*
X152019642Y-122950000D01*
X151464654Y-123179884D01*
X151070000Y-123574538D01*
X150745000Y-123249538D01*
X150745000Y-121247115D01*
X150858157Y-121077765D01*
X150907440Y-120830000D01*
X150907440Y-119930000D01*
X150858157Y-119682235D01*
X150721316Y-119477440D01*
X151210000Y-119477440D01*
X151457765Y-119428157D01*
X151667809Y-119287809D01*
X151766573Y-119140000D01*
X152696289Y-119140000D01*
X152813720Y-119257431D01*
X153194126Y-119415000D01*
X153605874Y-119415000D01*
X153986280Y-119257431D01*
X154277431Y-118966280D01*
X154401914Y-118665750D01*
X163115000Y-118665750D01*
X163115000Y-118956309D01*
X163211673Y-119189698D01*
X163390301Y-119368327D01*
X163623690Y-119465000D01*
X163864250Y-119465000D01*
X164023000Y-119306250D01*
X164023000Y-118507000D01*
X163273750Y-118507000D01*
X163115000Y-118665750D01*
X154401914Y-118665750D01*
X154435000Y-118585874D01*
X154435000Y-118174126D01*
X154281562Y-117803691D01*
X163115000Y-117803691D01*
X163115000Y-118094250D01*
X163273750Y-118253000D01*
X164023000Y-118253000D01*
X164023000Y-117453750D01*
X163864250Y-117295000D01*
X163623690Y-117295000D01*
X163390301Y-117391673D01*
X163211673Y-117570302D01*
X163115000Y-117803691D01*
X154281562Y-117803691D01*
X154277431Y-117793720D01*
X153986280Y-117502569D01*
X153605874Y-117345000D01*
X153194126Y-117345000D01*
X152813720Y-117502569D01*
X152696289Y-117620000D01*
X151766573Y-117620000D01*
X151667809Y-117472191D01*
X151457765Y-117331843D01*
X151210000Y-117282560D01*
X150410000Y-117282560D01*
X150162235Y-117331843D01*
X149952191Y-117472191D01*
X149862987Y-117605694D01*
X149848327Y-117570302D01*
X149669699Y-117391673D01*
X149436310Y-117295000D01*
X149195750Y-117295000D01*
X149037000Y-117453750D01*
X149037000Y-118253000D01*
X149057000Y-118253000D01*
X149057000Y-118507000D01*
X149037000Y-118507000D01*
X149037000Y-119306250D01*
X149122531Y-119391781D01*
X149002191Y-119472191D01*
X148861843Y-119682235D01*
X148812560Y-119930000D01*
X148812560Y-120830000D01*
X148861843Y-121077765D01*
X148975000Y-121247115D01*
X148975001Y-123175598D01*
X148964654Y-123179884D01*
X148795504Y-123349034D01*
X148793157Y-123337235D01*
X148652809Y-123127191D01*
X148442765Y-122986843D01*
X148195000Y-122937560D01*
X146445000Y-122937560D01*
X146197235Y-122986843D01*
X145987191Y-123127191D01*
X145846843Y-123337235D01*
X145797560Y-123585000D01*
X145797560Y-125335000D01*
X145846843Y-125582765D01*
X145987191Y-125792809D01*
X146197235Y-125933157D01*
X146445000Y-125982440D01*
X148195000Y-125982440D01*
X148442765Y-125933157D01*
X148652809Y-125792809D01*
X148793157Y-125582765D01*
X148795504Y-125570966D01*
X148964654Y-125740116D01*
X149519642Y-125970000D01*
X150120358Y-125970000D01*
X150675346Y-125740116D01*
X151070000Y-125345462D01*
X151435000Y-125710462D01*
X151435001Y-139065000D01*
X145585000Y-139065000D01*
X145585000Y-138410462D01*
X145773402Y-138222060D01*
X146317545Y-138222060D01*
X146400884Y-138475953D01*
X146965306Y-138681590D01*
X147565458Y-138655579D01*
X147999116Y-138475953D01*
X148082455Y-138222060D01*
X147200000Y-137339605D01*
X146317545Y-138222060D01*
X145773402Y-138222060D01*
X145980116Y-138015346D01*
X145989121Y-137993606D01*
X146137940Y-138042455D01*
X147020395Y-137160000D01*
X147379605Y-137160000D01*
X148262060Y-138042455D01*
X148515953Y-137959116D01*
X148721590Y-137394694D01*
X148695579Y-136794542D01*
X148515953Y-136360884D01*
X148262060Y-136277545D01*
X147379605Y-137160000D01*
X147020395Y-137160000D01*
X146137940Y-136277545D01*
X145989121Y-136326394D01*
X145980116Y-136304654D01*
X145773402Y-136097940D01*
X146317545Y-136097940D01*
X147200000Y-136980395D01*
X148082455Y-136097940D01*
X147999116Y-135844047D01*
X147434694Y-135638410D01*
X146834542Y-135664421D01*
X146400884Y-135844047D01*
X146317545Y-136097940D01*
X145773402Y-136097940D01*
X145555346Y-135879884D01*
X145000358Y-135650000D01*
X144399642Y-135650000D01*
X143844654Y-135879884D01*
X143450000Y-136274538D01*
X143125000Y-135949538D01*
X143125000Y-133947115D01*
X143238157Y-133777765D01*
X143287440Y-133530000D01*
X143287440Y-132630000D01*
X143238157Y-132382235D01*
X143101316Y-132177440D01*
X143590000Y-132177440D01*
X143837765Y-132128157D01*
X144047809Y-131987809D01*
X144188157Y-131777765D01*
X144237440Y-131530000D01*
X144237440Y-130630000D01*
X144188157Y-130382235D01*
X144047809Y-130172191D01*
X143950000Y-130106837D01*
X143950000Y-129989711D01*
X144067431Y-129872280D01*
X144225000Y-129491874D01*
X144225000Y-129080126D01*
X144067431Y-128699720D01*
X143776280Y-128408569D01*
X143395874Y-128251000D01*
X142984126Y-128251000D01*
X142603720Y-128408569D01*
X142312569Y-128699720D01*
X142155000Y-129080126D01*
X142155000Y-129491874D01*
X142312569Y-129872280D01*
X142430000Y-129989711D01*
X142430000Y-130106836D01*
X142332191Y-130172191D01*
X142242987Y-130305694D01*
X142228327Y-130270302D01*
X142049699Y-130091673D01*
X141816310Y-129995000D01*
X141575750Y-129995000D01*
X141417000Y-130153750D01*
X141417000Y-130953000D01*
X141437000Y-130953000D01*
X141437000Y-131207000D01*
X141417000Y-131207000D01*
X141417000Y-132006250D01*
X141502531Y-132091781D01*
X141382191Y-132172191D01*
X141241843Y-132382235D01*
X141192560Y-132630000D01*
X141192560Y-133530000D01*
X141241843Y-133777765D01*
X141355000Y-133947115D01*
X141355001Y-135875598D01*
X141344654Y-135879884D01*
X141175504Y-136049034D01*
X141173157Y-136037235D01*
X141032809Y-135827191D01*
X140822765Y-135686843D01*
X140575000Y-135637560D01*
X138825000Y-135637560D01*
X138577235Y-135686843D01*
X138367191Y-135827191D01*
X138226843Y-136037235D01*
X138177560Y-136285000D01*
X138177560Y-138035000D01*
X138226843Y-138282765D01*
X138367191Y-138492809D01*
X138577235Y-138633157D01*
X138825000Y-138682440D01*
X140575000Y-138682440D01*
X140822765Y-138633157D01*
X141032809Y-138492809D01*
X141173157Y-138282765D01*
X141175504Y-138270966D01*
X141344654Y-138440116D01*
X141899642Y-138670000D01*
X142500358Y-138670000D01*
X143055346Y-138440116D01*
X143450000Y-138045462D01*
X143815000Y-138410462D01*
X143815000Y-139065000D01*
X137965000Y-139065000D01*
X137965000Y-131365750D01*
X140255000Y-131365750D01*
X140255000Y-131656309D01*
X140351673Y-131889698D01*
X140530301Y-132068327D01*
X140763690Y-132165000D01*
X141004250Y-132165000D01*
X141163000Y-132006250D01*
X141163000Y-131207000D01*
X140413750Y-131207000D01*
X140255000Y-131365750D01*
X137965000Y-131365750D01*
X137965000Y-130503691D01*
X140255000Y-130503691D01*
X140255000Y-130794250D01*
X140413750Y-130953000D01*
X141163000Y-130953000D01*
X141163000Y-130153750D01*
X141004250Y-129995000D01*
X140763690Y-129995000D01*
X140530301Y-130091673D01*
X140351673Y-130270302D01*
X140255000Y-130503691D01*
X137965000Y-130503691D01*
X137965000Y-125710462D01*
X138153402Y-125522060D01*
X138697545Y-125522060D01*
X138780884Y-125775953D01*
X139345306Y-125981590D01*
X139945458Y-125955579D01*
X140379116Y-125775953D01*
X140462455Y-125522060D01*
X139580000Y-124639605D01*
X138697545Y-125522060D01*
X138153402Y-125522060D01*
X138360116Y-125315346D01*
X138369121Y-125293606D01*
X138517940Y-125342455D01*
X139400395Y-124460000D01*
X139759605Y-124460000D01*
X140642060Y-125342455D01*
X140895953Y-125259116D01*
X141101590Y-124694694D01*
X141075579Y-124094542D01*
X140895953Y-123660884D01*
X140642060Y-123577545D01*
X139759605Y-124460000D01*
X139400395Y-124460000D01*
X138517940Y-123577545D01*
X138369121Y-123626394D01*
X138360116Y-123604654D01*
X138153402Y-123397940D01*
X138697545Y-123397940D01*
X139580000Y-124280395D01*
X140462455Y-123397940D01*
X140379116Y-123144047D01*
X139814694Y-122938410D01*
X139214542Y-122964421D01*
X138780884Y-123144047D01*
X138697545Y-123397940D01*
X138153402Y-123397940D01*
X137935346Y-123179884D01*
X137380358Y-122950000D01*
X136779642Y-122950000D01*
X136224654Y-123179884D01*
X135830000Y-123574538D01*
X135505000Y-123249538D01*
X135505000Y-121247115D01*
X135618157Y-121077765D01*
X135667440Y-120830000D01*
X135667440Y-119930000D01*
X135618157Y-119682235D01*
X135481316Y-119477440D01*
X135970000Y-119477440D01*
X136217765Y-119428157D01*
X136427809Y-119287809D01*
X136568157Y-119077765D01*
X136571908Y-119058906D01*
X136767929Y-118927929D01*
X136810331Y-118864471D01*
X137009052Y-118665750D01*
X147875000Y-118665750D01*
X147875000Y-118956309D01*
X147971673Y-119189698D01*
X148150301Y-119368327D01*
X148383690Y-119465000D01*
X148624250Y-119465000D01*
X148783000Y-119306250D01*
X148783000Y-118507000D01*
X148033750Y-118507000D01*
X147875000Y-118665750D01*
X137009052Y-118665750D01*
X137291802Y-118383000D01*
X137457874Y-118383000D01*
X137838280Y-118225431D01*
X138129431Y-117934280D01*
X138183522Y-117803691D01*
X147875000Y-117803691D01*
X147875000Y-118094250D01*
X148033750Y-118253000D01*
X148783000Y-118253000D01*
X148783000Y-117453750D01*
X148624250Y-117295000D01*
X148383690Y-117295000D01*
X148150301Y-117391673D01*
X147971673Y-117570302D01*
X147875000Y-117803691D01*
X138183522Y-117803691D01*
X138287000Y-117553874D01*
X138287000Y-117142126D01*
X138129431Y-116761720D01*
X137838280Y-116470569D01*
X137457874Y-116313000D01*
X137046126Y-116313000D01*
X136665720Y-116470569D01*
X136374569Y-116761720D01*
X136217000Y-117142126D01*
X136217000Y-117308198D01*
X136197405Y-117327793D01*
X135970000Y-117282560D01*
X135170000Y-117282560D01*
X134922235Y-117331843D01*
X134712191Y-117472191D01*
X134622987Y-117605694D01*
X134608327Y-117570302D01*
X134429699Y-117391673D01*
X134196310Y-117295000D01*
X133955750Y-117295000D01*
X133797000Y-117453750D01*
X133797000Y-118253000D01*
X133817000Y-118253000D01*
X133817000Y-118507000D01*
X133797000Y-118507000D01*
X133797000Y-119306250D01*
X133882531Y-119391781D01*
X133762191Y-119472191D01*
X133621843Y-119682235D01*
X133572560Y-119930000D01*
X133572560Y-120830000D01*
X133621843Y-121077765D01*
X133735000Y-121247115D01*
X133735001Y-123175598D01*
X133724654Y-123179884D01*
X133555504Y-123349034D01*
X133553157Y-123337235D01*
X133412809Y-123127191D01*
X133202765Y-122986843D01*
X132955000Y-122937560D01*
X131205000Y-122937560D01*
X130957235Y-122986843D01*
X130747191Y-123127191D01*
X130606843Y-123337235D01*
X130557560Y-123585000D01*
X130557560Y-125335000D01*
X130606843Y-125582765D01*
X130747191Y-125792809D01*
X130957235Y-125933157D01*
X131205000Y-125982440D01*
X132955000Y-125982440D01*
X133202765Y-125933157D01*
X133412809Y-125792809D01*
X133553157Y-125582765D01*
X133555504Y-125570966D01*
X133724654Y-125740116D01*
X134279642Y-125970000D01*
X134880358Y-125970000D01*
X135435346Y-125740116D01*
X135830000Y-125345462D01*
X136195000Y-125710462D01*
X136195001Y-139065000D01*
X130345000Y-139065000D01*
X130345000Y-138410462D01*
X130533402Y-138222060D01*
X131077545Y-138222060D01*
X131160884Y-138475953D01*
X131725306Y-138681590D01*
X132325458Y-138655579D01*
X132759116Y-138475953D01*
X132842455Y-138222060D01*
X131960000Y-137339605D01*
X131077545Y-138222060D01*
X130533402Y-138222060D01*
X130740116Y-138015346D01*
X130749121Y-137993606D01*
X130897940Y-138042455D01*
X131780395Y-137160000D01*
X132139605Y-137160000D01*
X133022060Y-138042455D01*
X133275953Y-137959116D01*
X133481590Y-137394694D01*
X133455579Y-136794542D01*
X133275953Y-136360884D01*
X133022060Y-136277545D01*
X132139605Y-137160000D01*
X131780395Y-137160000D01*
X130897940Y-136277545D01*
X130749121Y-136326394D01*
X130740116Y-136304654D01*
X130533402Y-136097940D01*
X131077545Y-136097940D01*
X131960000Y-136980395D01*
X132842455Y-136097940D01*
X132759116Y-135844047D01*
X132194694Y-135638410D01*
X131594542Y-135664421D01*
X131160884Y-135844047D01*
X131077545Y-136097940D01*
X130533402Y-136097940D01*
X130315346Y-135879884D01*
X129760358Y-135650000D01*
X129159642Y-135650000D01*
X128604654Y-135879884D01*
X128210000Y-136274538D01*
X127885000Y-135949538D01*
X127885000Y-133947115D01*
X127998157Y-133777765D01*
X128047440Y-133530000D01*
X128047440Y-132630000D01*
X127998157Y-132382235D01*
X127861316Y-132177440D01*
X128350000Y-132177440D01*
X128597765Y-132128157D01*
X128807809Y-131987809D01*
X128948157Y-131777765D01*
X128997440Y-131530000D01*
X128997440Y-130630000D01*
X128948157Y-130382235D01*
X128807809Y-130172191D01*
X128792050Y-130161661D01*
X128827431Y-130126280D01*
X128985000Y-129745874D01*
X128985000Y-129334126D01*
X128827431Y-128953720D01*
X128536280Y-128662569D01*
X128155874Y-128505000D01*
X127744126Y-128505000D01*
X127363720Y-128662569D01*
X127072569Y-128953720D01*
X126915000Y-129334126D01*
X126915000Y-129745874D01*
X127072569Y-130126280D01*
X127107950Y-130161661D01*
X127092191Y-130172191D01*
X127002987Y-130305694D01*
X126988327Y-130270302D01*
X126809699Y-130091673D01*
X126576310Y-129995000D01*
X126335750Y-129995000D01*
X126177000Y-130153750D01*
X126177000Y-130953000D01*
X126197000Y-130953000D01*
X126197000Y-131207000D01*
X126177000Y-131207000D01*
X126177000Y-132006250D01*
X126262531Y-132091781D01*
X126142191Y-132172191D01*
X126001843Y-132382235D01*
X125952560Y-132630000D01*
X125952560Y-133530000D01*
X126001843Y-133777765D01*
X126115000Y-133947115D01*
X126115001Y-135875598D01*
X126104654Y-135879884D01*
X125935504Y-136049034D01*
X125933157Y-136037235D01*
X125792809Y-135827191D01*
X125582765Y-135686843D01*
X125335000Y-135637560D01*
X123585000Y-135637560D01*
X123337235Y-135686843D01*
X123127191Y-135827191D01*
X122986843Y-136037235D01*
X122937560Y-136285000D01*
X122937560Y-138035000D01*
X122986843Y-138282765D01*
X123127191Y-138492809D01*
X123337235Y-138633157D01*
X123585000Y-138682440D01*
X125335000Y-138682440D01*
X125582765Y-138633157D01*
X125792809Y-138492809D01*
X125933157Y-138282765D01*
X125935504Y-138270966D01*
X126104654Y-138440116D01*
X126659642Y-138670000D01*
X127260358Y-138670000D01*
X127815346Y-138440116D01*
X128210000Y-138045462D01*
X128575000Y-138410462D01*
X128575000Y-139065000D01*
X122685000Y-139065000D01*
X122685000Y-131365750D01*
X125015000Y-131365750D01*
X125015000Y-131656309D01*
X125111673Y-131889698D01*
X125290301Y-132068327D01*
X125523690Y-132165000D01*
X125764250Y-132165000D01*
X125923000Y-132006250D01*
X125923000Y-131207000D01*
X125173750Y-131207000D01*
X125015000Y-131365750D01*
X122685000Y-131365750D01*
X122685000Y-130503691D01*
X125015000Y-130503691D01*
X125015000Y-130794250D01*
X125173750Y-130953000D01*
X125923000Y-130953000D01*
X125923000Y-130153750D01*
X125764250Y-129995000D01*
X125523690Y-129995000D01*
X125290301Y-130091673D01*
X125111673Y-130270302D01*
X125015000Y-130503691D01*
X122685000Y-130503691D01*
X122685000Y-125710462D01*
X122873402Y-125522060D01*
X123417545Y-125522060D01*
X123500884Y-125775953D01*
X124065306Y-125981590D01*
X124665458Y-125955579D01*
X125099116Y-125775953D01*
X125182455Y-125522060D01*
X124300000Y-124639605D01*
X123417545Y-125522060D01*
X122873402Y-125522060D01*
X123080116Y-125315346D01*
X123089121Y-125293606D01*
X123237940Y-125342455D01*
X124120395Y-124460000D01*
X124479605Y-124460000D01*
X125362060Y-125342455D01*
X125615953Y-125259116D01*
X125821590Y-124694694D01*
X125795579Y-124094542D01*
X125615953Y-123660884D01*
X125362060Y-123577545D01*
X124479605Y-124460000D01*
X124120395Y-124460000D01*
X123237940Y-123577545D01*
X123089121Y-123626394D01*
X123080116Y-123604654D01*
X122873402Y-123397940D01*
X123417545Y-123397940D01*
X124300000Y-124280395D01*
X125182455Y-123397940D01*
X125099116Y-123144047D01*
X124534694Y-122938410D01*
X123934542Y-122964421D01*
X123500884Y-123144047D01*
X123417545Y-123397940D01*
X122873402Y-123397940D01*
X122655346Y-123179884D01*
X122100358Y-122950000D01*
X121499642Y-122950000D01*
X120944654Y-123179884D01*
X120550000Y-123574538D01*
X120265000Y-123289538D01*
X120265000Y-121247115D01*
X120378157Y-121077765D01*
X120427440Y-120830000D01*
X120427440Y-119930000D01*
X120378157Y-119682235D01*
X120241316Y-119477440D01*
X120730000Y-119477440D01*
X120977765Y-119428157D01*
X121187809Y-119287809D01*
X121328157Y-119077765D01*
X121377440Y-118830000D01*
X121377440Y-118665750D01*
X132635000Y-118665750D01*
X132635000Y-118956309D01*
X132731673Y-119189698D01*
X132910301Y-119368327D01*
X133143690Y-119465000D01*
X133384250Y-119465000D01*
X133543000Y-119306250D01*
X133543000Y-118507000D01*
X132793750Y-118507000D01*
X132635000Y-118665750D01*
X121377440Y-118665750D01*
X121377440Y-117930000D01*
X121352316Y-117803691D01*
X132635000Y-117803691D01*
X132635000Y-118094250D01*
X132793750Y-118253000D01*
X133543000Y-118253000D01*
X133543000Y-117453750D01*
X133384250Y-117295000D01*
X133143690Y-117295000D01*
X132910301Y-117391673D01*
X132731673Y-117570302D01*
X132635000Y-117803691D01*
X121352316Y-117803691D01*
X121328157Y-117682235D01*
X121187809Y-117472191D01*
X121090000Y-117406837D01*
X121090000Y-113292848D01*
X121104888Y-113218000D01*
X121090000Y-113143152D01*
X121090000Y-113143148D01*
X121045904Y-112921463D01*
X121045904Y-112921462D01*
X120920329Y-112733527D01*
X120877929Y-112670071D01*
X120814473Y-112627671D01*
X120097331Y-111910530D01*
X120054929Y-111847071D01*
X119803537Y-111679096D01*
X119581852Y-111635000D01*
X119581847Y-111635000D01*
X119507000Y-111620112D01*
X119432153Y-111635000D01*
X116313245Y-111635000D01*
X116375006Y-111584314D01*
X116444314Y-111515006D01*
X116524831Y-111416896D01*
X116579287Y-111335397D01*
X116624933Y-111250000D01*
X124385153Y-111250000D01*
X124460000Y-111264888D01*
X124534847Y-111250000D01*
X124534852Y-111250000D01*
X124756537Y-111205904D01*
X125007929Y-111037929D01*
X125050331Y-110974470D01*
X126174473Y-109850329D01*
X126237929Y-109807929D01*
X126346588Y-109645310D01*
X126405904Y-109556538D01*
X126432435Y-109423157D01*
X126450000Y-109334852D01*
X126450000Y-109334848D01*
X126464142Y-109263752D01*
X126545346Y-109230116D01*
X126940000Y-108835462D01*
X127334654Y-109230116D01*
X127889642Y-109460000D01*
X128490358Y-109460000D01*
X129045346Y-109230116D01*
X129263402Y-109012060D01*
X129807545Y-109012060D01*
X129890884Y-109265953D01*
X130455306Y-109471590D01*
X131055458Y-109445579D01*
X131489116Y-109265953D01*
X131572455Y-109012060D01*
X130690000Y-108129605D01*
X129807545Y-109012060D01*
X129263402Y-109012060D01*
X129470116Y-108805346D01*
X129479121Y-108783606D01*
X129627940Y-108832455D01*
X130510395Y-107950000D01*
X130869605Y-107950000D01*
X131752060Y-108832455D01*
X132005953Y-108749116D01*
X132211590Y-108184694D01*
X132185579Y-107584542D01*
X132005953Y-107150884D01*
X131752060Y-107067545D01*
X130869605Y-107950000D01*
X130510395Y-107950000D01*
X129627940Y-107067545D01*
X129479121Y-107116394D01*
X129470116Y-107094654D01*
X129263402Y-106887940D01*
X129807545Y-106887940D01*
X130690000Y-107770395D01*
X131572455Y-106887940D01*
X131489116Y-106634047D01*
X130924694Y-106428410D01*
X130324542Y-106454421D01*
X129890884Y-106634047D01*
X129807545Y-106887940D01*
X129263402Y-106887940D01*
X129045346Y-106669884D01*
X128490358Y-106440000D01*
X127889642Y-106440000D01*
X127334654Y-106669884D01*
X126940000Y-107064538D01*
X126545346Y-106669884D01*
X125990358Y-106440000D01*
X125389642Y-106440000D01*
X124834654Y-106669884D01*
X124665504Y-106839034D01*
X124663157Y-106827235D01*
X124522809Y-106617191D01*
X124312765Y-106476843D01*
X124065000Y-106427560D01*
X123838483Y-106427560D01*
X123737929Y-106277071D01*
X123674473Y-106234671D01*
X122365331Y-104925530D01*
X122322929Y-104862071D01*
X122071537Y-104694096D01*
X121849852Y-104650000D01*
X121849847Y-104650000D01*
X121775000Y-104635112D01*
X121700153Y-104650000D01*
X116624933Y-104650000D01*
X116579287Y-104564603D01*
X116524831Y-104483104D01*
X116444314Y-104384994D01*
X116375006Y-104315686D01*
X116276896Y-104235169D01*
X116195397Y-104180713D01*
X116083460Y-104120881D01*
X115992904Y-104083372D01*
X115871451Y-104046530D01*
X115775318Y-104027408D01*
X115649009Y-104014968D01*
X115612106Y-104014968D01*
X115600000Y-104012560D01*
X115060000Y-104012560D01*
X115060000Y-103573711D01*
X115177431Y-103456280D01*
X115335000Y-103075874D01*
X115335000Y-102664126D01*
X115177431Y-102283720D01*
X114886280Y-101992569D01*
X114505874Y-101835000D01*
X114094126Y-101835000D01*
X113713720Y-101992569D01*
X113422569Y-102283720D01*
X113265000Y-102664126D01*
X113265000Y-103075874D01*
X113422569Y-103456280D01*
X113540001Y-103573712D01*
X113540001Y-104012560D01*
X113000000Y-104012560D01*
X112987894Y-104014968D01*
X112950991Y-104014968D01*
X112824682Y-104027408D01*
X112728549Y-104046530D01*
X112607096Y-104083372D01*
X112516540Y-104120881D01*
X112404603Y-104180713D01*
X112323104Y-104235169D01*
X112224994Y-104315686D01*
X112155686Y-104384994D01*
X112075169Y-104483104D01*
X112020713Y-104564603D01*
X111960881Y-104676540D01*
X111923372Y-104767096D01*
X111886530Y-104888549D01*
X111867408Y-104984682D01*
X111854968Y-105110991D01*
X111854968Y-105147894D01*
X111852560Y-105160000D01*
X111852560Y-105660000D01*
X111854968Y-105672106D01*
X111854968Y-105709009D01*
X111867408Y-105835318D01*
X111886530Y-105931451D01*
X111923372Y-106052904D01*
X111960881Y-106143460D01*
X112020713Y-106255397D01*
X112075169Y-106336896D01*
X112155686Y-106435006D01*
X112224994Y-106504314D01*
X112240000Y-106516630D01*
X112240001Y-107276288D01*
X112152569Y-107363720D01*
X111995000Y-107744126D01*
X111995000Y-108155874D01*
X112152569Y-108536280D01*
X112443720Y-108827431D01*
X112824126Y-108985000D01*
X113235874Y-108985000D01*
X113540001Y-108859027D01*
X113540001Y-109092560D01*
X113000000Y-109092560D01*
X112987894Y-109094968D01*
X112950991Y-109094968D01*
X112824682Y-109107408D01*
X112728549Y-109126530D01*
X112607096Y-109163372D01*
X112516540Y-109200881D01*
X112404603Y-109260713D01*
X112323104Y-109315169D01*
X112224994Y-109395686D01*
X112155686Y-109464994D01*
X112075169Y-109563104D01*
X112020713Y-109644603D01*
X111960881Y-109756540D01*
X111923372Y-109847096D01*
X111886530Y-109968549D01*
X111867408Y-110064682D01*
X111854968Y-110190991D01*
X111854968Y-110227894D01*
X111852560Y-110240000D01*
X111852560Y-110740000D01*
X111854968Y-110752106D01*
X111854968Y-110789009D01*
X111867408Y-110915318D01*
X111886530Y-111011451D01*
X111923372Y-111132904D01*
X111960881Y-111223460D01*
X112020713Y-111335397D01*
X112075169Y-111416896D01*
X112155686Y-111515006D01*
X112224994Y-111584314D01*
X112283786Y-111632563D01*
X112284097Y-111634129D01*
X112398050Y-111804671D01*
X112452072Y-111885521D01*
X112515528Y-111927921D01*
X113467078Y-112879472D01*
X113509479Y-112942929D01*
X113572935Y-112985329D01*
X113760870Y-113110904D01*
X113809013Y-113120480D01*
X113982556Y-113155000D01*
X113982560Y-113155000D01*
X114057408Y-113169888D01*
X114132256Y-113155000D01*
X119192199Y-113155000D01*
X119570000Y-113532802D01*
X119570001Y-117406836D01*
X119472191Y-117472191D01*
X119382987Y-117605694D01*
X119368327Y-117570302D01*
X119189699Y-117391673D01*
X118956310Y-117295000D01*
X118715750Y-117295000D01*
X118557000Y-117453750D01*
X118557000Y-118253000D01*
X118577000Y-118253000D01*
X118577000Y-118507000D01*
X118557000Y-118507000D01*
X118557000Y-119306250D01*
X118642531Y-119391781D01*
X118522191Y-119472191D01*
X118381843Y-119682235D01*
X118332560Y-119930000D01*
X118332560Y-120830000D01*
X118381843Y-121077765D01*
X118495000Y-121247115D01*
X118495001Y-123159030D01*
X118444654Y-123179884D01*
X118275504Y-123349034D01*
X118273157Y-123337235D01*
X118132809Y-123127191D01*
X117922765Y-122986843D01*
X117675000Y-122937560D01*
X115925000Y-122937560D01*
X115677235Y-122986843D01*
X115467191Y-123127191D01*
X115326843Y-123337235D01*
X115277560Y-123585000D01*
X115277560Y-125335000D01*
X115326843Y-125582765D01*
X115467191Y-125792809D01*
X115677235Y-125933157D01*
X115925000Y-125982440D01*
X117675000Y-125982440D01*
X117922765Y-125933157D01*
X118132809Y-125792809D01*
X118273157Y-125582765D01*
X118275504Y-125570966D01*
X118444654Y-125740116D01*
X118999642Y-125970000D01*
X119600358Y-125970000D01*
X120155346Y-125740116D01*
X120550000Y-125345462D01*
X120915000Y-125710462D01*
X120915001Y-139065000D01*
X115105000Y-139065000D01*
X115105000Y-138410462D01*
X115293402Y-138222060D01*
X115837545Y-138222060D01*
X115920884Y-138475953D01*
X116485306Y-138681590D01*
X117085458Y-138655579D01*
X117519116Y-138475953D01*
X117602455Y-138222060D01*
X116720000Y-137339605D01*
X115837545Y-138222060D01*
X115293402Y-138222060D01*
X115500116Y-138015346D01*
X115509121Y-137993606D01*
X115657940Y-138042455D01*
X116540395Y-137160000D01*
X116899605Y-137160000D01*
X117782060Y-138042455D01*
X118035953Y-137959116D01*
X118241590Y-137394694D01*
X118215579Y-136794542D01*
X118035953Y-136360884D01*
X117782060Y-136277545D01*
X116899605Y-137160000D01*
X116540395Y-137160000D01*
X115657940Y-136277545D01*
X115509121Y-136326394D01*
X115500116Y-136304654D01*
X115293402Y-136097940D01*
X115837545Y-136097940D01*
X116720000Y-136980395D01*
X117602455Y-136097940D01*
X117519116Y-135844047D01*
X116954694Y-135638410D01*
X116354542Y-135664421D01*
X115920884Y-135844047D01*
X115837545Y-136097940D01*
X115293402Y-136097940D01*
X115075346Y-135879884D01*
X114520358Y-135650000D01*
X114481579Y-135650000D01*
X114864156Y-135267423D01*
X114938049Y-135218049D01*
X115133652Y-134925310D01*
X115185000Y-134667165D01*
X115185000Y-134667161D01*
X115202337Y-134580000D01*
X115185000Y-134492839D01*
X115185000Y-133947115D01*
X115298157Y-133777765D01*
X115347440Y-133530000D01*
X115347440Y-132630000D01*
X115298157Y-132382235D01*
X115161316Y-132177440D01*
X115650000Y-132177440D01*
X115897765Y-132128157D01*
X116107809Y-131987809D01*
X116248157Y-131777765D01*
X116297440Y-131530000D01*
X116297440Y-130630000D01*
X116248157Y-130382235D01*
X116107809Y-130172191D01*
X116010000Y-130106837D01*
X116010000Y-129989711D01*
X116127431Y-129872280D01*
X116285000Y-129491874D01*
X116285000Y-129080126D01*
X116127431Y-128699720D01*
X115836280Y-128408569D01*
X115455874Y-128251000D01*
X115044126Y-128251000D01*
X114663720Y-128408569D01*
X114372569Y-128699720D01*
X114215000Y-129080126D01*
X114215000Y-129491874D01*
X114372569Y-129872280D01*
X114490001Y-129989712D01*
X114490001Y-130106836D01*
X114392191Y-130172191D01*
X114302987Y-130305694D01*
X114288327Y-130270302D01*
X114109699Y-130091673D01*
X113876310Y-129995000D01*
X113635750Y-129995000D01*
X113477000Y-130153750D01*
X113477000Y-130953000D01*
X113497000Y-130953000D01*
X113497000Y-131207000D01*
X113477000Y-131207000D01*
X113477000Y-132006250D01*
X113562531Y-132091781D01*
X113442191Y-132172191D01*
X113301843Y-132382235D01*
X113252560Y-132630000D01*
X113252560Y-133530000D01*
X113301843Y-133777765D01*
X113415001Y-133947116D01*
X113415001Y-134213420D01*
X111978422Y-135650000D01*
X111419642Y-135650000D01*
X110864654Y-135879884D01*
X110695504Y-136049034D01*
X110693157Y-136037235D01*
X110552809Y-135827191D01*
X110342765Y-135686843D01*
X110095000Y-135637560D01*
X108345000Y-135637560D01*
X108097235Y-135686843D01*
X107887191Y-135827191D01*
X107746843Y-136037235D01*
X107697560Y-136285000D01*
X107697560Y-138035000D01*
X107746843Y-138282765D01*
X107887191Y-138492809D01*
X108097235Y-138633157D01*
X108345000Y-138682440D01*
X110095000Y-138682440D01*
X110342765Y-138633157D01*
X110552809Y-138492809D01*
X110693157Y-138282765D01*
X110695504Y-138270966D01*
X110864654Y-138440116D01*
X111419642Y-138670000D01*
X112020358Y-138670000D01*
X112575346Y-138440116D01*
X112970000Y-138045462D01*
X113335000Y-138410462D01*
X113335000Y-139065000D01*
X103580000Y-139065000D01*
X103580000Y-128815431D01*
X105677000Y-128815431D01*
X105677000Y-129704569D01*
X106017259Y-130526026D01*
X106645974Y-131154741D01*
X107467431Y-131495000D01*
X108356569Y-131495000D01*
X108668605Y-131365750D01*
X112315000Y-131365750D01*
X112315000Y-131656309D01*
X112411673Y-131889698D01*
X112590301Y-132068327D01*
X112823690Y-132165000D01*
X113064250Y-132165000D01*
X113223000Y-132006250D01*
X113223000Y-131207000D01*
X112473750Y-131207000D01*
X112315000Y-131365750D01*
X108668605Y-131365750D01*
X109178026Y-131154741D01*
X109806741Y-130526026D01*
X109815992Y-130503691D01*
X112315000Y-130503691D01*
X112315000Y-130794250D01*
X112473750Y-130953000D01*
X113223000Y-130953000D01*
X113223000Y-130153750D01*
X113064250Y-129995000D01*
X112823690Y-129995000D01*
X112590301Y-130091673D01*
X112411673Y-130270302D01*
X112315000Y-130503691D01*
X109815992Y-130503691D01*
X110147000Y-129704569D01*
X110147000Y-128815431D01*
X109806741Y-127993974D01*
X109178026Y-127365259D01*
X108356569Y-127025000D01*
X107467431Y-127025000D01*
X106645974Y-127365259D01*
X106017259Y-127993974D01*
X105677000Y-128815431D01*
X103580000Y-128815431D01*
X103580000Y-118665750D01*
X117395000Y-118665750D01*
X117395000Y-118956309D01*
X117491673Y-119189698D01*
X117670301Y-119368327D01*
X117903690Y-119465000D01*
X118144250Y-119465000D01*
X118303000Y-119306250D01*
X118303000Y-118507000D01*
X117553750Y-118507000D01*
X117395000Y-118665750D01*
X103580000Y-118665750D01*
X103580000Y-117803691D01*
X117395000Y-117803691D01*
X117395000Y-118094250D01*
X117553750Y-118253000D01*
X118303000Y-118253000D01*
X118303000Y-117453750D01*
X118144250Y-117295000D01*
X117903690Y-117295000D01*
X117670301Y-117391673D01*
X117491673Y-117570302D01*
X117395000Y-117803691D01*
X103580000Y-117803691D01*
X103580000Y-102156126D01*
X110689980Y-102156126D01*
X110689980Y-102567874D01*
X110847549Y-102948280D01*
X111138700Y-103239431D01*
X111519106Y-103397000D01*
X111930854Y-103397000D01*
X112311260Y-103239431D01*
X112602411Y-102948280D01*
X112759980Y-102567874D01*
X112759980Y-102156126D01*
X112610223Y-101794579D01*
X112715339Y-101689463D01*
X112728549Y-101693470D01*
X112824682Y-101712592D01*
X112950991Y-101725032D01*
X112987894Y-101725032D01*
X113000000Y-101727440D01*
X113550000Y-101727440D01*
X113675000Y-101702576D01*
X113800000Y-101727440D01*
X114800000Y-101727440D01*
X114925000Y-101702576D01*
X115050000Y-101727440D01*
X115600000Y-101727440D01*
X115612106Y-101725032D01*
X115649009Y-101725032D01*
X115775318Y-101712592D01*
X115871451Y-101693470D01*
X115992904Y-101656628D01*
X116083460Y-101619119D01*
X116195397Y-101559287D01*
X116276896Y-101504831D01*
X116375006Y-101424314D01*
X116444314Y-101355006D01*
X116524831Y-101256896D01*
X116579287Y-101175397D01*
X116624933Y-101090000D01*
X124385153Y-101090000D01*
X124460000Y-101104888D01*
X124534847Y-101090000D01*
X124534852Y-101090000D01*
X124756537Y-101045904D01*
X125007929Y-100877929D01*
X125050331Y-100814470D01*
X126174473Y-99690329D01*
X126237929Y-99647929D01*
X126290000Y-99570000D01*
X126405904Y-99396538D01*
X126437899Y-99235686D01*
X126450000Y-99174852D01*
X126450000Y-99174848D01*
X126464142Y-99103752D01*
X126545346Y-99070116D01*
X126940000Y-98675462D01*
X127334654Y-99070116D01*
X127889642Y-99300000D01*
X128490358Y-99300000D01*
X129045346Y-99070116D01*
X129263402Y-98852060D01*
X129807545Y-98852060D01*
X129890884Y-99105953D01*
X130455306Y-99311590D01*
X131055458Y-99285579D01*
X131489116Y-99105953D01*
X131572455Y-98852060D01*
X130690000Y-97969605D01*
X129807545Y-98852060D01*
X129263402Y-98852060D01*
X129470116Y-98645346D01*
X129479121Y-98623606D01*
X129627940Y-98672455D01*
X130510395Y-97790000D01*
X130869605Y-97790000D01*
X131752060Y-98672455D01*
X132005953Y-98589116D01*
X132211590Y-98024694D01*
X132185579Y-97424542D01*
X132005953Y-96990884D01*
X131752060Y-96907545D01*
X130869605Y-97790000D01*
X130510395Y-97790000D01*
X129627940Y-96907545D01*
X129479121Y-96956394D01*
X129470116Y-96934654D01*
X129264802Y-96729340D01*
X129266202Y-96727940D01*
X129807545Y-96727940D01*
X130690000Y-97610395D01*
X131572455Y-96727940D01*
X131489116Y-96474047D01*
X130924694Y-96268410D01*
X130324542Y-96294421D01*
X129890884Y-96474047D01*
X129807545Y-96727940D01*
X129266202Y-96727940D01*
X129732143Y-96262000D01*
X169940422Y-96262000D01*
X171835000Y-98156579D01*
X171835001Y-106755344D01*
X171649375Y-106879375D01*
X171450000Y-107177761D01*
X171250625Y-106879375D01*
X170759418Y-106551161D01*
X170326256Y-106465000D01*
X170033744Y-106465000D01*
X169600582Y-106551161D01*
X169109375Y-106879375D01*
X168910000Y-107177761D01*
X168710625Y-106879375D01*
X168219418Y-106551161D01*
X167786256Y-106465000D01*
X167493744Y-106465000D01*
X167060582Y-106551161D01*
X166569375Y-106879375D01*
X166370000Y-107177761D01*
X166170625Y-106879375D01*
X165679418Y-106551161D01*
X165246256Y-106465000D01*
X164953744Y-106465000D01*
X164520582Y-106551161D01*
X164029375Y-106879375D01*
X163830000Y-107177761D01*
X163630625Y-106879375D01*
X163139418Y-106551161D01*
X162706256Y-106465000D01*
X162413744Y-106465000D01*
X161980582Y-106551161D01*
X161489375Y-106879375D01*
X161290000Y-107177761D01*
X161090625Y-106879375D01*
X160599418Y-106551161D01*
X160166256Y-106465000D01*
X159873744Y-106465000D01*
X159440582Y-106551161D01*
X158949375Y-106879375D01*
X158750000Y-107177761D01*
X158550625Y-106879375D01*
X158059418Y-106551161D01*
X157626256Y-106465000D01*
X157333744Y-106465000D01*
X156900582Y-106551161D01*
X156409375Y-106879375D01*
X156210000Y-107177761D01*
X156010625Y-106879375D01*
X155519418Y-106551161D01*
X155086256Y-106465000D01*
X154793744Y-106465000D01*
X154360582Y-106551161D01*
X153869375Y-106879375D01*
X153670000Y-107177761D01*
X153470625Y-106879375D01*
X152979418Y-106551161D01*
X152546256Y-106465000D01*
X152253744Y-106465000D01*
X151820582Y-106551161D01*
X151329375Y-106879375D01*
X151001161Y-107370582D01*
X150885908Y-107950000D01*
X151001161Y-108529418D01*
X151329375Y-109020625D01*
X151820582Y-109348839D01*
X152253744Y-109435000D01*
X152546256Y-109435000D01*
X152979418Y-109348839D01*
X153470625Y-109020625D01*
X153670000Y-108722239D01*
X153869375Y-109020625D01*
X154360582Y-109348839D01*
X154793744Y-109435000D01*
X155086256Y-109435000D01*
X155519418Y-109348839D01*
X156010625Y-109020625D01*
X156210000Y-108722239D01*
X156409375Y-109020625D01*
X156900582Y-109348839D01*
X157333744Y-109435000D01*
X157626256Y-109435000D01*
X158059418Y-109348839D01*
X158550625Y-109020625D01*
X158750000Y-108722239D01*
X158949375Y-109020625D01*
X159440582Y-109348839D01*
X159873744Y-109435000D01*
X160166256Y-109435000D01*
X160599418Y-109348839D01*
X161090625Y-109020625D01*
X161290000Y-108722239D01*
X161489375Y-109020625D01*
X161980582Y-109348839D01*
X162413744Y-109435000D01*
X162706256Y-109435000D01*
X163139418Y-109348839D01*
X163630625Y-109020625D01*
X163830000Y-108722239D01*
X164029375Y-109020625D01*
X164520582Y-109348839D01*
X164953744Y-109435000D01*
X165246256Y-109435000D01*
X165679418Y-109348839D01*
X166170625Y-109020625D01*
X166370000Y-108722239D01*
X166569375Y-109020625D01*
X167060582Y-109348839D01*
X167493744Y-109435000D01*
X167786256Y-109435000D01*
X168219418Y-109348839D01*
X168710625Y-109020625D01*
X168910000Y-108722239D01*
X169109375Y-109020625D01*
X169600582Y-109348839D01*
X170033744Y-109435000D01*
X170326256Y-109435000D01*
X170759418Y-109348839D01*
X171250625Y-109020625D01*
X171450000Y-108722239D01*
X171649375Y-109020625D01*
X172140582Y-109348839D01*
X172573744Y-109435000D01*
X172866256Y-109435000D01*
X173299418Y-109348839D01*
X173790625Y-109020625D01*
X173990000Y-108722239D01*
X174189375Y-109020625D01*
X174680582Y-109348839D01*
X175113744Y-109435000D01*
X175406256Y-109435000D01*
X175839418Y-109348839D01*
X176330625Y-109020625D01*
X176543843Y-108701522D01*
X176604817Y-108831358D01*
X177033076Y-109221645D01*
X177443110Y-109391476D01*
X177673000Y-109270155D01*
X177673000Y-108077000D01*
X177653000Y-108077000D01*
X177653000Y-107823000D01*
X177673000Y-107823000D01*
X177673000Y-106629845D01*
X177443110Y-106508524D01*
X177033076Y-106678355D01*
X176604817Y-107068642D01*
X176543843Y-107198478D01*
X176330625Y-106879375D01*
X175839418Y-106551161D01*
X175406256Y-106465000D01*
X175113744Y-106465000D01*
X174680582Y-106551161D01*
X174189375Y-106879375D01*
X173990000Y-107177761D01*
X173790625Y-106879375D01*
X173605000Y-106755344D01*
X173605000Y-97877159D01*
X173617278Y-97815431D01*
X176977000Y-97815431D01*
X176977000Y-98704569D01*
X177317259Y-99526026D01*
X177945974Y-100154741D01*
X178767431Y-100495000D01*
X179656569Y-100495000D01*
X180478026Y-100154741D01*
X181106741Y-99526026D01*
X181447000Y-98704569D01*
X181447000Y-97815431D01*
X181106741Y-96993974D01*
X180478026Y-96365259D01*
X179656569Y-96025000D01*
X178767431Y-96025000D01*
X177945974Y-96365259D01*
X177317259Y-96993974D01*
X176977000Y-97815431D01*
X173617278Y-97815431D01*
X173622337Y-97789999D01*
X173605000Y-97702839D01*
X173605000Y-97702835D01*
X173553652Y-97444690D01*
X173443609Y-97280000D01*
X173407424Y-97225845D01*
X173407423Y-97225844D01*
X173358049Y-97151951D01*
X173284156Y-97102577D01*
X170994425Y-94812847D01*
X170945049Y-94738951D01*
X170652310Y-94543348D01*
X170394165Y-94492000D01*
X170394161Y-94492000D01*
X170307000Y-94474663D01*
X170219839Y-94492000D01*
X129452725Y-94492000D01*
X129365564Y-94474663D01*
X129278403Y-94492000D01*
X129278399Y-94492000D01*
X129020254Y-94543348D01*
X128801409Y-94689576D01*
X128801408Y-94689577D01*
X128727515Y-94738951D01*
X128678141Y-94812844D01*
X127625845Y-95865141D01*
X127551952Y-95914515D01*
X127502578Y-95988408D01*
X127502576Y-95988410D01*
X127356348Y-96207255D01*
X127287663Y-96552564D01*
X127288378Y-96556160D01*
X126940000Y-96904538D01*
X126545346Y-96509884D01*
X125990358Y-96280000D01*
X125389642Y-96280000D01*
X124834654Y-96509884D01*
X124665504Y-96679034D01*
X124663157Y-96667235D01*
X124522809Y-96457191D01*
X124312765Y-96316843D01*
X124065000Y-96267560D01*
X123838483Y-96267560D01*
X123737929Y-96117071D01*
X123674473Y-96074671D01*
X122365331Y-94765530D01*
X122322929Y-94702071D01*
X122071537Y-94534096D01*
X121849852Y-94490000D01*
X121849847Y-94490000D01*
X121775000Y-94475112D01*
X121700153Y-94490000D01*
X116624933Y-94490000D01*
X116579287Y-94404603D01*
X116524831Y-94323104D01*
X116444314Y-94224994D01*
X116375006Y-94155686D01*
X116276896Y-94075169D01*
X116195397Y-94020713D01*
X116083460Y-93960881D01*
X115992904Y-93923372D01*
X115871451Y-93886530D01*
X115775318Y-93867408D01*
X115759001Y-93865801D01*
X116914802Y-92710000D01*
X150885908Y-92710000D01*
X151001161Y-93289418D01*
X151329375Y-93780625D01*
X151820582Y-94108839D01*
X152253744Y-94195000D01*
X152546256Y-94195000D01*
X152979418Y-94108839D01*
X153470625Y-93780625D01*
X153670000Y-93482239D01*
X153869375Y-93780625D01*
X154360582Y-94108839D01*
X154793744Y-94195000D01*
X155086256Y-94195000D01*
X155519418Y-94108839D01*
X156010625Y-93780625D01*
X156210000Y-93482239D01*
X156409375Y-93780625D01*
X156900582Y-94108839D01*
X157333744Y-94195000D01*
X157626256Y-94195000D01*
X158059418Y-94108839D01*
X158550625Y-93780625D01*
X158750000Y-93482239D01*
X158949375Y-93780625D01*
X159440582Y-94108839D01*
X159873744Y-94195000D01*
X160166256Y-94195000D01*
X160599418Y-94108839D01*
X161090625Y-93780625D01*
X161290000Y-93482239D01*
X161489375Y-93780625D01*
X161980582Y-94108839D01*
X162413744Y-94195000D01*
X162706256Y-94195000D01*
X163139418Y-94108839D01*
X163630625Y-93780625D01*
X163830000Y-93482239D01*
X164029375Y-93780625D01*
X164520582Y-94108839D01*
X164953744Y-94195000D01*
X165246256Y-94195000D01*
X165679418Y-94108839D01*
X166170625Y-93780625D01*
X166370000Y-93482239D01*
X166569375Y-93780625D01*
X167060582Y-94108839D01*
X167493744Y-94195000D01*
X167786256Y-94195000D01*
X168219418Y-94108839D01*
X168710625Y-93780625D01*
X168910000Y-93482239D01*
X169109375Y-93780625D01*
X169600582Y-94108839D01*
X170033744Y-94195000D01*
X170326256Y-94195000D01*
X170759418Y-94108839D01*
X171250625Y-93780625D01*
X171463843Y-93461522D01*
X171524817Y-93591358D01*
X171953076Y-93981645D01*
X172363110Y-94151476D01*
X172593000Y-94030155D01*
X172593000Y-92837000D01*
X172847000Y-92837000D01*
X172847000Y-94030155D01*
X173076890Y-94151476D01*
X173486924Y-93981645D01*
X173915183Y-93591358D01*
X173990000Y-93432046D01*
X174064817Y-93591358D01*
X174493076Y-93981645D01*
X174903110Y-94151476D01*
X175133000Y-94030155D01*
X175133000Y-92837000D01*
X172847000Y-92837000D01*
X172593000Y-92837000D01*
X172573000Y-92837000D01*
X172573000Y-92583000D01*
X172593000Y-92583000D01*
X172593000Y-91389845D01*
X172847000Y-91389845D01*
X172847000Y-92583000D01*
X175133000Y-92583000D01*
X175133000Y-91389845D01*
X174903110Y-91268524D01*
X174493076Y-91438355D01*
X174064817Y-91828642D01*
X173990000Y-91987954D01*
X173915183Y-91828642D01*
X173486924Y-91438355D01*
X173076890Y-91268524D01*
X172847000Y-91389845D01*
X172593000Y-91389845D01*
X172363110Y-91268524D01*
X171953076Y-91438355D01*
X171524817Y-91828642D01*
X171463843Y-91958478D01*
X171250625Y-91639375D01*
X170759418Y-91311161D01*
X170326256Y-91225000D01*
X170033744Y-91225000D01*
X169600582Y-91311161D01*
X169109375Y-91639375D01*
X168910000Y-91937761D01*
X168710625Y-91639375D01*
X168219418Y-91311161D01*
X167786256Y-91225000D01*
X167493744Y-91225000D01*
X167060582Y-91311161D01*
X166569375Y-91639375D01*
X166370000Y-91937761D01*
X166170625Y-91639375D01*
X165679418Y-91311161D01*
X165246256Y-91225000D01*
X164953744Y-91225000D01*
X164520582Y-91311161D01*
X164029375Y-91639375D01*
X163830000Y-91937761D01*
X163630625Y-91639375D01*
X163139418Y-91311161D01*
X162706256Y-91225000D01*
X162413744Y-91225000D01*
X161980582Y-91311161D01*
X161489375Y-91639375D01*
X161290000Y-91937761D01*
X161090625Y-91639375D01*
X160599418Y-91311161D01*
X160166256Y-91225000D01*
X159873744Y-91225000D01*
X159440582Y-91311161D01*
X158949375Y-91639375D01*
X158750000Y-91937761D01*
X158550625Y-91639375D01*
X158059418Y-91311161D01*
X157626256Y-91225000D01*
X157333744Y-91225000D01*
X156900582Y-91311161D01*
X156409375Y-91639375D01*
X156210000Y-91937761D01*
X156010625Y-91639375D01*
X155519418Y-91311161D01*
X155086256Y-91225000D01*
X154793744Y-91225000D01*
X154360582Y-91311161D01*
X153869375Y-91639375D01*
X153670000Y-91937761D01*
X153470625Y-91639375D01*
X152979418Y-91311161D01*
X152546256Y-91225000D01*
X152253744Y-91225000D01*
X151820582Y-91311161D01*
X151329375Y-91639375D01*
X151001161Y-92130582D01*
X150885908Y-92710000D01*
X116914802Y-92710000D01*
X118694803Y-90930000D01*
X178585199Y-90930000D01*
X179047296Y-91392098D01*
X179032191Y-91402191D01*
X178891843Y-91612235D01*
X178882816Y-91657619D01*
X178870625Y-91639375D01*
X178379418Y-91311161D01*
X177946256Y-91225000D01*
X177653744Y-91225000D01*
X177220582Y-91311161D01*
X176729375Y-91639375D01*
X176516157Y-91958478D01*
X176455183Y-91828642D01*
X176026924Y-91438355D01*
X175616890Y-91268524D01*
X175387000Y-91389845D01*
X175387000Y-92583000D01*
X175407000Y-92583000D01*
X175407000Y-92837000D01*
X175387000Y-92837000D01*
X175387000Y-94030155D01*
X175616890Y-94151476D01*
X176026924Y-93981645D01*
X176455183Y-93591358D01*
X176516157Y-93461522D01*
X176729375Y-93780625D01*
X177220582Y-94108839D01*
X177653744Y-94195000D01*
X177946256Y-94195000D01*
X178379418Y-94108839D01*
X178870625Y-93780625D01*
X178882816Y-93762381D01*
X178891843Y-93807765D01*
X179032191Y-94017809D01*
X179242235Y-94158157D01*
X179490000Y-94207440D01*
X181190000Y-94207440D01*
X181437765Y-94158157D01*
X181647809Y-94017809D01*
X181788157Y-93807765D01*
X181837440Y-93560000D01*
X181837440Y-91860000D01*
X181788157Y-91612235D01*
X181647809Y-91402191D01*
X181437765Y-91261843D01*
X181190000Y-91212560D01*
X180988483Y-91212560D01*
X180887929Y-91062071D01*
X180824473Y-91019671D01*
X179490331Y-89685530D01*
X179447929Y-89622071D01*
X179196537Y-89454096D01*
X178974852Y-89410000D01*
X178974847Y-89410000D01*
X178900000Y-89395112D01*
X178825153Y-89410000D01*
X118454846Y-89410000D01*
X118379999Y-89395112D01*
X118305152Y-89410000D01*
X118305148Y-89410000D01*
X118083463Y-89454096D01*
X118083461Y-89454097D01*
X118083462Y-89454097D01*
X117895526Y-89579671D01*
X117895524Y-89579673D01*
X117832071Y-89622071D01*
X117789673Y-89685524D01*
X113815528Y-93659671D01*
X113752072Y-93702071D01*
X113709672Y-93765527D01*
X113709671Y-93765528D01*
X113639609Y-93870384D01*
X113550000Y-93852560D01*
X113000000Y-93852560D01*
X112987894Y-93854968D01*
X112950991Y-93854968D01*
X112824682Y-93867408D01*
X112728549Y-93886530D01*
X112607096Y-93923372D01*
X112516540Y-93960881D01*
X112404603Y-94020713D01*
X112323104Y-94075169D01*
X112224994Y-94155686D01*
X112155686Y-94224994D01*
X112075169Y-94323104D01*
X112020713Y-94404603D01*
X111960881Y-94516540D01*
X111923372Y-94607096D01*
X111886530Y-94728549D01*
X111867408Y-94824682D01*
X111854968Y-94950991D01*
X111854968Y-94987894D01*
X111852560Y-95000000D01*
X111852560Y-95322638D01*
X111690199Y-95485000D01*
X111524126Y-95485000D01*
X111143720Y-95642569D01*
X110852569Y-95933720D01*
X110695000Y-96314126D01*
X110695000Y-96725874D01*
X110852569Y-97106280D01*
X111143720Y-97397431D01*
X111524126Y-97555000D01*
X111935874Y-97555000D01*
X112316280Y-97397431D01*
X112607431Y-97106280D01*
X112765000Y-96725874D01*
X112765000Y-96620721D01*
X112824682Y-96632592D01*
X112950991Y-96645032D01*
X112987894Y-96645032D01*
X113000000Y-96647440D01*
X113550000Y-96647440D01*
X113675000Y-96622576D01*
X113800000Y-96647440D01*
X114800000Y-96647440D01*
X114925000Y-96622576D01*
X115050000Y-96647440D01*
X115600000Y-96647440D01*
X115612106Y-96645032D01*
X115649009Y-96645032D01*
X115775318Y-96632592D01*
X115871451Y-96613470D01*
X115992904Y-96576628D01*
X116083460Y-96539119D01*
X116195397Y-96479287D01*
X116276896Y-96424831D01*
X116375006Y-96344314D01*
X116444314Y-96275006D01*
X116524831Y-96176896D01*
X116579287Y-96095397D01*
X116624933Y-96010000D01*
X121460199Y-96010000D01*
X121887283Y-96437084D01*
X121857191Y-96457191D01*
X121716843Y-96667235D01*
X121667560Y-96915000D01*
X121667560Y-98665000D01*
X121716843Y-98912765D01*
X121857191Y-99122809D01*
X122067235Y-99263157D01*
X122315000Y-99312440D01*
X124065000Y-99312440D01*
X124312765Y-99263157D01*
X124522809Y-99122809D01*
X124663157Y-98912765D01*
X124665504Y-98900966D01*
X124739868Y-98975330D01*
X124145199Y-99570000D01*
X116624933Y-99570000D01*
X116579287Y-99484603D01*
X116524831Y-99403104D01*
X116444314Y-99304994D01*
X116375006Y-99235686D01*
X116276896Y-99155169D01*
X116195397Y-99100713D01*
X116083460Y-99040881D01*
X115992904Y-99003372D01*
X115871451Y-98966530D01*
X115775318Y-98947408D01*
X115649009Y-98934968D01*
X115612106Y-98934968D01*
X115600000Y-98932560D01*
X115060000Y-98932560D01*
X115060000Y-98493711D01*
X115177431Y-98376280D01*
X115335000Y-97995874D01*
X115335000Y-97584126D01*
X115177431Y-97203720D01*
X114886280Y-96912569D01*
X114505874Y-96755000D01*
X114094126Y-96755000D01*
X113713720Y-96912569D01*
X113422569Y-97203720D01*
X113265000Y-97584126D01*
X113265000Y-97995874D01*
X113422569Y-98376280D01*
X113540001Y-98493712D01*
X113540001Y-98932560D01*
X113000000Y-98932560D01*
X112987894Y-98934968D01*
X112950991Y-98934968D01*
X112824682Y-98947408D01*
X112728549Y-98966530D01*
X112607096Y-99003372D01*
X112516540Y-99040881D01*
X112404603Y-99100713D01*
X112323104Y-99155169D01*
X112224994Y-99235686D01*
X112155686Y-99304994D01*
X112075169Y-99403104D01*
X112020713Y-99484603D01*
X111960881Y-99596540D01*
X111923372Y-99687096D01*
X111886530Y-99808549D01*
X111867408Y-99904682D01*
X111854968Y-100030991D01*
X111854968Y-100067894D01*
X111852560Y-100080000D01*
X111852560Y-100402638D01*
X111240510Y-101014689D01*
X111177051Y-101057091D01*
X111009076Y-101308484D01*
X110964980Y-101530169D01*
X110964980Y-101530173D01*
X110950092Y-101605020D01*
X110961400Y-101661869D01*
X110847549Y-101775720D01*
X110689980Y-102156126D01*
X103580000Y-102156126D01*
X103580000Y-97815431D01*
X105677000Y-97815431D01*
X105677000Y-98704569D01*
X106017259Y-99526026D01*
X106645974Y-100154741D01*
X107467431Y-100495000D01*
X108356569Y-100495000D01*
X109178026Y-100154741D01*
X109806741Y-99526026D01*
X110147000Y-98704569D01*
X110147000Y-97815431D01*
X109806741Y-96993974D01*
X109178026Y-96365259D01*
X108356569Y-96025000D01*
X107467431Y-96025000D01*
X106645974Y-96365259D01*
X106017259Y-96993974D01*
X105677000Y-97815431D01*
X103580000Y-97815431D01*
X103580000Y-88340000D01*
X183440000Y-88340000D01*
X183440001Y-139065000D01*
G36*
X174695847Y-131751425D02*
X178947001Y-136002580D01*
X178947001Y-136344816D01*
X178742060Y-136277545D01*
X177859605Y-137160000D01*
X178742060Y-138042455D01*
X178947001Y-137975184D01*
X178947001Y-139065000D01*
X176043400Y-139065000D01*
X176043400Y-138593192D01*
X176065000Y-138484601D01*
X176065000Y-138484597D01*
X176082337Y-138397437D01*
X176081622Y-138393840D01*
X176253402Y-138222060D01*
X176797545Y-138222060D01*
X176880884Y-138475953D01*
X177445306Y-138681590D01*
X178045458Y-138655579D01*
X178479116Y-138475953D01*
X178562455Y-138222060D01*
X177680000Y-137339605D01*
X176797545Y-138222060D01*
X176253402Y-138222060D01*
X176460116Y-138015346D01*
X176469121Y-137993606D01*
X176617940Y-138042455D01*
X177500395Y-137160000D01*
X176617940Y-136277545D01*
X176469121Y-136326394D01*
X176460116Y-136304654D01*
X176253402Y-136097940D01*
X176797545Y-136097940D01*
X177680000Y-136980395D01*
X178562455Y-136097940D01*
X178479116Y-135844047D01*
X177914694Y-135638410D01*
X177314542Y-135664421D01*
X176880884Y-135844047D01*
X176797545Y-136097940D01*
X176253402Y-136097940D01*
X176035346Y-135879884D01*
X175480358Y-135650000D01*
X174879642Y-135650000D01*
X174324654Y-135879884D01*
X173930000Y-136274538D01*
X173605000Y-135949538D01*
X173605000Y-133947115D01*
X173718157Y-133777765D01*
X173767440Y-133530000D01*
X173767440Y-132630000D01*
X173718157Y-132382235D01*
X173581316Y-132177440D01*
X174070000Y-132177440D01*
X174317765Y-132128157D01*
X174527809Y-131987809D01*
X174668157Y-131777765D01*
X174676030Y-131738184D01*
X174695847Y-131751425D01*
X174695847Y-131751425D01*
G37*
X174695847Y-131751425D02*
X178947001Y-136002580D01*
X178947001Y-136344816D01*
X178742060Y-136277545D01*
X177859605Y-137160000D01*
X178742060Y-138042455D01*
X178947001Y-137975184D01*
X178947001Y-139065000D01*
X176043400Y-139065000D01*
X176043400Y-138593192D01*
X176065000Y-138484601D01*
X176065000Y-138484597D01*
X176082337Y-138397437D01*
X176081622Y-138393840D01*
X176253402Y-138222060D01*
X176797545Y-138222060D01*
X176880884Y-138475953D01*
X177445306Y-138681590D01*
X178045458Y-138655579D01*
X178479116Y-138475953D01*
X178562455Y-138222060D01*
X177680000Y-137339605D01*
X176797545Y-138222060D01*
X176253402Y-138222060D01*
X176460116Y-138015346D01*
X176469121Y-137993606D01*
X176617940Y-138042455D01*
X177500395Y-137160000D01*
X176617940Y-136277545D01*
X176469121Y-136326394D01*
X176460116Y-136304654D01*
X176253402Y-136097940D01*
X176797545Y-136097940D01*
X177680000Y-136980395D01*
X178562455Y-136097940D01*
X178479116Y-135844047D01*
X177914694Y-135638410D01*
X177314542Y-135664421D01*
X176880884Y-135844047D01*
X176797545Y-136097940D01*
X176253402Y-136097940D01*
X176035346Y-135879884D01*
X175480358Y-135650000D01*
X174879642Y-135650000D01*
X174324654Y-135879884D01*
X173930000Y-136274538D01*
X173605000Y-135949538D01*
X173605000Y-133947115D01*
X173718157Y-133777765D01*
X173767440Y-133530000D01*
X173767440Y-132630000D01*
X173718157Y-132382235D01*
X173581316Y-132177440D01*
X174070000Y-132177440D01*
X174317765Y-132128157D01*
X174527809Y-131987809D01*
X174668157Y-131777765D01*
X174676030Y-131738184D01*
X174695847Y-131751425D01*
G04 #@! TD*
M02*
