G04 #@! TF.GenerationSoftware,KiCad,Pcbnew,(5.0.0)*
G04 #@! TF.CreationDate,2019-07-13T19:24:01-04:00*
G04 #@! TF.ProjectId,ProMicro-Breakout,50726F4D6963726F2D427265616B6F75,rev?*
G04 #@! TF.SameCoordinates,Original*
G04 #@! TF.FileFunction,Soldermask,Bot*
G04 #@! TF.FilePolarity,Negative*
%FSLAX46Y46*%
G04 Gerber Fmt 4.6, Leading zero omitted, Abs format (unit mm)*
G04 Created by KiCad (PCBNEW (5.0.0)) date 07/13/19 19:24:01*
%MOMM*%
%LPD*%
G01*
G04 APERTURE LIST*
%ADD10O,2.100000X2.100000*%
%ADD11R,2.100000X2.100000*%
%ADD12C,2.150000*%
%ADD13R,2.150000X2.150000*%
%ADD14C,3.600000*%
G04 APERTURE END LIST*
D10*
G04 #@! TO.C,J7*
X152400000Y-92710000D03*
X154940000Y-92710000D03*
X157480000Y-92710000D03*
X160020000Y-92710000D03*
X162560000Y-92710000D03*
X165100000Y-92710000D03*
X167640000Y-92710000D03*
X170180000Y-92710000D03*
X172720000Y-92710000D03*
X175260000Y-92710000D03*
X177800000Y-92710000D03*
D11*
X180340000Y-92710000D03*
G04 #@! TD*
G04 #@! TO.C,J10*
X180340000Y-107950000D03*
D10*
X177800000Y-107950000D03*
X175260000Y-107950000D03*
X172720000Y-107950000D03*
X170180000Y-107950000D03*
X167640000Y-107950000D03*
X165100000Y-107950000D03*
X162560000Y-107950000D03*
X160020000Y-107950000D03*
X157480000Y-107950000D03*
X154940000Y-107950000D03*
X152400000Y-107950000D03*
G04 #@! TD*
D12*
G04 #@! TO.C,J13*
X180300000Y-114300000D03*
D13*
X177800000Y-114300000D03*
G04 #@! TD*
D12*
G04 #@! TO.C,J8*
X147200000Y-137160000D03*
X144700000Y-137160000D03*
X142200000Y-137160000D03*
D13*
X139700000Y-137160000D03*
G04 #@! TD*
D12*
G04 #@! TO.C,J2*
X130690000Y-107950000D03*
X128190000Y-107950000D03*
X125690000Y-107950000D03*
D13*
X123190000Y-107950000D03*
G04 #@! TD*
D12*
G04 #@! TO.C,J3*
X177680000Y-137160000D03*
X175180000Y-137160000D03*
X172680000Y-137160000D03*
D13*
X170180000Y-137160000D03*
G04 #@! TD*
G04 #@! TO.C,J4*
X162560000Y-124460000D03*
D12*
X165060000Y-124460000D03*
X167560000Y-124460000D03*
X170060000Y-124460000D03*
G04 #@! TD*
G04 #@! TO.C,J5*
X162440000Y-137160000D03*
X159940000Y-137160000D03*
X157440000Y-137160000D03*
D13*
X154940000Y-137160000D03*
G04 #@! TD*
G04 #@! TO.C,J9*
X132080000Y-124460000D03*
D12*
X134580000Y-124460000D03*
X137080000Y-124460000D03*
X139580000Y-124460000D03*
G04 #@! TD*
G04 #@! TO.C,J11*
X131960000Y-137160000D03*
X129460000Y-137160000D03*
X126960000Y-137160000D03*
D13*
X124460000Y-137160000D03*
G04 #@! TD*
G04 #@! TO.C,J12*
X116800000Y-124460000D03*
D12*
X119300000Y-124460000D03*
X121800000Y-124460000D03*
X124300000Y-124460000D03*
G04 #@! TD*
G04 #@! TO.C,J14*
X116720000Y-137160000D03*
X114220000Y-137160000D03*
X111720000Y-137160000D03*
D13*
X109220000Y-137160000D03*
G04 #@! TD*
G04 #@! TO.C,J1*
X123190000Y-97790000D03*
D12*
X125690000Y-97790000D03*
X128190000Y-97790000D03*
X130690000Y-97790000D03*
G04 #@! TD*
G04 #@! TO.C,J6*
X154820000Y-124460000D03*
X152320000Y-124460000D03*
X149820000Y-124460000D03*
D13*
X147320000Y-124460000D03*
G04 #@! TD*
D14*
G04 #@! TO.C,MH1*
X107912000Y-129260000D03*
G04 #@! TD*
G04 #@! TO.C,MH2*
X107912000Y-98260000D03*
G04 #@! TD*
G04 #@! TO.C,MH3*
X179212000Y-129260000D03*
G04 #@! TD*
G04 #@! TO.C,MH4*
X179212000Y-98260000D03*
G04 #@! TD*
M02*
